<svg width="982" height="616" viewBox="0 0 982 616" fill="none" xmlns="http://www.w3.org/2000/svg">
<g clip-path="url(#clip0_1117_1847)">
<path d="M623.106 100.005L662.668 95.6089L719.813 164.477L723.477 178.397L855.351 314.667C855.351 314.667 887.587 430.423 685.38 471.451C685.38 471.451 483.172 483.173 486.103 357.16L576.95 197.445L574.019 178.397L623.106 100.005Z" fill="#B7E589" stroke="#605B53" stroke-width="0.5" stroke-miterlimit="10"/>
<path d="M462.659 386.465C465.59 405.513 486.074 432.987 486.074 432.987C486.074 432.987 549.11 508.082 683.915 494.895C818.72 481.708 874.4 387.93 874.4 387.93C899.31 346.903 883.192 313.201 883.192 313.201L742.526 167.832V149.091L717.616 124.182L702.963 125.647L666.332 90.4805L617.978 97.8068L591.603 140.3L575.485 141.765L557.902 174.001L562.298 188.654L462.659 361.555V386.465Z" stroke="#605B53" stroke-width="0.5" stroke-miterlimit="10"/>
<path d="M688.311 26.0085L581.346 40.6612L532.992 128.577L519.805 121.251L441.134 283.676L434.819 279.5C434.819 279.5 398.187 330.785 405.514 380.604L462.659 373.468V361.555L562.298 188.653L557.902 174.001L575.485 141.765L591.603 140.3L617.978 97.8068L666.332 90.4804L702.963 125.647L717.616 124.182L742.526 149.091V167.832L883.192 313.201L885.888 321.129L943.268 311.736C943.268 311.736 933.011 251.514 888.32 220.816L881.726 226.751L766.146 90.4804L755.713 100.737L688.311 26.0085Z" fill="#FFC8AF" stroke="#605B53" stroke-width="0.5" stroke-miterlimit="10"/>
<path d="M572.555 30.4044L694.172 15.7517L727.873 53.8487L748.387 37.7308L903.705 207.702L881.726 226.751L766.146 90.4805L755.713 100.737L688.311 26.0086L581.346 40.6613L532.992 128.577L519.805 121.251L441.134 283.676L418.701 269.243L528.596 65.5709L549.11 77.293L572.555 30.4044Z" fill="#FFFAF8" stroke="#605B53" stroke-width="0.5" stroke-miterlimit="10"/>
<path d="M414.598 379.476C414.598 379.476 426.027 562.297 688.31 543.249C950.593 524.2 934.08 313.245 934.08 313.245L885.887 321.143C885.887 321.143 894.913 355.709 874.399 387.945C853.886 420.181 794.542 483.143 675.489 495.627C556.436 508.097 486.074 433.002 486.074 433.002C486.074 433.002 469.985 414.32 462.658 386.48V373.483L414.598 379.49V379.476Z" fill="#FFF5F1" stroke="#605B53" stroke-width="0.5" stroke-miterlimit="10"/>
<path d="M404.546 397.967L423.096 393.791C423.096 393.791 445.075 547.644 688.31 543.249C688.31 543.249 933.01 499.291 928.614 330.785L946.198 327.854C946.198 327.854 950.593 355.694 931.545 402.583C912.496 449.471 839.233 506.617 839.233 506.617C839.233 506.617 770.365 553.506 688.31 560.832C606.255 568.158 538.853 535.922 538.853 535.922C538.853 535.922 429.954 497.4 404.546 397.967Z" fill="#FAFDF9" stroke="#605B53" stroke-width="0.5" stroke-miterlimit="10"/>
<path d="M127.435 428.943L157.883 412.84L148.901 401.118L127.435 415.023L118.321 409.909L26.0088 228.216L168.14 160.813L309.48 428.943L163.744 502.221L127.435 428.943Z" fill="#F7F7F7" stroke="#605B53" stroke-width="0.5" stroke-miterlimit="10"/>
<path d="M160.813 439.215L179.715 471.744L276.57 420.166L260.452 389.396L160.813 439.215Z" fill="#FCFCFC" stroke="#605B53" stroke-width="0.5" stroke-miterlimit="10"/>
<path d="M0.366211 236.685H7.927L136.768 502.221L137.369 522.735L68.8676 561.916L58.2444 534.457L45.0569 540.318L55.3138 566.693L42.1264 574.02L36.2653 571.089L0.366211 499.965V236.685Z" fill="#F7F7F7" stroke="#605B53" stroke-width="0.5" stroke-miterlimit="10"/>
<path d="M203.306 614.651L160.813 529.768H154.498L47.9873 588.672L62.0832 614.651H203.306Z" fill="#F7F7F7" stroke="#605B53" stroke-width="0.5" stroke-miterlimit="10"/>
<path d="M981.467 190.236L965.246 198.91L981.305 232.26L981.467 190.236Z" fill="#EAF5E5" stroke="#605B53" stroke-width="0.5" stroke-miterlimit="10"/>
<path d="M0.366211 12.8504V0.366333H243.425L248.979 12.8504L53.6874 101.953L0.366211 12.8504Z" fill="#F7F7F7" stroke="#605B53" stroke-width="0.5" stroke-miterlimit="10"/>
<path d="M0.366211 39.4597L41.7308 107.419L0.366211 126.292V39.4597Z" fill="#F7F7F7" stroke="#605B53" stroke-width="0.5" stroke-miterlimit="10"/>
<path d="M653.056 496.961V534.516C653.056 534.516 562.239 542.633 486.074 479.202C486.074 479.202 450.937 458.263 431.889 404.048L464.623 393.103C464.623 393.103 472.916 446.409 561.565 480.916C561.565 480.916 609.01 499.042 653.056 496.976V496.961Z" fill="#FCDED0" stroke="#605B53" stroke-width="0.5" stroke-miterlimit="10"/>
<path d="M730.275 485.488L736.664 509.548C736.664 509.548 747.155 506.925 761.852 502.06C786.762 493.811 823.73 479.085 842.163 459.728L826.28 438.922C826.28 438.922 783.948 474.616 730.275 485.488Z" fill="#FCDED0" stroke="#605B53" stroke-width="0.5" stroke-miterlimit="10"/>
<path d="M888.32 339.151L922.754 339.576C922.754 339.576 927.985 403.755 857.241 463.978C857.241 463.978 846.56 474.381 836.303 480.242L827.731 471.744C827.731 471.744 839.233 464.124 842.164 459.728L826.28 438.922C826.28 438.922 891.983 391.476 888.32 339.151Z" stroke="#605B53" stroke-width="0.5" stroke-miterlimit="10"/>
<path d="M573.814 244.143C595.5 284.174 641.363 304.571 683.387 290.329C713.44 280.145 734.276 254.708 741.104 224.611L646.213 152.886L573.8 244.158L573.814 244.143Z" fill="#FAFAFA"/>
<path d="M647.579 157.49L599.93 219.498L662.205 267.353L709.854 205.345L647.579 157.49Z" fill="#B7E589"/>
<path d="M647.356 168.052C654.235 168.052 659.811 162.476 659.811 155.597C659.811 148.718 654.235 143.142 647.356 143.142C640.478 143.142 634.901 148.718 634.901 155.597C634.901 162.476 640.478 168.052 647.356 168.052Z" fill="#FAFAFA"/>
<path d="M607.062 213.475C606.783 212.787 606.432 212.142 606.036 211.541L599.926 219.497L606.344 224.421C608.19 221.197 608.586 217.182 607.062 213.475Z" fill="#FAFAFA"/>
<path d="M657.262 260.1C656.324 260.481 655.474 260.979 654.683 261.551L662.199 267.339L667.489 260.452C664.397 258.928 660.69 258.679 657.247 260.115L657.262 260.1Z" fill="#FAFAFA"/>
<path d="M704.883 211.805L709.85 205.343L703.784 200.683C702.67 203.555 702.612 206.852 703.886 209.915C704.165 210.589 704.502 211.219 704.883 211.805Z" fill="#FAFAFA"/>
<path d="M654.975 218.04C659.831 218.04 663.767 214.104 663.767 209.248C663.767 204.393 659.831 200.457 654.975 200.457C650.12 200.457 646.184 204.393 646.184 209.248C646.184 214.104 650.12 218.04 654.975 218.04Z" fill="#FAFAFA"/>
</g>
<g filter="url(#filter0_d_1117_1847)">
<path fill-rule="evenodd" clip-rule="evenodd" d="M711.312 114.873C711.701 114.2 712.338 113.71 713.077 113.466C725.23 109.45 734 97.9993 734 84.5C734 67.6553 720.345 54 703.5 54C686.655 54 673 67.6553 673 84.5C673 98.4538 682.37 110.219 695.162 113.846C695.956 114.071 696.646 114.577 697.059 115.292L701.13 122.343C702.434 124.602 705.695 124.602 707 122.343L711.312 114.873Z" fill="white"/>
</g>
<circle cx="702.982" cy="83.9815" r="25.9815" fill="#FF4E00"/>
<path d="M671.117 132.961H674.102V131.055H676.086V137.953H669.148V131.055H671.117V132.961ZM674.102 136.375V134.492H671.117V136.375H674.102ZM680.32 144.438H678.328V140.961H670.555V139.391H680.32V144.438ZM680.32 138.719H678.328V130.203H680.32V138.719ZM687.252 132.969C687.252 133.792 687.101 134.555 686.798 135.258C686.502 135.961 686.054 136.568 685.455 137.078C684.856 137.589 684.108 137.966 683.212 138.211L682.298 136.664C683.043 136.456 683.666 136.161 684.166 135.781C684.671 135.396 685.046 134.964 685.291 134.484C685.535 134 685.658 133.495 685.658 132.969V132.461H687.252V132.969ZM687.634 132.969C687.634 133.453 687.757 133.924 688.002 134.383C688.252 134.836 688.627 135.242 689.127 135.602C689.632 135.956 690.252 136.229 690.986 136.422L690.064 137.93C689.184 137.706 688.439 137.352 687.83 136.867C687.226 136.378 686.772 135.799 686.47 135.133C686.168 134.461 686.017 133.74 686.017 132.969V132.461H687.634V132.969ZM690.502 133.164H682.791V131.578H690.502V133.164ZM687.658 132.328H685.658V130.156H687.658V132.328ZM693.681 138.156H691.689V130.203H693.681V138.156ZM695.603 134.984H693.119V133.359H695.603V134.984ZM686.33 139.961H691.689V138.727H693.681V144.281H684.345V138.727H686.33V139.961ZM691.689 142.68V141.508H686.33V142.68H691.689ZM704.816 133.148H696.37V131.578H704.816V133.148ZM700.605 133.617C701.287 133.617 701.891 133.729 702.417 133.953C702.948 134.172 703.362 134.482 703.659 134.883C703.956 135.284 704.105 135.74 704.105 136.25C704.105 136.76 703.956 137.214 703.659 137.609C703.362 138.005 702.948 138.315 702.417 138.539C701.891 138.763 701.287 138.875 700.605 138.875C699.922 138.875 699.313 138.763 698.777 138.539C698.24 138.315 697.821 138.005 697.519 137.609C697.222 137.214 697.073 136.76 697.073 136.25C697.073 135.74 697.222 135.286 697.519 134.891C697.821 134.49 698.24 134.177 698.777 133.953C699.313 133.729 699.922 133.617 700.605 133.617ZM700.605 135.133C700.287 135.133 700.006 135.177 699.761 135.266C699.521 135.349 699.336 135.474 699.206 135.641C699.076 135.807 699.011 136.01 699.011 136.25C699.011 136.484 699.076 136.685 699.206 136.852C699.336 137.013 699.519 137.135 699.753 137.219C699.993 137.302 700.277 137.344 700.605 137.344C700.922 137.344 701.201 137.302 701.441 137.219C701.685 137.135 701.876 137.013 702.011 136.852C702.146 136.685 702.214 136.484 702.214 136.25C702.214 136.01 702.146 135.807 702.011 135.641C701.876 135.474 701.685 135.349 701.441 135.266C701.201 135.177 700.922 135.133 700.605 135.133ZM701.597 132.43H699.605V130.148H701.597V132.43ZM707.659 140.172H705.667V130.203H707.659V140.172ZM709.581 135.68H707.097V134.023H709.581V135.68ZM703.8 139.609C703.8 140.427 703.584 141.169 703.152 141.836C702.724 142.497 702.099 143.047 701.277 143.484C700.459 143.922 699.477 144.219 698.331 144.375L697.62 142.875C698.589 142.75 699.409 142.523 700.081 142.195C700.758 141.862 701.264 141.471 701.597 141.023C701.935 140.576 702.105 140.104 702.105 139.609V139.398H703.8V139.609ZM704.089 139.609C704.089 140.104 704.258 140.576 704.597 141.023C704.935 141.471 705.446 141.862 706.128 142.195C706.81 142.523 707.641 142.75 708.62 142.875L707.902 144.375C706.756 144.219 705.769 143.922 704.941 143.484C704.118 143.047 703.49 142.495 703.058 141.828C702.626 141.161 702.409 140.422 702.409 139.609V139.398H704.089V139.609ZM721.942 138.164H711.895V136.578H721.942V138.164ZM723.364 142.828H710.364V141.195H723.364V142.828ZM717.817 141.719H715.856V137.305H717.817V141.719ZM721.841 132.805H713.888V137.297H711.895V131.227H721.841V132.805ZM734.772 133.133H725.678V131.523H734.772V133.133ZM737.311 142.562H724.342V140.945H737.311V142.562ZM735.709 133.227C735.709 134.117 735.699 134.862 735.678 135.461C735.662 136.055 735.618 136.74 735.545 137.516C735.478 138.292 735.363 139.141 735.202 140.062L733.178 139.898C733.35 139.044 733.475 138.237 733.553 137.477C733.631 136.716 733.678 136.031 733.694 135.422C733.709 134.807 733.717 134.076 733.717 133.227V131.523H735.709V133.227Z" fill="black"/>
<path d="M707.333 76.25V85.9166H710.958V95.5833H713.375V71.4166C710.04 71.4166 707.333 74.1233 707.333 76.25ZM701.292 79.875H698.875V71.4166H696.458V79.875H694.042V71.4166H691.625V79.875C691.625 82.5454 693.788 84.7083 696.458 84.7083V95.5833H698.875V84.7083C701.545 84.7083 703.708 82.5454 703.708 79.875V71.4166H701.292V79.875Z" fill="#FAFAFA"/>
<defs>
<filter id="filter0_d_1117_1847" x="668" y="51" width="69" height="78.037" filterUnits="userSpaceOnUse" color-interpolation-filters="sRGB">
<feFlood flood-opacity="0" result="BackgroundImageFix"/>
<feColorMatrix in="SourceAlpha" type="matrix" values="0 0 0 0 0 0 0 0 0 0 0 0 0 0 0 0 0 0 127 0" result="hardAlpha"/>
<feOffset dx="-1" dy="1"/>
<feGaussianBlur stdDeviation="2"/>
<feComposite in2="hardAlpha" operator="out"/>
<feColorMatrix type="matrix" values="0 0 0 0 0 0 0 0 0 0 0 0 0 0 0 0 0 0 0.25 0"/>
<feBlend mode="normal" in2="BackgroundImageFix" result="effect1_dropShadow_1117_1847"/>
<feBlend mode="normal" in="SourceGraphic" in2="effect1_dropShadow_1117_1847" result="shape"/>
</filter>
<clipPath id="clip0_1117_1847">
<rect width="981.833" height="615.018" fill="white"/>
</clipPath>
</defs>
</svg>
