<svg width="982" height="616" viewBox="0 0 982 616" fill="none" xmlns="http://www.w3.org/2000/svg">
<g clip-path="url(#clip0_1117_1779)">
<path d="M623.106 100.005L662.668 95.6089L719.813 164.477L723.477 178.397L855.351 314.667C855.351 314.667 887.587 430.423 685.38 471.451C685.38 471.451 483.172 483.173 486.103 357.16L576.95 197.445L574.019 178.397L623.106 100.005Z" fill="#B7E589" stroke="#605B53" stroke-width="0.5" stroke-miterlimit="10"/>
<path d="M462.659 386.465C465.59 405.513 486.074 432.987 486.074 432.987C486.074 432.987 549.11 508.082 683.915 494.895C818.72 481.708 874.4 387.93 874.4 387.93C899.31 346.903 883.192 313.201 883.192 313.201L742.526 167.832V149.091L717.616 124.182L702.963 125.647L666.332 90.4805L617.978 97.8068L591.603 140.3L575.485 141.765L557.902 174.001L562.298 188.654L462.659 361.555V386.465Z" stroke="#605B53" stroke-width="0.5" stroke-miterlimit="10"/>
<path d="M688.311 26.0085L581.346 40.6612L532.992 128.577L519.805 121.251L441.134 283.676L434.819 279.5C434.819 279.5 398.187 330.785 405.514 380.604L462.659 373.468V361.555L562.298 188.653L557.902 174.001L575.485 141.765L591.603 140.3L617.978 97.8068L666.332 90.4804L702.963 125.647L717.616 124.182L742.526 149.091V167.832L883.192 313.201L885.888 321.129L943.268 311.736C943.268 311.736 933.011 251.514 888.32 220.816L881.726 226.751L766.146 90.4804L755.713 100.737L688.311 26.0085Z" fill="#FFC8AF" stroke="#605B53" stroke-width="0.5" stroke-miterlimit="10"/>
<path d="M572.555 30.4044L694.172 15.7517L727.873 53.8487L748.387 37.7308L903.705 207.702L881.726 226.751L766.146 90.4805L755.713 100.737L688.311 26.0086L581.346 40.6613L532.992 128.577L519.805 121.251L441.134 283.676L418.701 269.243L528.596 65.5709L549.11 77.293L572.555 30.4044Z" fill="#FFFAF8" stroke="#605B53" stroke-width="0.5" stroke-miterlimit="10"/>
<path d="M414.598 379.476C414.598 379.476 426.027 562.297 688.31 543.249C950.593 524.2 934.08 313.245 934.08 313.245L885.887 321.143C885.887 321.143 894.913 355.709 874.399 387.945C853.886 420.181 794.542 483.143 675.489 495.627C556.436 508.097 486.074 433.002 486.074 433.002C486.074 433.002 469.985 414.32 462.658 386.48V373.483L414.598 379.49V379.476Z" fill="#FFF5F1" stroke="#605B53" stroke-width="0.5" stroke-miterlimit="10"/>
<path d="M404.546 397.967L423.096 393.791C423.096 393.791 445.075 547.645 688.31 543.249C688.31 543.249 933.01 499.291 928.614 330.785L946.198 327.854C946.198 327.854 950.593 355.694 931.545 402.583C912.496 449.472 839.233 506.617 839.233 506.617C839.233 506.617 770.365 553.506 688.31 560.832C606.255 568.158 538.853 535.922 538.853 535.922C538.853 535.922 429.954 497.401 404.546 397.967Z" fill="#FAFDF9" stroke="#605B53" stroke-width="0.5" stroke-miterlimit="10"/>
<path d="M127.435 428.943L157.883 412.84L148.901 401.118L127.435 415.023L118.321 409.909L26.0088 228.216L168.14 160.813L309.48 428.943L163.744 502.221L127.435 428.943Z" fill="#F7F7F7" stroke="#605B53" stroke-width="0.5" stroke-miterlimit="10"/>
<path d="M160.813 439.215L179.715 471.744L276.57 420.166L260.452 389.396L160.813 439.215Z" fill="#FCFCFC" stroke="#605B53" stroke-width="0.5" stroke-miterlimit="10"/>
<path d="M0.366211 236.685H7.927L136.768 502.221L137.369 522.735L68.8676 561.916L58.2444 534.457L45.0569 540.318L55.3138 566.693L42.1264 574.02L36.2653 571.089L0.366211 499.965V236.685Z" fill="#F7F7F7" stroke="#605B53" stroke-width="0.5" stroke-miterlimit="10"/>
<path d="M203.306 614.651L160.813 529.768H154.498L47.9873 588.672L62.0832 614.651H203.306Z" fill="#F7F7F7" stroke="#605B53" stroke-width="0.5" stroke-miterlimit="10"/>
<path d="M981.467 190.236L965.246 198.91L981.305 232.26L981.467 190.236Z" fill="#EAF5E5" stroke="#605B53" stroke-width="0.5" stroke-miterlimit="10"/>
<path d="M0.366211 12.8504V0.366333H243.425L248.979 12.8504L53.6874 101.953L0.366211 12.8504Z" fill="#F7F7F7" stroke="#605B53" stroke-width="0.5" stroke-miterlimit="10"/>
<path d="M0.366211 39.4597L41.7308 107.419L0.366211 126.292V39.4597Z" fill="#F7F7F7" stroke="#605B53" stroke-width="0.5" stroke-miterlimit="10"/>
<path d="M653.056 496.961V534.516C653.056 534.516 562.239 542.633 486.074 479.202C486.074 479.202 450.937 458.263 431.889 404.048L464.623 393.103C464.623 393.103 472.916 446.409 561.565 480.916C561.565 480.916 609.01 499.042 653.056 496.976V496.961Z" fill="#FCDED0" stroke="#605B53" stroke-width="0.5" stroke-miterlimit="10"/>
<path d="M730.275 485.488L736.664 509.548C736.664 509.548 747.155 506.925 761.852 502.06C786.762 493.811 823.73 479.085 842.163 459.728L826.28 438.922C826.28 438.922 783.948 474.616 730.275 485.488Z" fill="#FCDED0" stroke="#605B53" stroke-width="0.5" stroke-miterlimit="10"/>
<path d="M888.32 339.151L922.754 339.576C922.754 339.576 927.985 403.755 857.241 463.978C857.241 463.978 846.56 474.381 836.303 480.242L827.731 471.744C827.731 471.744 839.233 464.124 842.164 459.728L826.28 438.922C826.28 438.922 891.983 391.476 888.32 339.151Z" stroke="#605B53" stroke-width="0.5" stroke-miterlimit="10"/>
<path d="M573.814 244.143C595.5 284.174 641.363 304.571 683.387 290.329C713.44 280.145 734.276 254.708 741.104 224.611L646.213 152.886L573.8 244.158L573.814 244.143Z" fill="#FAFAFA"/>
<path d="M647.579 157.49L599.93 219.498L662.205 267.353L709.854 205.345L647.579 157.49Z" fill="#B7E589"/>
<path d="M647.356 168.052C654.235 168.052 659.811 162.476 659.811 155.597C659.811 148.718 654.235 143.142 647.356 143.142C640.478 143.142 634.901 148.718 634.901 155.597C634.901 162.476 640.478 168.052 647.356 168.052Z" fill="#FAFAFA"/>
<path d="M607.062 213.475C606.783 212.787 606.432 212.142 606.036 211.541L599.926 219.497L606.344 224.421C608.19 221.197 608.586 217.182 607.062 213.475Z" fill="#FAFAFA"/>
<path d="M657.262 260.1C656.324 260.481 655.474 260.979 654.683 261.551L662.199 267.339L667.489 260.452C664.397 258.928 660.69 258.679 657.247 260.115L657.262 260.1Z" fill="#FAFAFA"/>
<path d="M704.883 211.805L709.85 205.343L703.784 200.683C702.67 203.555 702.612 206.852 703.886 209.915C704.165 210.589 704.502 211.219 704.883 211.805Z" fill="#FAFAFA"/>
<path d="M654.975 218.04C659.831 218.04 663.767 214.104 663.767 209.248C663.767 204.393 659.831 200.457 654.975 200.457C650.12 200.457 646.184 204.393 646.184 209.248C646.184 214.104 650.12 218.04 654.975 218.04Z" fill="#FAFAFA"/>
</g>
<g filter="url(#filter0_d_1117_1779)">
<path fill-rule="evenodd" clip-rule="evenodd" d="M567.312 144.873C567.701 144.2 568.338 143.71 569.077 143.466C581.23 139.45 590 127.999 590 114.5C590 97.6553 576.345 84 559.5 84C542.655 84 529 97.6553 529 114.5C529 128.454 538.37 140.219 551.162 143.846C551.956 144.071 552.646 144.577 553.059 145.292L557.13 152.343C558.434 154.602 561.695 154.602 563 152.343L567.312 144.873Z" fill="white"/>
</g>
<circle cx="558.982" cy="113.981" r="25.9815" fill="#FF4E00"/>
<path d="M563.333 106.25V115.917H566.958V125.583H569.375V101.417C566.04 101.417 563.333 104.123 563.333 106.25ZM557.292 109.875H554.875V101.417H552.458V109.875H550.042V101.417H547.625V109.875C547.625 112.545 549.788 114.708 552.458 114.708V125.583H554.875V114.708C557.545 114.708 559.708 112.545 559.708 109.875V101.417H557.292V109.875Z" fill="#FAFAFA"/>
<path d="M544.431 171.166V172.785H531.425V171.166H544.431ZM538.884 168.083V171.575H536.912V168.083H538.884ZM534.801 161.122V163.337H541V161.122H542.989V168.53H532.801V161.122H534.801ZM534.801 166.939H541V164.917H534.801V166.939ZM556.006 162.094V163.674H551.768V162.094H556.006ZM556.006 165.26V166.851H551.768V165.26H556.006ZM549.365 160.983C550.065 160.983 550.7 161.133 551.271 161.431C551.842 161.726 552.293 162.14 552.625 162.674C552.956 163.204 553.124 163.801 553.127 164.464C553.124 165.123 552.956 165.718 552.625 166.249C552.293 166.779 551.842 167.193 551.271 167.492C550.7 167.79 550.065 167.939 549.365 167.939C548.654 167.939 548.009 167.79 547.431 167.492C546.853 167.193 546.398 166.779 546.067 166.249C545.739 165.718 545.577 165.123 545.58 164.464C545.577 163.801 545.739 163.204 546.067 162.674C546.398 162.14 546.853 161.726 547.431 161.431C548.009 161.133 548.654 160.983 549.365 160.983ZM549.365 162.691C548.993 162.687 548.663 162.757 548.376 162.901C548.089 163.041 547.866 163.245 547.707 163.514C547.549 163.779 547.47 164.096 547.47 164.464C547.47 164.825 547.549 165.14 547.707 165.409C547.869 165.678 548.094 165.888 548.381 166.039C548.669 166.186 548.997 166.258 549.365 166.254C549.722 166.258 550.041 166.186 550.321 166.039C550.604 165.888 550.825 165.678 550.984 165.409C551.146 165.136 551.229 164.821 551.232 164.464C551.229 164.096 551.148 163.779 550.989 163.514C550.831 163.245 550.61 163.041 550.326 162.901C550.046 162.757 549.726 162.687 549.365 162.691ZM557.387 160.21V168.552H555.398V160.21H557.387ZM552.525 168.84C553.523 168.84 554.389 168.952 555.122 169.177C555.858 169.398 556.426 169.718 556.823 170.138C557.225 170.558 557.426 171.059 557.426 171.641C557.426 172.223 557.225 172.724 556.823 173.144C556.426 173.567 555.858 173.89 555.122 174.11C554.389 174.331 553.523 174.44 552.525 174.436C551.527 174.44 550.66 174.331 549.923 174.11C549.19 173.89 548.625 173.567 548.227 173.144C547.833 172.724 547.637 172.223 547.641 171.641C547.637 171.059 547.833 170.558 548.227 170.138C548.625 169.718 549.19 169.398 549.923 169.177C550.66 168.952 551.527 168.84 552.525 168.84ZM552.525 170.365C551.892 170.365 551.356 170.413 550.917 170.508C550.483 170.6 550.153 170.742 549.928 170.934C549.704 171.125 549.593 171.361 549.597 171.641C549.593 171.917 549.704 172.149 549.928 172.337C550.153 172.521 550.483 172.659 550.917 172.751C551.356 172.843 551.892 172.888 552.525 172.884C553.17 172.888 553.709 172.843 554.144 172.751C554.578 172.659 554.908 172.521 555.133 172.337C555.361 172.149 555.475 171.917 555.475 171.641C555.475 171.357 555.361 171.122 555.133 170.934C554.908 170.742 554.578 170.6 554.144 170.508C553.709 170.413 553.17 170.365 552.525 170.365ZM566.63 161.398V168.227H559.802V161.398H566.63ZM561.774 162.983V166.657H564.663V162.983H561.774ZM570.663 160.221V170.597H568.663V160.221H570.663ZM572.575 164.315V165.961H570.089V164.315H572.575ZM571.172 172.586V174.193H561.437V172.586H571.172ZM563.426 169.569V173.392H561.437V169.569H563.426ZM584.824 165.282V166.845H575.001V165.282H584.824ZM586.349 168.276V169.867H573.343V168.276H586.349ZM580.791 169.193V174.42H578.818V169.193H580.791ZM584.686 160.967V162.558H577.045V166.033H575.001V160.967H584.686Z" fill="black"/>
<defs>
<filter id="filter0_d_1117_1779" x="524" y="81" width="69" height="78.037" filterUnits="userSpaceOnUse" color-interpolation-filters="sRGB">
<feFlood flood-opacity="0" result="BackgroundImageFix"/>
<feColorMatrix in="SourceAlpha" type="matrix" values="0 0 0 0 0 0 0 0 0 0 0 0 0 0 0 0 0 0 127 0" result="hardAlpha"/>
<feOffset dx="-1" dy="1"/>
<feGaussianBlur stdDeviation="2"/>
<feComposite in2="hardAlpha" operator="out"/>
<feColorMatrix type="matrix" values="0 0 0 0 0 0 0 0 0 0 0 0 0 0 0 0 0 0 0.25 0"/>
<feBlend mode="normal" in2="BackgroundImageFix" result="effect1_dropShadow_1117_1779"/>
<feBlend mode="normal" in="SourceGraphic" in2="effect1_dropShadow_1117_1779" result="shape"/>
</filter>
<clipPath id="clip0_1117_1779">
<rect width="981.833" height="615.018" fill="white"/>
</clipPath>
</defs>
</svg>
