<svg width="982" height="616" viewBox="0 0 982 616" fill="none" xmlns="http://www.w3.org/2000/svg">
<g clip-path="url(#clip0_1117_1813)">
<path d="M623.106 100.005L662.668 95.6089L719.813 164.477L723.477 178.397L855.351 314.667C855.351 314.667 887.587 430.423 685.38 471.451C685.38 471.451 483.172 483.173 486.103 357.16L576.95 197.445L574.019 178.397L623.106 100.005Z" fill="#B7E589" stroke="#605B53" stroke-width="0.5" stroke-miterlimit="10"/>
<path d="M462.659 386.465C465.59 405.513 486.074 432.987 486.074 432.987C486.074 432.987 549.11 508.082 683.915 494.895C818.72 481.708 874.4 387.93 874.4 387.93C899.31 346.903 883.192 313.201 883.192 313.201L742.526 167.832V149.091L717.616 124.182L702.963 125.647L666.332 90.4805L617.978 97.8068L591.603 140.3L575.485 141.765L557.902 174.001L562.298 188.654L462.659 361.555V386.465Z" stroke="#605B53" stroke-width="0.5" stroke-miterlimit="10"/>
<path d="M688.311 26.0085L581.346 40.6612L532.992 128.577L519.805 121.251L441.134 283.676L434.819 279.5C434.819 279.5 398.187 330.785 405.514 380.604L462.659 373.468V361.555L562.298 188.653L557.902 174.001L575.485 141.765L591.603 140.3L617.978 97.8068L666.332 90.4804L702.963 125.647L717.616 124.182L742.526 149.091V167.832L883.192 313.201L885.888 321.129L943.268 311.736C943.268 311.736 933.011 251.514 888.32 220.816L881.726 226.751L766.146 90.4804L755.713 100.737L688.311 26.0085Z" fill="#FFC8AF" stroke="#605B53" stroke-width="0.5" stroke-miterlimit="10"/>
<path d="M572.555 30.4044L694.172 15.7517L727.873 53.8487L748.387 37.7308L903.705 207.702L881.726 226.751L766.146 90.4805L755.713 100.737L688.311 26.0086L581.346 40.6613L532.992 128.577L519.805 121.251L441.134 283.676L418.701 269.243L528.596 65.5709L549.11 77.293L572.555 30.4044Z" fill="#FFFAF8" stroke="#605B53" stroke-width="0.5" stroke-miterlimit="10"/>
<path d="M414.598 379.476C414.598 379.476 426.027 562.297 688.31 543.249C950.593 524.2 934.08 313.245 934.08 313.245L885.887 321.143C885.887 321.143 894.913 355.709 874.399 387.945C853.886 420.181 794.542 483.143 675.489 495.627C556.436 508.097 486.074 433.002 486.074 433.002C486.074 433.002 469.985 414.32 462.658 386.48V373.483L414.598 379.49V379.476Z" fill="#FFF5F1" stroke="#605B53" stroke-width="0.5" stroke-miterlimit="10"/>
<path d="M404.546 397.967L423.096 393.791C423.096 393.791 445.075 547.645 688.31 543.249C688.31 543.249 933.01 499.291 928.614 330.785L946.198 327.854C946.198 327.854 950.593 355.694 931.545 402.583C912.496 449.472 839.233 506.617 839.233 506.617C839.233 506.617 770.365 553.506 688.31 560.832C606.255 568.158 538.853 535.922 538.853 535.922C538.853 535.922 429.954 497.401 404.546 397.967Z" fill="#FAFDF9" stroke="#605B53" stroke-width="0.5" stroke-miterlimit="10"/>
<path d="M127.435 428.943L157.883 412.84L148.901 401.118L127.435 415.023L118.321 409.909L26.0088 228.216L168.14 160.813L309.48 428.943L163.744 502.221L127.435 428.943Z" fill="#F7F7F7" stroke="#605B53" stroke-width="0.5" stroke-miterlimit="10"/>
<path d="M160.813 439.215L179.715 471.744L276.57 420.166L260.452 389.396L160.813 439.215Z" fill="#FCFCFC" stroke="#605B53" stroke-width="0.5" stroke-miterlimit="10"/>
<path d="M0.366211 236.685H7.927L136.768 502.221L137.369 522.735L68.8676 561.916L58.2444 534.457L45.0569 540.318L55.3138 566.693L42.1264 574.02L36.2653 571.089L0.366211 499.965V236.685Z" fill="#F7F7F7" stroke="#605B53" stroke-width="0.5" stroke-miterlimit="10"/>
<path d="M203.306 614.651L160.813 529.768H154.498L47.9873 588.672L62.0832 614.651H203.306Z" fill="#F7F7F7" stroke="#605B53" stroke-width="0.5" stroke-miterlimit="10"/>
<path d="M981.467 190.236L965.246 198.91L981.305 232.26L981.467 190.236Z" fill="#EAF5E5" stroke="#605B53" stroke-width="0.5" stroke-miterlimit="10"/>
<path d="M0.366211 12.8504V0.366333H243.425L248.979 12.8504L53.6874 101.953L0.366211 12.8504Z" fill="#F7F7F7" stroke="#605B53" stroke-width="0.5" stroke-miterlimit="10"/>
<path d="M0.366211 39.4597L41.7308 107.419L0.366211 126.292V39.4597Z" fill="#F7F7F7" stroke="#605B53" stroke-width="0.5" stroke-miterlimit="10"/>
<path d="M653.056 496.961V534.516C653.056 534.516 562.239 542.633 486.074 479.202C486.074 479.202 450.937 458.263 431.889 404.048L464.623 393.103C464.623 393.103 472.916 446.409 561.565 480.916C561.565 480.916 609.01 499.042 653.056 496.976V496.961Z" fill="#FCDED0" stroke="#605B53" stroke-width="0.5" stroke-miterlimit="10"/>
<path d="M730.275 485.488L736.664 509.548C736.664 509.548 747.155 506.925 761.852 502.06C786.762 493.811 823.73 479.085 842.163 459.728L826.28 438.922C826.28 438.922 783.948 474.616 730.275 485.488Z" fill="#FCDED0" stroke="#605B53" stroke-width="0.5" stroke-miterlimit="10"/>
<path d="M888.32 339.151L922.754 339.576C922.754 339.576 927.985 403.755 857.241 463.978C857.241 463.978 846.56 474.381 836.303 480.242L827.731 471.744C827.731 471.744 839.233 464.124 842.164 459.728L826.28 438.922C826.28 438.922 891.983 391.476 888.32 339.151Z" stroke="#605B53" stroke-width="0.5" stroke-miterlimit="10"/>
<path d="M573.814 244.143C595.5 284.174 641.363 304.571 683.387 290.329C713.44 280.145 734.276 254.708 741.104 224.611L646.213 152.886L573.8 244.158L573.814 244.143Z" fill="#FAFAFA"/>
<path d="M647.579 157.49L599.93 219.498L662.205 267.353L709.854 205.345L647.579 157.49Z" fill="#B7E589"/>
<path d="M647.356 168.052C654.235 168.052 659.811 162.476 659.811 155.597C659.811 148.718 654.235 143.142 647.356 143.142C640.478 143.142 634.901 148.718 634.901 155.597C634.901 162.476 640.478 168.052 647.356 168.052Z" fill="#FAFAFA"/>
<path d="M607.062 213.475C606.783 212.787 606.432 212.142 606.036 211.541L599.926 219.497L606.344 224.421C608.19 221.197 608.586 217.182 607.062 213.475Z" fill="#FAFAFA"/>
<path d="M657.262 260.1C656.324 260.481 655.474 260.979 654.683 261.551L662.199 267.339L667.489 260.452C664.397 258.928 660.69 258.679 657.247 260.115L657.262 260.1Z" fill="#FAFAFA"/>
<path d="M704.883 211.805L709.85 205.343L703.784 200.683C702.67 203.555 702.612 206.852 703.886 209.915C704.165 210.589 704.502 211.219 704.883 211.805Z" fill="#FAFAFA"/>
<path d="M654.975 218.04C659.831 218.04 663.767 214.104 663.767 209.248C663.767 204.393 659.831 200.457 654.975 200.457C650.12 200.457 646.184 204.393 646.184 209.248C646.184 214.104 650.12 218.04 654.975 218.04Z" fill="#FAFAFA"/>
</g>
<g filter="url(#filter0_d_1117_1813)">
<path fill-rule="evenodd" clip-rule="evenodd" d="M579.312 152.873C579.701 152.2 580.338 151.71 581.077 151.466C593.23 147.45 602 135.999 602 122.5C602 105.655 588.345 92 571.5 92C554.655 92 541 105.655 541 122.5C541 136.454 550.37 148.219 563.162 151.846C563.956 152.071 564.646 152.577 565.059 153.292L569.13 160.343C570.434 162.602 573.695 162.602 575 160.343L579.312 152.873Z" fill="white"/>
</g>
<circle cx="570.982" cy="121.981" r="25.9815" fill="#FF4E00"/>
<path d="M575.333 114.25V123.917H578.958V133.583H581.375V109.417C578.04 109.417 575.333 112.123 575.333 114.25ZM569.292 117.875H566.875V109.417H564.458V117.875H562.042V109.417H559.625V117.875C559.625 120.545 561.788 122.708 564.458 122.708V133.583H566.875V122.708C569.545 122.708 571.708 120.545 571.708 117.875V109.417H569.292V117.875Z" fill="#FAFAFA"/>
<path d="M560.867 171.023H551.758V169.445H560.867V171.023ZM563.398 180.695H550.43V179.078H563.398V180.695ZM557.047 179.906H555.07V174.188H557.047V179.906ZM562.133 170.797C562.133 171.63 562.122 172.341 562.102 172.93C562.081 173.513 562.031 174.206 561.953 175.008C561.875 175.805 561.75 176.669 561.578 177.602L559.555 177.391C559.737 176.521 559.87 175.701 559.953 174.93C560.036 174.154 560.086 173.469 560.102 172.875C560.122 172.276 560.133 171.583 560.133 170.797V169.445H562.133V170.797ZM576.353 182.438H574.33V168.203H576.353V182.438ZM572.806 171.133H564.752V169.531H572.806V171.133ZM564.377 177.539C565.996 177.539 567.569 177.51 569.095 177.453C570.621 177.391 572.046 177.281 573.369 177.125L573.486 178.609C572.137 178.828 570.741 178.974 569.298 179.047C567.861 179.12 566.28 179.161 564.556 179.172L564.377 177.539ZM567.939 177.977H566.017V170.773H567.939V177.977ZM571.541 177.977H569.595V170.773H571.541V177.977ZM583.206 172.086C583.206 173.174 583.053 174.232 582.745 175.258C582.438 176.279 581.982 177.188 581.378 177.984C580.774 178.776 580.053 179.37 579.214 179.766L578.042 178.195C578.813 177.836 579.464 177.328 579.995 176.672C580.532 176.016 580.938 175.292 581.214 174.5C581.49 173.708 581.628 172.904 581.628 172.086V170.43H583.206V172.086ZM583.628 172.086C583.628 172.836 583.758 173.586 584.019 174.336C584.284 175.081 584.678 175.766 585.198 176.391C585.724 177.01 586.362 177.492 587.112 177.836L586.003 179.398C585.17 179.018 584.456 178.448 583.862 177.688C583.269 176.927 582.818 176.062 582.511 175.094C582.204 174.12 582.05 173.117 582.05 172.086V170.43H583.628V172.086ZM586.495 171.219H578.612V169.594H586.495V171.219ZM589.597 182.438H587.597V168.203H589.597V182.438ZM591.706 175.312H589.159V173.648H591.706V175.312Z" fill="black"/>
<defs>
<filter id="filter0_d_1117_1813" x="536" y="89" width="69" height="78.037" filterUnits="userSpaceOnUse" color-interpolation-filters="sRGB">
<feFlood flood-opacity="0" result="BackgroundImageFix"/>
<feColorMatrix in="SourceAlpha" type="matrix" values="0 0 0 0 0 0 0 0 0 0 0 0 0 0 0 0 0 0 127 0" result="hardAlpha"/>
<feOffset dx="-1" dy="1"/>
<feGaussianBlur stdDeviation="2"/>
<feComposite in2="hardAlpha" operator="out"/>
<feColorMatrix type="matrix" values="0 0 0 0 0 0 0 0 0 0 0 0 0 0 0 0 0 0 0.25 0"/>
<feBlend mode="normal" in2="BackgroundImageFix" result="effect1_dropShadow_1117_1813"/>
<feBlend mode="normal" in="SourceGraphic" in2="effect1_dropShadow_1117_1813" result="shape"/>
</filter>
<clipPath id="clip0_1117_1813">
<rect width="981.833" height="615.018" fill="white"/>
</clipPath>
</defs>
</svg>
