<svg width="982" height="616" viewBox="0 0 982 616" fill="none" xmlns="http://www.w3.org/2000/svg">
<path d="M623.106 100.005L662.668 95.6089L719.813 164.477L723.477 178.397L855.351 314.667C855.351 314.667 887.587 430.423 685.38 471.451C685.38 471.451 483.172 483.173 486.103 357.16L576.95 197.445L574.019 178.397L623.106 100.005Z" fill="#B7E589" stroke="#605B53" stroke-width="0.5" stroke-miterlimit="10"/>
<path d="M462.659 386.465C465.59 405.513 486.074 432.987 486.074 432.987C486.074 432.987 549.11 508.082 683.915 494.895C818.72 481.708 874.4 387.93 874.4 387.93C899.31 346.903 883.192 313.201 883.192 313.201L742.526 167.832V149.091L717.616 124.182L702.963 125.647L666.332 90.4805L617.978 97.8068L591.603 140.3L575.485 141.765L557.902 174.001L562.298 188.654L462.659 361.555V386.465Z" stroke="#605B53" stroke-width="0.5" stroke-miterlimit="10"/>
<path d="M688.311 26.0085L581.346 40.6612L532.992 128.577L519.805 121.251L441.134 283.676L434.819 279.5C434.819 279.5 398.187 330.785 405.514 380.604L462.659 373.468V361.555L562.298 188.653L557.902 174.001L575.485 141.765L591.603 140.3L617.978 97.8068L666.332 90.4804L702.963 125.647L717.616 124.182L742.526 149.091V167.832L883.192 313.201L885.888 321.129L943.268 311.736C943.268 311.736 933.011 251.514 888.32 220.816L881.726 226.751L766.146 90.4804L755.713 100.737L688.311 26.0085Z" fill="#FFC8AF" stroke="#605B53" stroke-width="0.5" stroke-miterlimit="10"/>
<path d="M572.555 30.4044L694.172 15.7517L727.873 53.8487L748.387 37.7308L903.705 207.702L881.726 226.751L766.146 90.4805L755.713 100.737L688.311 26.0086L581.346 40.6613L532.992 128.577L519.805 121.251L441.134 283.676L418.701 269.243L528.596 65.5709L549.11 77.293L572.555 30.4044Z" fill="#FFFAF8" stroke="#605B53" stroke-width="0.5" stroke-miterlimit="10"/>
<path d="M414.598 379.476C414.598 379.476 426.027 562.297 688.31 543.249C950.593 524.2 934.08 313.245 934.08 313.245L885.887 321.143C885.887 321.143 894.913 355.709 874.399 387.945C853.886 420.181 794.542 483.143 675.489 495.627C556.436 508.097 486.074 433.002 486.074 433.002C486.074 433.002 469.985 414.32 462.658 386.48V373.483L414.598 379.49V379.476Z" fill="#FFF5F1" stroke="#605B53" stroke-width="0.5" stroke-miterlimit="10"/>
<path d="M404.546 397.967L423.096 393.791C423.096 393.791 445.075 547.644 688.31 543.249C688.31 543.249 933.01 499.291 928.614 330.785L946.198 327.854C946.198 327.854 950.593 355.694 931.545 402.583C912.496 449.471 839.233 506.617 839.233 506.617C839.233 506.617 770.365 553.506 688.31 560.832C606.255 568.158 538.853 535.922 538.853 535.922C538.853 535.922 429.954 497.4 404.546 397.967Z" fill="#FAFDF9" stroke="#605B53" stroke-width="0.5" stroke-miterlimit="10"/>
<path d="M127.435 428.943L157.883 412.84L148.901 401.118L127.435 415.023L118.321 409.909L26.0088 228.216L168.14 160.813L309.48 428.943L163.744 502.221L127.435 428.943Z" fill="#F7F7F7" stroke="#605B53" stroke-width="0.5" stroke-miterlimit="10"/>
<path d="M160.813 439.215L179.715 471.744L276.57 420.166L260.452 389.396L160.813 439.215Z" fill="#FCFCFC" stroke="#605B53" stroke-width="0.5" stroke-miterlimit="10"/>
<path d="M0.366211 236.685H7.927L136.768 502.221L137.369 522.735L68.8676 561.916L58.2444 534.457L45.0569 540.318L55.3138 566.693L42.1264 574.02L36.2653 571.089L0.366211 499.965V236.685Z" fill="#F7F7F7" stroke="#605B53" stroke-width="0.5" stroke-miterlimit="10"/>
<path d="M203.306 614.651L160.813 529.768H154.498L47.9873 588.672L62.0832 614.651H203.306Z" fill="#F7F7F7" stroke="#605B53" stroke-width="0.5" stroke-miterlimit="10"/>
<path d="M0.366211 12.8504V0.366333H243.425L248.979 12.8504L53.6874 101.953L0.366211 12.8504Z" fill="#F7F7F7" stroke="#605B53" stroke-width="0.5" stroke-miterlimit="10"/>
<path d="M0.366211 39.4597L41.7308 107.419L0.366211 126.292V39.4597Z" fill="#F7F7F7" stroke="#605B53" stroke-width="0.5" stroke-miterlimit="10"/>
<path d="M653.056 496.961V534.516C653.056 534.516 562.239 542.633 486.074 479.202C486.074 479.202 450.937 458.263 431.889 404.048L464.623 393.103C464.623 393.103 472.916 446.409 561.565 480.916C561.565 480.916 609.01 499.042 653.056 496.976V496.961Z" fill="#FCDED0" stroke="#605B53" stroke-width="0.5" stroke-miterlimit="10"/>
<path d="M730.275 485.488L736.664 509.548C736.664 509.548 747.155 506.925 761.852 502.06C786.762 493.811 823.73 479.085 842.163 459.728L826.28 438.922C826.28 438.922 783.948 474.616 730.275 485.488Z" fill="#FCDED0" stroke="#605B53" stroke-width="0.5" stroke-miterlimit="10"/>
<path d="M888.32 339.151L922.754 339.576C922.754 339.576 927.985 403.755 857.241 463.978C857.241 463.978 846.56 474.381 836.303 480.242L827.731 471.744C827.731 471.744 839.233 464.124 842.164 459.728L826.28 438.922C826.28 438.922 891.983 391.476 888.32 339.151Z" stroke="#605B53" stroke-width="0.5" stroke-miterlimit="10"/>
<path d="M573.814 244.143C595.5 284.174 641.363 304.571 683.387 290.329C713.44 280.145 734.276 254.708 741.104 224.611L646.213 152.886L573.8 244.158L573.814 244.143Z" fill="#FAFAFA"/>
<path d="M647.579 157.49L599.93 219.498L662.205 267.353L709.854 205.345L647.579 157.49Z" fill="#B7E589"/>
<path d="M647.356 168.052C654.235 168.052 659.811 162.476 659.811 155.597C659.811 148.718 654.235 143.142 647.356 143.142C640.478 143.142 634.901 148.718 634.901 155.597C634.901 162.476 640.478 168.052 647.356 168.052Z" fill="#FAFAFA"/>
<path d="M607.062 213.475C606.783 212.787 606.432 212.142 606.036 211.541L599.926 219.497L606.344 224.421C608.19 221.197 608.586 217.182 607.062 213.475Z" fill="#FAFAFA"/>
<path d="M657.262 260.1C656.324 260.481 655.474 260.979 654.683 261.551L662.199 267.339L667.489 260.452C664.397 258.928 660.69 258.679 657.247 260.115L657.262 260.1Z" fill="#FAFAFA"/>
<path d="M704.883 211.805L709.85 205.343L703.784 200.683C702.67 203.555 702.612 206.852 703.886 209.915C704.165 210.589 704.502 211.219 704.883 211.805Z" fill="#FAFAFA"/>
<path d="M654.975 218.04C659.831 218.04 663.767 214.104 663.767 209.248C663.767 204.393 659.831 200.457 654.975 200.457C650.12 200.457 646.184 204.393 646.184 209.248C646.184 214.104 650.12 218.04 654.975 218.04Z" fill="#FAFAFA"/>
<g filter="url(#filter0_d_1117_1881)">
<path fill-rule="evenodd" clip-rule="evenodd" d="M826.312 255.873C826.701 255.2 827.338 254.71 828.077 254.466C840.23 250.45 849 238.999 849 225.5C849 208.655 835.345 195 818.5 195C801.655 195 788 208.655 788 225.5C788 239.454 797.37 251.219 810.162 254.846C810.956 255.071 811.646 255.577 812.059 256.292L816.13 263.343C817.434 265.602 820.695 265.602 822 263.343L826.312 255.873Z" fill="white"/>
</g>
<circle cx="817.982" cy="224.981" r="25.9815" fill="#FF4E00"/>
<path d="M822.333 217.25V226.917H825.958V236.583H828.375V212.417C825.04 212.417 822.333 215.123 822.333 217.25ZM816.292 220.875H813.875V212.417H811.458V220.875H809.042V212.417H806.625V220.875C806.625 223.545 808.788 225.708 811.458 225.708V236.583H813.875V225.708C816.545 225.708 818.708 223.545 818.708 220.875V212.417H816.292V220.875Z" fill="#FAFAFA"/>
<path d="M801.953 276.375H792.07V274.773H801.953V276.375ZM794.055 275.508H792.07V271.438H794.055V275.508ZM803.422 279.398H790.43V277.789H803.422V279.398ZM797.898 278.531H795.922V275.688H797.898V278.531ZM796.891 280.148C797.917 280.148 798.802 280.253 799.547 280.461C800.292 280.669 800.859 280.971 801.25 281.367C801.646 281.763 801.844 282.237 801.844 282.789C801.844 283.346 801.646 283.823 801.25 284.219C800.859 284.62 800.292 284.922 799.547 285.125C798.807 285.333 797.922 285.438 796.891 285.438C795.859 285.438 794.969 285.333 794.219 285.125C793.474 284.922 792.901 284.62 792.5 284.219C792.104 283.823 791.906 283.346 791.906 282.789C791.906 282.237 792.107 281.763 792.508 281.367C792.909 280.971 793.482 280.669 794.227 280.461C794.977 280.253 795.865 280.148 796.891 280.148ZM796.891 281.688C796.229 281.682 795.68 281.719 795.242 281.797C794.81 281.875 794.484 281.997 794.266 282.164C794.047 282.326 793.938 282.534 793.938 282.789C793.938 283.029 794.047 283.234 794.266 283.406C794.484 283.578 794.812 283.708 795.25 283.797C795.688 283.88 796.234 283.922 796.891 283.922C797.536 283.922 798.078 283.88 798.516 283.797C798.958 283.708 799.289 283.578 799.508 283.406C799.727 283.234 799.836 283.029 799.836 282.789C799.836 282.534 799.727 282.326 799.508 282.164C799.289 281.997 798.961 281.875 798.523 281.797C798.091 281.719 797.547 281.682 796.891 281.688ZM816.298 279.258H814.306V271.234H816.298V279.258ZM816.298 285.281H806.775V279.906H816.298V285.281ZM808.736 283.68H814.345V281.484H808.736V283.68ZM809.439 273.125C809.439 274.026 809.285 274.87 808.978 275.656C808.671 276.438 808.207 277.12 807.587 277.703C806.973 278.281 806.218 278.714 805.322 279L804.337 277.43C805.108 277.19 805.752 276.852 806.267 276.414C806.788 275.971 807.171 275.466 807.416 274.898C807.66 274.331 807.783 273.74 807.783 273.125V271.75H809.439V273.125ZM809.853 273.125C809.853 273.714 809.973 274.276 810.212 274.812C810.452 275.344 810.822 275.82 811.322 276.242C811.822 276.659 812.442 276.982 813.181 277.211L812.212 278.742C811.332 278.471 810.59 278.062 809.986 277.516C809.387 276.969 808.936 276.323 808.634 275.578C808.332 274.828 808.181 274.01 808.181 273.125V271.75H809.853V273.125ZM829.597 285.414H827.597V271.203H829.597V285.414ZM831.605 278.312H829.081V276.672H831.605V278.312ZM825.8 272.672C825.8 274.156 825.589 275.526 825.167 276.781C824.745 278.031 824.058 279.182 823.105 280.234C822.152 281.281 820.902 282.188 819.355 282.953L818.23 281.43C819.506 280.784 820.555 280.055 821.378 279.242C822.206 278.43 822.823 277.513 823.23 276.492C823.641 275.471 823.847 274.318 823.847 273.031V272.672H825.8ZM824.847 274.305H819.027V272.672H824.847V274.305ZM834.067 277.734C835.583 277.734 836.815 277.706 837.763 277.648C838.716 277.591 839.664 277.482 840.606 277.32L840.817 278.898C839.848 279.076 838.861 279.198 837.856 279.266C836.856 279.328 835.593 279.359 834.067 279.359H832.872V277.734H834.067ZM839.395 276.375H834.864V278.516H832.872V274.859H837.45V273.609H832.848V272.016H839.395V276.375ZM843.638 279.867H841.645V271.234H843.638V279.867ZM845.575 276.258H843.044V274.633H845.575V276.258ZM843.638 285.422H841.645V282.102H834.067V280.508H843.638V285.422Z" fill="black"/>
<defs>
<filter id="filter0_d_1117_1881" x="783" y="192" width="69" height="78.037" filterUnits="userSpaceOnUse" color-interpolation-filters="sRGB">
<feFlood flood-opacity="0" result="BackgroundImageFix"/>
<feColorMatrix in="SourceAlpha" type="matrix" values="0 0 0 0 0 0 0 0 0 0 0 0 0 0 0 0 0 0 127 0" result="hardAlpha"/>
<feOffset dx="-1" dy="1"/>
<feGaussianBlur stdDeviation="2"/>
<feComposite in2="hardAlpha" operator="out"/>
<feColorMatrix type="matrix" values="0 0 0 0 0 0 0 0 0 0 0 0 0 0 0 0 0 0 0.25 0"/>
<feBlend mode="normal" in2="BackgroundImageFix" result="effect1_dropShadow_1117_1881"/>
<feBlend mode="normal" in="SourceGraphic" in2="effect1_dropShadow_1117_1881" result="shape"/>
</filter>
</defs>
</svg>
