<svg width="982" height="616" viewBox="0 0 982 616" fill="none" xmlns="http://www.w3.org/2000/svg">
<g clip-path="url(#clip0_1117_1914)">
<path d="M623.106 100.005L662.668 95.6089L719.813 164.477L723.477 178.397L855.351 314.667C855.351 314.667 887.587 430.423 685.38 471.451C685.38 471.451 483.172 483.173 486.103 357.16L576.95 197.445L574.019 178.397L623.106 100.005Z" fill="#B7E589" stroke="#605B53" stroke-width="0.5" stroke-miterlimit="10"/>
<path d="M462.659 386.465C465.59 405.513 486.074 432.987 486.074 432.987C486.074 432.987 549.11 508.082 683.915 494.895C818.72 481.708 874.4 387.93 874.4 387.93C899.31 346.903 883.192 313.201 883.192 313.201L742.526 167.832V149.091L717.616 124.182L702.963 125.647L666.332 90.4805L617.978 97.8068L591.603 140.3L575.485 141.765L557.902 174.001L562.298 188.654L462.659 361.555V386.465Z" stroke="#605B53" stroke-width="0.5" stroke-miterlimit="10"/>
<path d="M688.311 26.0085L581.346 40.6612L532.992 128.577L519.805 121.251L441.134 283.676L434.819 279.5C434.819 279.5 398.187 330.785 405.514 380.604L462.659 373.468V361.555L562.298 188.653L557.902 174.001L575.485 141.765L591.603 140.3L617.978 97.8068L666.332 90.4804L702.963 125.647L717.616 124.182L742.526 149.091V167.832L883.192 313.201L885.888 321.129L943.268 311.736C943.268 311.736 933.011 251.514 888.32 220.816L881.726 226.751L766.146 90.4804L755.713 100.737L688.311 26.0085Z" fill="#FFC8AF" stroke="#605B53" stroke-width="0.5" stroke-miterlimit="10"/>
<path d="M572.555 30.4044L694.172 15.7517L727.873 53.8487L748.387 37.7308L903.705 207.702L881.726 226.751L766.146 90.4805L755.713 100.737L688.311 26.0086L581.346 40.6613L532.992 128.577L519.805 121.251L441.134 283.676L418.701 269.243L528.596 65.5709L549.11 77.293L572.555 30.4044Z" fill="#FFFAF8" stroke="#605B53" stroke-width="0.5" stroke-miterlimit="10"/>
<path d="M414.598 379.476C414.598 379.476 426.027 562.297 688.31 543.249C950.593 524.2 934.08 313.245 934.08 313.245L885.887 321.143C885.887 321.143 894.913 355.709 874.399 387.945C853.886 420.181 794.542 483.143 675.489 495.627C556.436 508.097 486.074 433.002 486.074 433.002C486.074 433.002 469.985 414.32 462.658 386.48V373.483L414.598 379.49V379.476Z" fill="#FFF5F1" stroke="#605B53" stroke-width="0.5" stroke-miterlimit="10"/>
<path d="M404.546 397.967L423.096 393.791C423.096 393.791 445.075 547.644 688.31 543.249C688.31 543.249 933.01 499.291 928.614 330.785L946.198 327.854C946.198 327.854 950.593 355.694 931.545 402.583C912.496 449.471 839.233 506.617 839.233 506.617C839.233 506.617 770.365 553.506 688.31 560.832C606.255 568.158 538.853 535.922 538.853 535.922C538.853 535.922 429.954 497.4 404.546 397.967Z" fill="#FAFDF9" stroke="#605B53" stroke-width="0.5" stroke-miterlimit="10"/>
<path d="M127.435 428.943L157.883 412.84L148.901 401.118L127.435 415.023L118.321 409.909L26.0088 228.216L168.14 160.813L309.48 428.943L163.744 502.221L127.435 428.943Z" fill="#F7F7F7" stroke="#605B53" stroke-width="0.5" stroke-miterlimit="10"/>
<path d="M160.813 439.215L179.715 471.744L276.57 420.166L260.452 389.396L160.813 439.215Z" fill="#FCFCFC" stroke="#605B53" stroke-width="0.5" stroke-miterlimit="10"/>
<path d="M0.366211 236.685H7.927L136.768 502.221L137.369 522.735L68.8676 561.916L58.2444 534.457L45.0569 540.318L55.3138 566.693L42.1264 574.02L36.2653 571.089L0.366211 499.965V236.685Z" fill="#F7F7F7" stroke="#605B53" stroke-width="0.5" stroke-miterlimit="10"/>
<path d="M203.306 614.651L160.813 529.768H154.498L47.9873 588.672L62.0832 614.651H203.306Z" fill="#F7F7F7" stroke="#605B53" stroke-width="0.5" stroke-miterlimit="10"/>
<path d="M981.467 190.236L965.246 198.91L981.305 232.26L981.467 190.236Z" fill="#EAF5E5" stroke="#605B53" stroke-width="0.5" stroke-miterlimit="10"/>
<path d="M0.366211 12.8504V0.366333H243.425L248.979 12.8504L53.6874 101.953L0.366211 12.8504Z" fill="#F7F7F7" stroke="#605B53" stroke-width="0.5" stroke-miterlimit="10"/>
<path d="M0.366211 39.4597L41.7308 107.419L0.366211 126.292V39.4597Z" fill="#F7F7F7" stroke="#605B53" stroke-width="0.5" stroke-miterlimit="10"/>
<path d="M653.056 496.961V534.516C653.056 534.516 562.239 542.633 486.074 479.202C486.074 479.202 450.937 458.263 431.889 404.048L464.623 393.103C464.623 393.103 472.916 446.409 561.565 480.916C561.565 480.916 609.01 499.042 653.056 496.976V496.961Z" fill="#FCDED0" stroke="#605B53" stroke-width="0.5" stroke-miterlimit="10"/>
<path d="M730.275 485.488L736.664 509.548C736.664 509.548 747.155 506.925 761.852 502.06C786.762 493.811 823.73 479.085 842.163 459.728L826.28 438.922C826.28 438.922 783.948 474.616 730.275 485.488Z" fill="#FCDED0" stroke="#605B53" stroke-width="0.5" stroke-miterlimit="10"/>
<path d="M888.32 339.151L922.754 339.576C922.754 339.576 927.985 403.755 857.241 463.978C857.241 463.978 846.56 474.381 836.303 480.242L827.731 471.744C827.731 471.744 839.233 464.124 842.164 459.728L826.28 438.922C826.28 438.922 891.983 391.476 888.32 339.151Z" stroke="#605B53" stroke-width="0.5" stroke-miterlimit="10"/>
<path d="M573.814 244.143C595.5 284.174 641.363 304.571 683.387 290.329C713.44 280.145 734.276 254.708 741.104 224.611L646.213 152.886L573.8 244.158L573.814 244.143Z" fill="#FAFAFA"/>
<path d="M647.579 157.49L599.93 219.498L662.205 267.353L709.854 205.345L647.579 157.49Z" fill="#B7E589"/>
<path d="M647.356 168.052C654.235 168.052 659.811 162.476 659.811 155.597C659.811 148.718 654.235 143.142 647.356 143.142C640.478 143.142 634.901 148.718 634.901 155.597C634.901 162.476 640.478 168.052 647.356 168.052Z" fill="#FAFAFA"/>
<path d="M607.062 213.475C606.783 212.787 606.432 212.142 606.036 211.541L599.926 219.497L606.344 224.421C608.19 221.197 608.586 217.182 607.062 213.475Z" fill="#FAFAFA"/>
<path d="M657.262 260.1C656.324 260.481 655.474 260.979 654.683 261.551L662.199 267.338L667.489 260.452C664.397 258.928 660.69 258.679 657.247 260.115L657.262 260.1Z" fill="#FAFAFA"/>
<path d="M704.883 211.805L709.85 205.343L703.784 200.683C702.67 203.555 702.612 206.852 703.886 209.915C704.165 210.589 704.502 211.219 704.883 211.805Z" fill="#FAFAFA"/>
<path d="M654.975 218.04C659.831 218.04 663.767 214.104 663.767 209.248C663.767 204.393 659.831 200.457 654.975 200.457C650.12 200.457 646.184 204.393 646.184 209.248C646.184 214.104 650.12 218.04 654.975 218.04Z" fill="#FAFAFA"/>
</g>
<g filter="url(#filter0_d_1117_1914)">
<path fill-rule="evenodd" clip-rule="evenodd" d="M771.312 174.873C771.701 174.2 772.338 173.71 773.077 173.466C785.23 169.45 794 157.999 794 144.5C794 127.655 780.345 114 763.5 114C746.655 114 733 127.655 733 144.5C733 158.454 742.37 170.219 755.162 173.846C755.956 174.071 756.646 174.577 757.059 175.292L761.13 182.343C762.434 184.602 765.695 184.602 767 182.343L771.312 174.873Z" fill="white"/>
</g>
<circle cx="762.982" cy="143.981" r="25.9815" fill="#FF4E00"/>
<path d="M767.333 136.25V145.917H770.958V155.583H773.375V131.417C770.04 131.417 767.333 134.123 767.333 136.25ZM761.292 139.875H758.875V131.417H756.458V139.875H754.042V131.417H751.625V139.875C751.625 142.545 753.788 144.708 756.458 144.708V155.583H758.875V144.708C761.545 144.708 763.708 142.545 763.708 139.875V131.417H761.292V139.875Z" fill="#FAFAFA"/>
<path d="M731.32 200.633H729.328V190.234H731.32V200.633ZM731.711 204.195H721.797V202.586H731.711V204.195ZM723.812 203.523H721.797V199.711H723.812V203.523ZM724.586 193.531C724.586 194.401 724.432 195.211 724.125 195.961C723.823 196.706 723.367 197.357 722.758 197.914C722.148 198.466 721.398 198.87 720.508 199.125L719.547 197.578C720.302 197.354 720.935 197.036 721.445 196.625C721.956 196.208 722.333 195.734 722.578 195.203C722.823 194.667 722.945 194.109 722.945 193.531V193.016H724.586V193.531ZM724.945 193.531C724.945 194.078 725.07 194.602 725.32 195.102C725.57 195.596 725.951 196.039 726.461 196.43C726.971 196.815 727.604 197.115 728.359 197.328L727.414 198.891C726.518 198.641 725.763 198.253 725.148 197.727C724.539 197.195 724.083 196.573 723.781 195.859C723.479 195.141 723.328 194.365 723.328 193.531V193.016H724.945V193.531ZM727.859 193.43H720.039V191.875H727.859V193.43ZM724.961 192.539H722.945V190.297H724.961V192.539ZM744.689 194.711H741.158V193.141H744.689V194.711ZM738.322 192.227C738.322 193.039 738.166 193.818 737.853 194.562C737.541 195.307 737.077 195.961 736.462 196.523C735.853 197.086 735.116 197.5 734.252 197.766L733.275 196.219C734.02 195.974 734.647 195.638 735.158 195.211C735.668 194.784 736.051 194.31 736.306 193.789C736.561 193.268 736.689 192.747 736.689 192.227V191.406H738.322V192.227ZM738.697 192.25C738.697 192.75 738.817 193.24 739.056 193.719C739.296 194.193 739.66 194.622 740.15 195.008C740.64 195.388 741.239 195.685 741.947 195.898L741.017 197.461C740.163 197.211 739.439 196.826 738.845 196.305C738.257 195.784 737.814 195.174 737.517 194.477C737.22 193.779 737.072 193.036 737.072 192.25V191.406H738.697V192.25ZM741.525 192.352H733.806V190.758H741.525V192.352ZM745.377 197.453H743.4V190.203H745.377V197.453ZM745.377 201.852H737.939V203.672H735.931V200.391H743.4V199.578H735.916V198H745.377V201.852ZM745.798 204.297H735.931V202.742H745.798V204.297ZM758.659 200.852H756.667V190.234H758.659V200.852ZM760.581 196.219H758.081V194.586H760.581V196.219ZM755.816 193.289H747.37V191.719H755.816V193.289ZM751.605 193.789C752.282 193.789 752.886 193.906 753.417 194.141C753.948 194.37 754.362 194.693 754.659 195.109C754.956 195.526 755.105 196.005 755.105 196.547C755.105 197.083 754.956 197.557 754.659 197.969C754.362 198.375 753.948 198.693 753.417 198.922C752.886 199.151 752.282 199.266 751.605 199.266C750.917 199.266 750.305 199.151 749.769 198.922C749.232 198.693 748.816 198.375 748.519 197.969C748.222 197.557 748.073 197.083 748.073 196.547C748.073 196.005 748.222 195.526 748.519 195.109C748.816 194.693 749.232 194.37 749.769 194.141C750.305 193.906 750.917 193.789 751.605 193.789ZM751.605 195.32C751.287 195.32 751.006 195.367 750.761 195.461C750.521 195.555 750.336 195.695 750.206 195.883C750.076 196.07 750.011 196.292 750.011 196.547C750.011 196.802 750.076 197.021 750.206 197.203C750.336 197.38 750.521 197.516 750.761 197.609C751.006 197.703 751.287 197.75 751.605 197.75C751.922 197.75 752.201 197.703 752.441 197.609C752.685 197.516 752.876 197.38 753.011 197.203C753.146 197.021 753.214 196.802 753.214 196.547C753.214 196.292 753.146 196.07 753.011 195.883C752.876 195.695 752.685 195.555 752.441 195.461C752.201 195.367 751.922 195.32 751.605 195.32ZM752.597 192.492H750.605V190.211H752.597V192.492ZM759.167 204.195H749.433V202.586H759.167V204.195ZM751.425 203.273H749.433V200.031H751.425V203.273ZM772.319 192.086C772.319 193.117 772.077 194.083 771.592 194.984C771.108 195.885 770.418 196.656 769.522 197.297C768.631 197.932 767.587 198.37 766.389 198.609L765.537 196.953C766.558 196.76 767.449 196.414 768.209 195.914C768.975 195.414 769.558 194.828 769.959 194.156C770.366 193.484 770.569 192.794 770.569 192.086V191.07H772.319V192.086ZM772.686 192.086C772.686 192.799 772.886 193.495 773.287 194.172C773.694 194.849 774.28 195.438 775.045 195.938C775.816 196.432 776.717 196.771 777.748 196.953L776.873 198.609C775.686 198.37 774.644 197.935 773.748 197.305C772.858 196.674 772.173 195.909 771.694 195.008C771.215 194.107 770.975 193.133 770.975 192.086V191.07H772.686V192.086ZM778.217 202.695H765.217V201.062H778.217V202.695ZM791.406 198.492H789.508V190.234H791.406V198.492ZM790.008 195.156H787.672V193.555H790.008V195.156ZM788.227 198.406H786.367V190.477H788.227V198.406ZM791.406 204.438H789.43V200.68H781.578V199.078H791.406V204.438ZM781.758 196.523H779.766V191.156H781.758V196.523ZM780.719 195.93C781.729 195.93 782.594 195.904 783.312 195.852C784.036 195.799 784.773 195.69 785.523 195.523L785.734 197.125C784.943 197.292 784.164 197.404 783.398 197.461C782.633 197.513 781.74 197.542 780.719 197.547H779.766V195.93H780.719ZM804.384 204.438H802.384V190.203H804.384V204.438ZM806.494 197.195H803.947V195.531H806.494V197.195ZM795.611 194.812H798.564V191.352H800.556V201.148H793.619V191.352H795.611V194.812ZM798.564 199.523V196.359H795.611V199.523H798.564Z" fill="black"/>
<defs>
<filter id="filter0_d_1117_1914" x="728" y="111" width="69" height="78.037" filterUnits="userSpaceOnUse" color-interpolation-filters="sRGB">
<feFlood flood-opacity="0" result="BackgroundImageFix"/>
<feColorMatrix in="SourceAlpha" type="matrix" values="0 0 0 0 0 0 0 0 0 0 0 0 0 0 0 0 0 0 127 0" result="hardAlpha"/>
<feOffset dx="-1" dy="1"/>
<feGaussianBlur stdDeviation="2"/>
<feComposite in2="hardAlpha" operator="out"/>
<feColorMatrix type="matrix" values="0 0 0 0 0 0 0 0 0 0 0 0 0 0 0 0 0 0 0.25 0"/>
<feBlend mode="normal" in2="BackgroundImageFix" result="effect1_dropShadow_1117_1914"/>
<feBlend mode="normal" in="SourceGraphic" in2="effect1_dropShadow_1117_1914" result="shape"/>
</filter>
<clipPath id="clip0_1117_1914">
<rect width="981.833" height="615.018" fill="white"/>
</clipPath>
</defs>
</svg>
