<svg width="390" height="427" viewBox="0 0 390 427" fill="none" xmlns="http://www.w3.org/2000/svg">
<g clip-path="url(#clip0_982_4221)">
<path d="M358.106 1.0047L397.668 -3.39111L454.813 65.4766L458.477 79.3966L590.351 215.667C590.351 215.667 622.587 331.423 420.38 372.451C420.38 372.451 218.172 384.173 221.103 258.16L311.95 98.4451L309.019 79.3966L358.106 1.0047Z" fill="#B7E589" stroke="#605B53" stroke-width="0.5" stroke-miterlimit="10"/>
<path d="M197.659 287.465C200.59 306.513 221.074 333.987 221.074 333.987C221.074 333.987 284.11 409.082 418.915 395.895C553.72 382.708 609.4 288.93 609.4 288.93C634.31 247.903 618.192 214.201 618.192 214.201L477.526 68.8321V50.0913L452.616 25.1817L437.963 26.6469L401.332 -8.51953L352.978 -1.19318L326.603 41.2996L310.485 42.7649L292.902 75.0008L297.298 89.6535L197.659 262.555V287.465Z" stroke="#605B53" stroke-width="0.5" stroke-miterlimit="10"/>
<path d="M423.311 -72.9915L316.346 -58.3388L267.992 29.5774L254.805 22.2511L176.134 184.676L169.819 180.5C169.819 180.5 133.187 231.785 140.514 281.604L197.659 274.468V262.555L297.298 89.6535L292.902 75.0008L310.485 42.7649L326.603 41.2996L352.978 -1.19324L401.332 -8.51958L437.964 26.6469L452.616 25.1816L477.526 50.0912V68.832L618.192 214.201L620.888 222.129L678.268 212.736C678.268 212.736 668.011 152.514 623.32 121.816L616.726 127.751L501.146 -8.51958L490.713 1.7373L423.311 -72.9915Z" fill="#FFC8AF" stroke="#605B53" stroke-width="0.5" stroke-miterlimit="10"/>
<path d="M307.555 -68.5956L429.172 -83.2483L462.873 -45.1513L483.387 -61.2692L638.705 108.702L616.726 127.751L501.146 -8.51953L490.713 1.73736L423.311 -72.9914L316.346 -58.3387L267.992 29.5775L254.805 22.2511L176.134 184.676L153.701 170.243L263.596 -33.4291L284.11 -21.707L307.555 -68.5956Z" fill="#FFFAF8" stroke="#605B53" stroke-width="0.5" stroke-miterlimit="10"/>
<path d="M149.598 280.476C149.598 280.476 161.027 463.297 423.31 444.249C685.593 425.2 669.08 214.245 669.08 214.245L620.887 222.143C620.887 222.143 629.913 256.709 609.399 288.945C588.886 321.181 529.542 384.143 410.489 396.628C291.436 409.097 221.074 334.002 221.074 334.002C221.074 334.002 204.985 315.32 197.658 287.48V274.483L149.598 280.49V280.476Z" fill="#FFF5F1" stroke="#605B53" stroke-width="0.5" stroke-miterlimit="10"/>
<path d="M139.546 298.967L158.096 294.791C158.096 294.791 180.075 448.644 423.31 444.249C423.31 444.249 668.01 400.291 663.614 231.785L681.198 228.854C681.198 228.854 685.593 256.694 666.545 303.583C647.496 350.471 574.233 407.617 574.233 407.617C574.233 407.617 505.365 454.506 423.31 461.832C341.255 469.158 273.853 436.922 273.853 436.922C273.853 436.922 164.954 398.4 139.546 298.967Z" fill="#FAFDF9" stroke="#605B53" stroke-width="0.5" stroke-miterlimit="10"/>
<path d="M388.056 397.961V435.516C388.056 435.516 297.239 443.633 221.074 380.202C221.074 380.202 185.937 359.263 166.889 305.048L199.623 294.103C199.623 294.103 207.916 347.409 296.565 381.916C296.565 381.916 344.01 400.042 388.056 397.976V397.961Z" fill="#FCDED0" stroke="#605B53" stroke-width="0.5" stroke-miterlimit="10"/>
<path d="M308.814 145.143C330.5 185.174 376.363 205.571 418.387 191.329C448.44 181.145 469.276 155.708 476.104 125.611L381.213 53.8862L308.8 145.158L308.814 145.143Z" fill="#FAFAFA"/>
<path d="M382.579 58.4904L334.93 120.499L397.205 168.353L444.854 106.345L382.579 58.4904Z" fill="#B7E589"/>
<path d="M382.356 69.0517C389.235 69.0517 394.811 63.4755 394.811 56.5969C394.811 49.7183 389.235 44.1421 382.356 44.1421C375.478 44.1421 369.901 49.7183 369.901 56.5969C369.901 63.4755 375.478 69.0517 382.356 69.0517Z" fill="#FAFAFA"/>
<path d="M342.062 114.475C341.783 113.787 341.432 113.142 341.036 112.541L334.926 120.497L341.344 125.421C343.19 122.197 343.586 118.182 342.062 114.475Z" fill="#FAFAFA"/>
<path d="M392.262 161.1C391.324 161.481 390.474 161.979 389.683 162.551L397.199 168.339L402.489 161.452C399.397 159.928 395.69 159.679 392.247 161.115L392.262 161.1Z" fill="#FAFAFA"/>
<path d="M389.975 119.04C394.831 119.04 398.767 115.104 398.767 110.248C398.767 105.393 394.831 101.457 389.975 101.457C385.12 101.457 381.184 105.393 381.184 110.248C381.184 115.104 385.12 119.04 389.975 119.04Z" fill="#FAFAFA"/>
</g>
<g filter="url(#filter0_d_982_4221)">
<path fill-rule="evenodd" clip-rule="evenodd" d="M203.312 255.873C203.701 255.2 204.338 254.71 205.077 254.466C217.23 250.45 226 238.999 226 225.5C226 208.655 212.345 195 195.5 195C178.655 195 165 208.655 165 225.5C165 239.454 174.37 251.219 187.162 254.846C187.956 255.071 188.646 255.577 189.059 256.292L193.13 263.343C194.434 265.602 197.695 265.602 199 263.343L203.312 255.873Z" fill="white"/>
</g>
<circle cx="194.981" cy="224.981" r="25.9815" fill="#FF4E00"/>
<path d="M199.333 217.25V226.917H202.958V236.583H205.375V212.417C202.04 212.417 199.333 215.123 199.333 217.25ZM193.292 220.875H190.875V212.417H188.458V220.875H186.042V212.417H183.625V220.875C183.625 223.545 185.788 225.708 188.458 225.708V236.583H190.875V225.708C193.545 225.708 195.708 223.545 195.708 220.875V212.417H193.292V220.875Z" fill="#FAFAFA"/>
<path d="M167.617 272.328C167.617 273.234 167.38 274.078 166.906 274.859C166.432 275.635 165.747 276.286 164.852 276.812C163.961 277.339 162.914 277.69 161.711 277.867L160.93 276.266C161.961 276.141 162.852 275.875 163.602 275.469C164.352 275.057 164.917 274.578 165.297 274.031C165.677 273.479 165.867 272.911 165.867 272.328V271.633H167.617V272.328ZM167.961 272.328C167.961 272.911 168.154 273.479 168.539 274.031C168.93 274.583 169.5 275.062 170.25 275.469C171.005 275.875 171.898 276.141 172.93 276.266L172.156 277.867C170.948 277.69 169.896 277.339 169 276.812C168.104 276.286 167.417 275.635 166.938 274.859C166.458 274.083 166.219 273.24 166.219 272.328V271.633H167.961V272.328ZM167.859 285.438H165.883V280.211H167.859V285.438ZM173.398 280.578H160.43V278.945H173.398V280.578ZM186.322 285.477H184.33V271.203H186.322V285.477ZM176.439 280.5C177.772 280.505 178.976 280.474 180.048 280.406C181.121 280.333 182.21 280.208 183.314 280.031L183.494 281.641C182.4 281.833 181.309 281.966 180.22 282.039C179.137 282.107 177.877 282.141 176.439 282.141H175.166V280.5H176.439ZM181.908 277.883H177.22V281.125H175.166V276.32H179.877V274.016H175.15V272.406H181.908V277.883ZM195.659 281.961H188.831V272.562H195.659V281.961ZM190.792 280.391H193.683V274.117H190.792V280.391ZM199.597 285.438H197.597V271.203H199.597V285.438ZM201.706 278.242H199.159V276.578H201.706V278.242ZM209.77 272.578C209.77 274.193 209.598 275.628 209.255 276.883C208.911 278.133 208.27 279.299 207.333 280.383C206.401 281.461 205.083 282.43 203.38 283.289L202.294 281.781C203.747 281.062 204.877 280.268 205.684 279.398C206.492 278.529 207.052 277.573 207.364 276.531C207.677 275.49 207.833 274.258 207.833 272.836V272.578H209.77ZM209.02 274.18H203.192V272.578H209.02V274.18ZM202.684 278.094L202.442 276.391L207.872 276.07V277.609L202.684 278.094ZM213.575 285.414H211.575V271.203H213.575V285.414ZM215.583 278.312H213.059V276.672H215.583V278.312ZM229.327 280.203H216.327V278.633H229.327V280.203ZM223.811 279.648H221.834V276.969H223.811V279.648ZM227.756 275.336H219.928V276.922H217.944V273.914H225.756V273.07H217.92V271.531H227.756V275.336ZM228.022 277.727H217.944V276.219H228.022V277.727ZM222.803 280.828C223.866 280.828 224.769 280.917 225.514 281.094C226.259 281.271 226.829 281.531 227.225 281.875C227.621 282.214 227.819 282.63 227.819 283.125C227.819 283.62 227.621 284.042 227.225 284.391C226.829 284.74 226.259 285 225.514 285.172C224.769 285.349 223.866 285.438 222.803 285.438C221.73 285.438 220.816 285.349 220.061 285.172C219.306 285 218.733 284.74 218.342 284.391C217.952 284.042 217.756 283.62 217.756 283.125C217.756 282.63 217.952 282.214 218.342 281.875C218.733 281.531 219.306 281.271 220.061 281.094C220.816 280.917 221.73 280.828 222.803 280.828ZM222.803 282.312C222.09 282.312 221.514 282.339 221.077 282.391C220.644 282.443 220.321 282.531 220.108 282.656C219.894 282.776 219.787 282.932 219.787 283.125C219.787 283.318 219.897 283.479 220.116 283.609C220.334 283.74 220.662 283.836 221.1 283.898C221.537 283.961 222.105 283.992 222.803 283.992C223.491 283.992 224.051 283.961 224.483 283.898C224.92 283.836 225.246 283.74 225.459 283.609C225.678 283.479 225.787 283.318 225.787 283.125C225.787 282.932 225.678 282.776 225.459 282.656C225.246 282.531 224.926 282.443 224.498 282.391C224.077 282.339 223.511 282.312 222.803 282.312Z" fill="black"/>
<defs>
<filter id="filter0_d_982_4221" x="160" y="192" width="69" height="78.0369" filterUnits="userSpaceOnUse" color-interpolation-filters="sRGB">
<feFlood flood-opacity="0" result="BackgroundImageFix"/>
<feColorMatrix in="SourceAlpha" type="matrix" values="0 0 0 0 0 0 0 0 0 0 0 0 0 0 0 0 0 0 127 0" result="hardAlpha"/>
<feOffset dx="-1" dy="1"/>
<feGaussianBlur stdDeviation="2"/>
<feComposite in2="hardAlpha" operator="out"/>
<feColorMatrix type="matrix" values="0 0 0 0 0 0 0 0 0 0 0 0 0 0 0 0 0 0 0.25 0"/>
<feBlend mode="normal" in2="BackgroundImageFix" result="effect1_dropShadow_982_4221"/>
<feBlend mode="normal" in="SourceGraphic" in2="effect1_dropShadow_982_4221" result="shape"/>
</filter>
<clipPath id="clip0_982_4221">
<rect width="981.833" height="615.018" fill="white" transform="translate(-265 -99)"/>
</clipPath>
</defs>
</svg>
