<svg width="390" height="413" viewBox="0 0 390 413" fill="none" xmlns="http://www.w3.org/2000/svg">
<mask id="mask0_698_7774" style="mask-type:alpha" maskUnits="userSpaceOnUse" x="0" y="0" width="390" height="413">
<rect width="390" height="413" fill="#D9D9D9"/>
</mask>
<g mask="url(#mask0_698_7774)">
<g clip-path="url(#clip0_698_7774)">
<path d="M136.055 17.7502C136.055 17.7502 -7.57714 64.7502 43.2924 271.75C43.2924 271.75 89.1748 415.75 241.783 377.75C241.783 377.75 396.387 333.75 343.523 154.75C343.523 154.75 284.674 -9.24976 136.055 17.7502Z" fill="#FFFAF8" stroke="#605B53" stroke-width="0.5" stroke-miterlimit="10"/>
<path d="M196.899 359.75C274.572 359.75 337.539 296.622 337.539 218.75C337.539 140.878 274.572 77.75 196.899 77.75C119.226 77.75 56.2598 140.878 56.2598 218.75C56.2598 296.622 119.226 359.75 196.899 359.75Z" fill="#FFFAF8" stroke="#605B53" stroke-width="0.5" stroke-miterlimit="10"/>
<path d="M116.106 118.75C116.106 118.75 158.996 84.7501 221.835 96.7501V106.47L244.776 135.75L241.784 138.75V145.75L295.646 202.75L301.63 196.75C301.63 196.75 309.61 205.75 321.579 207.75C321.579 207.75 332.561 321.79 211.871 342.77C211.871 342.77 122.091 354.75 80.1982 267.75L93.165 254.75L96.1573 246.75L102.142 249.75L124.086 173.75L120.096 168.75L118.101 167.75L127.078 131.75L116.106 118.75Z" fill="#FFF5F1" stroke="#605B53" stroke-width="0.5" stroke-miterlimit="10"/>
<path d="M176.182 134.51L93.165 270.75C93.165 270.75 141.042 363.75 231.81 329.75C322.577 295.75 313.56 219.41 313.56 219.41L176.182 134.51Z" fill="#B7E589" stroke="#605B53" stroke-width="0.5" stroke-miterlimit="10"/>
<path d="M54.5635 91.8L65.2361 100.75C65.2361 100.75 101.144 70.75 154.008 60.75C206.873 50.75 218.842 49.75 252.755 54.75L254.76 40.53C254.76 40.53 201.886 3.75003 136.055 17.75C136.055 17.75 91.7681 29.84 54.5635 91.8Z" fill="#FFF5F1" stroke="#605B53" stroke-width="0.5" stroke-miterlimit="10"/>
<path d="M114.111 122.75L124.086 133.75L92.1674 252.75L80.1981 263.44C80.1981 263.44 63.2416 223.75 79.2007 178.75C95.1598 133.75 114.111 122.75 114.111 122.75Z" fill="#FFC8AF" stroke="#605B53" stroke-width="0.5" stroke-miterlimit="10"/>
<path d="M117.103 169.75L97.1543 243.75L101.144 245.75L121.093 173.75L117.103 169.75Z" fill="#FFC8AF" stroke="#605B53" stroke-width="0.5" stroke-miterlimit="10"/>
<path d="M224.827 96.75V105.21L302.628 193.75C302.628 193.75 313.6 204.75 320.582 204.75C320.582 204.75 314.597 158.75 288.663 132.75C262.73 106.75 224.827 96.75 224.827 96.75Z" fill="#FFC8AF" stroke="#605B53" stroke-width="0.5" stroke-miterlimit="10"/>
<path d="M247.769 138.75L298.638 194.75L294.648 197.75L244.776 143.75V138.75H247.769Z" fill="#FFC8AF" stroke="#605B53" stroke-width="0.5" stroke-miterlimit="10"/>
<path d="M54.5638 96.7502L87.1801 124.75C87.1801 124.75 43.8911 169.26 54.5638 240.51C54.5638 240.51 65.2364 366.75 215.85 362.75C215.85 362.75 374.394 343.75 334.536 169.75C334.536 169.75 309.61 92.7502 237.794 79.7502L241.784 66.7502L249.763 69.7502L251.758 63.7502H254.76L256.037 57.6602C256.037 57.6602 293.79 64.7502 332.621 138.75C371.441 212.75 337.528 290.92 337.528 290.92C337.528 290.92 306.607 359.75 218.833 379.75C218.833 379.75 131.337 396.14 72.3482 317.44C13.3594 238.74 42.8837 119.75 54.5538 96.7502H54.5638Z" fill="#FFA47C" stroke="#605B53" stroke-width="0.5" stroke-miterlimit="10"/>
<path d="M131.058 201.46C148.922 227.93 182.286 239 210.584 226.14C230.822 216.95 243.579 197.74 246.272 176.24L175.214 132.7L131.058 201.46Z" fill="#FAFAFA"/>
<path d="M176.458 135.772L147.542 182.382L194.236 211.499L223.152 164.889L176.458 135.772Z" fill="#B7E589"/>
<path d="M152.104 177.73C151.855 177.27 151.576 176.84 151.256 176.45L147.546 182.43L152.354 185.43C153.421 183.05 153.421 180.22 152.094 177.74L152.104 177.73Z" fill="#FAFAFA"/>
<path d="M190.296 206.83C189.668 207.16 189.109 207.57 188.601 208.02L194.236 211.54L197.448 206.36C195.184 205.51 192.58 205.6 190.286 206.83H190.296Z" fill="#FAFAFA"/>
<path d="M220.15 169.8L223.162 164.94L218.614 162.1C218.035 164.19 218.225 166.48 219.322 168.54C219.561 168.99 219.841 169.4 220.15 169.79V169.8Z" fill="#FAFAFA"/>
<path d="M185.169 176.1C188.568 176.1 191.323 173.337 191.323 169.93C191.323 166.522 188.568 163.76 185.169 163.76C181.77 163.76 179.015 166.522 179.015 169.93C179.015 173.337 181.77 176.1 185.169 176.1Z" fill="#FAFAFA"/>
<path d="M166.976 128.75L149.022 118.75C149.022 118.75 144.035 115.75 141.042 119.75L125.652 165.95L128.076 173.75L112.097 231.5L166.976 139.75C166.976 139.75 163.984 134.75 166.976 128.75Z" fill="#B7E589" stroke="#605B53" stroke-width="0.5" stroke-miterlimit="10"/>
<path d="M183.294 125.93L194.874 108.93C194.874 108.93 197.996 104.01 202.455 106.24L236.857 140.63L238.173 148.69L278.261 193.14L188.202 135.77C188.202 135.77 188.64 129.96 183.284 125.94L183.294 125.93Z" fill="#B7E589" stroke="#605B53" stroke-width="0.5" stroke-miterlimit="10"/>
<path d="M169.968 106.75C169.968 106.75 157.998 109.75 155.006 112.75C152.014 115.75 154.667 117.67 154.667 117.67L168.97 126.75C168.97 126.75 169.968 124.75 173.957 123.75C177.947 122.75 179.942 123.75 179.942 123.75L189.916 107.75C189.916 107.75 191.472 103.87 185.707 104.31C179.942 104.75 169.968 106.75 169.968 106.75Z" fill="#B7E589" stroke="#605B53" stroke-width="0.5" stroke-miterlimit="10"/>
<path d="M176.183 143.25C180.997 143.25 184.9 139.337 184.9 134.51C184.9 129.683 180.997 125.77 176.183 125.77C171.368 125.77 167.465 129.683 167.465 134.51C167.465 139.337 171.368 143.25 176.183 143.25Z" fill="#FAFAFA"/>
</g>
<g filter="url(#filter0_d_698_7774)">
<path fill-rule="evenodd" clip-rule="evenodd" d="M48.6027 206.951C48.7555 206.686 49.0063 206.493 49.297 206.396C54.0658 204.816 57.507 200.311 57.507 195C57.507 188.373 52.1481 183 45.5377 183C38.9272 183 33.5684 188.373 33.5684 195C33.5684 200.489 37.2449 205.118 42.264 206.546C42.5764 206.635 42.8482 206.834 43.0103 207.115L44.6037 209.882C45.1166 210.773 46.4017 210.773 46.9146 209.882L48.6027 206.951Z" fill="white"/>
</g>
<ellipse cx="45.3338" cy="194.796" rx="10.1961" ry="10.2222" fill="#FF4E00"/>
<path d="M47.0415 191.754V195.557H48.4641V199.36H49.4124V189.852C48.1037 189.852 47.0415 190.917 47.0415 191.754ZM44.6705 193.18H43.7221V189.852H42.7737V193.18H41.8253V189.852H40.877V193.18C40.877 194.231 41.7258 195.082 42.7737 195.082V199.36H43.7221V195.082C44.7701 195.082 45.6189 194.231 45.6189 193.18V189.852H44.6705V193.18Z" fill="#FAFAFA"/>
<g filter="url(#filter1_d_698_7774)">
<path fill-rule="evenodd" clip-rule="evenodd" d="M50.5971 235.951C50.7499 235.685 51.0007 235.492 51.2913 235.396C56.0601 233.816 59.5011 229.311 59.5011 224C59.5011 217.373 54.1423 212 47.5318 212C40.9213 212 35.5625 217.373 35.5625 224C35.5625 229.49 39.2392 234.118 44.2584 235.546C44.5708 235.635 44.8426 235.834 45.0047 236.115L46.598 238.882C47.1109 239.773 48.396 239.773 48.9089 238.882L50.5971 235.951Z" fill="white"/>
</g>
<ellipse cx="47.3289" cy="223.796" rx="10.1961" ry="10.2222" fill="#FF4E00"/>
<path d="M49.0366 220.754V224.557H50.4592V228.36H51.4076V218.852C50.0988 218.852 49.0366 219.917 49.0366 220.754ZM46.6656 222.18H45.7172V218.852H44.7688V222.18H43.8205V218.852H42.8721V222.18C42.8721 223.231 43.7209 224.082 44.7688 224.082V228.36H45.7172V224.082C46.7652 224.082 47.614 223.231 47.614 222.18V218.852H46.6656V222.18Z" fill="#FAFAFA"/>
<g filter="url(#filter2_d_698_7774)">
<path fill-rule="evenodd" clip-rule="evenodd" d="M60.5718 279.951C60.7246 279.685 60.9754 279.492 61.266 279.396C66.0347 277.816 69.4757 273.311 69.4757 268C69.4757 261.373 64.1169 256 57.5064 256C50.896 256 45.5371 261.373 45.5371 268C45.5371 273.49 49.2138 278.118 54.233 279.546C54.5455 279.635 54.8173 279.834 54.9794 280.115L56.5727 282.882C57.0856 283.773 58.3707 283.773 58.8836 282.882L60.5718 279.951Z" fill="white"/>
</g>
<ellipse cx="57.3035" cy="267.796" rx="10.1961" ry="10.2222" fill="#FF4E00"/>
<path d="M59.0112 264.754V268.557H60.4338V272.36H61.3822V262.852C60.0734 262.852 59.0112 263.917 59.0112 264.754ZM56.6402 266.18H55.6918V262.852H54.7435V266.18H53.7951V262.852H52.8467V266.18C52.8467 267.231 53.6955 268.082 54.7435 268.082V272.36H55.6918V268.082C56.7398 268.082 57.5886 267.231 57.5886 266.18V262.852H56.6402V266.18Z" fill="#FAFAFA"/>
<g filter="url(#filter3_d_698_7774)">
<path fill-rule="evenodd" clip-rule="evenodd" d="M347.835 216.951C347.988 216.686 348.239 216.492 348.529 216.396C353.298 214.816 356.739 210.311 356.739 205C356.739 198.373 351.381 193 344.77 193C338.16 193 332.801 198.373 332.801 205C332.801 210.489 336.477 215.118 341.496 216.546C341.809 216.635 342.081 216.834 342.243 217.115L343.836 219.882C344.349 220.773 345.634 220.773 346.147 219.882L347.835 216.951Z" fill="white"/>
</g>
<ellipse cx="344.566" cy="204.796" rx="10.1961" ry="10.2222" fill="#FF4E00"/>
<path d="M346.275 201.754V205.557H347.697V209.36H348.646V199.852C347.337 199.852 346.275 200.917 346.275 201.754ZM343.904 203.18H342.956V199.852H342.007V203.18H341.059V199.852H340.11V203.18C340.11 204.231 340.959 205.082 342.007 205.082V209.36H342.956V205.082C344.003 205.082 344.852 204.231 344.852 203.18V199.852H343.904V203.18Z" fill="#FAFAFA"/>
<g filter="url(#filter4_d_698_7774)">
<path fill-rule="evenodd" clip-rule="evenodd" d="M333.871 175.951C334.024 175.685 334.275 175.492 334.566 175.396C339.334 173.816 342.776 169.311 342.776 164C342.776 157.373 337.417 152 330.806 152C324.196 152 318.837 157.373 318.837 164C318.837 169.489 322.513 174.118 327.533 175.546C327.845 175.635 328.117 175.834 328.279 176.115L329.872 178.882C330.385 179.773 331.67 179.773 332.183 178.882L333.871 175.951Z" fill="white"/>
</g>
<ellipse cx="330.602" cy="163.796" rx="10.1961" ry="10.2222" fill="#FF4E00"/>
<path d="M332.31 160.754V164.557H333.733V168.36H334.681V158.852C333.372 158.852 332.31 159.917 332.31 160.754ZM329.939 162.18H328.991V158.852H328.042V162.18H327.094V158.852H326.146V162.18C326.146 163.231 326.994 164.082 328.042 164.082V168.36H328.991V164.082C330.039 164.082 330.887 163.231 330.887 162.18V158.852H329.939V162.18Z" fill="#FAFAFA"/>
</g>
<defs>
<filter id="filter0_d_698_7774" x="31.6011" y="181.82" width="27.086" height="30.6978" filterUnits="userSpaceOnUse" color-interpolation-filters="sRGB">
<feFlood flood-opacity="0" result="BackgroundImageFix"/>
<feColorMatrix in="SourceAlpha" type="matrix" values="0 0 0 0 0 0 0 0 0 0 0 0 0 0 0 0 0 0 127 0" result="hardAlpha"/>
<feOffset dx="-0.393443" dy="0.393443"/>
<feGaussianBlur stdDeviation="0.786885"/>
<feComposite in2="hardAlpha" operator="out"/>
<feColorMatrix type="matrix" values="0 0 0 0 0 0 0 0 0 0 0 0 0 0 0 0 0 0 0.25 0"/>
<feBlend mode="normal" in2="BackgroundImageFix" result="effect1_dropShadow_698_7774"/>
<feBlend mode="normal" in="SourceGraphic" in2="effect1_dropShadow_698_7774" result="shape"/>
</filter>
<filter id="filter1_d_698_7774" x="33.5953" y="210.82" width="27.086" height="30.6978" filterUnits="userSpaceOnUse" color-interpolation-filters="sRGB">
<feFlood flood-opacity="0" result="BackgroundImageFix"/>
<feColorMatrix in="SourceAlpha" type="matrix" values="0 0 0 0 0 0 0 0 0 0 0 0 0 0 0 0 0 0 127 0" result="hardAlpha"/>
<feOffset dx="-0.393443" dy="0.393443"/>
<feGaussianBlur stdDeviation="0.786885"/>
<feComposite in2="hardAlpha" operator="out"/>
<feColorMatrix type="matrix" values="0 0 0 0 0 0 0 0 0 0 0 0 0 0 0 0 0 0 0.25 0"/>
<feBlend mode="normal" in2="BackgroundImageFix" result="effect1_dropShadow_698_7774"/>
<feBlend mode="normal" in="SourceGraphic" in2="effect1_dropShadow_698_7774" result="shape"/>
</filter>
<filter id="filter2_d_698_7774" x="43.5699" y="254.82" width="27.086" height="30.6978" filterUnits="userSpaceOnUse" color-interpolation-filters="sRGB">
<feFlood flood-opacity="0" result="BackgroundImageFix"/>
<feColorMatrix in="SourceAlpha" type="matrix" values="0 0 0 0 0 0 0 0 0 0 0 0 0 0 0 0 0 0 127 0" result="hardAlpha"/>
<feOffset dx="-0.393443" dy="0.393443"/>
<feGaussianBlur stdDeviation="0.786885"/>
<feComposite in2="hardAlpha" operator="out"/>
<feColorMatrix type="matrix" values="0 0 0 0 0 0 0 0 0 0 0 0 0 0 0 0 0 0 0.25 0"/>
<feBlend mode="normal" in2="BackgroundImageFix" result="effect1_dropShadow_698_7774"/>
<feBlend mode="normal" in="SourceGraphic" in2="effect1_dropShadow_698_7774" result="shape"/>
</filter>
<filter id="filter3_d_698_7774" x="330.834" y="191.82" width="27.086" height="30.6978" filterUnits="userSpaceOnUse" color-interpolation-filters="sRGB">
<feFlood flood-opacity="0" result="BackgroundImageFix"/>
<feColorMatrix in="SourceAlpha" type="matrix" values="0 0 0 0 0 0 0 0 0 0 0 0 0 0 0 0 0 0 127 0" result="hardAlpha"/>
<feOffset dx="-0.393443" dy="0.393443"/>
<feGaussianBlur stdDeviation="0.786885"/>
<feComposite in2="hardAlpha" operator="out"/>
<feColorMatrix type="matrix" values="0 0 0 0 0 0 0 0 0 0 0 0 0 0 0 0 0 0 0.25 0"/>
<feBlend mode="normal" in2="BackgroundImageFix" result="effect1_dropShadow_698_7774"/>
<feBlend mode="normal" in="SourceGraphic" in2="effect1_dropShadow_698_7774" result="shape"/>
</filter>
<filter id="filter4_d_698_7774" x="316.87" y="150.82" width="27.086" height="30.6978" filterUnits="userSpaceOnUse" color-interpolation-filters="sRGB">
<feFlood flood-opacity="0" result="BackgroundImageFix"/>
<feColorMatrix in="SourceAlpha" type="matrix" values="0 0 0 0 0 0 0 0 0 0 0 0 0 0 0 0 0 0 127 0" result="hardAlpha"/>
<feOffset dx="-0.393443" dy="0.393443"/>
<feGaussianBlur stdDeviation="0.786885"/>
<feComposite in2="hardAlpha" operator="out"/>
<feColorMatrix type="matrix" values="0 0 0 0 0 0 0 0 0 0 0 0 0 0 0 0 0 0 0.25 0"/>
<feBlend mode="normal" in2="BackgroundImageFix" result="effect1_dropShadow_698_7774"/>
<feBlend mode="normal" in="SourceGraphic" in2="effect1_dropShadow_698_7774" result="shape"/>
</filter>
<clipPath id="clip0_698_7774">
<rect width="562.368" height="590.51" fill="white" transform="translate(-135 -131)"/>
</clipPath>
</defs>
</svg>
