<svg width="389" height="413" viewBox="0 0 389 413" fill="none" xmlns="http://www.w3.org/2000/svg">
<g clip-path="url(#clip0_698_2187)">
<path d="M110.013 63.2451L103.387 56.6303C103.387 56.6303 -66.0633 203.102 57.001 339.179C57.001 339.179 129.893 421.392 295.556 342.959L291.77 333.509C291.77 333.509 424.518 264.96 355.034 114.35C342.842 87.9186 323.151 65.5603 298.226 50.4596C257.16 25.5877 187.695 3.46573 110.013 63.2451Z" fill="#FFFAF8" stroke="#605B53" stroke-width="0.5" stroke-miterlimit="10"/>
<path d="M198.052 283.425L207.519 274.921C207.519 274.921 212.252 270.196 219.825 272.086C227.399 273.976 289.877 286.26 289.877 286.26C289.877 286.26 359.929 236.176 319.223 139.789C278.518 43.4006 155.453 78.3649 155.453 78.3649L141.254 153.018C141.254 153.018 143.147 163.413 122.321 168.138L113.526 179.223C113.526 179.223 83.508 245.626 107.174 269.251C130.84 292.875 198.052 283.425 198.052 283.425Z" fill="#B7E589" stroke="#605B53" stroke-width="0.5" stroke-miterlimit="10"/>
<path d="M147.614 174.28L206.06 257.543L293.19 276.348L299.002 273.985C299.002 273.985 350.935 211.144 314.963 141.216C278.99 71.2871 206.098 75.067 206.098 75.067C206.098 75.067 176.932 76.749 170.211 81.1054L165.392 85.4618L147.614 174.29V174.28Z" fill="#B7E589"/>
<path d="M157.346 50.0155L164.644 72.1847C164.644 72.1847 267.157 50.0155 311.649 114.274C356.142 178.533 328.689 246.571 328.689 246.571C328.689 246.571 313.543 282.48 297.45 289.095L305.023 307.995C305.023 307.995 411.417 233.531 337.067 99.9104C337.067 99.9104 298.396 12.2163 157.346 50.0155Z" fill="#FFF5F1" stroke="#605B53" stroke-width="0.5" stroke-miterlimit="10"/>
<path d="M136.122 45.9426L155.453 78.3649" stroke="#605B53" stroke-width="0.5" stroke-miterlimit="10"/>
<path d="M291.771 333.509L286.091 316.5L237.812 326.894H234.025L206.572 332.564L203.297 333.509C203.297 333.509 178.173 342.014 129.894 327.839C81.6145 313.665 83.0723 307.995 83.0723 307.995L79.7212 309.885C79.7212 309.885 36.1754 277.756 55.1083 213.497C74.0413 149.238 95.1232 108.529 125.293 72.1846L123.267 68.915L148.827 52.8503L157.346 67.6487L155.453 75.2747C155.453 75.2747 138.413 90.6495 140.307 96.3194L147.88 100.099L143.147 129.394L118.534 166.248H112.854L109.228 174.28C109.228 174.28 71.2014 253.186 108.121 279.645C145.04 306.105 199.946 290.04 199.946 290.04L199.482 286.26L240.651 278.7L283.62 286.26L307.002 323.757" fill="#FFA47C"/>
<path d="M291.771 333.509L286.091 316.5L237.812 326.894H234.025L206.572 332.564L203.297 333.509C203.297 333.509 178.173 342.014 129.894 327.839C81.6145 313.665 83.0723 307.995 83.0723 307.995L79.7212 309.885C79.7212 309.885 36.1754 277.756 55.1083 213.497C74.0413 149.238 95.1232 108.529 125.293 72.1846L123.267 68.915L148.827 52.8503L157.346 67.6487L155.453 75.2747C155.453 75.2747 138.413 90.6495 140.307 96.3194L147.88 100.099L143.147 129.394L118.534 166.248H112.854L109.228 174.28C109.228 174.28 71.2014 253.186 108.121 279.645C145.04 306.105 199.946 290.04 199.946 290.04L199.482 286.26L240.651 278.7L283.62 286.26L307.002 323.757" stroke="#605B53" stroke-width="0.5" stroke-miterlimit="10"/>
<path d="M282.303 321.225L287.69 336.042C287.69 336.042 203.732 388.318 110.96 356.189C18.1885 324.06 23.8684 224.837 23.8684 224.837C23.8684 224.837 27.655 147.348 103.387 66.0801L114.747 75.5299C114.747 75.5299 1.14881 229.562 56.0544 292.875C56.0544 292.875 68.3609 306.105 77.8273 316.5L82.5606 314.61C82.5606 314.61 109.777 341.948 193.678 341.504C193.678 341.504 266.21 332.564 282.303 321.225Z" fill="#FFC8AF" stroke="#605B53" stroke-width="0.5" stroke-miterlimit="10"/>
<path d="M-44.7637 383.357V407.454L50.3367 462.499H220.288L248.224 451.632L269.05 434.622L273.367 428.574C273.367 428.574 221.718 458.247 120.427 451.632C19.1351 445.017 -44.7637 383.357 -44.7637 383.357Z" fill="#E0EECE" stroke="#605B53" stroke-width="0.5" stroke-miterlimit="10"/>
<path d="M451.366 383.357L437.734 389.641C437.734 389.641 417.675 395.878 413.888 398.713C410.101 401.548 388.329 414.778 388.329 414.778L307.002 462.499L357.061 462.386L451.763 396.454L451.366 383.357Z" fill="#AFD1F2" stroke="#605B53" stroke-width="0.5" stroke-miterlimit="10"/>
<path d="M210.358 258.327C226.621 233.861 224.34 201.571 203.457 181.944C188.528 167.921 167.702 163.763 148.457 168.979L136.33 244.729L210.358 258.327Z" fill="#FAFAFA"/>
<path d="M138.523 242.582L188.349 250.932L196.749 200.98L146.924 192.63L138.523 242.582Z" fill="#B7E589"/>
<path d="M137.543 251.306C141.987 251.306 145.589 247.71 145.589 243.274C145.589 238.837 141.987 235.241 137.543 235.241C133.099 235.241 129.496 238.837 129.496 243.274C129.496 247.71 133.099 251.306 137.543 251.306Z" fill="#FAFAFA"/>
<path d="M182.774 248.678C182.471 249.047 182.206 249.444 181.979 249.85L188.368 250.918L189.23 245.768C186.825 245.692 184.421 246.684 182.774 248.678Z" fill="#FAFAFA"/>
<path d="M194.152 205.975C194.654 206.39 195.203 206.721 195.761 206.995L196.774 200.957L191.236 200.031C191.312 202.251 192.297 204.444 194.152 205.965V205.975Z" fill="#FAFAFA"/>
<path d="M152.149 193.482L146.952 192.613L146.138 197.479C148.116 197.243 150.009 196.279 151.373 194.626C151.676 194.267 151.922 193.879 152.149 193.482Z" fill="#FAFAFA"/>
<path d="M164.531 228.91C167.668 228.91 170.211 226.371 170.211 223.24C170.211 220.108 167.668 217.57 164.531 217.57C161.395 217.57 158.852 220.108 158.852 223.24C158.852 226.371 161.395 228.91 164.531 228.91Z" fill="#FAFAFA"/>
<path d="M141.727 253.659L182.433 262.164V257.911L197.579 261.219L186.219 274.448C186.219 274.448 185.453 275.866 182.906 275.866C181.959 275.866 179.943 275.214 178.173 274.921L131.787 266.416L133.68 256.966C133.68 256.966 138.414 256.966 141.727 253.659Z" fill="#FFF5F1" stroke="#605B53" stroke-width="0.5" stroke-miterlimit="10"/>
<path d="M138.414 193.652L140.307 182.312L122.321 189.872L113.801 239.011L123.267 240.901C123.267 240.901 125.161 238.066 128.947 237.121L136.52 193.652H138.414Z" fill="#FFF5F1" stroke="#605B53" stroke-width="0.5" stroke-miterlimit="10"/>
</g>
<defs>
<clipPath id="clip0_698_2187">
<rect width="497" height="563" fill="white" transform="translate(-45 -100)"/>
</clipPath>
</defs>
</svg>
