<svg width="349" height="122" viewBox="0 0 349 122" fill="none" xmlns="http://www.w3.org/2000/svg">
<g clip-path="url(#clip0_441_4374)">
<rect width="361" height="135" rx="10" fill="url(#paint0_linear_441_4374)"/>
<g style="mix-blend-mode:screen" opacity="0.15" clip-path="url(#clip1_441_4374)">
<path d="M235.979 45.8824C236.129 45.3177 236.693 44.8213 237.239 44.7758L250.89 43.5781L253 35.695L231.259 37.5986C229.026 37.799 226.68 39.9758 226.043 42.4304L224.028 49.9674C222.582 55.373 225.652 59.3806 230.886 58.9252L235.047 58.5608C235.592 58.5153 235.911 58.9297 235.761 59.4944L234.283 65.0185C234.133 65.5832 233.569 66.0795 233.023 66.1251L213.146 67.8647L212.128 62.1039L202.792 83.1526L194.42 86.855L32.659 101.027L51.79 29.5061L31.4539 31.3277L37.0427 36.3918L12 130L200.809 96.3821L204.288 115.837L213.624 94.7882L234.128 85.7165L215.552 81.5541L214.474 75.4517L239.012 73.3022C241.245 73.1019 243.591 70.925 244.228 68.4704L246.229 60.938C247.675 55.5324 244.605 51.5203 239.376 51.9757L235.215 52.34C234.669 52.3856 234.351 51.9711 234.501 51.4064L235.979 45.8824Z" fill="white"/>
<path d="M221.486 46.1556L223.578 38.2726L203.842 40.0031C201.61 40.2035 199.263 42.3803 198.626 44.835L191.969 69.7228L168.045 71.8176C167.499 71.8632 167.181 71.4487 167.331 70.884L169.082 64.3399L187.322 62.7414L190.537 50.7279C191.983 45.3222 188.913 41.3101 183.679 41.7655L167.813 43.1545C165.58 43.3549 163.234 45.5317 162.597 47.9864L156.449 70.966C156.276 71.6172 156.167 72.2502 156.122 72.8559L150.251 73.3705C149.705 73.4161 149.387 73.0017 149.537 72.437L163.693 19.4827L145.431 21.1221L151.019 26.1862L145.967 45.0763L131.761 46.3196C129.528 46.52 127.182 48.6968 126.545 51.1514L120.397 74.1311C120.224 74.7823 120.115 75.4153 120.07 76.021L114.199 76.5356C113.653 76.5811 113.335 76.1667 113.485 75.602L118.451 57.0443C119.897 51.6387 116.827 47.6266 111.593 48.082L91.7073 49.8262L83.8493 79.1951L78.1605 79.6915C77.6148 79.7371 77.2965 79.3227 77.4466 78.758L82.4123 60.2003C83.8584 54.7946 80.7889 50.7825 75.5548 51.2379L55.6689 52.9821L53.5589 60.8652L70.7937 59.3532C71.3394 59.3077 71.6577 59.7221 71.5076 60.2868L69.8523 66.4712L55.7735 67.7053C53.4862 67.9057 51.1169 69.9869 50.4849 72.3504L48.3203 80.4384C46.8742 85.844 49.9437 89.8561 55.1778 89.4007L65.8415 88.4671C66.9829 88.367 68.1471 87.6292 68.9247 86.6273C69.7114 87.5199 71.0756 88.0118 72.79 87.8615L79.5247 87.2694L82.7489 83.3393L81.7484 87.0736L92.8714 86.0991L100.729 56.7301L106.841 56.1927C107.387 56.1472 107.705 56.5616 107.555 57.1263L102.589 75.684C101.143 81.0896 104.213 85.1017 109.447 84.6463L115.563 84.1089L120.233 78.4119C120.929 81.4858 123.548 83.4076 127.259 83.0843L137.923 82.1507C139.064 82.0505 140.228 81.3128 141.006 80.3109C141.793 81.2035 143.157 81.6953 144.871 81.545L151.606 80.953L156.276 75.2559C156.972 78.3299 159.591 80.2517 163.302 79.9283L187.644 77.7971L190.868 73.8669L189.868 77.6012L200.991 76.6267L208.576 48.2778C208.726 47.7131 209.29 47.2167 209.836 47.1712L221.495 46.1511L221.486 46.1556ZM172.524 51.4429C172.674 50.8782 173.238 50.3818 173.784 50.3362L178.909 49.8854C179.454 49.8398 179.773 50.2543 179.623 50.819L177.872 57.3631L170.773 57.987L172.524 51.4429ZM66.3054 79.7371C66.1553 80.3018 65.5914 80.7982 65.0457 80.8437L59.9208 81.2945C59.3751 81.3401 59.0568 80.9257 59.2068 80.361L60.7802 74.4817C60.9303 73.917 61.4942 73.4206 62.0399 73.3751L68.1516 72.8377L66.3054 79.7416V79.7371ZM138.382 73.4206C138.232 73.9853 137.668 74.4817 137.122 74.5273L131.997 74.9781C131.452 75.0236 131.133 74.6092 131.284 74.0445L136.486 54.6034C136.636 54.0387 137.2 53.5423 137.745 53.4967L143.857 52.9594L138.382 73.4206Z" fill="white"/>
<path d="M61.8943 36.8336L64.55 33.6458C66.3871 35.1669 68.3153 36.1323 70.6526 36.1323C72.4898 36.1323 73.6039 35.4037 73.6039 34.2014V34.1422C73.6039 33.0037 72.9036 32.4162 69.4885 31.5418C65.3731 30.4899 62.7174 29.3468 62.7174 25.2846V25.2254C62.7174 21.5139 65.6959 19.0547 69.8705 19.0547C72.849 19.0547 75.3865 19.9883 77.4601 21.655L75.1228 25.0478C73.3129 23.7909 71.5303 23.0304 69.8114 23.0304C68.0924 23.0304 67.1829 23.8182 67.1829 24.8155V24.8747C67.1829 26.2182 68.0606 26.6599 71.5894 27.5662C75.7367 28.65 78.0695 30.1392 78.0695 33.705V33.7642C78.0695 37.8264 74.9727 40.108 70.5662 40.108C67.4694 40.108 64.3499 39.0241 61.8943 36.8336Z" fill="white"/>
<path d="M79.3337 36.8336L81.9893 33.6458C83.8265 35.1669 85.7546 36.1323 88.092 36.1323C89.9292 36.1323 91.0387 35.4037 91.0387 34.2014V34.1422C91.0387 33.0037 90.3384 32.4162 86.9233 31.5418C82.8079 30.4899 80.1522 29.3468 80.1522 25.2846V25.2254C80.1522 21.5139 83.1308 19.0547 87.3053 19.0547C90.2839 19.0547 92.8213 19.9883 94.8949 21.655L92.5576 25.0478C90.7477 23.7909 88.9651 23.0304 87.2462 23.0304C85.5272 23.0304 84.6178 23.8182 84.6178 24.8155V24.8747C84.6178 26.2182 85.4954 26.6599 89.0242 27.5662C93.1715 28.65 95.5043 30.1392 95.5043 33.705V33.7642C95.5043 37.8264 92.4121 40.108 88.001 40.108C84.9043 40.108 81.7847 39.0241 79.3291 36.8336H79.3337Z" fill="white"/>
<path d="M97.3188 29.6428V29.5836C97.3188 23.7635 101.844 19 108.033 19C111.711 19 113.931 19.9928 116.059 21.8053L113.226 25.2254C111.648 23.9092 110.247 23.1487 107.883 23.1487C104.613 23.1487 102.016 26.0451 102.016 29.5244V29.5836C102.016 33.327 104.586 36.0731 108.205 36.0731C109.838 36.0731 111.302 35.6632 112.439 34.8435V31.9198H107.914V28.0306H116.791V36.9201C114.69 38.7053 111.798 40.1671 108.06 40.1671C101.693 40.1671 97.3188 35.6951 97.3188 29.6428Z" fill="white"/>
<path d="M57.547 85.3521C54.6594 85.6072 52.9632 83.3894 53.7635 80.4065L55.6325 73.4206C55.8281 72.6874 56.2919 71.9997 56.8876 71.4806L52.5085 69.2263C51.549 70.0688 50.7986 71.18 50.4849 72.3595L48.3203 80.4475C46.8742 85.8531 49.9437 89.8652 55.1778 89.4098L65.8415 88.4762C66.9829 88.376 68.1471 87.6383 68.9247 86.6364C69.7114 87.529 71.0756 88.0208 72.79 87.8705L79.3838 87.2922L77.8467 83.5761L57.5561 85.3521H57.547Z" fill="#D5D5D6"/>
<path d="M96.2137 53.2827L91.7072 49.8262L81.7393 87.0827L92.8623 86.1082L88.3558 82.6516L96.2137 53.2827Z" fill="#D5D5D6"/>
<path d="M145.431 21.1221L151.024 26.1862L145.967 45.0717L150.483 48.5282L156.999 24.1778L145.431 21.1221Z" fill="#D5D5D6"/>
<path d="M182.592 60.0547L164.362 61.6532L169.073 64.3446L187.312 62.7461L182.592 60.0547Z" fill="#D5D5D6"/>
<path d="M200.632 41.5744C199.686 42.4488 198.94 43.61 198.622 44.8351L189.854 77.6059L200.978 76.6313L196.471 73.1748L203.592 46.5565C203.788 45.8005 204.252 45.0901 204.838 44.5527L200.632 41.5698V41.5744Z" fill="#D5D5D6"/>
<path d="M206.835 43.5918C206.139 43.6556 205.429 44.0199 204.843 44.5573L209.049 47.5402C209.277 47.3398 209.554 47.2032 209.827 47.1804L221.486 46.1603L217.953 42.6218L206.835 43.5964V43.5918Z" fill="#D5D5D6"/>
<path d="M114.017 80.402L111.816 80.5933C108.928 80.8483 107.232 78.6305 108.033 75.6476L112.998 57.0899C113.799 54.1025 112.103 51.8892 109.215 52.1443L96.2139 53.2828L100.72 56.7393L106.832 56.2019C107.378 56.1518 107.696 56.5708 107.546 57.1355L102.58 75.6932C101.134 81.0988 104.204 85.1109 109.438 84.6555L115.554 84.1181L114.017 80.402Z" fill="#D5D5D6"/>
<path d="M74.5726 69.1672L58.9067 70.5379C58.1973 70.6017 57.4788 70.9523 56.8831 71.4715L61.2622 73.7257C61.4896 73.5254 61.767 73.3887 62.0398 73.366L68.1516 72.8286L66.3053 79.7325C66.228 80.0149 66.0507 80.279 65.8233 80.4794L69.102 84.3321C69.9023 84.2638 70.7254 83.5351 70.9483 82.7108L74.5726 69.1626V69.1672Z" fill="#D5D5D6"/>
<path d="M73.1765 55.3003L59.2068 56.5253L55.6735 52.9868L53.5635 60.8698L70.7982 59.3579C71.3439 59.3124 71.6622 59.7268 71.5122 60.2915L69.8569 66.4759L74.5771 69.1673L76.9645 60.2459C77.7649 57.2585 76.0687 55.0452 73.1811 55.3003H73.1765Z" fill="#D5D5D6"/>
<path d="M181.292 45.8277L170.796 46.7476C170.1 46.8114 169.391 47.1757 168.804 47.7131L173.011 50.696C173.238 50.4956 173.516 50.359 173.788 50.3362L178.913 49.8853C179.459 49.8398 179.777 50.2542 179.627 50.8189L177.877 57.3631L182.597 60.0545L185.08 50.7779C185.88 47.7905 184.184 45.5772 181.296 45.8323L181.292 45.8277Z" fill="#D5D5D6"/>
<path d="M247.357 40.0396L234.251 41.1872C233.555 41.2509 232.846 41.6152 232.259 42.1526L236.466 45.1355C236.693 44.9351 236.97 44.7985 237.243 44.7757L250.895 43.578L247.361 40.0396H247.357Z" fill="#D5D5D6"/>
<path d="M226.038 42.4352C226.357 41.2056 227.102 40.0488 228.048 39.1745L232.255 42.1574C231.668 42.6947 231.204 43.4052 231.009 44.1611L229.262 50.6916C228.467 53.6745 230.158 55.8923 233.05 55.6373L237.211 55.273C240.099 55.018 241.795 57.2358 240.995 60.2187L239.253 66.7446C239.057 67.5006 238.594 68.211 238.007 68.7484L233.796 65.7655C234.023 65.5651 234.205 65.301 234.278 65.0186L235.756 59.4946C235.906 58.9299 235.588 58.5109 235.042 58.561L230.881 58.9253C225.652 59.3853 222.582 55.3732 224.024 49.9675L226.038 42.4306C226.357 41.201 227.102 40.0443 228.048 39.1699" fill="#D5D5D6"/>
<path d="M238.007 68.7483C237.42 69.2857 236.707 69.65 236.015 69.7138L217.385 71.3441L213.137 67.8694L214.474 75.4473L239.012 73.2978C240.126 73.1976 241.272 72.601 242.218 71.7267L238.007 68.7438V68.7483Z" fill="#D5D5D6"/>
<path d="M150.055 77.2462L129.624 79.0359C126.736 79.2909 125.04 77.0731 125.84 74.0902L131.515 52.8775C131.711 52.1216 132.175 51.4111 132.761 50.8738L128.555 47.8909C127.609 48.7652 126.863 49.9265 126.545 51.1516L120.397 74.1312C118.951 79.5368 122.02 83.549 127.254 83.0935L137.918 82.16C139.06 82.0598 140.224 81.322 141.001 80.3201C141.788 81.2127 143.152 81.7046 144.867 81.5543L151.601 80.9623L150.064 77.2462H150.055Z" fill="#D5D5D6"/>
<path d="M186.094 74.0902L165.662 75.8799C162.775 76.1349 161.078 73.9171 161.879 70.9342L167.554 49.7215C167.75 48.9656 168.213 48.2551 168.8 47.7178L164.594 44.7349C163.648 45.6092 162.902 46.7705 162.584 47.9956L156.436 70.9752C154.989 76.3808 158.059 80.3929 163.293 79.9375L187.635 77.8063L186.098 74.0902H186.094Z" fill="#D5D5D6"/>
<path d="M200.809 96.3822L191.837 94.3694L20.5719 122.072L43.9684 34.6296L31.4584 31.3279L37.0472 36.3874L12 130L200.809 96.3822Z" fill="#D5D5D6"/>
<path d="M134.758 49.9082C134.062 49.972 133.353 50.3363 132.766 50.8736L136.972 53.8565C137.2 53.6562 137.477 53.5195 137.75 53.4968L143.862 52.9594L138.387 73.4207C138.309 73.703 138.132 73.9671 137.905 74.1675L141.183 78.0202C141.984 77.9519 142.807 77.2233 143.03 76.399L150.487 48.5283L134.758 49.9082Z" fill="#D5D5D6"/>
<path d="M213.201 83.9314L210.868 70.7156L204.52 85.0198L194.77 89.337L28.6572 108.04L34.8417 113.651L193.57 91.8554L203.21 94.014L205.543 107.23L211.891 92.9256L225.829 86.7594L213.201 83.9314Z" fill="#FAC109"/>
<path d="M209.449 80.4429L211.036 86.1172L216.439 87.9388L210.295 91.2132L206.962 97.5023L205.375 91.828L199.972 90.0063L206.121 86.732L209.449 80.4429Z" fill="#004537"/>
</g>
</g>
<defs>
<linearGradient id="paint0_linear_441_4374" x1="180.5" y1="61.9368" x2="180.5" y2="195.453" gradientUnits="userSpaceOnUse">
<stop stop-color="#FF7C42"/>
<stop offset="1" stop-color="#FF4E00"/>
</linearGradient>
<clipPath id="clip0_441_4374">
<rect width="349" height="122" rx="10" fill="white"/>
</clipPath>
<clipPath id="clip1_441_4374">
<rect width="241" height="111" fill="white" transform="translate(12 19)"/>
</clipPath>
</defs>
</svg>
