<svg width="894" height="838" viewBox="0 0 894 838" fill="none" xmlns="http://www.w3.org/2000/svg">
<g clip-path="url(#clip0_1117_2659)">
<path d="M562.163 200.731L626.462 216.238L663.969 282.492L673.953 286.073L708.621 282.492L640.75 203.704L553.233 178.635L547.875 167.891L503.223 121.334L481.79 117.753L462.144 212.657L404.525 201.913L318.044 207.285C318.044 207.285 283.555 212.657 254.978 241.307C226.401 269.958 221.043 300.399 221.043 300.399V403.056L260.336 531.392L263.908 533.182L313.918 576.158L394.291 622.715C394.291 622.715 406.794 630.378 423.761 627.442L481.808 622.715C481.808 622.715 519.316 622.177 540.748 600.063L610.405 522.438C610.405 522.438 626.48 508.113 626.48 477.672L621.121 338.002C621.121 338.002 622.907 320.096 612.191 303.98L588.972 250.261L556.823 234.968L562.181 200.731H562.163Z" fill="#FCDED0" stroke="#605B53" stroke-width="0.5" stroke-miterlimit="10"/>
<path d="M290.682 312.933C290.682 312.933 296.04 286.073 321.045 282.492L397.845 277.12L465.716 289.655L474.646 298.608L551.447 293.236L556.805 456.185C556.805 456.185 556.805 463.347 549.661 470.51L494.293 527.81C494.293 527.81 488.935 533.182 476.432 534.973L331.761 543.926H324.01L321.045 465.138L313.9 456.185L290.682 389.555V312.933Z" fill="#FFFAF8" stroke="#605B53" stroke-width="0.5" stroke-miterlimit="10"/>
<path d="M394.274 293.236L458.572 305.77L469.289 316.514L537.159 311.142L540.731 456.184L478.219 518.857L340.692 526.02L337.12 457.975L328.19 449.022L308.543 388.14V319.397C308.543 319.397 308.543 305.269 320.51 299.951C322.564 299.038 324.778 298.59 327.011 298.429L394.274 293.236Z" fill="#B7E589" stroke="#605B53" stroke-width="0.5" stroke-miterlimit="10"/>
<path d="M471.074 219.82L403.204 207.285H389.737L308.542 213.552C308.542 213.552 269.249 226.982 256.746 244.889C256.746 244.889 224.597 282.492 226.383 303.98L226.312 400.12L254.96 502.741L322.831 560.042L348.693 565.271V578.969H383.753L385.343 590.501H436.674L437.139 574.385H462.144V583.338H497.865L515.726 574.385L587.168 492.015L581.81 364.88L553.858 366.742L556.805 456.203C556.805 456.203 555.019 465.156 549.661 470.528L494.293 527.828C494.293 527.828 485.363 534.991 476.432 534.991L331.761 543.944H324.01L321.045 465.156L313.9 456.203L290.682 389.573V312.951C290.682 312.951 296.04 286.091 321.045 282.51L397.845 277.138L465.716 289.673L474.646 298.626L569.308 291.463L501.437 228.791C501.437 228.791 494.293 219.838 481.79 221.628L471.074 219.838V219.82Z" fill="#FFA47C" stroke="#605B53" stroke-width="0.5" stroke-miterlimit="10"/>
<path d="M531.801 237.726L528.229 244.889L571.094 286.073L596.099 284.283L588.955 264.586C588.955 264.586 585.383 257.423 580.024 257.423C574.666 257.423 531.801 237.726 531.801 237.726Z" stroke="#605B53" stroke-width="0.5" stroke-miterlimit="10"/>
<path d="M458.571 209.076L478.022 117.753L347.836 90.8931L345.639 117.753L353.194 119.543L345.639 121.155C345.639 121.155 267.463 123.125 201.378 184.007C135.294 244.888 133.508 332.63 133.508 332.63C133.508 332.63 133.508 370.234 137.08 388.14C140.652 406.046 172.801 524.229 172.801 524.229L256.746 531.391L217.453 404.256V298.608C217.453 298.608 226.383 262.795 251.388 239.517C276.393 216.238 299.612 207.285 315.686 203.704L403.203 198.332L458.571 209.076Z" fill="#FDFEFD" stroke="#605B53" stroke-width="0.5" stroke-miterlimit="10"/>
<path d="M448.909 837.144H407.937C407.937 837.144 388.915 810.732 367.482 792.825C367.482 792.825 354.98 782.941 367.482 765.5L448.909 837.144Z" fill="#CBE6BD" stroke="#605B53" stroke-width="0.5" stroke-miterlimit="10"/>
<path d="M662.576 0.465576H893.336V248.076C893.336 248.076 871.153 237.726 860.436 218.029L808.64 133.869L678.258 13.8954C678.258 13.8954 677.24 12.1048 662.576 0.465576Z" fill="#F0EEEB" stroke="#605B53" stroke-width="0.5" stroke-miterlimit="10"/>
<path d="M844.648 62.0458L844.362 26.4299H888.46V62.0458L893.336 64.9646V134.567L866.277 124.289L826.501 137.45L805.068 74.7773L844.648 62.0458Z" fill="#F9F7F3" stroke="#605B53" stroke-width="0.5" stroke-miterlimit="10"/>
<path d="M580.024 785.663H595.991L657.45 837.144H543.07L580.024 785.663Z" fill="#F0EEEB" stroke="#605B53" stroke-width="0.5" stroke-miterlimit="10"/>
<path d="M751.486 585.111L758.631 577.948L768.454 587.797L776.938 577.948L765.775 568.995L810.426 518.857L819.357 527.81L828.287 517.066L819.357 508.113L831.859 493.788H834.985V496.528L855.078 499.16L858.65 497.369L867.58 499.16L880.083 506.323L893.336 510.226V574.403L844.362 631.668L858.65 644.202L840.79 665.69L837.217 662.109L751.486 585.111Z" fill="#F0EEEB" stroke="#605B53" stroke-width="0.5" stroke-miterlimit="10"/>
<path d="M893.336 830.536L835.432 782.082V769.69L893.336 699.712V830.536Z" fill="#F0EEEB" stroke="#605B53" stroke-width="0.5" stroke-miterlimit="10"/>
<path d="M893.336 431.205H885.048L833.646 490.207H837.218L837.253 493.788L855.078 495.579L860.169 493.788L869.367 495.579L881.869 502.741L893.336 504.657V431.205Z" fill="#F0EEEB" stroke="#605B53" stroke-width="0.5" stroke-miterlimit="10"/>
<path d="M26.3442 96.265L10.2696 151.775L0.446289 148.534V90.8931L26.3442 96.265Z" fill="#D4E4BE" stroke="#605B53" stroke-width="0.5" stroke-miterlimit="10"/>
<path d="M29.9166 98.0557L13.3955 151.775L44.2051 160.728L58.4936 107.009L29.9166 98.0557Z" fill="#D4E4BE" stroke="#605B53" stroke-width="0.5" stroke-miterlimit="10"/>
<path d="M837.217 350.537L863.49 377.289C863.49 377.289 867.58 382.768 862.222 388.14L846.148 406.047C846.148 406.047 839.128 416.79 839.968 406.047C839.968 406.047 842.575 364.933 833.645 355.049C833.645 355.049 831.859 350.537 837.217 350.537Z" fill="#CBE6BD" stroke="#605B53" stroke-width="0.5" stroke-miterlimit="10"/>
<path d="M893.336 291.159V273.754C893.336 273.754 885.442 273.539 880.083 268.167C880.083 268.167 874.725 268.167 878.297 273.539L893.336 291.159Z" fill="#AFD1F2" stroke="#605B53" stroke-width="0.5" stroke-miterlimit="10"/>
<path d="M328.725 423.022C367.59 438.439 411.884 425.69 433.049 390.772C448.177 365.811 447.82 335.549 434.871 310.283L325.813 315.834L328.725 423.04V423.022Z" fill="#FAFAFA"/>
<path d="M329.551 318.255L332.62 390.173L404.535 387.088L401.466 315.17L329.551 318.255Z" fill="#B7E589"/>
<path d="M328.19 328.547C334.503 328.547 339.62 323.416 339.62 317.087C339.62 310.758 334.503 305.627 328.19 305.627C321.877 305.627 316.759 310.758 316.759 317.087C316.759 323.416 321.877 328.547 328.19 328.547Z" fill="#FAFAFA"/>
<path d="M334.012 381.729C333.405 381.407 332.779 381.174 332.154 380.959L332.547 390.181L339.977 389.859C339.37 386.493 337.28 383.431 334.03 381.712L334.012 381.729Z" fill="#FAFAFA"/>
<path d="M396.827 384.917C396.399 385.74 396.095 386.6 395.881 387.459L404.579 387.083L404.24 379.097C401.168 379.849 398.417 381.873 396.827 384.917Z" fill="#FAFAFA"/>
<path d="M401.828 322.692L401.507 315.189L394.487 315.493C395.398 318.179 397.291 320.525 400.006 321.94C400.596 322.244 401.203 322.495 401.828 322.692Z" fill="#FAFAFA"/>
<path d="M364.053 356.857C368.512 356.857 372.127 353.234 372.127 348.764C372.127 344.294 368.512 340.67 364.053 340.67C359.595 340.67 355.98 344.294 355.98 348.764C355.98 353.234 359.595 356.857 364.053 356.857Z" fill="#FAFAFA"/>
</g>
<g filter="url(#filter0_d_1117_2659)">
<path fill-rule="evenodd" clip-rule="evenodd" d="M281.312 209.873C281.701 209.2 282.338 208.71 283.077 208.466C295.23 204.45 304 192.999 304 179.5C304 162.655 290.345 149 273.5 149C256.655 149 243 162.655 243 179.5C243 193.454 252.37 205.219 265.162 208.846C265.956 209.071 266.646 209.577 267.059 210.292L271.13 217.343C272.434 219.602 275.695 219.602 277 217.343L281.312 209.873Z" fill="white"/>
</g>
<circle cx="272.981" cy="178.981" r="25.9815" fill="#FF4E00"/>
<path d="M277.333 171.25V180.917H280.958V190.583H283.375V166.417C280.04 166.417 277.333 169.123 277.333 171.25ZM271.292 174.875H268.875V166.417H266.458V174.875H264.042V166.417H261.625V174.875C261.625 177.545 263.788 179.708 266.458 179.708V190.583H268.875V179.708C271.545 179.708 273.708 177.545 273.708 174.875V166.417H271.292V174.875Z" fill="#FAFAFA"/>
<path d="M251.828 234.078C252.87 234.078 253.768 234.182 254.523 234.391C255.284 234.599 255.87 234.906 256.281 235.312C256.698 235.714 256.906 236.198 256.906 236.766C256.906 237.318 256.698 237.794 256.281 238.195C255.87 238.596 255.281 238.904 254.516 239.117C253.755 239.331 252.859 239.438 251.828 239.438C250.807 239.438 249.917 239.331 249.156 239.117C248.396 238.904 247.807 238.596 247.391 238.195C246.974 237.794 246.766 237.318 246.766 236.766C246.766 236.203 246.971 235.719 247.383 235.312C247.794 234.906 248.38 234.599 249.141 234.391C249.906 234.182 250.802 234.078 251.828 234.078ZM251.828 235.555C251.172 235.555 250.615 235.602 250.156 235.695C249.703 235.784 249.354 235.919 249.109 236.102C248.87 236.279 248.75 236.5 248.75 236.766C248.75 237.021 248.87 237.234 249.109 237.406C249.354 237.578 249.703 237.708 250.156 237.797C250.615 237.88 251.172 237.922 251.828 237.922C252.49 237.922 253.049 237.88 253.508 237.797C253.966 237.708 254.315 237.576 254.555 237.398C254.799 237.221 254.922 237.01 254.922 236.766C254.922 236.5 254.799 236.279 254.555 236.102C254.315 235.919 253.966 235.784 253.508 235.695C253.049 235.602 252.49 235.555 251.828 235.555ZM255.984 227.422H246.906V225.852H255.984V227.422ZM258.367 233.18H245.453V231.57H258.367V233.18ZM252.266 232H250.289V229.078H252.266V232ZM256.836 227.016C256.836 227.786 256.812 228.453 256.766 229.016C256.724 229.573 256.612 230.177 256.43 230.828L254.469 230.633C254.635 229.977 254.737 229.396 254.773 228.891C254.815 228.385 254.839 227.76 254.844 227.016V225.852H256.836V227.016ZM272.392 234.242H259.392V232.672H272.392V234.242ZM270.822 229.336H262.994V230.922H261.009V227.914H268.822V227.07H260.986V225.531H270.822V229.336ZM271.087 231.727H261.009V230.219H271.087V231.727ZM265.869 234.891C267.468 234.891 268.702 235.086 269.572 235.477C270.447 235.867 270.884 236.435 270.884 237.18C270.884 237.664 270.686 238.076 270.291 238.414C269.895 238.758 269.324 239.016 268.58 239.188C267.835 239.365 266.931 239.456 265.869 239.461C264.796 239.456 263.882 239.365 263.127 239.188C262.371 239.016 261.798 238.758 261.408 238.414C261.017 238.076 260.822 237.664 260.822 237.18C260.822 236.68 261.017 236.26 261.408 235.922C261.798 235.583 262.371 235.328 263.127 235.156C263.882 234.979 264.796 234.891 265.869 234.891ZM265.869 236.328C265.171 236.328 264.603 236.359 264.166 236.422C263.728 236.479 263.4 236.573 263.181 236.703C262.962 236.828 262.853 236.987 262.853 237.18C262.853 237.362 262.96 237.516 263.173 237.641C263.392 237.76 263.72 237.852 264.158 237.914C264.601 237.971 265.171 238 265.869 238C266.561 238 267.124 237.971 267.556 237.914C267.994 237.852 268.319 237.76 268.533 237.641C268.746 237.516 268.853 237.362 268.853 237.18C268.853 236.987 268.744 236.828 268.525 236.703C268.311 236.573 267.986 236.479 267.548 236.422C267.116 236.359 266.556 236.328 265.869 236.328ZM264.712 233.742H262.752V230.992H264.712V233.742ZM269.111 233.742H267.189V230.992H269.111V233.742ZM278.183 227.258C278.183 228.221 278.037 229.117 277.745 229.945C277.459 230.773 277.021 231.495 276.433 232.109C275.844 232.719 275.115 233.174 274.245 233.477L273.175 231.914C273.935 231.654 274.568 231.286 275.073 230.812C275.579 230.333 275.951 229.789 276.191 229.18C276.435 228.57 276.558 227.93 276.558 227.258V225.969H278.183V227.258ZM278.558 227.453C278.558 228.047 278.675 228.612 278.909 229.148C279.149 229.68 279.511 230.154 279.995 230.57C280.485 230.982 281.092 231.302 281.816 231.531L280.753 233.078C279.925 232.797 279.224 232.38 278.652 231.828C278.079 231.276 277.652 230.628 277.37 229.883C277.089 229.133 276.948 228.323 276.948 227.453V225.969H278.558V227.453ZM284.659 233.648H282.667V225.203H284.659V233.648ZM286.581 230.203H284.097V228.539H286.581V230.203ZM279.995 233.938C280.974 233.938 281.823 234.047 282.542 234.266C283.266 234.479 283.821 234.792 284.206 235.203C284.597 235.615 284.792 236.107 284.792 236.68C284.792 237.258 284.597 237.753 284.206 238.164C283.821 238.581 283.269 238.896 282.55 239.109C281.831 239.328 280.98 239.438 279.995 239.438C279.006 239.438 278.144 239.328 277.409 239.109C276.675 238.896 276.11 238.581 275.714 238.164C275.318 237.753 275.12 237.258 275.12 236.68C275.12 236.107 275.318 235.615 275.714 235.203C276.11 234.792 276.675 234.479 277.409 234.266C278.144 234.047 279.006 233.938 279.995 233.938ZM279.995 235.5C279.381 235.5 278.857 235.544 278.425 235.633C277.998 235.716 277.675 235.849 277.456 236.031C277.237 236.208 277.128 236.424 277.128 236.68C277.128 236.945 277.237 237.167 277.456 237.344C277.675 237.521 277.995 237.654 278.417 237.742C278.844 237.826 279.37 237.87 279.995 237.875C280.626 237.87 281.149 237.826 281.566 237.742C281.982 237.654 282.297 237.521 282.511 237.344C282.724 237.167 282.831 236.945 282.831 236.68C282.831 236.419 282.722 236.201 282.503 236.023C282.29 235.846 281.972 235.716 281.55 235.633C281.128 235.544 280.61 235.5 279.995 235.5ZM293.02 236.172H291.036V233.852H293.02V236.172ZM299.302 239.438H297.325V225.203H299.302V239.438ZM288.247 235.422C289.94 235.411 291.442 235.38 292.755 235.328C294.072 235.271 295.335 235.164 296.544 235.008L296.669 236.484C295.304 236.724 293.895 236.88 292.442 236.953C290.994 237.021 289.408 237.055 287.684 237.055L287.419 235.422H288.247ZM296.341 228.367H287.7V226.805H296.341V228.367ZM292.013 228.93C292.71 228.93 293.33 229.042 293.872 229.266C294.414 229.49 294.835 229.805 295.138 230.211C295.44 230.612 295.591 231.076 295.591 231.602C295.591 232.122 295.44 232.583 295.138 232.984C294.835 233.385 294.414 233.701 293.872 233.93C293.33 234.154 292.71 234.266 292.013 234.266C291.33 234.266 290.718 234.154 290.177 233.93C289.64 233.706 289.221 233.393 288.919 232.992C288.622 232.586 288.473 232.122 288.473 231.602C288.473 231.076 288.622 230.612 288.919 230.211C289.221 229.805 289.64 229.49 290.177 229.266C290.718 229.042 291.33 228.93 292.013 228.93ZM292.013 230.438C291.695 230.438 291.411 230.484 291.161 230.578C290.911 230.667 290.716 230.799 290.575 230.977C290.434 231.148 290.364 231.357 290.364 231.602C290.364 231.841 290.434 232.047 290.575 232.219C290.716 232.391 290.911 232.523 291.161 232.617C291.411 232.706 291.695 232.75 292.013 232.75C292.346 232.75 292.64 232.706 292.895 232.617C293.151 232.529 293.346 232.398 293.481 232.227C293.617 232.049 293.684 231.841 293.684 231.602C293.684 231.357 293.617 231.148 293.481 230.977C293.346 230.799 293.151 230.667 292.895 230.578C292.64 230.484 292.346 230.438 292.013 230.438ZM293.036 227.695H291.036V225.273H293.036V227.695Z" fill="black"/>
<defs>
<filter id="filter0_d_1117_2659" x="238" y="146" width="69" height="78.0371" filterUnits="userSpaceOnUse" color-interpolation-filters="sRGB">
<feFlood flood-opacity="0" result="BackgroundImageFix"/>
<feColorMatrix in="SourceAlpha" type="matrix" values="0 0 0 0 0 0 0 0 0 0 0 0 0 0 0 0 0 0 127 0" result="hardAlpha"/>
<feOffset dx="-1" dy="1"/>
<feGaussianBlur stdDeviation="2"/>
<feComposite in2="hardAlpha" operator="out"/>
<feColorMatrix type="matrix" values="0 0 0 0 0 0 0 0 0 0 0 0 0 0 0 0 0 0 0.25 0"/>
<feBlend mode="normal" in2="BackgroundImageFix" result="effect1_dropShadow_1117_2659"/>
<feBlend mode="normal" in="SourceGraphic" in2="effect1_dropShadow_1117_2659" result="shape"/>
</filter>
<clipPath id="clip0_1117_2659">
<rect width="893.782" height="837.592" fill="white"/>
</clipPath>
</defs>
</svg>
