<svg width="894" height="838" viewBox="0 0 894 838" fill="none" xmlns="http://www.w3.org/2000/svg">
<g clip-path="url(#clip0_1117_2585)">
<path d="M562.163 200.731L626.462 216.238L663.969 282.492L673.953 286.073L708.621 282.492L640.75 203.704L553.233 178.635L547.875 167.891L503.223 121.334L481.79 117.753L462.144 212.657L404.525 201.913L318.044 207.285C318.044 207.285 283.555 212.657 254.978 241.307C226.401 269.958 221.043 300.399 221.043 300.399V403.056L260.336 531.392L263.908 533.182L313.918 576.158L394.291 622.715C394.291 622.715 406.794 630.378 423.761 627.442L481.808 622.715C481.808 622.715 519.316 622.177 540.748 600.063L610.405 522.438C610.405 522.438 626.48 508.113 626.48 477.672L621.121 338.002C621.121 338.002 622.907 320.096 612.191 303.98L588.972 250.261L556.823 234.968L562.181 200.731H562.163Z" fill="#FCDED0" stroke="#605B53" stroke-width="0.5" stroke-miterlimit="10"/>
<path d="M290.682 312.933C290.682 312.933 296.04 286.073 321.045 282.492L397.845 277.12L465.716 289.655L474.646 298.608L551.447 293.236L556.805 456.185C556.805 456.185 556.805 463.347 549.661 470.51L494.293 527.81C494.293 527.81 488.935 533.182 476.432 534.973L331.761 543.926H324.01L321.045 465.138L313.9 456.185L290.682 389.555V312.933Z" fill="#FFFAF8" stroke="#605B53" stroke-width="0.5" stroke-miterlimit="10"/>
<path d="M394.274 293.236L458.572 305.77L469.289 316.514L537.159 311.142L540.731 456.184L478.219 518.857L340.692 526.02L337.12 457.975L328.19 449.022L308.543 388.14V319.397C308.543 319.397 308.543 305.269 320.51 299.951C322.564 299.038 324.778 298.59 327.011 298.429L394.274 293.236Z" fill="#B7E589" stroke="#605B53" stroke-width="0.5" stroke-miterlimit="10"/>
<path d="M471.074 219.82L403.204 207.285H389.737L308.542 213.552C308.542 213.552 269.249 226.982 256.746 244.889C256.746 244.889 224.597 282.492 226.383 303.98L226.312 400.12L254.96 502.741L322.831 560.042L348.693 565.271V578.969H383.753L385.343 590.501H436.674L437.139 574.385H462.144V583.338H497.865L515.726 574.385L587.168 492.015L581.81 364.88L553.858 366.742L556.805 456.203C556.805 456.203 555.019 465.156 549.661 470.528L494.293 527.828C494.293 527.828 485.363 534.991 476.432 534.991L331.761 543.944H324.01L321.045 465.156L313.9 456.203L290.682 389.573V312.951C290.682 312.951 296.04 286.091 321.045 282.51L397.845 277.138L465.716 289.673L474.646 298.626L569.308 291.463L501.437 228.791C501.437 228.791 494.293 219.838 481.79 221.628L471.074 219.838V219.82Z" fill="#FFA47C" stroke="#605B53" stroke-width="0.5" stroke-miterlimit="10"/>
<path d="M531.801 237.726L528.229 244.889L571.094 286.073L596.099 284.283L588.955 264.586C588.955 264.586 585.383 257.423 580.024 257.423C574.666 257.423 531.801 237.726 531.801 237.726Z" stroke="#605B53" stroke-width="0.5" stroke-miterlimit="10"/>
<path d="M458.571 209.076L478.022 117.753L347.836 90.8931L345.639 117.753L353.194 119.543L345.639 121.155C345.639 121.155 267.463 123.125 201.378 184.007C135.294 244.888 133.508 332.63 133.508 332.63C133.508 332.63 133.508 370.234 137.08 388.14C140.652 406.046 172.801 524.229 172.801 524.229L256.746 531.391L217.453 404.256V298.608C217.453 298.608 226.383 262.795 251.388 239.517C276.393 216.238 299.612 207.285 315.686 203.704L403.203 198.332L458.571 209.076Z" fill="#FDFEFD" stroke="#605B53" stroke-width="0.5" stroke-miterlimit="10"/>
<path d="M448.909 837.144H407.937C407.937 837.144 388.915 810.732 367.482 792.825C367.482 792.825 354.98 782.941 367.482 765.5L448.909 837.144Z" fill="#CBE6BD" stroke="#605B53" stroke-width="0.5" stroke-miterlimit="10"/>
<path d="M149.583 28.2207L188.876 37.1739C188.876 37.1739 158.513 53.2897 147.797 67.6149L151.369 46.1271C151.369 46.1271 153.155 37.1739 149.583 28.2207Z" fill="#CBE6BD" stroke="#605B53" stroke-width="0.5" stroke-miterlimit="10"/>
<path d="M662.576 0.465332H893.336V248.076C893.336 248.076 871.153 237.726 860.436 218.029L808.64 133.868L678.258 13.8952C678.258 13.8952 677.24 12.1045 662.576 0.465332Z" fill="#F0EEEB" stroke="#605B53" stroke-width="0.5" stroke-miterlimit="10"/>
<path d="M844.648 62.0456L844.362 26.4297H888.46V62.0456L893.336 64.9643V134.567L866.277 124.288L826.501 137.45L805.068 74.7771L844.648 62.0456Z" fill="#F9F7F3" stroke="#605B53" stroke-width="0.5" stroke-miterlimit="10"/>
<path d="M580.024 785.663H595.991L657.45 837.144H543.07L580.024 785.663Z" fill="#F0EEEB" stroke="#605B53" stroke-width="0.5" stroke-miterlimit="10"/>
<path d="M751.486 585.111L758.631 577.948L768.454 587.797L776.938 577.948L765.775 568.995L810.426 518.857L819.357 527.81L828.287 517.066L819.357 508.113L831.859 493.788H834.985V496.528L855.078 499.16L858.65 497.369L867.58 499.16L880.083 506.323L893.336 510.226V574.403L844.362 631.668L858.65 644.202L840.79 665.69L837.217 662.109L751.486 585.111Z" fill="#F0EEEB" stroke="#605B53" stroke-width="0.5" stroke-miterlimit="10"/>
<path d="M893.336 830.536L835.432 782.082V769.69L893.336 699.712V830.536Z" fill="#F0EEEB" stroke="#605B53" stroke-width="0.5" stroke-miterlimit="10"/>
<path d="M893.336 431.205H885.048L833.646 490.207H837.218L837.253 493.788L855.078 495.579L860.169 493.788L869.367 495.579L881.869 502.741L893.336 504.657V431.205Z" fill="#F0EEEB" stroke="#605B53" stroke-width="0.5" stroke-miterlimit="10"/>
<path d="M0.446289 68.3848L106.717 99.8464L83.4983 187.051L0.446289 163.092V90.8932V68.3848Z" fill="#E2F0DB" stroke="#605B53" stroke-width="0.5" stroke-miterlimit="10"/>
<path d="M26.3442 96.265L10.2696 151.775L0.446289 148.534V90.8931L26.3442 96.265Z" fill="#D4E4BE" stroke="#605B53" stroke-width="0.5" stroke-miterlimit="10"/>
<path d="M29.9166 98.0557L13.3955 151.775L44.2051 160.728L58.4936 107.009L29.9166 98.0557Z" fill="#D4E4BE" stroke="#605B53" stroke-width="0.5" stroke-miterlimit="10"/>
<path d="M62.0658 107.009L45.9912 162.519L76.3543 171.472L92.4289 115.962L62.0658 107.009Z" fill="#D4E4BE" stroke="#605B53" stroke-width="0.5" stroke-miterlimit="10"/>
<path d="M92.4286 26.1792L88.8564 38.9644L106.717 44.0498L110.289 30.0112L92.4286 26.1792Z" fill="#D4E4BE" stroke="#605B53" stroke-width="0.5" stroke-miterlimit="10"/>
<path d="M837.217 350.537L863.49 377.289C863.49 377.289 867.58 382.768 862.222 388.14L846.148 406.047C846.148 406.047 839.128 416.79 839.968 406.047C839.968 406.047 842.575 364.933 833.645 355.049C833.645 355.049 831.859 350.537 837.217 350.537Z" fill="#CBE6BD" stroke="#605B53" stroke-width="0.5" stroke-miterlimit="10"/>
<path d="M893.336 291.159V273.754C893.336 273.754 885.442 273.539 880.083 268.167C880.083 268.167 874.725 268.167 878.297 273.539L893.336 291.159Z" fill="#AFD1F2" stroke="#605B53" stroke-width="0.5" stroke-miterlimit="10"/>
<path d="M328.725 423.022C367.59 438.439 411.884 425.69 433.049 390.772C448.177 365.811 447.82 335.549 434.871 310.283L325.813 315.834L328.725 423.04V423.022Z" fill="#FAFAFA"/>
<path d="M329.551 318.255L332.62 390.173L404.535 387.088L401.466 315.17L329.551 318.255Z" fill="#B7E589"/>
<path d="M328.19 328.547C334.503 328.547 339.62 323.416 339.62 317.087C339.62 310.758 334.503 305.627 328.19 305.627C321.877 305.627 316.759 310.758 316.759 317.087C316.759 323.416 321.877 328.547 328.19 328.547Z" fill="#FAFAFA"/>
<path d="M334.012 381.729C333.405 381.407 332.779 381.174 332.154 380.959L332.547 390.181L339.977 389.859C339.37 386.493 337.28 383.431 334.03 381.712L334.012 381.729Z" fill="#FAFAFA"/>
<path d="M396.827 384.917C396.399 385.74 396.095 386.6 395.881 387.459L404.579 387.083L404.24 379.097C401.168 379.849 398.417 381.873 396.827 384.917Z" fill="#FAFAFA"/>
<path d="M401.828 322.692L401.507 315.189L394.487 315.493C395.398 318.179 397.291 320.525 400.006 321.94C400.596 322.244 401.203 322.495 401.828 322.692Z" fill="#FAFAFA"/>
<path d="M364.053 356.857C368.512 356.857 372.127 353.234 372.127 348.764C372.127 344.294 368.512 340.67 364.053 340.67C359.595 340.67 355.98 344.294 355.98 348.764C355.98 353.234 359.595 356.857 364.053 356.857Z" fill="#FAFAFA"/>
</g>
<g filter="url(#filter0_d_1117_2585)">
<path fill-rule="evenodd" clip-rule="evenodd" d="M203.312 444.873C203.701 444.2 204.338 443.71 205.077 443.466C217.23 439.45 226 427.999 226 414.5C226 397.655 212.345 384 195.5 384C178.655 384 165 397.655 165 414.5C165 428.454 174.37 440.219 187.162 443.846C187.956 444.071 188.646 444.577 189.059 445.292L193.13 452.343C194.434 454.602 197.695 454.602 199 452.343L203.312 444.873Z" fill="white"/>
</g>
<circle cx="194.981" cy="413.981" r="25.9815" fill="#FF4E00"/>
<path d="M199.333 406.25V415.917H202.958V425.583H205.375V401.417C202.04 401.417 199.333 404.123 199.333 406.25ZM193.292 409.875H190.875V401.417H188.458V409.875H186.042V401.417H183.625V409.875C183.625 412.545 185.788 414.708 188.458 414.708V425.583H190.875V414.708C193.545 414.708 195.708 412.545 195.708 409.875V401.417H193.292V409.875Z" fill="#FAFAFA"/>
<path d="M179.713 460.21V474.442H177.829V460.21H179.713ZM175.464 465.094V466.696H173.066V465.094H175.464ZM176.807 460.448V473.779H174.939V460.448H176.807ZM171.508 464.022C171.505 465.131 171.39 466.186 171.166 467.188C170.941 468.19 170.593 469.09 170.122 469.89C169.65 470.689 169.053 471.311 168.331 471.757L167.127 470.287C167.797 469.875 168.346 469.337 168.773 468.674C169.201 468.007 169.512 467.28 169.707 466.492C169.902 465.703 170 464.88 170 464.022V462.525H171.508V464.022ZM171.923 464.022C171.919 464.866 172.011 465.661 172.199 466.409C172.387 467.157 172.691 467.842 173.11 468.464C173.53 469.083 174.072 469.584 174.735 469.967L173.569 471.431C172.843 471.004 172.247 470.414 171.779 469.663C171.315 468.912 170.976 468.059 170.762 467.105C170.552 466.151 170.448 465.123 170.448 464.022V462.525H171.923V464.022ZM174.077 461.669V463.265H167.669V461.669H174.077ZM185.442 460.635C186.157 460.635 186.801 460.775 187.376 461.055C187.954 461.335 188.409 461.722 188.741 462.215C189.076 462.705 189.245 463.262 189.249 463.884C189.245 464.503 189.076 465.059 188.741 465.552C188.409 466.046 187.954 466.431 187.376 466.707C186.801 466.983 186.157 467.122 185.442 467.122C184.72 467.122 184.067 466.983 183.481 466.707C182.899 466.431 182.442 466.046 182.111 465.552C181.783 465.059 181.619 464.503 181.619 463.884C181.619 463.262 181.783 462.705 182.111 462.215C182.442 461.722 182.899 461.335 183.481 461.055C184.067 460.775 184.72 460.635 185.442 460.635ZM185.442 462.265C185.078 462.265 184.752 462.33 184.464 462.459C184.177 462.587 183.952 462.775 183.79 463.022C183.628 463.265 183.549 463.552 183.553 463.884C183.549 464.219 183.628 464.51 183.79 464.757C183.952 465 184.177 465.188 184.464 465.32C184.752 465.449 185.078 465.514 185.442 465.514C185.803 465.514 186.125 465.449 186.409 465.32C186.693 465.188 186.914 465 187.072 464.757C187.234 464.51 187.315 464.219 187.315 463.884C187.315 463.552 187.234 463.265 187.072 463.022C186.914 462.775 186.693 462.587 186.409 462.459C186.125 462.33 185.803 462.265 185.442 462.265ZM193.304 460.21V467.348H191.304V460.21H193.304ZM193.304 467.934V471.796H185.741V473.536H183.796V470.337H191.315V469.47H183.763V467.934H193.304ZM193.691 472.713V474.282H183.796V472.713H193.691ZM207.376 460.21V474.475H205.404V460.21H207.376ZM205.967 465.227V466.845H202.128V465.227H205.967ZM197.895 461.315V464.762H200.813V461.315H202.763V471.094H195.901V461.315H197.895ZM197.895 469.497H200.813V466.32H197.895V469.497ZM221.338 460.21V474.442H219.354V460.21H221.338ZM220.31 465.685V467.315H216.531V465.685H220.31ZM216.608 461.707C216.605 463.232 216.41 464.608 216.023 465.834C215.636 467.061 214.975 468.192 214.039 469.227C213.107 470.258 211.84 471.169 210.238 471.961L209.222 470.403C210.551 469.748 211.614 469.015 212.41 468.204C213.205 467.394 213.776 466.49 214.122 465.492C214.472 464.49 214.647 463.343 214.647 462.05V461.707H216.608ZM215.691 461.707V463.271H209.885V461.707H215.691Z" fill="black"/>
<defs>
<filter id="filter0_d_1117_2585" x="160" y="381" width="69" height="78.0371" filterUnits="userSpaceOnUse" color-interpolation-filters="sRGB">
<feFlood flood-opacity="0" result="BackgroundImageFix"/>
<feColorMatrix in="SourceAlpha" type="matrix" values="0 0 0 0 0 0 0 0 0 0 0 0 0 0 0 0 0 0 127 0" result="hardAlpha"/>
<feOffset dx="-1" dy="1"/>
<feGaussianBlur stdDeviation="2"/>
<feComposite in2="hardAlpha" operator="out"/>
<feColorMatrix type="matrix" values="0 0 0 0 0 0 0 0 0 0 0 0 0 0 0 0 0 0 0.25 0"/>
<feBlend mode="normal" in2="BackgroundImageFix" result="effect1_dropShadow_1117_2585"/>
<feBlend mode="normal" in="SourceGraphic" in2="effect1_dropShadow_1117_2585" result="shape"/>
</filter>
<clipPath id="clip0_1117_2585">
<rect width="893.782" height="837.592" fill="white"/>
</clipPath>
</defs>
</svg>
