<svg width="390" height="468" viewBox="0 0 390 468" fill="none" xmlns="http://www.w3.org/2000/svg">
<mask id="mask0_698_5517" style="mask-type:alpha" maskUnits="userSpaceOnUse" x="0" y="0" width="390" height="468">
<rect width="390" height="467.654" fill="#D9D9D9"/>
</mask>
<g mask="url(#mask0_698_5517)">
<g clip-path="url(#clip0_698_5517)">
<path d="M298.537 88.6825L342.38 99.2561L367.954 144.432L374.762 146.874L398.401 144.432L352.122 90.7093L292.448 73.6157L288.794 66.2898L258.348 34.5445L243.734 32.1025L230.337 96.8142L191.049 89.4883L132.081 93.1513C132.081 93.1513 108.564 96.8142 89.0786 116.35C69.593 135.885 65.9395 156.642 65.9395 156.642V226.64L92.7322 314.148L95.1679 315.369L129.268 344.672L184.071 376.417C184.071 376.417 192.596 381.643 204.166 379.641L243.746 376.417C243.746 376.417 269.321 376.051 283.935 360.972L331.431 308.043C331.431 308.043 342.392 298.275 342.392 277.518L338.738 182.282C338.738 182.282 339.956 170.073 332.649 159.084L316.817 122.455L294.896 112.028L298.549 88.6825H298.537Z" fill="#FCDED0" stroke="#605B53" stroke-width="0.5" stroke-miterlimit="10"/>
<path d="M113.423 165.189C113.423 165.189 117.076 146.874 134.126 144.432L186.494 140.769L232.772 149.316L238.862 155.421L291.229 151.758L294.883 262.867C294.883 262.867 294.883 267.751 290.011 272.635L252.258 311.706C252.258 311.706 248.604 315.369 240.079 316.59L141.433 322.694H136.148L134.126 268.972L129.255 262.867L113.423 217.434V165.189Z" fill="#FFFAF8" stroke="#605B53" stroke-width="0.5" stroke-miterlimit="10"/>
<path d="M184.058 151.758L227.901 160.305L235.208 167.631L281.487 163.968L283.922 262.867L241.297 305.601L147.523 310.485L145.087 264.088L138.998 257.983L125.602 216.47V169.596C125.602 169.596 125.602 159.963 133.761 156.337C135.162 155.714 136.672 155.409 138.194 155.299L184.058 151.758Z" fill="#B7E589" stroke="#605B53" stroke-width="0.5" stroke-miterlimit="10"/>
<path d="M236.426 101.698L190.147 93.1514H180.965L125.601 97.4248C125.601 97.4248 98.8086 106.582 90.2837 118.792C90.2837 118.792 68.3623 144.432 69.5802 159.084L69.5315 224.638L89.0658 294.612L135.344 333.683L152.979 337.249V346.589H176.885L177.969 354.452H212.97L213.287 343.463H230.337V349.568H254.694L266.872 343.463L315.586 287.298L311.933 200.609L292.873 201.879L294.883 262.879C294.883 262.879 293.665 268.984 290.011 272.647L252.258 311.718C252.258 311.718 246.169 316.602 240.079 316.602L141.433 322.707H136.148L134.126 268.984L129.255 262.879L113.423 217.447V165.201C113.423 165.201 117.076 146.886 134.126 144.444L186.494 140.782L232.772 149.328L238.862 155.433L303.408 150.549L257.129 107.815C257.129 107.815 252.258 101.71 243.733 102.931L236.426 101.71V101.698Z" fill="#FFA47C" stroke="#605B53" stroke-width="0.5" stroke-miterlimit="10"/>
<path d="M277.833 113.908L275.397 118.792L304.626 146.874L321.676 145.653L316.804 132.222C316.804 132.222 314.369 127.338 310.715 127.338C307.062 127.338 277.833 113.908 277.833 113.908Z" stroke="#605B53" stroke-width="0.5" stroke-miterlimit="10"/>
<path d="M227.901 94.3721L241.163 32.1025L152.394 13.7878L150.896 32.1025L156.048 33.3234L150.896 34.4223C150.896 34.4223 97.5908 35.7654 52.5303 77.2785C7.4698 118.792 6.25195 178.619 6.25195 178.619C6.25195 178.619 6.25195 204.26 8.68766 216.47C11.1234 228.679 33.0447 309.264 33.0447 309.264L90.2837 314.148L63.491 227.458V155.421C63.491 155.421 69.5802 131.001 86.6302 115.129C103.68 99.256 119.512 93.1512 130.473 90.7092L190.148 87.0463L227.901 94.3721Z" fill="#FDFEFD" stroke="#605B53" stroke-width="0.5" stroke-miterlimit="10"/>
<path d="M-84.4775 241.036L-59.8769 248.032L3.8167 -11.8526C3.8167 -11.8526 7.47025 -21.6204 2.59885 -31.3882L-41.2438 -41.156L-84.4775 -33.4517V241.036Z" fill="#CBE6BD" stroke="#605B53" stroke-width="0.5" stroke-miterlimit="10"/>
<path d="M367.004 -47.8713H524.35V120.965C524.35 120.965 509.225 113.908 501.917 100.477L466.6 43.0912L377.697 -38.714C377.697 -38.714 377.002 -39.935 367.004 -47.8713Z" fill="#F0EEEB" stroke="#605B53" stroke-width="0.5" stroke-miterlimit="10"/>
<path d="M139.363 240.254C165.863 250.767 196.066 242.074 210.498 218.265C220.813 201.244 220.569 180.61 211.74 163.382L137.378 167.167L139.363 240.267V240.254Z" fill="#FAFAFA"/>
<path d="M139.927 168.818L142.02 217.856L191.056 215.753L188.963 166.715L139.927 168.818Z" fill="#B7E589"/>
<path d="M138.998 175.836C143.303 175.836 146.793 172.337 146.793 168.021C146.793 163.706 143.303 160.207 138.998 160.207C134.694 160.207 131.204 163.706 131.204 168.021C131.204 172.337 134.694 175.836 138.998 175.836Z" fill="#FAFAFA"/>
<path d="M142.968 212.098C142.554 211.878 142.127 211.72 141.701 211.573L141.969 217.861L147.035 217.641C146.621 215.346 145.196 213.258 142.98 212.086L142.968 212.098Z" fill="#FAFAFA"/>
<path d="M185.8 214.272C185.507 214.834 185.3 215.42 185.154 216.006L191.085 215.749L190.854 210.304C188.759 210.817 186.884 212.196 185.8 214.272Z" fill="#FAFAFA"/>
<path d="M189.209 171.843L188.99 166.727L184.204 166.935C184.825 168.766 186.116 170.366 187.967 171.33C188.369 171.538 188.783 171.709 189.209 171.843Z" fill="#FAFAFA"/>
<path d="M163.453 195.139C166.493 195.139 168.958 192.668 168.958 189.62C168.958 186.572 166.493 184.102 163.453 184.102C160.413 184.102 157.948 186.572 157.948 189.62C157.948 192.668 160.413 195.139 163.453 195.139Z" fill="#FAFAFA"/>
</g>
<g filter="url(#filter0_d_698_5517)">
<path fill-rule="evenodd" clip-rule="evenodd" d="M89.0734 208.95C89.2264 208.685 89.4772 208.493 89.7677 208.397C94.5494 206.817 98 202.311 98 197C98 190.373 92.6274 185 86 185C79.3726 185 74 190.373 74 197C74 202.49 77.6867 207.119 82.7195 208.546C83.0318 208.635 83.3035 208.834 83.4658 209.115L85.0674 211.889C85.5806 212.778 86.8636 212.778 87.3768 211.889L89.0734 208.95Z" fill="white"/>
</g>
<circle cx="85.7964" cy="196.796" r="10.2222" fill="#FF4E00"/>
<path d="M87.5075 193.754V197.557H88.9337V201.36H89.8845V191.852C88.5724 191.852 87.5075 192.917 87.5075 193.754ZM85.1304 195.18H84.1796V191.852H83.2288V195.18H82.278V191.852H81.3271V195.18C81.3271 196.231 82.1781 197.082 83.2288 197.082V201.36H84.1796V197.082C85.2303 197.082 86.0812 196.231 86.0812 195.18V191.852H85.1304V195.18Z" fill="#FAFAFA"/>
<g filter="url(#filter1_d_698_5517)">
<path fill-rule="evenodd" clip-rule="evenodd" d="M87.0734 180.95C87.2264 180.685 87.4772 180.493 87.7677 180.397C92.5494 178.817 96 174.311 96 169C96 162.373 90.6274 157 84 157C77.3726 157 72 162.373 72 169C72 174.49 75.6867 179.119 80.7195 180.546C81.0318 180.635 81.3035 180.834 81.4658 181.115L83.0674 183.889C83.5806 184.778 84.8636 184.778 85.3768 183.889L87.0734 180.95Z" fill="white"/>
</g>
<circle cx="83.7964" cy="168.796" r="10.2222" fill="#FF4E00"/>
<path d="M85.5075 165.754V169.557H86.9337V173.36H87.8845V163.852C86.5724 163.852 85.5075 164.917 85.5075 165.754ZM83.1304 167.18H82.1796V163.852H81.2288V167.18H80.278V163.852H79.3271V167.18C79.3271 168.231 80.1781 169.082 81.2288 169.082V173.36H82.1796V169.082C83.2303 169.082 84.0812 168.231 84.0812 167.18V163.852H83.1304V167.18Z" fill="#FAFAFA"/>
<g filter="url(#filter2_d_698_5517)">
<path fill-rule="evenodd" clip-rule="evenodd" d="M137.073 118.95C137.226 118.685 137.477 118.493 137.768 118.397C142.549 116.817 146 112.311 146 107C146 100.373 140.627 95 134 95C127.373 95 122 100.373 122 107C122 112.49 125.687 117.119 130.72 118.546C131.032 118.635 131.304 118.834 131.466 119.115L133.067 121.889C133.581 122.778 134.864 122.778 135.377 121.889L137.073 118.95Z" fill="white"/>
</g>
<circle cx="133.796" cy="106.796" r="10.2222" fill="#FF4E00"/>
<path d="M135.507 103.754V107.557H136.934V111.361H137.885V101.853C136.572 101.853 135.507 102.917 135.507 103.754ZM133.13 105.18H132.18V101.853H131.229V105.18H130.278V101.853H129.327V105.18C129.327 106.231 130.178 107.082 131.229 107.082V111.361H132.18V107.082C133.23 107.082 134.081 106.231 134.081 105.18V101.853H133.13V105.18Z" fill="#FAFAFA"/>
<g filter="url(#filter3_d_698_5517)">
<path fill-rule="evenodd" clip-rule="evenodd" d="M167.073 126.95C167.226 126.685 167.477 126.493 167.768 126.397C172.549 124.817 176 120.311 176 115C176 108.373 170.627 103 164 103C157.373 103 152 108.373 152 115C152 120.49 155.687 125.119 160.72 126.546C161.032 126.635 161.304 126.834 161.466 127.115L163.067 129.889C163.581 130.778 164.864 130.778 165.377 129.889L167.073 126.95Z" fill="white"/>
</g>
<circle cx="163.796" cy="114.796" r="10.2222" fill="#FF4E00"/>
<path d="M165.507 111.754V115.557H166.934V119.361H167.885V109.853C166.572 109.853 165.507 110.917 165.507 111.754ZM163.13 113.18H162.18V109.853H161.229V113.18H160.278V109.853H159.327V113.18C159.327 114.231 160.178 115.082 161.229 115.082V119.361H162.18V115.082C163.23 115.082 164.081 114.231 164.081 113.18V109.853H163.13V113.18Z" fill="#FAFAFA"/>
<g filter="url(#filter4_d_698_5517)">
<path fill-rule="evenodd" clip-rule="evenodd" d="M183.073 116.95C183.226 116.685 183.477 116.493 183.768 116.397C188.549 114.817 192 110.311 192 105C192 98.3726 186.627 93 180 93C173.373 93 168 98.3726 168 105C168 110.49 171.687 115.119 176.72 116.546C177.032 116.635 177.304 116.834 177.466 117.115L179.067 119.889C179.581 120.778 180.864 120.778 181.377 119.889L183.073 116.95Z" fill="white"/>
</g>
<circle cx="179.796" cy="104.796" r="10.2222" fill="#FF4E00"/>
<path d="M181.507 101.754V105.557H182.934V109.361H183.885V99.8525C182.572 99.8525 181.507 100.917 181.507 101.754ZM179.13 103.18H178.18V99.8525H177.229V103.18H176.278V99.8525H175.327V103.18C175.327 104.231 176.178 105.082 177.229 105.082V109.361H178.18V105.082C179.23 105.082 180.081 104.231 180.081 103.18V99.8525H179.13V103.18Z" fill="#FAFAFA"/>
<g filter="url(#filter5_d_698_5517)">
<path fill-rule="evenodd" clip-rule="evenodd" d="M179.073 133.95C179.226 133.685 179.477 133.493 179.768 133.397C184.549 131.817 188 127.311 188 122C188 115.373 182.627 110 176 110C169.373 110 164 115.373 164 122C164 127.49 167.687 132.119 172.72 133.546C173.032 133.635 173.304 133.834 173.466 134.115L175.067 136.889C175.581 137.778 176.864 137.778 177.377 136.889L179.073 133.95Z" fill="white"/>
</g>
<circle cx="175.796" cy="121.796" r="10.2222" fill="#FF4E00"/>
<path d="M177.507 118.754V122.557H178.934V126.361H179.885V116.853C178.572 116.853 177.507 117.917 177.507 118.754ZM175.13 120.18H174.18V116.853H173.229V120.18H172.278V116.853H171.327V120.18C171.327 121.231 172.178 122.082 173.229 122.082V126.361H174.18V122.082C175.23 122.082 176.081 121.231 176.081 120.18V116.853H175.13V120.18Z" fill="#FAFAFA"/>
</g>
<defs>
<filter id="filter0_d_698_5517" x="72.0328" y="183.82" width="27.1475" height="30.7032" filterUnits="userSpaceOnUse" color-interpolation-filters="sRGB">
<feFlood flood-opacity="0" result="BackgroundImageFix"/>
<feColorMatrix in="SourceAlpha" type="matrix" values="0 0 0 0 0 0 0 0 0 0 0 0 0 0 0 0 0 0 127 0" result="hardAlpha"/>
<feOffset dx="-0.393443" dy="0.393443"/>
<feGaussianBlur stdDeviation="0.786885"/>
<feComposite in2="hardAlpha" operator="out"/>
<feColorMatrix type="matrix" values="0 0 0 0 0 0 0 0 0 0 0 0 0 0 0 0 0 0 0.25 0"/>
<feBlend mode="normal" in2="BackgroundImageFix" result="effect1_dropShadow_698_5517"/>
<feBlend mode="normal" in="SourceGraphic" in2="effect1_dropShadow_698_5517" result="shape"/>
</filter>
<filter id="filter1_d_698_5517" x="70.0328" y="155.82" width="27.1475" height="30.7032" filterUnits="userSpaceOnUse" color-interpolation-filters="sRGB">
<feFlood flood-opacity="0" result="BackgroundImageFix"/>
<feColorMatrix in="SourceAlpha" type="matrix" values="0 0 0 0 0 0 0 0 0 0 0 0 0 0 0 0 0 0 127 0" result="hardAlpha"/>
<feOffset dx="-0.393443" dy="0.393443"/>
<feGaussianBlur stdDeviation="0.786885"/>
<feComposite in2="hardAlpha" operator="out"/>
<feColorMatrix type="matrix" values="0 0 0 0 0 0 0 0 0 0 0 0 0 0 0 0 0 0 0.25 0"/>
<feBlend mode="normal" in2="BackgroundImageFix" result="effect1_dropShadow_698_5517"/>
<feBlend mode="normal" in="SourceGraphic" in2="effect1_dropShadow_698_5517" result="shape"/>
</filter>
<filter id="filter2_d_698_5517" x="120.033" y="93.8197" width="27.1475" height="30.703" filterUnits="userSpaceOnUse" color-interpolation-filters="sRGB">
<feFlood flood-opacity="0" result="BackgroundImageFix"/>
<feColorMatrix in="SourceAlpha" type="matrix" values="0 0 0 0 0 0 0 0 0 0 0 0 0 0 0 0 0 0 127 0" result="hardAlpha"/>
<feOffset dx="-0.393443" dy="0.393443"/>
<feGaussianBlur stdDeviation="0.786885"/>
<feComposite in2="hardAlpha" operator="out"/>
<feColorMatrix type="matrix" values="0 0 0 0 0 0 0 0 0 0 0 0 0 0 0 0 0 0 0.25 0"/>
<feBlend mode="normal" in2="BackgroundImageFix" result="effect1_dropShadow_698_5517"/>
<feBlend mode="normal" in="SourceGraphic" in2="effect1_dropShadow_698_5517" result="shape"/>
</filter>
<filter id="filter3_d_698_5517" x="150.033" y="101.82" width="27.1475" height="30.703" filterUnits="userSpaceOnUse" color-interpolation-filters="sRGB">
<feFlood flood-opacity="0" result="BackgroundImageFix"/>
<feColorMatrix in="SourceAlpha" type="matrix" values="0 0 0 0 0 0 0 0 0 0 0 0 0 0 0 0 0 0 127 0" result="hardAlpha"/>
<feOffset dx="-0.393443" dy="0.393443"/>
<feGaussianBlur stdDeviation="0.786885"/>
<feComposite in2="hardAlpha" operator="out"/>
<feColorMatrix type="matrix" values="0 0 0 0 0 0 0 0 0 0 0 0 0 0 0 0 0 0 0.25 0"/>
<feBlend mode="normal" in2="BackgroundImageFix" result="effect1_dropShadow_698_5517"/>
<feBlend mode="normal" in="SourceGraphic" in2="effect1_dropShadow_698_5517" result="shape"/>
</filter>
<filter id="filter4_d_698_5517" x="166.033" y="91.8197" width="27.1475" height="30.703" filterUnits="userSpaceOnUse" color-interpolation-filters="sRGB">
<feFlood flood-opacity="0" result="BackgroundImageFix"/>
<feColorMatrix in="SourceAlpha" type="matrix" values="0 0 0 0 0 0 0 0 0 0 0 0 0 0 0 0 0 0 127 0" result="hardAlpha"/>
<feOffset dx="-0.393443" dy="0.393443"/>
<feGaussianBlur stdDeviation="0.786885"/>
<feComposite in2="hardAlpha" operator="out"/>
<feColorMatrix type="matrix" values="0 0 0 0 0 0 0 0 0 0 0 0 0 0 0 0 0 0 0.25 0"/>
<feBlend mode="normal" in2="BackgroundImageFix" result="effect1_dropShadow_698_5517"/>
<feBlend mode="normal" in="SourceGraphic" in2="effect1_dropShadow_698_5517" result="shape"/>
</filter>
<filter id="filter5_d_698_5517" x="162.033" y="108.82" width="27.1475" height="30.703" filterUnits="userSpaceOnUse" color-interpolation-filters="sRGB">
<feFlood flood-opacity="0" result="BackgroundImageFix"/>
<feColorMatrix in="SourceAlpha" type="matrix" values="0 0 0 0 0 0 0 0 0 0 0 0 0 0 0 0 0 0 127 0" result="hardAlpha"/>
<feOffset dx="-0.393443" dy="0.393443"/>
<feGaussianBlur stdDeviation="0.786885"/>
<feComposite in2="hardAlpha" operator="out"/>
<feColorMatrix type="matrix" values="0 0 0 0 0 0 0 0 0 0 0 0 0 0 0 0 0 0 0.25 0"/>
<feBlend mode="normal" in2="BackgroundImageFix" result="effect1_dropShadow_698_5517"/>
<feBlend mode="normal" in="SourceGraphic" in2="effect1_dropShadow_698_5517" result="shape"/>
</filter>
<clipPath id="clip0_698_5517">
<rect width="609.437" height="571.123" fill="white" transform="translate(-84.7822 -48.1887)"/>
</clipPath>
</defs>
</svg>
