<svg width="894" height="838" viewBox="0 0 894 838" fill="none" xmlns="http://www.w3.org/2000/svg">
<g clip-path="url(#clip0_1117_2768)">
<path d="M562.163 200.731L626.462 216.238L663.969 282.492L673.953 286.073L708.621 282.492L640.75 203.704L553.233 178.635L547.875 167.891L503.223 121.334L481.79 117.753L462.144 212.657L404.525 201.913L318.044 207.285C318.044 207.285 283.555 212.657 254.978 241.307C226.401 269.958 221.043 300.399 221.043 300.399V403.056L260.336 531.392L263.908 533.182L313.918 576.158L394.291 622.715C394.291 622.715 406.794 630.378 423.761 627.442L481.808 622.715C481.808 622.715 519.316 622.177 540.748 600.063L610.405 522.438C610.405 522.438 626.48 508.113 626.48 477.672L621.121 338.002C621.121 338.002 622.907 320.096 612.191 303.98L588.972 250.261L556.823 234.968L562.181 200.731H562.163Z" fill="#FCDED0" stroke="#605B53" stroke-width="0.5" stroke-miterlimit="10"/>
<path d="M290.682 312.933C290.682 312.933 296.04 286.073 321.045 282.492L397.845 277.12L465.716 289.655L474.646 298.608L551.447 293.236L556.805 456.185C556.805 456.185 556.805 463.347 549.661 470.51L494.293 527.81C494.293 527.81 488.935 533.182 476.432 534.973L331.761 543.926H324.01L321.045 465.138L313.9 456.185L290.682 389.555V312.933Z" fill="#FFFAF8" stroke="#605B53" stroke-width="0.5" stroke-miterlimit="10"/>
<path d="M394.274 293.236L458.572 305.77L469.289 316.514L537.159 311.142L540.731 456.184L478.219 518.857L340.692 526.02L337.12 457.975L328.19 449.022L308.543 388.14V319.397C308.543 319.397 308.543 305.269 320.51 299.951C322.564 299.038 324.778 298.59 327.011 298.429L394.274 293.236Z" fill="#B7E589" stroke="#605B53" stroke-width="0.5" stroke-miterlimit="10"/>
<path d="M471.074 219.82L403.204 207.285H389.737L308.542 213.552C308.542 213.552 269.249 226.982 256.746 244.889C256.746 244.889 224.597 282.492 226.383 303.98L226.312 400.12L254.96 502.741L322.831 560.042L348.693 565.271V578.969H383.753L385.343 590.501H436.674L437.139 574.385H462.144V583.338H497.865L515.726 574.385L587.168 492.015L581.81 364.88L553.858 366.742L556.805 456.203C556.805 456.203 555.019 465.156 549.661 470.528L494.293 527.828C494.293 527.828 485.363 534.991 476.432 534.991L331.761 543.944H324.01L321.045 465.156L313.9 456.203L290.682 389.573V312.951C290.682 312.951 296.04 286.091 321.045 282.51L397.845 277.138L465.716 289.673L474.646 298.626L569.308 291.463L501.437 228.791C501.437 228.791 494.293 219.838 481.79 221.628L471.074 219.838V219.82Z" fill="#FFA47C" stroke="#605B53" stroke-width="0.5" stroke-miterlimit="10"/>
<path d="M531.801 237.726L528.229 244.889L571.094 286.073L596.099 284.283L588.955 264.586C588.955 264.586 585.383 257.423 580.024 257.423C574.666 257.423 531.801 237.726 531.801 237.726Z" stroke="#605B53" stroke-width="0.5" stroke-miterlimit="10"/>
<path d="M458.571 209.076L478.022 117.753L347.836 90.8931L345.639 117.753L353.194 119.543L345.639 121.155C345.639 121.155 267.463 123.125 201.378 184.007C135.294 244.888 133.508 332.63 133.508 332.63C133.508 332.63 133.508 370.234 137.08 388.14C140.652 406.046 172.801 524.229 172.801 524.229L256.746 531.391L217.453 404.256V298.608C217.453 298.608 226.383 262.795 251.388 239.517C276.393 216.238 299.612 207.285 315.686 203.704L403.203 198.332L458.571 209.076Z" fill="#FDFEFD" stroke="#605B53" stroke-width="0.5" stroke-miterlimit="10"/>
<path d="M448.909 837.144H407.937C407.937 837.144 388.915 810.732 367.482 792.825C367.482 792.825 354.98 782.941 367.482 765.5L448.909 837.144Z" fill="#CBE6BD" stroke="#605B53" stroke-width="0.5" stroke-miterlimit="10"/>
<path d="M662.576 0.465576H893.336V248.076C893.336 248.076 871.153 237.726 860.436 218.029L808.64 133.869L678.258 13.8954C678.258 13.8954 677.24 12.1048 662.576 0.465576Z" fill="#F0EEEB" stroke="#605B53" stroke-width="0.5" stroke-miterlimit="10"/>
<path d="M844.648 62.0458L844.362 26.4299H888.46V62.0458L893.336 64.9646V134.567L866.277 124.289L826.501 137.45L805.068 74.7773L844.648 62.0458Z" fill="#F9F7F3" stroke="#605B53" stroke-width="0.5" stroke-miterlimit="10"/>
<path d="M580.024 785.663H595.991L657.45 837.144H543.07L580.024 785.663Z" fill="#F0EEEB" stroke="#605B53" stroke-width="0.5" stroke-miterlimit="10"/>
<path d="M751.486 585.111L758.631 577.948L768.454 587.797L776.938 577.948L765.775 568.995L810.426 518.857L819.357 527.81L828.287 517.066L819.357 508.113L831.859 493.788H834.985V496.528L855.078 499.16L858.65 497.369L867.58 499.16L880.083 506.323L893.336 510.226V574.403L844.362 631.668L858.65 644.202L840.79 665.69L837.217 662.109L751.486 585.111Z" fill="#F0EEEB" stroke="#605B53" stroke-width="0.5" stroke-miterlimit="10"/>
<path d="M893.336 830.536L835.432 782.082V769.69L893.336 699.712V830.536Z" fill="#F0EEEB" stroke="#605B53" stroke-width="0.5" stroke-miterlimit="10"/>
<path d="M893.336 431.205H885.048L833.646 490.207H837.218L837.253 493.788L855.078 495.579L860.169 493.788L869.367 495.579L881.869 502.741L893.336 504.657V431.205Z" fill="#F0EEEB" stroke="#605B53" stroke-width="0.5" stroke-miterlimit="10"/>
<path d="M0.446289 68.3848L106.717 99.8464L83.4983 187.051L0.446289 163.092V90.8932V68.3848Z" fill="#E2F0DB" stroke="#605B53" stroke-width="0.5" stroke-miterlimit="10"/>
<path d="M26.3442 96.265L10.2696 151.775L0.446289 148.534V90.8931L26.3442 96.265Z" fill="#D4E4BE" stroke="#605B53" stroke-width="0.5" stroke-miterlimit="10"/>
<path d="M29.9166 98.0557L13.3955 151.775L44.2051 160.728L58.4936 107.009L29.9166 98.0557Z" fill="#D4E4BE" stroke="#605B53" stroke-width="0.5" stroke-miterlimit="10"/>
<path d="M62.0658 107.009L45.9912 162.519L76.3543 171.472L92.4289 115.962L62.0658 107.009Z" fill="#D4E4BE" stroke="#605B53" stroke-width="0.5" stroke-miterlimit="10"/>
<path d="M92.4286 26.1792L88.8564 38.9644L106.717 44.0498L110.289 30.0112L92.4286 26.1792Z" fill="#D4E4BE" stroke="#605B53" stroke-width="0.5" stroke-miterlimit="10"/>
<path d="M837.217 350.537L863.49 377.289C863.49 377.289 867.58 382.768 862.222 388.14L846.148 406.047C846.148 406.047 839.128 416.79 839.968 406.047C839.968 406.047 842.575 364.933 833.645 355.049C833.645 355.049 831.859 350.537 837.217 350.537Z" fill="#CBE6BD" stroke="#605B53" stroke-width="0.5" stroke-miterlimit="10"/>
<path d="M893.336 291.159V273.754C893.336 273.754 885.442 273.539 880.083 268.167C880.083 268.167 874.725 268.167 878.297 273.539L893.336 291.159Z" fill="#AFD1F2" stroke="#605B53" stroke-width="0.5" stroke-miterlimit="10"/>
<path d="M328.725 423.022C367.59 438.439 411.884 425.69 433.049 390.772C448.177 365.811 447.82 335.549 434.871 310.283L325.813 315.834L328.725 423.04V423.022Z" fill="#FAFAFA"/>
<path d="M329.551 318.255L332.62 390.173L404.535 387.088L401.466 315.17L329.551 318.255Z" fill="#B7E589"/>
<path d="M328.19 328.547C334.503 328.547 339.62 323.416 339.62 317.087C339.62 310.758 334.503 305.627 328.19 305.627C321.877 305.627 316.759 310.758 316.759 317.087C316.759 323.416 321.877 328.547 328.19 328.547Z" fill="#FAFAFA"/>
<path d="M334.012 381.729C333.405 381.407 332.779 381.174 332.154 380.959L332.547 390.181L339.977 389.859C339.37 386.493 337.28 383.431 334.03 381.712L334.012 381.729Z" fill="#FAFAFA"/>
<path d="M396.827 384.917C396.399 385.74 396.095 386.6 395.881 387.459L404.579 387.083L404.24 379.097C401.168 379.849 398.417 381.873 396.827 384.917Z" fill="#FAFAFA"/>
<path d="M401.828 322.692L401.507 315.189L394.487 315.493C395.398 318.179 397.291 320.525 400.006 321.94C400.596 322.244 401.203 322.495 401.828 322.692Z" fill="#FAFAFA"/>
<path d="M364.053 356.857C368.512 356.857 372.127 353.234 372.127 348.764C372.127 344.294 368.512 340.67 364.053 340.67C359.595 340.67 355.98 344.294 355.98 348.764C355.98 353.234 359.595 356.857 364.053 356.857Z" fill="#FAFAFA"/>
</g>
<g filter="url(#filter0_d_1117_2768)">
<path fill-rule="evenodd" clip-rule="evenodd" d="M343.312 188.873C343.701 188.2 344.338 187.71 345.077 187.466C357.23 183.45 366 171.999 366 158.5C366 141.655 352.345 128 335.5 128C318.655 128 305 141.655 305 158.5C305 172.454 314.37 184.219 327.162 187.846C327.956 188.071 328.646 188.577 329.059 189.292L333.13 196.343C334.434 198.602 337.695 198.602 339 196.343L343.312 188.873Z" fill="white"/>
</g>
<circle cx="334.981" cy="157.981" r="25.9815" fill="#FF4E00"/>
<path d="M339.333 150.25V159.917H342.958V169.583H345.375V145.417C342.04 145.417 339.333 148.123 339.333 150.25ZM333.292 153.875H330.875V145.417H328.458V153.875H326.042V145.417H323.625V153.875C323.625 156.545 325.788 158.708 328.458 158.708V169.583H330.875V158.708C333.545 158.708 335.708 156.545 335.708 153.875V145.417H333.292V153.875Z" fill="#FAFAFA"/>
<path d="M326.406 214.695H324.422V204.203H326.406V214.695ZM322.359 206.828H314.781V205.234H322.359V206.828ZM314.414 211.344C316.039 211.339 317.516 211.315 318.844 211.273C320.172 211.232 321.414 211.148 322.57 211.023L322.656 212.477C321.469 212.669 320.193 212.799 318.828 212.867C317.469 212.935 316.07 212.969 314.633 212.969L314.414 211.344ZM317.859 211.562H315.93V206.633H317.859V211.562ZM321.188 211.562H319.281V206.633H321.188V211.562ZM325.484 208.32H322.617V206.719H325.484V208.32ZM325.484 211.18H322.617V209.547H325.484V211.18ZM326.742 218.195H316.945V216.586H326.742V218.195ZM318.961 217.797H316.945V213.906H318.961V217.797ZM336.064 210.93H329.127V204.93H336.064V210.93ZM331.08 209.383H334.095V206.508H331.08V209.383ZM340.283 211.406H338.306V204.203H340.283V211.406ZM340.283 215.844H332.752V217.336H330.783V214.43H338.33V213.555H330.775V212.016H340.283V215.844ZM340.673 218.336H330.783V216.773H340.673V218.336ZM350.042 210.93H343.105V204.93H350.042V210.93ZM345.058 209.383H348.073V206.508H345.058V209.383ZM354.261 211.406H352.284V204.203H354.261V211.406ZM354.261 215.844H346.73V217.336H344.761V214.43H352.308V213.555H344.753V212.016H354.261V215.844ZM354.652 218.336H344.761V216.773H354.652V218.336Z" fill="black"/>
<defs>
<filter id="filter0_d_1117_2768" x="300" y="125" width="69" height="78.0371" filterUnits="userSpaceOnUse" color-interpolation-filters="sRGB">
<feFlood flood-opacity="0" result="BackgroundImageFix"/>
<feColorMatrix in="SourceAlpha" type="matrix" values="0 0 0 0 0 0 0 0 0 0 0 0 0 0 0 0 0 0 127 0" result="hardAlpha"/>
<feOffset dx="-1" dy="1"/>
<feGaussianBlur stdDeviation="2"/>
<feComposite in2="hardAlpha" operator="out"/>
<feColorMatrix type="matrix" values="0 0 0 0 0 0 0 0 0 0 0 0 0 0 0 0 0 0 0.25 0"/>
<feBlend mode="normal" in2="BackgroundImageFix" result="effect1_dropShadow_1117_2768"/>
<feBlend mode="normal" in="SourceGraphic" in2="effect1_dropShadow_1117_2768" result="shape"/>
</filter>
<clipPath id="clip0_1117_2768">
<rect width="893.782" height="837.592" fill="white"/>
</clipPath>
</defs>
</svg>
