<svg width="894" height="838" viewBox="0 0 894 838" fill="none" xmlns="http://www.w3.org/2000/svg">
<g clip-path="url(#clip0_1117_2694)">
<path d="M562.163 200.731L626.462 216.238L663.969 282.492L673.953 286.073L708.621 282.492L640.75 203.704L553.233 178.635L547.875 167.891L503.223 121.334L481.79 117.753L462.144 212.657L404.525 201.913L318.044 207.285C318.044 207.285 283.555 212.657 254.978 241.307C226.401 269.957 221.043 300.398 221.043 300.398V403.056L260.336 531.391L263.908 533.182L313.918 576.158L394.291 622.714C394.291 622.714 406.794 630.378 423.761 627.442L481.808 622.714C481.808 622.714 519.316 622.177 540.748 600.063L610.405 522.438C610.405 522.438 626.48 508.113 626.48 477.672L621.121 338.002C621.121 338.002 622.907 320.095 612.191 303.98L588.972 250.26L556.823 234.968L562.181 200.731H562.163Z" fill="#FCDED0" stroke="#605B53" stroke-width="0.5" stroke-miterlimit="10"/>
<path d="M290.682 312.933C290.682 312.933 296.04 286.073 321.045 282.492L397.845 277.12L465.716 289.655L474.646 298.608L551.447 293.236L556.805 456.185C556.805 456.185 556.805 463.347 549.661 470.51L494.293 527.81C494.293 527.81 488.935 533.182 476.432 534.973L331.761 543.926H324.01L321.045 465.138L313.9 456.185L290.682 389.555V312.933Z" fill="#FFFAF8" stroke="#605B53" stroke-width="0.5" stroke-miterlimit="10"/>
<path d="M394.274 293.236L458.572 305.77L469.289 316.514L537.159 311.142L540.731 456.184L478.219 518.857L340.692 526.02L337.12 457.975L328.19 449.022L308.543 388.14V319.397C308.543 319.397 308.543 305.269 320.51 299.951C322.564 299.038 324.778 298.59 327.011 298.429L394.274 293.236Z" fill="#B7E589" stroke="#605B53" stroke-width="0.5" stroke-miterlimit="10"/>
<path d="M471.074 219.819L403.204 207.285H389.737L308.542 213.552C308.542 213.552 269.249 226.982 256.746 244.888C256.746 244.888 224.597 282.492 226.383 303.98L226.312 400.119L254.96 502.741L322.831 560.042L348.693 565.27V578.969H383.753L385.343 590.501H436.674L437.139 574.385H462.144V583.338H497.865L515.726 574.385L587.168 492.015L581.81 364.879L553.858 366.742L556.805 456.202C556.805 456.202 555.019 465.156 549.661 470.527L494.293 527.828C494.293 527.828 485.363 534.991 476.432 534.991L331.761 543.944H324.01L321.045 465.156L313.9 456.202L290.682 389.572V312.951C290.682 312.951 296.04 286.091 321.045 282.51L397.845 277.138L465.716 289.672L474.646 298.626L569.308 291.463L501.437 228.791C501.437 228.791 494.293 219.837 481.79 221.628L471.074 219.837V219.819Z" fill="#FFA47C" stroke="#605B53" stroke-width="0.5" stroke-miterlimit="10"/>
<path d="M531.801 237.726L528.229 244.889L571.094 286.073L596.099 284.283L588.955 264.586C588.955 264.586 585.383 257.423 580.024 257.423C574.666 257.423 531.801 237.726 531.801 237.726Z" stroke="#605B53" stroke-width="0.5" stroke-miterlimit="10"/>
<path d="M458.571 209.076L478.022 117.753L347.836 90.8931L345.639 117.753L353.194 119.543L345.639 121.155C345.639 121.155 267.463 123.125 201.378 184.007C135.294 244.888 133.508 332.63 133.508 332.63C133.508 332.63 133.508 370.234 137.08 388.14C140.652 406.046 172.801 524.229 172.801 524.229L256.746 531.391L217.453 404.256V298.608C217.453 298.608 226.383 262.795 251.388 239.517C276.393 216.238 299.612 207.285 315.686 203.704L403.203 198.332L458.571 209.076Z" fill="#FDFEFD" stroke="#605B53" stroke-width="0.5" stroke-miterlimit="10"/>
<path d="M448.909 837.144H407.937C407.937 837.144 388.915 810.732 367.482 792.825C367.482 792.825 354.98 782.941 367.482 765.5L448.909 837.144Z" fill="#CBE6BD" stroke="#605B53" stroke-width="0.5" stroke-miterlimit="10"/>
<path d="M662.576 0.465576H893.336V248.076C893.336 248.076 871.153 237.726 860.436 218.029L808.64 133.869L678.258 13.8954C678.258 13.8954 677.24 12.1048 662.576 0.465576Z" fill="#F0EEEB" stroke="#605B53" stroke-width="0.5" stroke-miterlimit="10"/>
<path d="M844.648 62.0458L844.362 26.4299H888.46V62.0458L893.336 64.9646V134.567L866.277 124.289L826.501 137.45L805.068 74.7773L844.648 62.0458Z" fill="#F9F7F3" stroke="#605B53" stroke-width="0.5" stroke-miterlimit="10"/>
<path d="M580.024 785.663H595.991L657.45 837.144H543.07L580.024 785.663Z" fill="#F0EEEB" stroke="#605B53" stroke-width="0.5" stroke-miterlimit="10"/>
<path d="M751.486 585.111L758.631 577.948L768.454 587.797L776.938 577.948L765.775 568.995L810.426 518.857L819.357 527.81L828.287 517.066L819.357 508.113L831.859 493.788H834.985V496.528L855.078 499.16L858.65 497.369L867.58 499.16L880.083 506.323L893.336 510.226V574.403L844.362 631.668L858.65 644.202L840.79 665.69L837.217 662.109L751.486 585.111Z" fill="#F0EEEB" stroke="#605B53" stroke-width="0.5" stroke-miterlimit="10"/>
<path d="M893.336 830.536L835.432 782.082V769.69L893.336 699.712V830.536Z" fill="#F0EEEB" stroke="#605B53" stroke-width="0.5" stroke-miterlimit="10"/>
<path d="M893.336 431.205H885.048L833.646 490.207H837.218L837.253 493.788L855.078 495.579L860.169 493.788L869.367 495.579L881.869 502.741L893.336 504.657V431.205Z" fill="#F0EEEB" stroke="#605B53" stroke-width="0.5" stroke-miterlimit="10"/>
<path d="M26.3442 96.265L10.2696 151.775L0.446289 148.534V90.8931L26.3442 96.265Z" fill="#D4E4BE" stroke="#605B53" stroke-width="0.5" stroke-miterlimit="10"/>
<path d="M29.9166 98.0557L13.3955 151.775L44.2051 160.728L58.4936 107.009L29.9166 98.0557Z" fill="#D4E4BE" stroke="#605B53" stroke-width="0.5" stroke-miterlimit="10"/>
<path d="M62.0658 107.009L45.9912 162.519L76.3543 171.472L92.4289 115.962L62.0658 107.009Z" fill="#D4E4BE" stroke="#605B53" stroke-width="0.5" stroke-miterlimit="10"/>
<path d="M837.217 350.537L863.49 377.289C863.49 377.289 867.58 382.768 862.222 388.14L846.148 406.047C846.148 406.047 839.128 416.79 839.968 406.047C839.968 406.047 842.575 364.933 833.645 355.049C833.645 355.049 831.859 350.537 837.217 350.537Z" fill="#CBE6BD" stroke="#605B53" stroke-width="0.5" stroke-miterlimit="10"/>
<path d="M893.336 291.159V273.754C893.336 273.754 885.442 273.539 880.083 268.167C880.083 268.167 874.725 268.167 878.297 273.539L893.336 291.159Z" fill="#AFD1F2" stroke="#605B53" stroke-width="0.5" stroke-miterlimit="10"/>
<path d="M328.725 423.022C367.59 438.439 411.884 425.69 433.049 390.772C448.177 365.811 447.82 335.549 434.871 310.283L325.813 315.834L328.725 423.04V423.022Z" fill="#FAFAFA"/>
<path d="M329.551 318.255L332.62 390.173L404.535 387.088L401.466 315.17L329.551 318.255Z" fill="#B7E589"/>
<path d="M328.19 328.547C334.503 328.547 339.62 323.416 339.62 317.087C339.62 310.758 334.503 305.627 328.19 305.627C321.877 305.627 316.759 310.758 316.759 317.087C316.759 323.416 321.877 328.547 328.19 328.547Z" fill="#FAFAFA"/>
<path d="M334.012 381.729C333.405 381.407 332.779 381.174 332.154 380.959L332.547 390.181L339.977 389.859C339.37 386.493 337.28 383.431 334.03 381.712L334.012 381.729Z" fill="#FAFAFA"/>
<path d="M396.827 384.917C396.399 385.74 396.095 386.6 395.881 387.459L404.579 387.083L404.24 379.097C401.168 379.849 398.417 381.873 396.827 384.917Z" fill="#FAFAFA"/>
<path d="M401.828 322.692L401.507 315.189L394.487 315.493C395.398 318.179 397.291 320.525 400.006 321.94C400.596 322.244 401.203 322.495 401.828 322.692Z" fill="#FAFAFA"/>
<path d="M364.053 356.857C368.512 356.857 372.127 353.234 372.127 348.764C372.127 344.294 368.512 340.67 364.053 340.67C359.595 340.67 355.98 344.294 355.98 348.764C355.98 353.234 359.595 356.857 364.053 356.857Z" fill="#FAFAFA"/>
</g>
<g filter="url(#filter0_d_1117_2694)">
<path fill-rule="evenodd" clip-rule="evenodd" d="M309.312 167.873C309.701 167.2 310.338 166.71 311.077 166.466C323.23 162.45 332 150.999 332 137.5C332 120.655 318.345 107 301.5 107C284.655 107 271 120.655 271 137.5C271 151.454 280.37 163.219 293.162 166.846C293.956 167.071 294.646 167.577 295.059 168.292L299.13 175.343C300.434 177.602 303.695 177.602 305 175.343L309.312 167.873Z" fill="white"/>
</g>
<circle cx="300.981" cy="136.981" r="25.9815" fill="#FF4E00"/>
<path d="M305.333 129.25V138.917H308.958V148.583H311.375V124.417C308.04 124.417 305.333 127.123 305.333 129.25ZM299.292 132.875H296.875V124.417H294.458V132.875H292.042V124.417H289.625V132.875C289.625 135.545 291.788 137.708 294.458 137.708V148.583H296.875V137.708C299.545 137.708 301.708 135.545 301.708 132.875V124.417H299.292V132.875Z" fill="#FAFAFA"/>
<path d="M269.711 184.555C269.711 185.383 269.552 186.146 269.234 186.844C268.922 187.542 268.456 188.143 267.836 188.648C267.216 189.148 266.453 189.513 265.547 189.742L264.602 188.203C265.378 188.016 266.023 187.737 266.539 187.367C267.06 186.997 267.445 186.57 267.695 186.086C267.945 185.602 268.07 185.091 268.07 184.555V183.797H269.711V184.555ZM270.141 184.555C270.141 185.065 270.26 185.542 270.5 185.984C270.745 186.422 271.12 186.81 271.625 187.148C272.135 187.487 272.768 187.74 273.523 187.906L272.617 189.477C271.711 189.253 270.951 188.909 270.336 188.445C269.727 187.977 269.268 187.411 268.961 186.75C268.659 186.089 268.508 185.357 268.508 184.555V183.797H270.141V184.555ZM270.148 197.023H268.148V191.195H270.148V197.023ZM276.406 197.43H274.422V183.234H276.406V197.43ZM264.453 190.633C266.161 190.638 267.771 190.612 269.281 190.555C270.797 190.492 272.229 190.365 273.578 190.172L273.703 191.602C272.328 191.878 270.911 192.057 269.453 192.141C268 192.219 266.417 192.258 264.703 192.258L264.453 190.633ZM290.298 191.664H288.306V183.234H290.298V191.664ZM280.4 189.539C281.952 189.544 283.207 189.523 284.166 189.477C285.124 189.424 286.093 189.318 287.072 189.156L287.314 190.758C286.283 190.914 285.254 191.023 284.228 191.086C283.202 191.143 281.926 191.172 280.4 191.172H279.15V189.539H280.4ZM285.72 188.312H281.111V190.539H279.15V186.789H283.752V185.609H279.134V184.047H285.72V188.312ZM290.298 197.281H280.775V192.281H290.298V197.281ZM282.736 195.68H288.345V193.867H282.736V195.68ZM305.386 195.781H292.386V194.141H305.386V195.781ZM304.3 186.062H293.394V184.461H304.3V186.062ZM304.237 191.945H293.464V190.367H304.237V191.945ZM297.355 190.523H295.362V185.906H297.355V190.523ZM302.3 190.523H300.339V185.906H302.3V190.523ZM318.327 187.867H315.959V186.273H318.327V187.867ZM314.256 187.07C314.256 188.195 314.147 189.25 313.928 190.234C313.709 191.214 313.363 192.094 312.889 192.875C312.42 193.656 311.821 194.266 311.092 194.703L309.881 193.242C310.553 192.852 311.103 192.331 311.53 191.68C311.957 191.029 312.267 190.315 312.459 189.539C312.652 188.758 312.748 187.935 312.748 187.07V184.438H314.256V187.07ZM314.678 187.07C314.678 187.909 314.761 188.695 314.928 189.43C315.1 190.164 315.379 190.846 315.764 191.477C316.155 192.102 316.662 192.609 317.287 193L316.155 194.531C315.441 194.083 314.866 193.474 314.428 192.703C313.996 191.932 313.683 191.076 313.491 190.133C313.303 189.19 313.209 188.169 313.209 187.07V184.438H314.678V187.07ZM318.327 191.047H315.959V189.414H318.327V191.047ZM322.537 197.438H320.623V183.203H322.537V197.438ZM319.561 196.781H317.694V183.422H319.561V196.781ZM337.195 195.781H324.195V194.141H337.195V195.781ZM336.109 186.062H325.203V184.461H336.109V186.062ZM336.047 191.945H325.273V190.367H336.047V191.945ZM329.164 190.523H327.172V185.906H329.164V190.523ZM334.109 190.523H332.148V185.906H334.109V190.523Z" fill="black"/>
<defs>
<filter id="filter0_d_1117_2694" x="266" y="104" width="69" height="78.0369" filterUnits="userSpaceOnUse" color-interpolation-filters="sRGB">
<feFlood flood-opacity="0" result="BackgroundImageFix"/>
<feColorMatrix in="SourceAlpha" type="matrix" values="0 0 0 0 0 0 0 0 0 0 0 0 0 0 0 0 0 0 127 0" result="hardAlpha"/>
<feOffset dx="-1" dy="1"/>
<feGaussianBlur stdDeviation="2"/>
<feComposite in2="hardAlpha" operator="out"/>
<feColorMatrix type="matrix" values="0 0 0 0 0 0 0 0 0 0 0 0 0 0 0 0 0 0 0.25 0"/>
<feBlend mode="normal" in2="BackgroundImageFix" result="effect1_dropShadow_1117_2694"/>
<feBlend mode="normal" in="SourceGraphic" in2="effect1_dropShadow_1117_2694" result="shape"/>
</filter>
<clipPath id="clip0_1117_2694">
<rect width="893.782" height="837.592" fill="white"/>
</clipPath>
</defs>
</svg>
