<svg width="894" height="838" viewBox="0 0 894 838" fill="none" xmlns="http://www.w3.org/2000/svg">
<g clip-path="url(#clip0_1117_2624)">
<path d="M562.163 200.731L626.462 216.238L663.969 282.492L673.953 286.073L708.621 282.492L640.75 203.704L553.233 178.635L547.875 167.891L503.223 121.334L481.79 117.753L462.144 212.657L404.525 201.913L318.044 207.285C318.044 207.285 283.555 212.657 254.978 241.307C226.401 269.958 221.043 300.399 221.043 300.399V403.056L260.336 531.392L263.908 533.182L313.918 576.158L394.291 622.715C394.291 622.715 406.794 630.378 423.761 627.442L481.808 622.715C481.808 622.715 519.316 622.177 540.748 600.063L610.405 522.438C610.405 522.438 626.48 508.113 626.48 477.672L621.121 338.002C621.121 338.002 622.907 320.096 612.191 303.98L588.972 250.261L556.823 234.968L562.181 200.731H562.163Z" fill="#FCDED0" stroke="#605B53" stroke-width="0.5" stroke-miterlimit="10"/>
<path d="M290.682 312.933C290.682 312.933 296.04 286.073 321.045 282.492L397.845 277.12L465.716 289.655L474.646 298.608L551.447 293.236L556.805 456.185C556.805 456.185 556.805 463.347 549.661 470.51L494.293 527.81C494.293 527.81 488.935 533.182 476.432 534.973L331.761 543.926H324.01L321.045 465.138L313.9 456.185L290.682 389.555V312.933Z" fill="#FFFAF8" stroke="#605B53" stroke-width="0.5" stroke-miterlimit="10"/>
<path d="M394.274 293.236L458.572 305.77L469.289 316.514L537.159 311.142L540.731 456.184L478.219 518.857L340.692 526.02L337.12 457.975L328.19 449.022L308.543 388.14V319.397C308.543 319.397 308.543 305.269 320.51 299.951C322.564 299.038 324.778 298.59 327.011 298.429L394.274 293.236Z" fill="#B7E589" stroke="#605B53" stroke-width="0.5" stroke-miterlimit="10"/>
<path d="M471.074 219.82L403.204 207.285H389.737L308.542 213.552C308.542 213.552 269.249 226.982 256.746 244.889C256.746 244.889 224.597 282.492 226.383 303.98L226.312 400.12L254.96 502.741L322.831 560.042L348.693 565.271V578.969H383.753L385.343 590.501H436.674L437.139 574.385H462.144V583.338H497.865L515.726 574.385L587.168 492.015L581.81 364.88L553.858 366.742L556.805 456.203C556.805 456.203 555.019 465.156 549.661 470.528L494.293 527.828C494.293 527.828 485.363 534.991 476.432 534.991L331.761 543.944H324.01L321.045 465.156L313.9 456.203L290.682 389.573V312.951C290.682 312.951 296.04 286.091 321.045 282.51L397.845 277.138L465.716 289.673L474.646 298.626L569.308 291.463L501.437 228.791C501.437 228.791 494.293 219.838 481.79 221.628L471.074 219.838V219.82Z" fill="#FFA47C" stroke="#605B53" stroke-width="0.5" stroke-miterlimit="10"/>
<path d="M531.801 237.726L528.229 244.889L571.094 286.073L596.099 284.283L588.955 264.586C588.955 264.586 585.383 257.423 580.024 257.423C574.666 257.423 531.801 237.726 531.801 237.726Z" stroke="#605B53" stroke-width="0.5" stroke-miterlimit="10"/>
<path d="M458.571 209.076L478.022 117.753L347.836 90.8931L345.639 117.753L353.194 119.543L345.639 121.155C345.639 121.155 267.463 123.125 201.378 184.007C135.294 244.888 133.508 332.63 133.508 332.63C133.508 332.63 133.508 370.234 137.08 388.14C140.652 406.046 172.801 524.229 172.801 524.229L256.746 531.391L217.453 404.256V298.608C217.453 298.608 226.383 262.795 251.388 239.517C276.393 216.238 299.612 207.285 315.686 203.704L403.203 198.332L458.571 209.076Z" fill="#FDFEFD" stroke="#605B53" stroke-width="0.5" stroke-miterlimit="10"/>
<path d="M448.909 837.144H407.937C407.937 837.144 388.915 810.732 367.482 792.825C367.482 792.825 354.98 782.941 367.482 765.5L448.909 837.144Z" fill="#CBE6BD" stroke="#605B53" stroke-width="0.5" stroke-miterlimit="10"/>
<path d="M149.583 28.2207L188.876 37.1739C188.876 37.1739 158.513 53.2897 147.797 67.6149L151.369 46.1271C151.369 46.1271 153.155 37.1739 149.583 28.2207Z" fill="#CBE6BD" stroke="#605B53" stroke-width="0.5" stroke-miterlimit="10"/>
<path d="M662.576 0.465332H893.336V248.076C893.336 248.076 871.153 237.726 860.436 218.029L808.64 133.868L678.258 13.8952C678.258 13.8952 677.24 12.1045 662.576 0.465332Z" fill="#F0EEEB" stroke="#605B53" stroke-width="0.5" stroke-miterlimit="10"/>
<path d="M844.648 62.0456L844.362 26.4297H888.46V62.0456L893.336 64.9643V134.567L866.277 124.288L826.501 137.45L805.068 74.7771L844.648 62.0456Z" fill="#F9F7F3" stroke="#605B53" stroke-width="0.5" stroke-miterlimit="10"/>
<path d="M580.024 785.663H595.991L657.45 837.144H543.07L580.024 785.663Z" fill="#F0EEEB" stroke="#605B53" stroke-width="0.5" stroke-miterlimit="10"/>
<path d="M751.486 585.111L758.631 577.948L768.454 587.797L776.938 577.948L765.775 568.995L810.426 518.857L819.357 527.81L828.287 517.066L819.357 508.113L831.859 493.788H834.985V496.528L855.078 499.16L858.65 497.369L867.58 499.16L880.083 506.323L893.336 510.226V574.403L844.362 631.668L858.65 644.202L840.79 665.69L837.217 662.109L751.486 585.111Z" fill="#F0EEEB" stroke="#605B53" stroke-width="0.5" stroke-miterlimit="10"/>
<path d="M893.336 830.536L835.432 782.082V769.69L893.336 699.712V830.536Z" fill="#F0EEEB" stroke="#605B53" stroke-width="0.5" stroke-miterlimit="10"/>
<path d="M893.336 431.205H885.048L833.646 490.207H837.218L837.253 493.788L855.078 495.579L860.169 493.788L869.367 495.579L881.869 502.741L893.336 504.657V431.205Z" fill="#F0EEEB" stroke="#605B53" stroke-width="0.5" stroke-miterlimit="10"/>
<path d="M92.4286 26.1792L88.8564 38.9644L106.717 44.0498L110.289 30.0112L92.4286 26.1792Z" fill="#D4E4BE" stroke="#605B53" stroke-width="0.5" stroke-miterlimit="10"/>
<path d="M837.217 350.537L863.49 377.289C863.49 377.289 867.58 382.768 862.222 388.14L846.148 406.047C846.148 406.047 839.128 416.79 839.968 406.047C839.968 406.047 842.575 364.933 833.645 355.049C833.645 355.049 831.859 350.537 837.217 350.537Z" fill="#CBE6BD" stroke="#605B53" stroke-width="0.5" stroke-miterlimit="10"/>
<path d="M893.336 291.159V273.754C893.336 273.754 885.442 273.539 880.083 268.167C880.083 268.167 874.725 268.167 878.297 273.539L893.336 291.159Z" fill="#AFD1F2" stroke="#605B53" stroke-width="0.5" stroke-miterlimit="10"/>
<path d="M328.725 423.022C367.59 438.439 411.884 425.69 433.049 390.772C448.177 365.811 447.82 335.549 434.871 310.283L325.813 315.834L328.725 423.04V423.022Z" fill="#FAFAFA"/>
<path d="M329.551 318.255L332.62 390.173L404.535 387.088L401.466 315.17L329.551 318.255Z" fill="#B7E589"/>
<path d="M328.19 328.547C334.503 328.547 339.62 323.416 339.62 317.087C339.62 310.758 334.503 305.627 328.19 305.627C321.877 305.627 316.759 310.758 316.759 317.087C316.759 323.416 321.877 328.547 328.19 328.547Z" fill="#FAFAFA"/>
<path d="M334.012 381.729C333.405 381.407 332.779 381.174 332.154 380.959L332.547 390.181L339.977 389.859C339.37 386.493 337.28 383.431 334.03 381.712L334.012 381.729Z" fill="#FAFAFA"/>
<path d="M396.827 384.917C396.399 385.74 396.095 386.6 395.881 387.459L404.579 387.083L404.24 379.097C401.168 379.849 398.417 381.873 396.827 384.917Z" fill="#FAFAFA"/>
<path d="M401.828 322.692L401.507 315.189L394.487 315.493C395.398 318.179 397.291 320.525 400.006 321.94C400.596 322.244 401.203 322.495 401.828 322.692Z" fill="#FAFAFA"/>
<path d="M364.053 356.857C368.512 356.857 372.127 353.234 372.127 348.764C372.127 344.294 368.512 340.67 364.053 340.67C359.595 340.67 355.98 344.294 355.98 348.764C355.98 353.234 359.595 356.857 364.053 356.857Z" fill="#FAFAFA"/>
</g>
<g filter="url(#filter0_d_1117_2624)">
<path fill-rule="evenodd" clip-rule="evenodd" d="M203.312 371.873C203.701 371.2 204.338 370.71 205.077 370.466C217.23 366.45 226 354.999 226 341.5C226 324.655 212.345 311 195.5 311C178.655 311 165 324.655 165 341.5C165 355.454 174.37 367.219 187.162 370.846C187.956 371.071 188.646 371.577 189.059 372.292L193.13 379.343C194.434 381.602 197.695 381.602 199 379.343L203.312 371.873Z" fill="white"/>
</g>
<circle cx="194.981" cy="340.981" r="25.9815" fill="#FF4E00"/>
<path d="M199.333 333.25V342.917H202.958V352.583H205.375V328.417C202.04 328.417 199.333 331.123 199.333 333.25ZM193.292 336.875H190.875V328.417H188.458V336.875H186.042V328.417H183.625V336.875C183.625 339.545 185.788 341.708 188.458 341.708V352.583H190.875V341.708C193.545 341.708 195.708 339.545 195.708 336.875V328.417H193.292V336.875Z" fill="#FAFAFA"/>
<path d="M170.023 401.438H167.992V387.203H170.023V401.438ZM171.641 394.211H169.117V392.555H171.641V394.211ZM161.617 390.812C161.617 391.932 161.557 392.951 161.438 393.867C161.318 394.779 161.096 395.622 160.773 396.398C160.451 397.174 159.992 397.799 159.398 398.273L158.07 396.93C158.643 396.466 159.083 395.909 159.391 395.258C159.703 394.607 159.911 393.924 160.016 393.211C160.12 392.497 160.172 391.698 160.172 390.812V388.344H161.617V390.812ZM162.039 390.812C162.039 391.667 162.089 392.458 162.188 393.188C162.292 393.911 162.497 394.612 162.805 395.289C163.112 395.966 163.557 396.542 164.141 397.016L163.055 398.461C162.398 397.977 161.891 397.323 161.531 396.5C161.177 395.677 160.94 394.797 160.82 393.859C160.701 392.922 160.641 391.906 160.641 390.812V388.344H162.039V390.812ZM165.477 390.812C165.477 391.927 165.414 392.953 165.289 393.891C165.164 394.828 164.922 395.706 164.562 396.523C164.208 397.336 163.706 397.982 163.055 398.461L161.984 397.016C162.557 396.552 162.995 395.987 163.297 395.32C163.599 394.648 163.802 393.948 163.906 393.219C164.01 392.49 164.062 391.688 164.062 390.812V388.344H165.477V390.812ZM165.945 390.812C165.945 391.698 165.997 392.503 166.102 393.227C166.206 393.945 166.411 394.63 166.719 395.281C167.031 395.927 167.471 396.477 168.039 396.93L166.812 398.352C166.203 397.867 165.729 397.232 165.391 396.445C165.052 395.654 164.823 394.799 164.703 393.883C164.589 392.966 164.531 391.943 164.531 390.812V388.344H165.945V390.812ZM179.861 396.883H177.877V394.609H179.861V396.883ZM178.884 387.398C179.931 387.398 180.843 387.51 181.619 387.734C182.4 387.958 182.999 388.276 183.416 388.688C183.837 389.099 184.048 389.594 184.048 390.172C184.048 390.724 183.837 391.206 183.416 391.617C182.999 392.023 182.4 392.336 181.619 392.555C180.843 392.773 179.931 392.883 178.884 392.883C177.843 392.883 176.931 392.773 176.15 392.555C175.369 392.336 174.765 392.023 174.337 391.617C173.91 391.206 173.697 390.724 173.697 390.172C173.697 389.599 173.91 389.107 174.337 388.695C174.765 388.279 175.369 387.958 176.15 387.734C176.931 387.51 177.843 387.398 178.884 387.398ZM178.884 388.938C178.218 388.932 177.653 388.977 177.189 389.07C176.726 389.159 176.371 389.297 176.127 389.484C175.887 389.667 175.767 389.896 175.767 390.172C175.767 390.427 175.887 390.643 176.127 390.82C176.371 390.997 176.726 391.133 177.189 391.227C177.653 391.315 178.218 391.359 178.884 391.359C179.541 391.359 180.101 391.315 180.564 391.227C181.028 391.133 181.382 390.997 181.627 390.82C181.871 390.643 181.994 390.427 181.994 390.172C181.994 389.896 181.871 389.667 181.627 389.484C181.382 389.297 181.028 389.159 180.564 389.07C180.101 388.977 179.541 388.932 178.884 388.938ZM183.822 401.281H173.908V396.43H183.822V401.281ZM175.869 399.68H181.869V398.008H175.869V399.68ZM185.377 395.203H172.408V393.609H185.377V395.203ZM190.987 388.164C191.732 388.164 192.404 388.315 193.003 388.617C193.602 388.914 194.071 389.328 194.409 389.859C194.753 390.385 194.925 390.984 194.925 391.656C194.925 392.328 194.753 392.93 194.409 393.461C194.071 393.987 193.602 394.401 193.003 394.703C192.409 395 191.737 395.148 190.987 395.148C190.248 395.148 189.576 395 188.972 394.703C188.368 394.401 187.894 393.987 187.55 393.461C187.206 392.93 187.034 392.328 187.034 391.656C187.034 390.984 187.206 390.385 187.55 389.859C187.894 389.328 188.368 388.914 188.972 388.617C189.576 388.315 190.248 388.164 190.987 388.164ZM190.987 389.883C190.607 389.883 190.269 389.953 189.972 390.094C189.675 390.234 189.441 390.44 189.269 390.711C189.097 390.977 189.011 391.292 189.011 391.656C189.011 392.026 189.097 392.344 189.269 392.609C189.441 392.87 189.675 393.073 189.972 393.219C190.269 393.359 190.607 393.43 190.987 393.43C191.368 393.43 191.709 393.359 192.011 393.219C192.318 393.073 192.555 392.87 192.722 392.609C192.894 392.344 192.98 392.026 192.98 391.656C192.98 391.292 192.894 390.977 192.722 390.711C192.555 390.44 192.318 390.234 192.011 390.094C191.709 389.953 191.368 389.883 190.987 389.883ZM198.323 401.477H196.347V387.203H198.323V401.477ZM186.441 396.945C187.586 396.94 188.628 396.927 189.566 396.906C190.503 396.885 191.498 396.844 192.55 396.781C193.607 396.714 194.605 396.617 195.542 396.492L195.683 397.922C194.719 398.109 193.714 398.25 192.667 398.344C191.62 398.438 190.636 398.497 189.714 398.523C188.797 398.549 187.784 398.562 186.675 398.562L186.441 396.945ZM214.655 390.023H205.545V388.445H214.655V390.023ZM217.186 399.695H204.217V398.078H217.186V399.695ZM210.834 398.906H208.858V393.188H210.834V398.906ZM215.92 389.797C215.92 390.63 215.91 391.341 215.889 391.93C215.868 392.513 215.819 393.206 215.741 394.008C215.662 394.805 215.537 395.669 215.366 396.602L213.342 396.391C213.524 395.521 213.657 394.701 213.741 393.93C213.824 393.154 213.873 392.469 213.889 391.875C213.91 391.276 213.92 390.583 213.92 389.797V388.445H215.92V389.797ZM225.383 388.328C225.383 389.234 225.146 390.078 224.672 390.859C224.198 391.635 223.513 392.286 222.617 392.812C221.727 393.339 220.68 393.69 219.477 393.867L218.695 392.266C219.727 392.141 220.617 391.875 221.367 391.469C222.117 391.057 222.682 390.578 223.062 390.031C223.443 389.479 223.633 388.911 223.633 388.328V387.633H225.383V388.328ZM225.727 388.328C225.727 388.911 225.919 389.479 226.305 390.031C226.695 390.583 227.266 391.062 228.016 391.469C228.771 391.875 229.664 392.141 230.695 392.266L229.922 393.867C228.714 393.69 227.661 393.339 226.766 392.812C225.87 392.286 225.182 391.635 224.703 390.859C224.224 390.083 223.984 389.24 223.984 388.328V387.633H225.727V388.328ZM225.625 401.438H223.648V396.211H225.625V401.438ZM231.164 396.578H218.195V394.945H231.164V396.578Z" fill="black"/>
<defs>
<filter id="filter0_d_1117_2624" x="160" y="308" width="69" height="78.0371" filterUnits="userSpaceOnUse" color-interpolation-filters="sRGB">
<feFlood flood-opacity="0" result="BackgroundImageFix"/>
<feColorMatrix in="SourceAlpha" type="matrix" values="0 0 0 0 0 0 0 0 0 0 0 0 0 0 0 0 0 0 127 0" result="hardAlpha"/>
<feOffset dx="-1" dy="1"/>
<feGaussianBlur stdDeviation="2"/>
<feComposite in2="hardAlpha" operator="out"/>
<feColorMatrix type="matrix" values="0 0 0 0 0 0 0 0 0 0 0 0 0 0 0 0 0 0 0.25 0"/>
<feBlend mode="normal" in2="BackgroundImageFix" result="effect1_dropShadow_1117_2624"/>
<feBlend mode="normal" in="SourceGraphic" in2="effect1_dropShadow_1117_2624" result="shape"/>
</filter>
<clipPath id="clip0_1117_2624">
<rect width="893.782" height="837.592" fill="white"/>
</clipPath>
</defs>
</svg>
