<svg width="757" height="685" viewBox="0 0 757 685" fill="none" xmlns="http://www.w3.org/2000/svg">
<path d="M80.458 445.268L165.95 207.562C165.95 207.562 192.073 157.035 259.755 144.404C327.436 131.772 373.745 178.854 373.745 178.854L524.544 379.813C524.544 379.813 540.17 579.36 351.184 617.519C135.078 661.156 80.458 445.268 80.458 445.268Z" fill="#FFFAF8" stroke="#605B53" stroke-width="0.5" stroke-miterlimit="10"/>
<path d="M122.017 475.125C122.017 475.125 167.138 612.925 342.872 589.959C342.872 589.959 487.734 564.695 496.046 420.005L321.499 232.826C321.499 232.826 298.938 212.156 268.066 219.046C237.194 225.936 230.07 248.903 230.07 248.903L122.017 475.125Z" fill="#B7E589" stroke="#605B53" stroke-width="0.5" stroke-miterlimit="10"/>
<path d="M100.644 471.68L214.634 232.826C214.634 232.826 232.445 202.969 265.692 197.227C298.939 191.486 327.436 211.007 327.436 211.007L515.045 409.67H522.169C522.169 409.67 524.544 386.91 522.169 380.49L479.423 323.544L472.299 330.434L345.366 196.171C345.366 196.171 310.813 168.519 263.317 176.557C215.821 184.596 194.448 221.342 194.448 221.342L118.016 382.799L107.768 378.665L84.0205 446.417L92.8666 471.68H100.644Z" fill="#FFC8AF" stroke="#605B53" stroke-width="0.5" stroke-miterlimit="10"/>
<path d="M107.768 375.219L117.267 378.664L190.885 221.342C190.885 221.342 219.383 171.963 281.127 173.112C281.127 173.112 315.562 171.963 345.247 192.633L472.298 326.989L478.235 321.247L371.369 180.002C371.369 180.002 315.562 126.03 244.318 151.293C244.318 151.293 199.197 162.777 170.7 205.265L107.768 375.219Z" fill="#FFA47C" stroke="#605B53" stroke-width="0.5" stroke-miterlimit="10"/>
<path d="M461.612 291.391L481.798 277.611L390.368 153.59C390.368 153.59 361.871 129.475 342.872 127.179L314.375 95.0252L275.191 92.7285V117.085C275.191 117.085 269.254 117.992 257.38 119.14C245.506 120.289 239.569 122.585 239.569 122.585L231.257 100.767L194.448 113.399L177.824 152.442C177.824 152.442 149.208 175.409 139.768 192.06L92.332 336.176L113.705 343.066L163.576 207.562C163.576 207.562 186.813 156.174 259.494 142.256C259.494 142.256 329.811 128.327 376.119 177.705L461.612 291.391Z" fill="#FFFAF8" stroke="#605B53" stroke-width="0.5" stroke-miterlimit="10"/>
<path d="M756.68 561.767L744.093 555.922C740.27 554.142 736.126 553.143 731.887 552.982C721.699 552.592 702.653 550.915 699.091 550.915C697.904 550.915 695.184 551.237 692.964 552.35C688.392 554.647 684.605 558.161 681.791 562.33L661.415 592.542C661.415 592.542 652.248 602.82 661.415 615.911C667.566 624.696 679.748 635.858 687.098 642.254C692.216 646.709 698.2 650.143 704.731 652.279C709.872 653.955 716.249 655.425 722.839 655.425C722.839 655.425 729.963 656.574 728.776 672.65C728.776 672.65 731.151 679.54 746.587 679.54L756.68 675.188V561.778V561.767Z" fill="#E2F0DB" stroke="#605B53" stroke-width="0.5" stroke-miterlimit="10"/>
<path d="M674.155 163.925L697.903 143.255L709.777 157.035L684.842 176.557L674.155 163.925Z" stroke="#605B53" stroke-width="0.5" stroke-miterlimit="10"/>
<path d="M687.514 182.023L710.965 163.925H716.082L724.026 172.974L722.839 175.408L724.786 176.557H726.864L733.525 184.595L706.215 205.265L687.514 182.023Z" stroke="#605B53" stroke-width="0.5" stroke-miterlimit="10"/>
<path d="M708.59 208.71L732.338 190.337H738.215L753.711 209.859L727.244 231.103L708.59 208.71Z" stroke="#605B53" stroke-width="0.5" stroke-miterlimit="10"/>
<path d="M719.276 245.457L683.654 274.165L709.777 303.666L745.019 274.556L719.276 245.457Z" stroke="#605B53" stroke-width="0.5" stroke-miterlimit="10"/>
<path d="M715.714 302.874L748.807 344.673L756.679 339.517V280.435L753.711 282.261L748.961 277.61L725.213 297.132L722.838 294.835L715.714 302.874Z" stroke="#605B53" stroke-width="0.5" stroke-miterlimit="10"/>
<path d="M756.68 215.497L734.713 233.974L756.68 258.296V215.497Z" stroke="#605B53" stroke-width="0.5" stroke-miterlimit="10"/>
<path d="M672.968 59.426L698.556 39.9043L710.288 53.6843L691.622 68.7276L689.591 65.1677L682.039 72.0577L676.53 67.4644L675.936 64.8232L672.968 59.426Z" stroke="#605B53" stroke-width="0.5" stroke-miterlimit="10"/>
<path d="M680.093 82.3934L710.787 58.2783L746.599 101.812L715.715 126.03L690.779 95.0251H688.405L680.093 84.2193V82.3934Z" stroke="#605B53" stroke-width="0.5" stroke-miterlimit="10"/>
<path d="M691.621 0.287109L681.279 10.048C681.279 10.048 705.027 36.4597 705.027 37.6081H707.699L721.651 26.1247L699.625 0.287109H691.621Z" stroke="#605B53" stroke-width="0.5" stroke-miterlimit="10"/>
<path d="M710.288 0.287109L726.401 18.0863L741.837 5.45463L736.708 0.287109H710.288Z" stroke="#605B53" stroke-width="0.5" stroke-miterlimit="10"/>
<path d="M713.352 45.8072L727.588 34.1631L752.524 62.8715L739.462 73.2066L728.776 61.7232L726.057 63.7328L719.68 55.9815L720.464 54.8332L713.352 45.8072Z" stroke="#605B53" stroke-width="0.5" stroke-miterlimit="10"/>
<path d="M756.086 22.6792L751.336 16.9375L734.713 29.5692L746.587 43.3493L745.399 45.4392L752.524 53.1216L754.899 52.536L756.68 55.981L756.086 22.6792Z" stroke="#605B53" stroke-width="0.5" stroke-miterlimit="10"/>
<path d="M215.488 347.027C237.574 382.855 281.781 399.782 321 385.141C349.046 374.679 367.76 350.61 373.056 322.797L280.451 260.741L215.488 347.016V347.027Z" fill="#E2F0DB" stroke="#605B53" stroke-width="0.5" stroke-miterlimit="10"/>
<path d="M281.911 264.912L239.246 323.469L300.056 364.908L342.721 306.352L281.911 264.912Z" fill="#D4E4BE" stroke="#605B53" stroke-width="0.5" stroke-miterlimit="10"/>
<path d="M245.755 317.688C247.346 321.018 247.132 324.704 245.505 327.736L292.704 359.901C293.429 359.349 294.212 358.856 295.079 358.477C298.285 357.041 301.8 357.133 304.792 358.408L338.265 312.463C337.885 311.935 337.54 311.372 337.255 310.763C335.937 307.996 335.866 304.987 336.804 302.312L281.911 264.91L244.722 315.965C245.114 316.505 245.47 317.079 245.767 317.699L245.755 317.688Z" stroke="#605B53" stroke-width="0.5" stroke-miterlimit="10"/>
<path d="M245.755 317.688C245.458 317.068 245.102 316.494 244.71 315.954L239.236 323.464L245.506 327.736C247.133 324.716 247.346 321.018 245.755 317.688Z" fill="#E2F0DB" stroke="#605B53" stroke-width="0.5" stroke-miterlimit="10"/>
<path d="M295.092 358.465C294.225 358.856 293.429 359.338 292.717 359.889L300.067 364.896L304.804 358.385C301.812 357.11 298.298 357.03 295.092 358.454V358.465Z" fill="#E2F0DB" stroke="#605B53" stroke-width="0.5" stroke-miterlimit="10"/>
<path d="M338.277 312.451L342.73 306.342L336.805 302.312C335.867 304.987 335.938 307.996 337.256 310.763C337.541 311.372 337.897 311.923 338.265 312.463L338.277 312.451Z" fill="#E2F0DB" stroke="#605B53" stroke-width="0.5" stroke-miterlimit="10"/>
<path d="M291.019 318.055C295.616 318.055 299.343 314.451 299.343 310.005C299.343 305.559 295.616 301.955 291.019 301.955C286.422 301.955 282.695 305.559 282.695 310.005C282.695 314.451 286.422 318.055 291.019 318.055Z" fill="#E2F0DB" stroke="#605B53" stroke-width="0.5" stroke-miterlimit="10"/>
<path d="M281.614 274.602C288.133 274.602 293.417 269.492 293.417 263.188C293.417 256.884 288.133 251.773 281.614 251.773C275.096 251.773 269.812 256.884 269.812 263.188C269.812 269.492 275.096 274.602 281.614 274.602Z" fill="#E2F0DB" stroke="#605B53" stroke-width="0.5" stroke-miterlimit="10"/>
<g filter="url(#filter0_d_1117_2549)">
<path fill-rule="evenodd" clip-rule="evenodd" d="M430.312 297.873C430.701 297.2 431.338 296.71 432.077 296.466C444.23 292.45 453 280.999 453 267.5C453 250.655 439.345 237 422.5 237C405.655 237 392 250.655 392 267.5C392 281.454 401.37 293.219 414.162 296.846C414.956 297.071 415.646 297.577 416.059 298.292L420.13 305.343C421.434 307.602 424.695 307.602 426 305.343L430.312 297.873Z" fill="white"/>
</g>
<circle cx="421.981" cy="266.981" r="25.9815" fill="#FF4E00"/>
<path d="M426.333 259.25V268.917H429.958V278.584H432.375V254.417C429.04 254.417 426.333 257.124 426.333 259.25ZM420.292 262.875H417.875V254.417H415.458V262.875H413.042V254.417H410.625V262.875C410.625 265.546 412.788 267.709 415.458 267.709V278.584H417.875V267.709C420.545 267.709 422.708 265.546 422.708 262.875V254.417H420.292V262.875Z" fill="#FAFAFA"/>
<path d="M402.086 326.156C401.263 326.156 400.526 326.016 399.875 325.734C399.224 325.453 398.714 325.057 398.344 324.547C397.979 324.036 397.789 323.458 397.773 322.812H400.141C400.156 323.078 400.25 323.318 400.422 323.531C400.594 323.745 400.826 323.911 401.117 324.031C401.409 324.151 401.732 324.211 402.086 324.211C402.456 324.211 402.789 324.146 403.086 324.016C403.388 323.88 403.62 323.698 403.781 323.469C403.943 323.234 404.021 322.969 404.016 322.672C404.021 322.365 403.938 322.091 403.766 321.852C403.594 321.612 403.344 321.427 403.016 321.297C402.693 321.161 402.312 321.094 401.875 321.094H400.82V319.359H401.875C402.245 319.359 402.576 319.297 402.867 319.172C403.159 319.042 403.383 318.862 403.539 318.633C403.695 318.404 403.771 318.143 403.766 317.852C403.771 317.565 403.706 317.312 403.57 317.094C403.435 316.87 403.24 316.698 402.984 316.578C402.729 316.458 402.438 316.398 402.109 316.398C401.776 316.398 401.471 316.458 401.195 316.578C400.919 316.693 400.695 316.859 400.523 317.078C400.357 317.292 400.266 317.542 400.25 317.828H398C398.021 317.188 398.211 316.617 398.57 316.117C398.93 315.617 399.417 315.229 400.031 314.953C400.651 314.672 401.344 314.531 402.109 314.531C402.885 314.531 403.57 314.669 404.164 314.945C404.758 315.221 405.219 315.602 405.547 316.086C405.875 316.57 406.034 317.112 406.023 317.711C406.034 318.122 405.948 318.497 405.766 318.836C405.589 319.174 405.336 319.453 405.008 319.672C404.685 319.885 404.31 320.031 403.883 320.109V320.195C404.435 320.263 404.904 320.417 405.289 320.656C405.68 320.891 405.974 321.193 406.172 321.562C406.37 321.932 406.464 322.354 406.453 322.828C406.464 323.458 406.281 324.029 405.906 324.539C405.531 325.044 405.01 325.44 404.344 325.727C403.677 326.013 402.924 326.156 402.086 326.156ZM418.306 315.633H409.291V314.055H418.306V315.633ZM420.783 321.711H407.814V320.102H420.783V321.711ZM415.228 327.453H413.228V321.219H415.228V327.453ZM419.259 315.32C419.259 316.039 419.249 316.648 419.228 317.148C419.212 317.648 419.16 318.232 419.072 318.898C418.989 319.56 418.861 320.281 418.689 321.062L416.72 320.844C416.892 320.104 417.017 319.414 417.095 318.773C417.179 318.128 417.228 317.557 417.244 317.062C417.259 316.568 417.267 315.99 417.267 315.328V314.055H419.259V315.32ZM426.448 326.156C425.626 326.156 424.889 326.016 424.237 325.734C423.586 325.453 423.076 325.057 422.706 324.547C422.342 324.036 422.152 323.458 422.136 322.812H424.503C424.519 323.078 424.612 323.318 424.784 323.531C424.956 323.745 425.188 323.911 425.48 324.031C425.771 324.151 426.094 324.211 426.448 324.211C426.818 324.211 427.152 324.146 427.448 324.016C427.751 323.88 427.982 323.698 428.144 323.469C428.305 323.234 428.383 322.969 428.378 322.672C428.383 322.365 428.3 322.091 428.128 321.852C427.956 321.612 427.706 321.427 427.378 321.297C427.055 321.161 426.675 321.094 426.237 321.094H425.183V319.359H426.237C426.607 319.359 426.938 319.297 427.23 319.172C427.521 319.042 427.745 318.862 427.902 318.633C428.058 318.404 428.133 318.143 428.128 317.852C428.133 317.565 428.068 317.312 427.933 317.094C427.797 316.87 427.602 316.698 427.347 316.578C427.092 316.458 426.8 316.398 426.472 316.398C426.139 316.398 425.834 316.458 425.558 316.578C425.282 316.693 425.058 316.859 424.886 317.078C424.719 317.292 424.628 317.542 424.612 317.828H422.362C422.383 317.188 422.573 316.617 422.933 316.117C423.292 315.617 423.779 315.229 424.394 314.953C425.014 314.672 425.706 314.531 426.472 314.531C427.248 314.531 427.933 314.669 428.527 314.945C429.12 315.221 429.581 315.602 429.909 316.086C430.237 316.57 430.396 317.112 430.386 317.711C430.396 318.122 430.31 318.497 430.128 318.836C429.951 319.174 429.698 319.453 429.37 319.672C429.047 319.885 428.672 320.031 428.245 320.109V320.195C428.797 320.263 429.266 320.417 429.652 320.656C430.042 320.891 430.336 321.193 430.534 321.562C430.732 321.932 430.826 322.354 430.816 322.828C430.826 323.458 430.644 324.029 430.269 324.539C429.894 325.044 429.373 325.44 428.706 325.727C428.04 326.013 427.287 326.156 426.448 326.156ZM437.348 316.031C437.348 316.938 437.192 317.789 436.88 318.586C436.572 319.383 436.111 320.078 435.497 320.672C434.888 321.26 434.143 321.701 433.263 321.992L432.231 320.43C432.986 320.185 433.624 319.833 434.145 319.375C434.666 318.917 435.052 318.401 435.302 317.828C435.557 317.255 435.684 316.656 435.684 316.031V314.789H437.348V316.031ZM437.708 316.031C437.708 316.615 437.83 317.18 438.075 317.727C438.32 318.268 438.697 318.755 439.208 319.188C439.723 319.615 440.354 319.94 441.098 320.164L440.091 321.734C439.226 321.453 438.492 321.031 437.888 320.469C437.283 319.901 436.83 319.24 436.528 318.484C436.231 317.724 436.083 316.906 436.083 316.031V314.789H437.708V316.031ZM440.575 315.828H432.755V314.234H440.575V315.828ZM444.067 323.508H442.075V313.234H444.067V323.508ZM444.458 327.195H434.544V325.586H444.458V327.195ZM436.559 326.391H434.544V322.57H436.559V326.391Z" fill="black"/>
<defs>
<filter id="filter0_d_1117_2549" x="387" y="234" width="69" height="78.0371" filterUnits="userSpaceOnUse" color-interpolation-filters="sRGB">
<feFlood flood-opacity="0" result="BackgroundImageFix"/>
<feColorMatrix in="SourceAlpha" type="matrix" values="0 0 0 0 0 0 0 0 0 0 0 0 0 0 0 0 0 0 127 0" result="hardAlpha"/>
<feOffset dx="-1" dy="1"/>
<feGaussianBlur stdDeviation="2"/>
<feComposite in2="hardAlpha" operator="out"/>
<feColorMatrix type="matrix" values="0 0 0 0 0 0 0 0 0 0 0 0 0 0 0 0 0 0 0.25 0"/>
<feBlend mode="normal" in2="BackgroundImageFix" result="effect1_dropShadow_1117_2549"/>
<feBlend mode="normal" in="SourceGraphic" in2="effect1_dropShadow_1117_2549" result="shape"/>
</filter>
</defs>
</svg>
