<svg width="757" height="685" viewBox="0 0 757 685" fill="none" xmlns="http://www.w3.org/2000/svg">
<path d="M80.458 445.268L165.95 207.562C165.95 207.562 192.073 157.035 259.755 144.403C327.436 131.772 373.745 178.853 373.745 178.853L524.544 379.812C524.544 379.812 540.17 579.359 351.184 617.518C135.078 661.155 80.458 445.268 80.458 445.268Z" fill="#FFFAF8" stroke="#605B53" stroke-width="0.5" stroke-miterlimit="10"/>
<path d="M122.017 475.125C122.017 475.125 167.138 612.925 342.872 589.958C342.872 589.958 487.734 564.695 496.046 420.004L321.499 232.825C321.499 232.825 298.938 212.155 268.066 219.045C237.194 225.935 230.07 248.902 230.07 248.902L122.017 475.125Z" fill="#B7E589" stroke="#605B53" stroke-width="0.5" stroke-miterlimit="10"/>
<path d="M100.644 471.679L214.634 232.825C214.634 232.825 232.445 202.968 265.692 197.227C298.939 191.485 327.436 211.007 327.436 211.007L515.045 409.669H522.169C522.169 409.669 524.544 386.909 522.169 380.49L479.423 323.544L472.299 330.434L345.366 196.17C345.366 196.17 310.813 168.518 263.317 176.557C215.821 184.595 194.448 221.342 194.448 221.342L118.016 382.798L107.768 378.664L84.0205 446.416L92.8666 471.679H100.644Z" fill="#FFC8AF" stroke="#605B53" stroke-width="0.5" stroke-miterlimit="10"/>
<path d="M107.768 375.22L117.267 378.665L190.885 221.342C190.885 221.342 219.383 171.964 281.127 173.112C281.127 173.112 315.562 171.964 345.247 192.634L472.298 326.989L478.235 321.248L371.369 180.002C371.369 180.002 315.562 126.03 244.318 151.294C244.318 151.294 199.197 162.777 170.7 205.266L107.768 375.22Z" fill="#FFA47C" stroke="#605B53" stroke-width="0.5" stroke-miterlimit="10"/>
<path d="M461.612 291.39L481.798 277.61L390.368 153.59C390.368 153.59 361.871 129.475 342.872 127.178L314.375 95.0247L275.191 92.728V117.084C275.191 117.084 269.254 117.991 257.38 119.14C245.506 120.288 239.569 122.585 239.569 122.585L231.257 100.766L194.448 113.398L177.824 152.442C177.824 152.442 149.208 175.408 139.768 192.059L92.332 336.176L113.705 343.066L163.576 207.562C163.576 207.562 186.813 156.174 259.494 142.256C259.494 142.256 329.811 128.326 376.119 177.705L461.612 291.39Z" fill="#FFFAF8" stroke="#605B53" stroke-width="0.5" stroke-miterlimit="10"/>
<path d="M756.68 561.767L744.093 555.922C740.27 554.142 736.126 553.143 731.887 552.982C721.699 552.592 702.653 550.915 699.091 550.915C697.904 550.915 695.184 551.237 692.964 552.35C688.392 554.647 684.605 558.161 681.791 562.33L661.415 592.542C661.415 592.542 652.248 602.82 661.415 615.911C667.566 624.696 679.748 635.858 687.098 642.254C692.216 646.709 698.2 650.143 704.731 652.279C709.872 653.955 716.249 655.425 722.839 655.425C722.839 655.425 729.963 656.574 728.776 672.65C728.776 672.65 731.151 679.54 746.587 679.54L756.68 675.188V561.778V561.767Z" fill="#E2F0DB" stroke="#605B53" stroke-width="0.5" stroke-miterlimit="10"/>
<path d="M674.155 163.925L697.903 143.255L709.777 157.035L684.842 176.557L674.155 163.925Z" stroke="#605B53" stroke-width="0.5" stroke-miterlimit="10"/>
<path d="M687.514 182.023L710.965 163.925H716.082L724.026 172.974L722.839 175.409L724.786 176.557H726.864L733.525 184.595L706.215 205.265L687.514 182.023Z" stroke="#605B53" stroke-width="0.5" stroke-miterlimit="10"/>
<path d="M708.59 208.71L732.338 190.337H738.215L753.711 209.859L727.244 231.103L708.59 208.71Z" stroke="#605B53" stroke-width="0.5" stroke-miterlimit="10"/>
<path d="M719.276 245.457L683.654 274.165L709.777 303.666L745.019 274.556L719.276 245.457Z" stroke="#605B53" stroke-width="0.5" stroke-miterlimit="10"/>
<path d="M715.714 302.874L748.807 344.673L756.679 339.517V280.435L753.711 282.261L748.961 277.61L725.213 297.132L722.838 294.835L715.714 302.874Z" stroke="#605B53" stroke-width="0.5" stroke-miterlimit="10"/>
<path d="M756.68 215.497L734.713 233.974L756.68 258.296V215.497Z" stroke="#605B53" stroke-width="0.5" stroke-miterlimit="10"/>
<path d="M672.968 59.4265L698.556 39.9048L710.288 53.6848L691.622 68.7281L689.591 65.1682L682.039 72.0582L676.53 67.4649L675.936 64.8237L672.968 59.4265Z" stroke="#605B53" stroke-width="0.5" stroke-miterlimit="10"/>
<path d="M680.093 82.3934L710.787 58.2783L746.599 101.812L715.715 126.03L690.779 95.0251H688.405L680.093 84.2193V82.3934Z" stroke="#605B53" stroke-width="0.5" stroke-miterlimit="10"/>
<path d="M691.621 0.287109L681.279 10.048C681.279 10.048 705.027 36.4597 705.027 37.6081H707.699L721.651 26.1247L699.625 0.287109H691.621Z" stroke="#605B53" stroke-width="0.5" stroke-miterlimit="10"/>
<path d="M710.288 0.287109L726.401 18.0863L741.837 5.45463L736.708 0.287109H710.288Z" stroke="#605B53" stroke-width="0.5" stroke-miterlimit="10"/>
<path d="M713.352 45.8072L727.588 34.1631L752.524 62.8715L739.462 73.2066L728.776 61.7232L726.057 63.7328L719.68 55.9815L720.464 54.8332L713.352 45.8072Z" stroke="#605B53" stroke-width="0.5" stroke-miterlimit="10"/>
<path d="M756.086 22.6797L751.336 16.938L734.713 29.5697L746.587 43.3497L745.399 45.4397L752.524 53.1221L754.899 52.5364L756.68 55.9815L756.086 22.6797Z" stroke="#605B53" stroke-width="0.5" stroke-miterlimit="10"/>
<path d="M215.488 347.028C237.574 382.856 281.781 399.782 321 385.141C349.046 374.68 367.76 350.611 373.056 322.798L280.451 260.742L215.488 347.016V347.028Z" fill="#E2F0DB" stroke="#605B53" stroke-width="0.5" stroke-miterlimit="10"/>
<path d="M281.911 264.912L239.246 323.469L300.056 364.908L342.721 306.352L281.911 264.912Z" fill="#D4E4BE" stroke="#605B53" stroke-width="0.5" stroke-miterlimit="10"/>
<path d="M245.755 317.688C247.346 321.018 247.132 324.704 245.505 327.736L292.704 359.901C293.429 359.349 294.212 358.856 295.079 358.477C298.285 357.041 301.8 357.133 304.792 358.408L338.265 312.463C337.885 311.935 337.54 311.372 337.255 310.763C335.937 307.996 335.866 304.987 336.804 302.312L281.911 264.91L244.722 315.965C245.114 316.505 245.47 317.079 245.767 317.699L245.755 317.688Z" stroke="#605B53" stroke-width="0.5" stroke-miterlimit="10"/>
<path d="M245.755 317.688C245.458 317.067 245.102 316.493 244.71 315.954L239.236 323.464L245.506 327.736C247.133 324.715 247.346 321.018 245.755 317.688Z" fill="#E2F0DB" stroke="#605B53" stroke-width="0.5" stroke-miterlimit="10"/>
<path d="M295.092 358.465C294.225 358.856 293.429 359.338 292.717 359.889L300.067 364.896L304.804 358.385C301.812 357.11 298.298 357.03 295.092 358.454V358.465Z" fill="#E2F0DB" stroke="#605B53" stroke-width="0.5" stroke-miterlimit="10"/>
<path d="M338.277 312.451L342.73 306.342L336.805 302.312C335.867 304.987 335.938 307.996 337.256 310.763C337.541 311.372 337.897 311.923 338.265 312.463L338.277 312.451Z" fill="#E2F0DB" stroke="#605B53" stroke-width="0.5" stroke-miterlimit="10"/>
<path d="M291.019 318.055C295.616 318.055 299.343 314.451 299.343 310.005C299.343 305.56 295.616 301.956 291.019 301.956C286.422 301.956 282.695 305.56 282.695 310.005C282.695 314.451 286.422 318.055 291.019 318.055Z" fill="#E2F0DB" stroke="#605B53" stroke-width="0.5" stroke-miterlimit="10"/>
<path d="M281.614 274.602C288.133 274.602 293.417 269.491 293.417 263.187C293.417 256.883 288.133 251.773 281.614 251.773C275.096 251.773 269.812 256.883 269.812 263.187C269.812 269.491 275.096 274.602 281.614 274.602Z" fill="#E2F0DB" stroke="#605B53" stroke-width="0.5" stroke-miterlimit="10"/>
<g filter="url(#filter0_d_1117_2513)">
<path fill-rule="evenodd" clip-rule="evenodd" d="M452.312 309.873C452.701 309.2 453.338 308.71 454.077 308.466C466.23 304.45 475 292.999 475 279.5C475 262.655 461.345 249 444.5 249C427.655 249 414 262.655 414 279.5C414 293.454 423.37 305.219 436.162 308.846C436.956 309.071 437.646 309.577 438.059 310.292L442.13 317.343C443.434 319.602 446.695 319.602 448 317.343L452.312 309.873Z" fill="white"/>
</g>
<circle cx="443.981" cy="278.981" r="25.9815" fill="#FF4E00"/>
<path d="M448.333 271.25V280.917H451.958V290.583H454.375V266.417C451.04 266.417 448.333 269.123 448.333 271.25ZM442.292 274.875H439.875V266.417H437.458V274.875H435.042V266.417H432.625V274.875C432.625 277.545 434.788 279.708 437.458 279.708V290.583H439.875V279.708C442.545 279.708 444.708 277.545 444.708 274.875V266.417H442.292V274.875Z" fill="#FAFAFA"/>
<path d="M412.328 339.477H410.305V325.203H412.328V339.477ZM404.602 326.211C405.315 326.211 405.956 326.419 406.523 326.836C407.096 327.253 407.542 327.844 407.859 328.609C408.182 329.375 408.344 330.266 408.344 331.281C408.344 332.302 408.182 333.195 407.859 333.961C407.542 334.727 407.096 335.318 406.523 335.734C405.956 336.146 405.315 336.352 404.602 336.352C403.878 336.352 403.229 336.146 402.656 335.734C402.089 335.318 401.643 334.727 401.32 333.961C400.997 333.195 400.836 332.302 400.836 331.281C400.836 330.266 400.997 329.375 401.32 328.609C401.643 327.844 402.089 327.253 402.656 326.836C403.229 326.419 403.878 326.211 404.602 326.211ZM404.602 328.016C404.237 328.01 403.914 328.135 403.633 328.391C403.357 328.641 403.143 329.013 402.992 329.508C402.846 329.997 402.773 330.589 402.773 331.281C402.773 331.974 402.846 332.565 402.992 333.055C403.143 333.544 403.357 333.917 403.633 334.172C403.914 334.422 404.237 334.547 404.602 334.547C404.961 334.547 405.279 334.422 405.555 334.172C405.831 333.917 406.044 333.544 406.195 333.055C406.346 332.565 406.422 331.974 406.422 331.281C406.422 330.589 406.346 329.997 406.195 329.508C406.044 329.013 405.831 328.641 405.555 328.391C405.284 328.135 404.966 328.01 404.602 328.016ZM426.689 339.438H424.814V325.203H426.689V339.438ZM425.267 332.305H422.853V330.711H425.267V332.305ZM423.439 338.75H421.611V325.461H423.439V338.75ZM415.798 334.555C416.835 334.555 417.728 334.531 418.478 334.484C419.228 334.438 419.994 334.344 420.775 334.203L420.916 335.82C420.119 335.971 419.335 336.076 418.564 336.133C417.793 336.185 416.871 336.214 415.798 336.219H414.798V334.555H415.798ZM420.111 328.469H416.798V335.359H414.798V326.867H420.111V328.469ZM441.386 337.859H428.386V336.227H441.386V337.859ZM435.839 336.906H433.878V333.531H435.839V336.906ZM439.886 330.852H431.87V333.281H429.886V329.289H437.917V327.742H429.862V326.141H439.886V330.852ZM440.222 334.07H429.886V332.453H440.222V334.07ZM459.186 334.109H446.186V332.547H459.186V334.109ZM453.67 333.125H451.67V330.984H453.67V333.125ZM457.78 331.672H447.811V330.141H457.78V331.672ZM457.67 327.102H449.803V331H447.811V325.562H457.67V327.102ZM457.327 329.336H449.233V327.891H457.327V329.336ZM452.678 334.758C453.725 334.747 454.616 334.836 455.35 335.023C456.09 335.206 456.655 335.474 457.045 335.828C457.436 336.177 457.631 336.599 457.631 337.094C457.631 337.599 457.436 338.026 457.045 338.375C456.655 338.729 456.092 338.995 455.358 339.172C454.623 339.349 453.73 339.438 452.678 339.438C451.621 339.438 450.72 339.349 449.975 339.172C449.23 338.995 448.662 338.729 448.272 338.375C447.886 338.026 447.694 337.599 447.694 337.094C447.694 336.594 447.889 336.169 448.28 335.82C448.67 335.471 449.238 335.206 449.983 335.023C450.728 334.836 451.626 334.747 452.678 334.758ZM452.678 336.234C451.98 336.234 451.415 336.266 450.983 336.328C450.551 336.385 450.228 336.477 450.014 336.602C449.801 336.727 449.694 336.891 449.694 337.094C449.694 337.292 449.798 337.456 450.006 337.586C450.22 337.716 450.548 337.812 450.991 337.875C451.433 337.932 451.996 337.961 452.678 337.961C453.35 337.961 453.902 337.932 454.334 337.875C454.767 337.812 455.09 337.716 455.303 337.586C455.517 337.456 455.623 337.292 455.623 337.094C455.623 336.891 455.517 336.727 455.303 336.602C455.095 336.477 454.774 336.385 454.342 336.328C453.91 336.266 453.355 336.234 452.678 336.234ZM465.086 327.164C465.086 328.122 464.938 329.013 464.641 329.836C464.344 330.659 463.893 331.378 463.289 331.992C462.69 332.607 461.948 333.073 461.062 333.391L460 331.82C460.766 331.56 461.406 331.19 461.922 330.711C462.438 330.232 462.815 329.69 463.055 329.086C463.299 328.477 463.422 327.836 463.422 327.164V325.953H465.086V327.164ZM465.43 327.109C465.43 327.734 465.547 328.331 465.781 328.898C466.016 329.461 466.378 329.964 466.867 330.406C467.357 330.849 467.971 331.188 468.711 331.422L467.633 332.969C466.799 332.672 466.099 332.237 465.531 331.664C464.964 331.086 464.536 330.409 464.25 329.633C463.969 328.857 463.828 328.016 463.828 327.109V325.953H465.43V327.109ZM471.469 333.445H469.477V325.203H471.469V333.445ZM473.391 330.078H470.906V328.461H473.391V330.078ZM471.469 339.281H462.172V334H471.469V339.281ZM464.148 337.68H469.5V335.578H464.148V337.68ZM484.486 328.727H481.095V327.133H484.486V328.727ZM484.384 331.695H480.986V330.055H484.384V331.695ZM481.634 326.008C481.634 327.258 481.387 328.362 480.892 329.32C480.397 330.273 479.663 331.081 478.689 331.742C477.715 332.404 476.499 332.917 475.041 333.281L474.314 331.711C475.502 331.43 476.481 331.057 477.252 330.594C478.022 330.13 478.59 329.599 478.955 329C479.319 328.401 479.502 327.74 479.502 327.016V326.008H481.634ZM480.869 327.609H475.048V326.008H480.869V327.609ZM486.142 332.898H484.166V325.203H486.142V332.898ZM478.634 334.891H484.166V333.508H486.142V339.281H476.642V333.508H478.634V334.891ZM484.166 337.703V336.438H478.634V337.703H484.166Z" fill="black"/>
<defs>
<filter id="filter0_d_1117_2513" x="409" y="246" width="69" height="78.0371" filterUnits="userSpaceOnUse" color-interpolation-filters="sRGB">
<feFlood flood-opacity="0" result="BackgroundImageFix"/>
<feColorMatrix in="SourceAlpha" type="matrix" values="0 0 0 0 0 0 0 0 0 0 0 0 0 0 0 0 0 0 127 0" result="hardAlpha"/>
<feOffset dx="-1" dy="1"/>
<feGaussianBlur stdDeviation="2"/>
<feComposite in2="hardAlpha" operator="out"/>
<feColorMatrix type="matrix" values="0 0 0 0 0 0 0 0 0 0 0 0 0 0 0 0 0 0 0.25 0"/>
<feBlend mode="normal" in2="BackgroundImageFix" result="effect1_dropShadow_1117_2513"/>
<feBlend mode="normal" in="SourceGraphic" in2="effect1_dropShadow_1117_2513" result="shape"/>
</filter>
</defs>
</svg>
