<svg width="757" height="685" viewBox="0 0 757 685" fill="none" xmlns="http://www.w3.org/2000/svg">
<path d="M80.458 445.268L165.95 207.562C165.95 207.562 192.073 157.035 259.755 144.404C327.436 131.772 373.745 178.854 373.745 178.854L524.544 379.813C524.544 379.813 540.17 579.36 351.184 617.519C135.078 661.156 80.458 445.268 80.458 445.268Z" fill="#FFFAF8" stroke="#605B53" stroke-width="0.5" stroke-miterlimit="10"/>
<path d="M122.017 475.125C122.017 475.125 167.138 612.925 342.872 589.959C342.872 589.959 487.734 564.695 496.046 420.005L321.499 232.826C321.499 232.826 298.938 212.156 268.066 219.046C237.194 225.936 230.07 248.903 230.07 248.903L122.017 475.125Z" fill="#B7E589" stroke="#605B53" stroke-width="0.5" stroke-miterlimit="10"/>
<path d="M100.644 471.68L214.634 232.826C214.634 232.826 232.445 202.969 265.692 197.227C298.939 191.486 327.436 211.007 327.436 211.007L515.045 409.67H522.169C522.169 409.67 524.544 386.91 522.169 380.49L479.423 323.544L472.299 330.434L345.366 196.171C345.366 196.171 310.813 168.519 263.317 176.557C215.821 184.596 194.448 221.342 194.448 221.342L118.016 382.799L107.768 378.665L84.0205 446.417L92.8666 471.68H100.644Z" fill="#FFC8AF" stroke="#605B53" stroke-width="0.5" stroke-miterlimit="10"/>
<path d="M107.768 375.219L117.267 378.664L190.885 221.342C190.885 221.342 219.383 171.963 281.127 173.112C281.127 173.112 315.562 171.963 345.247 192.633L472.298 326.989L478.235 321.247L371.369 180.002C371.369 180.002 315.562 126.03 244.318 151.293C244.318 151.293 199.197 162.777 170.7 205.265L107.768 375.219Z" fill="#FFA47C" stroke="#605B53" stroke-width="0.5" stroke-miterlimit="10"/>
<path d="M461.612 291.391L481.798 277.611L390.368 153.59C390.368 153.59 361.871 129.475 342.872 127.179L314.375 95.0252L275.191 92.7285V117.085C275.191 117.085 269.254 117.992 257.38 119.14C245.506 120.289 239.569 122.585 239.569 122.585L231.257 100.767L194.448 113.399L177.824 152.442C177.824 152.442 149.208 175.409 139.768 192.06L92.332 336.176L113.705 343.066L163.576 207.562C163.576 207.562 186.813 156.174 259.494 142.256C259.494 142.256 329.811 128.327 376.119 177.705L461.612 291.391Z" fill="#FFFAF8" stroke="#605B53" stroke-width="0.5" stroke-miterlimit="10"/>
<path d="M756.68 561.767L744.093 555.922C740.27 554.142 736.126 553.143 731.887 552.982C721.699 552.592 702.653 550.915 699.091 550.915C697.904 550.915 695.184 551.237 692.964 552.35C688.392 554.647 684.605 558.161 681.791 562.33L661.415 592.542C661.415 592.542 652.248 602.82 661.415 615.911C667.566 624.696 679.748 635.858 687.098 642.254C692.216 646.709 698.2 650.143 704.731 652.279C709.872 653.955 716.249 655.425 722.839 655.425C722.839 655.425 729.963 656.574 728.776 672.65C728.776 672.65 731.151 679.54 746.587 679.54L756.68 675.188V561.778V561.767Z" fill="#E2F0DB" stroke="#605B53" stroke-width="0.5" stroke-miterlimit="10"/>
<path d="M674.155 163.925L697.903 143.255L709.777 157.035L684.842 176.557L674.155 163.925Z" stroke="#605B53" stroke-width="0.5" stroke-miterlimit="10"/>
<path d="M687.514 182.023L710.965 163.925H716.082L724.026 172.974L722.839 175.408L724.786 176.557H726.864L733.525 184.595L706.215 205.265L687.514 182.023Z" stroke="#605B53" stroke-width="0.5" stroke-miterlimit="10"/>
<path d="M708.59 208.71L732.338 190.337H738.215L753.711 209.859L727.244 231.103L708.59 208.71Z" stroke="#605B53" stroke-width="0.5" stroke-miterlimit="10"/>
<path d="M719.276 245.457L683.654 274.165L709.777 303.666L745.019 274.556L719.276 245.457Z" stroke="#605B53" stroke-width="0.5" stroke-miterlimit="10"/>
<path d="M715.714 302.874L748.807 344.673L756.679 339.517V280.435L753.711 282.261L748.961 277.61L725.213 297.132L722.838 294.835L715.714 302.874Z" stroke="#605B53" stroke-width="0.5" stroke-miterlimit="10"/>
<path d="M756.68 215.497L734.713 233.974L756.68 258.296V215.497Z" stroke="#605B53" stroke-width="0.5" stroke-miterlimit="10"/>
<path d="M672.968 59.426L698.556 39.9043L710.288 53.6843L691.622 68.7276L689.591 65.1677L682.039 72.0577L676.53 67.4644L675.936 64.8232L672.968 59.426Z" stroke="#605B53" stroke-width="0.5" stroke-miterlimit="10"/>
<path d="M680.093 82.3934L710.787 58.2783L746.599 101.812L715.715 126.03L690.779 95.0251H688.405L680.093 84.2193V82.3934Z" stroke="#605B53" stroke-width="0.5" stroke-miterlimit="10"/>
<path d="M691.621 0.287109L681.279 10.048C681.279 10.048 705.027 36.4597 705.027 37.6081H707.699L721.651 26.1247L699.625 0.287109H691.621Z" stroke="#605B53" stroke-width="0.5" stroke-miterlimit="10"/>
<path d="M710.288 0.287109L726.401 18.0863L741.837 5.45463L736.708 0.287109H710.288Z" stroke="#605B53" stroke-width="0.5" stroke-miterlimit="10"/>
<path d="M713.352 45.8072L727.588 34.1631L752.524 62.8715L739.462 73.2066L728.776 61.7232L726.057 63.7328L719.68 55.9815L720.464 54.8332L713.352 45.8072Z" stroke="#605B53" stroke-width="0.5" stroke-miterlimit="10"/>
<path d="M756.086 22.6792L751.336 16.9375L734.713 29.5692L746.587 43.3493L745.399 45.4392L752.524 53.1216L754.899 52.536L756.68 55.981L756.086 22.6792Z" stroke="#605B53" stroke-width="0.5" stroke-miterlimit="10"/>
<path d="M215.488 347.027C237.574 382.855 281.781 399.782 321 385.141C349.046 374.679 367.76 350.61 373.056 322.797L280.451 260.741L215.488 347.016V347.027Z" fill="#E2F0DB" stroke="#605B53" stroke-width="0.5" stroke-miterlimit="10"/>
<path d="M281.911 264.912L239.246 323.469L300.056 364.908L342.721 306.352L281.911 264.912Z" fill="#D4E4BE" stroke="#605B53" stroke-width="0.5" stroke-miterlimit="10"/>
<path d="M245.755 317.688C247.346 321.018 247.132 324.704 245.505 327.736L292.704 359.901C293.429 359.349 294.212 358.856 295.079 358.477C298.285 357.041 301.8 357.133 304.792 358.408L338.265 312.463C337.885 311.935 337.54 311.372 337.255 310.763C335.937 307.996 335.866 304.987 336.804 302.312L281.911 264.91L244.722 315.965C245.114 316.505 245.47 317.079 245.767 317.699L245.755 317.688Z" stroke="#605B53" stroke-width="0.5" stroke-miterlimit="10"/>
<path d="M245.755 317.688C245.458 317.068 245.102 316.494 244.71 315.954L239.236 323.464L245.506 327.736C247.133 324.716 247.346 321.018 245.755 317.688Z" fill="#E2F0DB" stroke="#605B53" stroke-width="0.5" stroke-miterlimit="10"/>
<path d="M295.092 358.465C294.225 358.856 293.429 359.338 292.717 359.889L300.067 364.896L304.804 358.385C301.812 357.11 298.298 357.03 295.092 358.454V358.465Z" fill="#E2F0DB" stroke="#605B53" stroke-width="0.5" stroke-miterlimit="10"/>
<path d="M338.277 312.451L342.73 306.342L336.805 302.312C335.867 304.987 335.938 307.996 337.256 310.763C337.541 311.372 337.897 311.923 338.265 312.463L338.277 312.451Z" fill="#E2F0DB" stroke="#605B53" stroke-width="0.5" stroke-miterlimit="10"/>
<path d="M291.019 318.055C295.616 318.055 299.343 314.451 299.343 310.005C299.343 305.559 295.616 301.955 291.019 301.955C286.422 301.955 282.695 305.559 282.695 310.005C282.695 314.451 286.422 318.055 291.019 318.055Z" fill="#E2F0DB" stroke="#605B53" stroke-width="0.5" stroke-miterlimit="10"/>
<path d="M281.614 274.602C288.133 274.602 293.417 269.492 293.417 263.188C293.417 256.884 288.133 251.773 281.614 251.773C275.096 251.773 269.812 256.884 269.812 263.188C269.812 269.492 275.096 274.602 281.614 274.602Z" fill="#E2F0DB" stroke="#605B53" stroke-width="0.5" stroke-miterlimit="10"/>
<g filter="url(#filter0_d_1117_2234)">
<path fill-rule="evenodd" clip-rule="evenodd" d="M341.312 192.873C341.701 192.2 342.338 191.71 343.077 191.466C355.23 187.45 364 175.999 364 162.5C364 145.655 350.345 132 333.5 132C316.655 132 303 145.655 303 162.5C303 176.454 312.37 188.219 325.162 191.846C325.956 192.071 326.646 192.577 327.059 193.292L331.13 200.343C332.434 202.602 335.695 202.602 337 200.343L341.312 192.873Z" fill="white"/>
</g>
<circle cx="332.981" cy="161.981" r="25.9815" fill="#FF4E00"/>
<path d="M337.333 154.25V163.917H340.958V173.584H343.375V149.417C340.04 149.417 337.333 152.124 337.333 154.25ZM331.292 157.875H328.875V149.417H326.458V157.875H324.042V149.417H321.625V157.875C321.625 160.546 323.788 162.709 326.458 162.709V173.584H328.875V162.709C331.545 162.709 333.708 160.546 333.708 157.875V149.417H331.292V157.875Z" fill="#FAFAFA"/>
<path d="M310.602 211.031C310.602 211.938 310.445 212.789 310.133 213.586C309.826 214.383 309.365 215.078 308.75 215.672C308.141 216.26 307.396 216.701 306.516 216.992L305.484 215.43C306.24 215.185 306.878 214.833 307.398 214.375C307.919 213.917 308.305 213.401 308.555 212.828C308.81 212.255 308.938 211.656 308.938 211.031V209.789H310.602V211.031ZM310.961 211.031C310.961 211.615 311.083 212.18 311.328 212.727C311.573 213.268 311.951 213.755 312.461 214.188C312.977 214.615 313.607 214.94 314.352 215.164L313.344 216.734C312.479 216.453 311.745 216.031 311.141 215.469C310.536 214.901 310.083 214.24 309.781 213.484C309.484 212.724 309.336 211.906 309.336 211.031V209.789H310.961V211.031ZM313.828 210.828H306.008V209.234H313.828V210.828ZM317.32 218.508H315.328V208.234H317.32V218.508ZM317.711 222.195H307.797V220.586H317.711V222.195ZM309.812 221.391H307.797V217.57H309.812V221.391ZM326.986 219.047H320.111V209.508H326.986V219.047ZM322.095 217.469H325.041V211.062H322.095V217.469ZM331.306 222.477H329.283V208.203H331.306V222.477ZM346.355 217.109H333.355V215.547H346.355V217.109ZM340.839 216.125H338.839V213.984H340.839V216.125ZM344.948 214.672H334.98V213.141H344.948V214.672ZM344.839 210.102H336.972V214H334.98V208.562H344.839V210.102ZM344.495 212.336H336.402V210.891H344.495V212.336ZM339.847 217.758C340.894 217.747 341.784 217.836 342.519 218.023C343.258 218.206 343.823 218.474 344.214 218.828C344.605 219.177 344.8 219.599 344.8 220.094C344.8 220.599 344.605 221.026 344.214 221.375C343.823 221.729 343.261 221.995 342.527 222.172C341.792 222.349 340.899 222.438 339.847 222.438C338.79 222.438 337.889 222.349 337.144 222.172C336.399 221.995 335.831 221.729 335.441 221.375C335.055 221.026 334.862 220.599 334.862 220.094C334.862 219.594 335.058 219.169 335.448 218.82C335.839 218.471 336.407 218.206 337.152 218.023C337.896 217.836 338.795 217.747 339.847 217.758ZM339.847 219.234C339.149 219.234 338.584 219.266 338.152 219.328C337.719 219.385 337.396 219.477 337.183 219.602C336.969 219.727 336.862 219.891 336.862 220.094C336.862 220.292 336.967 220.456 337.175 220.586C337.389 220.716 337.717 220.812 338.159 220.875C338.602 220.932 339.165 220.961 339.847 220.961C340.519 220.961 341.071 220.932 341.503 220.875C341.935 220.812 342.258 220.716 342.472 220.586C342.685 220.456 342.792 220.292 342.792 220.094C342.792 219.891 342.685 219.727 342.472 219.602C342.264 219.477 341.943 219.385 341.511 219.328C341.079 219.266 340.524 219.234 339.847 219.234ZM349.044 213.664C350.591 213.659 351.828 213.622 352.755 213.555C353.687 213.487 354.593 213.359 355.473 213.172L355.692 214.734C354.812 214.922 353.893 215.047 352.934 215.109C351.976 215.172 350.679 215.203 349.044 215.203H347.856V213.664H349.044ZM354.255 210.562H349.833V214.32H347.856V208.984H354.255V210.562ZM358.638 215.734H356.645V208.203H358.638V215.734ZM360.559 212.852H358.075V211.234H360.559V212.852ZM349.614 220.805C350.546 220.805 351.281 220.797 351.817 220.781C352.359 220.766 352.822 220.737 353.208 220.695C353.593 220.654 353.971 220.591 354.341 220.508L354.536 221.977C354.151 222.07 353.76 222.138 353.364 222.18C352.968 222.221 352.505 222.247 351.973 222.258C351.447 222.273 350.661 222.281 349.614 222.281H348.669V220.805H349.614ZM353.427 219.93H350.622V221.836H348.669V218.562H351.513V217.766H348.645V216.273H353.427V219.93ZM358.638 222.328H356.669V217.82H354.052V216.273H358.638V222.328Z" fill="black"/>
<defs>
<filter id="filter0_d_1117_2234" x="298" y="129" width="69" height="78.0371" filterUnits="userSpaceOnUse" color-interpolation-filters="sRGB">
<feFlood flood-opacity="0" result="BackgroundImageFix"/>
<feColorMatrix in="SourceAlpha" type="matrix" values="0 0 0 0 0 0 0 0 0 0 0 0 0 0 0 0 0 0 127 0" result="hardAlpha"/>
<feOffset dx="-1" dy="1"/>
<feGaussianBlur stdDeviation="2"/>
<feComposite in2="hardAlpha" operator="out"/>
<feColorMatrix type="matrix" values="0 0 0 0 0 0 0 0 0 0 0 0 0 0 0 0 0 0 0.25 0"/>
<feBlend mode="normal" in2="BackgroundImageFix" result="effect1_dropShadow_1117_2234"/>
<feBlend mode="normal" in="SourceGraphic" in2="effect1_dropShadow_1117_2234" result="shape"/>
</filter>
</defs>
</svg>
