<svg width="390" height="413" viewBox="0 0 390 413" fill="none" xmlns="http://www.w3.org/2000/svg">
<mask id="mask0_698_9298" style="mask-type:alpha" maskUnits="userSpaceOnUse" x="0" y="0" width="391" height="413">
<rect width="391" height="413" fill="#D9D9D9"/>
</mask>
<g mask="url(#mask0_698_9298)">
<g clip-path="url(#clip0_698_9298)">
<path d="M39.3311 259.747L99.1871 93.3213C99.1871 93.3213 117.476 57.9458 164.862 49.1019C212.248 40.2581 244.67 73.2216 244.67 73.2216L350.25 213.919C350.25 213.919 361.19 353.628 228.875 380.345C77.5724 410.897 39.3311 259.747 39.3311 259.747Z" fill="#FFFAF8" stroke="#605B53" stroke-width="0.5" stroke-miterlimit="10"/>
<path d="M68.4277 280.65C68.4277 280.65 100.018 377.128 223.056 361.049C223.056 361.049 324.478 343.361 330.298 242.058L208.092 111.008C208.092 111.008 192.296 96.5365 170.682 101.36C149.067 106.184 144.079 122.264 144.079 122.264L68.4277 280.65Z" fill="#B7E589" stroke="#605B53" stroke-width="0.5" stroke-miterlimit="10"/>
<path d="M53.4639 278.238L133.272 111.008C133.272 111.008 145.742 90.1046 169.019 86.0847C192.297 82.0647 212.249 95.7325 212.249 95.7325L343.599 234.822H348.587C348.587 234.822 350.25 218.887 348.587 214.393L318.659 174.523L313.671 179.347L224.802 85.345C224.802 85.345 200.61 65.985 167.357 71.6129C134.103 77.2408 119.139 102.968 119.139 102.968L65.6263 216.009L58.4519 213.115L41.8252 260.55L48.0186 278.238H53.4639Z" fill="#FFC8AF" stroke="#605B53" stroke-width="0.5" stroke-miterlimit="10"/>
<path d="M58.4521 210.703L65.1028 213.115L116.645 102.969C116.645 102.969 136.597 68.3974 179.827 69.2014C179.827 69.2014 203.935 68.3974 224.719 82.8692L313.671 176.936L317.828 172.916L243.008 74.0254C243.008 74.0254 203.935 36.2379 154.055 53.9257C154.055 53.9257 122.465 61.9655 102.513 91.7131L58.4521 210.703Z" fill="#FFA47C" stroke="#605B53" stroke-width="0.5" stroke-miterlimit="10"/>
<path d="M306.189 152.012L320.322 142.364L256.309 55.5332C256.309 55.5332 236.357 38.6495 223.056 37.0415L203.104 14.5299L175.67 12.9219V29.9745C175.67 29.9745 171.513 30.6096 163.2 31.4136C154.887 32.2176 150.73 33.8256 150.73 33.8256L144.911 18.5498L119.139 27.3937L107.501 54.7292C107.501 54.7292 87.4654 70.809 80.8563 82.4668L47.6445 183.367L62.6085 188.191L97.5245 93.3207C97.5245 93.3207 113.794 57.3422 164.68 47.5979C164.68 47.5979 213.911 37.8455 246.333 72.417L306.189 152.012Z" fill="#FFFAF8" stroke="#605B53" stroke-width="0.5" stroke-miterlimit="10"/>
<path d="M133.87 190.965C149.333 216.05 180.283 227.901 207.742 217.65C227.378 210.325 240.48 193.474 244.188 174.001L179.352 130.554L133.87 190.957V190.965Z" fill="#E2F0DB" stroke="#605B53" stroke-width="0.5" stroke-miterlimit="10"/>
<path d="M180.375 133.473L150.504 174.471L193.079 203.484L222.95 162.487L180.375 133.473Z" fill="#D4E4BE" stroke="#605B53" stroke-width="0.5" stroke-miterlimit="10"/>
<path d="M155.061 170.423C156.175 172.755 156.025 175.335 154.887 177.458L187.932 199.978C188.439 199.592 188.988 199.246 189.595 198.981C191.839 197.976 194.3 198.04 196.395 198.932L219.83 166.765C219.564 166.395 219.323 166.001 219.124 165.575C218.201 163.637 218.151 161.531 218.808 159.658L180.375 133.472L154.338 169.217C154.612 169.595 154.862 169.997 155.069 170.431L155.061 170.423Z" stroke="#605B53" stroke-width="0.5" stroke-miterlimit="10"/>
<path d="M155.061 170.423C154.853 169.989 154.604 169.587 154.33 169.209L150.497 174.467L154.887 177.458C156.025 175.343 156.175 172.755 155.061 170.423Z" fill="#E2F0DB" stroke="#605B53" stroke-width="0.5" stroke-miterlimit="10"/>
<path d="M189.603 198.972C188.996 199.245 188.439 199.583 187.94 199.969L193.086 203.474L196.403 198.916C194.308 198.023 191.848 197.967 189.603 198.964V198.972Z" fill="#E2F0DB" stroke="#605B53" stroke-width="0.5" stroke-miterlimit="10"/>
<path d="M219.838 166.756L222.956 162.479L218.808 159.657C218.151 161.531 218.201 163.637 219.123 165.575C219.323 166.001 219.572 166.387 219.83 166.764L219.838 166.756Z" fill="#E2F0DB" stroke="#605B53" stroke-width="0.5" stroke-miterlimit="10"/>
<path d="M186.751 170.68C189.97 170.68 192.579 168.157 192.579 165.044C192.579 161.931 189.97 159.408 186.751 159.408C183.533 159.408 180.924 161.931 180.924 165.044C180.924 168.157 183.533 170.68 186.751 170.68Z" fill="#E2F0DB" stroke="#605B53" stroke-width="0.5" stroke-miterlimit="10"/>
<path d="M180.168 140.258C184.732 140.258 188.431 136.68 188.431 132.266C188.431 127.852 184.732 124.274 180.168 124.274C175.604 124.274 171.904 127.852 171.904 132.266C171.904 136.68 175.604 140.258 180.168 140.258Z" fill="#E2F0DB" stroke="#605B53" stroke-width="0.5" stroke-miterlimit="10"/>
<g filter="url(#filter0_d_698_9298)">
<path fill-rule="evenodd" clip-rule="evenodd" d="M210.034 85.9508C210.187 85.6855 210.438 85.4925 210.729 85.3962C215.497 83.8158 218.939 79.3108 218.939 74C218.939 67.3726 213.58 62 206.969 62C200.359 62 195 67.3726 195 74C195 79.4895 198.677 84.118 203.696 85.5457C204.008 85.6345 204.28 85.8339 204.442 86.1153L206.035 88.8823C206.548 89.7729 207.833 89.7729 208.346 88.8823L210.034 85.9508Z" fill="white"/>
</g>
<ellipse cx="206.765" cy="73.7964" rx="10.1961" ry="10.2222" fill="#FF4E00"/>
<path d="M208.473 70.7542V74.5575H209.896V78.3607H210.844V68.8525C209.535 68.8525 208.473 69.9175 208.473 70.7542ZM206.102 72.1804H205.154V68.8525H204.205V72.1804H203.257V68.8525H202.309V72.1804C202.309 73.2311 203.157 74.082 204.205 74.082V78.3607H205.154V74.082C206.202 74.082 207.051 73.2311 207.051 72.1804V68.8525H206.102V72.1804Z" fill="#FAFAFA"/>
<g filter="url(#filter1_d_698_9298)">
<path fill-rule="evenodd" clip-rule="evenodd" d="M249.034 125.951C249.187 125.685 249.438 125.492 249.729 125.396C254.497 123.816 257.939 119.311 257.939 114C257.939 107.373 252.58 102 245.969 102C239.359 102 234 107.373 234 114C234 119.489 237.677 124.118 242.696 125.546C243.008 125.635 243.28 125.834 243.442 126.115L245.035 128.882C245.548 129.773 246.833 129.773 247.346 128.882L249.034 125.951Z" fill="white"/>
</g>
<ellipse cx="245.765" cy="113.796" rx="10.1961" ry="10.2222" fill="#FF4E00"/>
<path d="M247.473 110.754V114.557H248.896V118.361H249.844V108.853C248.535 108.853 247.473 109.917 247.473 110.754ZM245.102 112.18H244.154V108.853H243.205V112.18H242.257V108.853H241.309V112.18C241.309 113.231 242.157 114.082 243.205 114.082V118.361H244.154V114.082C245.202 114.082 246.051 113.231 246.051 112.18V108.853H245.102V112.18Z" fill="#FAFAFA"/>
<g filter="url(#filter2_d_698_9298)">
<path fill-rule="evenodd" clip-rule="evenodd" d="M267.034 139.951C267.187 139.685 267.438 139.492 267.729 139.396C272.497 137.816 275.939 133.311 275.939 128C275.939 121.373 270.58 116 263.969 116C257.359 116 252 121.373 252 128C252 133.489 255.677 138.118 260.696 139.546C261.008 139.635 261.28 139.834 261.442 140.115L263.035 142.882C263.548 143.773 264.833 143.773 265.346 142.882L267.034 139.951Z" fill="white"/>
</g>
<ellipse cx="263.765" cy="127.796" rx="10.1961" ry="10.2222" fill="#FF4E00"/>
<path d="M265.473 124.754V128.557H266.896V132.361H267.844V122.853C266.535 122.853 265.473 123.917 265.473 124.754ZM263.102 126.18H262.154V122.853H261.205V126.18H260.257V122.853H259.309V126.18C259.309 127.231 260.157 128.082 261.205 128.082V132.361H262.154V128.082C263.202 128.082 264.051 127.231 264.051 126.18V122.853H263.102V126.18Z" fill="#FAFAFA"/>
<g filter="url(#filter3_d_698_9298)">
<path fill-rule="evenodd" clip-rule="evenodd" d="M283.034 154.951C283.187 154.685 283.438 154.492 283.729 154.396C288.497 152.816 291.939 148.311 291.939 143C291.939 136.373 286.58 131 279.969 131C273.359 131 268 136.373 268 143C268 148.489 271.677 153.118 276.696 154.546C277.008 154.635 277.28 154.834 277.442 155.115L279.035 157.882C279.548 158.773 280.833 158.773 281.346 157.882L283.034 154.951Z" fill="white"/>
</g>
<ellipse cx="279.765" cy="142.796" rx="10.1961" ry="10.2222" fill="#FF4E00"/>
<path d="M281.473 139.754V143.557H282.896V147.361H283.844V137.853C282.535 137.853 281.473 138.917 281.473 139.754ZM279.102 141.18H278.154V137.853H277.205V141.18H276.257V137.853H275.309V141.18C275.309 142.231 276.157 143.082 277.205 143.082V147.361H278.154V143.082C279.202 143.082 280.051 142.231 280.051 141.18V137.853H279.102V141.18Z" fill="#FAFAFA"/>
</g>
</g>
<defs>
<filter id="filter0_d_698_9298" x="193.033" y="60.8197" width="27.086" height="30.6973" filterUnits="userSpaceOnUse" color-interpolation-filters="sRGB">
<feFlood flood-opacity="0" result="BackgroundImageFix"/>
<feColorMatrix in="SourceAlpha" type="matrix" values="0 0 0 0 0 0 0 0 0 0 0 0 0 0 0 0 0 0 127 0" result="hardAlpha"/>
<feOffset dx="-0.393443" dy="0.393443"/>
<feGaussianBlur stdDeviation="0.786885"/>
<feComposite in2="hardAlpha" operator="out"/>
<feColorMatrix type="matrix" values="0 0 0 0 0 0 0 0 0 0 0 0 0 0 0 0 0 0 0.25 0"/>
<feBlend mode="normal" in2="BackgroundImageFix" result="effect1_dropShadow_698_9298"/>
<feBlend mode="normal" in="SourceGraphic" in2="effect1_dropShadow_698_9298" result="shape"/>
</filter>
<filter id="filter1_d_698_9298" x="232.033" y="100.82" width="27.086" height="30.6973" filterUnits="userSpaceOnUse" color-interpolation-filters="sRGB">
<feFlood flood-opacity="0" result="BackgroundImageFix"/>
<feColorMatrix in="SourceAlpha" type="matrix" values="0 0 0 0 0 0 0 0 0 0 0 0 0 0 0 0 0 0 127 0" result="hardAlpha"/>
<feOffset dx="-0.393443" dy="0.393443"/>
<feGaussianBlur stdDeviation="0.786885"/>
<feComposite in2="hardAlpha" operator="out"/>
<feColorMatrix type="matrix" values="0 0 0 0 0 0 0 0 0 0 0 0 0 0 0 0 0 0 0.25 0"/>
<feBlend mode="normal" in2="BackgroundImageFix" result="effect1_dropShadow_698_9298"/>
<feBlend mode="normal" in="SourceGraphic" in2="effect1_dropShadow_698_9298" result="shape"/>
</filter>
<filter id="filter2_d_698_9298" x="250.033" y="114.82" width="27.086" height="30.6973" filterUnits="userSpaceOnUse" color-interpolation-filters="sRGB">
<feFlood flood-opacity="0" result="BackgroundImageFix"/>
<feColorMatrix in="SourceAlpha" type="matrix" values="0 0 0 0 0 0 0 0 0 0 0 0 0 0 0 0 0 0 127 0" result="hardAlpha"/>
<feOffset dx="-0.393443" dy="0.393443"/>
<feGaussianBlur stdDeviation="0.786885"/>
<feComposite in2="hardAlpha" operator="out"/>
<feColorMatrix type="matrix" values="0 0 0 0 0 0 0 0 0 0 0 0 0 0 0 0 0 0 0.25 0"/>
<feBlend mode="normal" in2="BackgroundImageFix" result="effect1_dropShadow_698_9298"/>
<feBlend mode="normal" in="SourceGraphic" in2="effect1_dropShadow_698_9298" result="shape"/>
</filter>
<filter id="filter3_d_698_9298" x="266.033" y="129.82" width="27.086" height="30.6973" filterUnits="userSpaceOnUse" color-interpolation-filters="sRGB">
<feFlood flood-opacity="0" result="BackgroundImageFix"/>
<feColorMatrix in="SourceAlpha" type="matrix" values="0 0 0 0 0 0 0 0 0 0 0 0 0 0 0 0 0 0 127 0" result="hardAlpha"/>
<feOffset dx="-0.393443" dy="0.393443"/>
<feGaussianBlur stdDeviation="0.786885"/>
<feComposite in2="hardAlpha" operator="out"/>
<feColorMatrix type="matrix" values="0 0 0 0 0 0 0 0 0 0 0 0 0 0 0 0 0 0 0.25 0"/>
<feBlend mode="normal" in2="BackgroundImageFix" result="effect1_dropShadow_698_9298"/>
<feBlend mode="normal" in="SourceGraphic" in2="effect1_dropShadow_698_9298" result="shape"/>
</filter>
<clipPath id="clip0_698_9298">
<rect width="530" height="479" fill="white" transform="translate(-17 -52)"/>
</clipPath>
</defs>
</svg>
