<svg width="757" height="685" viewBox="0 0 757 685" fill="none" xmlns="http://www.w3.org/2000/svg">
<path d="M80.458 445.268L165.95 207.562C165.95 207.562 192.073 157.035 259.755 144.404C327.436 131.772 373.745 178.854 373.745 178.854L524.544 379.813C524.544 379.813 540.17 579.36 351.184 617.519C135.078 661.156 80.458 445.268 80.458 445.268Z" fill="#FFFAF8" stroke="#605B53" stroke-width="0.5" stroke-miterlimit="10"/>
<path d="M122.017 475.125C122.017 475.125 167.138 612.925 342.872 589.959C342.872 589.959 487.734 564.695 496.046 420.005L321.499 232.826C321.499 232.826 298.938 212.156 268.066 219.046C237.194 225.936 230.07 248.903 230.07 248.903L122.017 475.125Z" fill="#B7E589" stroke="#605B53" stroke-width="0.5" stroke-miterlimit="10"/>
<path d="M100.644 471.68L214.634 232.826C214.634 232.826 232.445 202.969 265.692 197.227C298.939 191.486 327.436 211.007 327.436 211.007L515.045 409.67H522.169C522.169 409.67 524.544 386.91 522.169 380.49L479.423 323.544L472.299 330.434L345.366 196.171C345.366 196.171 310.813 168.519 263.317 176.557C215.821 184.596 194.448 221.342 194.448 221.342L118.016 382.799L107.768 378.665L84.0205 446.417L92.8666 471.68H100.644Z" fill="#FFC8AF" stroke="#605B53" stroke-width="0.5" stroke-miterlimit="10"/>
<path d="M107.768 375.219L117.267 378.664L190.885 221.342C190.885 221.342 219.383 171.963 281.127 173.112C281.127 173.112 315.562 171.963 345.247 192.633L472.298 326.989L478.235 321.247L371.369 180.002C371.369 180.002 315.562 126.03 244.318 151.293C244.318 151.293 199.197 162.777 170.7 205.265L107.768 375.219Z" fill="#FFA47C" stroke="#605B53" stroke-width="0.5" stroke-miterlimit="10"/>
<path d="M461.612 291.391L481.798 277.611L390.368 153.59C390.368 153.59 361.871 129.475 342.872 127.179L314.375 95.0252L275.191 92.7285V117.085C275.191 117.085 269.254 117.992 257.38 119.14C245.506 120.289 239.569 122.585 239.569 122.585L231.257 100.767L194.448 113.399L177.824 152.442C177.824 152.442 149.208 175.409 139.768 192.06L92.332 336.176L113.705 343.066L163.576 207.562C163.576 207.562 186.813 156.174 259.494 142.256C259.494 142.256 329.811 128.327 376.119 177.705L461.612 291.391Z" fill="#FFFAF8" stroke="#605B53" stroke-width="0.5" stroke-miterlimit="10"/>
<path d="M756.68 561.767L744.093 555.922C740.27 554.142 736.126 553.143 731.887 552.982C721.699 552.592 702.653 550.915 699.091 550.915C697.904 550.915 695.184 551.237 692.964 552.35C688.392 554.647 684.605 558.161 681.791 562.33L661.415 592.542C661.415 592.542 652.248 602.82 661.415 615.911C667.566 624.696 679.748 635.858 687.098 642.254C692.216 646.709 698.2 650.143 704.731 652.279C709.872 653.955 716.249 655.425 722.839 655.425C722.839 655.425 729.963 656.574 728.776 672.65C728.776 672.65 731.151 679.54 746.587 679.54L756.68 675.188V561.778V561.767Z" fill="#E2F0DB" stroke="#605B53" stroke-width="0.5" stroke-miterlimit="10"/>
<path d="M674.155 163.925L697.903 143.255L709.777 157.035L684.842 176.557L674.155 163.925Z" stroke="#605B53" stroke-width="0.5" stroke-miterlimit="10"/>
<path d="M687.514 182.023L710.965 163.925H716.082L724.026 172.974L722.839 175.408L724.786 176.557H726.864L733.525 184.595L706.215 205.265L687.514 182.023Z" stroke="#605B53" stroke-width="0.5" stroke-miterlimit="10"/>
<path d="M708.59 208.71L732.338 190.337H738.215L753.711 209.859L727.244 231.103L708.59 208.71Z" stroke="#605B53" stroke-width="0.5" stroke-miterlimit="10"/>
<path d="M719.276 245.457L683.654 274.165L709.777 303.666L745.019 274.556L719.276 245.457Z" stroke="#605B53" stroke-width="0.5" stroke-miterlimit="10"/>
<path d="M715.714 302.874L748.807 344.673L756.679 339.517V280.435L753.711 282.261L748.961 277.61L725.213 297.132L722.838 294.835L715.714 302.874Z" stroke="#605B53" stroke-width="0.5" stroke-miterlimit="10"/>
<path d="M756.68 215.497L734.713 233.974L756.68 258.296V215.497Z" stroke="#605B53" stroke-width="0.5" stroke-miterlimit="10"/>
<path d="M672.968 59.426L698.556 39.9043L710.288 53.6843L691.622 68.7276L689.591 65.1677L682.039 72.0577L676.53 67.4644L675.936 64.8232L672.968 59.426Z" stroke="#605B53" stroke-width="0.5" stroke-miterlimit="10"/>
<path d="M680.093 82.3934L710.787 58.2783L746.599 101.812L715.715 126.03L690.779 95.0251H688.405L680.093 84.2193V82.3934Z" stroke="#605B53" stroke-width="0.5" stroke-miterlimit="10"/>
<path d="M691.621 0.287109L681.279 10.048C681.279 10.048 705.027 36.4597 705.027 37.6081H707.699L721.651 26.1247L699.625 0.287109H691.621Z" stroke="#605B53" stroke-width="0.5" stroke-miterlimit="10"/>
<path d="M710.288 0.287109L726.401 18.0863L741.837 5.45463L736.708 0.287109H710.288Z" stroke="#605B53" stroke-width="0.5" stroke-miterlimit="10"/>
<path d="M713.352 45.8072L727.588 34.1631L752.524 62.8715L739.462 73.2066L728.776 61.7232L726.057 63.7328L719.68 55.9815L720.464 54.8332L713.352 45.8072Z" stroke="#605B53" stroke-width="0.5" stroke-miterlimit="10"/>
<path d="M756.086 22.6792L751.336 16.9375L734.713 29.5692L746.587 43.3493L745.399 45.4392L752.524 53.1216L754.899 52.536L756.68 55.981L756.086 22.6792Z" stroke="#605B53" stroke-width="0.5" stroke-miterlimit="10"/>
<path d="M215.488 347.027C237.574 382.855 281.781 399.782 321 385.141C349.046 374.679 367.76 350.61 373.056 322.797L280.451 260.741L215.488 347.016V347.027Z" fill="#E2F0DB" stroke="#605B53" stroke-width="0.5" stroke-miterlimit="10"/>
<path d="M281.911 264.912L239.246 323.469L300.056 364.908L342.721 306.352L281.911 264.912Z" fill="#D4E4BE" stroke="#605B53" stroke-width="0.5" stroke-miterlimit="10"/>
<path d="M245.755 317.688C247.346 321.018 247.132 324.704 245.505 327.736L292.704 359.901C293.429 359.349 294.212 358.856 295.079 358.477C298.285 357.041 301.8 357.133 304.792 358.408L338.265 312.463C337.885 311.935 337.54 311.372 337.255 310.763C335.937 307.996 335.866 304.987 336.804 302.312L281.911 264.91L244.722 315.965C245.114 316.505 245.47 317.079 245.767 317.699L245.755 317.688Z" stroke="#605B53" stroke-width="0.5" stroke-miterlimit="10"/>
<path d="M245.755 317.688C245.458 317.068 245.102 316.494 244.71 315.954L239.236 323.464L245.506 327.736C247.133 324.716 247.346 321.018 245.755 317.688Z" fill="#E2F0DB" stroke="#605B53" stroke-width="0.5" stroke-miterlimit="10"/>
<path d="M295.092 358.465C294.225 358.856 293.429 359.338 292.717 359.889L300.067 364.896L304.804 358.385C301.812 357.11 298.298 357.03 295.092 358.454V358.465Z" fill="#E2F0DB" stroke="#605B53" stroke-width="0.5" stroke-miterlimit="10"/>
<path d="M338.277 312.451L342.73 306.342L336.805 302.312C335.867 304.987 335.938 307.996 337.256 310.763C337.541 311.372 337.897 311.923 338.265 312.463L338.277 312.451Z" fill="#E2F0DB" stroke="#605B53" stroke-width="0.5" stroke-miterlimit="10"/>
<path d="M291.019 318.055C295.616 318.055 299.343 314.451 299.343 310.005C299.343 305.559 295.616 301.955 291.019 301.955C286.422 301.955 282.695 305.559 282.695 310.005C282.695 314.451 286.422 318.055 291.019 318.055Z" fill="#E2F0DB" stroke="#605B53" stroke-width="0.5" stroke-miterlimit="10"/>
<path d="M281.614 274.602C288.133 274.602 293.417 269.492 293.417 263.188C293.417 256.884 288.133 251.773 281.614 251.773C275.096 251.773 269.812 256.884 269.812 263.188C269.812 269.492 275.096 274.602 281.614 274.602Z" fill="#E2F0DB" stroke="#605B53" stroke-width="0.5" stroke-miterlimit="10"/>
<g filter="url(#filter0_d_1117_2441)">
<path fill-rule="evenodd" clip-rule="evenodd" d="M401.312 255.873C401.701 255.2 402.338 254.71 403.077 254.466C415.23 250.45 424 238.999 424 225.5C424 208.655 410.345 195 393.5 195C376.655 195 363 208.655 363 225.5C363 239.454 372.37 251.219 385.162 254.846C385.956 255.071 386.646 255.577 387.059 256.292L391.13 263.343C392.434 265.602 395.695 265.602 397 263.343L401.312 255.873Z" fill="white"/>
</g>
<circle cx="392.981" cy="224.981" r="25.9815" fill="#FF4E00"/>
<path d="M397.333 217.25V226.917H400.958V236.584H403.375V212.417C400.04 212.417 397.333 215.124 397.333 217.25ZM391.292 220.875H388.875V212.417H386.458V220.875H384.042V212.417H381.625V220.875C381.625 223.546 383.788 225.709 386.458 225.709V236.584H388.875V225.709C391.545 225.709 393.708 223.546 393.708 220.875V212.417H391.292V220.875Z" fill="#FAFAFA"/>
<path d="M378.43 283.781H365.43V282.172H378.43V283.781ZM372.883 282.57H370.922V279.086H372.883V282.57ZM368.805 274.336H375V272.117H376.984V279.531H366.805V272.117H368.805V274.336ZM375 277.938V275.914H368.805V277.938H375ZM390.002 274.672H385.767V273.094H390.002V274.672ZM390.002 277.844H385.767V276.258H390.002V277.844ZM383.369 271.977C384.072 271.977 384.71 272.125 385.283 272.422C385.856 272.719 386.306 273.133 386.634 273.664C386.968 274.195 387.134 274.794 387.134 275.461C387.134 276.122 386.968 276.719 386.634 277.25C386.306 277.781 385.856 278.195 385.283 278.492C384.71 278.789 384.072 278.938 383.369 278.938C382.655 278.938 382.009 278.789 381.431 278.492C380.858 278.195 380.405 277.781 380.072 277.25C379.744 276.719 379.58 276.122 379.58 275.461C379.58 274.794 379.744 274.195 380.072 273.664C380.405 273.133 380.858 272.719 381.431 272.422C382.009 272.125 382.655 271.977 383.369 271.977ZM383.369 273.688C382.999 273.682 382.671 273.75 382.384 273.891C382.098 274.031 381.874 274.237 381.712 274.508C381.551 274.773 381.47 275.091 381.47 275.461C381.47 275.826 381.551 276.143 381.712 276.414C381.874 276.68 382.098 276.888 382.384 277.039C382.671 277.185 382.999 277.258 383.369 277.258C383.733 277.258 384.054 277.185 384.33 277.039C384.611 276.888 384.83 276.68 384.986 276.414C385.147 276.143 385.228 275.826 385.228 275.461C385.228 275.091 385.147 274.773 384.986 274.508C384.83 274.237 384.611 274.031 384.33 273.891C384.054 273.75 383.733 273.682 383.369 273.688ZM391.384 279.547H389.4V271.203H391.384V279.547ZM386.525 279.844C387.525 279.844 388.392 279.953 389.127 280.172C389.866 280.391 390.434 280.711 390.83 281.133C391.231 281.549 391.431 282.052 391.431 282.641C391.431 283.224 391.231 283.727 390.83 284.148C390.434 284.57 389.866 284.891 389.127 285.109C388.392 285.328 387.525 285.438 386.525 285.438C385.53 285.438 384.666 285.328 383.931 285.109C383.197 284.891 382.632 284.57 382.236 284.148C381.84 283.727 381.642 283.224 381.642 282.641C381.642 282.052 381.84 281.549 382.236 281.133C382.632 280.711 383.194 280.391 383.923 280.172C384.658 279.953 385.525 279.844 386.525 279.844ZM386.525 281.359C385.9 281.359 385.366 281.406 384.923 281.5C384.486 281.594 384.155 281.737 383.931 281.93C383.707 282.117 383.595 282.354 383.595 282.641C383.595 282.911 383.707 283.141 383.931 283.328C384.155 283.51 384.486 283.651 384.923 283.75C385.366 283.844 385.9 283.891 386.525 283.891C387.171 283.891 387.712 283.844 388.15 283.75C388.587 283.651 388.918 283.51 389.142 283.328C389.366 283.141 389.478 282.911 389.478 282.641C389.478 282.349 389.366 282.109 389.142 281.922C388.918 281.734 388.587 281.594 388.15 281.5C387.712 281.406 387.171 281.359 386.525 281.359ZM400.628 279.227H393.8V272.391H400.628V279.227ZM395.777 277.656H398.667V273.984H395.777V277.656ZM404.659 281.602H402.667V271.227H404.659V281.602ZM406.581 276.961H404.081V275.32H406.581V276.961ZM405.167 285.195H395.433V283.586H405.167V285.195ZM397.425 284.383H395.433V280.57H397.425V284.383ZM418.825 277.844H408.997V276.289H418.825V277.844ZM420.348 280.867H407.348V279.281H420.348V280.867ZM414.794 285.414H412.817V280.195H414.794V285.414ZM418.684 273.562H411.044V277.031H408.997V271.977H418.684V273.562Z" fill="black"/>
<defs>
<filter id="filter0_d_1117_2441" x="358" y="192" width="69" height="78.0371" filterUnits="userSpaceOnUse" color-interpolation-filters="sRGB">
<feFlood flood-opacity="0" result="BackgroundImageFix"/>
<feColorMatrix in="SourceAlpha" type="matrix" values="0 0 0 0 0 0 0 0 0 0 0 0 0 0 0 0 0 0 127 0" result="hardAlpha"/>
<feOffset dx="-1" dy="1"/>
<feGaussianBlur stdDeviation="2"/>
<feComposite in2="hardAlpha" operator="out"/>
<feColorMatrix type="matrix" values="0 0 0 0 0 0 0 0 0 0 0 0 0 0 0 0 0 0 0.25 0"/>
<feBlend mode="normal" in2="BackgroundImageFix" result="effect1_dropShadow_1117_2441"/>
<feBlend mode="normal" in="SourceGraphic" in2="effect1_dropShadow_1117_2441" result="shape"/>
</filter>
</defs>
</svg>
