<svg width="740" height="639" viewBox="0 0 740 639" fill="none" xmlns="http://www.w3.org/2000/svg">
<g clip-path="url(#clip0_1117_3266)">
<path d="M325.498 72.3008L184.777 168.702L142.787 412.54L230.171 532.759L450.093 567.1L622.828 440.894L654.604 229.945L578.569 121.068L365.751 83.6534L366.352 77.9714L325.498 72.3008Z" fill="#FFFAF8" stroke="#605B53" stroke-width="0.5" stroke-miterlimit="10"/>
<path d="M356.138 126.739L550.197 163.031L605.805 243.555L574.029 429.553L444.656 409.138L401.532 437.492L301.665 421.614L272.159 378.517L291.452 277.579L336.846 246.957L356.138 126.739Z" fill="#B7E589" stroke="#605B53" stroke-width="0.5" stroke-miterlimit="10"/>
<path d="M365.751 145.895L539.985 176.641L587.648 244.689L554.738 413.675L325.498 372.846L365.751 145.895Z" stroke="#605B53" stroke-width="0.5" stroke-miterlimit="10"/>
<path d="M291.452 273.042L334.576 243.555L340.251 208.396L299.396 236.75L291.452 273.042Z" fill="#FFC8AF" stroke="#605B53" stroke-width="0.5" stroke-miterlimit="10"/>
<path d="M349.33 148.288L340.251 204.699L295.992 234.482L272.16 360.79L257.691 358.692L222.227 353.566L248.328 207.262L343.655 140.349L349.33 148.288Z" fill="#FFA47C" stroke="#605B53" stroke-width="0.5" stroke-miterlimit="10"/>
<path d="M482.107 417.077L445.792 411.406L406.685 437.491L444.396 443.65L482.107 417.077Z" fill="#FFC8AF" stroke="#605B53" stroke-width="0.5" stroke-miterlimit="10"/>
<path d="M548.405 427.522L504.804 421.614L483.241 436.357L476.432 426.15L444.396 447.619L299.396 425.016L255.137 362.639L235.844 367.175L230.17 360.37L221.091 359.236L215.417 394.394L266.485 465.845L445.791 497.6L548.405 427.522Z" fill="#FFA47C" stroke="#605B53" stroke-width="0.5" stroke-miterlimit="10"/>
<path d="M441.252 562.246L450.093 501.162L264.216 469.247L210.878 395.529L244.923 204.995L361.813 118.801L328.902 74.5693L189.316 168.702L187.046 170.971L146.191 411.407L231.305 529.356L441.252 562.246Z" fill="#FFF5F1" stroke="#605B53" stroke-width="0.5" stroke-miterlimit="10"/>
<path d="M738.821 129.541L728.937 126.739L714.751 135.812L706.807 178.909C706.807 178.909 704.537 189.117 712.481 190.251L738.821 195.422V129.541Z" fill="#C4DFB7" stroke="#605B53" stroke-width="0.5" stroke-miterlimit="10"/>
<path d="M629.638 406.87L638.716 408.004L665.953 237.884L656.874 236.75L629.638 406.87Z" fill="#FFF5F1" stroke="#605B53" stroke-width="0.5" stroke-miterlimit="10"/>
<path d="M456.572 514.703L567.22 439.76L584.243 462.442L476.432 542.966L456.572 514.703Z" fill="#FFF5F1" stroke="#605B53" stroke-width="0.5" stroke-miterlimit="10"/>
<path d="M361.812 90.4475L376.566 122.203L375.885 126.74L544.523 157.361L546.793 144.886L549.063 143.752L568.355 169.837L587.648 155.683L564.951 124.471L551.775 130.142L536.579 127.874L538.849 116.533L398.695 91.3661L365.75 85.582L361.812 90.4475Z" fill="#FFF5F1" stroke="#605B53" stroke-width="0.5" stroke-miterlimit="10"/>
<path d="M598.997 220.872L621.694 203.86L647.795 240.72L634.029 250.587L638.716 257.165L610.175 427.523L579.704 422.748L608.075 253.762L610.175 236.75L598.997 220.872Z" fill="#FFF5F1" stroke="#605B53" stroke-width="0.5" stroke-miterlimit="10"/>
<path d="M639.851 262.835L647.795 264.321L620.558 432.955L611.479 431.821L639.851 262.835Z" fill="#FFF5F1" stroke="#605B53" stroke-width="0.5" stroke-miterlimit="10"/>
<path d="M709.077 127.874C711.584 127.874 713.616 125.843 713.616 123.337C713.616 120.832 711.584 118.801 709.077 118.801C706.569 118.801 704.537 120.832 704.537 123.337C704.537 125.843 706.569 127.874 709.077 127.874Z" fill="#8CB59A"/>
<path d="M70.1789 0.283203C70.1789 0.283203 48.5941 32.606 46.3244 51.8862C46.3244 51.8862 46.3244 53.0204 44.0547 54.1545L46.0974 0.283203H70.1789Z" fill="#CBE6BD" stroke="#605B53" stroke-width="0.5" stroke-miterlimit="10"/>
<path d="M416.286 388.724C435.408 359.112 432.378 318.431 407.048 295.204C388.936 278.6 364.378 274.426 341.386 280.982L325.498 372.846L416.286 388.724Z" fill="#FAFAFA"/>
<path d="M330.187 368.315L389.291 378.422L399.42 319.263L340.316 309.156L330.187 368.315Z" fill="#B7E589"/>
<path d="M382.694 375.749C382.331 376.191 382.014 376.668 381.741 377.144L389.401 378.448L390.457 372.279C387.574 372.176 384.68 373.356 382.706 375.749H382.694Z" fill="#FAFAFA"/>
<path d="M396.482 324.532C397.084 325.031 397.731 325.439 398.412 325.768L399.649 318.533L393.01 317.398C393.089 320.064 394.258 322.695 396.482 324.532Z" fill="#FAFAFA"/>
<path d="M346.175 309.391L339.945 308.325L338.946 314.166C341.318 313.882 343.588 312.737 345.233 310.764C345.596 310.333 345.903 309.868 346.175 309.403V309.391Z" fill="#FAFAFA"/>
<path d="M363.186 351.944C366.947 351.944 369.995 348.897 369.995 345.139C369.995 341.381 366.947 338.334 363.186 338.334C359.425 338.334 356.377 341.381 356.377 345.139C356.377 348.897 359.425 351.944 363.186 351.944Z" fill="#FAFAFA"/>
<path d="M327.2 383.053C333.154 383.053 337.981 378.23 337.981 372.279C337.981 366.329 333.154 361.505 327.2 361.505C321.246 361.505 316.419 366.329 316.419 372.279C316.419 378.23 321.246 383.053 327.2 383.053Z" fill="#FAFAFA"/>
</g>
<g filter="url(#filter0_d_1117_3266)">
<path fill-rule="evenodd" clip-rule="evenodd" d="M333.312 122.873C333.701 122.2 334.338 121.71 335.077 121.466C347.23 117.45 356 105.999 356 92.5C356 75.6553 342.345 62 325.5 62C308.655 62 295 75.6553 295 92.5C295 106.454 304.37 118.219 317.162 121.846C317.956 122.071 318.646 122.577 319.059 123.292L323.13 130.343C324.434 132.602 327.695 132.602 329 130.343L333.312 122.873Z" fill="white"/>
</g>
<circle cx="324.981" cy="91.9815" r="25.9815" fill="#FF4E00"/>
<path d="M329.333 84.2503V93.917H332.958V103.584H335.375V79.417C332.04 79.417 329.333 82.1237 329.333 84.2503ZM323.292 87.8753H320.875V79.417H318.458V87.8753H316.042V79.417H313.625V87.8753C313.625 90.5457 315.788 92.7087 318.458 92.7087V103.584H320.875V92.7087C323.545 92.7087 325.708 90.5457 325.708 87.8753V79.417H323.292V87.8753Z" fill="#FAFAFA"/>
<path d="M309.016 146.703H307.008V138.234H309.016V146.703ZM310.625 143.297H308.141V141.664H310.625V143.297ZM298.484 144.227C299.125 144.227 299.68 144.208 300.148 144.172C300.617 144.13 301.099 144.06 301.594 143.961L301.758 145.617C301.221 145.711 300.711 145.776 300.227 145.812C299.742 145.844 299.161 145.857 298.484 145.852H297.766V144.227H298.484ZM301.453 140.82H299.664V145.016H297.766V139.25H301.453V140.82ZM302.961 144.18C303.878 144.18 304.552 144.167 304.984 144.141C305.417 144.115 305.852 144.049 306.289 143.945L306.469 145.578C305.99 145.688 305.51 145.758 305.031 145.789C304.557 145.82 303.867 145.839 302.961 145.844H302.164V144.18H302.961ZM305.984 140.82H304.07V145.008H302.164V139.25H305.984V140.82ZM304.164 146.891C305.185 146.891 306.068 147 306.812 147.219C307.557 147.438 308.13 147.755 308.531 148.172C308.932 148.583 309.133 149.078 309.133 149.656C309.133 150.24 308.932 150.737 308.531 151.148C308.13 151.56 307.557 151.875 306.812 152.094C306.073 152.312 305.19 152.422 304.164 152.422C303.148 152.422 302.268 152.312 301.523 152.094C300.779 151.875 300.206 151.56 299.805 151.148C299.409 150.737 299.211 150.24 299.211 149.656C299.211 149.078 299.411 148.583 299.812 148.172C300.214 147.755 300.784 147.438 301.523 147.219C302.268 147 303.148 146.891 304.164 146.891ZM304.164 148.445C303.523 148.445 302.984 148.49 302.547 148.578C302.109 148.661 301.779 148.794 301.555 148.977C301.336 149.159 301.227 149.385 301.227 149.656C301.227 149.927 301.336 150.154 301.555 150.336C301.773 150.513 302.102 150.646 302.539 150.734C302.977 150.823 303.518 150.87 304.164 150.875C304.82 150.87 305.367 150.823 305.805 150.734C306.242 150.646 306.57 150.513 306.789 150.336C307.008 150.154 307.117 149.927 307.117 149.656C307.117 149.385 307.008 149.159 306.789 148.977C306.57 148.794 306.242 148.661 305.805 148.578C305.367 148.49 304.82 148.445 304.164 148.445ZM322.994 146.703H320.986V138.234H322.994V146.703ZM324.603 143.297H322.119V141.664H324.603V143.297ZM312.462 144.227C313.103 144.227 313.658 144.208 314.127 144.172C314.595 144.13 315.077 144.06 315.572 143.961L315.736 145.617C315.199 145.711 314.689 145.776 314.205 145.812C313.72 145.844 313.14 145.857 312.462 145.852H311.744V144.227H312.462ZM315.431 140.82H313.642V145.016H311.744V139.25H315.431V140.82ZM316.939 144.18C317.856 144.18 318.53 144.167 318.962 144.141C319.395 144.115 319.83 144.049 320.267 143.945L320.447 145.578C319.968 145.688 319.489 145.758 319.009 145.789C318.535 145.82 317.845 145.839 316.939 145.844H316.142V144.18H316.939ZM319.962 140.82H318.048V145.008H316.142V139.25H319.962V140.82ZM318.142 146.891C319.163 146.891 320.046 147 320.791 147.219C321.535 147.438 322.108 147.755 322.509 148.172C322.91 148.583 323.111 149.078 323.111 149.656C323.111 150.24 322.91 150.737 322.509 151.148C322.108 151.56 321.535 151.875 320.791 152.094C320.051 152.312 319.168 152.422 318.142 152.422C317.127 152.422 316.246 152.312 315.502 152.094C314.757 151.875 314.184 151.56 313.783 151.148C313.387 150.737 313.189 150.24 313.189 149.656C313.189 149.078 313.39 148.583 313.791 148.172C314.192 147.755 314.762 147.438 315.502 147.219C316.246 147 317.127 146.891 318.142 146.891ZM318.142 148.445C317.502 148.445 316.962 148.49 316.525 148.578C316.087 148.661 315.757 148.794 315.533 148.977C315.314 149.159 315.205 149.385 315.205 149.656C315.205 149.927 315.314 150.154 315.533 150.336C315.752 150.513 316.08 150.646 316.517 150.734C316.955 150.823 317.496 150.87 318.142 150.875C318.798 150.87 319.345 150.823 319.783 150.734C320.22 150.646 320.548 150.513 320.767 150.336C320.986 150.154 321.095 149.927 321.095 149.656C321.095 149.385 320.986 149.159 320.767 148.977C320.548 148.794 320.22 148.661 319.783 148.578C319.345 148.49 318.798 148.445 318.142 148.445ZM337.261 152.438H335.261V138.203H337.261V152.438ZM330.534 142.68C330.534 143.701 330.381 144.685 330.073 145.633C329.766 146.581 329.308 147.419 328.698 148.148C328.094 148.878 327.365 149.424 326.511 149.789L325.456 148.25C326.206 147.922 326.844 147.461 327.37 146.867C327.896 146.268 328.292 145.607 328.558 144.883C328.823 144.159 328.956 143.424 328.956 142.68V141.867H330.534V142.68ZM330.933 142.68C330.933 143.393 331.066 144.099 331.331 144.797C331.602 145.495 332.003 146.13 332.534 146.703C333.071 147.276 333.719 147.721 334.48 148.039L333.402 149.555C332.553 149.206 331.823 148.68 331.214 147.977C330.61 147.268 330.152 146.456 329.839 145.539C329.527 144.617 329.37 143.664 329.37 142.68V141.867H330.933V142.68ZM333.894 142.125H325.925V140.539H333.894V142.125ZM330.925 141.367H328.941V138.531H330.925V141.367ZM347.005 139.242C347.005 140.612 346.783 141.818 346.341 142.859C345.903 143.896 345.195 144.802 344.216 145.578C343.242 146.349 341.953 146.987 340.348 147.492L339.591 145.914C340.929 145.513 341.992 145.026 342.778 144.453C343.565 143.875 344.122 143.229 344.45 142.516C344.778 141.797 344.942 140.979 344.942 140.062V139.242H347.005ZM346.114 140.844H340.309V139.242H346.114V140.844ZM339.88 143.781L339.591 142.227L345.013 142.039V143.398L339.88 143.781ZM351.255 148.562H349.263V138.234H351.255V148.562ZM351.645 152.227H341.731V150.625H351.645V152.227ZM343.747 151.562H341.731V147.727H343.747V151.562Z" fill="black"/>
<defs>
<filter id="filter0_d_1117_3266" x="290" y="59" width="69" height="78.0371" filterUnits="userSpaceOnUse" color-interpolation-filters="sRGB">
<feFlood flood-opacity="0" result="BackgroundImageFix"/>
<feColorMatrix in="SourceAlpha" type="matrix" values="0 0 0 0 0 0 0 0 0 0 0 0 0 0 0 0 0 0 127 0" result="hardAlpha"/>
<feOffset dx="-1" dy="1"/>
<feGaussianBlur stdDeviation="2"/>
<feComposite in2="hardAlpha" operator="out"/>
<feColorMatrix type="matrix" values="0 0 0 0 0 0 0 0 0 0 0 0 0 0 0 0 0 0 0.25 0"/>
<feBlend mode="normal" in2="BackgroundImageFix" result="effect1_dropShadow_1117_3266"/>
<feBlend mode="normal" in="SourceGraphic" in2="effect1_dropShadow_1117_3266" result="shape"/>
</filter>
<clipPath id="clip0_1117_3266">
<rect width="739.105" height="638.517" fill="white"/>
</clipPath>
</defs>
</svg>
