<svg width="553" height="621" viewBox="0 0 553 621" fill="none" xmlns="http://www.w3.org/2000/svg">
<g clip-path="url(#clip0_1117_2035)">
<path d="M296.231 80.7904C296.231 80.7904 137.402 58.2119 85.099 243.875C85.099 243.875 62.1044 336.269 91.7115 420.238C121.319 504.206 137.818 537.695 213.83 551.347C289.832 564.999 346.358 493.466 346.358 493.466C346.358 493.466 444.778 376.253 439.83 270.656C439.83 270.656 450.879 105.331 296.231 80.8011V80.7904Z" fill="#FFFAF8" stroke="#605B53" stroke-width="0.5" stroke-miterlimit="10"/>
<path d="M356.234 356.266L382.961 377.235C382.961 377.235 356.853 463.272 229.7 450.026C229.7 450.026 128.187 432.78 114.396 340.13L146.574 326.553L237.315 232.495C237.315 232.495 244.877 224.976 257.878 224.912L277.961 227.759C277.961 227.759 285.949 229.85 292.167 238.361L356.213 356.266H356.234Z" fill="#B7E589" stroke="#605B53" stroke-width="0.5" stroke-miterlimit="10"/>
<path d="M310.896 243.874L317.924 240.099L312.719 230.948L316.154 229.615L301.99 214.929L297.948 217.222C297.948 217.222 287.421 210.961 264.992 209.692C242.573 208.423 238.67 209.777 238.67 209.777L237.251 206.716L220.186 215.75L220.997 219.685L213.265 225.274L218.821 230.831C218.821 230.831 229.412 216.102 250.231 213.329C250.231 213.329 284.424 214.353 293.511 222.32C302.587 230.287 306.096 231.737 310.874 243.874H310.896Z" fill="#FFC8AF" stroke="#605B53" stroke-width="0.5" stroke-miterlimit="10"/>
<path d="M175.648 248.578L171.99 274.42L164.769 279.497L159.17 275.359L133.381 297.959L138.042 304.347L106.654 322.809L106.131 326.521L93.1088 333.293C93.1088 333.293 89.9732 289.896 93.1408 274.111L141.892 231.375L136.965 226.853L188.063 180.64L215.793 168.343L246.104 164.044L304.763 172.353L333.176 184.97L354.581 204.232L392.006 261.089L384.06 264.736L420.579 321.465L413.87 349.153L407.876 352.118L403.183 377.224L393.659 367.284L394.193 363.54L383.954 350.635L378.365 350.795L369.3 336.152L375.293 333.187L357.813 305.894L351.179 306.865L344.961 298.343L349.718 271.327L318.372 223.931L307.739 213.83L292.797 207.9L246.392 201.32L229.487 202.738L176.181 244.824L175.648 248.568V248.578Z" fill="#FFA47C" stroke="#605B53" stroke-width="0.5" stroke-miterlimit="10"/>
<path d="M410.03 277.972L427.82 270.303C427.82 270.303 431.052 129.104 284.467 102.644C284.467 102.644 155.074 78.3586 100.308 222.992L116.775 236.43L211.409 153.422L234.702 146.222L258.891 145.828L274.356 148.025L274.889 144.281L281.256 145.188L280.723 148.931L319.321 158.221L345.046 178.091L410.02 277.983L410.03 277.972Z" fill="#FFF5F1" stroke="#605B53" stroke-width="0.5" stroke-miterlimit="10"/>
<path d="M336.568 502.35C336.568 502.35 295.261 531.818 244.558 529.408L244.344 511.245C244.344 511.245 229.562 510.744 219.984 509.549C210.407 508.344 197.939 504.675 197.939 504.675L192.425 523.937C192.425 523.937 141.519 510.04 111.379 470.45L120.178 457.374C120.178 457.374 158.008 485.147 222.768 496.484C287.528 507.821 329.475 487.034 329.475 487.034L336.568 502.361V502.35Z" fill="#FFF5F1" stroke="#605B53" stroke-width="0.5" stroke-miterlimit="10"/>
<path d="M351.893 472.114L359.743 456.041L345.547 462.622L310.661 474.865L286.984 478.193L252.524 479.036L251.095 489.093L273.3 489.616C273.3 489.616 316.356 487.12 351.893 472.114Z" fill="#FFC8AF" stroke="#605B53" stroke-width="0.5" stroke-miterlimit="10"/>
<path d="M253.441 472.551L254.775 463.155C254.775 463.155 313.541 467.634 360.97 434.262C360.97 434.262 371.006 428.908 376.883 420.237L380.253 422.669C380.253 422.669 374.451 450.484 326.307 462.76C278.153 475.025 265.397 473.351 253.452 472.551H253.441Z" fill="#FFC8AF" stroke="#605B53" stroke-width="0.5" stroke-miterlimit="10"/>
<path d="M208.295 483.27L210.663 473.106C210.663 473.106 185.183 469.501 155.192 451.882C125.201 434.262 113.405 419.235 113.405 419.235L117.127 438.859C117.127 438.859 144.047 458.483 159.352 465.16C174.646 471.837 208.295 483.28 208.295 483.28V483.27Z" fill="#FFC8AF" stroke="#605B53" stroke-width="0.5" stroke-miterlimit="10"/>
<path d="M211.473 467.367L213.819 457.331C213.819 457.331 168.715 448.074 137.455 419.779C106.195 391.483 108.264 383.399 108.264 383.399L103.614 383.484C103.614 383.484 103.241 406.425 122.598 420.109C122.598 420.109 169.494 462.248 211.462 467.367H211.473Z" fill="#FFC8AF" stroke="#605B53" stroke-width="0.5" stroke-miterlimit="10"/>
<path d="M552.733 446.677C552.733 446.677 528.982 528.288 532.597 576.506C532.597 576.506 534.048 609.964 539.391 620.011H552.733V446.677Z" fill="#E0EECE" stroke="#605B53" stroke-width="0.5" stroke-miterlimit="10"/>
<path d="M193.523 294.375C200.541 326.766 228.453 350.336 260.726 348.918C283.795 347.905 303.526 334.36 314.426 314.714L262.688 245.304L193.523 294.375Z" fill="#FAFAFA"/>
<path d="M262.697 248.777L216.793 282.435L250.596 328.537L296.5 294.879L262.697 248.777Z" fill="#B7E589"/>
<path d="M261.65 256.492C266.656 256.492 270.715 252.433 270.715 247.426C270.715 242.42 266.656 238.361 261.65 238.361C256.643 238.361 252.584 242.42 252.584 247.426C252.584 252.433 256.643 256.492 261.65 256.492Z" fill="#FAFAFA"/>
<path d="M222.991 279.689C222.927 279.145 222.821 278.633 222.671 278.132L216.784 282.451L220.272 287.197C222.224 285.32 223.311 282.59 222.991 279.689Z" fill="#FAFAFA"/>
<path d="M248.599 322.479C247.863 322.564 247.17 322.735 246.509 322.969L250.594 328.536L255.692 324.793C253.836 323.097 251.298 322.18 248.599 322.468V322.479Z" fill="#FAFAFA"/>
<path d="M291.708 298.407L296.497 294.898L293.201 290.408C291.847 292.189 291.132 294.482 291.399 296.882C291.452 297.404 291.57 297.916 291.708 298.407Z" fill="#FAFAFA"/>
<path d="M257.91 291.389C261.444 291.389 264.309 288.524 264.309 284.99C264.309 281.455 261.444 278.59 257.91 278.59C254.376 278.59 251.511 281.455 251.511 284.99C251.511 288.524 254.376 291.389 257.91 291.389Z" fill="#FAFAFA"/>
</g>
<g filter="url(#filter0_d_1117_2035)">
<path fill-rule="evenodd" clip-rule="evenodd" d="M215.312 206.873C215.701 206.2 216.338 205.71 217.077 205.466C229.23 201.45 238 189.999 238 176.5C238 159.655 224.345 146 207.5 146C190.655 146 177 159.655 177 176.5C177 190.454 186.37 202.219 199.162 205.846C199.956 206.071 200.646 206.577 201.059 207.292L205.13 214.343C206.434 216.602 209.695 216.602 211 214.343L215.312 206.873Z" fill="white"/>
</g>
<circle cx="206.981" cy="175.981" r="25.9815" fill="#FF4E00"/>
<path d="M211.333 168.25V177.917H214.958V187.583H217.375V163.417C214.04 163.417 211.333 166.123 211.333 168.25ZM205.292 171.875H202.875V163.417H200.458V171.875H198.042V163.417H195.625V171.875C195.625 174.545 197.788 176.708 200.458 176.708V187.583H202.875V176.708C205.545 176.708 207.708 174.545 207.708 171.875V163.417H205.292V171.875Z" fill="#FAFAFA"/>
<path d="M144.531 224.086C144.531 225.117 144.289 226.083 143.805 226.984C143.32 227.885 142.63 228.656 141.734 229.297C140.844 229.932 139.799 230.37 138.602 230.609L137.75 228.953C138.771 228.76 139.661 228.414 140.422 227.914C141.188 227.414 141.771 226.828 142.172 226.156C142.578 225.484 142.781 224.794 142.781 224.086V223.07H144.531V224.086ZM144.898 224.086C144.898 224.799 145.099 225.495 145.5 226.172C145.906 226.849 146.492 227.438 147.258 227.938C148.029 228.432 148.93 228.771 149.961 228.953L149.086 230.609C147.898 230.37 146.857 229.935 145.961 229.305C145.07 228.674 144.385 227.909 143.906 227.008C143.427 226.107 143.188 225.133 143.188 224.086V223.07H144.898V224.086ZM150.43 234.695H137.43V233.062H150.43V234.695ZM159.798 229H157.252V227.406H159.798V229ZM152.783 231.711C153.887 231.701 154.793 231.672 155.502 231.625C156.215 231.578 156.947 231.495 157.697 231.375L157.861 232.977C157.121 233.107 156.392 233.193 155.673 233.234C154.96 233.276 153.996 233.299 152.783 233.305H151.83V231.711H152.783ZM157.15 225.359H153.728V232.289H151.83V223.797H157.15V225.359ZM156.603 229.141H153.181V227.617H156.603V229.141ZM163.72 236.438H161.814V222.203H163.72V236.438ZM160.712 235.797H158.861V222.461H160.712V235.797ZM178.386 234.781H165.386V233.141H178.386V234.781ZM177.3 225.062H166.394V223.461H177.3V225.062ZM177.237 230.945H166.464V229.367H177.237V230.945ZM170.355 229.523H168.362V224.906H170.355V229.523ZM175.3 229.523H173.339V224.906H175.3V229.523ZM190.638 230.477H188.645V222.203H190.638V230.477ZM192.559 227.195H190.075V225.578H192.559V227.195ZM186.684 223.148C186.684 224.398 186.427 225.529 185.911 226.539C185.395 227.544 184.645 228.406 183.661 229.125C182.677 229.839 181.479 230.393 180.067 230.789L179.255 229.18C180.395 228.867 181.361 228.461 182.153 227.961C182.945 227.461 183.541 226.888 183.942 226.242C184.343 225.591 184.544 224.893 184.544 224.148V223.148H186.684ZM185.77 224.75H179.927V223.148H185.77V224.75ZM185.989 230.648C186.953 230.648 187.796 230.766 188.52 231C189.249 231.229 189.809 231.562 190.2 232C190.596 232.438 190.794 232.951 190.794 233.539C190.794 234.128 190.596 234.641 190.2 235.078C189.809 235.521 189.249 235.859 188.52 236.094C187.796 236.328 186.953 236.445 185.989 236.445C185.041 236.445 184.203 236.328 183.473 236.094C182.744 235.859 182.179 235.521 181.778 235.078C181.377 234.641 181.177 234.128 181.177 233.539C181.177 232.951 181.377 232.438 181.778 232C182.179 231.562 182.744 231.229 183.473 231C184.203 230.766 185.041 230.648 185.989 230.648ZM185.989 232.195C185.401 232.19 184.893 232.24 184.466 232.344C184.044 232.448 183.718 232.602 183.489 232.805C183.265 233.003 183.153 233.247 183.153 233.539C183.153 233.826 183.265 234.07 183.489 234.273C183.718 234.471 184.044 234.625 184.466 234.734C184.893 234.844 185.401 234.898 185.989 234.898C186.588 234.898 187.098 234.844 187.52 234.734C187.942 234.625 188.265 234.471 188.489 234.273C188.718 234.07 188.833 233.826 188.833 233.539C188.833 233.247 188.718 233.003 188.489 232.805C188.265 232.602 187.942 232.448 187.52 232.344C187.098 232.24 186.588 232.19 185.989 232.195ZM206.327 231.148H193.327V229.609H206.327V231.148ZM204.756 226.375H196.928V227.953H194.944V224.953H202.756V224.109H194.92V222.562H204.756V226.375ZM205.022 228.789H194.944V227.25H205.022V228.789ZM199.803 231.891C201.402 231.891 202.636 232.086 203.506 232.477C204.381 232.867 204.819 233.435 204.819 234.18C204.819 234.664 204.621 235.076 204.225 235.414C203.829 235.758 203.259 236.016 202.514 236.188C201.769 236.365 200.866 236.456 199.803 236.461C198.73 236.456 197.816 236.365 197.061 236.188C196.306 236.016 195.733 235.758 195.342 235.414C194.952 235.076 194.756 234.664 194.756 234.18C194.756 233.68 194.952 233.26 195.342 232.922C195.733 232.583 196.306 232.328 197.061 232.156C197.816 231.979 198.73 231.891 199.803 231.891ZM199.803 233.328C199.105 233.328 198.537 233.359 198.1 233.422C197.662 233.479 197.334 233.573 197.116 233.703C196.897 233.828 196.787 233.987 196.787 234.18C196.787 234.362 196.894 234.516 197.108 234.641C197.327 234.76 197.655 234.852 198.092 234.914C198.535 234.971 199.105 235 199.803 235C200.496 235 201.058 234.971 201.491 234.914C201.928 234.852 202.254 234.76 202.467 234.641C202.681 234.516 202.787 234.362 202.787 234.18C202.787 233.987 202.678 233.828 202.459 233.703C202.246 233.573 201.92 233.479 201.483 233.422C201.051 233.359 200.491 233.328 199.803 233.328ZM211.148 223.211C211.867 223.211 212.508 223.419 213.07 223.836C213.638 224.253 214.083 224.844 214.406 225.609C214.734 226.375 214.898 227.266 214.898 228.281C214.898 229.302 214.734 230.195 214.406 230.961C214.083 231.727 213.638 232.318 213.07 232.734C212.508 233.146 211.867 233.352 211.148 233.352C210.424 233.352 209.776 233.146 209.203 232.734C208.635 232.318 208.19 231.727 207.867 230.961C207.549 230.195 207.391 229.302 207.391 228.281C207.391 227.266 207.549 226.375 207.867 225.609C208.19 224.844 208.635 224.253 209.203 223.836C209.776 223.419 210.424 223.211 211.148 223.211ZM211.148 225.016C210.784 225.01 210.461 225.135 210.18 225.391C209.904 225.646 209.69 226.018 209.539 226.508C209.388 226.997 209.312 227.589 209.312 228.281C209.312 228.974 209.388 229.565 209.539 230.055C209.69 230.544 209.906 230.917 210.188 231.172C210.469 231.422 210.789 231.547 211.148 231.547C211.518 231.547 211.841 231.422 212.117 231.172C212.393 230.917 212.604 230.544 212.75 230.055C212.901 229.565 212.977 228.974 212.977 228.281C212.977 227.583 212.901 226.99 212.75 226.5C212.604 226.01 212.393 225.641 212.117 225.391C211.841 225.135 211.518 225.01 211.148 225.016ZM218.531 236.438H216.531V222.203H218.531V236.438ZM220.641 229.242H218.094V227.578H220.641V229.242ZM233.197 236.477H231.173V222.203H233.197V236.477ZM225.47 223.211C226.184 223.211 226.824 223.419 227.392 223.836C227.965 224.253 228.41 224.844 228.728 225.609C229.051 226.375 229.213 227.266 229.213 228.281C229.213 229.302 229.051 230.195 228.728 230.961C228.41 231.727 227.965 232.318 227.392 232.734C226.824 233.146 226.184 233.352 225.47 233.352C224.746 233.352 224.098 233.146 223.525 232.734C222.957 232.318 222.512 231.727 222.189 230.961C221.866 230.195 221.705 229.302 221.705 228.281C221.705 227.266 221.866 226.375 222.189 225.609C222.512 224.844 222.957 224.253 223.525 223.836C224.098 223.419 224.746 223.211 225.47 223.211ZM225.47 225.016C225.106 225.01 224.783 225.135 224.502 225.391C224.226 225.641 224.012 226.013 223.861 226.508C223.715 226.997 223.642 227.589 223.642 228.281C223.642 228.974 223.715 229.565 223.861 230.055C224.012 230.544 224.226 230.917 224.502 231.172C224.783 231.422 225.106 231.547 225.47 231.547C225.83 231.547 226.147 231.422 226.423 231.172C226.699 230.917 226.913 230.544 227.064 230.055C227.215 229.565 227.291 228.974 227.291 228.281C227.291 227.589 227.215 226.997 227.064 226.508C226.913 226.013 226.699 225.641 226.423 225.391C226.153 225.135 225.835 225.01 225.47 225.016ZM242.378 224.086C242.378 225.117 242.136 226.083 241.652 226.984C241.167 227.885 240.477 228.656 239.581 229.297C238.691 229.932 237.646 230.37 236.448 230.609L235.597 228.953C236.618 228.76 237.508 228.414 238.269 227.914C239.034 227.414 239.618 226.828 240.019 226.156C240.425 225.484 240.628 224.794 240.628 224.086V223.07H242.378V224.086ZM242.745 224.086C242.745 224.799 242.946 225.495 243.347 226.172C243.753 226.849 244.339 227.438 245.105 227.938C245.876 228.432 246.777 228.771 247.808 228.953L246.933 230.609C245.745 230.37 244.704 229.935 243.808 229.305C242.917 228.674 242.232 227.909 241.753 227.008C241.274 226.107 241.034 225.133 241.034 224.086V223.07H242.745V224.086ZM248.277 234.695H235.277V233.062H248.277V234.695ZM259.747 225.07H250.731V223.461H259.747V225.07ZM262.223 234.727H249.255V233.102H262.223V234.727ZM260.88 225.125C260.88 226.031 260.869 226.802 260.848 227.438C260.833 228.073 260.778 228.792 260.684 229.594C260.591 230.396 260.44 231.279 260.231 232.242L258.247 232.07C258.455 231.18 258.609 230.341 258.708 229.555C258.807 228.768 258.867 228.062 258.887 227.438C258.914 226.812 258.927 226.042 258.927 225.125V223.461H260.88V225.125ZM250.544 229.273L250.302 227.688L259.341 227.367V228.844L250.544 229.273ZM275.123 230.664H273.131V222.234H275.123V230.664ZM265.225 228.539C266.777 228.544 268.032 228.523 268.991 228.477C269.949 228.424 270.918 228.318 271.897 228.156L272.139 229.758C271.108 229.914 270.079 230.023 269.053 230.086C268.027 230.143 266.751 230.172 265.225 230.172H263.975V228.539H265.225ZM270.545 227.312H265.936V229.539H263.975V225.789H268.577V224.609H263.959V223.047H270.545V227.312ZM275.123 236.281H265.6V231.281H275.123V236.281ZM267.561 234.68H273.17V232.867H267.561V234.68Z" fill="black"/>
<defs>
<filter id="filter0_d_1117_2035" x="172" y="143" width="69" height="78.0371" filterUnits="userSpaceOnUse" color-interpolation-filters="sRGB">
<feFlood flood-opacity="0" result="BackgroundImageFix"/>
<feColorMatrix in="SourceAlpha" type="matrix" values="0 0 0 0 0 0 0 0 0 0 0 0 0 0 0 0 0 0 127 0" result="hardAlpha"/>
<feOffset dx="-1" dy="1"/>
<feGaussianBlur stdDeviation="2"/>
<feComposite in2="hardAlpha" operator="out"/>
<feColorMatrix type="matrix" values="0 0 0 0 0 0 0 0 0 0 0 0 0 0 0 0 0 0 0.25 0"/>
<feBlend mode="normal" in2="BackgroundImageFix" result="effect1_dropShadow_1117_2035"/>
<feBlend mode="normal" in="SourceGraphic" in2="effect1_dropShadow_1117_2035" result="shape"/>
</filter>
<clipPath id="clip0_1117_2035">
<rect width="553" height="620.565" fill="white"/>
</clipPath>
</defs>
</svg>
