<svg width="390" height="413" viewBox="0 0 390 413" fill="none" xmlns="http://www.w3.org/2000/svg">
<mask id="mask0_698_7004" style="mask-type:alpha" maskUnits="userSpaceOnUse" x="-1" y="0" width="391" height="413">
<rect x="-1" width="391" height="413" fill="#D9D9D9"/>
</mask>
<g mask="url(#mask0_698_7004)">
<g clip-path="url(#clip0_698_7004)">
<path d="M234.628 9.98915C234.628 9.98915 108.829 -7.89407 67.4025 139.159C67.4025 139.159 49.1898 212.339 72.6399 278.846C96.09 345.353 109.158 371.878 169.363 382.69C229.56 393.503 274.331 336.846 274.331 336.846C274.331 336.846 352.284 244.009 348.365 160.371C348.365 160.371 357.116 29.4267 234.628 9.9976V9.98915Z" fill="#FFFAF8" stroke="#605B53" stroke-width="0.5" stroke-miterlimit="10"/>
<path d="M282.153 228.178L303.323 244.786C303.323 244.786 282.643 312.932 181.933 302.44C181.933 302.44 101.53 288.78 90.6074 215.397L116.093 204.644L187.964 130.146C187.964 130.146 193.953 124.19 204.251 124.14L220.157 126.395C220.157 126.395 226.485 128.051 231.409 134.792L282.136 228.178H282.153Z" fill="#B7E589" stroke="#605B53" stroke-width="0.5" stroke-miterlimit="10"/>
<path d="M246.243 139.159L251.81 136.169L247.687 128.921L250.408 127.865L239.189 116.233L235.988 118.049C235.988 118.049 227.65 113.091 209.885 112.085C192.129 111.08 189.037 112.153 189.037 112.153L187.913 109.729L174.397 116.883L175.039 120.001L168.915 124.427L173.316 128.828C173.316 128.828 181.704 117.162 198.194 114.966C198.194 114.966 225.276 115.777 232.474 122.087C239.662 128.397 242.442 129.546 246.226 139.159H246.243Z" fill="#FFC8AF" stroke="#605B53" stroke-width="0.5" stroke-miterlimit="10"/>
<path d="M139.121 142.885L136.223 163.353L130.504 167.374L126.069 164.096L105.643 181.996L109.335 187.056L84.474 201.679L84.0601 204.619L73.7457 209.983C73.7457 209.983 71.2622 175.61 73.7711 163.108L112.384 129.259L108.482 125.677L148.953 89.0744L170.917 79.3345L194.924 75.9302L241.385 82.5107L263.889 92.5041L280.843 107.76L310.485 152.793L304.192 155.683L333.116 200.614L327.803 222.544L323.055 224.892L319.338 244.778L311.795 236.905L312.217 233.94L304.108 223.718L299.681 223.845L292.501 212.247L297.248 209.898L283.403 188.281L278.149 189.05L273.224 182.3L276.991 160.903L252.164 123.363L243.742 115.363L231.907 110.666L195.152 105.454L181.763 106.578L139.543 139.911L139.121 142.876V142.885Z" fill="#FFA47C" stroke="#605B53" stroke-width="0.5" stroke-miterlimit="10"/>
<path d="M324.762 166.166L338.852 160.092C338.852 160.092 341.412 48.2562 225.31 27.2981C225.31 27.2981 122.826 8.06332 79.4482 122.619L92.4911 133.263L167.445 67.5164L185.894 61.8144L205.053 61.5018L217.302 63.242L217.724 60.277L222.768 60.995L222.345 63.96L252.916 71.3178L273.292 87.0554L324.754 166.174L324.762 166.166Z" fill="#FFF5F1" stroke="#605B53" stroke-width="0.5" stroke-miterlimit="10"/>
<path d="M266.576 343.883C266.576 343.883 233.859 367.223 193.7 365.314L193.531 350.928C193.531 350.928 181.823 350.531 174.237 349.585C166.651 348.631 156.776 345.725 156.776 345.725L152.409 360.981C152.409 360.981 112.089 349.974 88.2168 318.617L95.1859 308.26C95.1859 308.26 125.149 330.257 176.442 339.237C227.735 348.217 260.959 331.753 260.959 331.753L266.576 343.892V343.883Z" fill="#FFF5F1" stroke="#605B53" stroke-width="0.5" stroke-miterlimit="10"/>
<path d="M278.715 319.934L284.932 307.204L273.688 312.416L246.057 322.114L227.304 324.749L200.01 325.417L198.878 333.383L216.466 333.797C216.466 333.797 250.568 331.82 278.715 319.934Z" fill="#FFC8AF" stroke="#605B53" stroke-width="0.5" stroke-miterlimit="10"/>
<path d="M200.736 320.281L201.792 312.839C201.792 312.839 248.338 316.387 285.903 289.955C285.903 289.955 293.853 285.714 298.507 278.846L301.176 280.772C301.176 280.772 296.581 302.803 258.449 312.526C220.309 322.241 210.206 320.914 200.745 320.281H200.736Z" fill="#FFC8AF" stroke="#605B53" stroke-width="0.5" stroke-miterlimit="10"/>
<path d="M164.978 328.771L166.854 320.72C166.854 320.72 146.673 317.865 122.918 303.91C99.1642 289.955 89.8213 278.052 89.8213 278.052L92.7694 293.596C92.7694 293.596 114.091 309.139 126.213 314.427C138.327 319.715 164.978 328.779 164.978 328.779V328.771Z" fill="#FFC8AF" stroke="#605B53" stroke-width="0.5" stroke-miterlimit="10"/>
<path d="M167.496 316.176L169.354 308.227C169.354 308.227 133.63 300.894 108.871 278.483C84.1111 256.072 85.7499 249.669 85.7499 249.669L82.0668 249.737C82.0668 249.737 81.7711 267.907 97.1033 278.745C97.1033 278.745 134.247 312.121 167.487 316.176H167.496Z" fill="#FFC8AF" stroke="#605B53" stroke-width="0.5" stroke-miterlimit="10"/>
<path d="M153.279 179.158C158.838 204.813 180.945 223.481 206.507 222.358C224.778 221.555 240.406 210.827 249.04 195.267L208.061 140.291L153.279 179.158Z" fill="#FAFAFA"/>
<path d="M208.067 143.042L171.709 169.701L198.482 206.215L234.84 179.557L208.067 143.042Z" fill="#B7E589"/>
<path d="M207.238 149.153C211.204 149.153 214.418 145.938 214.418 141.972C214.418 138.007 211.204 134.792 207.238 134.792C203.272 134.792 200.058 138.007 200.058 141.972C200.058 145.938 203.272 149.153 207.238 149.153Z" fill="#FAFAFA"/>
<path d="M176.62 167.526C176.569 167.095 176.484 166.69 176.366 166.292L171.703 169.714L174.465 173.473C176.011 171.986 176.873 169.824 176.62 167.526Z" fill="#FAFAFA"/>
<path d="M196.902 201.417C196.319 201.485 195.77 201.62 195.246 201.806L198.481 206.215L202.519 203.25C201.049 201.907 199.039 201.181 196.902 201.409V201.417Z" fill="#FAFAFA"/>
<path d="M231.047 182.351L234.839 179.572L232.229 176.016C231.156 177.426 230.59 179.243 230.802 181.143C230.844 181.557 230.937 181.963 231.047 182.351Z" fill="#FAFAFA"/>
<path d="M204.276 176.793C207.076 176.793 209.345 174.523 209.345 171.724C209.345 168.925 207.076 166.656 204.276 166.656C201.477 166.656 199.208 168.925 199.208 171.724C199.208 174.523 201.477 176.793 204.276 176.793Z" fill="#FAFAFA"/>
</g>
<g filter="url(#filter0_d_698_7004)">
<path fill-rule="evenodd" clip-rule="evenodd" d="M147.073 99.9503C147.226 99.6853 147.477 99.4926 147.768 99.3966C152.549 97.8166 156 93.3113 156 88C156 81.3726 150.627 76 144 76C137.373 76 132 81.3726 132 88C132 93.49 135.687 98.119 140.72 99.5461C141.032 99.6346 141.304 99.8336 141.466 100.115L143.067 102.889C143.581 103.778 144.864 103.778 145.377 102.889L147.073 99.9503Z" fill="white"/>
</g>
<circle cx="143.796" cy="87.796" r="10.2222" fill="#FF4E00"/>
<path d="M145.507 84.7537V88.557H146.934V92.3602H147.885V82.8521C146.572 82.8521 145.507 83.917 145.507 84.7537ZM143.13 86.1799H142.18V82.8521H141.229V86.1799H140.278V82.8521H139.327V86.1799C139.327 87.2306 140.178 88.0816 141.229 88.0816V92.3602H142.18V88.0816C143.23 88.0816 144.081 87.2306 144.081 86.1799V82.8521H143.13V86.1799Z" fill="#FAFAFA"/>
<g filter="url(#filter1_d_698_7004)">
<path fill-rule="evenodd" clip-rule="evenodd" d="M176.073 313.95C176.226 313.685 176.477 313.493 176.768 313.397C181.549 311.817 185 307.311 185 302C185 295.373 179.627 290 173 290C166.373 290 161 295.373 161 302C161 307.49 164.687 312.119 169.72 313.546C170.032 313.635 170.304 313.834 170.466 314.115L172.067 316.889C172.581 317.778 173.864 317.778 174.377 316.889L176.073 313.95Z" fill="white"/>
</g>
<circle cx="172.796" cy="301.796" r="10.2222" fill="#FF4E00"/>
<path d="M174.507 298.754V302.557H175.934V306.36H176.885V296.852C175.572 296.852 174.507 297.917 174.507 298.754ZM172.13 300.18H171.18V296.852H170.229V300.18H169.278V296.852H168.327V300.18C168.327 301.231 169.178 302.082 170.229 302.082V306.36H171.18V302.082C172.23 302.082 173.081 301.231 173.081 300.18V296.852H172.13V300.18Z" fill="#FAFAFA"/>
<g filter="url(#filter2_d_698_7004)">
<path fill-rule="evenodd" clip-rule="evenodd" d="M267.073 97.9503C267.226 97.6853 267.477 97.4926 267.768 97.3966C272.549 95.8166 276 91.3113 276 86C276 79.3726 270.627 74 264 74C257.373 74 252 79.3726 252 86C252 91.49 255.687 96.119 260.72 97.5461C261.032 97.6346 261.304 97.8336 261.466 98.1147L263.067 100.889C263.581 101.778 264.864 101.778 265.377 100.889L267.073 97.9503Z" fill="white"/>
</g>
<circle cx="263.796" cy="85.796" r="10.2222" fill="#FF4E00"/>
<path d="M265.507 82.7537V86.557H266.934V90.3602H267.885V80.8521C266.572 80.8521 265.507 81.917 265.507 82.7537ZM263.13 84.1799H262.18V80.8521H261.229V84.1799H260.278V80.8521H259.327V84.1799C259.327 85.2306 260.178 86.0816 261.229 86.0816V90.3602H262.18V86.0816C263.23 86.0816 264.081 85.2306 264.081 84.1799V80.8521H263.13V84.1799Z" fill="#FAFAFA"/>
<g filter="url(#filter3_d_698_7004)">
<path fill-rule="evenodd" clip-rule="evenodd" d="M266.073 138.95C266.226 138.685 266.477 138.493 266.768 138.397C271.549 136.817 275 132.311 275 127C275 120.373 269.627 115 263 115C256.373 115 251 120.373 251 127C251 132.49 254.687 137.119 259.72 138.546C260.032 138.635 260.304 138.834 260.466 139.115L262.067 141.889C262.581 142.778 263.864 142.778 264.377 141.889L266.073 138.95Z" fill="white"/>
</g>
<circle cx="262.796" cy="126.796" r="10.2222" fill="#FF4E00"/>
<path d="M264.507 123.754V127.557H265.934V131.36H266.885V121.852C265.572 121.852 264.507 122.917 264.507 123.754ZM262.13 125.18H261.18V121.852H260.229V125.18H259.278V121.852H258.327V125.18C258.327 126.231 259.178 127.082 260.229 127.082V131.36H261.18V127.082C262.23 127.082 263.081 126.231 263.081 125.18V121.852H262.13V125.18Z" fill="#FAFAFA"/>
<g filter="url(#filter4_d_698_7004)">
<path fill-rule="evenodd" clip-rule="evenodd" d="M169.073 119.95C169.226 119.685 169.477 119.493 169.768 119.397C174.549 117.817 178 113.311 178 108C178 101.373 172.627 96 166 96C159.373 96 154 101.373 154 108C154 113.49 157.687 118.119 162.72 119.546C163.032 119.635 163.304 119.834 163.466 120.115L165.067 122.889C165.581 123.778 166.864 123.778 167.377 122.889L169.073 119.95Z" fill="white"/>
</g>
<circle cx="165.796" cy="107.796" r="10.2222" fill="#FF4E00"/>
<path d="M167.507 104.754V108.557H168.934V112.36H169.885V102.852C168.572 102.852 167.507 103.917 167.507 104.754ZM165.13 106.18H164.18V102.852H163.229V106.18H162.278V102.852H161.327V106.18C161.327 107.231 162.178 108.082 163.229 108.082V112.36H164.18V108.082C165.23 108.082 166.081 107.231 166.081 106.18V102.852H165.13V106.18Z" fill="#FAFAFA"/>
</g>
<defs>
<filter id="filter0_d_698_7004" x="130.033" y="74.8197" width="27.1475" height="30.7032" filterUnits="userSpaceOnUse" color-interpolation-filters="sRGB">
<feFlood flood-opacity="0" result="BackgroundImageFix"/>
<feColorMatrix in="SourceAlpha" type="matrix" values="0 0 0 0 0 0 0 0 0 0 0 0 0 0 0 0 0 0 127 0" result="hardAlpha"/>
<feOffset dx="-0.393443" dy="0.393443"/>
<feGaussianBlur stdDeviation="0.786885"/>
<feComposite in2="hardAlpha" operator="out"/>
<feColorMatrix type="matrix" values="0 0 0 0 0 0 0 0 0 0 0 0 0 0 0 0 0 0 0.25 0"/>
<feBlend mode="normal" in2="BackgroundImageFix" result="effect1_dropShadow_698_7004"/>
<feBlend mode="normal" in="SourceGraphic" in2="effect1_dropShadow_698_7004" result="shape"/>
</filter>
<filter id="filter1_d_698_7004" x="159.033" y="288.82" width="27.1475" height="30.7032" filterUnits="userSpaceOnUse" color-interpolation-filters="sRGB">
<feFlood flood-opacity="0" result="BackgroundImageFix"/>
<feColorMatrix in="SourceAlpha" type="matrix" values="0 0 0 0 0 0 0 0 0 0 0 0 0 0 0 0 0 0 127 0" result="hardAlpha"/>
<feOffset dx="-0.393443" dy="0.393443"/>
<feGaussianBlur stdDeviation="0.786885"/>
<feComposite in2="hardAlpha" operator="out"/>
<feColorMatrix type="matrix" values="0 0 0 0 0 0 0 0 0 0 0 0 0 0 0 0 0 0 0.25 0"/>
<feBlend mode="normal" in2="BackgroundImageFix" result="effect1_dropShadow_698_7004"/>
<feBlend mode="normal" in="SourceGraphic" in2="effect1_dropShadow_698_7004" result="shape"/>
</filter>
<filter id="filter2_d_698_7004" x="250.033" y="72.8197" width="27.1475" height="30.7032" filterUnits="userSpaceOnUse" color-interpolation-filters="sRGB">
<feFlood flood-opacity="0" result="BackgroundImageFix"/>
<feColorMatrix in="SourceAlpha" type="matrix" values="0 0 0 0 0 0 0 0 0 0 0 0 0 0 0 0 0 0 127 0" result="hardAlpha"/>
<feOffset dx="-0.393443" dy="0.393443"/>
<feGaussianBlur stdDeviation="0.786885"/>
<feComposite in2="hardAlpha" operator="out"/>
<feColorMatrix type="matrix" values="0 0 0 0 0 0 0 0 0 0 0 0 0 0 0 0 0 0 0.25 0"/>
<feBlend mode="normal" in2="BackgroundImageFix" result="effect1_dropShadow_698_7004"/>
<feBlend mode="normal" in="SourceGraphic" in2="effect1_dropShadow_698_7004" result="shape"/>
</filter>
<filter id="filter3_d_698_7004" x="249.033" y="113.82" width="27.1475" height="30.7032" filterUnits="userSpaceOnUse" color-interpolation-filters="sRGB">
<feFlood flood-opacity="0" result="BackgroundImageFix"/>
<feColorMatrix in="SourceAlpha" type="matrix" values="0 0 0 0 0 0 0 0 0 0 0 0 0 0 0 0 0 0 127 0" result="hardAlpha"/>
<feOffset dx="-0.393443" dy="0.393443"/>
<feGaussianBlur stdDeviation="0.786885"/>
<feComposite in2="hardAlpha" operator="out"/>
<feColorMatrix type="matrix" values="0 0 0 0 0 0 0 0 0 0 0 0 0 0 0 0 0 0 0.25 0"/>
<feBlend mode="normal" in2="BackgroundImageFix" result="effect1_dropShadow_698_7004"/>
<feBlend mode="normal" in="SourceGraphic" in2="effect1_dropShadow_698_7004" result="shape"/>
</filter>
<filter id="filter4_d_698_7004" x="152.033" y="94.8197" width="27.1475" height="30.7032" filterUnits="userSpaceOnUse" color-interpolation-filters="sRGB">
<feFlood flood-opacity="0" result="BackgroundImageFix"/>
<feColorMatrix in="SourceAlpha" type="matrix" values="0 0 0 0 0 0 0 0 0 0 0 0 0 0 0 0 0 0 127 0" result="hardAlpha"/>
<feOffset dx="-0.393443" dy="0.393443"/>
<feGaussianBlur stdDeviation="0.786885"/>
<feComposite in2="hardAlpha" operator="out"/>
<feColorMatrix type="matrix" values="0 0 0 0 0 0 0 0 0 0 0 0 0 0 0 0 0 0 0.25 0"/>
<feBlend mode="normal" in2="BackgroundImageFix" result="effect1_dropShadow_698_7004"/>
<feBlend mode="normal" in="SourceGraphic" in2="effect1_dropShadow_698_7004" result="shape"/>
</filter>
<clipPath id="clip0_698_7004">
<rect width="438" height="491.515" fill="white" transform="translate(0 -54)"/>
</clipPath>
</defs>
</svg>
