<svg width="553" height="621" viewBox="0 0 553 621" fill="none" xmlns="http://www.w3.org/2000/svg">
<g clip-path="url(#clip0_1117_1977)">
<path d="M296.231 80.7904C296.231 80.7904 137.402 58.2119 85.099 243.875C85.099 243.875 62.1044 336.269 91.7115 420.238C121.319 504.206 137.818 537.695 213.83 551.347C289.832 564.999 346.358 493.466 346.358 493.466C346.358 493.466 444.778 376.253 439.83 270.656C439.83 270.656 450.879 105.331 296.231 80.8011V80.7904Z" fill="#FFFAF8" stroke="#605B53" stroke-width="0.5" stroke-miterlimit="10"/>
<path d="M356.234 356.266L382.961 377.235C382.961 377.235 356.853 463.272 229.7 450.026C229.7 450.026 128.187 432.78 114.396 340.13L146.574 326.553L237.315 232.495C237.315 232.495 244.877 224.976 257.878 224.912L277.961 227.759C277.961 227.759 285.949 229.85 292.167 238.361L356.213 356.266H356.234Z" fill="#B7E589" stroke="#605B53" stroke-width="0.5" stroke-miterlimit="10"/>
<path d="M310.896 243.874L317.924 240.099L312.719 230.948L316.154 229.615L301.99 214.929L297.948 217.222C297.948 217.222 287.421 210.961 264.992 209.692C242.573 208.423 238.67 209.777 238.67 209.777L237.251 206.716L220.186 215.75L220.997 219.685L213.265 225.274L218.821 230.831C218.821 230.831 229.412 216.102 250.231 213.329C250.231 213.329 284.424 214.353 293.511 222.32C302.587 230.287 306.096 231.737 310.874 243.874H310.896Z" fill="#FFC8AF" stroke="#605B53" stroke-width="0.5" stroke-miterlimit="10"/>
<path d="M175.648 248.578L171.99 274.42L164.769 279.497L159.17 275.359L133.381 297.959L138.042 304.347L106.654 322.809L106.131 326.521L93.1088 333.293C93.1088 333.293 89.9732 289.896 93.1408 274.111L141.892 231.375L136.965 226.853L188.063 180.64L215.793 168.343L246.104 164.044L304.763 172.353L333.176 184.97L354.581 204.232L392.006 261.089L384.06 264.736L420.579 321.465L413.87 349.153L407.876 352.118L403.183 377.224L393.659 367.284L394.193 363.54L383.954 350.635L378.365 350.795L369.3 336.152L375.293 333.187L357.813 305.894L351.179 306.865L344.961 298.343L349.718 271.327L318.372 223.931L307.739 213.83L292.797 207.9L246.392 201.32L229.487 202.738L176.181 244.824L175.648 248.568V248.578Z" fill="#FFA47C" stroke="#605B53" stroke-width="0.5" stroke-miterlimit="10"/>
<path d="M410.03 277.972L427.82 270.303C427.82 270.303 431.052 129.104 284.467 102.644C284.467 102.644 155.074 78.3586 100.308 222.992L116.775 236.43L211.409 153.422L234.702 146.222L258.891 145.828L274.356 148.025L274.889 144.281L281.256 145.188L280.723 148.931L319.321 158.221L345.046 178.091L410.02 277.983L410.03 277.972Z" fill="#FFF5F1" stroke="#605B53" stroke-width="0.5" stroke-miterlimit="10"/>
<path d="M336.568 502.35C336.568 502.35 295.261 531.818 244.558 529.408L244.344 511.245C244.344 511.245 229.562 510.744 219.984 509.549C210.407 508.344 197.939 504.675 197.939 504.675L192.425 523.937C192.425 523.937 141.519 510.04 111.379 470.45L120.178 457.374C120.178 457.374 158.008 485.147 222.768 496.484C287.528 507.821 329.475 487.034 329.475 487.034L336.568 502.361V502.35Z" fill="#FFF5F1" stroke="#605B53" stroke-width="0.5" stroke-miterlimit="10"/>
<path d="M351.893 472.114L359.743 456.041L345.547 462.622L310.661 474.865L286.984 478.193L252.524 479.036L251.095 489.093L273.3 489.616C273.3 489.616 316.356 487.12 351.893 472.114Z" fill="#FFC8AF" stroke="#605B53" stroke-width="0.5" stroke-miterlimit="10"/>
<path d="M253.441 472.551L254.775 463.155C254.775 463.155 313.541 467.634 360.97 434.262C360.97 434.262 371.006 428.908 376.883 420.237L380.253 422.669C380.253 422.669 374.451 450.484 326.307 462.76C278.153 475.025 265.397 473.351 253.452 472.551H253.441Z" fill="#FFC8AF" stroke="#605B53" stroke-width="0.5" stroke-miterlimit="10"/>
<path d="M208.295 483.27L210.663 473.106C210.663 473.106 185.183 469.501 155.192 451.882C125.201 434.262 113.405 419.235 113.405 419.235L117.127 438.859C117.127 438.859 144.047 458.483 159.352 465.16C174.646 471.837 208.295 483.28 208.295 483.28V483.27Z" fill="#FFC8AF" stroke="#605B53" stroke-width="0.5" stroke-miterlimit="10"/>
<path d="M211.473 467.367L213.819 457.331C213.819 457.331 168.715 448.074 137.455 419.779C106.195 391.483 108.264 383.399 108.264 383.399L103.614 383.484C103.614 383.484 103.241 406.425 122.598 420.109C122.598 420.109 169.494 462.248 211.462 467.367H211.473Z" fill="#FFC8AF" stroke="#605B53" stroke-width="0.5" stroke-miterlimit="10"/>
<path d="M552.733 446.677C552.733 446.677 528.982 528.288 532.597 576.506C532.597 576.506 534.048 609.964 539.391 620.011H552.733V446.677Z" fill="#E0EECE" stroke="#605B53" stroke-width="0.5" stroke-miterlimit="10"/>
<path d="M193.523 294.375C200.541 326.766 228.453 350.336 260.726 348.918C283.795 347.905 303.526 334.36 314.426 314.714L262.688 245.304L193.523 294.375Z" fill="#FAFAFA"/>
<path d="M262.697 248.777L216.793 282.435L250.596 328.537L296.5 294.879L262.697 248.777Z" fill="#B7E589"/>
<path d="M261.65 256.492C266.656 256.492 270.715 252.433 270.715 247.426C270.715 242.42 266.656 238.361 261.65 238.361C256.643 238.361 252.584 242.42 252.584 247.426C252.584 252.433 256.643 256.492 261.65 256.492Z" fill="#FAFAFA"/>
<path d="M222.991 279.689C222.927 279.145 222.821 278.633 222.671 278.132L216.784 282.451L220.272 287.197C222.224 285.32 223.311 282.59 222.991 279.689Z" fill="#FAFAFA"/>
<path d="M248.599 322.479C247.863 322.564 247.17 322.735 246.509 322.969L250.594 328.536L255.692 324.793C253.836 323.097 251.298 322.18 248.599 322.468V322.479Z" fill="#FAFAFA"/>
<path d="M291.708 298.407L296.497 294.898L293.201 290.408C291.847 292.189 291.132 294.482 291.399 296.882C291.452 297.404 291.57 297.916 291.708 298.407Z" fill="#FAFAFA"/>
<path d="M257.91 291.389C261.444 291.389 264.309 288.524 264.309 284.99C264.309 281.455 261.444 278.59 257.91 278.59C254.376 278.59 251.511 281.455 251.511 284.99C251.511 288.524 254.376 291.389 257.91 291.389Z" fill="#FAFAFA"/>
</g>
<g filter="url(#filter0_d_1117_1977)">
<path fill-rule="evenodd" clip-rule="evenodd" d="M316.312 246.873C316.701 246.2 317.338 245.71 318.077 245.466C330.23 241.45 339 229.999 339 216.5C339 199.655 325.345 186 308.5 186C291.655 186 278 199.655 278 216.5C278 230.454 287.37 242.219 300.162 245.846C300.956 246.071 301.646 246.577 302.059 247.292L306.13 254.343C307.434 256.602 310.695 256.602 312 254.343L316.312 246.873Z" fill="white"/>
</g>
<circle cx="307.981" cy="215.981" r="25.9815" fill="#FF4E00"/>
<path d="M312.333 208.25V217.917H315.958V227.583H318.375V203.417C315.04 203.417 312.333 206.123 312.333 208.25ZM306.292 211.875H303.875V203.417H301.458V211.875H299.042V203.417H296.625V211.875C296.625 214.545 298.788 216.708 301.458 216.708V227.583H303.875V216.708C306.545 216.708 308.708 214.545 308.708 211.875V203.417H306.292V211.875Z" fill="#FAFAFA"/>
<path d="M287.703 272.961H280.875V263.562H287.703V272.961ZM282.836 271.391H285.727V265.117H282.836V271.391ZM291.641 276.438H289.641V262.203H291.641V276.438ZM293.75 269.242H291.203V267.578H293.75V269.242ZM305.775 271.156H303.767V262.234H305.775V271.156ZM307.595 267.508H305.064V265.852H307.595V267.508ZM300.978 271.328C301.978 271.328 302.84 271.43 303.564 271.633C304.288 271.831 304.845 272.125 305.236 272.516C305.627 272.901 305.822 273.362 305.822 273.898C305.822 274.419 305.627 274.87 305.236 275.25C304.845 275.635 304.285 275.93 303.556 276.133C302.832 276.336 301.973 276.438 300.978 276.438C299.989 276.438 299.127 276.336 298.392 276.133C297.663 275.93 297.103 275.635 296.712 275.25C296.322 274.87 296.127 274.419 296.127 273.898C296.127 273.362 296.322 272.901 296.712 272.516C297.103 272.125 297.66 271.831 298.384 271.633C299.114 271.43 299.978 271.328 300.978 271.328ZM300.978 272.828C300.353 272.828 299.824 272.87 299.392 272.953C298.96 273.031 298.634 273.151 298.416 273.312C298.197 273.469 298.087 273.664 298.087 273.898C298.087 274.117 298.197 274.305 298.416 274.461C298.634 274.612 298.96 274.727 299.392 274.805C299.83 274.883 300.358 274.922 300.978 274.922C301.598 274.922 302.121 274.883 302.548 274.805C302.976 274.727 303.298 274.612 303.517 274.461C303.741 274.305 303.853 274.117 303.853 273.898C303.853 273.664 303.741 273.469 303.517 273.312C303.298 273.151 302.976 273.031 302.548 272.953C302.127 272.87 301.603 272.828 300.978 272.828ZM299.705 269.711H297.705V267.516H299.705V269.711ZM294.353 269.031C296.02 269.031 297.564 269.005 298.986 268.953C300.408 268.896 301.739 268.786 302.978 268.625L303.15 270.008C301.853 270.232 300.496 270.38 299.08 270.453C297.668 270.526 296.166 270.562 294.572 270.562L294.353 269.031ZM298.681 262.641C299.369 262.641 299.986 262.755 300.533 262.984C301.08 263.208 301.504 263.526 301.806 263.938C302.114 264.349 302.267 264.82 302.267 265.352C302.267 265.883 302.114 266.357 301.806 266.773C301.504 267.19 301.08 267.513 300.533 267.742C299.991 267.971 299.374 268.086 298.681 268.086C297.983 268.086 297.364 267.971 296.822 267.742C296.28 267.513 295.858 267.19 295.556 266.773C295.259 266.357 295.111 265.883 295.111 265.352C295.111 264.82 295.259 264.349 295.556 263.938C295.858 263.526 296.28 263.208 296.822 262.984C297.369 262.755 297.989 262.641 298.681 262.641ZM298.681 264.125C298.332 264.125 298.028 264.172 297.767 264.266C297.507 264.359 297.306 264.5 297.166 264.688C297.03 264.87 296.962 265.091 296.962 265.352C296.962 265.612 297.03 265.841 297.166 266.039C297.306 266.232 297.507 266.38 297.767 266.484C298.028 266.589 298.332 266.641 298.681 266.641C299.02 266.641 299.317 266.589 299.572 266.484C299.832 266.38 300.033 266.232 300.173 266.039C300.319 265.841 300.392 265.612 300.392 265.352C300.392 265.091 300.322 264.87 300.181 264.688C300.041 264.5 299.84 264.359 299.58 264.266C299.319 264.172 299.02 264.125 298.681 264.125ZM315.253 263.898C315.253 264.628 315.037 265.292 314.605 265.891C314.172 266.49 313.534 266.99 312.691 267.391C311.852 267.786 310.839 268.047 309.652 268.172L308.956 266.609C309.935 266.516 310.766 266.328 311.448 266.047C312.136 265.766 312.649 265.438 312.987 265.062C313.326 264.688 313.495 264.299 313.495 263.898V263.492H315.253V263.898ZM316.222 263.898C316.222 264.299 316.391 264.69 316.73 265.07C317.073 265.445 317.589 265.773 318.277 266.055C318.964 266.331 319.805 266.516 320.8 266.609L320.081 268.172C318.899 268.047 317.883 267.786 317.034 267.391C316.191 266.995 315.545 266.497 315.097 265.898C314.654 265.294 314.433 264.628 314.433 263.898V263.492H316.222V263.898ZM320.183 264.312H309.558V262.734H320.183V264.312ZM321.355 270.734H308.386V269.148H321.355V270.734ZM315.831 269.852H313.855V267.273H315.831V269.852ZM319.769 276.438H317.784V273.344H309.816V271.758H319.769V276.438ZM324.755 264.547H327.669V262.852H329.669V269.062H322.778V262.852H324.755V264.547ZM327.669 267.492V266.039H324.755V267.492H327.669ZM333.638 269.453H331.645V262.203H333.638V269.453ZM335.559 266.602H332.809V264.984H335.559V266.602ZM333.638 273.852H326.192V275.555H324.231V272.422H331.653V271.531H324.208V269.992H333.638V273.852ZM334.052 276.336H324.231V274.773H334.052V276.336Z" fill="black"/>
<defs>
<filter id="filter0_d_1117_1977" x="273" y="183" width="69" height="78.0371" filterUnits="userSpaceOnUse" color-interpolation-filters="sRGB">
<feFlood flood-opacity="0" result="BackgroundImageFix"/>
<feColorMatrix in="SourceAlpha" type="matrix" values="0 0 0 0 0 0 0 0 0 0 0 0 0 0 0 0 0 0 127 0" result="hardAlpha"/>
<feOffset dx="-1" dy="1"/>
<feGaussianBlur stdDeviation="2"/>
<feComposite in2="hardAlpha" operator="out"/>
<feColorMatrix type="matrix" values="0 0 0 0 0 0 0 0 0 0 0 0 0 0 0 0 0 0 0.25 0"/>
<feBlend mode="normal" in2="BackgroundImageFix" result="effect1_dropShadow_1117_1977"/>
<feBlend mode="normal" in="SourceGraphic" in2="effect1_dropShadow_1117_1977" result="shape"/>
</filter>
<clipPath id="clip0_1117_1977">
<rect width="553" height="620.565" fill="white"/>
</clipPath>
</defs>
</svg>
