<svg width="553" height="621" viewBox="0 0 553 621" fill="none" xmlns="http://www.w3.org/2000/svg">
<g clip-path="url(#clip0_1117_1948)">
<path d="M296.231 80.7904C296.231 80.7904 137.402 58.2119 85.099 243.875C85.099 243.875 62.1044 336.269 91.7115 420.238C121.319 504.206 137.818 537.695 213.83 551.347C289.832 564.999 346.358 493.466 346.358 493.466C346.358 493.466 444.778 376.253 439.83 270.656C439.83 270.656 450.879 105.331 296.231 80.8011V80.7904Z" fill="#FFFAF8" stroke="#605B53" stroke-width="0.5" stroke-miterlimit="10"/>
<path d="M356.234 356.266L382.961 377.235C382.961 377.235 356.853 463.272 229.7 450.026C229.7 450.026 128.187 432.78 114.396 340.13L146.574 326.553L237.315 232.495C237.315 232.495 244.877 224.976 257.878 224.912L277.961 227.759C277.961 227.759 285.949 229.85 292.167 238.361L356.213 356.266H356.234Z" fill="#B7E589" stroke="#605B53" stroke-width="0.5" stroke-miterlimit="10"/>
<path d="M310.896 243.874L317.924 240.099L312.719 230.948L316.154 229.615L301.99 214.929L297.948 217.222C297.948 217.222 287.421 210.961 264.992 209.692C242.573 208.423 238.67 209.777 238.67 209.777L237.251 206.716L220.186 215.75L220.997 219.685L213.265 225.274L218.821 230.831C218.821 230.831 229.412 216.102 250.231 213.329C250.231 213.329 284.424 214.353 293.511 222.32C302.587 230.287 306.096 231.737 310.874 243.874H310.896Z" fill="#FFC8AF" stroke="#605B53" stroke-width="0.5" stroke-miterlimit="10"/>
<path d="M175.648 248.578L171.99 274.42L164.769 279.497L159.17 275.359L133.381 297.959L138.042 304.347L106.654 322.809L106.131 326.521L93.1088 333.293C93.1088 333.293 89.9732 289.896 93.1408 274.111L141.892 231.375L136.965 226.853L188.063 180.64L215.793 168.343L246.104 164.044L304.763 172.353L333.176 184.97L354.581 204.232L392.006 261.089L384.06 264.736L420.579 321.465L413.87 349.153L407.876 352.118L403.183 377.224L393.659 367.284L394.193 363.54L383.954 350.635L378.365 350.795L369.3 336.152L375.293 333.187L357.813 305.894L351.179 306.865L344.961 298.343L349.718 271.327L318.372 223.931L307.739 213.83L292.797 207.9L246.392 201.32L229.487 202.738L176.181 244.824L175.648 248.568V248.578Z" fill="#FFA47C" stroke="#605B53" stroke-width="0.5" stroke-miterlimit="10"/>
<path d="M410.03 277.972L427.82 270.303C427.82 270.303 431.052 129.104 284.467 102.644C284.467 102.644 155.074 78.3586 100.308 222.992L116.775 236.43L211.409 153.422L234.702 146.222L258.891 145.828L274.356 148.025L274.889 144.281L281.256 145.188L280.723 148.931L319.321 158.221L345.046 178.091L410.02 277.983L410.03 277.972Z" fill="#FFF5F1" stroke="#605B53" stroke-width="0.5" stroke-miterlimit="10"/>
<path d="M336.568 502.35C336.568 502.35 295.261 531.818 244.558 529.408L244.344 511.245C244.344 511.245 229.562 510.744 219.984 509.549C210.407 508.344 197.939 504.675 197.939 504.675L192.425 523.937C192.425 523.937 141.519 510.04 111.379 470.45L120.178 457.374C120.178 457.374 158.008 485.147 222.768 496.484C287.528 507.821 329.475 487.034 329.475 487.034L336.568 502.361V502.35Z" fill="#FFF5F1" stroke="#605B53" stroke-width="0.5" stroke-miterlimit="10"/>
<path d="M351.893 472.114L359.743 456.041L345.547 462.622L310.661 474.865L286.984 478.193L252.524 479.036L251.095 489.093L273.3 489.616C273.3 489.616 316.356 487.12 351.893 472.114Z" fill="#FFC8AF" stroke="#605B53" stroke-width="0.5" stroke-miterlimit="10"/>
<path d="M253.441 472.551L254.775 463.155C254.775 463.155 313.541 467.634 360.97 434.262C360.97 434.262 371.006 428.908 376.883 420.237L380.253 422.669C380.253 422.669 374.451 450.484 326.307 462.76C278.153 475.025 265.397 473.351 253.452 472.551H253.441Z" fill="#FFC8AF" stroke="#605B53" stroke-width="0.5" stroke-miterlimit="10"/>
<path d="M208.295 483.27L210.663 473.106C210.663 473.106 185.183 469.501 155.192 451.882C125.201 434.262 113.405 419.235 113.405 419.235L117.127 438.859C117.127 438.859 144.047 458.483 159.352 465.16C174.646 471.837 208.295 483.28 208.295 483.28V483.27Z" fill="#FFC8AF" stroke="#605B53" stroke-width="0.5" stroke-miterlimit="10"/>
<path d="M211.473 467.367L213.819 457.331C213.819 457.331 168.715 448.074 137.455 419.779C106.195 391.483 108.264 383.399 108.264 383.399L103.614 383.484C103.614 383.484 103.241 406.425 122.598 420.109C122.598 420.109 169.494 462.248 211.462 467.367H211.473Z" fill="#FFC8AF" stroke="#605B53" stroke-width="0.5" stroke-miterlimit="10"/>
<path d="M552.733 446.677C552.733 446.677 528.982 528.288 532.597 576.506C532.597 576.506 534.048 609.964 539.391 620.011H552.733V446.677Z" fill="#E0EECE" stroke="#605B53" stroke-width="0.5" stroke-miterlimit="10"/>
<path d="M193.523 294.375C200.541 326.766 228.453 350.336 260.726 348.918C283.795 347.905 303.526 334.36 314.426 314.714L262.688 245.304L193.523 294.375Z" fill="#FAFAFA"/>
<path d="M262.697 248.777L216.793 282.435L250.596 328.537L296.5 294.879L262.697 248.777Z" fill="#B7E589"/>
<path d="M261.65 256.492C266.656 256.492 270.715 252.433 270.715 247.426C270.715 242.42 266.656 238.361 261.65 238.361C256.643 238.361 252.584 242.42 252.584 247.426C252.584 252.433 256.643 256.492 261.65 256.492Z" fill="#FAFAFA"/>
<path d="M222.991 279.689C222.927 279.145 222.821 278.633 222.671 278.132L216.784 282.451L220.272 287.197C222.224 285.32 223.311 282.59 222.991 279.689Z" fill="#FAFAFA"/>
<path d="M248.599 322.479C247.863 322.564 247.17 322.735 246.509 322.969L250.594 328.536L255.692 324.793C253.836 323.097 251.298 322.18 248.599 322.468V322.479Z" fill="#FAFAFA"/>
<path d="M291.708 298.407L296.497 294.898L293.201 290.408C291.847 292.189 291.132 294.482 291.399 296.882C291.452 297.404 291.57 297.916 291.708 298.407Z" fill="#FAFAFA"/>
<path d="M257.91 291.389C261.444 291.389 264.309 288.524 264.309 284.99C264.309 281.455 261.444 278.59 257.91 278.59C254.376 278.59 251.511 281.455 251.511 284.99C251.511 288.524 254.376 291.389 257.91 291.389Z" fill="#FAFAFA"/>
</g>
<g filter="url(#filter0_d_1117_1948)">
<path fill-rule="evenodd" clip-rule="evenodd" d="M239.312 449.873C239.701 449.2 240.338 448.71 241.077 448.466C253.23 444.45 262 432.999 262 419.5C262 402.655 248.345 389 231.5 389C214.655 389 201 402.655 201 419.5C201 433.454 210.37 445.219 223.162 448.846C223.956 449.071 224.646 449.577 225.059 450.292L229.13 457.343C230.434 459.602 233.695 459.602 235 457.343L239.312 449.873Z" fill="white"/>
</g>
<circle cx="230.981" cy="418.981" r="25.9815" fill="#FF4E00"/>
<path d="M235.333 411.25V420.917H238.958V430.583H241.375V406.417C238.04 406.417 235.333 409.123 235.333 411.25ZM229.292 414.875H226.875V406.417H224.458V414.875H222.042V406.417H219.625V414.875C219.625 417.545 221.788 419.708 224.458 419.708V430.583H226.875V419.708C229.545 419.708 231.708 417.545 231.708 414.875V406.417H229.292V414.875Z" fill="#FAFAFA"/>
<path d="M201.711 466.555C201.711 467.383 201.552 468.146 201.234 468.844C200.922 469.542 200.456 470.143 199.836 470.648C199.216 471.148 198.453 471.513 197.547 471.742L196.602 470.203C197.378 470.016 198.023 469.737 198.539 469.367C199.06 468.997 199.445 468.57 199.695 468.086C199.945 467.602 200.07 467.091 200.07 466.555V465.797H201.711V466.555ZM202.141 466.555C202.141 467.065 202.26 467.542 202.5 467.984C202.745 468.422 203.12 468.81 203.625 469.148C204.135 469.487 204.768 469.74 205.523 469.906L204.617 471.477C203.711 471.253 202.951 470.909 202.336 470.445C201.727 469.977 201.268 469.411 200.961 468.75C200.659 468.089 200.508 467.357 200.508 466.555V465.797H202.141V466.555ZM202.148 479.023H200.148V473.195H202.148V479.023ZM208.406 479.43H206.422V465.234H208.406V479.43ZM196.453 472.633C198.161 472.638 199.771 472.612 201.281 472.555C202.797 472.492 204.229 472.365 205.578 472.172L205.703 473.602C204.328 473.878 202.911 474.057 201.453 474.141C200 474.219 198.417 474.258 196.703 474.258L196.453 472.633ZM222.298 473.664H220.306V465.234H222.298V473.664ZM212.4 471.539C213.952 471.544 215.207 471.523 216.166 471.477C217.124 471.424 218.093 471.318 219.072 471.156L219.314 472.758C218.283 472.914 217.254 473.023 216.228 473.086C215.202 473.143 213.926 473.172 212.4 473.172H211.15V471.539H212.4ZM217.72 470.312H213.111V472.539H211.15V468.789H215.752V467.609H211.134V466.047H217.72V470.312ZM222.298 479.281H212.775V474.281H222.298V479.281ZM214.736 477.68H220.345V475.867H214.736V477.68ZM237.386 477.781H224.386V476.141H237.386V477.781ZM236.3 468.062H225.394V466.461H236.3V468.062ZM236.237 473.945H225.464V472.367H236.237V473.945ZM229.355 472.523H227.362V467.906H229.355V472.523ZM234.3 472.523H232.339V467.906H234.3V472.523ZM246.473 469.867H244.106V468.273H246.473V469.867ZM242.403 469.07C242.403 470.195 242.294 471.25 242.075 472.234C241.856 473.214 241.51 474.094 241.036 474.875C240.567 475.656 239.968 476.266 239.239 476.703L238.028 475.242C238.7 474.852 239.249 474.331 239.677 473.68C240.104 473.029 240.414 472.315 240.606 471.539C240.799 470.758 240.895 469.935 240.895 469.07V466.438H242.403V469.07ZM242.825 469.07C242.825 469.909 242.908 470.695 243.075 471.43C243.247 472.164 243.526 472.846 243.911 473.477C244.302 474.102 244.809 474.609 245.434 475L244.302 476.531C243.588 476.083 243.013 475.474 242.575 474.703C242.143 473.932 241.83 473.076 241.638 472.133C241.45 471.19 241.356 470.169 241.356 469.07V466.438H242.825V469.07ZM246.473 473.047H244.106V471.414H246.473V473.047ZM250.684 479.438H248.77V465.203H250.684V479.438ZM247.708 478.781H245.841V465.422H247.708V478.781ZM265.342 477.781H252.342V476.141H265.342V477.781ZM264.256 468.062H253.35V466.461H264.256V468.062ZM264.194 473.945H253.42V472.367H264.194V473.945ZM257.311 472.523H255.319V467.906H257.311V472.523ZM262.256 472.523H260.295V467.906H262.256V472.523Z" fill="black"/>
<defs>
<filter id="filter0_d_1117_1948" x="196" y="386" width="69" height="78.0371" filterUnits="userSpaceOnUse" color-interpolation-filters="sRGB">
<feFlood flood-opacity="0" result="BackgroundImageFix"/>
<feColorMatrix in="SourceAlpha" type="matrix" values="0 0 0 0 0 0 0 0 0 0 0 0 0 0 0 0 0 0 127 0" result="hardAlpha"/>
<feOffset dx="-1" dy="1"/>
<feGaussianBlur stdDeviation="2"/>
<feComposite in2="hardAlpha" operator="out"/>
<feColorMatrix type="matrix" values="0 0 0 0 0 0 0 0 0 0 0 0 0 0 0 0 0 0 0.25 0"/>
<feBlend mode="normal" in2="BackgroundImageFix" result="effect1_dropShadow_1117_1948"/>
<feBlend mode="normal" in="SourceGraphic" in2="effect1_dropShadow_1117_1948" result="shape"/>
</filter>
<clipPath id="clip0_1117_1948">
<rect width="553" height="620.565" fill="white"/>
</clipPath>
</defs>
</svg>
