<svg width="553" height="621" viewBox="0 0 553 621" fill="none" xmlns="http://www.w3.org/2000/svg">
<g clip-path="url(#clip0_1117_2006)">
<path d="M296.231 80.7904C296.231 80.7904 137.402 58.2119 85.099 243.875C85.099 243.875 62.1044 336.269 91.7115 420.238C121.319 504.206 137.818 537.695 213.83 551.347C289.832 564.999 346.358 493.466 346.358 493.466C346.358 493.466 444.778 376.253 439.83 270.656C439.83 270.656 450.879 105.331 296.231 80.8011V80.7904Z" fill="#FFFAF8" stroke="#605B53" stroke-width="0.5" stroke-miterlimit="10"/>
<path d="M356.234 356.266L382.961 377.235C382.961 377.235 356.853 463.272 229.7 450.026C229.7 450.026 128.187 432.78 114.396 340.13L146.574 326.553L237.315 232.495C237.315 232.495 244.877 224.976 257.878 224.912L277.961 227.759C277.961 227.759 285.949 229.85 292.167 238.361L356.213 356.266H356.234Z" fill="#B7E589" stroke="#605B53" stroke-width="0.5" stroke-miterlimit="10"/>
<path d="M310.896 243.874L317.924 240.099L312.719 230.948L316.154 229.615L301.99 214.929L297.948 217.222C297.948 217.222 287.421 210.961 264.992 209.692C242.573 208.423 238.67 209.777 238.67 209.777L237.251 206.716L220.186 215.75L220.997 219.685L213.265 225.274L218.821 230.831C218.821 230.831 229.412 216.102 250.231 213.329C250.231 213.329 284.424 214.353 293.511 222.32C302.587 230.287 306.096 231.737 310.874 243.874H310.896Z" fill="#FFC8AF" stroke="#605B53" stroke-width="0.5" stroke-miterlimit="10"/>
<path d="M175.648 248.578L171.99 274.42L164.769 279.497L159.17 275.359L133.381 297.959L138.042 304.347L106.654 322.809L106.131 326.521L93.1088 333.293C93.1088 333.293 89.9732 289.896 93.1408 274.111L141.892 231.375L136.965 226.853L188.063 180.64L215.793 168.343L246.104 164.044L304.763 172.353L333.176 184.97L354.581 204.232L392.006 261.089L384.06 264.736L420.579 321.465L413.87 349.153L407.876 352.118L403.183 377.224L393.659 367.284L394.193 363.54L383.954 350.635L378.365 350.795L369.3 336.152L375.293 333.187L357.813 305.894L351.179 306.865L344.961 298.343L349.718 271.327L318.372 223.931L307.739 213.83L292.797 207.9L246.392 201.32L229.487 202.738L176.181 244.824L175.648 248.568V248.578Z" fill="#FFA47C" stroke="#605B53" stroke-width="0.5" stroke-miterlimit="10"/>
<path d="M410.03 277.972L427.82 270.303C427.82 270.303 431.052 129.104 284.467 102.644C284.467 102.644 155.074 78.3586 100.308 222.992L116.775 236.43L211.409 153.422L234.702 146.222L258.891 145.828L274.356 148.025L274.889 144.281L281.256 145.188L280.723 148.931L319.321 158.221L345.046 178.091L410.02 277.983L410.03 277.972Z" fill="#FFF5F1" stroke="#605B53" stroke-width="0.5" stroke-miterlimit="10"/>
<path d="M336.568 502.35C336.568 502.35 295.261 531.818 244.558 529.408L244.344 511.245C244.344 511.245 229.562 510.744 219.984 509.549C210.407 508.344 197.939 504.675 197.939 504.675L192.425 523.937C192.425 523.937 141.519 510.04 111.379 470.45L120.178 457.374C120.178 457.374 158.008 485.147 222.768 496.484C287.528 507.821 329.475 487.034 329.475 487.034L336.568 502.361V502.35Z" fill="#FFF5F1" stroke="#605B53" stroke-width="0.5" stroke-miterlimit="10"/>
<path d="M351.893 472.114L359.743 456.041L345.547 462.622L310.661 474.865L286.984 478.193L252.524 479.036L251.095 489.093L273.3 489.616C273.3 489.616 316.356 487.12 351.893 472.114Z" fill="#FFC8AF" stroke="#605B53" stroke-width="0.5" stroke-miterlimit="10"/>
<path d="M253.441 472.551L254.775 463.155C254.775 463.155 313.541 467.634 360.97 434.262C360.97 434.262 371.006 428.908 376.883 420.237L380.253 422.669C380.253 422.669 374.451 450.484 326.307 462.76C278.153 475.025 265.397 473.351 253.452 472.551H253.441Z" fill="#FFC8AF" stroke="#605B53" stroke-width="0.5" stroke-miterlimit="10"/>
<path d="M208.295 483.27L210.663 473.106C210.663 473.106 185.183 469.501 155.192 451.882C125.201 434.262 113.405 419.235 113.405 419.235L117.127 438.859C117.127 438.859 144.047 458.483 159.352 465.16C174.646 471.837 208.295 483.28 208.295 483.28V483.27Z" fill="#FFC8AF" stroke="#605B53" stroke-width="0.5" stroke-miterlimit="10"/>
<path d="M211.473 467.367L213.819 457.331C213.819 457.331 168.715 448.074 137.455 419.779C106.195 391.483 108.264 383.399 108.264 383.399L103.614 383.484C103.614 383.484 103.241 406.425 122.598 420.109C122.598 420.109 169.494 462.248 211.462 467.367H211.473Z" fill="#FFC8AF" stroke="#605B53" stroke-width="0.5" stroke-miterlimit="10"/>
<path d="M552.733 446.677C552.733 446.677 528.982 528.288 532.597 576.506C532.597 576.506 534.048 609.964 539.391 620.011H552.733V446.677Z" fill="#E0EECE" stroke="#605B53" stroke-width="0.5" stroke-miterlimit="10"/>
<path d="M193.523 294.375C200.541 326.766 228.453 350.336 260.726 348.918C283.795 347.905 303.526 334.36 314.426 314.714L262.688 245.304L193.523 294.375Z" fill="#FAFAFA"/>
<path d="M262.697 248.777L216.793 282.435L250.596 328.537L296.5 294.879L262.697 248.777Z" fill="#B7E589"/>
<path d="M261.65 256.492C266.656 256.492 270.715 252.433 270.715 247.426C270.715 242.42 266.656 238.361 261.65 238.361C256.643 238.361 252.584 242.42 252.584 247.426C252.584 252.433 256.643 256.492 261.65 256.492Z" fill="#FAFAFA"/>
<path d="M222.991 279.689C222.927 279.145 222.821 278.633 222.671 278.132L216.784 282.451L220.272 287.197C222.224 285.32 223.311 282.59 222.991 279.689Z" fill="#FAFAFA"/>
<path d="M248.599 322.479C247.863 322.564 247.17 322.735 246.509 322.969L250.594 328.536L255.692 324.793C253.836 323.097 251.298 322.18 248.599 322.468V322.479Z" fill="#FAFAFA"/>
<path d="M291.708 298.407L296.497 294.898L293.201 290.408C291.847 292.189 291.132 294.482 291.399 296.882C291.452 297.404 291.57 297.916 291.708 298.407Z" fill="#FAFAFA"/>
<path d="M257.91 291.389C261.444 291.389 264.309 288.524 264.309 284.99C264.309 281.455 261.444 278.59 257.91 278.59C254.376 278.59 251.511 281.455 251.511 284.99C251.511 288.524 254.376 291.389 257.91 291.389Z" fill="#FAFAFA"/>
</g>
<g filter="url(#filter0_d_1117_2006)">
<path fill-rule="evenodd" clip-rule="evenodd" d="M345.312 205.873C345.701 205.2 346.338 204.71 347.077 204.466C359.23 200.45 368 188.999 368 175.5C368 158.655 354.345 145 337.5 145C320.655 145 307 158.655 307 175.5C307 189.454 316.37 201.219 329.162 204.846C329.956 205.071 330.646 205.577 331.059 206.292L335.13 213.343C336.434 215.602 339.695 215.602 341 213.343L345.312 205.873Z" fill="white"/>
</g>
<circle cx="336.981" cy="174.981" r="25.9815" fill="#FF4E00"/>
<path d="M341.333 167.25V176.917H344.958V186.583H347.375V162.417C344.04 162.417 341.333 165.123 341.333 167.25ZM335.292 170.875H332.875V162.417H330.458V170.875H328.042V162.417H325.625V170.875C325.625 173.545 327.788 175.708 330.458 175.708V186.583H332.875V175.708C335.545 175.708 337.708 173.545 337.708 170.875V162.417H335.292V170.875Z" fill="#FAFAFA"/>
<path d="M302.531 223.086C302.531 224.117 302.289 225.083 301.805 225.984C301.32 226.885 300.63 227.656 299.734 228.297C298.844 228.932 297.799 229.37 296.602 229.609L295.75 227.953C296.771 227.76 297.661 227.414 298.422 226.914C299.188 226.414 299.771 225.828 300.172 225.156C300.578 224.484 300.781 223.794 300.781 223.086V222.07H302.531V223.086ZM302.898 223.086C302.898 223.799 303.099 224.495 303.5 225.172C303.906 225.849 304.492 226.438 305.258 226.938C306.029 227.432 306.93 227.771 307.961 227.953L307.086 229.609C305.898 229.37 304.857 228.935 303.961 228.305C303.07 227.674 302.385 226.909 301.906 226.008C301.427 225.107 301.188 224.133 301.188 223.086V222.07H302.898V223.086ZM308.43 233.695H295.43V232.062H308.43V233.695ZM320.994 230.141H310.931V228.57H320.994V230.141ZM322.408 233.781H309.408V232.164H322.408V233.781ZM320.884 223.883H312.962V228.992H310.931V222.258H320.884V223.883ZM320.548 226.938H312.369V225.383H320.548V226.938ZM335.261 230.922H333.284V221.203H335.261V230.922ZM325.378 227.875C326.935 227.865 328.204 227.831 329.183 227.773C330.162 227.716 331.131 227.604 332.089 227.438L332.292 229.008C331.323 229.185 330.339 229.305 329.339 229.367C328.339 229.43 327.019 229.464 325.378 229.469H324.128V227.875H325.378ZM330.698 226.461H326.089V228.594H324.128V224.969H328.73V223.688H324.112V222.086H330.698V226.461ZM331.097 230.453C331.097 231.286 330.881 232.047 330.448 232.734C330.021 233.422 329.396 233.995 328.573 234.453C327.751 234.917 326.766 235.229 325.62 235.391L324.862 233.867C325.842 233.737 326.672 233.503 327.355 233.164C328.042 232.826 328.555 232.419 328.894 231.945C329.232 231.471 329.402 230.974 329.402 230.453V230.195H331.097V230.453ZM331.487 230.453C331.487 230.974 331.652 231.471 331.98 231.945C332.313 232.414 332.823 232.82 333.511 233.164C334.198 233.503 335.029 233.737 336.003 233.867L335.284 235.391C334.133 235.219 333.144 234.904 332.316 234.445C331.493 233.992 330.865 233.424 330.433 232.742C330.001 232.055 329.784 231.292 329.784 230.453V230.195H331.487V230.453ZM350.333 231.258H337.364V229.641H350.333V231.258ZM342.364 235.438H340.364V230.242H342.364V235.438ZM347.302 235.438H345.325V230.242H347.302V235.438ZM344.583 223.992C344.583 224.784 344.351 225.526 343.888 226.219C343.429 226.906 342.757 227.484 341.872 227.953C340.992 228.422 339.947 228.727 338.739 228.867L338.013 227.312C339.033 227.188 339.906 226.951 340.63 226.602C341.359 226.253 341.908 225.846 342.278 225.383C342.648 224.919 342.833 224.456 342.833 223.992V223.648H344.583V223.992ZM344.833 223.992C344.833 224.456 345.015 224.917 345.38 225.375C345.749 225.833 346.296 226.24 347.02 226.594C347.744 226.948 348.614 227.188 349.63 227.312L348.911 228.867C347.708 228.727 346.664 228.422 345.778 227.953C344.898 227.479 344.226 226.896 343.763 226.203C343.304 225.51 343.075 224.773 343.075 223.992V223.648H344.833V223.992ZM349.138 224.398H338.536V222.82H349.138V224.398ZM344.809 223.391H342.833V221.234H344.809V223.391ZM363.311 235.477H361.334V221.203H363.311V235.477ZM361.741 227.969H359.045V226.344H361.741V227.969ZM353.006 230.508C354.376 230.508 355.524 230.484 356.452 230.438C357.384 230.385 358.324 230.276 359.272 230.109L359.428 231.734C358.449 231.896 357.465 232.008 356.475 232.07C355.491 232.128 354.334 232.159 353.006 232.164H351.834V230.508H353.006ZM358.248 227.742H353.827V231.031H351.834V226.156H356.295V224.016H351.803V222.406H358.248V227.742ZM372.422 223.086C372.422 224.117 372.18 225.083 371.695 225.984C371.211 226.885 370.521 227.656 369.625 228.297C368.734 228.932 367.69 229.37 366.492 229.609L365.641 227.953C366.661 227.76 367.552 227.414 368.312 226.914C369.078 226.414 369.661 225.828 370.062 225.156C370.469 224.484 370.672 223.794 370.672 223.086V222.07H372.422V223.086ZM372.789 223.086C372.789 223.799 372.99 224.495 373.391 225.172C373.797 225.849 374.383 226.438 375.148 226.938C375.919 227.432 376.82 227.771 377.852 227.953L376.977 229.609C375.789 229.37 374.747 228.935 373.852 228.305C372.961 227.674 372.276 226.909 371.797 226.008C371.318 225.107 371.078 224.133 371.078 223.086V222.07H372.789V223.086ZM378.32 233.695H365.32V232.062H378.32V233.695Z" fill="black"/>
<defs>
<filter id="filter0_d_1117_2006" x="302" y="142" width="69" height="78.0371" filterUnits="userSpaceOnUse" color-interpolation-filters="sRGB">
<feFlood flood-opacity="0" result="BackgroundImageFix"/>
<feColorMatrix in="SourceAlpha" type="matrix" values="0 0 0 0 0 0 0 0 0 0 0 0 0 0 0 0 0 0 127 0" result="hardAlpha"/>
<feOffset dx="-1" dy="1"/>
<feGaussianBlur stdDeviation="2"/>
<feComposite in2="hardAlpha" operator="out"/>
<feColorMatrix type="matrix" values="0 0 0 0 0 0 0 0 0 0 0 0 0 0 0 0 0 0 0.25 0"/>
<feBlend mode="normal" in2="BackgroundImageFix" result="effect1_dropShadow_1117_2006"/>
<feBlend mode="normal" in="SourceGraphic" in2="effect1_dropShadow_1117_2006" result="shape"/>
</filter>
<clipPath id="clip0_1117_2006">
<rect width="553" height="620.565" fill="white"/>
</clipPath>
</defs>
</svg>
