<svg width="871" height="915" viewBox="0 0 871 915" fill="none" xmlns="http://www.w3.org/2000/svg">
<path d="M419.812 230.385C419.812 230.385 197.355 303.179 276.142 623.782C276.142 623.782 347.205 846.811 583.566 787.956C583.566 787.956 823.017 719.808 741.141 442.572C741.141 442.572 649.995 188.567 419.812 230.385Z" fill="#FFFAF8" stroke="#605B53" stroke-width="0.5" stroke-miterlimit="10"/>
<path d="M514.048 760.077C634.349 760.077 731.871 662.304 731.871 541.695C731.871 421.086 634.349 323.313 514.048 323.313C393.747 323.313 296.225 421.086 296.225 541.695C296.225 662.304 393.747 760.077 514.048 760.077Z" fill="#FFFAF8" stroke="#605B53" stroke-width="0.5" stroke-miterlimit="10"/>
<path d="M388.915 386.815C388.915 386.815 455.344 334.155 552.669 352.741V367.795L588.2 413.144L583.566 417.791V428.632L666.988 516.914L676.257 507.622C676.257 507.622 688.616 521.561 707.154 524.658C707.154 524.658 724.162 701.284 537.236 733.778C537.236 733.778 398.184 752.333 333.301 617.587L353.384 597.452L358.018 585.062L367.287 589.708L401.274 471.999L395.095 464.255L392.005 462.706L405.909 406.949L388.915 386.815Z" fill="#FFF5F1" stroke="#605B53" stroke-width="0.5" stroke-miterlimit="10"/>
<path d="M481.961 411.224L353.384 622.234C353.384 622.234 427.536 766.273 568.117 713.613C708.699 660.954 694.733 542.718 694.733 542.718L481.961 411.224Z" fill="#B7E589" stroke="#605B53" stroke-width="0.5" stroke-miterlimit="10"/>
<path d="M293.598 345.074L310.128 358.936C310.128 358.936 365.742 312.472 447.619 296.984C529.496 281.496 548.034 279.947 600.559 287.691L603.664 265.667C603.664 265.667 521.772 208.702 419.812 230.385C419.812 230.385 351.22 249.11 293.598 345.074Z" fill="#FFF5F1" stroke="#605B53" stroke-width="0.5" stroke-miterlimit="10"/>
<path d="M385.826 393.01L401.274 410.047L351.839 594.355L333.301 610.912C333.301 610.912 307.039 549.439 331.756 479.743C356.474 410.047 385.826 393.01 385.826 393.01Z" fill="#FFC8AF" stroke="#605B53" stroke-width="0.5" stroke-miterlimit="10"/>
<path d="M390.46 465.804L359.563 580.415L365.743 583.513L396.64 471.999L390.46 465.804Z" fill="#FFC8AF" stroke="#605B53" stroke-width="0.5" stroke-miterlimit="10"/>
<path d="M557.304 352.741V365.844L677.802 502.976C677.802 502.976 694.795 520.012 705.609 520.012C705.609 520.012 696.34 448.767 656.174 408.498C616.008 368.229 557.304 352.741 557.304 352.741Z" fill="#FFC8AF" stroke="#605B53" stroke-width="0.5" stroke-miterlimit="10"/>
<path d="M592.835 417.791L671.622 504.524L665.443 509.171L588.2 425.535V417.791H592.835Z" fill="#FFC8AF" stroke="#605B53" stroke-width="0.5" stroke-miterlimit="10"/>
<path d="M293.598 352.741L344.114 396.108C344.114 396.108 277.068 465.045 293.598 575.398C293.598 575.398 310.128 770.919 543.4 764.724C543.4 764.724 788.953 735.297 727.221 465.804C727.221 465.804 688.615 346.546 577.386 326.411L583.566 306.277L595.924 310.923L599.014 301.63H603.664L605.642 292.198C605.642 292.198 664.114 303.179 724.255 417.791C784.38 532.403 731.855 653.473 731.855 653.473C731.855 653.473 683.965 760.078 548.019 791.054C548.019 791.054 412.505 816.439 321.143 694.548C229.78 572.656 275.508 388.364 293.583 352.741H293.598Z" fill="#FFA47C" stroke="#605B53" stroke-width="0.5" stroke-miterlimit="10"/>
<path d="M870.598 0.387207V10.4235L741.14 41.4306L745.775 63.1139L870.598 36.0717V76.5421L753.113 106.14L731.871 37.063L762.644 0.387207H870.598Z" fill="#CBE6BD" stroke="#605B53" stroke-width="0.5" stroke-miterlimit="10"/>
<path d="M758.195 131.804L764.622 164.375L870.598 138.711V102.19L758.195 131.804Z" fill="#CBE6BD" stroke="#605B53" stroke-width="0.5" stroke-miterlimit="10"/>
<path d="M870.598 820.62V913.378H826.725L870.598 820.62Z" fill="#CBE6BD" stroke="#605B53" stroke-width="0.5" stroke-miterlimit="10"/>
<path d="M694.733 913.378L687.071 876.238L679.964 867.007L557.304 896.605L546.104 913.378H694.733Z" fill="#CBE6BD" stroke="#605B53" stroke-width="0.5" stroke-miterlimit="10"/>
<path d="M90.852 913.378L192.719 747.687V734.646C192.719 734.646 49.0484 897.921 28.9654 901.019L8.8824 904.117L0.385742 898.092V913.378H90.852Z" fill="#CBE6BD" stroke="#605B53" stroke-width="0.5" stroke-miterlimit="10"/>
<path d="M0.385742 754.502L89.2144 732.199C89.2144 732.199 98.4835 727.552 101.573 736.845L61.4072 787.956L49.0484 795.7L11.9721 804.993C11.9721 804.993 1.15817 806.154 0.385742 796.288V754.517V754.502Z" fill="#CBE6BD" stroke="#605B53" stroke-width="0.5" stroke-miterlimit="10"/>
<path d="M0.385742 734.646L95.0076 711.739C95.0076 711.739 107.753 710.516 109.297 699.674C110.842 688.832 123.201 685.735 123.201 685.735L147.919 679.54L152.553 674.893L146.374 650.112L0.385742 688.383V734.646Z" fill="#CBE6BD" stroke="#605B53" stroke-width="0.5" stroke-miterlimit="10"/>
<path d="M0.385742 598.258L110.842 574.221C110.842 574.221 127.836 572.672 124.746 560.281L117.022 530.854C117.022 530.854 112.387 524.659 100.028 529.305L0.385742 555.496V598.258Z" fill="#CBE6BD" stroke="#605B53" stroke-width="0.5" stroke-miterlimit="10"/>
<path d="M0.385742 488.06V536.089L95.0076 512.083C95.0076 512.083 110.842 509.186 109.297 499.893L101.573 470.466C101.573 470.466 98.4835 462.722 84.5799 467.368L0.385742 488.06Z" fill="#CBE6BD" stroke="#605B53" stroke-width="0.5" stroke-miterlimit="10"/>
<path d="M0.385742 418.643V470.621L81.4902 448.767C81.4902 448.767 97.7111 445.669 95.0076 436.376L86.1247 402.303L79.9453 400.754L0.385742 418.643Z" fill="#CBE6BD" stroke="#605B53" stroke-width="0.5" stroke-miterlimit="10"/>
<path d="M0.385742 0.387207V55.0756L13.5169 64.6627L269.498 0.387207H0.385742Z" fill="#C4DFB7" stroke="#605B53" stroke-width="0.5" stroke-miterlimit="10"/>
<path d="M412.072 514.916C439.74 555.913 491.416 573.059 535.243 553.141C566.588 538.907 586.346 509.155 590.518 475.855L480.463 408.42L412.072 514.916Z" fill="#FAFAFA"/>
<path d="M482.387 413.179L437.603 485.369L509.923 530.465L554.708 458.275L482.387 413.179Z" fill="#B7E589"/>
<path d="M444.668 478.164C444.282 477.451 443.85 476.785 443.355 476.181L437.608 485.443L445.055 490.089C446.708 486.403 446.708 482.02 444.653 478.179L444.668 478.164Z" fill="#FAFAFA"/>
<path d="M503.821 523.234C502.847 523.745 501.982 524.38 501.194 525.077L509.923 530.529L514.897 522.506C511.39 521.189 507.358 521.329 503.805 523.234H503.821Z" fill="#FAFAFA"/>
<path d="M550.058 465.881L554.723 458.354L547.679 453.956C546.783 457.193 547.076 460.739 548.776 463.93C549.146 464.627 549.579 465.262 550.058 465.866V465.881Z" fill="#FAFAFA"/>
<path d="M495.88 475.639C501.145 475.639 505.412 471.36 505.412 466.082C505.412 460.805 501.145 456.526 495.88 456.526C490.616 456.526 486.349 460.805 486.349 466.082C486.349 471.36 490.616 475.639 495.88 475.639Z" fill="#FAFAFA"/>
<path d="M467.703 402.303L439.895 386.815C439.895 386.815 432.171 382.168 427.537 388.364L403.7 459.919L407.454 471.999L382.705 561.443L467.703 419.34C467.703 419.34 463.068 411.596 467.703 402.303Z" fill="#B7E589" stroke="#605B53" stroke-width="0.5" stroke-miterlimit="10"/>
<path d="M492.976 397.935L510.912 371.606C510.912 371.606 515.747 363.985 522.653 367.439L575.935 420.703L577.974 433.186L640.061 502.031L500.577 413.176C500.577 413.176 501.257 404.177 492.961 397.951L492.976 397.935Z" fill="#B7E589" stroke="#605B53" stroke-width="0.5" stroke-miterlimit="10"/>
<path d="M472.337 368.229C472.337 368.229 453.799 372.875 449.164 377.522C444.53 382.168 448.639 385.142 448.639 385.142L470.792 399.205C470.792 399.205 472.337 396.108 478.516 394.559C484.696 393.01 487.786 394.559 487.786 394.559L503.234 369.778C503.234 369.778 505.644 363.768 496.715 364.45C487.786 365.131 472.337 368.229 472.337 368.229Z" fill="#B7E589" stroke="#605B53" stroke-width="0.5" stroke-miterlimit="10"/>
<path d="M481.961 424.761C489.418 424.761 495.463 418.7 495.463 411.224C495.463 403.748 489.418 397.688 481.961 397.688C474.504 397.688 468.459 403.748 468.459 411.224C468.459 418.7 474.504 424.761 481.961 424.761Z" fill="#FAFAFA"/>
<g filter="url(#filter0_d_1117_2150)">
<path fill-rule="evenodd" clip-rule="evenodd" d="M348.312 434.873C348.701 434.2 349.338 433.71 350.077 433.466C362.23 429.45 371 417.999 371 404.5C371 387.655 357.345 374 340.5 374C323.655 374 310 387.655 310 404.5C310 418.454 319.37 430.219 332.162 433.846C332.956 434.071 333.646 434.577 334.059 435.292L338.13 442.343C339.434 444.602 342.695 444.602 344 442.343L348.312 434.873Z" fill="white"/>
</g>
<circle cx="339.981" cy="403.981" r="25.9815" fill="#FF4E00"/>
<path d="M344.333 396.25V405.917H347.958V415.583H350.375V391.417C347.04 391.417 344.333 394.123 344.333 396.25ZM338.292 399.875H335.875V391.417H333.458V399.875H331.042V391.417H328.625V399.875C328.625 402.545 330.788 404.708 333.458 404.708V415.583H335.875V404.708C338.545 404.708 340.708 402.545 340.708 399.875V391.417H338.292V399.875Z" fill="#FAFAFA"/>
<path d="M293.249 451.215C293.971 451.215 294.615 451.424 295.182 451.84C295.75 452.252 296.193 452.842 296.514 453.608C296.834 454.374 296.996 455.263 297 456.276C296.996 457.3 296.834 458.197 296.514 458.967C296.193 459.733 295.75 460.324 295.182 460.74C294.615 461.153 293.971 461.359 293.249 461.359C292.527 461.359 291.88 461.153 291.309 460.74C290.742 460.324 290.297 459.733 289.972 458.967C289.652 458.197 289.494 457.3 289.497 456.276C289.494 455.263 289.652 454.374 289.972 453.608C290.297 452.842 290.742 452.252 291.309 451.84C291.88 451.424 292.527 451.215 293.249 451.215ZM293.249 453.017C292.888 453.017 292.569 453.144 292.293 453.398C292.017 453.648 291.803 454.018 291.652 454.508C291.501 454.998 291.425 455.587 291.425 456.276C291.425 456.972 291.501 457.565 291.652 458.055C291.803 458.545 292.015 458.917 292.287 459.171C292.564 459.425 292.884 459.552 293.249 459.552C293.624 459.552 293.948 459.425 294.221 459.171C294.497 458.917 294.711 458.547 294.862 458.061C295.013 457.571 295.088 456.976 295.088 456.276C295.088 455.584 295.013 454.994 294.862 454.508C294.711 454.018 294.497 453.648 294.221 453.398C293.945 453.144 293.621 453.017 293.249 453.017ZM300.641 450.21V464.442H298.646V450.21H300.641ZM302.74 455.58V457.243H300.199V455.58H302.74ZM315.315 450.21V464.475H313.332V450.21H315.315ZM305.442 459.508C306.787 459.508 307.991 459.473 309.055 459.403C310.124 459.333 311.21 459.206 312.315 459.022L312.486 460.641C311.392 460.832 310.302 460.965 309.216 461.039C308.129 461.109 306.871 461.144 305.442 461.144H304.166V459.508H305.442ZM310.912 451.409V456.89H306.221V460.122H304.166V455.32H308.879V453.017H304.155V451.409H310.912ZM321.205 451.215C321.927 451.215 322.571 451.424 323.139 451.84C323.706 452.252 324.15 452.842 324.47 453.608C324.791 454.374 324.953 455.263 324.956 456.276C324.953 457.3 324.791 458.197 324.47 458.967C324.15 459.733 323.706 460.324 323.139 460.74C322.571 461.153 321.927 461.359 321.205 461.359C320.483 461.359 319.837 461.153 319.266 460.74C318.698 460.324 318.253 459.733 317.929 458.967C317.608 458.197 317.45 457.3 317.453 456.276C317.45 455.263 317.608 454.374 317.929 453.608C318.253 452.842 318.698 452.252 319.266 451.84C319.837 451.424 320.483 451.215 321.205 451.215ZM321.205 453.017C320.844 453.017 320.525 453.144 320.249 453.398C319.973 453.648 319.759 454.018 319.608 454.508C319.457 454.998 319.382 455.587 319.382 456.276C319.382 456.972 319.457 457.565 319.608 458.055C319.759 458.545 319.971 458.917 320.244 459.171C320.52 459.425 320.84 459.552 321.205 459.552C321.581 459.552 321.905 459.425 322.177 459.171C322.453 458.917 322.667 458.547 322.818 458.061C322.969 457.571 323.045 456.976 323.045 456.276C323.045 455.584 322.969 454.994 322.818 454.508C322.667 454.018 322.453 453.648 322.177 453.398C321.901 453.144 321.577 453.017 321.205 453.017ZM328.597 450.21V464.442H326.603V450.21H328.597ZM330.697 455.58V457.243H328.155V455.58H330.697ZM343.271 450.21V464.475H341.288V450.21H343.271ZM333.398 459.508C334.743 459.508 335.947 459.473 337.012 459.403C338.08 459.333 339.166 459.206 340.271 459.022L340.443 460.641C339.349 460.832 338.259 460.965 337.172 461.039C336.085 461.109 334.828 461.144 333.398 461.144H332.122V459.508H333.398ZM338.868 451.409V456.89H334.177V460.122H332.122V455.32H336.835V453.017H332.111V451.409H338.868ZM350.855 455.663C352.413 455.659 353.654 455.624 354.579 455.558C355.503 455.492 356.407 455.363 357.291 455.171L357.501 456.74C356.897 456.869 356.282 456.967 355.656 457.033C355.034 457.099 354.352 457.145 353.612 457.171C352.872 457.193 351.953 457.204 350.855 457.204H349.673V455.663H350.855ZM356.07 450.983V452.569H351.651V456.326H349.673V450.983H356.07ZM360.457 450.21V457.74H358.457V450.21H360.457ZM362.369 453.227V454.851H359.894V453.227H362.369ZM351.43 462.807C352.35 462.807 353.081 462.799 353.623 462.785C354.164 462.766 354.627 462.737 355.01 462.696C355.396 462.656 355.778 462.593 356.153 462.508L356.352 463.972C355.965 464.068 355.573 464.136 355.175 464.177C354.781 464.221 354.317 464.25 353.783 464.265C353.249 464.28 352.465 464.285 351.43 464.282H350.479V462.807H351.43ZM355.247 458.276V461.934H352.435V463.84H350.479V460.558H353.33V459.768H350.457V458.276H355.247ZM360.457 458.276V464.331H358.485V459.823H355.86V458.276H360.457ZM374.435 450.21V458.475H372.435V450.21H374.435ZM376.347 453.569V455.188H373.872V453.569H376.347ZM370.468 451.155C370.468 452.411 370.212 453.541 369.701 454.547C369.192 455.549 368.445 456.407 367.457 457.122C366.47 457.836 365.27 458.39 363.855 458.785L363.06 457.177C364.19 456.871 365.15 456.468 365.938 455.967C366.73 455.466 367.327 454.891 367.728 454.243C368.133 453.591 368.338 452.891 368.341 452.144V451.155H370.468ZM369.562 451.155V452.751H363.728V451.155H369.562ZM369.783 458.641C370.745 458.641 371.586 458.759 372.308 458.994C373.034 459.23 373.594 459.567 373.988 460.006C374.386 460.444 374.586 460.956 374.59 461.541C374.586 462.131 374.386 462.645 373.988 463.083C373.594 463.525 373.036 463.862 372.314 464.094C371.592 464.33 370.748 464.448 369.783 464.448C368.826 464.448 367.982 464.33 367.253 464.094C366.527 463.862 365.964 463.525 365.562 463.083C365.165 462.645 364.968 462.131 364.971 461.541C364.968 460.956 365.166 460.444 365.568 460.006C365.969 459.567 366.533 459.23 367.259 458.994C367.988 458.759 368.829 458.641 369.783 458.641ZM369.783 460.193C369.19 460.193 368.68 460.245 368.253 460.348C367.826 460.451 367.5 460.604 367.275 460.807C367.05 461.009 366.94 461.254 366.944 461.541C366.94 461.825 367.05 462.07 367.275 462.276C367.5 462.483 367.826 462.639 368.253 462.746C368.68 462.849 369.19 462.899 369.783 462.895C370.376 462.899 370.885 462.849 371.308 462.746C371.732 462.639 372.056 462.483 372.281 462.276C372.509 462.07 372.623 461.825 372.623 461.541C372.623 461.254 372.509 461.009 372.281 460.807C372.056 460.604 371.732 460.451 371.308 460.348C370.885 460.245 370.376 460.193 369.783 460.193ZM387.645 453.68V455.304H384.905V453.68H387.645ZM389.115 450.21V458.663H387.126V450.21H389.115ZM384.253 458.978C385.262 458.978 386.135 459.087 386.872 459.304C387.609 459.521 388.172 459.836 388.563 460.249C388.957 460.657 389.154 461.147 389.154 461.718C389.154 462.289 388.957 462.779 388.563 463.188C388.172 463.597 387.609 463.91 386.872 464.127C386.135 464.348 385.262 464.459 384.253 464.459C383.244 464.459 382.373 464.348 381.64 464.127C380.907 463.91 380.343 463.597 379.949 463.188C379.559 462.779 379.366 462.289 379.369 461.718C379.366 461.147 379.561 460.657 379.955 460.249C380.349 459.836 380.913 459.521 381.645 459.304C382.378 459.087 383.248 458.978 384.253 458.978ZM384.253 460.492C383.62 460.492 383.087 460.538 382.657 460.63C382.226 460.718 381.9 460.855 381.679 461.039C381.461 461.219 381.353 461.446 381.353 461.718C381.353 461.987 381.461 462.212 381.679 462.392C381.9 462.573 382.226 462.709 382.657 462.801C383.087 462.89 383.62 462.934 384.253 462.934C384.887 462.934 385.419 462.89 385.85 462.801C386.285 462.709 386.612 462.573 386.833 462.392C387.058 462.212 387.172 461.987 387.176 461.718C387.172 461.446 387.058 461.219 386.833 461.039C386.612 460.855 386.285 460.718 385.85 460.63C385.419 460.538 384.887 460.492 384.253 460.492ZM382.087 452.575C382.087 453.499 381.938 454.365 381.64 455.171C381.345 455.978 380.896 456.687 380.292 457.298C379.692 457.91 378.951 458.366 378.071 458.669L377.038 457.088C377.796 456.838 378.432 456.477 378.944 456.006C379.459 455.53 379.841 454.998 380.087 454.409C380.338 453.82 380.465 453.208 380.469 452.575V451.641H382.087V452.575ZM382.496 452.558C382.496 453.144 382.614 453.709 382.85 454.254C383.086 454.796 383.448 455.284 383.938 455.718C384.432 456.153 385.041 456.49 385.767 456.729L384.784 458.298C383.925 458.018 383.203 457.591 382.618 457.017C382.032 456.438 381.594 455.768 381.303 455.006C381.016 454.239 380.872 453.424 380.872 452.558V451.641H382.496V452.558ZM385.331 451.077V452.68H377.618V451.077H385.331Z" fill="black"/>
<defs>
<filter id="filter0_d_1117_2150" x="305" y="371" width="69" height="78.0371" filterUnits="userSpaceOnUse" color-interpolation-filters="sRGB">
<feFlood flood-opacity="0" result="BackgroundImageFix"/>
<feColorMatrix in="SourceAlpha" type="matrix" values="0 0 0 0 0 0 0 0 0 0 0 0 0 0 0 0 0 0 127 0" result="hardAlpha"/>
<feOffset dx="-1" dy="1"/>
<feGaussianBlur stdDeviation="2"/>
<feComposite in2="hardAlpha" operator="out"/>
<feColorMatrix type="matrix" values="0 0 0 0 0 0 0 0 0 0 0 0 0 0 0 0 0 0 0.25 0"/>
<feBlend mode="normal" in2="BackgroundImageFix" result="effect1_dropShadow_1117_2150"/>
<feBlend mode="normal" in="SourceGraphic" in2="effect1_dropShadow_1117_2150" result="shape"/>
</filter>
</defs>
</svg>
