<svg width="871" height="915" viewBox="0 0 871 915" fill="none" xmlns="http://www.w3.org/2000/svg">
<path d="M419.812 230.385C419.812 230.385 197.355 303.179 276.142 623.782C276.142 623.782 347.205 846.811 583.566 787.956C583.566 787.956 823.017 719.808 741.141 442.572C741.141 442.572 649.995 188.567 419.812 230.385Z" fill="#FFFAF8" stroke="#605B53" stroke-width="0.5" stroke-miterlimit="10"/>
<path d="M514.048 760.077C634.349 760.077 731.871 662.304 731.871 541.695C731.871 421.086 634.349 323.313 514.048 323.313C393.747 323.313 296.225 421.086 296.225 541.695C296.225 662.304 393.747 760.077 514.048 760.077Z" fill="#FFFAF8" stroke="#605B53" stroke-width="0.5" stroke-miterlimit="10"/>
<path d="M388.915 386.815C388.915 386.815 455.344 334.155 552.669 352.741V367.795L588.2 413.144L583.566 417.791V428.632L666.988 516.914L676.257 507.622C676.257 507.622 688.616 521.561 707.154 524.658C707.154 524.658 724.162 701.284 537.236 733.778C537.236 733.778 398.184 752.333 333.301 617.587L353.384 597.452L358.018 585.062L367.287 589.708L401.274 471.999L395.095 464.255L392.005 462.706L405.909 406.949L388.915 386.815Z" fill="#FFF5F1" stroke="#605B53" stroke-width="0.5" stroke-miterlimit="10"/>
<path d="M481.961 411.224L353.384 622.234C353.384 622.234 427.536 766.273 568.117 713.613C708.699 660.954 694.733 542.718 694.733 542.718L481.961 411.224Z" fill="#B7E589" stroke="#605B53" stroke-width="0.5" stroke-miterlimit="10"/>
<path d="M293.598 345.074L310.128 358.936C310.128 358.936 365.742 312.472 447.619 296.984C529.496 281.496 548.034 279.947 600.559 287.691L603.664 265.667C603.664 265.667 521.772 208.702 419.812 230.385C419.812 230.385 351.22 249.11 293.598 345.074Z" fill="#FFF5F1" stroke="#605B53" stroke-width="0.5" stroke-miterlimit="10"/>
<path d="M385.826 393.01L401.274 410.047L351.839 594.355L333.301 610.912C333.301 610.912 307.039 549.439 331.756 479.743C356.474 410.047 385.826 393.01 385.826 393.01Z" fill="#FFC8AF" stroke="#605B53" stroke-width="0.5" stroke-miterlimit="10"/>
<path d="M390.46 465.804L359.563 580.415L365.743 583.513L396.64 471.999L390.46 465.804Z" fill="#FFC8AF" stroke="#605B53" stroke-width="0.5" stroke-miterlimit="10"/>
<path d="M557.304 352.741V365.844L677.802 502.976C677.802 502.976 694.795 520.012 705.609 520.012C705.609 520.012 696.34 448.767 656.174 408.498C616.008 368.229 557.304 352.741 557.304 352.741Z" fill="#FFC8AF" stroke="#605B53" stroke-width="0.5" stroke-miterlimit="10"/>
<path d="M592.835 417.791L671.622 504.524L665.443 509.171L588.2 425.535V417.791H592.835Z" fill="#FFC8AF" stroke="#605B53" stroke-width="0.5" stroke-miterlimit="10"/>
<path d="M293.598 352.741L344.114 396.108C344.114 396.108 277.068 465.045 293.598 575.398C293.598 575.398 310.128 770.919 543.4 764.724C543.4 764.724 788.953 735.297 727.221 465.804C727.221 465.804 688.615 346.546 577.386 326.411L583.566 306.277L595.924 310.923L599.014 301.63H603.664L605.642 292.198C605.642 292.198 664.114 303.179 724.255 417.791C784.38 532.403 731.855 653.473 731.855 653.473C731.855 653.473 683.965 760.078 548.019 791.054C548.019 791.054 412.505 816.439 321.143 694.548C229.78 572.656 275.508 388.364 293.583 352.741H293.598Z" fill="#FFA47C" stroke="#605B53" stroke-width="0.5" stroke-miterlimit="10"/>
<path d="M870.598 0.387207V10.4235L741.14 41.4306L745.775 63.1139L870.598 36.0717V76.5421L753.113 106.14L731.871 37.063L762.644 0.387207H870.598Z" fill="#CBE6BD" stroke="#605B53" stroke-width="0.5" stroke-miterlimit="10"/>
<path d="M758.195 131.804L764.622 164.375L870.598 138.711V102.19L758.195 131.804Z" fill="#CBE6BD" stroke="#605B53" stroke-width="0.5" stroke-miterlimit="10"/>
<path d="M870.598 820.62V913.378H826.725L870.598 820.62Z" fill="#CBE6BD" stroke="#605B53" stroke-width="0.5" stroke-miterlimit="10"/>
<path d="M694.733 913.378L687.071 876.238L679.964 867.007L557.304 896.605L546.104 913.378H694.733Z" fill="#CBE6BD" stroke="#605B53" stroke-width="0.5" stroke-miterlimit="10"/>
<path d="M90.852 913.378L192.719 747.687V734.646C192.719 734.646 49.0484 897.921 28.9654 901.019L8.8824 904.117L0.385742 898.092V913.378H90.852Z" fill="#CBE6BD" stroke="#605B53" stroke-width="0.5" stroke-miterlimit="10"/>
<path d="M0.385742 754.502L89.2144 732.199C89.2144 732.199 98.4835 727.552 101.573 736.845L61.4072 787.956L49.0484 795.7L11.9721 804.993C11.9721 804.993 1.15817 806.154 0.385742 796.288V754.517V754.502Z" fill="#CBE6BD" stroke="#605B53" stroke-width="0.5" stroke-miterlimit="10"/>
<path d="M0.385742 734.646L95.0076 711.739C95.0076 711.739 107.753 710.516 109.297 699.674C110.842 688.832 123.201 685.735 123.201 685.735L147.919 679.54L152.553 674.893L146.374 650.112L0.385742 688.383V734.646Z" fill="#CBE6BD" stroke="#605B53" stroke-width="0.5" stroke-miterlimit="10"/>
<path d="M0.385742 598.258L110.842 574.221C110.842 574.221 127.836 572.672 124.746 560.281L117.022 530.854C117.022 530.854 112.387 524.659 100.028 529.305L0.385742 555.496V598.258Z" fill="#CBE6BD" stroke="#605B53" stroke-width="0.5" stroke-miterlimit="10"/>
<path d="M0.385742 488.06V536.089L95.0076 512.083C95.0076 512.083 110.842 509.186 109.297 499.893L101.573 470.466C101.573 470.466 98.4835 462.722 84.5799 467.368L0.385742 488.06Z" fill="#CBE6BD" stroke="#605B53" stroke-width="0.5" stroke-miterlimit="10"/>
<path d="M0.385742 418.643V470.621L81.4902 448.767C81.4902 448.767 97.7111 445.669 95.0076 436.376L86.1247 402.303L79.9453 400.754L0.385742 418.643Z" fill="#CBE6BD" stroke="#605B53" stroke-width="0.5" stroke-miterlimit="10"/>
<path d="M0.385742 0.387207V55.0756L13.5169 64.6627L269.498 0.387207H0.385742Z" fill="#C4DFB7" stroke="#605B53" stroke-width="0.5" stroke-miterlimit="10"/>
<path d="M412.072 514.916C439.74 555.913 491.416 573.059 535.243 553.141C566.588 538.907 586.346 509.155 590.518 475.855L480.463 408.42L412.072 514.916Z" fill="#FAFAFA"/>
<path d="M482.387 413.179L437.603 485.369L509.923 530.465L554.708 458.275L482.387 413.179Z" fill="#B7E589"/>
<path d="M444.668 478.164C444.282 477.451 443.85 476.785 443.355 476.181L437.608 485.443L445.055 490.089C446.708 486.403 446.708 482.02 444.653 478.179L444.668 478.164Z" fill="#FAFAFA"/>
<path d="M503.821 523.234C502.847 523.745 501.982 524.38 501.194 525.077L509.923 530.529L514.897 522.506C511.39 521.189 507.358 521.329 503.805 523.234H503.821Z" fill="#FAFAFA"/>
<path d="M550.058 465.881L554.723 458.354L547.679 453.956C546.783 457.193 547.076 460.739 548.776 463.93C549.146 464.627 549.579 465.262 550.058 465.866V465.881Z" fill="#FAFAFA"/>
<path d="M495.88 475.639C501.145 475.639 505.412 471.36 505.412 466.082C505.412 460.805 501.145 456.526 495.88 456.526C490.616 456.526 486.349 460.805 486.349 466.082C486.349 471.36 490.616 475.639 495.88 475.639Z" fill="#FAFAFA"/>
<path d="M467.703 402.303L439.895 386.815C439.895 386.815 432.171 382.168 427.537 388.364L403.7 459.919L407.454 471.999L382.705 561.443L467.703 419.34C467.703 419.34 463.068 411.596 467.703 402.303Z" fill="#B7E589" stroke="#605B53" stroke-width="0.5" stroke-miterlimit="10"/>
<path d="M492.976 397.935L510.912 371.606C510.912 371.606 515.747 363.985 522.653 367.439L575.935 420.703L577.974 433.186L640.061 502.031L500.577 413.176C500.577 413.176 501.257 404.177 492.961 397.951L492.976 397.935Z" fill="#B7E589" stroke="#605B53" stroke-width="0.5" stroke-miterlimit="10"/>
<path d="M472.337 368.229C472.337 368.229 453.799 372.875 449.164 377.522C444.53 382.168 448.639 385.142 448.639 385.142L470.792 399.205C470.792 399.205 472.337 396.108 478.516 394.559C484.696 393.01 487.786 394.559 487.786 394.559L503.234 369.778C503.234 369.778 505.644 363.768 496.715 364.45C487.786 365.131 472.337 368.229 472.337 368.229Z" fill="#B7E589" stroke="#605B53" stroke-width="0.5" stroke-miterlimit="10"/>
<path d="M481.961 424.761C489.418 424.761 495.463 418.7 495.463 411.224C495.463 403.748 489.418 397.688 481.961 397.688C474.504 397.688 468.459 403.748 468.459 411.224C468.459 418.7 474.504 424.761 481.961 424.761Z" fill="#FAFAFA"/>
<g filter="url(#filter0_d_1117_2108)">
<path fill-rule="evenodd" clip-rule="evenodd" d="M339.312 452.873C339.701 452.2 340.338 451.71 341.077 451.466C353.23 447.45 362 435.999 362 422.5C362 405.655 348.345 392 331.5 392C314.655 392 301 405.655 301 422.5C301 436.454 310.37 448.219 323.162 451.846C323.956 452.071 324.646 452.577 325.059 453.292L329.13 460.343C330.434 462.602 333.695 462.602 335 460.343L339.312 452.873Z" fill="white"/>
</g>
<circle cx="330.981" cy="421.981" r="25.9815" fill="#FF4E00"/>
<path d="M335.333 414.25V423.917H338.958V433.583H341.375V409.417C338.04 409.417 335.333 412.123 335.333 414.25ZM329.292 417.875H326.875V409.417H324.458V417.875H322.042V409.417H319.625V417.875C319.625 420.545 321.788 422.708 324.458 422.708V433.583H326.875V422.708C329.545 422.708 331.708 420.545 331.708 417.875V409.417H329.292V417.875Z" fill="#FAFAFA"/>
<path d="M304.083 481.155C303.262 481.155 302.525 481.015 301.873 480.735C301.225 480.451 300.715 480.057 300.343 479.552C299.974 479.044 299.785 478.466 299.773 477.818H302.144C302.155 478.09 302.245 478.333 302.414 478.547C302.587 478.757 302.82 478.921 303.11 479.039C303.401 479.153 303.727 479.21 304.088 479.21C304.46 479.21 304.794 479.147 305.088 479.022C305.383 478.893 305.611 478.711 305.773 478.475C305.939 478.239 306.02 477.972 306.017 477.674C306.02 477.368 305.936 477.096 305.762 476.856C305.589 476.617 305.341 476.431 305.017 476.298C304.692 476.166 304.311 476.099 303.873 476.099H302.823V474.359H303.873C304.241 474.359 304.569 474.297 304.856 474.171C305.144 474.046 305.366 473.869 305.525 473.641C305.687 473.413 305.768 473.151 305.768 472.856C305.768 472.569 305.7 472.315 305.564 472.094C305.427 471.873 305.232 471.703 304.978 471.586C304.727 471.464 304.436 471.403 304.105 471.403C303.773 471.403 303.468 471.462 303.188 471.58C302.908 471.698 302.685 471.866 302.519 472.083C302.354 472.3 302.265 472.549 302.254 472.829H300C300.011 472.192 300.195 471.622 300.552 471.122C300.913 470.621 301.405 470.23 302.028 469.95C302.654 469.67 303.35 469.53 304.116 469.53C304.886 469.53 305.567 469.67 306.16 469.95C306.757 470.23 307.219 470.613 307.547 471.099C307.875 471.582 308.037 472.12 308.033 472.713C308.037 473.129 307.948 473.505 307.768 473.84C307.587 474.175 307.333 474.451 307.006 474.669C306.681 474.886 306.308 475.033 305.884 475.11V475.199C306.433 475.269 306.901 475.422 307.287 475.657C307.674 475.893 307.967 476.197 308.166 476.569C308.365 476.937 308.462 477.357 308.459 477.829C308.462 478.462 308.276 479.033 307.901 479.541C307.529 480.046 307.009 480.442 306.343 480.729C305.676 481.013 304.923 481.155 304.083 481.155ZM314.452 481.155C313.63 481.155 312.894 481.015 312.242 480.735C311.593 480.451 311.083 480.057 310.711 479.552C310.343 479.044 310.153 478.466 310.142 477.818H312.512C312.523 478.09 312.614 478.333 312.783 478.547C312.956 478.757 313.188 478.921 313.479 479.039C313.77 479.153 314.096 479.21 314.457 479.21C314.829 479.21 315.162 479.147 315.457 479.022C315.752 478.893 315.98 478.711 316.142 478.475C316.308 478.239 316.389 477.972 316.385 477.674C316.389 477.368 316.304 477.096 316.131 476.856C315.958 476.617 315.709 476.431 315.385 476.298C315.061 476.166 314.68 476.099 314.242 476.099H313.192V474.359H314.242C314.61 474.359 314.938 474.297 315.225 474.171C315.512 474.046 315.735 473.869 315.894 473.641C316.056 473.413 316.137 473.151 316.137 472.856C316.137 472.569 316.069 472.315 315.932 472.094C315.796 471.873 315.601 471.703 315.347 471.586C315.096 471.464 314.805 471.403 314.474 471.403C314.142 471.403 313.837 471.462 313.557 471.58C313.277 471.698 313.054 471.866 312.888 472.083C312.722 472.3 312.634 472.549 312.623 472.829H310.369C310.38 472.192 310.564 471.622 310.921 471.122C311.282 470.621 311.774 470.23 312.396 469.95C313.023 469.67 313.719 469.53 314.485 469.53C315.255 469.53 315.936 469.67 316.529 469.95C317.126 470.23 317.588 470.613 317.916 471.099C318.244 471.582 318.406 472.12 318.402 472.713C318.406 473.129 318.317 473.505 318.137 473.84C317.956 474.175 317.702 474.451 317.374 474.669C317.05 474.886 316.676 475.033 316.253 475.11V475.199C316.802 475.269 317.269 475.422 317.656 475.657C318.043 475.893 318.336 476.197 318.534 476.569C318.733 476.937 318.831 477.357 318.827 477.829C318.831 478.462 318.645 479.033 318.269 479.541C317.897 480.046 317.378 480.442 316.711 480.729C316.045 481.013 315.291 481.155 314.452 481.155ZM332.273 477.177V482.453H330.312V478.779H322.174V477.177H332.273ZM332.273 468.21V476.586H330.312V468.21H332.273ZM331.936 471.729V473.326H328.29V471.729H331.936ZM321.086 474.448C321.756 474.451 322.316 474.44 322.765 474.414C323.214 474.389 323.693 474.322 324.202 474.215L324.373 475.807C323.89 475.91 323.437 475.976 323.014 476.006C322.594 476.031 322.071 476.044 321.445 476.044H321.086H320.395V474.448H321.086ZM324.119 469.249V470.845H322.334V475.105H320.395V469.249H324.119ZM325.577 474.448C326.233 474.451 326.754 474.448 327.141 474.436C327.528 474.425 327.877 474.403 328.191 474.37C328.504 474.333 328.817 474.276 329.13 474.199L329.307 475.79C328.971 475.867 328.638 475.924 328.307 475.961C327.979 475.998 327.616 476.022 327.218 476.033C326.824 476.041 326.277 476.044 325.577 476.044H324.804V474.448H325.577ZM328.798 469.249V470.845H326.776V475.077H324.804V469.249H328.798ZM340.274 477.536V482.442H338.318V479.122H335.412V477.536H340.274ZM345.633 477.536V482.442H343.66V479.122H340.903V477.536H345.633ZM347.113 475.083V476.663H334.141V475.083H347.113ZM341.605 473.293V475.459H339.605V473.293H341.605ZM337.76 468.497V469.818H343.473V468.497H345.445V474.017H335.798V468.497H337.76ZM337.76 472.453H343.473V471.309H337.76V472.453ZM360.02 468.21V482.475H358.003V468.21H360.02ZM352.296 469.215C353.011 469.215 353.651 469.424 354.219 469.84C354.786 470.256 355.232 470.847 355.556 471.613C355.88 472.376 356.042 473.263 356.042 474.276C356.042 475.297 355.88 476.192 355.556 476.961C355.232 477.731 354.786 478.324 354.219 478.74C353.655 479.153 353.014 479.359 352.296 479.359C351.57 479.359 350.922 479.153 350.351 478.74C349.78 478.324 349.333 477.733 349.009 476.967C348.688 476.197 348.53 475.3 348.534 474.276C348.53 473.263 348.688 472.374 349.009 471.608C349.333 470.842 349.78 470.252 350.351 469.84C350.926 469.424 351.574 469.215 352.296 469.215ZM352.296 471.017C351.928 471.017 351.605 471.144 351.329 471.398C351.053 471.648 350.837 472.018 350.683 472.508C350.532 472.998 350.458 473.587 350.462 474.276C350.458 474.972 350.532 475.565 350.683 476.055C350.837 476.545 351.053 476.917 351.329 477.171C351.605 477.425 351.928 477.552 352.296 477.552C352.661 477.552 352.977 477.425 353.246 477.171C353.519 476.917 353.731 476.545 353.882 476.055C354.036 475.565 354.114 474.972 354.114 474.276C354.114 473.587 354.036 472.998 353.882 472.508C353.731 472.018 353.519 471.648 353.246 471.398C352.974 471.144 352.657 471.017 352.296 471.017Z" fill="black"/>
<defs>
<filter id="filter0_d_1117_2108" x="296" y="389" width="69" height="78.0371" filterUnits="userSpaceOnUse" color-interpolation-filters="sRGB">
<feFlood flood-opacity="0" result="BackgroundImageFix"/>
<feColorMatrix in="SourceAlpha" type="matrix" values="0 0 0 0 0 0 0 0 0 0 0 0 0 0 0 0 0 0 127 0" result="hardAlpha"/>
<feOffset dx="-1" dy="1"/>
<feGaussianBlur stdDeviation="2"/>
<feComposite in2="hardAlpha" operator="out"/>
<feColorMatrix type="matrix" values="0 0 0 0 0 0 0 0 0 0 0 0 0 0 0 0 0 0 0.25 0"/>
<feBlend mode="normal" in2="BackgroundImageFix" result="effect1_dropShadow_1117_2108"/>
<feBlend mode="normal" in="SourceGraphic" in2="effect1_dropShadow_1117_2108" result="shape"/>
</filter>
</defs>
</svg>
