<svg width="531" height="593" viewBox="0 0 531 593" fill="none" xmlns="http://www.w3.org/2000/svg">
<mask id="mask0_1120_3483" style="mask-type:alpha" maskUnits="userSpaceOnUse" x="138" y="0" width="393" height="427">
<rect x="138" width="393" height="427" fill="#D9D9D9"/>
</mask>
<g mask="url(#mask0_1120_3483)">
</g>
<g clip-path="url(#clip0_1120_3483)">
<path d="M78.8401 370.942L71.4494 368.174L68.6779 374.633L53.6657 368.174L48.3537 380.169L0.314453 352.488L74.2209 226.078C74.2209 226.078 113.022 142.113 216.491 140.267C319.96 138.422 358.761 208.547 358.761 208.547L444.677 315.58L412.343 342.339L405.876 336.803L383.704 355.257L380.933 351.566L375.39 356.179L286.702 243.61C286.702 243.61 241.434 210.393 213.719 212.238C186.004 214.083 157.366 239.919 157.366 239.919L78.8401 370.942Z" fill="#FFC8AF" stroke="#605B53" stroke-width="0.5" stroke-miterlimit="10"/>
<path d="M76.3642 358.57L69.5093 356.245L66.9411 361.679L53.019 356.245L48.0949 366.33L11.8623 347.414L83.1636 221.06C83.1636 221.06 119.147 150.445 215.087 148.895C311.026 147.345 347 206.315 347 206.315L434.053 316.965L410.541 334.515L404.546 329.855L383.991 345.375L381.422 342.275L376.286 346.15L297.261 249.617C285.649 235.214 270.359 224.188 252.973 217.839C239.67 212.986 224.251 208.705 212.518 209.415C206.735 209.766 200.647 211.196 194.679 213.208C172.507 220.681 153.8 235.943 141.476 255.809L76.3642 358.561V358.57Z" fill="#FFA47C" stroke="#605B53" stroke-width="0.5" stroke-miterlimit="10"/>
<path d="M412.343 342.339C412.343 342.339 470.544 429.073 365.227 537.952C259.91 646.83 118.564 561.019 112.098 554.56C105.631 548.101 12.7303 482.036 37.4705 373.895L48.3532 380.17L53.6653 368.175L68.6775 374.634L71.449 368.175L78.8397 370.943L157.365 239.919C157.365 239.919 184.156 213.161 213.719 212.238C243.282 211.315 286.702 243.61 286.702 243.61L375.389 356.179L380.932 351.566L383.704 355.257L405.876 336.803L412.343 342.339Z" fill="#FFFAF8" stroke="#605B53" stroke-width="0.5" stroke-miterlimit="10"/>
<path d="M174.918 254.682C174.918 254.682 198.014 234.383 217.414 233.46C236.815 232.538 256.215 250.992 256.215 250.992L271.265 260.2L285.778 277.75L283.93 284.209L293.169 296.204V311.65L301.483 321.117V326.542L329.198 358.948L334.741 353.411L347.675 370.02L352.294 367.252C352.294 367.252 378.161 395.856 381.856 407.851H395.464V419.431L386.475 418C386.475 418 380.009 455.831 367.999 469.672L354.141 463.213C354.141 463.213 316.32 532.388 230.838 537.02C230.838 537.02 171.223 539.797 119.488 480.744L105.631 491.816L100.088 484.435L102.859 483.512C102.859 483.512 84.3828 456.754 82.5352 443.836L74.2207 446.604L71.4492 434.609L84.3828 432.764C84.3828 432.764 98.2403 403.237 103.783 393.087L101.936 392.165L117.641 365.406L127.803 371.865L148.127 336.803V330.344L154.594 319.271L149.975 298.972L160.137 283.286L157.365 281.441C157.365 281.441 167.528 260.219 174.918 254.682Z" fill="#DCF7C0" stroke="#605B53" stroke-width="0.5" stroke-miterlimit="10"/>
<path d="M364.304 371.866L406.8 344.185C406.8 344.185 449.296 414.31 388.323 499.198C356.664 543.267 310.648 566.555 280.817 576.982C254.904 586.043 226.985 587.556 200.157 581.734C154.594 571.852 81.7962 541.772 50.2012 463.213C50.2012 463.213 39.1152 434.609 39.1152 387.552L91.7736 400.469L80.6876 427.228L64.0587 429.073L68.6778 452.141L77.9161 451.218L95.4689 481.667L94.5451 487.203L104.707 498.276L118.565 489.049C118.565 489.049 158.964 540.6 233.461 542.501C307.959 544.401 357.837 470.595 357.837 470.595L371.694 476.131C371.694 476.131 390.171 444.759 392.942 423.537L398.485 424.46L399.585 402.499H384.277C384.277 402.499 375.39 382.015 364.304 371.866Z" fill="#FFEBE2" stroke="#605B53" stroke-width="0.5" stroke-miterlimit="10"/>
<path d="M368.922 351.566L349.522 366.33L295.939 301.74L316.264 285.132L368.922 351.566Z" fill="#FFEBE2" stroke="#605B53" stroke-width="0.5" stroke-miterlimit="10"/>
<path d="M105.428 380.834L84.8818 367.704L127.203 295.254L149.799 308.605L105.428 380.834Z" fill="#FFEBE2" stroke="#605B53" stroke-width="0.5" stroke-miterlimit="10"/>
<path d="M102.499 427.476C102.499 427.476 127.618 527.183 249.416 518.15C249.416 518.15 350.086 506.211 362.003 403.818L250.026 263.697C250.026 263.697 235.401 248.085 213.885 251.702C192.369 255.319 186.484 271.328 186.484 271.328L102.508 427.476H102.499Z" fill="#B7E589" stroke="#605B53" stroke-width="0.5" stroke-miterlimit="10"/>
<path d="M172.248 340.392C185.893 366.745 215.566 380.585 243.152 371.82C262.876 365.554 276.779 349.241 281.611 329.708L220.601 281.819L172.248 340.383V340.392Z" fill="white"/>
<rect width="50.8109" height="50.1529" transform="matrix(0.776748 0.629811 -0.630475 0.776209 221.44 285.255)" fill="#B7E589"/>
<path d="M194.31 320.821C194.134 320.369 193.912 319.945 193.672 319.548L189.589 324.65L193.709 327.944C194.956 325.859 195.261 323.257 194.31 320.821Z" fill="white"/>
<path d="M226.477 351.815C225.858 352.054 225.295 352.368 224.777 352.728L229.609 356.585L233.147 352.156C231.143 351.123 228.731 350.92 226.468 351.805L226.477 351.815Z" fill="white"/>
<path d="M258.137 320.933L261.463 316.78L257.564 313.671C256.807 315.535 256.723 317.666 257.518 319.687C257.693 320.13 257.906 320.545 258.146 320.933H258.137Z" fill="white"/>
<path d="M225.757 322.962C228.925 322.962 231.494 320.397 231.494 317.232C231.494 314.067 228.925 311.502 225.757 311.502C222.588 311.502 220.02 314.067 220.02 317.232C220.02 320.397 222.588 322.962 225.757 322.962Z" fill="white"/>
<path d="M221.304 291.729C225.793 291.729 229.433 288.093 229.433 283.609C229.433 279.125 225.793 275.489 221.304 275.489C216.814 275.489 213.174 279.125 213.174 283.609C213.174 288.093 216.814 291.729 221.304 291.729Z" fill="white"/>
</g>
<g filter="url(#filter0_d_1120_3483)">
<path fill-rule="evenodd" clip-rule="evenodd" d="M341.312 255.873C341.701 255.2 342.338 254.71 343.077 254.466C355.23 250.45 364 238.999 364 225.5C364 208.655 350.345 195 333.5 195C316.655 195 303 208.655 303 225.5C303 239.454 312.37 251.219 325.162 254.846C325.956 255.071 326.646 255.577 327.059 256.292L331.13 263.343C332.434 265.602 335.695 265.602 337 263.343L341.312 255.873Z" fill="white"/>
</g>
<circle cx="332.981" cy="224.981" r="25.9815" fill="#FF4E00"/>
<path d="M337.333 217.25V226.917H340.958V236.584H343.375V212.417C340.04 212.417 337.333 215.124 337.333 217.25ZM331.292 220.875H328.875V212.417H326.458V220.875H324.042V212.417H321.625V220.875C321.625 223.546 323.788 225.709 326.458 225.709V236.584H328.875V225.709C331.545 225.709 333.708 223.546 333.708 220.875V212.417H331.292V220.875Z" fill="#FAFAFA"/>
<path d="M305.875 281.367H303.898V279.188H305.875V281.367ZM311.398 279.578H298.43V278H311.398V279.578ZM309.812 285.438H307.828V282.383H299.859V280.789H309.812V285.438ZM302.047 272.859H307.75V271.562H309.734V277.07H300.078V271.562H302.047V272.859ZM307.75 275.5V274.328H302.047V275.5H307.75ZM325.377 280.461H312.408V278.867H325.377V280.461ZM319.853 279.43H317.877V277.305H319.853V279.43ZM319.853 273.367H317.877V271.242H319.853V273.367ZM319.502 273.828C319.502 274.583 319.275 275.26 318.822 275.859C318.369 276.453 317.697 276.938 316.806 277.312C315.921 277.688 314.848 277.93 313.587 278.039L312.962 276.508C314.041 276.419 314.936 276.242 315.65 275.977C316.369 275.706 316.897 275.385 317.236 275.016C317.58 274.641 317.752 274.245 317.752 273.828V273.531H319.502V273.828ZM319.986 273.828C319.986 274.245 320.153 274.641 320.486 275.016C320.824 275.385 321.356 275.706 322.08 275.977C322.804 276.242 323.707 276.419 324.791 276.508L324.15 278.039C322.895 277.93 321.824 277.688 320.939 277.312C320.054 276.938 319.382 276.453 318.923 275.859C318.465 275.26 318.236 274.583 318.236 273.828V273.531H319.986V273.828ZM324.119 274.164H313.65V272.633H324.119V274.164ZM323.9 285.195H313.97V283.586H323.9V285.195ZM315.962 284.297H313.97V281.266H315.962V284.297ZM337.878 285.195H327.948V283.586H337.878V285.195ZM329.941 284.141H327.948V281.055H329.941V284.141ZM339.355 280.188H326.386V278.586H339.355V280.188ZM333.831 279.227H331.855V276.578H333.831V279.227ZM333.519 272.055C333.519 272.961 333.292 273.789 332.839 274.539C332.386 275.284 331.732 275.911 330.878 276.422C330.029 276.927 329.016 277.271 327.839 277.453L327.066 275.891C328.076 275.75 328.941 275.484 329.659 275.094C330.378 274.703 330.917 274.245 331.277 273.719C331.641 273.188 331.823 272.633 331.823 272.055V271.625H333.519V272.055ZM333.855 272.055C333.855 272.664 334.032 273.234 334.386 273.766C334.74 274.297 335.277 274.75 335.995 275.125C336.714 275.5 337.589 275.755 338.62 275.891L337.855 277.453C336.667 277.26 335.646 276.917 334.792 276.422C333.938 275.927 333.284 275.307 332.831 274.562C332.378 273.812 332.152 272.977 332.152 272.055V271.625H333.855V272.055ZM347.606 279.227H340.778V272.391H347.606V279.227ZM342.755 277.656H345.645V273.984H342.755V277.656ZM351.638 281.602H349.645V271.227H351.638V281.602ZM353.559 276.961H351.059V275.32H353.559V276.961ZM352.145 285.195H342.411V283.586H352.145V285.195ZM344.403 284.383H342.411V280.57H344.403V284.383ZM365.803 277.844H355.975V276.289H365.803V277.844ZM367.327 280.867H354.327V279.281H367.327V280.867ZM361.772 285.414H359.795V280.195H361.772V285.414ZM365.662 273.562H358.022V277.031H355.975V271.977H365.662V273.562Z" fill="black"/>
<defs>
<filter id="filter0_d_1120_3483" x="298" y="192" width="69" height="78.0371" filterUnits="userSpaceOnUse" color-interpolation-filters="sRGB">
<feFlood flood-opacity="0" result="BackgroundImageFix"/>
<feColorMatrix in="SourceAlpha" type="matrix" values="0 0 0 0 0 0 0 0 0 0 0 0 0 0 0 0 0 0 127 0" result="hardAlpha"/>
<feOffset dx="-1" dy="1"/>
<feGaussianBlur stdDeviation="2"/>
<feComposite in2="hardAlpha" operator="out"/>
<feColorMatrix type="matrix" values="0 0 0 0 0 0 0 0 0 0 0 0 0 0 0 0 0 0 0.25 0"/>
<feBlend mode="normal" in2="BackgroundImageFix" result="effect1_dropShadow_1120_3483"/>
<feBlend mode="normal" in="SourceGraphic" in2="effect1_dropShadow_1120_3483" result="shape"/>
</filter>
<clipPath id="clip0_1120_3483">
<rect width="445" height="453" fill="white" transform="translate(0 140)"/>
</clipPath>
</defs>
</svg>
