<svg width="469" height="632" viewBox="0 0 469 632" fill="none" xmlns="http://www.w3.org/2000/svg">
<mask id="mask0_1120_3429" style="mask-type:alpha" maskUnits="userSpaceOnUse" x="76" y="0" width="393" height="427">
<rect x="76" width="393" height="427" fill="#D9D9D9"/>
</mask>
<g mask="url(#mask0_1120_3429)">
</g>
<g clip-path="url(#clip0_1120_3429)">
<path d="M78.8401 409.942L71.4494 407.174L68.6779 413.633L53.6657 407.174L48.3537 419.169L0.314453 391.488L74.2209 265.078C74.2209 265.078 113.022 181.113 216.491 179.267C319.96 177.422 358.761 247.547 358.761 247.547L444.677 354.58L412.343 381.339L405.876 375.803L383.704 394.257L380.933 390.566L375.39 395.179L286.702 282.61C286.702 282.61 241.434 249.393 213.719 251.238C186.004 253.083 157.366 278.919 157.366 278.919L78.8401 409.942Z" fill="#FFC8AF" stroke="#605B53" stroke-width="0.5" stroke-miterlimit="10"/>
<path d="M76.3642 397.57L69.5093 395.245L66.9411 400.679L53.019 395.245L48.0949 405.33L11.8623 386.414L83.1636 260.06C83.1636 260.06 119.147 189.445 215.087 187.895C311.026 186.345 347 245.315 347 245.315L434.053 355.965L410.541 373.515L404.546 368.855L383.991 384.375L381.422 381.275L376.286 385.15L297.261 288.617C285.649 274.214 270.359 263.188 252.973 256.839C239.67 251.986 224.251 247.705 212.518 248.415C206.735 248.766 200.647 250.196 194.679 252.208C172.507 259.681 153.8 274.943 141.476 294.809L76.3642 397.561V397.57Z" fill="#FFA47C" stroke="#605B53" stroke-width="0.5" stroke-miterlimit="10"/>
<path d="M412.343 381.339C412.343 381.339 470.544 468.073 365.227 576.952C259.91 685.83 118.564 600.019 112.098 593.56C105.631 587.101 12.7303 521.036 37.4705 412.895L48.3532 419.17L53.6653 407.175L68.6775 413.634L71.449 407.175L78.8397 409.943L157.365 278.919C157.365 278.919 184.156 252.161 213.719 251.238C243.282 250.315 286.702 282.61 286.702 282.61L375.389 395.179L380.932 390.566L383.704 394.257L405.876 375.803L412.343 381.339Z" fill="#FFFAF8" stroke="#605B53" stroke-width="0.5" stroke-miterlimit="10"/>
<path d="M174.918 293.682C174.918 293.682 198.014 273.383 217.414 272.46C236.815 271.538 256.215 289.992 256.215 289.992L271.265 299.2L285.778 316.75L283.93 323.209L293.169 335.204V350.65L301.483 360.117V365.542L329.198 397.948L334.741 392.411L347.675 409.02L352.294 406.252C352.294 406.252 378.161 434.856 381.856 446.851H395.464V458.431L386.475 457C386.475 457 380.009 494.831 367.999 508.672L354.141 502.213C354.141 502.213 316.32 571.388 230.838 576.02C230.838 576.02 171.223 578.797 119.488 519.744L105.631 530.816L100.088 523.435L102.859 522.512C102.859 522.512 84.3828 495.754 82.5352 482.836L74.2207 485.604L71.4492 473.609L84.3828 471.764C84.3828 471.764 98.2403 442.237 103.783 432.087L101.936 431.165L117.641 404.406L127.803 410.865L148.127 375.803V369.344L154.594 358.271L149.975 337.972L160.137 322.286L157.365 320.441C157.365 320.441 167.528 299.219 174.918 293.682Z" fill="#DCF7C0" stroke="#605B53" stroke-width="0.5" stroke-miterlimit="10"/>
<path d="M364.304 410.866L406.8 383.185C406.8 383.185 449.296 453.31 388.323 538.198C356.664 582.267 310.648 605.555 280.817 615.982C254.904 625.043 226.985 626.556 200.157 620.734C154.594 610.852 81.7962 580.772 50.2012 502.213C50.2012 502.213 39.1152 473.609 39.1152 426.552L91.7736 439.469L80.6876 466.228L64.0587 468.073L68.6778 491.141L77.9161 490.218L95.4689 520.667L94.5451 526.203L104.707 537.276L118.565 528.049C118.565 528.049 158.964 579.6 233.461 581.501C307.959 583.401 357.837 509.595 357.837 509.595L371.694 515.131C371.694 515.131 390.171 483.759 392.942 462.537L398.485 463.46L399.585 441.499H384.277C384.277 441.499 375.39 421.015 364.304 410.866Z" fill="#FFEBE2" stroke="#605B53" stroke-width="0.5" stroke-miterlimit="10"/>
<path d="M368.922 390.566L349.522 405.33L295.939 340.74L316.264 324.132L368.922 390.566Z" fill="#FFEBE2" stroke="#605B53" stroke-width="0.5" stroke-miterlimit="10"/>
<path d="M105.428 419.834L84.8818 406.704L127.203 334.254L149.799 347.605L105.428 419.834Z" fill="#FFEBE2" stroke="#605B53" stroke-width="0.5" stroke-miterlimit="10"/>
<path d="M102.499 466.476C102.499 466.476 127.618 566.183 249.416 557.15C249.416 557.15 350.086 545.211 362.003 442.818L250.026 302.697C250.026 302.697 235.401 287.085 213.885 290.702C192.369 294.319 186.484 310.328 186.484 310.328L102.508 466.476H102.499Z" fill="#B7E589" stroke="#605B53" stroke-width="0.5" stroke-miterlimit="10"/>
<path d="M172.248 379.392C185.893 405.745 215.566 419.585 243.152 410.82C262.876 404.554 276.779 388.241 281.611 368.708L220.601 320.819L172.248 379.383V379.392Z" fill="white"/>
<rect width="50.8109" height="50.1529" transform="matrix(0.776748 0.629811 -0.630475 0.776209 221.44 324.255)" fill="#B7E589"/>
<path d="M194.31 359.821C194.134 359.369 193.912 358.945 193.672 358.548L189.589 363.65L193.709 366.944C194.956 364.859 195.261 362.257 194.31 359.821Z" fill="white"/>
<path d="M226.477 390.815C225.858 391.054 225.295 391.368 224.777 391.728L229.609 395.585L233.147 391.156C231.143 390.123 228.731 389.92 226.468 390.805L226.477 390.815Z" fill="white"/>
<path d="M258.137 359.933L261.463 355.78L257.564 352.671C256.807 354.535 256.723 356.666 257.518 358.687C257.693 359.13 257.906 359.545 258.146 359.933H258.137Z" fill="white"/>
<path d="M225.757 361.962C228.925 361.962 231.494 359.397 231.494 356.232C231.494 353.067 228.925 350.502 225.757 350.502C222.588 350.502 220.02 353.067 220.02 356.232C220.02 359.397 222.588 361.962 225.757 361.962Z" fill="white"/>
<path d="M221.304 330.729C225.793 330.729 229.433 327.093 229.433 322.609C229.433 318.125 225.793 314.489 221.304 314.489C216.814 314.489 213.174 318.125 213.174 322.609C213.174 327.093 216.814 330.729 221.304 330.729Z" fill="white"/>
</g>
<g filter="url(#filter0_d_1120_3429)">
<path fill-rule="evenodd" clip-rule="evenodd" d="M158.312 258.873C158.701 258.2 159.338 257.71 160.077 257.466C172.23 253.45 181 241.999 181 228.5C181 211.655 167.345 198 150.5 198C133.655 198 120 211.655 120 228.5C120 242.454 129.37 254.219 142.162 257.846C142.956 258.071 143.646 258.577 144.059 259.292L148.13 266.343C149.434 268.602 152.695 268.602 154 266.343L158.312 258.873Z" fill="white"/>
</g>
<circle cx="149.981" cy="227.981" r="25.9815" fill="#FF4E00"/>
<path d="M154.333 220.25V229.917H157.958V239.584H160.375V215.417C157.04 215.417 154.333 218.124 154.333 220.25ZM148.292 223.875H145.875V215.417H143.458V223.875H141.042V215.417H138.625V223.875C138.625 226.546 140.788 228.709 143.458 228.709V239.584H145.875V228.709C148.545 228.709 150.708 226.546 150.708 223.875V215.417H148.292V223.875Z" fill="#FAFAFA"/>
<path d="M121.812 277.938H113.453V276.336H121.812V277.938ZM117.625 278.727C118.271 278.727 118.852 278.872 119.367 279.164C119.888 279.456 120.297 279.862 120.594 280.383C120.891 280.898 121.039 281.477 121.039 282.117C121.039 282.753 120.891 283.328 120.594 283.844C120.297 284.359 119.888 284.766 119.367 285.062C118.846 285.359 118.266 285.508 117.625 285.508C116.984 285.508 116.401 285.359 115.875 285.062C115.354 284.766 114.943 284.359 114.641 283.844C114.344 283.328 114.195 282.753 114.195 282.117C114.195 281.477 114.344 280.898 114.641 280.383C114.943 279.862 115.354 279.456 115.875 279.164C116.396 278.872 116.979 278.727 117.625 278.727ZM117.625 280.414C117.328 280.414 117.057 280.484 116.812 280.625C116.573 280.766 116.385 280.966 116.25 281.227C116.12 281.482 116.055 281.779 116.055 282.117C116.055 282.466 116.12 282.771 116.25 283.031C116.385 283.292 116.573 283.49 116.812 283.625C117.057 283.755 117.328 283.82 117.625 283.82C117.932 283.82 118.203 283.755 118.438 283.625C118.677 283.49 118.865 283.292 119 283.031C119.135 282.771 119.203 282.466 119.203 282.117C119.203 281.779 119.135 281.482 119 281.227C118.865 280.966 118.677 280.766 118.438 280.625C118.203 280.484 117.932 280.414 117.625 280.414ZM118.617 277.148H116.617V274.43H118.617V277.148ZM125.422 288.438H123.445V274.203H125.422V288.438ZM125.047 281.461H121.523V279.836H125.047V281.461ZM138.681 281.32H136.689V274.203H138.681V281.32ZM140.603 278.703H138.119V277.047H140.603V278.703ZM134.791 274.734C134.791 275.984 134.53 277.081 134.009 278.023C133.494 278.961 132.733 279.737 131.728 280.352C130.728 280.961 129.504 281.419 128.056 281.727L127.314 280.086C128.496 279.857 129.478 279.534 130.259 279.117C131.046 278.701 131.629 278.219 132.009 277.672C132.39 277.125 132.58 276.542 132.58 275.922V274.734H134.791ZM133.853 276.336H128.048V274.734H133.853V276.336ZM138.681 285.797H131.236V287.531H129.275V284.305H136.697V283.453H129.252V281.867H138.681V285.797ZM139.095 288.297H129.275V286.719H139.095V288.297ZM146.919 279.664C148.466 279.659 149.703 279.622 150.63 279.555C151.562 279.487 152.468 279.359 153.348 279.172L153.567 280.734C152.687 280.922 151.768 281.047 150.809 281.109C149.851 281.172 148.554 281.203 146.919 281.203H145.731V279.664H146.919ZM152.13 276.562H147.708V280.32H145.731V274.984H152.13V276.562ZM156.513 281.734H154.52V274.203H156.513V281.734ZM158.434 278.852H155.95V277.234H158.434V278.852ZM147.489 286.805C148.421 286.805 149.156 286.797 149.692 286.781C150.234 286.766 150.697 286.737 151.083 286.695C151.468 286.654 151.846 286.591 152.216 286.508L152.411 287.977C152.026 288.07 151.635 288.138 151.239 288.18C150.843 288.221 150.38 288.247 149.848 288.258C149.322 288.273 148.536 288.281 147.489 288.281H146.544V286.805H147.489ZM151.302 285.93H148.497V287.836H146.544V284.562H149.388V283.766H146.52V282.273H151.302V285.93ZM156.513 288.328H154.544V283.82H151.927V282.273H156.513V288.328ZM170.491 282.477H168.498V274.203H170.491V282.477ZM172.412 279.195H169.928V277.578H172.412V279.195ZM166.537 275.148C166.537 276.398 166.28 277.529 165.764 278.539C165.248 279.544 164.498 280.406 163.514 281.125C162.53 281.839 161.332 282.393 159.92 282.789L159.108 281.18C160.248 280.867 161.215 280.461 162.006 279.961C162.798 279.461 163.394 278.888 163.795 278.242C164.196 277.591 164.397 276.893 164.397 276.148V275.148H166.537ZM165.623 276.75H159.78V275.148H165.623V276.75ZM165.842 282.648C166.806 282.648 167.649 282.766 168.373 283C169.103 283.229 169.662 283.562 170.053 284C170.449 284.438 170.647 284.951 170.647 285.539C170.647 286.128 170.449 286.641 170.053 287.078C169.662 287.521 169.103 287.859 168.373 288.094C167.649 288.328 166.806 288.445 165.842 288.445C164.894 288.445 164.056 288.328 163.327 288.094C162.597 287.859 162.032 287.521 161.631 287.078C161.23 286.641 161.03 286.128 161.03 285.539C161.03 284.951 161.23 284.438 161.631 284C162.032 283.562 162.597 283.229 163.327 283C164.056 282.766 164.894 282.648 165.842 282.648ZM165.842 284.195C165.254 284.19 164.746 284.24 164.319 284.344C163.897 284.448 163.571 284.602 163.342 284.805C163.118 285.003 163.006 285.247 163.006 285.539C163.006 285.826 163.118 286.07 163.342 286.273C163.571 286.471 163.897 286.625 164.319 286.734C164.746 286.844 165.254 286.898 165.842 286.898C166.441 286.898 166.952 286.844 167.373 286.734C167.795 286.625 168.118 286.471 168.342 286.273C168.571 286.07 168.686 285.826 168.686 285.539C168.686 285.247 168.571 285.003 168.342 284.805C168.118 284.602 167.795 284.448 167.373 284.344C166.952 284.24 166.441 284.19 165.842 284.195ZM183.703 279.297H180.969V277.68H183.703V279.297ZM185.172 282.664H183.188V274.203H185.172V282.664ZM180.312 282.977C181.328 282.977 182.203 283.086 182.938 283.305C183.672 283.518 184.234 283.831 184.625 284.242C185.021 284.654 185.219 285.146 185.219 285.719C185.219 286.286 185.021 286.773 184.625 287.18C184.234 287.591 183.672 287.906 182.938 288.125C182.203 288.344 181.328 288.456 180.312 288.461C179.307 288.456 178.438 288.344 177.703 288.125C176.974 287.906 176.411 287.591 176.016 287.18C175.625 286.773 175.43 286.286 175.43 285.719C175.43 285.146 175.625 284.654 176.016 284.242C176.411 283.831 176.974 283.518 177.703 283.305C178.438 283.086 179.307 282.977 180.312 282.977ZM180.312 284.492C179.688 284.492 179.159 284.536 178.727 284.625C178.294 284.714 177.966 284.849 177.742 285.031C177.518 285.214 177.406 285.443 177.406 285.719C177.406 285.979 177.518 286.203 177.742 286.391C177.966 286.573 178.294 286.711 178.727 286.805C179.159 286.893 179.688 286.938 180.312 286.938C180.953 286.938 181.49 286.893 181.922 286.805C182.354 286.711 182.68 286.573 182.898 286.391C183.117 286.203 183.227 285.979 183.227 285.719C183.227 285.443 183.117 285.214 182.898 285.031C182.68 284.849 182.354 284.714 181.922 284.625C181.49 284.536 180.953 284.492 180.312 284.492ZM178.148 276.578C178.148 277.5 178 278.365 177.703 279.172C177.406 279.979 176.956 280.69 176.352 281.305C175.753 281.914 175.016 282.37 174.141 282.672L173.102 281.086C173.862 280.831 174.497 280.469 175.008 280C175.523 279.526 175.904 278.995 176.148 278.406C176.398 277.812 176.523 277.203 176.523 276.578V275.641H178.148V276.578ZM178.555 276.562C178.555 277.141 178.672 277.701 178.906 278.242C179.146 278.784 179.51 279.273 180 279.711C180.49 280.148 181.099 280.49 181.828 280.734L180.844 282.297C179.984 282.016 179.26 281.589 178.672 281.016C178.089 280.438 177.654 279.766 177.367 279C177.081 278.234 176.938 277.422 176.938 276.562V275.641H178.555V276.562ZM181.391 276.68H173.672V275.07H181.391V276.68Z" fill="black"/>
<defs>
<filter id="filter0_d_1120_3429" x="115" y="195" width="69" height="78.0371" filterUnits="userSpaceOnUse" color-interpolation-filters="sRGB">
<feFlood flood-opacity="0" result="BackgroundImageFix"/>
<feColorMatrix in="SourceAlpha" type="matrix" values="0 0 0 0 0 0 0 0 0 0 0 0 0 0 0 0 0 0 127 0" result="hardAlpha"/>
<feOffset dx="-1" dy="1"/>
<feGaussianBlur stdDeviation="2"/>
<feComposite in2="hardAlpha" operator="out"/>
<feColorMatrix type="matrix" values="0 0 0 0 0 0 0 0 0 0 0 0 0 0 0 0 0 0 0.25 0"/>
<feBlend mode="normal" in2="BackgroundImageFix" result="effect1_dropShadow_1120_3429"/>
<feBlend mode="normal" in="SourceGraphic" in2="effect1_dropShadow_1120_3429" result="shape"/>
</filter>
<clipPath id="clip0_1120_3429">
<rect width="445" height="453" fill="white" transform="translate(0 179)"/>
</clipPath>
</defs>
</svg>
