<svg width="371" height="378" viewBox="0 0 371 378" fill="none" xmlns="http://www.w3.org/2000/svg">
<g clip-path="url(#clip0_807_2431)">
<path d="M65.7291 192.707L59.5675 190.397L57.2569 195.787L44.7411 190.397L40.3124 200.407L0.261719 177.308L61.8781 71.8273C61.8781 71.8273 94.2267 1.7631 180.49 0.223227C266.753 -1.31664 299.101 57.1985 299.101 57.1985L370.73 146.511L343.773 168.839L338.382 164.22L319.897 179.618L317.586 176.539L312.965 180.388L239.025 86.456C239.025 86.456 201.285 58.7384 178.179 60.2782C155.073 61.8181 131.197 83.3763 131.197 83.3763L65.7291 192.707Z" fill="#FFC8AF" stroke="#605B53" stroke-width="0.5" stroke-miterlimit="10"/>
<path d="M63.6654 182.383L57.9504 180.443L55.8093 184.977L44.2023 180.443L40.0971 188.858L9.88965 173.074L69.3341 67.6392C69.3341 67.6392 99.3335 8.71601 179.319 7.42252C259.305 6.12903 289.297 55.3356 289.297 55.3356L361.873 147.666L342.272 162.311L337.273 158.422L320.136 171.373L317.995 168.786L313.712 172.019L247.829 91.4687C238.148 79.45 225.401 70.2493 210.905 64.9521C199.814 60.9023 186.96 57.3298 177.178 57.9226C172.357 58.2152 167.281 59.4086 162.305 61.087C143.821 67.3235 128.224 80.0583 117.949 96.635L63.6654 182.375V182.383Z" fill="#FFA47C" stroke="#605B53" stroke-width="0.5" stroke-miterlimit="10"/>
<path d="M343.773 168.839C343.773 168.839 392.296 241.213 304.493 332.065C216.689 422.918 98.848 351.314 93.4565 345.924C88.0651 340.535 10.6133 285.407 31.2394 195.171L40.3124 200.406L44.7411 190.397L57.2569 195.787L59.5675 190.397L65.7291 192.707L131.197 83.376C131.197 83.376 153.533 61.0478 178.179 60.2779C202.826 59.508 239.025 86.4557 239.025 86.4557L312.965 180.388L317.586 176.538L319.897 179.618L338.382 164.219L343.773 168.839Z" fill="#FFFAF8" stroke="#605B53" stroke-width="0.5" stroke-miterlimit="10"/>
<path d="M145.83 95.6954C145.83 95.6954 165.085 78.7569 181.26 77.9869C197.434 77.217 213.608 92.6157 213.608 92.6157L226.155 100.3L238.255 114.944L236.715 120.333L244.417 130.343V143.231L251.348 151.131V155.658L274.455 182.698L279.076 178.079L289.859 191.937L293.71 189.628C293.71 189.628 315.275 213.496 318.356 223.505H329.701V233.167L322.207 231.974C322.207 231.974 316.816 263.541 306.803 275.09L295.25 269.701C295.25 269.701 263.718 327.423 192.451 331.288C192.451 331.288 142.75 333.606 99.618 284.33L88.065 293.569L83.4437 287.409L85.7543 286.64C85.7543 286.64 70.3503 264.311 68.8098 253.532L61.878 255.842L59.5674 245.833L70.3503 244.293C70.3503 244.293 81.9033 219.655 86.5246 211.186L84.9841 210.416L98.0776 188.088L106.55 193.477L123.494 164.22V158.83L128.886 149.591L125.035 132.652L133.507 119.563L131.196 118.024C131.196 118.024 139.669 100.315 145.83 95.6954Z" fill="#DCF7C0" stroke="#605B53" stroke-width="0.5" stroke-miterlimit="10"/>
<path d="M303.722 193.477L339.152 170.379C339.152 170.379 374.581 228.894 323.748 299.728C297.353 336.5 258.989 355.933 234.119 364.634C212.515 372.194 189.239 373.457 166.872 368.599C128.886 360.353 68.1938 335.253 41.8528 269.701C41.8528 269.701 32.6104 245.833 32.6104 206.566L76.512 217.345L67.2696 239.673L53.4059 241.213L57.2569 260.461L64.959 259.691L79.5928 285.099L78.8226 289.719L87.2949 298.958L98.848 291.259C98.848 291.259 132.529 334.275 194.638 335.861C256.748 337.447 298.331 275.86 298.331 275.86L309.884 280.48C309.884 280.48 325.288 254.302 327.599 236.593L332.22 237.363L333.137 219.039H320.374C320.374 219.039 312.965 201.946 303.722 193.477Z" fill="#FFEBE2" stroke="#605B53" stroke-width="0.5" stroke-miterlimit="10"/>
<path d="M307.574 176.539L291.399 188.858L246.728 134.962L263.672 121.104L307.574 176.539Z" fill="#FFEBE2" stroke="#605B53" stroke-width="0.5" stroke-miterlimit="10"/>
<path d="M87.896 200.961L70.7666 190.005L106.05 129.55L124.889 140.691L87.896 200.961Z" fill="#FFEBE2" stroke="#605B53" stroke-width="0.5" stroke-miterlimit="10"/>
<path d="M85.4541 239.881C85.4541 239.881 106.396 323.081 207.94 315.543C207.94 315.543 291.869 305.58 301.805 220.14L208.448 103.218C208.448 103.218 196.256 90.1905 178.318 93.2086C160.38 96.2268 155.473 109.585 155.473 109.585L85.4618 239.881H85.4541Z" fill="#B7E589" stroke="#605B53" stroke-width="0.5" stroke-miterlimit="10"/>
<path d="M143.604 167.214C154.98 189.204 179.719 200.753 202.718 193.438C219.162 188.211 230.753 174.598 234.781 158.299L183.917 118.339L143.604 167.207V167.214Z" fill="white"/>
<rect x="184.616" y="121.206" width="42.3762" height="41.8349" transform="rotate(39.0607 184.616 121.206)" fill="#B7E589"/>
<path d="M161.997 150.884C161.851 150.507 161.666 150.152 161.466 149.821L158.062 154.079L161.497 156.828C162.536 155.088 162.791 152.916 161.997 150.884Z" fill="white"/>
<path d="M188.816 176.746C188.3 176.946 187.83 177.208 187.398 177.508L191.427 180.726L194.376 177.031C192.705 176.168 190.695 175.999 188.808 176.738L188.816 176.746Z" fill="white"/>
<path d="M215.21 150.976L217.983 147.512L214.733 144.917C214.101 146.472 214.032 148.251 214.694 149.937C214.841 150.307 215.018 150.653 215.218 150.976H215.21Z" fill="white"/>
<path d="M188.215 152.671C190.856 152.671 192.998 150.53 192.998 147.89C192.998 145.249 190.856 143.108 188.215 143.108C185.573 143.108 183.432 145.249 183.432 147.89C183.432 150.53 185.573 152.671 188.215 152.671Z" fill="white"/>
<path d="M184.502 126.608C188.246 126.608 191.28 123.575 191.28 119.833C191.28 116.091 188.246 113.058 184.502 113.058C180.759 113.058 177.725 116.091 177.725 119.833C177.725 123.575 180.759 126.608 184.502 126.608Z" fill="white"/>
<g filter="url(#filter0_d_807_2431)">
<path fill-rule="evenodd" clip-rule="evenodd" d="M100.034 115.951C100.187 115.685 100.438 115.492 100.729 115.396C105.497 113.816 108.939 109.311 108.939 104C108.939 97.3726 103.58 92 96.9693 92C90.3588 92 85 97.3726 85 104C85 109.489 88.6766 114.118 93.6957 115.546C94.0081 115.635 94.2799 115.834 94.442 116.115L96.0354 118.882C96.5482 119.773 97.8334 119.773 98.3462 118.882L100.034 115.951Z" fill="white"/>
</g>
<ellipse cx="96.7654" cy="103.796" rx="10.1961" ry="10.2222" fill="#FF4E00"/>
<path d="M98.4731 100.754V104.557H99.8957V108.361H100.844V98.8525C99.5353 98.8525 98.4731 99.9175 98.4731 100.754ZM96.1021 102.18H95.1538V98.8525H94.2054V102.18H93.257V98.8525H92.3086V102.18C92.3086 103.231 93.1574 104.082 94.2054 104.082V108.361H95.1538V104.082C96.2017 104.082 97.0505 103.231 97.0505 102.18V98.8525H96.1021V102.18Z" fill="#FAFAFA"/>
<g filter="url(#filter1_d_807_2431)">
<path fill-rule="evenodd" clip-rule="evenodd" d="M271.034 89.9508C271.187 89.6855 271.438 89.4925 271.729 89.3962C276.497 87.8158 279.939 83.3108 279.939 78C279.939 71.3726 274.58 66 267.969 66C261.359 66 256 71.3726 256 78C256 83.4895 259.677 88.118 264.696 89.5457C265.008 89.6345 265.28 89.8339 265.442 90.1153L267.035 92.8823C267.548 93.7729 268.833 93.7729 269.346 92.8823L271.034 89.9508Z" fill="white"/>
</g>
<ellipse cx="267.765" cy="77.7964" rx="10.1961" ry="10.2222" fill="#FF4E00"/>
<path d="M269.473 74.7542V78.5575H270.896V82.3607H271.844V72.8525C270.535 72.8525 269.473 73.9175 269.473 74.7542ZM267.102 76.1804H266.154V72.8525H265.205V76.1804H264.257V72.8525H263.309V76.1804C263.309 77.2311 264.157 78.082 265.205 78.082V82.3607H266.154V78.082C267.202 78.082 268.051 77.2311 268.051 76.1804V72.8525H267.102V76.1804Z" fill="#FAFAFA"/>
<g filter="url(#filter2_d_807_2431)">
<path fill-rule="evenodd" clip-rule="evenodd" d="M47.0344 159.951C47.1872 159.685 47.438 159.492 47.7286 159.396C52.4975 157.816 55.9386 153.311 55.9386 148C55.9386 141.373 50.5798 136 43.9693 136C37.3588 136 32 141.373 32 148C32 153.489 35.6766 158.118 40.6957 159.546C41.0081 159.635 41.2799 159.834 41.442 160.115L43.0354 162.882C43.5482 163.773 44.8334 163.773 45.3462 162.882L47.0344 159.951Z" fill="white"/>
</g>
<ellipse cx="43.7654" cy="147.796" rx="10.1961" ry="10.2222" fill="#FF4E00"/>
<path d="M45.4731 144.754V148.557H46.8957V152.361H47.8441V142.853C46.5353 142.853 45.4731 143.917 45.4731 144.754ZM43.1021 146.18H42.1538V142.853H41.2054V146.18H40.257V142.853H39.3086V146.18C39.3086 147.231 40.1574 148.082 41.2054 148.082V152.361H42.1538V148.082C43.2017 148.082 44.0505 147.231 44.0505 146.18V142.853H43.1021V146.18Z" fill="#FAFAFA"/>
<g filter="url(#filter3_d_807_2431)">
<path fill-rule="evenodd" clip-rule="evenodd" d="M244.034 69.9508C244.187 69.6855 244.438 69.4925 244.729 69.3962C249.497 67.8158 252.939 63.3108 252.939 58C252.939 51.3726 247.58 46 240.969 46C234.359 46 229 51.3726 229 58C229 63.4895 232.677 68.118 237.696 69.5457C238.008 69.6345 238.28 69.8339 238.442 70.1153L240.035 72.8823C240.548 73.7729 241.833 73.7729 242.346 72.8823L244.034 69.9508Z" fill="white"/>
</g>
<ellipse cx="240.765" cy="57.7964" rx="10.1961" ry="10.2222" fill="#FF4E00"/>
<path d="M242.473 54.7542V58.5575H243.896V62.3607H244.844V52.8525C243.535 52.8525 242.473 53.9175 242.473 54.7542ZM240.102 56.1804H239.154V52.8525H238.205V56.1804H237.257V52.8525H236.309V56.1804C236.309 57.2311 237.157 58.082 238.205 58.082V62.3607H239.154V58.082C240.202 58.082 241.051 57.2311 241.051 56.1804V52.8525H240.102V56.1804Z" fill="#FAFAFA"/>
</g>
<defs>
<filter id="filter0_d_807_2431" x="83.0328" y="90.8197" width="27.086" height="30.6973" filterUnits="userSpaceOnUse" color-interpolation-filters="sRGB">
<feFlood flood-opacity="0" result="BackgroundImageFix"/>
<feColorMatrix in="SourceAlpha" type="matrix" values="0 0 0 0 0 0 0 0 0 0 0 0 0 0 0 0 0 0 127 0" result="hardAlpha"/>
<feOffset dx="-0.393443" dy="0.393443"/>
<feGaussianBlur stdDeviation="0.786885"/>
<feComposite in2="hardAlpha" operator="out"/>
<feColorMatrix type="matrix" values="0 0 0 0 0 0 0 0 0 0 0 0 0 0 0 0 0 0 0.25 0"/>
<feBlend mode="normal" in2="BackgroundImageFix" result="effect1_dropShadow_807_2431"/>
<feBlend mode="normal" in="SourceGraphic" in2="effect1_dropShadow_807_2431" result="shape"/>
</filter>
<filter id="filter1_d_807_2431" x="254.033" y="64.8197" width="27.086" height="30.6973" filterUnits="userSpaceOnUse" color-interpolation-filters="sRGB">
<feFlood flood-opacity="0" result="BackgroundImageFix"/>
<feColorMatrix in="SourceAlpha" type="matrix" values="0 0 0 0 0 0 0 0 0 0 0 0 0 0 0 0 0 0 127 0" result="hardAlpha"/>
<feOffset dx="-0.393443" dy="0.393443"/>
<feGaussianBlur stdDeviation="0.786885"/>
<feComposite in2="hardAlpha" operator="out"/>
<feColorMatrix type="matrix" values="0 0 0 0 0 0 0 0 0 0 0 0 0 0 0 0 0 0 0.25 0"/>
<feBlend mode="normal" in2="BackgroundImageFix" result="effect1_dropShadow_807_2431"/>
<feBlend mode="normal" in="SourceGraphic" in2="effect1_dropShadow_807_2431" result="shape"/>
</filter>
<filter id="filter2_d_807_2431" x="30.0328" y="134.82" width="27.086" height="30.6973" filterUnits="userSpaceOnUse" color-interpolation-filters="sRGB">
<feFlood flood-opacity="0" result="BackgroundImageFix"/>
<feColorMatrix in="SourceAlpha" type="matrix" values="0 0 0 0 0 0 0 0 0 0 0 0 0 0 0 0 0 0 127 0" result="hardAlpha"/>
<feOffset dx="-0.393443" dy="0.393443"/>
<feGaussianBlur stdDeviation="0.786885"/>
<feComposite in2="hardAlpha" operator="out"/>
<feColorMatrix type="matrix" values="0 0 0 0 0 0 0 0 0 0 0 0 0 0 0 0 0 0 0.25 0"/>
<feBlend mode="normal" in2="BackgroundImageFix" result="effect1_dropShadow_807_2431"/>
<feBlend mode="normal" in="SourceGraphic" in2="effect1_dropShadow_807_2431" result="shape"/>
</filter>
<filter id="filter3_d_807_2431" x="227.033" y="44.8197" width="27.086" height="30.6973" filterUnits="userSpaceOnUse" color-interpolation-filters="sRGB">
<feFlood flood-opacity="0" result="BackgroundImageFix"/>
<feColorMatrix in="SourceAlpha" type="matrix" values="0 0 0 0 0 0 0 0 0 0 0 0 0 0 0 0 0 0 127 0" result="hardAlpha"/>
<feOffset dx="-0.393443" dy="0.393443"/>
<feGaussianBlur stdDeviation="0.786885"/>
<feComposite in2="hardAlpha" operator="out"/>
<feColorMatrix type="matrix" values="0 0 0 0 0 0 0 0 0 0 0 0 0 0 0 0 0 0 0.25 0"/>
<feBlend mode="normal" in2="BackgroundImageFix" result="effect1_dropShadow_807_2431"/>
<feBlend mode="normal" in="SourceGraphic" in2="effect1_dropShadow_807_2431" result="shape"/>
</filter>
<clipPath id="clip0_807_2431">
<rect width="371" height="378" fill="white"/>
</clipPath>
</defs>
</svg>
