<svg width="469" height="632" viewBox="0 0 469 632" fill="none" xmlns="http://www.w3.org/2000/svg">
<mask id="mask0_1120_3456" style="mask-type:alpha" maskUnits="userSpaceOnUse" x="76" y="0" width="393" height="427">
<rect x="76" width="393" height="427" fill="#D9D9D9"/>
</mask>
<g mask="url(#mask0_1120_3456)">
</g>
<g clip-path="url(#clip0_1120_3456)">
<path d="M78.8401 409.942L71.4494 407.174L68.6779 413.633L53.6657 407.174L48.3537 419.169L0.314453 391.488L74.2209 265.078C74.2209 265.078 113.022 181.113 216.491 179.267C319.96 177.422 358.761 247.547 358.761 247.547L444.677 354.58L412.343 381.339L405.876 375.803L383.704 394.257L380.933 390.566L375.39 395.179L286.702 282.61C286.702 282.61 241.434 249.393 213.719 251.238C186.004 253.083 157.366 278.919 157.366 278.919L78.8401 409.942Z" fill="#FFC8AF" stroke="#605B53" stroke-width="0.5" stroke-miterlimit="10"/>
<path d="M76.3642 397.57L69.5093 395.245L66.9411 400.679L53.019 395.245L48.0949 405.33L11.8623 386.414L83.1636 260.06C83.1636 260.06 119.147 189.445 215.087 187.895C311.026 186.345 347 245.315 347 245.315L434.053 355.965L410.541 373.515L404.546 368.855L383.991 384.375L381.422 381.275L376.286 385.15L297.261 288.617C285.649 274.214 270.359 263.188 252.973 256.839C239.67 251.986 224.251 247.705 212.518 248.415C206.735 248.766 200.647 250.196 194.679 252.208C172.507 259.681 153.8 274.943 141.476 294.809L76.3642 397.561V397.57Z" fill="#FFA47C" stroke="#605B53" stroke-width="0.5" stroke-miterlimit="10"/>
<path d="M412.343 381.339C412.343 381.339 470.544 468.073 365.227 576.952C259.91 685.83 118.564 600.019 112.098 593.56C105.631 587.101 12.7303 521.036 37.4705 412.895L48.3532 419.17L53.6653 407.175L68.6775 413.634L71.449 407.175L78.8397 409.943L157.365 278.919C157.365 278.919 184.156 252.161 213.719 251.238C243.282 250.315 286.702 282.61 286.702 282.61L375.389 395.179L380.932 390.566L383.704 394.257L405.876 375.803L412.343 381.339Z" fill="#FFFAF8" stroke="#605B53" stroke-width="0.5" stroke-miterlimit="10"/>
<path d="M174.918 293.682C174.918 293.682 198.014 273.383 217.414 272.46C236.815 271.538 256.215 289.992 256.215 289.992L271.265 299.2L285.778 316.75L283.93 323.209L293.169 335.204V350.65L301.483 360.117V365.542L329.198 397.948L334.741 392.411L347.675 409.02L352.294 406.252C352.294 406.252 378.161 434.856 381.856 446.851H395.464V458.431L386.475 457C386.475 457 380.009 494.831 367.999 508.672L354.141 502.213C354.141 502.213 316.32 571.388 230.838 576.02C230.838 576.02 171.223 578.797 119.488 519.744L105.631 530.816L100.088 523.435L102.859 522.512C102.859 522.512 84.3828 495.754 82.5352 482.836L74.2207 485.604L71.4492 473.609L84.3828 471.764C84.3828 471.764 98.2403 442.237 103.783 432.087L101.936 431.165L117.641 404.406L127.803 410.865L148.127 375.803V369.344L154.594 358.271L149.975 337.972L160.137 322.286L157.365 320.441C157.365 320.441 167.528 299.219 174.918 293.682Z" fill="#DCF7C0" stroke="#605B53" stroke-width="0.5" stroke-miterlimit="10"/>
<path d="M364.304 410.866L406.8 383.185C406.8 383.185 449.296 453.31 388.323 538.198C356.664 582.267 310.648 605.555 280.817 615.982C254.904 625.043 226.985 626.556 200.157 620.734C154.594 610.852 81.7962 580.772 50.2012 502.213C50.2012 502.213 39.1152 473.609 39.1152 426.552L91.7736 439.469L80.6876 466.228L64.0587 468.073L68.6778 491.141L77.9161 490.218L95.4689 520.667L94.5451 526.203L104.707 537.276L118.565 528.049C118.565 528.049 158.964 579.6 233.461 581.501C307.959 583.401 357.837 509.595 357.837 509.595L371.694 515.131C371.694 515.131 390.171 483.759 392.942 462.537L398.485 463.46L399.585 441.499H384.277C384.277 441.499 375.39 421.015 364.304 410.866Z" fill="#FFEBE2" stroke="#605B53" stroke-width="0.5" stroke-miterlimit="10"/>
<path d="M368.922 390.566L349.522 405.33L295.939 340.74L316.264 324.132L368.922 390.566Z" fill="#FFEBE2" stroke="#605B53" stroke-width="0.5" stroke-miterlimit="10"/>
<path d="M105.428 419.834L84.8818 406.704L127.203 334.254L149.799 347.605L105.428 419.834Z" fill="#FFEBE2" stroke="#605B53" stroke-width="0.5" stroke-miterlimit="10"/>
<path d="M102.499 466.476C102.499 466.476 127.618 566.183 249.416 557.15C249.416 557.15 350.086 545.211 362.003 442.818L250.026 302.697C250.026 302.697 235.401 287.085 213.885 290.702C192.369 294.319 186.484 310.328 186.484 310.328L102.508 466.476H102.499Z" fill="#B7E589" stroke="#605B53" stroke-width="0.5" stroke-miterlimit="10"/>
<path d="M172.248 379.392C185.893 405.745 215.566 419.585 243.152 410.82C262.876 404.554 276.779 388.241 281.611 368.708L220.601 320.819L172.248 379.383V379.392Z" fill="white"/>
<rect width="50.8109" height="50.1529" transform="matrix(0.776748 0.629811 -0.630475 0.776209 221.44 324.255)" fill="#B7E589"/>
<path d="M194.31 359.821C194.134 359.369 193.912 358.945 193.672 358.548L189.589 363.65L193.709 366.944C194.956 364.859 195.261 362.257 194.31 359.821Z" fill="white"/>
<path d="M226.477 390.815C225.858 391.054 225.295 391.368 224.777 391.728L229.609 395.585L233.147 391.156C231.143 390.123 228.731 389.92 226.468 390.805L226.477 390.815Z" fill="white"/>
<path d="M258.137 359.933L261.463 355.78L257.564 352.671C256.807 354.535 256.723 356.666 257.518 358.687C257.693 359.13 257.906 359.545 258.146 359.933H258.137Z" fill="white"/>
<path d="M225.757 361.962C228.925 361.962 231.494 359.397 231.494 356.232C231.494 353.067 228.925 350.502 225.757 350.502C222.588 350.502 220.02 353.067 220.02 356.232C220.02 359.397 222.588 361.962 225.757 361.962Z" fill="white"/>
<path d="M221.304 330.729C225.793 330.729 229.433 327.093 229.433 322.609C229.433 318.125 225.793 314.489 221.304 314.489C216.814 314.489 213.174 318.125 213.174 322.609C213.174 327.093 216.814 330.729 221.304 330.729Z" fill="white"/>
</g>
<g filter="url(#filter0_d_1120_3456)">
<path fill-rule="evenodd" clip-rule="evenodd" d="M91.3118 361.873C91.7007 361.2 92.3382 360.71 93.0767 360.466C105.23 356.45 114 344.999 114 331.5C114 314.655 100.345 301 83.5 301C66.6553 301 53 314.655 53 331.5C53 345.454 62.3705 357.219 75.1621 360.846C75.9558 361.071 76.6465 361.577 77.059 362.292L81.1298 369.343C82.4342 371.602 85.6952 371.602 86.9996 369.343L91.3118 361.873Z" fill="white"/>
</g>
<circle cx="82.9815" cy="330.981" r="25.9815" fill="#FF4E00"/>
<path d="M87.3333 323.25V332.917H90.9583V342.584H93.375V318.417C90.04 318.417 87.3333 321.124 87.3333 323.25ZM81.2917 326.875H78.875V318.417H76.4583V326.875H74.0417V318.417H71.625V326.875C71.625 329.546 73.7879 331.709 76.4583 331.709V342.584H78.875V331.709C81.5454 331.709 83.7083 329.546 83.7083 326.875V318.417H81.2917V326.875Z" fill="#FAFAFA"/>
<path d="M38.6797 378.312C38.6797 379.021 38.5651 379.688 38.3359 380.312C38.112 380.938 37.7604 381.49 37.2812 381.969C36.8021 382.443 36.1979 382.805 35.4688 383.055L34.5156 381.586C35.1146 381.393 35.612 381.128 36.0078 380.789C36.4089 380.445 36.7005 380.062 36.8828 379.641C37.0703 379.214 37.1641 378.771 37.1641 378.312V377.547H38.6797V378.312ZM39.1484 378.312C39.1484 378.75 39.237 379.188 39.4141 379.625C39.5911 380.057 39.8672 380.456 40.2422 380.82C40.6172 381.185 41.0859 381.479 41.6484 381.703L40.9062 383.234C40.1615 382.979 39.5469 382.596 39.0625 382.086C38.5781 381.57 38.224 380.99 38 380.344C37.776 379.698 37.6641 379.021 37.6641 378.312V377.547H39.1484V378.312ZM44.125 378.312C44.125 379.031 44.0156 379.714 43.7969 380.359C43.5833 381.005 43.2344 381.583 42.75 382.094C42.2708 382.599 41.6562 382.979 40.9062 383.234L40.1328 381.703C40.7057 381.484 41.1771 381.195 41.5469 380.836C41.9167 380.477 42.1901 380.081 42.3672 379.648C42.5443 379.216 42.6328 378.771 42.6328 378.312V377.547H44.125V378.312ZM44.6484 378.312C44.6484 378.797 44.7396 379.253 44.9219 379.68C45.1094 380.107 45.3958 380.487 45.7812 380.82C46.1719 381.148 46.6641 381.404 47.2578 381.586L46.3594 383.047C45.6146 382.807 45.0026 382.453 44.5234 381.984C44.0443 381.516 43.6901 380.969 43.4609 380.344C43.237 379.719 43.125 379.042 43.125 378.312V377.547H44.6484V378.312ZM47.3984 385.5H34.4297V383.898H47.3984V385.5ZM45.8438 391.438H43.8438V388.148H35.8203V386.562H45.8438V391.438ZM60.4 391.477H58.4234V377.203H60.4V391.477ZM58.9859 383.844H55.1422V382.227H58.9859V383.844ZM50.9156 381.766H53.8297V378.32H55.7828V388.094H48.9234V378.32H50.9156V381.766ZM53.8297 386.5V383.328H50.9156V386.5H53.8297ZM74.3547 391.438H72.3781V377.203H74.3547V391.438ZM73.3312 384.312H69.55V382.688H73.3312V384.312ZM69.6281 378.703C69.6281 380.229 69.4354 381.607 69.05 382.836C68.6698 384.06 68.0109 385.188 67.0734 386.219C66.1359 387.25 64.8651 388.164 63.2609 388.961L62.2453 387.398C63.5786 386.742 64.6411 386.01 65.4328 385.203C66.2297 384.396 66.8 383.492 67.1437 382.492C67.4927 381.487 67.6672 380.341 67.6672 379.055V378.703H69.6281ZM68.7062 380.273H62.9172V378.703H68.7062V380.273ZM87.95 386.141H77.8875V384.57H87.95V386.141ZM89.3641 389.781H76.3641V388.164H89.3641V389.781ZM87.8406 379.883H79.9188V384.992H77.8875V378.258H87.8406V379.883ZM87.5047 382.938H79.325V381.383H87.5047V382.938ZM91.7406 386.461C92.7875 386.461 93.6885 386.438 94.4437 386.391C95.2042 386.344 95.9958 386.247 96.8187 386.102L96.9906 387.719C96.1469 387.875 95.3396 387.977 94.5687 388.023C93.7979 388.07 92.8552 388.096 91.7406 388.102H90.7328V386.461H91.7406ZM95.7641 384.031H92.6547V387.117H90.7328V382.453H93.85V380.219H90.7172V378.633H95.7641V384.031ZM102.623 391.438H100.748V377.203H102.623V391.438ZM98.6312 383.68H96.3656V382.07H98.6312V383.68ZM99.6859 390.75H97.8187V377.477H99.6859V390.75ZM108.352 377.633C109.07 377.633 109.719 377.773 110.297 378.055C110.88 378.331 111.336 378.716 111.664 379.211C111.992 379.701 112.156 380.258 112.156 380.883C112.156 381.497 111.992 382.052 111.664 382.547C111.336 383.042 110.88 383.427 110.297 383.703C109.719 383.979 109.07 384.117 108.352 384.117C107.633 384.117 106.982 383.979 106.398 383.703C105.815 383.427 105.357 383.042 105.023 382.547C104.695 382.052 104.531 381.497 104.531 380.883C104.531 380.258 104.695 379.701 105.023 379.211C105.357 378.716 105.815 378.331 106.398 378.055C106.982 377.773 107.633 377.633 108.352 377.633ZM108.352 379.266C107.992 379.266 107.669 379.331 107.383 379.461C107.096 379.586 106.872 379.771 106.711 380.016C106.549 380.26 106.469 380.549 106.469 380.883C106.469 381.211 106.549 381.5 106.711 381.75C106.872 381.995 107.096 382.182 107.383 382.312C107.669 382.443 107.992 382.51 108.352 382.516C108.716 382.51 109.039 382.443 109.32 382.312C109.607 382.182 109.831 381.995 109.992 381.75C110.154 381.5 110.234 381.211 110.234 380.883C110.234 380.549 110.154 380.26 109.992 380.016C109.831 379.771 109.607 379.586 109.32 379.461C109.039 379.331 108.716 379.266 108.352 379.266ZM116.211 384.344H114.219V377.203H116.211V384.344ZM116.211 388.797H108.656V390.531H106.711V387.344H114.227V386.469H106.68V384.93H116.211V388.797ZM116.602 391.281H106.711V389.711H116.602V391.281ZM130.267 391.477H128.291V377.203H130.267V391.477ZM128.697 383.969H126.002V382.344H128.697V383.969ZM119.963 386.508C121.332 386.508 122.481 386.484 123.408 386.438C124.34 386.385 125.28 386.276 126.228 386.109L126.384 387.734C125.405 387.896 124.421 388.008 123.431 388.07C122.447 388.128 121.291 388.159 119.963 388.164H118.791V386.508H119.963ZM125.205 383.742H120.783V387.031H118.791V382.156H123.252V380.016H118.759V378.406H125.205V383.742Z" fill="black"/>
<defs>
<filter id="filter0_d_1120_3456" x="48" y="298" width="69" height="78.0371" filterUnits="userSpaceOnUse" color-interpolation-filters="sRGB">
<feFlood flood-opacity="0" result="BackgroundImageFix"/>
<feColorMatrix in="SourceAlpha" type="matrix" values="0 0 0 0 0 0 0 0 0 0 0 0 0 0 0 0 0 0 127 0" result="hardAlpha"/>
<feOffset dx="-1" dy="1"/>
<feGaussianBlur stdDeviation="2"/>
<feComposite in2="hardAlpha" operator="out"/>
<feColorMatrix type="matrix" values="0 0 0 0 0 0 0 0 0 0 0 0 0 0 0 0 0 0 0.25 0"/>
<feBlend mode="normal" in2="BackgroundImageFix" result="effect1_dropShadow_1120_3456"/>
<feBlend mode="normal" in="SourceGraphic" in2="effect1_dropShadow_1120_3456" result="shape"/>
</filter>
<clipPath id="clip0_1120_3456">
<rect width="445" height="453" fill="white" transform="translate(0 179)"/>
</clipPath>
</defs>
</svg>
