<svg width="469" height="632" viewBox="0 0 469 632" fill="none" xmlns="http://www.w3.org/2000/svg">
<mask id="mask0_1120_3402" style="mask-type:alpha" maskUnits="userSpaceOnUse" x="76" y="0" width="393" height="427">
<rect x="76" width="393" height="427" fill="#D9D9D9"/>
</mask>
<g mask="url(#mask0_1120_3402)">
</g>
<g clip-path="url(#clip0_1120_3402)">
<path d="M78.8401 409.942L71.4494 407.174L68.6779 413.633L53.6657 407.174L48.3537 419.169L0.314453 391.488L74.2209 265.078C74.2209 265.078 113.022 181.113 216.491 179.267C319.96 177.422 358.761 247.547 358.761 247.547L444.677 354.58L412.343 381.339L405.876 375.803L383.704 394.257L380.933 390.566L375.39 395.179L286.702 282.61C286.702 282.61 241.434 249.393 213.719 251.238C186.004 253.083 157.366 278.919 157.366 278.919L78.8401 409.942Z" fill="#FFC8AF" stroke="#605B53" stroke-width="0.5" stroke-miterlimit="10"/>
<path d="M76.3642 397.57L69.5093 395.245L66.9411 400.679L53.019 395.245L48.0949 405.33L11.8623 386.414L83.1636 260.06C83.1636 260.06 119.147 189.445 215.087 187.895C311.026 186.345 347 245.315 347 245.315L434.053 355.965L410.541 373.515L404.546 368.855L383.991 384.375L381.422 381.275L376.286 385.15L297.261 288.617C285.649 274.214 270.359 263.188 252.973 256.839C239.67 251.986 224.251 247.705 212.518 248.415C206.735 248.766 200.647 250.196 194.679 252.208C172.507 259.681 153.8 274.943 141.476 294.809L76.3642 397.561V397.57Z" fill="#FFA47C" stroke="#605B53" stroke-width="0.5" stroke-miterlimit="10"/>
<path d="M412.343 381.339C412.343 381.339 470.544 468.073 365.227 576.952C259.91 685.83 118.564 600.019 112.098 593.56C105.631 587.101 12.7303 521.036 37.4705 412.895L48.3532 419.17L53.6653 407.175L68.6775 413.634L71.449 407.175L78.8397 409.943L157.365 278.919C157.365 278.919 184.156 252.161 213.719 251.238C243.282 250.315 286.702 282.61 286.702 282.61L375.389 395.179L380.932 390.566L383.704 394.257L405.876 375.803L412.343 381.339Z" fill="#FFFAF8" stroke="#605B53" stroke-width="0.5" stroke-miterlimit="10"/>
<path d="M174.918 293.682C174.918 293.682 198.014 273.383 217.414 272.46C236.815 271.538 256.215 289.992 256.215 289.992L271.265 299.2L285.778 316.75L283.93 323.209L293.169 335.204V350.65L301.483 360.117V365.542L329.198 397.948L334.741 392.411L347.675 409.02L352.294 406.252C352.294 406.252 378.161 434.856 381.856 446.851H395.464V458.431L386.475 457C386.475 457 380.009 494.831 367.999 508.672L354.141 502.213C354.141 502.213 316.32 571.388 230.838 576.02C230.838 576.02 171.223 578.797 119.488 519.744L105.631 530.816L100.088 523.435L102.859 522.512C102.859 522.512 84.3828 495.754 82.5352 482.836L74.2207 485.604L71.4492 473.609L84.3828 471.764C84.3828 471.764 98.2403 442.237 103.783 432.087L101.936 431.165L117.641 404.406L127.803 410.865L148.127 375.803V369.344L154.594 358.271L149.975 337.972L160.137 322.286L157.365 320.441C157.365 320.441 167.528 299.219 174.918 293.682Z" fill="#DCF7C0" stroke="#605B53" stroke-width="0.5" stroke-miterlimit="10"/>
<path d="M364.304 410.866L406.8 383.185C406.8 383.185 449.296 453.31 388.323 538.198C356.664 582.267 310.648 605.555 280.817 615.982C254.904 625.043 226.985 626.556 200.157 620.734C154.594 610.852 81.7962 580.772 50.2012 502.213C50.2012 502.213 39.1152 473.609 39.1152 426.552L91.7736 439.469L80.6876 466.228L64.0587 468.073L68.6778 491.141L77.9161 490.218L95.4689 520.667L94.5451 526.203L104.707 537.276L118.565 528.049C118.565 528.049 158.964 579.6 233.461 581.501C307.959 583.401 357.837 509.595 357.837 509.595L371.694 515.131C371.694 515.131 390.171 483.759 392.942 462.537L398.485 463.46L399.585 441.499H384.277C384.277 441.499 375.39 421.015 364.304 410.866Z" fill="#FFEBE2" stroke="#605B53" stroke-width="0.5" stroke-miterlimit="10"/>
<path d="M368.922 390.566L349.522 405.33L295.939 340.74L316.264 324.132L368.922 390.566Z" fill="#FFEBE2" stroke="#605B53" stroke-width="0.5" stroke-miterlimit="10"/>
<path d="M105.428 419.834L84.8818 406.704L127.203 334.254L149.799 347.605L105.428 419.834Z" fill="#FFEBE2" stroke="#605B53" stroke-width="0.5" stroke-miterlimit="10"/>
<path d="M102.499 466.476C102.499 466.476 127.618 566.183 249.416 557.15C249.416 557.15 350.086 545.211 362.003 442.818L250.026 302.697C250.026 302.697 235.401 287.085 213.885 290.702C192.369 294.319 186.484 310.328 186.484 310.328L102.508 466.476H102.499Z" fill="#B7E589" stroke="#605B53" stroke-width="0.5" stroke-miterlimit="10"/>
<path d="M172.248 379.392C185.893 405.745 215.566 419.585 243.152 410.82C262.876 404.554 276.779 388.241 281.611 368.708L220.601 320.819L172.248 379.383V379.392Z" fill="white"/>
<rect width="50.8109" height="50.1529" transform="matrix(0.776748 0.629811 -0.630475 0.776209 221.44 324.255)" fill="#B7E589"/>
<path d="M194.31 359.821C194.134 359.369 193.912 358.945 193.672 358.548L189.589 363.65L193.709 366.944C194.956 364.859 195.261 362.257 194.31 359.821Z" fill="white"/>
<path d="M226.477 390.815C225.858 391.054 225.295 391.368 224.777 391.728L229.609 395.585L233.147 391.156C231.143 390.123 228.731 389.92 226.468 390.805L226.477 390.815Z" fill="white"/>
<path d="M258.137 359.933L261.463 355.78L257.564 352.671C256.807 354.535 256.723 356.666 257.518 358.687C257.693 359.13 257.906 359.545 258.146 359.933H258.137Z" fill="white"/>
<path d="M225.757 361.962C228.925 361.962 231.494 359.397 231.494 356.232C231.494 353.067 228.925 350.502 225.757 350.502C222.588 350.502 220.02 353.067 220.02 356.232C220.02 359.397 222.588 361.962 225.757 361.962Z" fill="white"/>
<path d="M221.304 330.729C225.793 330.729 229.433 327.093 229.433 322.609C229.433 318.125 225.793 314.489 221.304 314.489C216.814 314.489 213.174 318.125 213.174 322.609C213.174 327.093 216.814 330.729 221.304 330.729Z" fill="white"/>
</g>
<g filter="url(#filter0_d_1120_3402)">
<path fill-rule="evenodd" clip-rule="evenodd" d="M279.312 255.873C279.701 255.2 280.338 254.71 281.077 254.466C293.23 250.45 302 238.999 302 225.5C302 208.655 288.345 195 271.5 195C254.655 195 241 208.655 241 225.5C241 239.454 250.37 251.219 263.162 254.846C263.956 255.071 264.646 255.577 265.059 256.292L269.13 263.343C270.434 265.602 273.695 265.602 275 263.343L279.312 255.873Z" fill="white"/>
</g>
<circle cx="270.981" cy="224.981" r="25.9815" fill="#FF4E00"/>
<path d="M275.333 217.25V226.917H278.958V236.584H281.375V212.417C278.04 212.417 275.333 215.124 275.333 217.25ZM269.292 220.875H266.875V212.417H264.458V220.875H262.042V212.417H259.625V220.875C259.625 223.546 261.788 225.709 264.458 225.709V236.584H266.875V225.709C269.545 225.709 271.708 223.546 271.708 220.875V212.417H269.292V220.875Z" fill="#FAFAFA"/>
<path d="M250.531 273.086C250.531 274.117 250.289 275.083 249.805 275.984C249.32 276.885 248.63 277.656 247.734 278.297C246.844 278.932 245.799 279.37 244.602 279.609L243.75 277.953C244.771 277.76 245.661 277.414 246.422 276.914C247.188 276.414 247.771 275.828 248.172 275.156C248.578 274.484 248.781 273.794 248.781 273.086V272.07H250.531V273.086ZM250.898 273.086C250.898 273.799 251.099 274.495 251.5 275.172C251.906 275.849 252.492 276.438 253.258 276.938C254.029 277.432 254.93 277.771 255.961 277.953L255.086 279.609C253.898 279.37 252.857 278.935 251.961 278.305C251.07 277.674 250.385 276.909 249.906 276.008C249.427 275.107 249.188 274.133 249.188 273.086V272.07H250.898V273.086ZM256.43 283.695H243.43V282.062H256.43V283.695ZM265.798 278H263.252V276.406H265.798V278ZM258.783 280.711C259.887 280.701 260.793 280.672 261.502 280.625C262.215 280.578 262.947 280.495 263.697 280.375L263.861 281.977C263.121 282.107 262.392 282.193 261.673 282.234C260.96 282.276 259.996 282.299 258.783 282.305H257.83V280.711H258.783ZM263.15 274.359H259.728V281.289H257.83V272.797H263.15V274.359ZM262.603 278.141H259.181V276.617H262.603V278.141ZM269.72 285.438H267.814V271.203H269.72V285.438ZM266.712 284.797H264.861V271.461H266.712V284.797ZM283.284 285.477H281.261V271.203H283.284V285.477ZM275.558 272.211C276.271 272.211 276.912 272.419 277.48 272.836C278.053 273.253 278.498 273.844 278.816 274.609C279.139 275.375 279.3 276.266 279.3 277.281C279.3 278.302 279.139 279.195 278.816 279.961C278.498 280.727 278.053 281.318 277.48 281.734C276.912 282.146 276.271 282.352 275.558 282.352C274.834 282.352 274.185 282.146 273.612 281.734C273.045 281.318 272.599 280.727 272.277 279.961C271.954 279.195 271.792 278.302 271.792 277.281C271.792 276.266 271.954 275.375 272.277 274.609C272.599 273.844 273.045 273.253 273.612 272.836C274.185 272.419 274.834 272.211 275.558 272.211ZM275.558 274.016C275.193 274.01 274.87 274.135 274.589 274.391C274.313 274.641 274.099 275.013 273.948 275.508C273.803 275.997 273.73 276.589 273.73 277.281C273.73 277.974 273.803 278.565 273.948 279.055C274.099 279.544 274.313 279.917 274.589 280.172C274.87 280.422 275.193 280.547 275.558 280.547C275.917 280.547 276.235 280.422 276.511 280.172C276.787 279.917 277.001 279.544 277.152 279.055C277.303 278.565 277.378 277.974 277.378 277.281C277.378 276.589 277.303 275.997 277.152 275.508C277.001 275.013 276.787 274.641 276.511 274.391C276.24 274.135 275.922 274.01 275.558 274.016ZM295.817 274.68H292.919V273.078H295.817V274.68ZM295.817 277.438H292.919V275.836H295.817V277.438ZM290.278 273.672C290.278 274.672 290.135 275.599 289.848 276.453C289.562 277.307 289.124 278.055 288.536 278.695C287.953 279.331 287.231 279.815 286.372 280.148L285.286 278.586C286.046 278.315 286.679 277.93 287.184 277.43C287.69 276.924 288.062 276.352 288.302 275.711C288.546 275.07 288.669 274.391 288.669 273.672V272.031H290.278V273.672ZM290.677 273.672C290.677 274.354 290.791 275.005 291.02 275.625C291.255 276.245 291.614 276.799 292.098 277.289C292.583 277.773 293.184 278.151 293.903 278.422L292.794 279.969C291.981 279.646 291.299 279.172 290.747 278.547C290.195 277.917 289.781 277.188 289.505 276.359C289.229 275.526 289.091 274.63 289.091 273.672V272.031H290.677V273.672ZM297.341 281.773H295.356V271.234H297.341V281.773ZM297.645 285.195H287.872V283.586H297.645V285.195ZM289.888 284.578H287.872V280.766H289.888V284.578Z" fill="black"/>
<defs>
<filter id="filter0_d_1120_3402" x="236" y="192" width="69" height="78.0371" filterUnits="userSpaceOnUse" color-interpolation-filters="sRGB">
<feFlood flood-opacity="0" result="BackgroundImageFix"/>
<feColorMatrix in="SourceAlpha" type="matrix" values="0 0 0 0 0 0 0 0 0 0 0 0 0 0 0 0 0 0 127 0" result="hardAlpha"/>
<feOffset dx="-1" dy="1"/>
<feGaussianBlur stdDeviation="2"/>
<feComposite in2="hardAlpha" operator="out"/>
<feColorMatrix type="matrix" values="0 0 0 0 0 0 0 0 0 0 0 0 0 0 0 0 0 0 0.25 0"/>
<feBlend mode="normal" in2="BackgroundImageFix" result="effect1_dropShadow_1120_3402"/>
<feBlend mode="normal" in="SourceGraphic" in2="effect1_dropShadow_1120_3402" result="shape"/>
</filter>
<clipPath id="clip0_1120_3402">
<rect width="445" height="453" fill="white" transform="translate(0 179)"/>
</clipPath>
</defs>
</svg>
