<svg width="740" height="639" viewBox="0 0 740 639" fill="none" xmlns="http://www.w3.org/2000/svg">
<g clip-path="url(#clip0_1117_3334)">
<path d="M325.498 72.3008L184.777 168.702L142.787 412.54L230.171 532.759L450.093 567.1L622.828 440.894L654.604 229.945L578.569 121.068L365.751 83.6534L366.352 77.9714L325.498 72.3008Z" fill="#FFFAF8" stroke="#605B53" stroke-width="0.5" stroke-miterlimit="10"/>
<path d="M356.138 126.739L550.197 163.031L605.805 243.555L574.029 429.553L444.656 409.138L401.532 437.492L301.665 421.614L272.159 378.517L291.452 277.579L336.846 246.957L356.138 126.739Z" fill="#B7E589" stroke="#605B53" stroke-width="0.5" stroke-miterlimit="10"/>
<path d="M365.751 145.895L539.985 176.641L587.648 244.689L554.738 413.675L325.498 372.846L365.751 145.895Z" stroke="#605B53" stroke-width="0.5" stroke-miterlimit="10"/>
<path d="M291.452 273.042L334.576 243.555L340.251 208.396L299.396 236.75L291.452 273.042Z" fill="#FFC8AF" stroke="#605B53" stroke-width="0.5" stroke-miterlimit="10"/>
<path d="M349.33 148.288L340.251 204.699L295.992 234.482L272.16 360.79L257.691 358.692L222.227 353.566L248.328 207.262L343.655 140.349L349.33 148.288Z" fill="#FFA47C" stroke="#605B53" stroke-width="0.5" stroke-miterlimit="10"/>
<path d="M482.107 417.077L445.792 411.406L406.685 437.491L444.396 443.65L482.107 417.077Z" fill="#FFC8AF" stroke="#605B53" stroke-width="0.5" stroke-miterlimit="10"/>
<path d="M548.405 427.522L504.804 421.614L483.241 436.357L476.432 426.15L444.396 447.619L299.396 425.016L255.137 362.639L235.844 367.175L230.17 360.37L221.091 359.236L215.417 394.394L266.485 465.845L445.791 497.6L548.405 427.522Z" fill="#FFA47C" stroke="#605B53" stroke-width="0.5" stroke-miterlimit="10"/>
<path d="M441.252 562.246L450.093 501.162L264.216 469.247L210.878 395.529L244.923 204.995L361.813 118.801L328.902 74.5693L189.316 168.702L187.046 170.971L146.191 411.407L231.305 529.356L441.252 562.246Z" fill="#FFF5F1" stroke="#605B53" stroke-width="0.5" stroke-miterlimit="10"/>
<path d="M738.821 129.541L728.937 126.739L714.751 135.812L706.807 178.909C706.807 178.909 704.537 189.117 712.481 190.251L738.821 195.422V129.541Z" fill="#C4DFB7" stroke="#605B53" stroke-width="0.5" stroke-miterlimit="10"/>
<path d="M629.638 406.87L638.716 408.004L665.953 237.884L656.874 236.75L629.638 406.87Z" fill="#FFF5F1" stroke="#605B53" stroke-width="0.5" stroke-miterlimit="10"/>
<path d="M456.572 514.703L567.22 439.76L584.243 462.442L476.432 542.966L456.572 514.703Z" fill="#FFF5F1" stroke="#605B53" stroke-width="0.5" stroke-miterlimit="10"/>
<path d="M361.812 90.4475L376.566 122.203L375.885 126.74L544.523 157.361L546.793 144.886L549.063 143.752L568.355 169.837L587.648 155.683L564.951 124.471L551.775 130.142L536.579 127.874L538.849 116.533L398.695 91.3661L365.75 85.582L361.812 90.4475Z" fill="#FFF5F1" stroke="#605B53" stroke-width="0.5" stroke-miterlimit="10"/>
<path d="M598.997 220.872L621.694 203.86L647.795 240.72L634.029 250.587L638.716 257.165L610.175 427.523L579.704 422.748L608.075 253.762L610.175 236.75L598.997 220.872Z" fill="#FFF5F1" stroke="#605B53" stroke-width="0.5" stroke-miterlimit="10"/>
<path d="M639.851 262.835L647.795 264.321L620.558 432.955L611.479 431.821L639.851 262.835Z" fill="#FFF5F1" stroke="#605B53" stroke-width="0.5" stroke-miterlimit="10"/>
<path d="M709.077 127.874C711.584 127.874 713.616 125.843 713.616 123.337C713.616 120.832 711.584 118.801 709.077 118.801C706.569 118.801 704.537 120.832 704.537 123.337C704.537 125.843 706.569 127.874 709.077 127.874Z" fill="#8CB59A"/>
<path d="M70.1789 0.283203C70.1789 0.283203 48.5941 32.606 46.3244 51.8862C46.3244 51.8862 46.3244 53.0204 44.0547 54.1545L46.0974 0.283203H70.1789Z" fill="#CBE6BD" stroke="#605B53" stroke-width="0.5" stroke-miterlimit="10"/>
<path d="M416.286 388.724C435.408 359.112 432.378 318.431 407.048 295.204C388.936 278.6 364.378 274.426 341.386 280.982L325.498 372.846L416.286 388.724Z" fill="#FAFAFA"/>
<path d="M330.187 368.315L389.291 378.422L399.42 319.263L340.316 309.156L330.187 368.315Z" fill="#B7E589"/>
<path d="M382.694 375.749C382.331 376.191 382.014 376.668 381.741 377.144L389.401 378.448L390.457 372.279C387.574 372.176 384.68 373.356 382.706 375.749H382.694Z" fill="#FAFAFA"/>
<path d="M396.482 324.532C397.084 325.031 397.731 325.439 398.412 325.768L399.649 318.533L393.01 317.398C393.089 320.064 394.258 322.695 396.482 324.532Z" fill="#FAFAFA"/>
<path d="M346.175 309.391L339.945 308.325L338.946 314.166C341.318 313.882 343.588 312.737 345.233 310.764C345.596 310.333 345.903 309.868 346.175 309.403V309.391Z" fill="#FAFAFA"/>
<path d="M363.186 351.944C366.947 351.944 369.995 348.897 369.995 345.139C369.995 341.381 366.947 338.334 363.186 338.334C359.425 338.334 356.377 341.381 356.377 345.139C356.377 348.897 359.425 351.944 363.186 351.944Z" fill="#FAFAFA"/>
<path d="M327.2 383.053C333.154 383.053 337.981 378.23 337.981 372.279C337.981 366.329 333.154 361.505 327.2 361.505C321.246 361.505 316.419 366.329 316.419 372.279C316.419 378.23 321.246 383.053 327.2 383.053Z" fill="#FAFAFA"/>
</g>
<g filter="url(#filter0_d_1117_3334)">
<path fill-rule="evenodd" clip-rule="evenodd" d="M314.312 147.873C314.701 147.2 315.338 146.71 316.077 146.466C328.23 142.45 337 130.999 337 117.5C337 100.655 323.345 87 306.5 87C289.655 87 276 100.655 276 117.5C276 131.454 285.37 143.219 298.162 146.846C298.956 147.071 299.646 147.577 300.059 148.292L304.13 155.343C305.434 157.602 308.695 157.602 310 155.343L314.312 147.873Z" fill="white"/>
</g>
<circle cx="305.981" cy="116.981" r="25.9815" fill="#FF4E00"/>
<path d="M310.333 109.25V118.917H313.958V128.584H316.375V104.417C313.04 104.417 310.333 107.124 310.333 109.25ZM304.292 112.875H301.875V104.417H299.458V112.875H297.042V104.417H294.625V112.875C294.625 115.546 296.788 117.709 299.458 117.709V128.584H301.875V117.709C304.545 117.709 306.708 115.546 306.708 112.875V104.417H304.292V112.875Z" fill="#FAFAFA"/>
<path d="M278.047 176.156C277.276 176.156 276.578 176.013 275.953 175.727C275.328 175.44 274.836 175.042 274.477 174.531C274.122 174.021 273.938 173.448 273.922 172.812H276.195C276.221 173.104 276.318 173.362 276.484 173.586C276.656 173.81 276.878 173.987 277.148 174.117C277.424 174.242 277.724 174.305 278.047 174.305C278.432 174.305 278.776 174.219 279.078 174.047C279.385 173.875 279.625 173.638 279.797 173.336C279.969 173.029 280.055 172.682 280.055 172.297C280.055 171.896 279.966 171.544 279.789 171.242C279.617 170.935 279.375 170.695 279.062 170.523C278.755 170.346 278.404 170.258 278.008 170.258C277.586 170.253 277.229 170.328 276.938 170.484C276.646 170.641 276.414 170.88 276.242 171.203H274.109L274.727 164.688H281.688V166.617H276.664L276.352 169.469H276.438C276.656 169.182 276.969 168.951 277.375 168.773C277.781 168.596 278.227 168.508 278.711 168.508C279.393 168.508 280.01 168.667 280.562 168.984C281.12 169.297 281.552 169.737 281.859 170.305C282.172 170.872 282.326 171.516 282.32 172.234C282.326 172.984 282.146 173.659 281.781 174.258C281.422 174.852 280.919 175.318 280.273 175.656C279.628 175.99 278.885 176.156 278.047 176.156ZM288.783 165.609C288.783 166.51 288.627 167.357 288.314 168.148C288.007 168.94 287.546 169.633 286.931 170.227C286.322 170.82 285.577 171.263 284.697 171.555L283.666 170.016C284.421 169.766 285.059 169.411 285.58 168.953C286.101 168.49 286.486 167.971 286.736 167.398C286.991 166.82 287.119 166.224 287.119 165.609V164.672H288.783V165.609ZM289.142 165.609C289.142 166.193 289.265 166.755 289.509 167.297C289.754 167.839 290.132 168.326 290.642 168.758C291.158 169.19 291.788 169.523 292.533 169.758L291.525 171.297C290.66 171.026 289.926 170.607 289.322 170.039C288.723 169.466 288.272 168.802 287.97 168.047C287.668 167.286 287.517 166.474 287.517 165.609V164.672H289.142V165.609ZM295.502 171.789H293.509V163.203H295.502V171.789ZM295.502 177.438H293.509V174H285.736V172.406H295.502V177.438ZM292.009 165.641H284.189V164.047H292.009V165.641ZM309.691 177.453H307.737V173.781H299.597V172.18H309.691V177.453ZM309.691 171.578H307.737V163.203H309.691V171.578ZM309.355 168.32H305.706V166.727H309.355V168.32ZM298.503 169.445C299.159 169.456 299.717 169.448 300.175 169.422C300.633 169.391 301.115 169.32 301.62 169.211L301.784 170.805C301.321 170.909 300.878 170.977 300.456 171.008C300.034 171.034 299.514 171.047 298.894 171.047H298.503H297.823V169.445H298.503ZM301.542 165.844H299.761V170.109H297.823V164.242H301.542V165.844ZM303.003 169.445C303.946 169.456 304.659 169.445 305.144 169.414C305.628 169.378 306.097 169.307 306.55 169.203L306.73 170.797C306.245 170.896 305.756 170.964 305.261 171C304.766 171.031 304.014 171.047 303.003 171.047H302.222V169.445H303.003ZM306.222 165.844H304.206V170.078H302.222V164.242H306.222V165.844ZM317.7 177.445H315.739V174.125H312.833V172.531H317.7V177.445ZM323.059 177.445H321.091V174.125H318.317V172.531H323.059V177.445ZM324.536 171.664H311.567V170.078H324.536V171.664ZM319.028 170.453H317.02V168.305H319.028V170.453ZM315.184 164.812H320.888V163.5H322.872V169.016H313.216V163.5H315.184V164.812ZM320.888 167.445V166.312H315.184V167.445H320.888ZM337.444 177.477H335.42V163.203H337.444V177.477ZM329.717 164.211C330.431 164.211 331.071 164.419 331.639 164.836C332.212 165.253 332.657 165.844 332.975 166.609C333.298 167.375 333.459 168.266 333.459 169.281C333.459 170.302 333.298 171.195 332.975 171.961C332.657 172.727 332.212 173.318 331.639 173.734C331.071 174.146 330.431 174.352 329.717 174.352C328.993 174.352 328.345 174.146 327.772 173.734C327.204 173.318 326.759 172.727 326.436 171.961C326.113 171.195 325.952 170.302 325.952 169.281C325.952 168.266 326.113 167.375 326.436 166.609C326.759 165.844 327.204 165.253 327.772 164.836C328.345 164.419 328.993 164.211 329.717 164.211ZM329.717 166.016C329.353 166.01 329.03 166.135 328.748 166.391C328.472 166.641 328.259 167.013 328.108 167.508C327.962 167.997 327.889 168.589 327.889 169.281C327.889 169.974 327.962 170.565 328.108 171.055C328.259 171.544 328.472 171.917 328.748 172.172C329.03 172.422 329.353 172.547 329.717 172.547C330.077 172.547 330.394 172.422 330.67 172.172C330.946 171.917 331.16 171.544 331.311 171.055C331.462 170.565 331.537 169.974 331.537 169.281C331.537 168.589 331.462 167.997 331.311 167.508C331.16 167.013 330.946 166.641 330.67 166.391C330.399 166.135 330.082 166.01 329.717 166.016Z" fill="black"/>
<defs>
<filter id="filter0_d_1117_3334" x="271" y="84" width="69" height="78.0371" filterUnits="userSpaceOnUse" color-interpolation-filters="sRGB">
<feFlood flood-opacity="0" result="BackgroundImageFix"/>
<feColorMatrix in="SourceAlpha" type="matrix" values="0 0 0 0 0 0 0 0 0 0 0 0 0 0 0 0 0 0 127 0" result="hardAlpha"/>
<feOffset dx="-1" dy="1"/>
<feGaussianBlur stdDeviation="2"/>
<feComposite in2="hardAlpha" operator="out"/>
<feColorMatrix type="matrix" values="0 0 0 0 0 0 0 0 0 0 0 0 0 0 0 0 0 0 0.25 0"/>
<feBlend mode="normal" in2="BackgroundImageFix" result="effect1_dropShadow_1117_3334"/>
<feBlend mode="normal" in="SourceGraphic" in2="effect1_dropShadow_1117_3334" result="shape"/>
</filter>
<clipPath id="clip0_1117_3334">
<rect width="739.105" height="638.517" fill="white"/>
</clipPath>
</defs>
</svg>
