<svg width="740" height="500" viewBox="0 0 740 500" fill="none" xmlns="http://www.w3.org/2000/svg">
<g clip-path="url(#clip0_1117_3300)">
<path d="M325.498 72.3008L184.777 168.702L142.787 412.54L230.171 532.759L450.093 567.1L622.828 440.894L654.604 229.945L578.569 121.068L365.751 83.6534L366.352 77.9714L325.498 72.3008Z" fill="#FFFAF8" stroke="#605B53" stroke-width="0.5" stroke-miterlimit="10"/>
<path d="M356.138 126.739L550.197 163.031L605.805 243.555L574.029 429.553L444.656 409.138L401.532 437.492L301.665 421.614L272.159 378.517L291.452 277.579L336.846 246.957L356.138 126.739Z" fill="#B7E589" stroke="#605B53" stroke-width="0.5" stroke-miterlimit="10"/>
<path d="M365.751 145.895L539.985 176.641L587.648 244.689L554.738 413.675L325.498 372.846L365.751 145.895Z" stroke="#605B53" stroke-width="0.5" stroke-miterlimit="10"/>
<path d="M291.452 273.042L334.576 243.555L340.251 208.396L299.396 236.75L291.452 273.042Z" fill="#FFC8AF" stroke="#605B53" stroke-width="0.5" stroke-miterlimit="10"/>
<path d="M349.33 148.288L340.251 204.699L295.992 234.482L272.16 360.79L257.691 358.692L222.227 353.566L248.328 207.262L343.655 140.349L349.33 148.288Z" fill="#FFA47C" stroke="#605B53" stroke-width="0.5" stroke-miterlimit="10"/>
<path d="M482.107 417.077L445.792 411.406L406.685 437.491L444.396 443.65L482.107 417.077Z" fill="#FFC8AF" stroke="#605B53" stroke-width="0.5" stroke-miterlimit="10"/>
<path d="M548.405 427.522L504.804 421.614L483.241 436.357L476.432 426.15L444.396 447.619L299.396 425.016L255.137 362.639L235.844 367.175L230.17 360.37L221.091 359.236L215.417 394.394L266.485 465.845L445.791 497.6L548.405 427.522Z" fill="#FFA47C" stroke="#605B53" stroke-width="0.5" stroke-miterlimit="10"/>
<path d="M441.252 562.246L450.093 501.162L264.216 469.247L210.878 395.529L244.923 204.995L361.813 118.801L328.902 74.5693L189.316 168.702L187.046 170.971L146.191 411.407L231.305 529.356L441.252 562.246Z" fill="#FFF5F1" stroke="#605B53" stroke-width="0.5" stroke-miterlimit="10"/>
<path d="M738.821 129.541L728.937 126.739L714.751 135.812L706.807 178.909C706.807 178.909 704.537 189.117 712.481 190.251L738.821 195.422V129.541Z" fill="#C4DFB7" stroke="#605B53" stroke-width="0.5" stroke-miterlimit="10"/>
<path d="M629.638 406.87L638.716 408.004L665.953 237.884L656.874 236.75L629.638 406.87Z" fill="#FFF5F1" stroke="#605B53" stroke-width="0.5" stroke-miterlimit="10"/>
<path d="M456.572 514.703L567.22 439.76L584.243 462.442L476.432 542.966L456.572 514.703Z" fill="#FFF5F1" stroke="#605B53" stroke-width="0.5" stroke-miterlimit="10"/>
<path d="M361.812 90.4475L376.566 122.203L375.885 126.74L544.523 157.361L546.793 144.886L549.063 143.752L568.355 169.837L587.648 155.683L564.951 124.471L551.775 130.142L536.579 127.874L538.849 116.533L398.695 91.3661L365.75 85.582L361.812 90.4475Z" fill="#FFF5F1" stroke="#605B53" stroke-width="0.5" stroke-miterlimit="10"/>
<path d="M598.997 220.872L621.694 203.86L647.795 240.72L634.029 250.587L638.716 257.165L610.175 427.523L579.704 422.748L608.075 253.762L610.175 236.75L598.997 220.872Z" fill="#FFF5F1" stroke="#605B53" stroke-width="0.5" stroke-miterlimit="10"/>
<path d="M639.851 262.835L647.795 264.321L620.558 432.955L611.479 431.821L639.851 262.835Z" fill="#FFF5F1" stroke="#605B53" stroke-width="0.5" stroke-miterlimit="10"/>
<path d="M709.077 127.874C711.584 127.874 713.616 125.843 713.616 123.337C713.616 120.832 711.584 118.801 709.077 118.801C706.569 118.801 704.537 120.832 704.537 123.337C704.537 125.843 706.569 127.874 709.077 127.874Z" fill="#8CB59A"/>
<path d="M70.1789 0.283203C70.1789 0.283203 48.5941 32.606 46.3244 51.8862C46.3244 51.8862 46.3244 53.0204 44.0547 54.1545L46.0974 0.283203H70.1789Z" fill="#CBE6BD" stroke="#605B53" stroke-width="0.5" stroke-miterlimit="10"/>
<path d="M416.286 388.724C435.408 359.112 432.378 318.431 407.048 295.204C388.936 278.6 364.378 274.426 341.386 280.982L325.498 372.846L416.286 388.724Z" fill="#FAFAFA"/>
<path d="M330.187 368.315L389.291 378.422L399.42 319.263L340.316 309.156L330.187 368.315Z" fill="#B7E589"/>
<path d="M382.694 375.749C382.331 376.191 382.014 376.668 381.741 377.144L389.401 378.448L390.457 372.279C387.574 372.176 384.68 373.356 382.706 375.749H382.694Z" fill="#FAFAFA"/>
<path d="M396.482 324.532C397.084 325.031 397.731 325.439 398.412 325.768L399.649 318.533L393.01 317.398C393.089 320.064 394.258 322.695 396.482 324.532Z" fill="#FAFAFA"/>
<path d="M346.175 309.391L339.945 308.325L338.946 314.166C341.318 313.882 343.588 312.737 345.233 310.764C345.596 310.333 345.903 309.868 346.175 309.403V309.391Z" fill="#FAFAFA"/>
<path d="M363.186 351.944C366.947 351.944 369.995 348.897 369.995 345.139C369.995 341.381 366.947 338.334 363.186 338.334C359.425 338.334 356.377 341.381 356.377 345.139C356.377 348.897 359.425 351.944 363.186 351.944Z" fill="#FAFAFA"/>
<path d="M327.2 383.053C333.154 383.053 337.981 378.23 337.981 372.279C337.981 366.329 333.154 361.505 327.2 361.505C321.246 361.505 316.419 366.329 316.419 372.279C316.419 378.23 321.246 383.053 327.2 383.053Z" fill="#FAFAFA"/>
</g>
<g filter="url(#filter0_d_1117_3300)">
<path fill-rule="evenodd" clip-rule="evenodd" d="M393.312 109.873C393.701 109.2 394.338 108.71 395.077 108.466C407.23 104.45 416 92.9993 416 79.5C416 62.6553 402.345 49 385.5 49C368.655 49 355 62.6553 355 79.5C355 93.4538 364.37 105.219 377.162 108.846C377.956 109.071 378.646 109.577 379.059 110.292L383.13 117.343C384.434 119.602 387.695 119.602 389 117.343L393.312 109.873Z" fill="white"/>
</g>
<circle cx="384.981" cy="78.9815" r="25.9815" fill="#FF4E00"/>
<path d="M389.333 71.2503V80.917H392.958V90.5837H395.375V66.417C392.04 66.417 389.333 69.1237 389.333 71.2503ZM383.292 74.8753H380.875V66.417H378.458V74.8753H376.042V66.417H373.625V74.8753C373.625 77.5457 375.788 79.7087 378.458 79.7087V90.5837H380.875V79.7087C383.545 79.7087 385.708 77.5457 385.708 74.8753V66.417H383.292V74.8753Z" fill="#FAFAFA"/>
<path d="M375.703 135.852H373.711V125.234H375.703V135.852ZM377.625 131.219H375.125V129.586H377.625V131.219ZM372.859 128.289H364.414V126.719H372.859V128.289ZM368.648 128.789C369.326 128.789 369.93 128.906 370.461 129.141C370.992 129.37 371.406 129.693 371.703 130.109C372 130.526 372.148 131.005 372.148 131.547C372.148 132.083 372 132.557 371.703 132.969C371.406 133.375 370.992 133.693 370.461 133.922C369.93 134.151 369.326 134.266 368.648 134.266C367.961 134.266 367.349 134.151 366.812 133.922C366.276 133.693 365.859 133.375 365.562 132.969C365.266 132.557 365.117 132.083 365.117 131.547C365.117 131.005 365.266 130.526 365.562 130.109C365.859 129.693 366.276 129.37 366.812 129.141C367.349 128.906 367.961 128.789 368.648 128.789ZM368.648 130.32C368.331 130.32 368.049 130.367 367.805 130.461C367.565 130.555 367.38 130.695 367.25 130.883C367.12 131.07 367.055 131.292 367.055 131.547C367.055 131.802 367.12 132.021 367.25 132.203C367.38 132.38 367.565 132.516 367.805 132.609C368.049 132.703 368.331 132.75 368.648 132.75C368.966 132.75 369.245 132.703 369.484 132.609C369.729 132.516 369.919 132.38 370.055 132.203C370.19 132.021 370.258 131.802 370.258 131.547C370.258 131.292 370.19 131.07 370.055 130.883C369.919 130.695 369.729 130.555 369.484 130.461C369.245 130.367 368.966 130.32 368.648 130.32ZM369.641 127.492H367.648V125.211H369.641V127.492ZM376.211 139.195H366.477V137.586H376.211V139.195ZM368.469 138.273H366.477V135.031H368.469V138.273ZM385.65 133.227H378.822V126.391H385.65V133.227ZM380.798 131.656H383.689V127.984H380.798V131.656ZM389.681 135.602H387.689V125.227H389.681V135.602ZM391.603 130.961H389.103V129.32H391.603V130.961ZM390.189 139.195H380.455V137.586H390.189V139.195ZM382.447 138.383H380.455V134.57H382.447V138.383ZM403.847 131.844H394.019V130.289H403.847V131.844ZM405.37 134.867H392.37V133.281H405.37V134.867ZM399.816 139.414H397.839V134.195H399.816V139.414ZM403.706 127.562H396.066V131.031H394.019V125.977H403.706V127.562Z" fill="black"/>
<defs>
<filter id="filter0_d_1117_3300" x="350" y="46" width="69" height="78.0371" filterUnits="userSpaceOnUse" color-interpolation-filters="sRGB">
<feFlood flood-opacity="0" result="BackgroundImageFix"/>
<feColorMatrix in="SourceAlpha" type="matrix" values="0 0 0 0 0 0 0 0 0 0 0 0 0 0 0 0 0 0 127 0" result="hardAlpha"/>
<feOffset dx="-1" dy="1"/>
<feGaussianBlur stdDeviation="2"/>
<feComposite in2="hardAlpha" operator="out"/>
<feColorMatrix type="matrix" values="0 0 0 0 0 0 0 0 0 0 0 0 0 0 0 0 0 0 0.25 0"/>
<feBlend mode="normal" in2="BackgroundImageFix" result="effect1_dropShadow_1117_3300"/>
<feBlend mode="normal" in="SourceGraphic" in2="effect1_dropShadow_1117_3300" result="shape"/>
</filter>
<clipPath id="clip0_1117_3300">
<rect width="739.105" height="638.517" fill="white"/>
</clipPath>
</defs>
</svg>
