<svg width="740" height="639" viewBox="0 0 740 639" fill="none" xmlns="http://www.w3.org/2000/svg">
<g clip-path="url(#clip0_1117_3198)">
<path d="M325.959 72.6875L185.237 169.089L143.248 412.927L230.631 533.145L450.554 567.487L623.289 441.281L655.065 230.332L579.03 121.455L366.212 84.0402L366.813 78.3582L325.959 72.6875Z" fill="#FFFAF8" stroke="#605B53" stroke-width="0.5" stroke-miterlimit="10"/>
<path d="M356.599 127.126L550.658 163.418L606.266 243.942L574.49 429.939L445.117 409.525L401.993 437.878L302.126 422L272.62 378.903L291.913 277.966L337.307 247.344L356.599 127.126Z" fill="#B7E589" stroke="#605B53" stroke-width="0.5" stroke-miterlimit="10"/>
<path d="M366.212 146.281L540.446 177.028L588.109 245.076L555.199 414.061L325.959 373.232L366.212 146.281Z" stroke="#605B53" stroke-width="0.5" stroke-miterlimit="10"/>
<path d="M291.913 273.429L335.037 243.941L340.712 208.783L299.857 237.137L291.913 273.429Z" fill="#FFC8AF" stroke="#605B53" stroke-width="0.5" stroke-miterlimit="10"/>
<path d="M349.791 148.674L340.712 205.086L296.453 234.868L272.621 361.177L258.152 359.079L222.688 353.952L248.789 207.649L344.116 140.735L349.791 148.674Z" fill="#FFA47C" stroke="#605B53" stroke-width="0.5" stroke-miterlimit="10"/>
<path d="M482.568 417.464L446.252 411.793L407.146 437.878L444.857 444.036L482.568 417.464Z" fill="#FFC8AF" stroke="#605B53" stroke-width="0.5" stroke-miterlimit="10"/>
<path d="M548.865 427.909L505.265 422L483.702 436.744L476.893 426.537L444.857 448.006L299.857 425.403L255.598 363.025L236.305 367.562L230.631 360.757L221.552 359.623L215.878 394.781L266.946 466.232L446.252 497.987L548.865 427.909Z" fill="#FFA47C" stroke="#605B53" stroke-width="0.5" stroke-miterlimit="10"/>
<path d="M441.713 562.633L450.554 501.549L264.677 469.634L211.339 395.916L245.384 205.381L362.274 119.187L329.363 74.9561L189.777 169.089L187.507 171.357L146.652 411.793L231.766 529.743L441.713 562.633Z" fill="#FFF5F1" stroke="#605B53" stroke-width="0.5" stroke-miterlimit="10"/>
<path d="M739.282 129.927L729.397 127.126L715.212 136.199L707.268 179.296C707.268 179.296 704.998 189.503 712.942 190.637L739.282 195.809V129.927Z" fill="#C4DFB7" stroke="#605B53" stroke-width="0.5" stroke-miterlimit="10"/>
<path d="M630.099 407.257L639.177 408.391L666.414 238.271L657.335 237.137L630.099 407.257Z" fill="#FFF5F1" stroke="#605B53" stroke-width="0.5" stroke-miterlimit="10"/>
<path d="M457.033 515.09L567.681 440.146L584.704 462.829L476.893 543.353L457.033 515.09Z" fill="#FFF5F1" stroke="#605B53" stroke-width="0.5" stroke-miterlimit="10"/>
<path d="M362.273 90.8342L377.026 122.59L376.346 127.126L544.984 157.748L547.254 145.273L549.524 144.138L568.816 170.223L588.108 156.069L565.411 124.858L552.236 130.529L537.04 128.261L539.31 116.919L399.156 91.7528L366.211 85.9688L362.273 90.8342Z" fill="#FFF5F1" stroke="#605B53" stroke-width="0.5" stroke-miterlimit="10"/>
<path d="M599.457 221.259L622.154 204.247L648.256 241.106L634.49 250.973L639.177 257.551L610.636 427.909L580.165 423.135L608.536 254.149L610.636 237.137L599.457 221.259Z" fill="#FFF5F1" stroke="#605B53" stroke-width="0.5" stroke-miterlimit="10"/>
<path d="M640.312 263.222L648.256 264.707L621.019 433.342L611.94 432.207L640.312 263.222Z" fill="#FFF5F1" stroke="#605B53" stroke-width="0.5" stroke-miterlimit="10"/>
<path d="M709.537 128.261C712.044 128.261 714.077 126.229 714.077 123.724C714.077 121.219 712.044 119.188 709.537 119.188C707.03 119.188 704.998 121.219 704.998 123.724C704.998 126.229 707.03 128.261 709.537 128.261Z" fill="#8CB59A"/>
<path d="M70.6399 0.669922C70.6399 0.669922 49.055 32.9927 46.7853 52.273C46.7853 52.273 46.7853 53.4071 44.5156 54.5412L46.5584 0.669922H70.6399Z" fill="#CBE6BD" stroke="#605B53" stroke-width="0.5" stroke-miterlimit="10"/>
<path d="M416.747 389.111C435.869 359.499 432.839 318.817 407.509 295.59C389.397 278.987 364.839 274.813 341.847 281.368L325.959 373.233L416.747 389.111Z" fill="#FAFAFA"/>
<path d="M330.648 368.702L389.752 378.809L399.881 319.65L340.777 309.543L330.648 368.702Z" fill="#B7E589"/>
<path d="M383.155 376.136C382.792 376.578 382.475 377.054 382.202 377.531L389.862 378.835L390.918 372.665C388.035 372.563 385.141 373.743 383.167 376.136H383.155Z" fill="#FAFAFA"/>
<path d="M396.943 324.919C397.545 325.418 398.192 325.826 398.873 326.155L400.11 318.919L393.471 317.785C393.55 320.45 394.719 323.082 396.943 324.919Z" fill="#FAFAFA"/>
<path d="M346.636 309.778L340.406 308.712L339.407 314.553C341.779 314.269 344.049 313.124 345.694 311.15C346.057 310.719 346.364 310.254 346.636 309.789V309.778Z" fill="#FAFAFA"/>
<path d="M363.647 352.33C367.408 352.33 370.456 349.284 370.456 345.525C370.456 341.767 367.408 338.721 363.647 338.721C359.886 338.721 356.838 341.767 356.838 345.525C356.838 349.284 359.886 352.33 363.647 352.33Z" fill="#FAFAFA"/>
<path d="M327.661 383.44C333.615 383.44 338.442 378.616 338.442 372.666C338.442 366.715 333.615 361.892 327.661 361.892C321.707 361.892 316.88 366.715 316.88 372.666C316.88 378.616 321.707 383.44 327.661 383.44Z" fill="#FAFAFA"/>
</g>
<g filter="url(#filter0_d_1117_3198)">
<path fill-rule="evenodd" clip-rule="evenodd" d="M303.312 235.873C303.701 235.2 304.338 234.71 305.077 234.466C317.23 230.45 326 218.999 326 205.5C326 188.655 312.345 175 295.5 175C278.655 175 265 188.655 265 205.5C265 219.454 274.37 231.219 287.162 234.846C287.956 235.071 288.646 235.577 289.059 236.292L293.13 243.343C294.434 245.602 297.695 245.602 299 243.343L303.312 235.873Z" fill="white"/>
</g>
<circle cx="294.981" cy="204.981" r="25.9815" fill="#FF4E00"/>
<path d="M299.333 197.25V206.917H302.958V216.584H305.375V192.417C302.04 192.417 299.333 195.124 299.333 197.25ZM293.292 200.875H290.875V192.417H288.458V200.875H286.042V192.417H283.625V200.875C283.625 203.546 285.788 205.709 288.458 205.709V216.584H290.875V205.709C293.545 205.709 295.708 203.546 295.708 200.875V192.417H293.292V200.875Z" fill="#FAFAFA"/>
<path d="M253.281 254.969H246.398V253.383H253.281V254.969ZM249.867 255.609C250.471 255.609 251.01 255.753 251.484 256.039C251.958 256.326 252.328 256.724 252.594 257.234C252.859 257.745 252.992 258.328 252.992 258.984C252.992 259.641 252.859 260.227 252.594 260.742C252.328 261.253 251.958 261.654 251.484 261.945C251.01 262.237 250.471 262.383 249.867 262.383C249.268 262.383 248.732 262.237 248.258 261.945C247.784 261.654 247.411 261.25 247.141 260.734C246.875 260.219 246.742 259.635 246.742 258.984C246.742 258.339 246.875 257.758 247.141 257.242C247.411 256.727 247.784 256.326 248.258 256.039C248.732 255.753 249.268 255.609 249.867 255.609ZM249.867 257.266C249.602 257.26 249.362 257.328 249.148 257.469C248.94 257.604 248.779 257.802 248.664 258.062C248.555 258.323 248.5 258.63 248.5 258.984C248.5 259.333 248.557 259.638 248.672 259.898C248.786 260.154 248.948 260.349 249.156 260.484C249.365 260.62 249.602 260.688 249.867 260.688C250.138 260.688 250.375 260.62 250.578 260.484C250.786 260.349 250.951 260.154 251.07 259.898C251.19 259.638 251.25 259.333 251.25 258.984C251.25 258.63 251.19 258.323 251.07 258.062C250.951 257.802 250.786 257.604 250.578 257.469C250.375 257.328 250.138 257.26 249.867 257.266ZM258.719 265.438H256.82V251.203H258.719V265.438ZM257.453 258.594H255.062V257.008H257.453V258.594ZM255.672 264.828H253.805V251.5H255.672V264.828ZM250.844 254.383H248.883V251.609H250.844V254.383ZM272.728 265.438H270.814V251.203H272.728V265.438ZM271.447 258.312H269.041V256.695H271.447V258.312ZM269.642 264.75H267.767V251.461H269.642V264.75ZM267.072 254.43H260.509V252.828H267.072V254.43ZM260.252 260.555C261.517 260.555 262.754 260.534 263.962 260.492C265.171 260.445 266.249 260.357 267.197 260.227L267.314 261.672C266.345 261.87 265.267 262.005 264.08 262.078C262.897 262.146 261.694 262.18 260.47 262.18L260.252 260.555ZM263.244 261.008H261.439V253.859H263.244V261.008ZM266.158 261.008H264.361V253.859H266.158V261.008ZM286.261 265.438H284.261V251.203H286.261V265.438ZM279.534 255.68C279.534 256.701 279.381 257.685 279.073 258.633C278.766 259.581 278.308 260.419 277.698 261.148C277.094 261.878 276.365 262.424 275.511 262.789L274.456 261.25C275.206 260.922 275.844 260.461 276.37 259.867C276.896 259.268 277.292 258.607 277.558 257.883C277.823 257.159 277.956 256.424 277.956 255.68V254.867H279.534V255.68ZM279.933 255.68C279.933 256.393 280.066 257.099 280.331 257.797C280.602 258.495 281.003 259.13 281.534 259.703C282.071 260.276 282.719 260.721 283.48 261.039L282.402 262.555C281.553 262.206 280.823 261.68 280.214 260.977C279.61 260.268 279.152 259.456 278.839 258.539C278.527 257.617 278.37 256.664 278.37 255.68V254.867H279.933V255.68ZM282.894 255.125H274.925V253.539H282.894V255.125ZM279.925 254.367H277.941V251.531H279.925V254.367ZM301.364 263.719H288.364V262.102H301.364V263.719ZM295.473 254.031C295.473 255.021 295.239 255.93 294.77 256.758C294.307 257.586 293.635 258.289 292.755 258.867C291.874 259.44 290.843 259.831 289.661 260.039L288.88 258.438C289.89 258.271 290.765 257.969 291.505 257.531C292.249 257.094 292.815 256.57 293.2 255.961C293.591 255.346 293.786 254.703 293.786 254.031V253.18H295.473V254.031ZM295.88 254.031C295.88 254.708 296.075 255.346 296.466 255.945C296.861 256.544 297.437 257.06 298.192 257.492C298.953 257.919 299.851 258.214 300.888 258.375L300.106 259.953C298.908 259.734 297.864 259.346 296.973 258.789C296.083 258.232 295.398 257.547 294.919 256.734C294.445 255.917 294.208 255.016 294.208 254.031V253.18H295.88V254.031ZM300.231 254.016H289.434V252.438H300.231V254.016ZM309.444 253.086C309.444 254.117 309.202 255.083 308.717 255.984C308.233 256.885 307.543 257.656 306.647 258.297C305.756 258.932 304.712 259.37 303.514 259.609L302.662 257.953C303.683 257.76 304.574 257.414 305.334 256.914C306.1 256.414 306.683 255.828 307.084 255.156C307.491 254.484 307.694 253.794 307.694 253.086V252.07H309.444V253.086ZM309.811 253.086C309.811 253.799 310.011 254.495 310.412 255.172C310.819 255.849 311.405 256.438 312.17 256.938C312.941 257.432 313.842 257.771 314.873 257.953L313.998 259.609C312.811 259.37 311.769 258.935 310.873 258.305C309.983 257.674 309.298 256.909 308.819 256.008C308.34 255.107 308.1 254.133 308.1 253.086V252.07H309.811V253.086ZM315.342 263.695H302.342V262.062H315.342V263.695ZM323.594 261.961H316.766V252.562H323.594V261.961ZM318.727 260.391H321.617V254.117H318.727V260.391ZM327.531 265.438H325.531V251.203H327.531V265.438ZM329.641 258.242H327.094V256.578H329.641V258.242ZM334.33 251.633C335.048 251.633 335.697 251.773 336.275 252.055C336.858 252.331 337.314 252.716 337.642 253.211C337.97 253.701 338.134 254.258 338.134 254.883C338.134 255.497 337.97 256.052 337.642 256.547C337.314 257.042 336.858 257.427 336.275 257.703C335.697 257.979 335.048 258.117 334.33 258.117C333.611 258.117 332.96 257.979 332.377 257.703C331.793 257.427 331.335 257.042 331.002 256.547C330.673 256.052 330.509 255.497 330.509 254.883C330.509 254.258 330.673 253.701 331.002 253.211C331.335 252.716 331.793 252.331 332.377 252.055C332.96 251.773 333.611 251.633 334.33 251.633ZM334.33 253.266C333.97 253.266 333.647 253.331 333.361 253.461C333.074 253.586 332.851 253.771 332.689 254.016C332.528 254.26 332.447 254.549 332.447 254.883C332.447 255.211 332.528 255.5 332.689 255.75C332.851 255.995 333.074 256.182 333.361 256.312C333.647 256.443 333.97 256.51 334.33 256.516C334.694 256.51 335.017 256.443 335.298 256.312C335.585 256.182 335.809 255.995 335.97 255.75C336.132 255.5 336.213 255.211 336.213 254.883C336.213 254.549 336.132 254.26 335.97 254.016C335.809 253.771 335.585 253.586 335.298 253.461C335.017 253.331 334.694 253.266 334.33 253.266ZM342.189 258.344H340.197V251.203H342.189V258.344ZM342.189 262.797H334.634V264.531H332.689V261.344H340.205V260.469H332.658V258.93H342.189V262.797ZM342.58 265.281H332.689V263.711H342.58V265.281Z" fill="black"/>
<defs>
<filter id="filter0_d_1117_3198" x="260" y="172" width="69" height="78.0371" filterUnits="userSpaceOnUse" color-interpolation-filters="sRGB">
<feFlood flood-opacity="0" result="BackgroundImageFix"/>
<feColorMatrix in="SourceAlpha" type="matrix" values="0 0 0 0 0 0 0 0 0 0 0 0 0 0 0 0 0 0 127 0" result="hardAlpha"/>
<feOffset dx="-1" dy="1"/>
<feGaussianBlur stdDeviation="2"/>
<feComposite in2="hardAlpha" operator="out"/>
<feColorMatrix type="matrix" values="0 0 0 0 0 0 0 0 0 0 0 0 0 0 0 0 0 0 0.25 0"/>
<feBlend mode="normal" in2="BackgroundImageFix" result="effect1_dropShadow_1117_3198"/>
<feBlend mode="normal" in="SourceGraphic" in2="effect1_dropShadow_1117_3198" result="shape"/>
</filter>
<clipPath id="clip0_1117_3198">
<rect width="739.105" height="638.517" fill="white" transform="translate(0.460938 0.386719)"/>
</clipPath>
</defs>
</svg>
