<svg width="390" height="413" viewBox="0 0 390 413" fill="none" xmlns="http://www.w3.org/2000/svg">
<mask id="mask0_698_8774" style="mask-type:alpha" maskUnits="userSpaceOnUse" x="0" y="0" width="391" height="413">
<rect width="391" height="413" fill="#D9D9D9"/>
</mask>
<g mask="url(#mask0_698_8774)">
<g clip-path="url(#clip0_698_8774)">
<path d="M141.279 28.5957L44.7496 94.7236L15.9463 261.988L75.8883 344.454L226.747 368.011L345.238 281.438L367.035 136.734L314.878 62.0486L168.892 36.3832L169.304 32.4856L141.279 28.5957Z" fill="#FFFAF8" stroke="#605B53" stroke-width="0.5" stroke-miterlimit="10"/>
<path d="M162.299 65.9385L295.417 90.8337L333.562 146.07L311.765 273.658L223.019 259.654L193.438 279.104L124.933 268.212L104.692 238.649L117.926 169.409L149.065 148.404L162.299 65.9385Z" fill="#B7E589" stroke="#605B53" stroke-width="0.5" stroke-miterlimit="10"/>
<path d="M168.892 79.0791L288.411 100.17L321.106 146.849L298.531 262.767L141.28 234.76L168.892 79.0791Z" stroke="#605B53" stroke-width="0.5" stroke-miterlimit="10"/>
<path d="M117.926 166.298L147.508 146.07L151.4 121.953L123.375 141.403L117.926 166.298Z" fill="#FFC8AF" stroke="#605B53" stroke-width="0.5" stroke-miterlimit="10"/>
<path d="M157.628 80.7202L151.4 119.417L121.04 139.846L104.692 226.489L94.7665 225.05L70.4395 221.534L88.3442 121.175L153.735 75.2744L157.628 80.7202Z" fill="#FFA47C" stroke="#605B53" stroke-width="0.5" stroke-miterlimit="10"/>
<path d="M248.709 265.101L223.798 261.211L196.972 279.104L222.84 283.329L248.709 265.101Z" fill="#FFC8AF" stroke="#605B53" stroke-width="0.5" stroke-miterlimit="10"/>
<path d="M294.186 272.266L264.278 268.212L249.487 278.326L244.816 271.324L222.84 286.051L123.375 270.546L93.0149 227.758L79.781 230.87L75.8886 226.202L69.6609 225.424L65.7686 249.541L100.8 298.553L223.797 320.337L294.186 272.266Z" fill="#FFA47C" stroke="#605B53" stroke-width="0.5" stroke-miterlimit="10"/>
<path d="M220.684 364.682L226.748 322.78L99.2428 300.888L62.6548 250.319L86.0089 119.619L166.191 60.4934L143.615 30.1523L47.864 94.7243L46.307 96.2802L18.2822 261.211L76.6673 342.12L220.684 364.682Z" fill="#FFF5F1" stroke="#605B53" stroke-width="0.5" stroke-miterlimit="10"/>
<path d="M349.909 258.099L356.137 258.877L374.82 142.18L368.592 141.402L349.909 258.099Z" fill="#FFF5F1" stroke="#605B53" stroke-width="0.5" stroke-miterlimit="10"/>
<path d="M231.192 332.069L307.093 280.66L318.77 296.22L244.816 351.456L231.192 332.069Z" fill="#FFF5F1" stroke="#605B53" stroke-width="0.5" stroke-miterlimit="10"/>
<path d="M166.19 41.0436L176.31 62.8269L175.843 65.9388L291.524 86.9441L293.081 78.3864L294.637 77.6084L307.871 95.5018L321.105 85.7927L305.536 64.3828L296.498 68.2727L286.074 66.7168L287.631 58.937L191.491 41.6737L168.892 37.7061L166.19 41.0436Z" fill="#FFF5F1" stroke="#605B53" stroke-width="0.5" stroke-miterlimit="10"/>
<path d="M328.89 130.51L344.46 118.841L362.364 144.125L352.921 150.893L356.137 155.406L336.558 272.265L315.656 268.99L335.118 153.072L336.558 141.402L328.89 130.51Z" fill="#FFF5F1" stroke="#605B53" stroke-width="0.5" stroke-miterlimit="10"/>
<path d="M356.915 159.296L362.364 160.315L343.681 275.992L337.453 275.214L356.915 159.296Z" fill="#FFF5F1" stroke="#605B53" stroke-width="0.5" stroke-miterlimit="10"/>
<path d="M203.558 245.651C216.675 225.338 214.596 197.432 197.221 181.499C184.797 170.11 167.951 167.247 152.179 171.743L141.28 234.759L203.558 245.651Z" fill="#FAFAFA"/>
<path d="M144.497 231.651L185.04 238.584L191.988 198.003L151.445 191.07L144.497 231.651Z" fill="#B7E589"/>
<path d="M180.514 236.751C180.265 237.054 180.047 237.381 179.86 237.708L185.115 238.603L185.839 234.37C183.862 234.3 181.877 235.109 180.522 236.751H180.514Z" fill="#FAFAFA"/>
<path d="M189.973 201.617C190.386 201.959 190.829 202.239 191.296 202.465L192.145 197.502L187.591 196.724C187.645 198.552 188.447 200.357 189.973 201.617Z" fill="#FAFAFA"/>
<path d="M155.464 191.231L151.19 190.5L150.505 194.507C152.132 194.312 153.689 193.526 154.818 192.173C155.067 191.877 155.277 191.558 155.464 191.239V191.231Z" fill="#FAFAFA"/>
<path d="M167.133 220.422C169.712 220.422 171.804 218.332 171.804 215.754C171.804 213.176 169.712 211.086 167.133 211.086C164.553 211.086 162.462 213.176 162.462 215.754C162.462 218.332 164.553 220.422 167.133 220.422Z" fill="#FAFAFA"/>
<path d="M142.447 241.761C146.532 241.761 149.843 238.452 149.843 234.37C149.843 230.288 146.532 226.979 142.447 226.979C138.363 226.979 135.052 230.288 135.052 234.37C135.052 238.452 138.363 241.761 142.447 241.761Z" fill="#FAFAFA"/>
<g filter="url(#filter0_d_698_8774)">
<path fill-rule="evenodd" clip-rule="evenodd" d="M177.034 56.9508C177.187 56.6855 177.438 56.4925 177.729 56.3962C182.497 54.8158 185.939 50.3108 185.939 45C185.939 38.3726 180.58 33 173.969 33C167.359 33 162 38.3726 162 45C162 50.4895 165.677 55.118 170.696 56.5457C171.008 56.6345 171.28 56.8339 171.442 57.1153L173.035 59.8823C173.548 60.7729 174.833 60.7729 175.346 59.8823L177.034 56.9508Z" fill="white"/>
</g>
<ellipse cx="173.765" cy="44.7964" rx="10.1961" ry="10.2222" fill="#FF4E00"/>
<path d="M175.473 41.7542V45.5575H176.896V49.3607H177.844V39.8525C176.535 39.8525 175.473 40.9175 175.473 41.7542ZM173.102 43.1804H172.154V39.8525H171.205V43.1804H170.257V39.8525H169.309V43.1804C169.309 44.2311 170.157 45.082 171.205 45.082V49.3607H172.154V45.082C173.202 45.082 174.051 44.2311 174.051 43.1804V39.8525H173.102V43.1804Z" fill="#FAFAFA"/>
<g filter="url(#filter1_d_698_8774)">
<path fill-rule="evenodd" clip-rule="evenodd" d="M212.034 56.9508C212.187 56.6855 212.438 56.4925 212.729 56.3962C217.497 54.8158 220.939 50.3108 220.939 45C220.939 38.3726 215.58 33 208.969 33C202.359 33 197 38.3726 197 45C197 50.4895 200.677 55.118 205.696 56.5457C206.008 56.6345 206.28 56.8339 206.442 57.1153L208.035 59.8823C208.548 60.7729 209.833 60.7729 210.346 59.8823L212.034 56.9508Z" fill="white"/>
</g>
<ellipse cx="208.765" cy="44.7964" rx="10.1961" ry="10.2222" fill="#FF4E00"/>
<path d="M210.473 41.7542V45.5575H211.896V49.3607H212.844V39.8525C211.535 39.8525 210.473 40.9175 210.473 41.7542ZM208.102 43.1804H207.154V39.8525H206.205V43.1804H205.257V39.8525H204.309V43.1804C204.309 44.2311 205.157 45.082 206.205 45.082V49.3607H207.154V45.082C208.202 45.082 209.051 44.2311 209.051 43.1804V39.8525H208.102V43.1804Z" fill="#FAFAFA"/>
<g filter="url(#filter2_d_698_8774)">
<path fill-rule="evenodd" clip-rule="evenodd" d="M230.034 64.9508C230.187 64.6855 230.438 64.4925 230.729 64.3962C235.497 62.8158 238.939 58.3108 238.939 53C238.939 46.3726 233.58 41 226.969 41C220.359 41 215 46.3726 215 53C215 58.4895 218.677 63.118 223.696 64.5457C224.008 64.6345 224.28 64.8339 224.442 65.1153L226.035 67.8823C226.548 68.7729 227.833 68.7729 228.346 67.8823L230.034 64.9508Z" fill="white"/>
</g>
<ellipse cx="226.765" cy="52.7964" rx="10.1961" ry="10.2222" fill="#FF4E00"/>
<path d="M228.473 49.7542V53.5575H229.896V57.3607H230.844V47.8525C229.535 47.8525 228.473 48.9175 228.473 49.7542ZM226.102 51.1804H225.154V47.8525H224.205V51.1804H223.257V47.8525H222.309V51.1804C222.309 52.2311 223.157 53.082 224.205 53.082V57.3607H225.154V53.082C226.202 53.082 227.051 52.2311 227.051 51.1804V47.8525H226.102V51.1804Z" fill="#FAFAFA"/>
<g filter="url(#filter3_d_698_8774)">
<path fill-rule="evenodd" clip-rule="evenodd" d="M126.034 154.951C126.187 154.685 126.438 154.492 126.729 154.396C131.497 152.816 134.939 148.311 134.939 143C134.939 136.373 129.58 131 122.969 131C116.359 131 111 136.373 111 143C111 148.489 114.677 153.118 119.696 154.546C120.008 154.635 120.28 154.834 120.442 155.115L122.035 157.882C122.548 158.773 123.833 158.773 124.346 157.882L126.034 154.951Z" fill="white"/>
</g>
<ellipse cx="122.765" cy="142.796" rx="10.1961" ry="10.2222" fill="#FF4E00"/>
<path d="M124.473 139.754V143.557H125.896V147.361H126.844V137.853C125.535 137.853 124.473 138.917 124.473 139.754ZM122.102 141.18H121.154V137.853H120.205V141.18H119.257V137.853H118.309V141.18C118.309 142.231 119.157 143.082 120.205 143.082V147.361H121.154V143.082C122.202 143.082 123.051 142.231 123.051 141.18V137.853H122.102V141.18Z" fill="#FAFAFA"/>
<g filter="url(#filter4_d_698_8774)">
<path fill-rule="evenodd" clip-rule="evenodd" d="M40.0344 276.951C40.1872 276.685 40.438 276.492 40.7286 276.396C45.4975 274.816 48.9386 270.311 48.9386 265C48.9386 258.373 43.5798 253 36.9693 253C30.3588 253 25 258.373 25 265C25 270.489 28.6766 275.118 33.6957 276.546C34.0081 276.635 34.2799 276.834 34.442 277.115L36.0354 279.882C36.5482 280.773 37.8334 280.773 38.3462 279.882L40.0344 276.951Z" fill="white"/>
</g>
<ellipse cx="36.7654" cy="264.796" rx="10.1961" ry="10.2222" fill="#FF4E00"/>
<path d="M38.4731 261.754V265.557H39.8957V269.361H40.8441V259.853C39.5353 259.853 38.4731 260.917 38.4731 261.754ZM36.1021 263.18H35.1538V259.853H34.2054V263.18H33.257V259.853H32.3086V263.18C32.3086 264.231 33.1574 265.082 34.2054 265.082V269.361H35.1538V265.082C36.2017 265.082 37.0505 264.231 37.0505 263.18V259.853H36.1021V263.18Z" fill="#FAFAFA"/>
<g filter="url(#filter5_d_698_8774)">
<path fill-rule="evenodd" clip-rule="evenodd" d="M69.0344 311.951C69.1872 311.685 69.438 311.492 69.7286 311.396C74.4975 309.816 77.9386 305.311 77.9386 300C77.9386 293.373 72.5798 288 65.9693 288C59.3588 288 54 293.373 54 300C54 305.489 57.6766 310.118 62.6957 311.546C63.0081 311.635 63.2799 311.834 63.442 312.115L65.0354 314.882C65.5482 315.773 66.8334 315.773 67.3462 314.882L69.0344 311.951Z" fill="white"/>
</g>
<ellipse cx="65.7654" cy="299.796" rx="10.1961" ry="10.2222" fill="#FF4E00"/>
<path d="M67.4731 296.754V300.557H68.8957V304.361H69.8441V294.853C68.5353 294.853 67.4731 295.917 67.4731 296.754ZM65.1021 298.18H64.1538V294.853H63.2054V298.18H62.257V294.853H61.3086V298.18C61.3086 299.231 62.1574 300.082 63.2054 300.082V304.361H64.1538V300.082C65.2017 300.082 66.0505 299.231 66.0505 298.18V294.853H65.1021V298.18Z" fill="#FAFAFA"/>
<g filter="url(#filter6_d_698_8774)">
<path fill-rule="evenodd" clip-rule="evenodd" d="M81.0344 329.951C81.1872 329.685 81.438 329.492 81.7286 329.396C86.4975 327.816 89.9386 323.311 89.9386 318C89.9386 311.373 84.5798 306 77.9693 306C71.3588 306 66 311.373 66 318C66 323.489 69.6766 328.118 74.6957 329.546C75.0081 329.635 75.2799 329.834 75.442 330.115L77.0354 332.882C77.5482 333.773 78.8334 333.773 79.3462 332.882L81.0344 329.951Z" fill="white"/>
</g>
<ellipse cx="77.7654" cy="317.796" rx="10.1961" ry="10.2222" fill="#FF4E00"/>
<path d="M79.4731 314.754V318.557H80.8957V322.361H81.8441V312.853C80.5353 312.853 79.4731 313.917 79.4731 314.754ZM77.1021 316.18H76.1538V312.853H75.2054V316.18H74.257V312.853H73.3086V316.18C73.3086 317.231 74.1574 318.082 75.2054 318.082V322.361H76.1538V318.082C77.2017 318.082 78.0505 317.231 78.0505 316.18V312.853H77.1021V316.18Z" fill="#FAFAFA"/>
</g>
</g>
<defs>
<filter id="filter0_d_698_8774" x="160.033" y="31.8197" width="27.086" height="30.6973" filterUnits="userSpaceOnUse" color-interpolation-filters="sRGB">
<feFlood flood-opacity="0" result="BackgroundImageFix"/>
<feColorMatrix in="SourceAlpha" type="matrix" values="0 0 0 0 0 0 0 0 0 0 0 0 0 0 0 0 0 0 127 0" result="hardAlpha"/>
<feOffset dx="-0.393443" dy="0.393443"/>
<feGaussianBlur stdDeviation="0.786885"/>
<feComposite in2="hardAlpha" operator="out"/>
<feColorMatrix type="matrix" values="0 0 0 0 0 0 0 0 0 0 0 0 0 0 0 0 0 0 0.25 0"/>
<feBlend mode="normal" in2="BackgroundImageFix" result="effect1_dropShadow_698_8774"/>
<feBlend mode="normal" in="SourceGraphic" in2="effect1_dropShadow_698_8774" result="shape"/>
</filter>
<filter id="filter1_d_698_8774" x="195.033" y="31.8197" width="27.086" height="30.6973" filterUnits="userSpaceOnUse" color-interpolation-filters="sRGB">
<feFlood flood-opacity="0" result="BackgroundImageFix"/>
<feColorMatrix in="SourceAlpha" type="matrix" values="0 0 0 0 0 0 0 0 0 0 0 0 0 0 0 0 0 0 127 0" result="hardAlpha"/>
<feOffset dx="-0.393443" dy="0.393443"/>
<feGaussianBlur stdDeviation="0.786885"/>
<feComposite in2="hardAlpha" operator="out"/>
<feColorMatrix type="matrix" values="0 0 0 0 0 0 0 0 0 0 0 0 0 0 0 0 0 0 0.25 0"/>
<feBlend mode="normal" in2="BackgroundImageFix" result="effect1_dropShadow_698_8774"/>
<feBlend mode="normal" in="SourceGraphic" in2="effect1_dropShadow_698_8774" result="shape"/>
</filter>
<filter id="filter2_d_698_8774" x="213.033" y="39.8197" width="27.086" height="30.6973" filterUnits="userSpaceOnUse" color-interpolation-filters="sRGB">
<feFlood flood-opacity="0" result="BackgroundImageFix"/>
<feColorMatrix in="SourceAlpha" type="matrix" values="0 0 0 0 0 0 0 0 0 0 0 0 0 0 0 0 0 0 127 0" result="hardAlpha"/>
<feOffset dx="-0.393443" dy="0.393443"/>
<feGaussianBlur stdDeviation="0.786885"/>
<feComposite in2="hardAlpha" operator="out"/>
<feColorMatrix type="matrix" values="0 0 0 0 0 0 0 0 0 0 0 0 0 0 0 0 0 0 0.25 0"/>
<feBlend mode="normal" in2="BackgroundImageFix" result="effect1_dropShadow_698_8774"/>
<feBlend mode="normal" in="SourceGraphic" in2="effect1_dropShadow_698_8774" result="shape"/>
</filter>
<filter id="filter3_d_698_8774" x="109.033" y="129.82" width="27.086" height="30.6973" filterUnits="userSpaceOnUse" color-interpolation-filters="sRGB">
<feFlood flood-opacity="0" result="BackgroundImageFix"/>
<feColorMatrix in="SourceAlpha" type="matrix" values="0 0 0 0 0 0 0 0 0 0 0 0 0 0 0 0 0 0 127 0" result="hardAlpha"/>
<feOffset dx="-0.393443" dy="0.393443"/>
<feGaussianBlur stdDeviation="0.786885"/>
<feComposite in2="hardAlpha" operator="out"/>
<feColorMatrix type="matrix" values="0 0 0 0 0 0 0 0 0 0 0 0 0 0 0 0 0 0 0.25 0"/>
<feBlend mode="normal" in2="BackgroundImageFix" result="effect1_dropShadow_698_8774"/>
<feBlend mode="normal" in="SourceGraphic" in2="effect1_dropShadow_698_8774" result="shape"/>
</filter>
<filter id="filter4_d_698_8774" x="23.0328" y="251.82" width="27.086" height="30.6973" filterUnits="userSpaceOnUse" color-interpolation-filters="sRGB">
<feFlood flood-opacity="0" result="BackgroundImageFix"/>
<feColorMatrix in="SourceAlpha" type="matrix" values="0 0 0 0 0 0 0 0 0 0 0 0 0 0 0 0 0 0 127 0" result="hardAlpha"/>
<feOffset dx="-0.393443" dy="0.393443"/>
<feGaussianBlur stdDeviation="0.786885"/>
<feComposite in2="hardAlpha" operator="out"/>
<feColorMatrix type="matrix" values="0 0 0 0 0 0 0 0 0 0 0 0 0 0 0 0 0 0 0.25 0"/>
<feBlend mode="normal" in2="BackgroundImageFix" result="effect1_dropShadow_698_8774"/>
<feBlend mode="normal" in="SourceGraphic" in2="effect1_dropShadow_698_8774" result="shape"/>
</filter>
<filter id="filter5_d_698_8774" x="52.0328" y="286.82" width="27.086" height="30.6973" filterUnits="userSpaceOnUse" color-interpolation-filters="sRGB">
<feFlood flood-opacity="0" result="BackgroundImageFix"/>
<feColorMatrix in="SourceAlpha" type="matrix" values="0 0 0 0 0 0 0 0 0 0 0 0 0 0 0 0 0 0 127 0" result="hardAlpha"/>
<feOffset dx="-0.393443" dy="0.393443"/>
<feGaussianBlur stdDeviation="0.786885"/>
<feComposite in2="hardAlpha" operator="out"/>
<feColorMatrix type="matrix" values="0 0 0 0 0 0 0 0 0 0 0 0 0 0 0 0 0 0 0.25 0"/>
<feBlend mode="normal" in2="BackgroundImageFix" result="effect1_dropShadow_698_8774"/>
<feBlend mode="normal" in="SourceGraphic" in2="effect1_dropShadow_698_8774" result="shape"/>
</filter>
<filter id="filter6_d_698_8774" x="64.0328" y="304.82" width="27.086" height="30.6973" filterUnits="userSpaceOnUse" color-interpolation-filters="sRGB">
<feFlood flood-opacity="0" result="BackgroundImageFix"/>
<feColorMatrix in="SourceAlpha" type="matrix" values="0 0 0 0 0 0 0 0 0 0 0 0 0 0 0 0 0 0 127 0" result="hardAlpha"/>
<feOffset dx="-0.393443" dy="0.393443"/>
<feGaussianBlur stdDeviation="0.786885"/>
<feComposite in2="hardAlpha" operator="out"/>
<feColorMatrix type="matrix" values="0 0 0 0 0 0 0 0 0 0 0 0 0 0 0 0 0 0 0.25 0"/>
<feBlend mode="normal" in2="BackgroundImageFix" result="effect1_dropShadow_698_8774"/>
<feBlend mode="normal" in="SourceGraphic" in2="effect1_dropShadow_698_8774" result="shape"/>
</filter>
<clipPath id="clip0_698_8774">
<rect width="507" height="438" fill="white" transform="translate(-82 -21)"/>
</clipPath>
</defs>
</svg>
