<svg width="735" height="639" viewBox="0 0 735 639" fill="none" xmlns="http://www.w3.org/2000/svg">
<g clip-path="url(#clip0_1117_3368)">
<path d="M325.498 72.3008L184.777 168.702L142.787 412.54L230.171 532.759L450.093 567.1L622.828 440.894L654.604 229.945L578.569 121.068L365.751 83.6534L366.352 77.9714L325.498 72.3008Z" fill="#FFFAF8" stroke="#605B53" stroke-width="0.5" stroke-miterlimit="10"/>
<path d="M356.138 126.739L550.197 163.031L605.805 243.555L574.029 429.553L444.656 409.138L401.532 437.492L301.665 421.614L272.159 378.517L291.452 277.579L336.846 246.957L356.138 126.739Z" fill="#B7E589" stroke="#605B53" stroke-width="0.5" stroke-miterlimit="10"/>
<path d="M365.751 145.895L539.985 176.641L587.648 244.689L554.738 413.675L325.498 372.846L365.751 145.895Z" stroke="#605B53" stroke-width="0.5" stroke-miterlimit="10"/>
<path d="M291.452 273.042L334.576 243.555L340.251 208.396L299.396 236.75L291.452 273.042Z" fill="#FFC8AF" stroke="#605B53" stroke-width="0.5" stroke-miterlimit="10"/>
<path d="M349.33 148.288L340.251 204.699L295.992 234.482L272.16 360.79L257.691 358.692L222.227 353.566L248.328 207.262L343.655 140.349L349.33 148.288Z" fill="#FFA47C" stroke="#605B53" stroke-width="0.5" stroke-miterlimit="10"/>
<path d="M482.107 417.077L445.792 411.406L406.685 437.491L444.396 443.65L482.107 417.077Z" fill="#FFC8AF" stroke="#605B53" stroke-width="0.5" stroke-miterlimit="10"/>
<path d="M548.405 427.522L504.804 421.614L483.241 436.357L476.432 426.15L444.396 447.619L299.396 425.016L255.137 362.639L235.844 367.175L230.17 360.37L221.091 359.236L215.417 394.394L266.485 465.845L445.791 497.6L548.405 427.522Z" fill="#FFA47C" stroke="#605B53" stroke-width="0.5" stroke-miterlimit="10"/>
<path d="M441.252 562.246L450.093 501.162L264.216 469.247L210.878 395.529L244.923 204.995L361.813 118.801L328.902 74.5693L189.316 168.702L187.046 170.971L146.191 411.407L231.305 529.356L441.252 562.246Z" fill="#FFF5F1" stroke="#605B53" stroke-width="0.5" stroke-miterlimit="10"/>
<path d="M738.821 129.541L728.937 126.739L714.751 135.812L706.807 178.909C706.807 178.909 704.537 189.117 712.481 190.251L738.821 195.422V129.541Z" fill="#C4DFB7" stroke="#605B53" stroke-width="0.5" stroke-miterlimit="10"/>
<path d="M629.638 406.87L638.716 408.004L665.953 237.884L656.874 236.75L629.638 406.87Z" fill="#FFF5F1" stroke="#605B53" stroke-width="0.5" stroke-miterlimit="10"/>
<path d="M456.572 514.703L567.22 439.76L584.243 462.442L476.432 542.966L456.572 514.703Z" fill="#FFF5F1" stroke="#605B53" stroke-width="0.5" stroke-miterlimit="10"/>
<path d="M361.812 90.4475L376.566 122.203L375.885 126.74L544.523 157.361L546.793 144.886L549.063 143.752L568.355 169.837L587.648 155.683L564.951 124.471L551.775 130.142L536.579 127.874L538.849 116.533L398.695 91.3661L365.75 85.582L361.812 90.4475Z" fill="#FFF5F1" stroke="#605B53" stroke-width="0.5" stroke-miterlimit="10"/>
<path d="M598.997 220.872L621.694 203.86L647.795 240.72L634.029 250.587L638.716 257.165L610.175 427.523L579.704 422.748L608.075 253.762L610.175 236.75L598.997 220.872Z" fill="#FFF5F1" stroke="#605B53" stroke-width="0.5" stroke-miterlimit="10"/>
<path d="M639.851 262.835L647.795 264.321L620.558 432.955L611.479 431.821L639.851 262.835Z" fill="#FFF5F1" stroke="#605B53" stroke-width="0.5" stroke-miterlimit="10"/>
<path d="M709.077 127.874C711.584 127.874 713.616 125.843 713.616 123.337C713.616 120.832 711.584 118.801 709.077 118.801C706.569 118.801 704.537 120.832 704.537 123.337C704.537 125.843 706.569 127.874 709.077 127.874Z" fill="#8CB59A"/>
<path d="M70.1789 0.283203C70.1789 0.283203 48.5941 32.606 46.3244 51.8862C46.3244 51.8862 46.3244 53.0204 44.0547 54.1545L46.0974 0.283203H70.1789Z" fill="#CBE6BD" stroke="#605B53" stroke-width="0.5" stroke-miterlimit="10"/>
<path d="M416.286 388.724C435.408 359.112 432.378 318.431 407.048 295.204C388.936 278.6 364.378 274.426 341.386 280.982L325.498 372.846L416.286 388.724Z" fill="#FAFAFA"/>
<path d="M330.187 368.315L389.291 378.422L399.42 319.263L340.316 309.156L330.187 368.315Z" fill="#B7E589"/>
<path d="M382.694 375.749C382.331 376.191 382.014 376.668 381.741 377.144L389.401 378.448L390.457 372.279C387.574 372.176 384.68 373.356 382.706 375.749H382.694Z" fill="#FAFAFA"/>
<path d="M396.482 324.532C397.084 325.031 397.731 325.439 398.412 325.768L399.649 318.533L393.01 317.398C393.089 320.064 394.258 322.695 396.482 324.532Z" fill="#FAFAFA"/>
<path d="M346.175 309.391L339.945 308.325L338.946 314.166C341.318 313.882 343.588 312.737 345.233 310.764C345.596 310.333 345.903 309.868 346.175 309.403V309.391Z" fill="#FAFAFA"/>
<path d="M363.186 351.944C366.947 351.944 369.995 348.897 369.995 345.139C369.995 341.381 366.947 338.334 363.186 338.334C359.425 338.334 356.377 341.381 356.377 345.139C356.377 348.897 359.425 351.944 363.186 351.944Z" fill="#FAFAFA"/>
<path d="M327.2 383.053C333.154 383.053 337.981 378.23 337.981 372.279C337.981 366.329 333.154 361.505 327.2 361.505C321.246 361.505 316.419 366.329 316.419 372.279C316.419 378.23 321.246 383.053 327.2 383.053Z" fill="#FAFAFA"/>
</g>
<g filter="url(#filter0_d_1117_3368)">
<path fill-rule="evenodd" clip-rule="evenodd" d="M167.312 405.873C167.701 405.2 168.338 404.71 169.077 404.466C181.23 400.45 190 388.999 190 375.5C190 358.655 176.345 345 159.5 345C142.655 345 129 358.655 129 375.5C129 389.454 138.37 401.219 151.162 404.846C151.956 405.071 152.646 405.577 153.059 406.292L157.13 413.343C158.434 415.602 161.695 415.602 163 413.343L167.312 405.873Z" fill="white"/>
</g>
<circle cx="158.981" cy="374.981" r="25.9815" fill="#FF4E00"/>
<path d="M163.333 367.25V376.917H166.958V386.584H169.375V362.417C166.04 362.417 163.333 365.124 163.333 367.25ZM157.292 370.875H154.875V362.417H152.458V370.875H150.042V362.417H147.625V370.875C147.625 373.546 149.788 375.709 152.458 375.709V386.584H154.875V375.709C157.545 375.709 159.708 373.546 159.708 370.875V362.417H157.292V370.875Z" fill="#FAFAFA"/>
<path d="M138.531 423.086C138.531 424.117 138.289 425.083 137.805 425.984C137.32 426.885 136.63 427.656 135.734 428.297C134.844 428.932 133.799 429.37 132.602 429.609L131.75 427.953C132.771 427.76 133.661 427.414 134.422 426.914C135.188 426.414 135.771 425.828 136.172 425.156C136.578 424.484 136.781 423.794 136.781 423.086V422.07H138.531V423.086ZM138.898 423.086C138.898 423.799 139.099 424.495 139.5 425.172C139.906 425.849 140.492 426.438 141.258 426.938C142.029 427.432 142.93 427.771 143.961 427.953L143.086 429.609C141.898 429.37 140.857 428.935 139.961 428.305C139.07 427.674 138.385 426.909 137.906 426.008C137.427 425.107 137.188 424.133 137.188 423.086V422.07H138.898V423.086ZM144.43 433.695H131.43V432.062H144.43V433.695ZM153.798 428H151.252V426.406H153.798V428ZM146.783 430.711C147.887 430.701 148.793 430.672 149.502 430.625C150.215 430.578 150.947 430.495 151.697 430.375L151.861 431.977C151.121 432.107 150.392 432.193 149.673 432.234C148.96 432.276 147.996 432.299 146.783 432.305H145.83V430.711H146.783ZM151.15 424.359H147.728V431.289H145.83V422.797H151.15V424.359ZM150.603 428.141H147.181V426.617H150.603V428.141ZM157.72 435.438H155.814V421.203H157.72V435.438ZM154.712 434.797H152.861V421.461H154.712V434.797ZM171.284 435.477H169.261V421.203H171.284V435.477ZM163.558 422.211C164.271 422.211 164.912 422.419 165.48 422.836C166.053 423.253 166.498 423.844 166.816 424.609C167.139 425.375 167.3 426.266 167.3 427.281C167.3 428.302 167.139 429.195 166.816 429.961C166.498 430.727 166.053 431.318 165.48 431.734C164.912 432.146 164.271 432.352 163.558 432.352C162.834 432.352 162.185 432.146 161.612 431.734C161.045 431.318 160.599 430.727 160.277 429.961C159.954 429.195 159.792 428.302 159.792 427.281C159.792 426.266 159.954 425.375 160.277 424.609C160.599 423.844 161.045 423.253 161.612 422.836C162.185 422.419 162.834 422.211 163.558 422.211ZM163.558 424.016C163.193 424.01 162.87 424.135 162.589 424.391C162.313 424.641 162.099 425.013 161.948 425.508C161.803 425.997 161.73 426.589 161.73 427.281C161.73 427.974 161.803 428.565 161.948 429.055C162.099 429.544 162.313 429.917 162.589 430.172C162.87 430.422 163.193 430.547 163.558 430.547C163.917 430.547 164.235 430.422 164.511 430.172C164.787 429.917 165.001 429.544 165.152 429.055C165.303 428.565 165.378 427.974 165.378 427.281C165.378 426.589 165.303 425.997 165.152 425.508C165.001 425.013 164.787 424.641 164.511 424.391C164.24 424.135 163.922 424.01 163.558 424.016ZM183.817 424.68H180.919V423.078H183.817V424.68ZM183.817 427.438H180.919V425.836H183.817V427.438ZM178.278 423.672C178.278 424.672 178.135 425.599 177.848 426.453C177.562 427.307 177.124 428.055 176.536 428.695C175.953 429.331 175.231 429.815 174.372 430.148L173.286 428.586C174.046 428.315 174.679 427.93 175.184 427.43C175.69 426.924 176.062 426.352 176.302 425.711C176.546 425.07 176.669 424.391 176.669 423.672V422.031H178.278V423.672ZM178.677 423.672C178.677 424.354 178.791 425.005 179.02 425.625C179.255 426.245 179.614 426.799 180.098 427.289C180.583 427.773 181.184 428.151 181.903 428.422L180.794 429.969C179.981 429.646 179.299 429.172 178.747 428.547C178.195 427.917 177.781 427.188 177.505 426.359C177.229 425.526 177.091 424.63 177.091 423.672V422.031H178.677V423.672ZM185.341 431.773H183.356V421.234H185.341V431.773ZM185.645 435.195H175.872V433.586H185.645V435.195ZM177.888 434.578H175.872V430.766H177.888V434.578Z" fill="black"/>
<defs>
<filter id="filter0_d_1117_3368" x="124" y="342" width="69" height="78.0371" filterUnits="userSpaceOnUse" color-interpolation-filters="sRGB">
<feFlood flood-opacity="0" result="BackgroundImageFix"/>
<feColorMatrix in="SourceAlpha" type="matrix" values="0 0 0 0 0 0 0 0 0 0 0 0 0 0 0 0 0 0 127 0" result="hardAlpha"/>
<feOffset dx="-1" dy="1"/>
<feGaussianBlur stdDeviation="2"/>
<feComposite in2="hardAlpha" operator="out"/>
<feColorMatrix type="matrix" values="0 0 0 0 0 0 0 0 0 0 0 0 0 0 0 0 0 0 0.25 0"/>
<feBlend mode="normal" in2="BackgroundImageFix" result="effect1_dropShadow_1117_3368"/>
<feBlend mode="normal" in="SourceGraphic" in2="effect1_dropShadow_1117_3368" result="shape"/>
</filter>
<clipPath id="clip0_1117_3368">
<rect width="739.105" height="638.517" fill="white"/>
</clipPath>
</defs>
</svg>
