<svg width="739" height="680" viewBox="0 0 739 680" fill="none" xmlns="http://www.w3.org/2000/svg">
<g clip-path="url(#clip0_1117_1683)">
<path d="M361.985 557.059C483.522 557.059 582.054 456.766 582.054 333.051C582.054 321.679 581.191 310.506 579.588 299.579C569.059 228.087 525.366 167.656 464.943 135.025C432.641 118.932 396.432 109.674 358.151 109.081C291.242 110.242 231.62 141.811 192.02 190.77C160.73 229.458 141.928 279.011 141.928 333.039C141.928 456.754 240.46 557.046 361.997 557.046L361.985 557.059ZM272.601 191.24C297.037 176.544 330.386 162.712 378.629 167.755C437.486 173.911 479.799 210.127 501.917 245.626C533.084 295.636 530.273 348.217 530.273 348.217L524.108 349.453L458.149 411.391L432.284 419.29C432.284 419.29 367.052 489.126 343.257 490.362C343.257 490.362 293.56 500.25 277.533 448.336C261.505 396.423 254.108 366.758 254.108 366.758L241.779 350.689L217.122 266.639L212.19 259.222C212.19 259.222 223.286 220.905 272.601 191.24Z" fill="#FAFAFA"/>
<path d="M579.588 299.579C581.191 310.506 582.054 321.679 582.054 333.051C582.054 456.766 483.522 557.059 361.985 557.059L361.997 557.046C240.46 557.046 141.928 456.754 141.928 333.039C141.928 279.011 160.73 229.458 192.02 190.77M579.588 299.579L574.73 300.865M579.588 299.579C569.059 228.087 525.366 167.656 464.943 135.025C432.641 118.932 396.432 109.674 358.151 109.081C291.242 110.242 231.62 141.811 192.02 190.77M192.02 190.77L198.641 197.408M272.601 191.24C297.037 176.544 330.386 162.712 378.629 167.755C437.486 173.911 479.799 210.127 501.917 245.626C533.084 295.636 530.273 348.217 530.273 348.217L524.108 349.453L458.149 411.391L432.284 419.29C432.284 419.29 367.052 489.126 343.257 490.362C343.257 490.362 293.56 500.25 277.533 448.336C261.505 396.423 254.108 366.758 254.108 366.758L241.779 350.689L217.122 266.639L212.19 259.222C212.19 259.222 223.286 220.905 272.601 191.24Z" stroke="#605B53" stroke-width="0.5" stroke-miterlimit="10"/>
<path d="M354.279 618.292C493.015 618.292 605.479 504.292 605.479 363.668C605.479 339.936 602.273 316.958 596.281 295.166L579.588 299.579C581.191 310.493 582.054 321.667 582.054 333.051C582.054 456.766 483.522 557.059 361.985 557.059C240.448 557.059 141.916 456.766 141.916 333.051C141.916 279.024 160.717 229.471 192.008 190.783L180.789 179.535C132.916 225.899 103.08 291.248 103.08 363.668C103.08 504.292 215.544 618.292 354.279 618.292Z" fill="#FFFAF8" stroke="#605B53" stroke-width="0.5" stroke-miterlimit="10"/>
<path d="M241.78 350.689L254.108 366.758C254.108 366.758 261.506 396.423 277.533 448.336C293.561 500.25 343.258 490.362 343.258 490.362C367.065 489.126 432.284 419.289 432.284 419.289L458.15 411.391L524.109 349.453L530.273 348.217C530.273 348.217 533.084 295.636 501.917 245.626C479.799 210.127 437.487 173.911 378.629 167.755C330.387 162.712 297.037 176.543 272.602 191.24C223.286 220.905 212.191 259.222 212.191 259.222L217.122 266.638L241.78 350.689Z" fill="#B7E689" stroke="#605B53" stroke-width="0.5" stroke-miterlimit="10"/>
<path d="M414.346 408.561C410.364 370.367 381.255 339.688 343.985 337.241C317.343 335.498 292.969 348.613 277.977 369.873L328.698 456.371L414.346 408.561Z" fill="#FAFAFA"/>
<path d="M329.232 451.815L385.784 419.081L353.105 362.333L296.553 395.067L329.232 451.815Z" fill="#B7E589"/>
<path d="M351.505 508.902L351.505 504.984C351.505 504.984 323.149 503.958 313.286 500.25C303.423 496.542 281.231 485.418 281.231 485.418L278.765 489.126C278.765 489.126 210.957 398.895 234.382 350.689L210.957 271.583L199.861 265.402C199.861 265.402 267.669 114.606 429.177 175.172C429.177 175.172 543.834 215.961 535.204 361.814L521.642 360.578L461.231 418.671C461.231 418.671 440.272 468.113 395.889 486.654L351.505 508.902Z" stroke="#605B53" stroke-width="0.5" stroke-miterlimit="10"/>
<path d="M354.279 534.773L351.505 504.972C351.505 504.972 323.149 503.946 313.286 500.238C303.423 496.53 281.231 485.405 281.231 485.405L262.861 508.89C262.861 508.89 293.56 527.431 310.82 529.903C310.82 529.903 334.861 535.922 354.279 534.76L354.279 534.773Z" fill="#FFC8AF" stroke="#605B53" stroke-width="0.5" stroke-miterlimit="10"/>
<path d="M355.561 510.176L355.561 524.872L400.82 503.958L394.656 490.362L355.561 510.176Z" fill="#FFA47C" stroke="#605B53" stroke-width="0.5" stroke-miterlimit="10"/>
<path d="M272.811 488.347L265.105 500.844L237.575 459.201L249.941 450.883L272.811 488.347Z" fill="#FFA47C" stroke="#605B53" stroke-width="0.5" stroke-miterlimit="10"/>
<path d="M367.767 497.494L365.684 492.216L437.19 426.706L458.149 419.29C458.149 419.29 448.903 447.101 420.547 468.113C392.19 489.126 367.767 497.494 367.767 497.494Z" fill="#FFDCCD" stroke="#605B53" stroke-width="0.5" stroke-miterlimit="10"/>
<path d="M275.067 466.877L271.369 469.349C271.369 469.349 240.756 424.839 237.576 402.603C234.395 380.367 237.576 357.71 237.576 357.71L246.711 370.466L275.067 466.877Z" fill="#FFDCCD" stroke="#605B53" stroke-width="0.5" stroke-miterlimit="10"/>
<path d="M328.697 443.392C322.91 443.392 318.218 448.096 318.218 453.899C318.218 459.701 322.91 464.405 328.697 464.405C334.485 464.405 339.177 459.701 339.177 453.899C339.177 448.096 334.485 443.392 328.697 443.392Z" fill="#FAFAFA"/>
<path d="M378.629 421.762C378.629 422.392 378.69 422.998 378.801 423.603L386.112 419.376L382.71 413.468C380.231 415.384 378.641 418.387 378.641 421.774L378.629 421.762Z" fill="#FAFAFA"/>
<path d="M354.588 369.23C355.439 369.23 356.265 369.119 357.054 368.921L353.059 361.987L346.722 365.658C348.645 367.846 351.444 369.23 354.576 369.23L354.588 369.23Z" fill="#FAFAFA"/>
<path d="M302.03 391.54L296.088 394.977L299.305 400.563C301.093 398.685 302.19 396.138 302.19 393.333C302.19 392.715 302.129 392.121 302.03 391.54Z" fill="#FAFAFA"/>
<path d="M574.731 354.163L543.835 351.925C543.835 351.925 562.328 169.164 365.684 149.919C365.684 149.919 246.008 146.545 197.667 248.617L170.273 235.738C170.273 235.738 214.656 118.956 365.067 113.691C515.479 108.425 580.895 270.112 574.731 354.163Z" fill="#FFF5F1" stroke="#605B53" stroke-width="0.5" stroke-miterlimit="10"/>
<path d="M738.013 658.167L680.684 197.42L684.383 196.184L738.013 348.217L738.013 658.167Z" fill="#E0EECE" stroke="#605B53" stroke-width="0.5" stroke-miterlimit="10"/>
<path d="M738.013 276.984L680.684 113.567L661.919 0.30892L738.013 0.308927L738.013 276.984Z" fill="#E0EECE" stroke="#605B53" stroke-width="0.5" stroke-miterlimit="10"/>
<path d="M339.177 403.839C335.092 403.839 331.78 407.159 331.78 411.255C331.78 415.351 335.092 418.671 339.177 418.671C343.262 418.671 346.574 415.351 346.574 411.255C346.574 407.159 343.262 403.839 339.177 403.839Z" fill="#FAFAFA"/>
<path d="M355.562 528.407L356.548 534.921L376.176 549.692C376.176 549.692 445.217 547.22 505.628 494.07C566.039 440.92 574.743 366.449 574.743 366.449L522.888 363.05L463.71 419.907C463.71 419.907 448.916 454.517 426.724 470.585C404.532 486.654 397.135 489.126 397.135 489.126L405.062 507.617L355.574 528.419L355.562 528.407Z" fill="#FFA47C" stroke="#605B53" stroke-width="0.5" stroke-miterlimit="10"/>
<path d="M262.627 503.18L258.312 508.149L233.852 510.052C233.852 510.052 176.905 470.832 154.368 393.481C131.831 316.13 164.342 248.605 164.342 248.605L207.259 274.042L230.683 349.441C230.683 349.441 218.355 375.398 231.916 411.243C241.619 436.903 248.585 447.657 248.585 447.657L232.003 458.991L262.64 503.155L262.627 503.18Z" fill="#FFA47C" stroke="#605B53" stroke-width="0.5" stroke-miterlimit="10"/>
</g>
<g filter="url(#filter0_d_1117_1683)">
<path fill-rule="evenodd" clip-rule="evenodd" d="M187.312 396.873C187.701 396.2 188.338 395.71 189.077 395.466C201.23 391.45 210 379.999 210 366.5C210 349.655 196.345 336 179.5 336C162.655 336 149 349.655 149 366.5C149 380.454 158.37 392.219 171.162 395.846C171.956 396.071 172.646 396.577 173.059 397.292L177.13 404.343C178.434 406.602 181.695 406.602 183 404.343L187.312 396.873Z" fill="white"/>
</g>
<circle cx="178.981" cy="365.981" r="25.9815" fill="#FF4E00"/>
<path d="M183.333 358.25V367.917H186.958V377.583H189.375V353.417C186.04 353.417 183.333 356.123 183.333 358.25ZM177.292 361.875H174.875V353.417H172.458V361.875H170.042V353.417H167.625V361.875C167.625 364.545 169.788 366.708 172.458 366.708V377.583H174.875V366.708C177.545 366.708 179.708 364.545 179.708 361.875V353.417H177.292V361.875Z" fill="#FAFAFA"/>
<path d="M142.326 412.21V426.475H140.309V412.21H142.326ZM134.602 413.215C135.317 413.215 135.958 413.424 136.525 413.84C137.092 414.256 137.538 414.847 137.862 415.613C138.186 416.376 138.348 417.263 138.348 418.276C138.348 419.297 138.186 420.192 137.862 420.961C137.538 421.731 137.092 422.324 136.525 422.74C135.961 423.153 135.32 423.359 134.602 423.359C133.877 423.359 133.228 423.153 132.657 422.74C132.087 422.324 131.639 421.733 131.315 420.967C130.994 420.197 130.836 419.3 130.84 418.276C130.836 417.263 130.994 416.374 131.315 415.608C131.639 414.842 132.087 414.252 132.657 413.84C133.232 413.424 133.88 413.215 134.602 413.215ZM134.602 415.017C134.234 415.017 133.912 415.144 133.635 415.398C133.359 415.648 133.144 416.018 132.989 416.508C132.838 416.998 132.764 417.587 132.768 418.276C132.764 418.972 132.838 419.565 132.989 420.055C133.144 420.545 133.359 420.917 133.635 421.171C133.912 421.425 134.234 421.552 134.602 421.552C134.967 421.552 135.284 421.425 135.552 421.171C135.825 420.917 136.037 420.545 136.188 420.055C136.343 419.565 136.42 418.972 136.42 418.276C136.42 417.587 136.343 416.998 136.188 416.508C136.037 416.018 135.825 415.648 135.552 415.398C135.28 415.144 134.963 415.017 134.602 415.017ZM155.619 412.21V426.409H153.625V412.21H155.619ZM157.63 417.663V419.309H155.105V417.663H157.63ZM151.823 413.669C151.82 415.153 151.606 416.525 151.183 417.785C150.759 419.041 150.07 420.193 149.116 421.243C148.166 422.289 146.917 423.192 145.37 423.95L144.249 422.425C145.52 421.785 146.567 421.059 147.392 420.249C148.221 419.438 148.84 418.519 149.249 417.492C149.658 416.464 149.862 415.309 149.862 414.028V413.669H151.823ZM150.873 413.669V415.298H145.05V413.669H150.873ZM160.923 413.569V421.851H158.923V413.569H160.923ZM159.918 421.331C160.883 421.335 161.737 421.309 162.481 421.254C163.225 421.195 163.988 421.083 164.768 420.917L165.039 422.586C164.229 422.766 163.431 422.888 162.647 422.95C161.862 423.009 160.953 423.037 159.918 423.033H158.923V421.331H159.918ZM170.702 412.21V426.442H168.824V412.21H170.702ZM166.221 416.724V418.32H162.934V416.724H166.221ZM167.658 412.481V425.807H165.774V412.481H167.658ZM188.308 421.177V426.453H186.346V422.779H178.208V421.177H188.308ZM188.308 412.21V420.586H186.346V412.21H188.308ZM187.971 415.729V417.326H184.324V415.729H187.971ZM177.12 418.448C177.79 418.451 178.35 418.44 178.799 418.414C179.249 418.389 179.728 418.322 180.236 418.215L180.407 419.807C179.925 419.91 179.472 419.976 179.048 420.006C178.628 420.031 178.105 420.044 177.479 420.044H177.12H176.429V418.448H177.12ZM180.153 413.249V414.845H178.369V419.105H176.429V413.249H180.153ZM181.612 418.448C182.267 418.451 182.788 418.448 183.175 418.436C183.562 418.425 183.912 418.403 184.225 418.37C184.538 418.333 184.851 418.276 185.164 418.199L185.341 419.79C185.006 419.867 184.672 419.924 184.341 419.961C184.013 419.998 183.65 420.022 183.253 420.033C182.858 420.041 182.311 420.044 181.612 420.044H180.838V418.448H181.612ZM184.833 413.249V414.845H182.811V419.077H180.838V413.249H184.833ZM196.308 421.536V426.442H194.352V423.122H191.446V421.536H196.308ZM201.667 421.536V426.442H199.695V423.122H196.938V421.536H201.667ZM203.148 419.083V420.663H190.175V419.083H203.148ZM197.64 417.293V419.459H195.64V417.293H197.64ZM193.794 412.497V413.818H199.507V412.497H201.479V418.017H191.833V412.497H193.794ZM193.794 416.453H199.507V415.309H193.794V416.453ZM216.054 412.21V426.475H214.038V412.21H216.054ZM208.33 413.215C209.045 413.215 209.686 413.424 210.253 413.84C210.82 414.256 211.266 414.847 211.59 415.613C211.914 416.376 212.076 417.263 212.076 418.276C212.076 419.297 211.914 420.192 211.59 420.961C211.266 421.731 210.82 422.324 210.253 422.74C209.689 423.153 209.049 423.359 208.33 423.359C207.605 423.359 206.956 423.153 206.386 422.74C205.815 422.324 205.367 421.733 205.043 420.967C204.723 420.197 204.564 419.3 204.568 418.276C204.564 417.263 204.723 416.374 205.043 415.608C205.367 414.842 205.815 414.252 206.386 413.84C206.96 413.424 207.608 413.215 208.33 413.215ZM208.33 415.017C207.962 415.017 207.64 415.144 207.363 415.398C207.087 415.648 206.872 416.018 206.717 416.508C206.566 416.998 206.492 417.587 206.496 418.276C206.492 418.972 206.566 419.565 206.717 420.055C206.872 420.545 207.087 420.917 207.363 421.171C207.64 421.425 207.962 421.552 208.33 421.552C208.695 421.552 209.012 421.425 209.281 421.171C209.553 420.917 209.765 420.545 209.916 420.055C210.071 419.565 210.148 418.972 210.148 418.276C210.148 417.587 210.071 416.998 209.916 416.508C209.765 416.018 209.553 415.648 209.281 415.398C209.008 415.144 208.691 415.017 208.33 415.017Z" fill="black"/>
<defs>
<filter id="filter0_d_1117_1683" x="144" y="333" width="69" height="78.0369" filterUnits="userSpaceOnUse" color-interpolation-filters="sRGB">
<feFlood flood-opacity="0" result="BackgroundImageFix"/>
<feColorMatrix in="SourceAlpha" type="matrix" values="0 0 0 0 0 0 0 0 0 0 0 0 0 0 0 0 0 0 127 0" result="hardAlpha"/>
<feOffset dx="-1" dy="1"/>
<feGaussianBlur stdDeviation="2"/>
<feComposite in2="hardAlpha" operator="out"/>
<feColorMatrix type="matrix" values="0 0 0 0 0 0 0 0 0 0 0 0 0 0 0 0 0 0 0.25 0"/>
<feBlend mode="normal" in2="BackgroundImageFix" result="effect1_dropShadow_1117_1683"/>
<feBlend mode="normal" in="SourceGraphic" in2="effect1_dropShadow_1117_1683" result="shape"/>
</filter>
<clipPath id="clip0_1117_1683">
<rect width="738.322" height="679.167" fill="white" transform="translate(738.321 679.167) rotate(-180)"/>
</clipPath>
</defs>
</svg>
