<svg width="739" height="680" viewBox="0 0 739 680" fill="none" xmlns="http://www.w3.org/2000/svg">
<g clip-path="url(#clip0_1117_1747)">
<path d="M361.985 557.059C483.522 557.059 582.054 456.766 582.054 333.051C582.054 321.679 581.191 310.506 579.588 299.579C569.059 228.087 525.366 167.656 464.943 135.025C432.641 118.932 396.432 109.674 358.151 109.081C291.242 110.242 231.62 141.811 192.02 190.77C160.73 229.458 141.928 279.011 141.928 333.039C141.928 456.754 240.46 557.046 361.997 557.046L361.985 557.059ZM272.601 191.24C297.037 176.544 330.386 162.712 378.629 167.755C437.486 173.911 479.799 210.127 501.917 245.626C533.084 295.636 530.273 348.217 530.273 348.217L524.108 349.453L458.149 411.391L432.284 419.29C432.284 419.29 367.052 489.126 343.257 490.362C343.257 490.362 293.56 500.25 277.533 448.336C261.505 396.423 254.108 366.758 254.108 366.758L241.779 350.689L217.122 266.639L212.19 259.222C212.19 259.222 223.286 220.905 272.601 191.24Z" fill="#FAFAFA"/>
<path d="M579.588 299.579C581.191 310.506 582.054 321.679 582.054 333.051C582.054 456.766 483.522 557.059 361.985 557.059L361.997 557.046C240.46 557.046 141.928 456.754 141.928 333.039C141.928 279.011 160.73 229.458 192.02 190.77M579.588 299.579L574.73 300.865M579.588 299.579C569.059 228.087 525.366 167.656 464.943 135.025C432.641 118.932 396.432 109.674 358.151 109.081C291.242 110.242 231.62 141.811 192.02 190.77M192.02 190.77L198.641 197.408M272.601 191.24C297.037 176.544 330.386 162.712 378.629 167.755C437.486 173.911 479.799 210.127 501.917 245.626C533.084 295.636 530.273 348.217 530.273 348.217L524.108 349.453L458.149 411.391L432.284 419.29C432.284 419.29 367.052 489.126 343.257 490.362C343.257 490.362 293.56 500.25 277.533 448.336C261.505 396.423 254.108 366.758 254.108 366.758L241.779 350.689L217.122 266.639L212.19 259.222C212.19 259.222 223.286 220.905 272.601 191.24Z" stroke="#605B53" stroke-width="0.5" stroke-miterlimit="10"/>
<path d="M354.279 618.292C493.015 618.292 605.479 504.292 605.479 363.668C605.479 339.936 602.273 316.958 596.281 295.166L579.588 299.579C581.191 310.493 582.054 321.667 582.054 333.051C582.054 456.766 483.522 557.059 361.985 557.059C240.448 557.059 141.916 456.766 141.916 333.051C141.916 279.024 160.717 229.471 192.008 190.783L180.789 179.535C132.916 225.899 103.08 291.248 103.08 363.668C103.08 504.292 215.544 618.292 354.279 618.292Z" fill="#FFFAF8" stroke="#605B53" stroke-width="0.5" stroke-miterlimit="10"/>
<path d="M241.78 350.689L254.108 366.758C254.108 366.758 261.506 396.423 277.533 448.336C293.561 500.25 343.258 490.362 343.258 490.362C367.065 489.126 432.284 419.289 432.284 419.289L458.15 411.391L524.109 349.453L530.273 348.217C530.273 348.217 533.084 295.636 501.917 245.626C479.799 210.127 437.487 173.911 378.629 167.755C330.387 162.712 297.037 176.543 272.602 191.24C223.286 220.905 212.191 259.222 212.191 259.222L217.122 266.638L241.78 350.689Z" fill="#B7E689" stroke="#605B53" stroke-width="0.5" stroke-miterlimit="10"/>
<path d="M414.346 408.561C410.364 370.367 381.255 339.688 343.985 337.241C317.343 335.498 292.969 348.613 277.977 369.873L328.698 456.371L414.346 408.561Z" fill="#FAFAFA"/>
<path d="M329.232 451.815L385.784 419.081L353.105 362.333L296.553 395.067L329.232 451.815Z" fill="#B7E589"/>
<path d="M351.505 508.902L351.505 504.984C351.505 504.984 323.149 503.958 313.286 500.25C303.423 496.542 281.231 485.418 281.231 485.418L278.765 489.126C278.765 489.126 210.957 398.895 234.382 350.689L210.957 271.583L199.861 265.402C199.861 265.402 267.669 114.606 429.177 175.172C429.177 175.172 543.834 215.961 535.204 361.814L521.642 360.578L461.231 418.671C461.231 418.671 440.272 468.113 395.889 486.654L351.505 508.902Z" stroke="#605B53" stroke-width="0.5" stroke-miterlimit="10"/>
<path d="M354.279 534.773L351.505 504.972C351.505 504.972 323.149 503.946 313.286 500.238C303.423 496.53 281.231 485.405 281.231 485.405L262.861 508.89C262.861 508.89 293.56 527.431 310.82 529.903C310.82 529.903 334.861 535.922 354.279 534.76L354.279 534.773Z" fill="#FFC8AF" stroke="#605B53" stroke-width="0.5" stroke-miterlimit="10"/>
<path d="M355.561 510.176L355.561 524.872L400.82 503.958L394.656 490.362L355.561 510.176Z" fill="#FFA47C" stroke="#605B53" stroke-width="0.5" stroke-miterlimit="10"/>
<path d="M272.811 488.347L265.105 500.844L237.575 459.201L249.941 450.883L272.811 488.347Z" fill="#FFA47C" stroke="#605B53" stroke-width="0.5" stroke-miterlimit="10"/>
<path d="M367.767 497.494L365.684 492.216L437.19 426.706L458.149 419.29C458.149 419.29 448.903 447.101 420.547 468.113C392.19 489.126 367.767 497.494 367.767 497.494Z" fill="#FFDCCD" stroke="#605B53" stroke-width="0.5" stroke-miterlimit="10"/>
<path d="M275.067 466.877L271.369 469.349C271.369 469.349 240.756 424.839 237.576 402.603C234.395 380.367 237.576 357.71 237.576 357.71L246.711 370.466L275.067 466.877Z" fill="#FFDCCD" stroke="#605B53" stroke-width="0.5" stroke-miterlimit="10"/>
<path d="M328.697 443.392C322.91 443.392 318.218 448.096 318.218 453.899C318.218 459.701 322.91 464.405 328.697 464.405C334.485 464.405 339.177 459.701 339.177 453.899C339.177 448.096 334.485 443.392 328.697 443.392Z" fill="#FAFAFA"/>
<path d="M378.629 421.762C378.629 422.392 378.69 422.998 378.801 423.603L386.112 419.376L382.71 413.468C380.231 415.384 378.641 418.387 378.641 421.774L378.629 421.762Z" fill="#FAFAFA"/>
<path d="M354.588 369.23C355.439 369.23 356.265 369.119 357.054 368.921L353.059 361.987L346.722 365.658C348.645 367.846 351.444 369.23 354.576 369.23L354.588 369.23Z" fill="#FAFAFA"/>
<path d="M302.03 391.54L296.088 394.977L299.305 400.563C301.093 398.685 302.19 396.138 302.19 393.333C302.19 392.715 302.129 392.121 302.03 391.54Z" fill="#FAFAFA"/>
<path d="M574.731 354.163L543.835 351.925C543.835 351.925 562.328 169.164 365.684 149.919C365.684 149.919 246.008 146.545 197.667 248.617L170.273 235.738C170.273 235.738 214.656 118.956 365.067 113.691C515.479 108.425 580.895 270.112 574.731 354.163Z" fill="#FFF5F1" stroke="#605B53" stroke-width="0.5" stroke-miterlimit="10"/>
<path d="M738.013 658.167L680.684 197.42L684.383 196.184L738.013 348.217L738.013 658.167Z" fill="#E0EECE" stroke="#605B53" stroke-width="0.5" stroke-miterlimit="10"/>
<path d="M738.013 276.984L680.684 113.567L661.919 0.309042L738.013 0.309049L738.013 276.984Z" fill="#E0EECE" stroke="#605B53" stroke-width="0.5" stroke-miterlimit="10"/>
<path d="M339.177 403.839C335.092 403.839 331.78 407.159 331.78 411.255C331.78 415.351 335.092 418.671 339.177 418.671C343.262 418.671 346.574 415.351 346.574 411.255C346.574 407.159 343.262 403.839 339.177 403.839Z" fill="#FAFAFA"/>
<path d="M355.562 528.407L356.548 534.921L376.176 549.692C376.176 549.692 445.217 547.22 505.628 494.07C566.039 440.92 574.743 366.449 574.743 366.449L522.888 363.05L463.71 419.907C463.71 419.907 448.916 454.517 426.724 470.585C404.532 486.654 397.135 489.126 397.135 489.126L405.062 507.617L355.574 528.419L355.562 528.407Z" fill="#FFA47C" stroke="#605B53" stroke-width="0.5" stroke-miterlimit="10"/>
<path d="M262.627 503.18L258.312 508.149L233.852 510.052C233.852 510.052 176.905 470.832 154.368 393.481C131.831 316.13 164.342 248.605 164.342 248.605L207.259 274.042L230.683 349.441C230.683 349.441 218.355 375.398 231.916 411.243C241.619 436.903 248.585 447.657 248.585 447.657L232.003 458.991L262.64 503.155L262.627 503.18Z" fill="#FFA47C" stroke="#605B53" stroke-width="0.5" stroke-miterlimit="10"/>
</g>
<g filter="url(#filter0_d_1117_1747)">
<path fill-rule="evenodd" clip-rule="evenodd" d="M469.312 469.873C469.701 469.2 470.338 468.71 471.077 468.466C483.23 464.45 492 452.999 492 439.5C492 422.655 478.345 409 461.5 409C444.655 409 431 422.655 431 439.5C431 453.454 440.37 465.219 453.162 468.846C453.956 469.071 454.646 469.577 455.059 470.292L459.13 477.343C460.434 479.602 463.695 479.602 465 477.343L469.312 469.873Z" fill="white"/>
</g>
<circle cx="460.981" cy="438.981" r="25.9815" fill="#FF4E00"/>
<path d="M465.333 431.25V440.917H468.958V450.583H471.375V426.417C468.04 426.417 465.333 429.123 465.333 431.25ZM459.292 434.875H456.875V426.417H454.458V434.875H452.042V426.417H449.625V434.875C449.625 437.545 451.788 439.708 454.458 439.708V450.583H456.875V439.708C459.545 439.708 461.708 437.545 461.708 434.875V426.417H459.292V434.875Z" fill="#FAFAFA"/>
<path d="M444.044 487.304V488.873H440.343V487.304H444.044ZM444.105 490.122V491.735H440.343V490.122H444.105ZM445.409 485.21V493.552H443.42V485.21H445.409ZM440.773 486.26V492.768H434.017V486.26H440.773ZM435.994 487.834V491.188H438.818V487.834H435.994ZM440.547 493.917C441.556 493.917 442.429 494.028 443.166 494.249C443.902 494.466 444.466 494.783 444.856 495.199C445.25 495.611 445.448 496.107 445.448 496.685C445.448 497.263 445.25 497.761 444.856 498.177C444.466 498.593 443.902 498.908 443.166 499.122C442.429 499.335 441.556 499.44 440.547 499.436C439.538 499.44 438.667 499.333 437.934 499.116C437.201 498.899 436.637 498.584 436.243 498.171C435.853 497.759 435.659 497.263 435.663 496.685C435.659 496.107 435.855 495.611 436.249 495.199C436.643 494.783 437.206 494.466 437.939 494.249C438.672 494.028 439.541 493.917 440.547 493.917ZM440.547 495.436C439.91 495.436 439.376 495.483 438.945 495.575C438.517 495.663 438.193 495.801 437.972 495.989C437.755 496.173 437.646 496.405 437.646 496.685C437.646 496.954 437.755 497.18 437.972 497.365C438.193 497.545 438.519 497.683 438.95 497.779C439.385 497.871 439.917 497.919 440.547 497.923C441.18 497.919 441.713 497.871 442.144 497.779C442.578 497.683 442.906 497.545 443.127 497.365C443.352 497.18 443.466 496.954 443.47 496.685C443.466 496.405 443.352 496.173 443.127 495.989C442.906 495.801 442.58 495.663 442.149 495.575C441.718 495.483 441.184 495.436 440.547 495.436ZM459.304 485.232V495.453H457.304V485.232H459.304ZM459.68 497.586V499.193H449.774V497.586H459.68ZM451.79 494.42V498.249H449.774V494.42H451.79ZM451.509 486.133C452.23 486.133 452.888 486.287 453.481 486.597C454.074 486.906 454.54 487.333 454.879 487.878C455.221 488.424 455.392 489.037 455.392 489.718C455.392 490.411 455.221 491.031 454.879 491.58C454.54 492.129 454.074 492.558 453.481 492.867C452.888 493.173 452.23 493.326 451.509 493.326C450.787 493.326 450.127 493.173 449.531 492.867C448.938 492.558 448.47 492.129 448.127 491.58C447.788 491.031 447.619 490.411 447.619 489.718C447.619 489.037 447.788 488.424 448.127 487.878C448.47 487.333 448.938 486.906 449.531 486.597C450.127 486.287 450.787 486.133 451.509 486.133ZM451.509 487.867C451.137 487.867 450.803 487.943 450.509 488.094C450.214 488.241 449.982 488.455 449.812 488.735C449.647 489.015 449.566 489.343 449.569 489.718C449.566 490.105 449.647 490.44 449.812 490.724C449.982 491.004 450.212 491.219 450.503 491.37C450.798 491.517 451.133 491.591 451.509 491.591C451.873 491.591 452.199 491.517 452.486 491.37C452.777 491.219 453.006 491.004 453.171 490.724C453.341 490.44 453.426 490.105 453.426 489.718C453.426 489.343 453.341 489.015 453.171 488.735C453.006 488.455 452.777 488.241 452.486 488.094C452.195 487.943 451.869 487.867 451.509 487.867ZM468.63 486.398V493.227H461.802V486.398H468.63ZM463.774 487.983V491.657H466.663V487.983H463.774ZM472.663 485.221V495.597H470.663V485.221H472.663ZM474.575 489.315V490.961H472.089V489.315H474.575ZM473.172 497.586V499.193H463.437V497.586H473.172ZM465.426 494.569V498.392H463.437V494.569H465.426ZM486.824 490.282V491.845H477.001V490.282H486.824ZM488.349 493.276V494.867H475.343V493.276H488.349ZM482.791 494.193V499.42H480.818V494.193H482.791ZM486.686 485.967V487.558H479.045V491.033H477.001V485.967H486.686Z" fill="black"/>
<defs>
<filter id="filter0_d_1117_1747" x="426" y="406" width="69" height="78.0369" filterUnits="userSpaceOnUse" color-interpolation-filters="sRGB">
<feFlood flood-opacity="0" result="BackgroundImageFix"/>
<feColorMatrix in="SourceAlpha" type="matrix" values="0 0 0 0 0 0 0 0 0 0 0 0 0 0 0 0 0 0 127 0" result="hardAlpha"/>
<feOffset dx="-1" dy="1"/>
<feGaussianBlur stdDeviation="2"/>
<feComposite in2="hardAlpha" operator="out"/>
<feColorMatrix type="matrix" values="0 0 0 0 0 0 0 0 0 0 0 0 0 0 0 0 0 0 0.25 0"/>
<feBlend mode="normal" in2="BackgroundImageFix" result="effect1_dropShadow_1117_1747"/>
<feBlend mode="normal" in="SourceGraphic" in2="effect1_dropShadow_1117_1747" result="shape"/>
</filter>
<clipPath id="clip0_1117_1747">
<rect width="738.322" height="679.167" fill="white" transform="translate(738.321 679.167) rotate(-180)"/>
</clipPath>
</defs>
</svg>
