<svg width="739" height="680" viewBox="0 0 739 680" fill="none" xmlns="http://www.w3.org/2000/svg">
<g clip-path="url(#clip0_1117_1715)">
<path d="M361.986 557.059C483.523 557.059 582.055 456.766 582.055 333.051C582.055 321.679 581.192 310.506 579.589 299.579C569.06 228.087 525.367 167.656 464.944 135.025C432.642 118.932 396.432 109.674 358.152 109.081C291.243 110.242 231.621 141.811 192.021 190.77C160.731 229.458 141.929 279.011 141.929 333.039C141.929 456.754 240.461 557.046 361.998 557.046L361.986 557.059ZM272.602 191.24C297.038 176.544 330.387 162.712 378.63 167.755C437.487 173.911 479.8 210.127 501.918 245.626C533.085 295.636 530.274 348.217 530.274 348.217L524.109 349.453L458.15 411.391L432.285 419.29C432.285 419.29 367.053 489.126 343.258 490.362C343.258 490.362 293.561 500.25 277.534 448.336C261.506 396.423 254.109 366.758 254.109 366.758L241.78 350.689L217.123 266.639L212.191 259.222C212.191 259.222 223.287 220.905 272.602 191.24Z" fill="#FAFAFA"/>
<path d="M579.589 299.579C581.192 310.506 582.055 321.679 582.055 333.051C582.055 456.766 483.523 557.059 361.986 557.059L361.998 557.046C240.461 557.046 141.929 456.754 141.929 333.039C141.929 279.011 160.731 229.458 192.021 190.77M579.589 299.579L574.731 300.865M579.589 299.579C569.06 228.087 525.367 167.656 464.944 135.025C432.642 118.932 396.432 109.674 358.152 109.081C291.243 110.242 231.621 141.811 192.021 190.77M192.021 190.77L198.642 197.408M272.602 191.24C297.038 176.544 330.387 162.712 378.63 167.755C437.487 173.911 479.8 210.127 501.918 245.626C533.085 295.636 530.274 348.217 530.274 348.217L524.109 349.453L458.15 411.391L432.285 419.29C432.285 419.29 367.053 489.126 343.258 490.362C343.258 490.362 293.561 500.25 277.534 448.336C261.506 396.423 254.109 366.758 254.109 366.758L241.78 350.689L217.123 266.639L212.191 259.222C212.191 259.222 223.287 220.905 272.602 191.24Z" stroke="#605B53" stroke-width="0.5" stroke-miterlimit="10"/>
<path d="M354.28 618.292C493.016 618.292 605.48 504.292 605.48 363.668C605.48 339.936 602.274 316.958 596.282 295.166L579.589 299.579C581.192 310.493 582.055 321.667 582.055 333.051C582.055 456.766 483.523 557.059 361.986 557.059C240.449 557.059 141.917 456.766 141.917 333.051C141.917 279.024 160.718 229.471 192.009 190.783L180.79 179.535C132.917 225.899 103.081 291.248 103.081 363.668C103.081 504.292 215.545 618.292 354.28 618.292Z" fill="#FFFAF8" stroke="#605B53" stroke-width="0.5" stroke-miterlimit="10"/>
<path d="M241.781 350.689L254.109 366.758C254.109 366.758 261.507 396.423 277.534 448.336C293.561 500.25 343.259 490.362 343.259 490.362C367.066 489.126 432.285 419.289 432.285 419.289L458.151 411.391L524.11 349.453L530.274 348.217C530.274 348.217 533.085 295.636 501.918 245.626C479.8 210.127 437.488 173.911 378.63 167.755C330.388 162.712 297.038 176.543 272.603 191.24C223.287 220.905 212.191 259.222 212.191 259.222L217.123 266.638L241.781 350.689Z" fill="#B7E689" stroke="#605B53" stroke-width="0.5" stroke-miterlimit="10"/>
<path d="M414.347 408.561C410.364 370.367 381.256 339.688 343.986 337.241C317.344 335.498 292.97 348.613 277.978 369.873L328.699 456.371L414.347 408.561Z" fill="#FAFAFA"/>
<path d="M329.233 451.815L385.785 419.081L353.106 362.333L296.554 395.067L329.233 451.815Z" fill="#B7E589"/>
<path d="M351.506 508.902L351.506 504.984C351.506 504.984 323.15 503.958 313.287 500.25C303.424 496.542 281.232 485.418 281.232 485.418L278.766 489.126C278.766 489.126 210.958 398.895 234.383 350.689L210.958 271.583L199.862 265.402C199.862 265.402 267.67 114.606 429.178 175.172C429.178 175.172 543.835 215.961 535.205 361.814L521.643 360.578L461.232 418.671C461.232 418.671 440.273 468.113 395.89 486.654L351.506 508.902Z" stroke="#605B53" stroke-width="0.5" stroke-miterlimit="10"/>
<path d="M354.28 534.773L351.506 504.972C351.506 504.972 323.15 503.946 313.287 500.238C303.424 496.53 281.232 485.405 281.232 485.405L262.862 508.89C262.862 508.89 293.561 527.431 310.821 529.903C310.821 529.903 334.862 535.922 354.28 534.76L354.28 534.773Z" fill="#FFC8AF" stroke="#605B53" stroke-width="0.5" stroke-miterlimit="10"/>
<path d="M355.562 510.176L355.562 524.872L400.821 503.958L394.657 490.362L355.562 510.176Z" fill="#FFA47C" stroke="#605B53" stroke-width="0.5" stroke-miterlimit="10"/>
<path d="M272.812 488.347L265.106 500.844L237.576 459.201L249.942 450.883L272.812 488.347Z" fill="#FFA47C" stroke="#605B53" stroke-width="0.5" stroke-miterlimit="10"/>
<path d="M367.768 497.494L365.684 492.216L437.191 426.706L458.15 419.29C458.15 419.29 448.904 447.101 420.548 468.113C392.191 489.126 367.768 497.494 367.768 497.494Z" fill="#FFDCCD" stroke="#605B53" stroke-width="0.5" stroke-miterlimit="10"/>
<path d="M275.068 466.877L271.37 469.349C271.37 469.349 240.757 424.839 237.577 402.603C234.396 380.367 237.577 357.71 237.577 357.71L246.712 370.466L275.068 466.877Z" fill="#FFDCCD" stroke="#605B53" stroke-width="0.5" stroke-miterlimit="10"/>
<path d="M328.698 443.392C322.911 443.392 318.219 448.096 318.219 453.899C318.219 459.701 322.911 464.405 328.698 464.405C334.486 464.405 339.178 459.701 339.178 453.899C339.178 448.096 334.486 443.392 328.698 443.392Z" fill="#FAFAFA"/>
<path d="M378.63 421.762C378.63 422.392 378.691 422.998 378.802 423.603L386.113 419.376L382.711 413.468C380.232 415.384 378.642 418.387 378.642 421.774L378.63 421.762Z" fill="#FAFAFA"/>
<path d="M354.589 369.23C355.44 369.23 356.266 369.119 357.055 368.921L353.06 361.987L346.723 365.658C348.646 367.846 351.445 369.23 354.577 369.23L354.589 369.23Z" fill="#FAFAFA"/>
<path d="M302.031 391.54L296.089 394.977L299.306 400.563C301.094 398.685 302.191 396.138 302.191 393.333C302.191 392.715 302.13 392.121 302.031 391.54Z" fill="#FAFAFA"/>
<path d="M574.732 354.163L543.836 351.925C543.836 351.925 562.329 169.164 365.685 149.919C365.685 149.919 246.009 146.545 197.668 248.617L170.274 235.738C170.274 235.738 214.657 118.956 365.068 113.691C515.48 108.425 580.896 270.112 574.732 354.163Z" fill="#FFF5F1" stroke="#605B53" stroke-width="0.5" stroke-miterlimit="10"/>
<path d="M738.014 658.167L680.685 197.42L684.383 196.184L738.014 348.217L738.014 658.167Z" fill="#E0EECE" stroke="#605B53" stroke-width="0.5" stroke-miterlimit="10"/>
<path d="M738.014 276.984L680.685 113.567L661.92 0.309042L738.014 0.309049L738.014 276.984Z" fill="#E0EECE" stroke="#605B53" stroke-width="0.5" stroke-miterlimit="10"/>
<path d="M339.178 403.839C335.093 403.839 331.781 407.159 331.781 411.255C331.781 415.351 335.093 418.671 339.178 418.671C343.263 418.671 346.575 415.351 346.575 411.255C346.575 407.159 343.263 403.839 339.178 403.839Z" fill="#FAFAFA"/>
<path d="M355.563 528.407L356.549 534.921L376.177 549.692C376.177 549.692 445.218 547.22 505.629 494.07C566.04 440.92 574.744 366.449 574.744 366.449L522.889 363.05L463.711 419.907C463.711 419.907 448.917 454.517 426.725 470.585C404.533 486.654 397.136 489.126 397.136 489.126L405.063 507.617L355.575 528.419L355.563 528.407Z" fill="#FFA47C" stroke="#605B53" stroke-width="0.5" stroke-miterlimit="10"/>
<path d="M262.628 503.18L258.313 508.149L233.853 510.052C233.853 510.052 176.906 470.832 154.369 393.481C131.832 316.13 164.343 248.605 164.343 248.605L207.26 274.042L230.684 349.441C230.684 349.441 218.356 375.398 231.917 411.243C241.62 436.903 248.586 447.657 248.586 447.657L232.004 458.991L262.641 503.155L262.628 503.18Z" fill="#FFA47C" stroke="#605B53" stroke-width="0.5" stroke-miterlimit="10"/>
</g>
<g filter="url(#filter0_d_1117_1715)">
<path fill-rule="evenodd" clip-rule="evenodd" d="M388.312 526.873C388.701 526.2 389.338 525.71 390.077 525.466C402.23 521.45 411 509.999 411 496.5C411 479.655 397.345 466 380.5 466C363.655 466 350 479.655 350 496.5C350 510.454 359.37 522.219 372.162 525.846C372.956 526.071 373.646 526.577 374.059 527.292L378.13 534.343C379.434 536.602 382.695 536.602 384 534.343L388.312 526.873Z" fill="white"/>
</g>
<circle cx="379.981" cy="495.981" r="25.9815" fill="#FF4E00"/>
<path d="M384.333 488.25V497.917H387.958V507.583H390.375V483.417C387.04 483.417 384.333 486.123 384.333 488.25ZM378.292 491.875H375.875V483.417H373.458V491.875H371.042V483.417H368.625V491.875C368.625 494.545 370.788 496.708 373.458 496.708V507.583H375.875V496.708C378.545 496.708 380.708 494.545 380.708 491.875V483.417H378.292V491.875Z" fill="#FAFAFA"/>
<path d="M347.707 542.21V549.934H345.68V542.21H347.707ZM349.619 545.304V546.934H347.144V545.304H349.619ZM343.757 542.983C343.757 544.232 343.501 545.331 342.989 546.282C342.481 547.228 341.731 548.022 340.74 548.663C339.75 549.3 338.529 549.783 337.077 550.11L336.359 548.497C337.53 548.247 338.505 547.902 339.282 547.464C340.063 547.022 340.639 546.514 341.011 545.939C341.383 545.365 341.569 544.742 341.569 544.072V542.983H343.757ZM342.895 542.983V544.552H337.083V542.983H342.895ZM340.365 550.486V551.867H345.707V550.486H347.707V556.282H338.359V550.486H340.365ZM340.365 554.669H345.707V553.414H340.365V554.669ZM362.486 548.326V549.912H357.337V548.326H362.486ZM363.409 553.177V554.773H350.404V553.177H363.409ZM357.834 550.525V553.906H355.862V550.525H357.834ZM362.376 543.409V544.994H359.332V549.149H357.337V543.409H362.376ZM356.448 543.409V545H353.392V549.028H351.398V543.409H356.448ZM352.315 548.293C353.166 548.297 353.916 548.274 354.564 548.227C355.216 548.179 355.875 548.09 356.542 547.961L356.674 549.591C356.218 549.687 355.764 549.759 355.315 549.807C354.869 549.851 354.426 549.88 353.984 549.895C353.542 549.906 352.985 549.912 352.315 549.912H351.398V548.293H352.315ZM376.293 542.21V556.475H374.31V542.21H376.293ZM366.42 551.508C367.765 551.508 368.969 551.473 370.034 551.403C371.102 551.333 372.188 551.206 373.293 551.022L373.465 552.641C372.371 552.832 371.28 552.965 370.194 553.039C369.107 553.109 367.849 553.144 366.42 553.144H365.144V551.508H366.42ZM371.89 543.409V548.89H367.199V552.122H365.144V547.32H369.857V545.017H365.133V543.409H371.89ZM383.877 547.663C385.435 547.659 386.676 547.624 387.601 547.558C388.525 547.492 389.429 547.363 390.313 547.171L390.523 548.74C389.919 548.869 389.304 548.967 388.678 549.033C388.055 549.099 387.374 549.145 386.634 549.171C385.893 549.193 384.974 549.204 383.877 549.204H382.695V547.663H383.877ZM389.092 542.983V544.569H384.672V548.326H382.695V542.983H389.092ZM393.479 542.21V549.74H391.479V542.21H393.479ZM395.391 545.227V546.851H392.916V545.227H395.391ZM384.451 554.807C385.372 554.807 386.103 554.799 386.645 554.785C387.186 554.766 387.648 554.737 388.032 554.696C388.418 554.656 388.799 554.593 389.175 554.508L389.374 555.972C388.987 556.068 388.595 556.136 388.197 556.177C387.803 556.221 387.339 556.25 386.805 556.265C386.271 556.28 385.486 556.285 384.451 556.282H383.501V554.807H384.451ZM388.269 550.276V553.934H385.457V555.84H383.501V552.558H386.352V551.768H383.479V550.276H388.269ZM393.479 550.276V556.331H391.507V551.823H388.882V550.276H393.479ZM407.457 542.21V550.475H405.457V542.21H407.457ZM409.369 545.569V547.188H406.894V545.569H409.369ZM403.49 543.155C403.49 544.411 403.234 545.541 402.722 546.547C402.214 547.549 401.466 548.407 400.479 549.122C399.492 549.836 398.291 550.39 396.877 550.785L396.081 549.177C397.212 548.871 398.172 548.468 398.96 547.967C399.752 547.466 400.349 546.891 400.75 546.243C401.155 545.591 401.36 544.891 401.363 544.144V543.155H403.49ZM402.584 543.155V544.751H396.75V543.155H402.584ZM402.805 550.641C403.767 550.641 404.608 550.759 405.33 550.994C406.056 551.23 406.616 551.567 407.01 552.006C407.407 552.444 407.608 552.956 407.612 553.541C407.608 554.131 407.407 554.645 407.01 555.083C406.616 555.525 406.058 555.862 405.336 556.094C404.614 556.33 403.77 556.448 402.805 556.448C401.848 556.448 401.004 556.33 400.275 556.094C399.549 555.862 398.986 555.525 398.584 555.083C398.186 554.645 397.989 554.131 397.993 553.541C397.989 552.956 398.188 552.444 398.59 552.006C398.991 551.567 399.555 551.23 400.28 550.994C401.01 550.759 401.851 550.641 402.805 550.641ZM402.805 552.193C402.212 552.193 401.702 552.245 401.275 552.348C400.848 552.451 400.522 552.604 400.297 552.807C400.072 553.009 399.962 553.254 399.965 553.541C399.962 553.825 400.072 554.07 400.297 554.276C400.522 554.483 400.848 554.639 401.275 554.746C401.702 554.849 402.212 554.899 402.805 554.895C403.398 554.899 403.907 554.849 404.33 554.746C404.754 554.639 405.078 554.483 405.302 554.276C405.531 554.07 405.645 553.825 405.645 553.541C405.645 553.254 405.531 553.009 405.302 552.807C405.078 552.604 404.754 552.451 404.33 552.348C403.907 552.245 403.398 552.193 402.805 552.193ZM420.667 545.68V547.304H417.927V545.68H420.667ZM422.137 542.21V550.663H420.148V542.21H422.137ZM417.275 550.978C418.284 550.978 419.157 551.087 419.894 551.304C420.631 551.521 421.194 551.836 421.584 552.249C421.979 552.657 422.176 553.147 422.176 553.718C422.176 554.289 421.979 554.779 421.584 555.188C421.194 555.597 420.631 555.91 419.894 556.127C419.157 556.348 418.284 556.459 417.275 556.459C416.266 556.459 415.395 556.348 414.662 556.127C413.929 555.91 413.365 555.597 412.971 555.188C412.581 554.779 412.387 554.289 412.391 553.718C412.387 553.147 412.583 552.657 412.977 552.249C413.371 551.836 413.934 551.521 414.667 551.304C415.4 551.087 416.27 550.978 417.275 550.978ZM417.275 552.492C416.642 552.492 416.109 552.538 415.678 552.63C415.247 552.718 414.921 552.855 414.701 553.039C414.483 553.219 414.375 553.446 414.375 553.718C414.375 553.987 414.483 554.212 414.701 554.392C414.921 554.573 415.247 554.709 415.678 554.801C416.109 554.89 416.642 554.934 417.275 554.934C417.909 554.934 418.441 554.89 418.872 554.801C419.306 554.709 419.634 554.573 419.855 554.392C420.08 554.212 420.194 553.987 420.198 553.718C420.194 553.446 420.08 553.219 419.855 553.039C419.634 552.855 419.306 552.718 418.872 552.63C418.441 552.538 417.909 552.492 417.275 552.492ZM415.109 544.575C415.109 545.499 414.96 546.365 414.662 547.171C414.367 547.978 413.918 548.687 413.314 549.298C412.713 549.91 411.973 550.366 411.093 550.669L410.06 549.088C410.818 548.838 411.454 548.477 411.966 548.006C412.481 547.53 412.863 546.998 413.109 546.409C413.36 545.82 413.487 545.208 413.491 544.575V543.641H415.109V544.575ZM415.518 544.558C415.518 545.144 415.636 545.709 415.872 546.254C416.108 546.796 416.47 547.284 416.96 547.718C417.454 548.153 418.063 548.49 418.789 548.729L417.805 550.298C416.947 550.018 416.225 549.591 415.64 549.017C415.054 548.438 414.616 547.768 414.325 547.006C414.038 546.239 413.894 545.424 413.894 544.558V543.641H415.518V544.558ZM418.352 543.077V544.68H410.64V543.077H418.352Z" fill="black"/>
<defs>
<filter id="filter0_d_1117_1715" x="345" y="463" width="69" height="78.0369" filterUnits="userSpaceOnUse" color-interpolation-filters="sRGB">
<feFlood flood-opacity="0" result="BackgroundImageFix"/>
<feColorMatrix in="SourceAlpha" type="matrix" values="0 0 0 0 0 0 0 0 0 0 0 0 0 0 0 0 0 0 127 0" result="hardAlpha"/>
<feOffset dx="-1" dy="1"/>
<feGaussianBlur stdDeviation="2"/>
<feComposite in2="hardAlpha" operator="out"/>
<feColorMatrix type="matrix" values="0 0 0 0 0 0 0 0 0 0 0 0 0 0 0 0 0 0 0.25 0"/>
<feBlend mode="normal" in2="BackgroundImageFix" result="effect1_dropShadow_1117_1715"/>
<feBlend mode="normal" in="SourceGraphic" in2="effect1_dropShadow_1117_1715" result="shape"/>
</filter>
<clipPath id="clip0_1117_1715">
<rect width="738.322" height="679.167" fill="white" transform="translate(738.322 679.167) rotate(-180)"/>
</clipPath>
</defs>
</svg>
