<svg width="390" height="465" viewBox="0 0 390 465" fill="none" xmlns="http://www.w3.org/2000/svg">
<mask id="mask0_668_1061" style="mask-type:alpha" maskUnits="userSpaceOnUse" x="-30" y="0" width="439" height="465">
<rect x="409" y="464.89" width="439" height="464.89" transform="rotate(-180 409 464.89)" fill="#D9D9D9"/>
</mask>
<g mask="url(#mask0_668_1061)">
<g clip-path="url(#clip0_668_1061)">
<path d="M198.885 372.307C291.035 372.307 365.742 296.265 365.742 202.463C365.742 193.841 365.088 185.369 363.873 177.085C355.89 122.879 322.761 77.0606 276.948 52.3193C252.457 40.1173 225.003 33.0979 195.978 32.6481C145.248 33.529 100.042 57.4644 70.0173 94.5857C46.2927 123.919 32.0374 161.49 32.0374 202.454C32.0374 296.255 106.745 372.297 198.894 372.297L198.885 372.307ZM131.114 94.9418C149.641 83.7989 174.927 73.3119 211.505 77.1356C256.131 81.8027 288.212 109.262 304.982 136.177C328.613 174.095 326.482 213.962 326.482 213.962L321.808 214.9L271.797 261.861L252.186 267.85C252.186 267.85 202.727 320.8 184.686 321.737C184.686 321.737 147.005 329.234 134.853 289.873C122.701 250.512 117.092 228.02 117.092 228.02L107.745 215.837L89.0492 152.109L85.3101 146.486C85.3101 146.486 93.7231 117.434 131.114 94.9418Z" fill="#FAFAFA"/>
<path d="M363.873 177.085C365.088 185.369 365.742 193.841 365.742 202.463C365.742 296.265 291.035 372.307 198.885 372.307L198.894 372.297C106.744 372.297 32.0374 296.255 32.0374 202.454C32.0374 161.49 46.2927 123.919 70.0173 94.5857M363.873 177.085L360.19 178.059M363.873 177.085C355.89 122.879 322.761 77.0606 276.948 52.3193C252.457 40.1173 225.003 33.0979 195.978 32.6481C145.248 33.529 100.042 57.4644 70.0173 94.5857M70.0173 94.5857L75.037 99.6183M131.114 94.9418C149.641 83.7989 174.927 73.3119 211.505 77.1356C256.131 81.8027 288.212 109.262 304.982 136.177C328.613 174.095 326.482 213.962 326.482 213.962L321.808 214.9L271.797 261.861L252.186 267.85C252.186 267.85 202.727 320.8 184.686 321.737C184.686 321.737 147.005 329.234 134.853 289.873C122.701 250.512 117.092 228.02 117.092 228.02L107.745 215.837L89.0492 152.109L85.3101 146.486C85.3101 146.486 93.7231 117.434 131.114 94.9418Z" stroke="#605B53" stroke-width="0.5" stroke-miterlimit="10"/>
<path d="M193.043 418.734C298.233 418.734 383.503 332.299 383.503 225.677C383.503 207.683 381.073 190.261 376.53 173.739L363.873 177.085C365.088 185.36 365.742 193.832 365.742 202.463C365.742 296.265 291.035 372.307 198.885 372.307C106.735 372.307 32.0281 296.265 32.0281 202.463C32.0281 161.5 46.2834 123.929 70.008 94.5951L61.5015 86.0668C25.2042 121.22 2.58275 170.768 2.58275 225.677C2.58274 332.299 87.8528 418.734 193.043 418.734Z" fill="#FFFAF8" stroke="#605B53" stroke-width="0.5" stroke-miterlimit="10"/>
<path d="M107.745 215.837L117.092 228.02C117.092 228.02 122.701 250.512 134.853 289.873C147.005 329.234 184.686 321.737 184.686 321.737C202.736 320.8 252.186 267.85 252.186 267.85L271.797 261.861L321.808 214.9L326.481 213.962C326.481 213.962 328.613 174.095 304.982 136.177C288.212 109.262 256.13 81.8027 211.504 77.1356C174.927 73.3119 149.641 83.7989 131.114 94.9418C93.7229 117.434 85.31 146.486 85.31 146.486L89.0491 152.109L107.745 215.837Z" fill="#B7E689" stroke="#605B53" stroke-width="0.5" stroke-miterlimit="10"/>
<path d="M238.585 259.715C235.566 230.757 213.496 207.496 185.237 205.64C165.037 204.319 146.557 214.262 135.19 230.382L173.646 295.965L238.585 259.715Z" fill="#FAFAFA"/>
<path d="M174.052 292.511L216.93 267.692L192.152 224.665L149.274 249.484L174.052 292.511Z" fill="#B7E589"/>
<path d="M190.939 335.795L190.939 332.824C190.939 332.824 169.44 332.046 161.961 329.234C154.483 326.423 137.657 317.988 137.657 317.988L135.788 320.8C135.788 320.8 84.3752 252.386 102.136 215.837L84.3752 155.858L75.9622 151.172C75.9622 151.172 127.375 36.8373 249.83 82.7587C249.83 82.7587 336.764 113.685 330.221 224.271L319.938 223.334L274.134 267.381C274.134 267.381 258.243 304.868 224.591 318.926L190.939 335.795Z" stroke="#605B53" stroke-width="0.5" stroke-miterlimit="10"/>
<path d="M193.043 355.41L190.94 332.814C190.94 332.814 169.44 332.037 161.962 329.225C154.484 326.414 137.658 317.979 137.658 317.979L123.73 335.785C123.73 335.785 147.005 349.843 160.092 351.717C160.092 351.717 178.32 356.281 193.043 355.4L193.043 355.41Z" fill="#FFC8AF" stroke="#605B53" stroke-width="0.5" stroke-miterlimit="10"/>
<path d="M194.015 336.76L194.015 347.903L228.33 332.046L223.656 321.737L194.015 336.76Z" fill="#FFA47C" stroke="#605B53" stroke-width="0.5" stroke-miterlimit="10"/>
<path d="M131.272 320.21L125.43 329.684L104.557 298.111L113.932 291.804L131.272 320.21Z" fill="#FFA47C" stroke="#605B53" stroke-width="0.5" stroke-miterlimit="10"/>
<path d="M203.27 327.145L201.69 323.143L255.907 273.473L271.798 267.85C271.798 267.85 264.787 288.936 243.287 304.868C221.787 320.8 203.27 327.145 203.27 327.145Z" fill="#FFDCCD" stroke="#605B53" stroke-width="0.5" stroke-miterlimit="10"/>
<path d="M132.983 303.931L130.179 305.805C130.179 305.805 106.969 272.058 104.557 255.198C102.145 238.338 104.557 221.16 104.557 221.16L111.484 230.832L132.983 303.931Z" fill="#FFDCCD" stroke="#605B53" stroke-width="0.5" stroke-miterlimit="10"/>
<path d="M173.646 286.125C169.258 286.125 165.701 289.691 165.701 294.091C165.701 298.49 169.258 302.057 173.646 302.057C178.034 302.057 181.592 298.49 181.592 294.091C181.592 289.691 178.034 286.125 173.646 286.125Z" fill="#FAFAFA"/>
<path d="M211.505 269.724C211.505 270.202 211.551 270.661 211.636 271.12L217.179 267.915L214.599 263.436C212.72 264.888 211.514 267.166 211.514 269.733L211.505 269.724Z" fill="#FAFAFA"/>
<path d="M193.277 229.894C193.922 229.894 194.548 229.81 195.146 229.66L192.118 224.402L187.313 227.186C188.771 228.845 190.893 229.894 193.268 229.894L193.277 229.894Z" fill="#FAFAFA"/>
<path d="M153.427 246.81L148.922 249.416L151.361 253.652C152.717 252.227 153.549 250.297 153.549 248.169C153.549 247.701 153.502 247.251 153.427 246.81Z" fill="#FAFAFA"/>
<path d="M360.189 218.47L336.764 216.774C336.764 216.774 350.785 78.204 201.689 63.6123C201.689 63.6123 110.951 61.0538 74.298 138.445L53.5274 128.68C53.5274 128.68 87.1792 40.1362 201.222 36.1438C315.264 32.1515 364.863 154.743 360.189 218.47Z" fill="#FFF5F1" stroke="#605B53" stroke-width="0.5" stroke-miterlimit="10"/>
<path d="M181.592 256.135C178.494 256.135 175.983 258.653 175.983 261.758C175.983 264.864 178.494 267.381 181.592 267.381C184.689 267.381 187.2 264.864 187.2 261.758C187.2 258.653 184.689 256.135 181.592 256.135Z" fill="#FAFAFA"/>
<path d="M194.015 350.583L194.763 355.522L209.645 366.721C209.645 366.721 261.992 364.847 307.796 324.549C353.6 284.25 360.199 227.786 360.199 227.786L320.883 225.209L276.014 268.318C276.014 268.318 264.796 294.559 247.97 306.742C231.144 318.926 225.536 320.8 225.536 320.8L231.546 334.82L194.025 350.593L194.015 350.583Z" fill="#FFA47C" stroke="#605B53" stroke-width="0.5" stroke-miterlimit="10"/>
<path d="M123.551 331.455L120.279 335.223L101.734 336.666C101.734 336.666 58.5564 306.93 41.4687 248.282C24.3811 189.633 49.0311 138.436 49.0311 138.436L81.5705 157.723L99.3312 214.89C99.3312 214.89 89.9835 234.571 100.266 261.749C107.623 281.204 112.904 289.358 112.904 289.358L100.331 297.952L123.561 331.437L123.551 331.455Z" fill="#FFA47C" stroke="#605B53" stroke-width="0.5" stroke-miterlimit="10"/>
</g>
<g filter="url(#filter0_d_668_1061)">
<path fill-rule="evenodd" clip-rule="evenodd" d="M55.0734 263.95C55.2264 263.685 55.4772 263.493 55.7677 263.397C60.5494 261.817 64 257.311 64 252C64 245.373 58.6274 240 52 240C45.3726 240 40 245.373 40 252C40 257.49 43.6867 262.119 48.7195 263.546C49.0318 263.635 49.3035 263.834 49.4658 264.115L51.0674 266.889C51.5806 267.778 52.8636 267.778 53.3768 266.889L55.0734 263.95Z" fill="white"/>
</g>
<circle cx="51.7964" cy="251.796" r="10.2222" fill="#FF4E00"/>
<path d="M53.5075 248.754V252.557H54.9337V256.361H55.8845V246.852C54.5724 246.852 53.5075 247.917 53.5075 248.754ZM51.1304 250.18H50.1796V246.852H49.2288V250.18H48.278V246.852H47.3271V250.18C47.3271 251.231 48.1781 252.082 49.2288 252.082V256.361H50.1796V252.082C51.2303 252.082 52.0812 251.231 52.0812 250.18V246.852H51.1304V250.18Z" fill="#FAFAFA"/>
<g filter="url(#filter1_d_668_1061)">
<path fill-rule="evenodd" clip-rule="evenodd" d="M50.0734 217.95C50.2264 217.685 50.4772 217.493 50.7677 217.397C55.5494 215.817 59 211.311 59 206C59 199.373 53.6274 194 47 194C40.3726 194 35 199.373 35 206C35 211.49 38.6867 216.119 43.7195 217.546C44.0318 217.635 44.3035 217.834 44.4658 218.115L46.0674 220.889C46.5806 221.778 47.8636 221.778 48.3768 220.889L50.0734 217.95Z" fill="white"/>
</g>
<circle cx="46.7964" cy="205.796" r="10.2222" fill="#FF4E00"/>
<path d="M48.5075 202.754V206.557H49.9337V210.361H50.8845V200.852C49.5724 200.852 48.5075 201.917 48.5075 202.754ZM46.1304 204.18H45.1796V200.852H44.2288V204.18H43.278V200.852H42.3271V204.18C42.3271 205.231 43.1781 206.082 44.2288 206.082V210.361H45.1796V206.082C46.2303 206.082 47.0812 205.231 47.0812 204.18V200.852H46.1304V204.18Z" fill="#FAFAFA"/>
<g filter="url(#filter2_d_668_1061)">
<path fill-rule="evenodd" clip-rule="evenodd" d="M249.073 342.95C249.226 342.685 249.477 342.493 249.768 342.397C254.549 340.817 258 336.311 258 331C258 324.373 252.627 319 246 319C239.373 319 234 324.373 234 331C234 336.49 237.687 341.119 242.72 342.546C243.032 342.635 243.304 342.834 243.466 343.115L245.067 345.889C245.581 346.778 246.864 346.778 247.377 345.889L249.073 342.95Z" fill="white"/>
</g>
<circle cx="245.796" cy="330.796" r="10.2222" fill="#FF4E00"/>
<path d="M247.507 327.754V331.557H248.934V335.361H249.885V325.852C248.572 325.852 247.507 326.917 247.507 327.754ZM245.13 329.18H244.18V325.852H243.229V329.18H242.278V325.852H241.327V329.18C241.327 330.231 242.178 331.082 243.229 331.082V335.361H244.18V331.082C245.23 331.082 246.081 330.231 246.081 329.18V325.852H245.13V329.18Z" fill="#FAFAFA"/>
<g filter="url(#filter3_d_668_1061)">
<path fill-rule="evenodd" clip-rule="evenodd" d="M279.073 326.95C279.226 326.685 279.477 326.493 279.768 326.397C284.549 324.817 288 320.311 288 315C288 308.373 282.627 303 276 303C269.373 303 264 308.373 264 315C264 320.49 267.687 325.119 272.72 326.546C273.032 326.635 273.304 326.834 273.466 327.115L275.067 329.889C275.581 330.778 276.864 330.778 277.377 329.889L279.073 326.95Z" fill="white"/>
</g>
<circle cx="275.796" cy="314.796" r="10.2222" fill="#FF4E00"/>
<path d="M277.507 311.754V315.557H278.934V319.361H279.885V309.852C278.572 309.852 277.507 310.917 277.507 311.754ZM275.13 313.18H274.18V309.852H273.229V313.18H272.278V309.852H271.327V313.18C271.327 314.231 272.178 315.082 273.229 315.082V319.361H274.18V315.082C275.23 315.082 276.081 314.231 276.081 313.18V309.852H275.13V313.18Z" fill="#FAFAFA"/>
<g filter="url(#filter4_d_668_1061)">
<path fill-rule="evenodd" clip-rule="evenodd" d="M345.073 255.95C345.226 255.685 345.477 255.493 345.768 255.397C350.549 253.817 354 249.311 354 244C354 237.373 348.627 232 342 232C335.373 232 330 237.373 330 244C330 249.49 333.687 254.119 338.72 255.546C339.032 255.635 339.304 255.834 339.466 256.115L341.067 258.889C341.581 259.778 342.864 259.778 343.377 258.889L345.073 255.95Z" fill="white"/>
</g>
<circle cx="341.796" cy="243.796" r="10.2222" fill="#FF4E00"/>
<path d="M343.507 240.754V244.557H344.934V248.361H345.885V238.852C344.572 238.852 343.507 239.917 343.507 240.754ZM341.13 242.18H340.18V238.852H339.229V242.18H338.278V238.852H337.327V242.18C337.327 243.231 338.178 244.082 339.229 244.082V248.361H340.18V244.082C341.23 244.082 342.081 243.231 342.081 242.18V238.852H341.13V242.18Z" fill="#FAFAFA"/>
<g filter="url(#filter5_d_668_1061)">
<path fill-rule="evenodd" clip-rule="evenodd" d="M321.073 280.95C321.226 280.685 321.477 280.493 321.768 280.397C326.549 278.817 330 274.311 330 269C330 262.373 324.627 257 318 257C311.373 257 306 262.373 306 269C306 274.49 309.687 279.119 314.72 280.546C315.032 280.635 315.304 280.834 315.466 281.115L317.067 283.889C317.581 284.778 318.864 284.778 319.377 283.889L321.073 280.95Z" fill="white"/>
</g>
<circle cx="317.796" cy="268.796" r="10.2222" fill="#FF4E00"/>
<path d="M319.507 265.754V269.557H320.934V273.361H321.885V263.852C320.572 263.852 319.507 264.917 319.507 265.754ZM317.13 267.18H316.18V263.852H315.229V267.18H314.278V263.852H313.327V267.18C313.327 268.231 314.178 269.082 315.229 269.082V273.361H316.18V269.082C317.23 269.082 318.081 268.231 318.081 267.18V263.852H317.13V267.18Z" fill="#FAFAFA"/>
<g filter="url(#filter6_d_668_1061)">
<path fill-rule="evenodd" clip-rule="evenodd" d="M95.0734 314.95C95.2264 314.685 95.4772 314.493 95.7677 314.397C100.549 312.817 104 308.311 104 303C104 296.373 98.6274 291 92 291C85.3726 291 80 296.373 80 303C80 308.49 83.6867 313.119 88.7195 314.546C89.0318 314.635 89.3035 314.834 89.4658 315.115L91.0674 317.889C91.5806 318.778 92.8636 318.778 93.3768 317.889L95.0734 314.95Z" fill="white"/>
</g>
<circle cx="91.7964" cy="302.796" r="10.2222" fill="#FF4E00"/>
<path d="M93.5075 299.754V303.557H94.9337V307.361H95.8845V297.852C94.5724 297.852 93.5075 298.917 93.5075 299.754ZM91.1304 301.18H90.1796V297.852H89.2288V301.18H88.278V297.852H87.3271V301.18C87.3271 302.231 88.1781 303.082 89.2288 303.082V307.361H90.1796V303.082C91.2303 303.082 92.0812 302.231 92.0812 301.18V297.852H91.1304V301.18Z" fill="#FAFAFA"/>
</g>
<defs>
<filter id="filter0_d_668_1061" x="38.0328" y="238.82" width="27.1475" height="30.703" filterUnits="userSpaceOnUse" color-interpolation-filters="sRGB">
<feFlood flood-opacity="0" result="BackgroundImageFix"/>
<feColorMatrix in="SourceAlpha" type="matrix" values="0 0 0 0 0 0 0 0 0 0 0 0 0 0 0 0 0 0 127 0" result="hardAlpha"/>
<feOffset dx="-0.393443" dy="0.393443"/>
<feGaussianBlur stdDeviation="0.786885"/>
<feComposite in2="hardAlpha" operator="out"/>
<feColorMatrix type="matrix" values="0 0 0 0 0 0 0 0 0 0 0 0 0 0 0 0 0 0 0.25 0"/>
<feBlend mode="normal" in2="BackgroundImageFix" result="effect1_dropShadow_668_1061"/>
<feBlend mode="normal" in="SourceGraphic" in2="effect1_dropShadow_668_1061" result="shape"/>
</filter>
<filter id="filter1_d_668_1061" x="33.0328" y="192.82" width="27.1475" height="30.703" filterUnits="userSpaceOnUse" color-interpolation-filters="sRGB">
<feFlood flood-opacity="0" result="BackgroundImageFix"/>
<feColorMatrix in="SourceAlpha" type="matrix" values="0 0 0 0 0 0 0 0 0 0 0 0 0 0 0 0 0 0 127 0" result="hardAlpha"/>
<feOffset dx="-0.393443" dy="0.393443"/>
<feGaussianBlur stdDeviation="0.786885"/>
<feComposite in2="hardAlpha" operator="out"/>
<feColorMatrix type="matrix" values="0 0 0 0 0 0 0 0 0 0 0 0 0 0 0 0 0 0 0.25 0"/>
<feBlend mode="normal" in2="BackgroundImageFix" result="effect1_dropShadow_668_1061"/>
<feBlend mode="normal" in="SourceGraphic" in2="effect1_dropShadow_668_1061" result="shape"/>
</filter>
<filter id="filter2_d_668_1061" x="232.033" y="317.82" width="27.1475" height="30.703" filterUnits="userSpaceOnUse" color-interpolation-filters="sRGB">
<feFlood flood-opacity="0" result="BackgroundImageFix"/>
<feColorMatrix in="SourceAlpha" type="matrix" values="0 0 0 0 0 0 0 0 0 0 0 0 0 0 0 0 0 0 127 0" result="hardAlpha"/>
<feOffset dx="-0.393443" dy="0.393443"/>
<feGaussianBlur stdDeviation="0.786885"/>
<feComposite in2="hardAlpha" operator="out"/>
<feColorMatrix type="matrix" values="0 0 0 0 0 0 0 0 0 0 0 0 0 0 0 0 0 0 0.25 0"/>
<feBlend mode="normal" in2="BackgroundImageFix" result="effect1_dropShadow_668_1061"/>
<feBlend mode="normal" in="SourceGraphic" in2="effect1_dropShadow_668_1061" result="shape"/>
</filter>
<filter id="filter3_d_668_1061" x="262.033" y="301.82" width="27.1475" height="30.703" filterUnits="userSpaceOnUse" color-interpolation-filters="sRGB">
<feFlood flood-opacity="0" result="BackgroundImageFix"/>
<feColorMatrix in="SourceAlpha" type="matrix" values="0 0 0 0 0 0 0 0 0 0 0 0 0 0 0 0 0 0 127 0" result="hardAlpha"/>
<feOffset dx="-0.393443" dy="0.393443"/>
<feGaussianBlur stdDeviation="0.786885"/>
<feComposite in2="hardAlpha" operator="out"/>
<feColorMatrix type="matrix" values="0 0 0 0 0 0 0 0 0 0 0 0 0 0 0 0 0 0 0.25 0"/>
<feBlend mode="normal" in2="BackgroundImageFix" result="effect1_dropShadow_668_1061"/>
<feBlend mode="normal" in="SourceGraphic" in2="effect1_dropShadow_668_1061" result="shape"/>
</filter>
<filter id="filter4_d_668_1061" x="328.033" y="230.82" width="27.1475" height="30.703" filterUnits="userSpaceOnUse" color-interpolation-filters="sRGB">
<feFlood flood-opacity="0" result="BackgroundImageFix"/>
<feColorMatrix in="SourceAlpha" type="matrix" values="0 0 0 0 0 0 0 0 0 0 0 0 0 0 0 0 0 0 127 0" result="hardAlpha"/>
<feOffset dx="-0.393443" dy="0.393443"/>
<feGaussianBlur stdDeviation="0.786885"/>
<feComposite in2="hardAlpha" operator="out"/>
<feColorMatrix type="matrix" values="0 0 0 0 0 0 0 0 0 0 0 0 0 0 0 0 0 0 0.25 0"/>
<feBlend mode="normal" in2="BackgroundImageFix" result="effect1_dropShadow_668_1061"/>
<feBlend mode="normal" in="SourceGraphic" in2="effect1_dropShadow_668_1061" result="shape"/>
</filter>
<filter id="filter5_d_668_1061" x="304.033" y="255.82" width="27.1475" height="30.703" filterUnits="userSpaceOnUse" color-interpolation-filters="sRGB">
<feFlood flood-opacity="0" result="BackgroundImageFix"/>
<feColorMatrix in="SourceAlpha" type="matrix" values="0 0 0 0 0 0 0 0 0 0 0 0 0 0 0 0 0 0 127 0" result="hardAlpha"/>
<feOffset dx="-0.393443" dy="0.393443"/>
<feGaussianBlur stdDeviation="0.786885"/>
<feComposite in2="hardAlpha" operator="out"/>
<feColorMatrix type="matrix" values="0 0 0 0 0 0 0 0 0 0 0 0 0 0 0 0 0 0 0.25 0"/>
<feBlend mode="normal" in2="BackgroundImageFix" result="effect1_dropShadow_668_1061"/>
<feBlend mode="normal" in="SourceGraphic" in2="effect1_dropShadow_668_1061" result="shape"/>
</filter>
<filter id="filter6_d_668_1061" x="78.0328" y="289.82" width="27.1475" height="30.703" filterUnits="userSpaceOnUse" color-interpolation-filters="sRGB">
<feFlood flood-opacity="0" result="BackgroundImageFix"/>
<feColorMatrix in="SourceAlpha" type="matrix" values="0 0 0 0 0 0 0 0 0 0 0 0 0 0 0 0 0 0 127 0" result="hardAlpha"/>
<feOffset dx="-0.393443" dy="0.393443"/>
<feGaussianBlur stdDeviation="0.786885"/>
<feComposite in2="hardAlpha" operator="out"/>
<feColorMatrix type="matrix" values="0 0 0 0 0 0 0 0 0 0 0 0 0 0 0 0 0 0 0.25 0"/>
<feBlend mode="normal" in2="BackgroundImageFix" result="effect1_dropShadow_668_1061"/>
<feBlend mode="normal" in="SourceGraphic" in2="effect1_dropShadow_668_1061" result="shape"/>
</filter>
<clipPath id="clip0_668_1061">
<rect width="559.798" height="514.947" fill="white" transform="translate(484.225 464.89) rotate(-180)"/>
</clipPath>
</defs>
</svg>
