<svg width="849" height="781" viewBox="0 0 849 781" fill="none" xmlns="http://www.w3.org/2000/svg">
<g clip-path="url(#clip0_1117_1651)">
<path d="M416.716 639.973C556.306 639.973 669.473 524.784 669.473 382.693C669.473 369.632 668.481 356.799 666.641 344.249C654.548 262.138 604.365 192.732 534.967 155.254C497.868 136.77 456.28 126.137 412.313 125.456C335.466 126.79 266.989 163.047 221.507 219.279C185.569 263.713 163.975 320.626 163.975 382.679C163.975 524.77 277.141 639.958 416.731 639.958L416.716 639.973ZM314.056 219.818C342.122 202.939 380.424 187.053 435.833 192.845C503.432 199.915 552.03 241.51 577.433 282.282C613.229 339.721 610.001 400.112 610.001 400.112L602.921 401.531L527.165 472.669L497.457 481.74C497.457 481.74 422.536 561.95 395.207 563.369C395.207 563.369 338.128 574.726 319.72 515.102C301.312 455.477 292.816 421.406 292.816 421.406L278.656 402.951L250.336 306.416L244.672 297.898C244.672 297.898 257.416 253.89 314.056 219.818Z" fill="#FAFAFA"/>
<path d="M666.641 344.249C668.481 356.799 669.473 369.632 669.473 382.693C669.473 524.784 556.306 639.973 416.716 639.973L416.731 639.958C277.141 639.958 163.975 524.77 163.975 382.679C163.975 320.626 185.569 263.713 221.507 219.279M666.641 344.249L661.062 345.726M666.641 344.249C654.548 262.138 604.365 192.732 534.967 155.254C497.868 136.77 456.28 126.137 412.313 125.456C335.466 126.79 266.989 163.047 221.507 219.279M221.507 219.279L229.111 226.902M314.056 219.818C342.122 202.939 380.424 187.053 435.833 192.845C503.432 199.915 552.03 241.51 577.433 282.282C613.229 339.721 610.001 400.112 610.001 400.112L602.921 401.531L527.165 472.669L497.457 481.74C497.457 481.74 422.536 561.95 395.207 563.369C395.207 563.369 338.128 574.726 319.72 515.102C301.312 455.477 292.816 421.406 292.816 421.406L278.656 402.951L250.336 306.416L244.672 297.898C244.672 297.898 257.416 253.89 314.056 219.818Z" stroke="#605B53" stroke-width="0.5" stroke-miterlimit="10"/>
<path d="M407.867 710.301C567.209 710.301 696.377 579.369 696.377 417.857C696.377 390.6 692.695 364.209 685.814 339.181L666.641 344.249C668.482 356.785 669.473 369.618 669.473 382.693C669.473 524.784 556.306 639.973 416.717 639.973C277.127 639.973 163.961 524.784 163.961 382.693C163.961 320.641 185.555 263.728 221.493 219.293L208.607 206.375C153.624 259.625 119.357 334.681 119.357 417.857C119.357 579.369 248.524 710.301 407.867 710.301Z" fill="#FFFAF8" stroke="#605B53" stroke-width="0.5" stroke-miterlimit="10"/>
<path d="M278.657 402.951L292.817 421.406C292.817 421.406 301.313 455.477 319.721 515.102C338.129 574.726 395.208 563.369 395.208 563.369C422.551 561.95 497.457 481.741 497.457 481.741L527.165 472.669L602.921 401.531L610.001 400.112C610.001 400.112 613.229 339.721 577.433 282.282C552.03 241.51 503.433 199.915 435.833 192.845C380.425 187.053 342.122 202.939 314.057 219.818C257.417 253.89 244.673 297.898 244.673 297.898L250.337 306.416L278.657 402.951Z" fill="#B7E689" stroke="#605B53" stroke-width="0.5" stroke-miterlimit="10"/>
<path d="M476.854 469.418C472.281 425.551 438.849 390.316 396.043 387.505C365.444 385.504 337.449 400.566 320.231 424.984L378.485 524.329L476.854 469.418Z" fill="#FAFAFA"/>
<path d="M379.099 519.097L444.051 481.501L406.517 416.324L341.565 453.92L379.099 519.097Z" fill="#B7E589"/>
<path d="M404.681 584.664L404.681 580.164C404.681 580.164 372.113 578.985 360.785 574.726C349.457 570.467 323.969 557.691 323.969 557.691L321.137 561.95C321.137 561.95 243.257 458.317 270.161 402.951L243.257 312.095L230.513 304.996C230.513 304.996 308.393 131.801 493.889 201.363C493.889 201.363 625.578 248.211 615.666 415.728L600.09 414.308L530.705 481.031C530.705 481.031 506.633 537.816 455.657 559.11L404.681 584.664Z" stroke="#605B53" stroke-width="0.5" stroke-miterlimit="10"/>
<path d="M407.867 614.377L404.681 580.149C404.681 580.149 372.113 578.971 360.785 574.712C349.457 570.453 323.969 557.677 323.969 557.677L302.871 584.65C302.871 584.65 338.129 605.944 357.953 608.783C357.953 608.783 385.565 615.697 407.867 614.362L407.867 614.377Z" fill="#FFC8AF" stroke="#605B53" stroke-width="0.5" stroke-miterlimit="10"/>
<path d="M409.34 586.126L409.34 603.005L461.321 578.985L454.241 563.369L409.34 586.126Z" fill="#FFA47C" stroke="#605B53" stroke-width="0.5" stroke-miterlimit="10"/>
<path d="M314.298 561.055L305.448 575.408L273.829 527.58L288.031 518.026L314.298 561.055Z" fill="#FFA47C" stroke="#605B53" stroke-width="0.5" stroke-miterlimit="10"/>
<path d="M423.358 571.561L420.965 565.499L503.093 490.258L527.165 481.74C527.165 481.74 516.545 513.682 483.977 537.816C451.409 561.95 423.358 571.561 423.358 571.561Z" fill="#FFDCCD" stroke="#605B53" stroke-width="0.5" stroke-miterlimit="10"/>
<path d="M316.889 536.396L312.641 539.236C312.641 539.236 277.481 488.115 273.828 462.575C270.175 437.036 273.828 411.014 273.828 411.014L284.321 425.665L316.889 536.396Z" fill="#FFDCCD" stroke="#605B53" stroke-width="0.5" stroke-miterlimit="10"/>
<path d="M378.485 509.423C371.837 509.423 366.448 514.826 366.448 521.49C366.448 528.154 371.837 533.557 378.485 533.557C385.132 533.557 390.521 528.154 390.521 521.49C390.521 514.826 385.132 509.423 378.485 509.423Z" fill="#FAFAFA"/>
<path d="M435.833 484.58C435.833 485.304 435.903 485.999 436.031 486.695L444.428 481.84L440.52 475.054C437.673 477.255 435.847 480.704 435.847 484.594L435.833 484.58Z" fill="#FAFAFA"/>
<path d="M408.221 424.245C409.198 424.245 410.146 424.118 411.053 423.89L406.465 415.926L399.187 420.143C401.396 422.655 404.61 424.245 408.207 424.245L408.221 424.245Z" fill="#FAFAFA"/>
<path d="M347.857 449.87L341.032 453.816L344.728 460.233C346.781 458.075 348.041 455.151 348.041 451.928C348.041 451.218 347.97 450.537 347.857 449.87Z" fill="#FAFAFA"/>
<path d="M661.062 406.94L625.578 404.37C625.578 404.37 646.818 194.464 420.965 172.36C420.965 172.36 283.514 168.484 227.993 285.718L196.529 270.925C196.529 270.925 247.505 136.798 420.257 130.751C593.01 124.703 668.143 310.405 661.062 406.94Z" fill="#FFF5F1" stroke="#605B53" stroke-width="0.5" stroke-miterlimit="10"/>
<path d="M848.598 318.298L782.754 130.609L761.202 0.528043L848.598 0.528051L848.598 318.298Z" fill="#E0EECE" stroke="#605B53" stroke-width="0.5" stroke-miterlimit="10"/>
<path d="M29.4404 598.86L13.8644 601.699L1.31868 528.446L1.31869 442.814L29.4404 598.86Z" fill="#CBE6BD" stroke="#605B53" stroke-width="0.5" stroke-miterlimit="10"/>
<path d="M390.521 463.995C385.828 463.995 382.025 467.808 382.025 472.513C382.025 477.217 385.828 481.031 390.521 481.031C395.213 481.031 399.017 477.217 399.017 472.513C399.017 467.808 395.213 463.995 390.521 463.995Z" fill="#FAFAFA"/>
<path d="M409.34 607.065L410.472 614.547L433.015 631.511C433.015 631.511 512.311 628.672 581.695 567.628C651.079 506.584 661.076 421.051 661.076 421.051L601.519 417.147L533.551 482.45C533.551 482.45 516.559 522.2 491.071 540.655C465.583 559.11 457.087 561.95 457.087 561.95L466.192 583.187L409.354 607.08L409.34 607.065Z" fill="#FFA47C" stroke="#605B53" stroke-width="0.5" stroke-miterlimit="10"/>
<path d="M302.601 578.091L297.645 583.798L269.552 585.984C269.552 585.984 204.147 540.939 178.262 452.098C152.378 363.258 189.718 285.703 189.718 285.703L239.008 314.919L265.912 401.517C265.912 401.517 251.752 431.329 267.328 472.499C278.472 501.97 286.473 514.321 286.473 514.321L267.428 527.339L302.615 578.062L302.601 578.091Z" fill="#FFA47C" stroke="#605B53" stroke-width="0.5" stroke-miterlimit="10"/>
</g>
<g filter="url(#filter0_d_1117_1651)">
<path fill-rule="evenodd" clip-rule="evenodd" d="M612.312 471.873C612.701 471.2 613.338 470.71 614.077 470.466C626.23 466.45 635 454.999 635 441.5C635 424.655 621.345 411 604.5 411C587.655 411 574 424.655 574 441.5C574 455.454 583.37 467.219 596.162 470.846C596.956 471.071 597.646 471.577 598.059 472.292L602.13 479.343C603.434 481.602 606.695 481.602 608 479.343L612.312 471.873Z" fill="white"/>
</g>
<circle cx="603.982" cy="440.981" r="25.9815" fill="#FF4E00"/>
<path d="M608.333 433.25V442.917H611.958V452.583H614.375V428.417C611.04 428.417 608.333 431.123 608.333 433.25ZM602.292 436.875H599.875V428.417H597.458V436.875H595.042V428.417H592.625V436.875C592.625 439.545 594.788 441.708 597.458 441.708V452.583H599.875V441.708C602.545 441.708 604.708 439.545 604.708 436.875V428.417H602.292V436.875Z" fill="#FAFAFA"/>
<path d="M603.398 494.547V496.11H590.392V494.547H603.398ZM597.884 492.983V495.127H595.884V492.983H597.884ZM602 492.149V493.669H592.022V492.149H602ZM601.878 487.558V489.099H594.011V493.006H592.022V487.558H601.878ZM601.547 489.89V491.337H593.442V489.89H601.547ZM596.884 496.757C597.926 496.757 598.818 496.847 599.558 497.028C600.298 497.208 600.862 497.473 601.249 497.823C601.639 498.173 601.836 498.597 601.84 499.094C601.836 499.599 601.639 500.026 601.249 500.376C600.862 500.729 600.298 500.994 599.558 501.171C598.821 501.352 597.93 501.44 596.884 501.436C595.823 501.44 594.921 501.352 594.177 501.171C593.436 500.994 592.873 500.731 592.486 500.381C592.099 500.031 591.906 499.602 591.906 499.094C591.906 498.597 592.099 498.173 592.486 497.823C592.877 497.473 593.444 497.208 594.188 497.028C594.932 496.847 595.831 496.757 596.884 496.757ZM596.884 498.232C596.195 498.232 595.632 498.263 595.193 498.326C594.755 498.385 594.429 498.479 594.215 498.608C594.002 498.733 593.897 498.895 593.901 499.094C593.897 499.297 594.002 499.462 594.215 499.591C594.429 499.72 594.755 499.816 595.193 499.878C595.632 499.937 596.195 499.965 596.884 499.961C597.562 499.965 598.116 499.937 598.547 499.878C598.982 499.816 599.304 499.72 599.514 499.591C599.727 499.462 599.836 499.297 599.84 499.094C599.836 498.895 599.727 498.733 599.514 498.608C599.3 498.479 598.978 498.385 598.547 498.326C598.116 498.263 597.562 498.232 596.884 498.232ZM615.685 487.21V495.011H613.685V487.21H615.685ZM617.597 490.21V491.873H615.122V490.21H617.597ZM606.801 487.934V489.652H609.718V487.934H611.707V494.497H604.823V487.934H606.801ZM606.801 492.934H609.718V491.193H606.801V492.934ZM608.332 495.619V496.912H613.685V495.619H615.685V501.282H606.343V495.619H608.332ZM608.332 499.685H613.685V498.448H608.332V499.685Z" fill="black"/>
<defs>
<filter id="filter0_d_1117_1651" x="569" y="408" width="69" height="78.0369" filterUnits="userSpaceOnUse" color-interpolation-filters="sRGB">
<feFlood flood-opacity="0" result="BackgroundImageFix"/>
<feColorMatrix in="SourceAlpha" type="matrix" values="0 0 0 0 0 0 0 0 0 0 0 0 0 0 0 0 0 0 127 0" result="hardAlpha"/>
<feOffset dx="-1" dy="1"/>
<feGaussianBlur stdDeviation="2"/>
<feComposite in2="hardAlpha" operator="out"/>
<feColorMatrix type="matrix" values="0 0 0 0 0 0 0 0 0 0 0 0 0 0 0 0 0 0 0.25 0"/>
<feBlend mode="normal" in2="BackgroundImageFix" result="effect1_dropShadow_1117_1651"/>
<feBlend mode="normal" in="SourceGraphic" in2="effect1_dropShadow_1117_1651" result="shape"/>
</filter>
<clipPath id="clip0_1117_1651">
<rect width="847.986" height="780.045" fill="white" transform="translate(848.951 780.218) rotate(-180)"/>
</clipPath>
</defs>
</svg>
