<svg width="740" height="681" viewBox="0 0 740 681" fill="none" xmlns="http://www.w3.org/2000/svg">
<g clip-path="url(#clip0_1117_1619)">
<path d="M362.878 558.038C484.416 558.038 582.947 457.746 582.947 334.03C582.947 322.659 582.084 311.485 580.482 300.558C569.953 229.066 526.26 168.636 465.836 136.004C433.535 119.911 397.325 110.653 359.044 110.06C292.136 111.222 232.514 142.79 192.914 191.75C161.623 230.438 142.822 279.991 142.822 334.018C142.822 457.733 241.354 558.025 362.891 558.025L362.878 558.038ZM273.495 192.219C297.93 177.523 331.28 163.692 379.522 168.735C438.38 174.89 480.692 211.106 502.81 246.605C533.977 296.615 531.166 349.197 531.166 349.197L525.002 350.433L459.043 412.371L433.177 420.269C433.177 420.269 367.946 490.105 344.151 491.341C344.151 491.341 294.454 501.229 278.426 449.316C262.399 397.402 255.001 367.737 255.001 367.737L242.673 351.669L218.015 267.618L213.084 260.202C213.084 260.202 224.18 221.884 273.495 192.219Z" fill="#FAFAFA"/>
<path d="M580.482 300.558C582.084 311.485 582.947 322.659 582.947 334.03C582.947 457.746 484.416 558.038 362.878 558.038L362.891 558.025C241.354 558.025 142.822 457.733 142.822 334.018C142.822 279.991 161.623 230.438 192.914 191.75M580.482 300.558L575.624 301.844M580.482 300.558C569.953 229.066 526.26 168.636 465.836 136.004C433.535 119.911 397.325 110.653 359.044 110.06C292.136 111.222 232.514 142.79 192.914 191.75M192.914 191.75L199.534 198.387M273.495 192.219C297.93 177.523 331.28 163.692 379.522 168.735C438.38 174.89 480.692 211.106 502.81 246.605C533.977 296.615 531.166 349.197 531.166 349.197L525.002 350.433L459.043 412.371L433.177 420.269C433.177 420.269 367.946 490.105 344.151 491.341C344.151 491.341 294.454 501.229 278.426 449.316C262.399 397.402 255.001 367.737 255.001 367.737L242.673 351.669L218.015 267.618L213.084 260.202C213.084 260.202 224.18 221.884 273.495 192.219Z" stroke="#605B53" stroke-width="0.5" stroke-miterlimit="10"/>
<path d="M355.173 619.271C493.909 619.271 606.372 505.271 606.372 364.647C606.372 340.915 603.167 317.937 597.175 296.146L580.482 300.558C582.084 311.472 582.947 322.646 582.947 334.03C582.947 457.746 484.416 558.038 362.878 558.038C241.341 558.038 142.81 457.745 142.81 334.03C142.81 280.003 161.611 230.45 192.902 191.762L181.682 180.514C133.81 226.878 103.974 292.227 103.974 364.647C103.974 505.271 216.437 619.271 355.173 619.271Z" fill="#FFFAF8" stroke="#605B53" stroke-width="0.5" stroke-miterlimit="10"/>
<path d="M242.673 351.668L255.002 367.737C255.002 367.737 262.399 397.402 278.427 449.316C294.454 501.229 344.151 491.341 344.151 491.341C367.958 490.105 433.178 420.269 433.178 420.269L459.043 412.37L525.002 350.432L531.167 349.196C531.167 349.196 533.978 296.615 502.811 246.605C480.693 211.106 438.38 174.89 379.523 168.734C331.28 163.691 297.931 177.523 273.495 192.219C224.18 221.884 213.084 260.201 213.084 260.201L218.016 267.618L242.673 351.668Z" fill="#B7E689" stroke="#605B53" stroke-width="0.5" stroke-miterlimit="10"/>
<path d="M415.239 409.54C411.257 371.346 382.149 340.668 344.879 338.22C318.236 336.477 293.862 349.592 278.871 370.852L329.591 457.35L415.239 409.54Z" fill="#FAFAFA"/>
<path d="M330.126 452.794L386.678 420.06L353.998 363.312L297.446 396.046L330.126 452.794Z" fill="#B7E589"/>
<path d="M352.399 509.882L352.399 505.963C352.399 505.963 324.043 504.937 314.18 501.229C304.316 497.521 282.125 486.397 282.125 486.397L279.659 490.105C279.659 490.105 211.851 399.874 235.275 351.668L211.851 272.562L200.755 266.382C200.755 266.382 268.563 115.585 430.07 176.151C430.07 176.151 544.728 216.94 536.098 362.793L522.536 361.557L462.125 419.651C462.125 419.651 441.166 469.092 396.782 487.633L352.399 509.882Z" stroke="#605B53" stroke-width="0.5" stroke-miterlimit="10"/>
<path d="M355.173 535.752L352.399 505.951C352.399 505.951 324.043 504.925 314.18 501.217C304.317 497.509 282.125 486.384 282.125 486.384L263.755 509.869C263.755 509.869 294.454 528.41 311.714 530.882C311.714 530.882 335.755 536.901 355.173 535.74L355.173 535.752Z" fill="#FFC8AF" stroke="#605B53" stroke-width="0.5" stroke-miterlimit="10"/>
<path d="M356.455 511.155L356.455 525.851L401.714 504.938L395.549 491.341L356.455 511.155Z" fill="#FFA47C" stroke="#605B53" stroke-width="0.5" stroke-miterlimit="10"/>
<path d="M273.704 489.326L265.999 501.823L238.468 460.181L250.834 451.862L273.704 489.326Z" fill="#FFA47C" stroke="#605B53" stroke-width="0.5" stroke-miterlimit="10"/>
<path d="M368.661 498.473L366.577 493.195L438.084 427.685L459.043 420.269C459.043 420.269 449.796 448.08 421.44 469.092C393.084 490.105 368.661 498.473 368.661 498.473Z" fill="#FFDCCD" stroke="#605B53" stroke-width="0.5" stroke-miterlimit="10"/>
<path d="M275.961 467.856L272.262 470.328C272.262 470.328 241.65 425.819 238.469 403.582C235.288 381.346 238.469 358.689 238.469 358.689L247.605 371.445L275.961 467.856Z" fill="#FFDCCD" stroke="#605B53" stroke-width="0.5" stroke-miterlimit="10"/>
<path d="M329.591 444.372C323.803 444.372 319.111 449.075 319.111 454.878C319.111 460.68 323.803 465.384 329.591 465.384C335.378 465.384 340.07 460.68 340.07 454.878C340.07 449.075 335.378 444.372 329.591 444.372Z" fill="#FAFAFA"/>
<path d="M379.522 422.741C379.522 423.371 379.584 423.977 379.695 424.583L387.006 420.355L383.603 414.447C381.125 416.363 379.535 419.366 379.535 422.753L379.522 422.741Z" fill="#FAFAFA"/>
<path d="M355.482 370.209C356.332 370.209 357.158 370.098 357.947 369.9L353.953 362.966L347.616 366.637C349.539 368.825 352.338 370.209 355.469 370.209L355.482 370.209Z" fill="#FAFAFA"/>
<path d="M302.924 392.52L296.981 395.956L300.199 401.543C301.987 399.664 303.084 397.118 303.084 394.312C303.084 393.694 303.022 393.101 302.924 392.52Z" fill="#FAFAFA"/>
<path d="M575.624 355.142L544.728 352.905C544.728 352.905 563.222 170.144 366.577 150.899C366.577 150.899 246.902 147.524 198.561 249.596L171.166 236.717C171.166 236.717 215.55 119.936 365.961 114.67C516.372 109.405 581.789 271.091 575.624 355.142Z" fill="#FFF5F1" stroke="#605B53" stroke-width="0.5" stroke-miterlimit="10"/>
<path d="M738.906 659.146L681.577 198.4L685.276 197.164L738.906 349.197L738.906 659.146Z" fill="#E0EECE" stroke="#605B53" stroke-width="0.5" stroke-miterlimit="10"/>
<path d="M738.906 277.963L681.577 114.547L662.813 1.28817L738.906 1.28818L738.906 277.963Z" fill="#E0EECE" stroke="#605B53" stroke-width="0.5" stroke-miterlimit="10"/>
<path d="M340.071 404.818C335.985 404.818 332.673 408.139 332.673 412.234C332.673 416.33 335.985 419.651 340.071 419.651C344.156 419.651 347.468 416.33 347.468 412.234C347.468 408.139 344.156 404.818 340.071 404.818Z" fill="#FAFAFA"/>
<path d="M356.456 529.386L357.442 535.9L377.069 550.671C377.069 550.671 446.11 548.199 506.522 495.049C566.933 441.899 575.637 367.428 575.637 367.428L523.782 364.029L464.604 420.887C464.604 420.887 449.809 455.496 427.617 471.564C405.425 487.633 398.028 490.105 398.028 490.105L405.956 508.596L356.468 529.399L356.456 529.386Z" fill="#FFA47C" stroke="#605B53" stroke-width="0.5" stroke-miterlimit="10"/>
<path d="M263.521 504.159L259.206 509.128L234.745 511.031C234.745 511.031 177.799 471.812 155.262 394.46C132.725 317.109 165.236 249.584 165.236 249.584L208.152 275.022L231.577 350.42C231.577 350.42 219.248 376.377 232.81 412.222C242.513 437.882 249.478 448.636 249.478 448.636L232.896 459.97L263.533 504.134L263.521 504.159Z" fill="#FFA47C" stroke="#605B53" stroke-width="0.5" stroke-miterlimit="10"/>
</g>
<path d="M149.26 331.575C149.256 332.477 149.103 333.324 148.801 334.116C148.499 334.908 148.044 335.602 147.436 336.199C146.829 336.792 146.083 337.232 145.199 337.519L144.166 335.928C144.936 335.689 145.578 335.344 146.094 334.895C146.61 334.442 146.991 333.932 147.238 333.365C147.488 332.797 147.615 332.201 147.619 331.575V330.575H149.26V331.575ZM149.641 331.569C149.641 332.147 149.757 332.7 149.989 333.227C150.225 333.75 150.593 334.221 151.094 334.641C151.595 335.061 152.219 335.385 152.967 335.613L151.972 337.199C151.099 336.926 150.363 336.508 149.762 335.945C149.166 335.381 148.72 334.726 148.425 333.978C148.134 333.227 147.991 332.424 147.994 331.569V330.575H149.641V331.569ZM152.47 330.05V331.641H144.724V330.05H152.47ZM155.707 329.21V337.464H153.707V329.21H155.707ZM157.619 332.442V334.061H155.144V332.442H157.619ZM155.707 338.022V343.282H146.409V338.022H155.707ZM148.376 339.597V341.685H153.735V339.597H148.376ZM170.282 329.21V336.414H168.304V329.21H170.282ZM170.304 337.039V340.884H162.741V342.348H160.796V339.414H168.315V338.58H160.763V337.039H170.304ZM170.691 341.773V343.343H160.796V341.773H170.691ZM163.431 330.619C163.427 331.521 163.271 332.365 162.962 333.149C162.656 333.93 162.195 334.61 161.58 335.188C160.969 335.766 160.218 336.188 159.326 336.453L158.337 334.895C159.1 334.663 159.739 334.328 160.254 333.89C160.77 333.448 161.151 332.945 161.398 332.381C161.648 331.818 161.776 331.23 161.779 330.619V329.53H163.431V330.619ZM163.846 330.619C163.842 331.219 163.96 331.785 164.199 332.315C164.442 332.842 164.814 333.313 165.315 333.729C165.82 334.142 166.45 334.457 167.205 334.674L166.227 336.21C165.339 335.948 164.593 335.543 163.989 334.994C163.389 334.446 162.938 333.799 162.636 333.055C162.334 332.308 162.184 331.495 162.188 330.619V329.53H163.846V330.619ZM178.133 336.497V339.635H176.133V336.497H178.133ZM184.426 329.232V339.978H182.426V329.232H184.426ZM184.741 341.586V343.193H174.139V341.586H184.741ZM176.133 338.945V342.011H174.139V338.945H176.133ZM172.321 335.536H172.453C174.295 335.521 175.93 335.486 177.36 335.431C178.789 335.376 180.153 335.265 181.453 335.099L181.57 336.53C180.616 336.689 179.617 336.812 178.575 336.901C177.536 336.985 176.531 337.042 175.558 337.072C174.586 337.098 173.586 337.11 172.558 337.11L172.321 335.536ZM182.879 337.481V338.84H179.708V337.481H182.879ZM176.951 329.713C177.632 329.713 178.242 329.82 178.779 330.033C179.317 330.247 179.739 330.549 180.045 330.939C180.35 331.326 180.503 331.768 180.503 332.265C180.503 332.766 180.352 333.206 180.05 333.586C179.748 333.965 179.326 334.258 178.785 334.464C178.247 334.67 177.636 334.773 176.951 334.773C176.251 334.773 175.63 334.67 175.089 334.464C174.551 334.258 174.131 333.965 173.829 333.586C173.527 333.206 173.376 332.766 173.376 332.265C173.376 331.768 173.527 331.326 173.829 330.939C174.131 330.549 174.553 330.247 175.094 330.033C175.636 329.82 176.255 329.713 176.951 329.713ZM176.951 331.171C176.612 331.171 176.315 331.214 176.061 331.298C175.807 331.383 175.61 331.508 175.47 331.674C175.334 331.836 175.266 332.033 175.266 332.265C175.266 332.49 175.334 332.683 175.47 332.845C175.61 333.004 175.807 333.125 176.061 333.21C176.315 333.291 176.612 333.331 176.951 333.331C177.275 333.331 177.56 333.291 177.807 333.21C178.054 333.125 178.249 333.004 178.393 332.845C178.536 332.683 178.608 332.49 178.608 332.265C178.608 332.033 178.536 331.836 178.393 331.674C178.253 331.508 178.058 331.383 177.807 331.298C177.56 331.214 177.275 331.171 176.951 331.171ZM199.481 331.381V333.006H197.023V331.381H199.481ZM199.481 334.597V336.227H197.023V334.597H199.481ZM191.255 331.304C191.251 332.265 191.1 333.157 190.802 333.978C190.507 334.799 190.06 335.516 189.459 336.127C188.863 336.735 188.126 337.186 187.249 337.481L186.177 335.923C186.947 335.669 187.586 335.306 188.095 334.834C188.603 334.363 188.979 333.827 189.222 333.227C189.468 332.622 189.594 331.982 189.597 331.304V330.044H191.255V331.304ZM191.603 331.508C191.599 332.098 191.713 332.657 191.945 333.188C192.181 333.718 192.544 334.19 193.034 334.602C193.527 335.011 194.141 335.326 194.874 335.547L193.807 337.077C192.971 336.808 192.268 336.4 191.697 335.851C191.13 335.302 190.704 334.657 190.421 333.917C190.137 333.177 189.995 332.374 189.995 331.508V330.044H191.603V331.508ZM197.642 329.21V338.735H195.642V329.21H197.642ZM193.807 338.414C193.807 339.258 193.592 340.024 193.161 340.713C192.734 341.398 192.111 341.971 191.293 342.431C190.476 342.895 189.498 343.21 188.36 343.376L187.581 341.851C188.557 341.715 189.384 341.475 190.061 341.133C190.743 340.786 191.249 340.379 191.581 339.912C191.916 339.444 192.085 338.945 192.089 338.414V338.028H193.807V338.414ZM194.067 338.414C194.063 338.941 194.231 339.438 194.57 339.906C194.912 340.374 195.426 340.781 196.111 341.127C196.8 341.473 197.634 341.715 198.614 341.851L197.829 343.376C196.684 343.21 195.7 342.895 194.879 342.431C194.061 341.971 193.439 341.398 193.012 340.713C192.588 340.024 192.378 339.258 192.382 338.414V338.028H194.067V338.414Z" fill="black"/>
<g filter="url(#filter0_d_1117_1619)">
<path fill-rule="evenodd" clip-rule="evenodd" d="M180.312 313.873C180.701 313.2 181.338 312.71 182.077 312.466C194.23 308.45 203 296.999 203 283.5C203 266.655 189.345 253 172.5 253C155.655 253 142 266.655 142 283.5C142 297.454 151.37 309.219 164.162 312.846C164.956 313.071 165.646 313.577 166.059 314.292L170.13 321.343C171.434 323.602 174.695 323.602 176 321.343L180.312 313.873Z" fill="white"/>
</g>
<circle cx="171.981" cy="282.981" r="25.9815" fill="#FF4E00"/>
<path d="M176.333 275.25V284.917H179.958V294.583H182.375V270.417C179.04 270.417 176.333 273.123 176.333 275.25ZM170.292 278.875H167.875V270.417H165.458V278.875H163.042V270.417H160.625V278.875C160.625 281.545 162.788 283.708 165.458 283.708V294.583H167.875V283.708C170.545 283.708 172.708 281.545 172.708 278.875V270.417H170.292V278.875Z" fill="#FAFAFA"/>
<defs>
<filter id="filter0_d_1117_1619" x="137" y="250" width="69" height="78.0369" filterUnits="userSpaceOnUse" color-interpolation-filters="sRGB">
<feFlood flood-opacity="0" result="BackgroundImageFix"/>
<feColorMatrix in="SourceAlpha" type="matrix" values="0 0 0 0 0 0 0 0 0 0 0 0 0 0 0 0 0 0 127 0" result="hardAlpha"/>
<feOffset dx="-1" dy="1"/>
<feGaussianBlur stdDeviation="2"/>
<feComposite in2="hardAlpha" operator="out"/>
<feColorMatrix type="matrix" values="0 0 0 0 0 0 0 0 0 0 0 0 0 0 0 0 0 0 0.25 0"/>
<feBlend mode="normal" in2="BackgroundImageFix" result="effect1_dropShadow_1117_1619"/>
<feBlend mode="normal" in="SourceGraphic" in2="effect1_dropShadow_1117_1619" result="shape"/>
</filter>
<clipPath id="clip0_1117_1619">
<rect width="738.322" height="679.167" fill="white" transform="translate(739.215 680.146) rotate(-180)"/>
</clipPath>
</defs>
</svg>
