<svg width="40" height="40" viewBox="0 0 40 40" fill="none" xmlns="http://www.w3.org/2000/svg">
<path d="M29.1667 34.1667H5.83333V10.8333H20.8333V7.5H5.83333C4 7.5 2.5 9 2.5 10.8333V34.1667C2.5 36 4 37.5 5.83333 37.5H29.1667C31 37.5 32.5 36 32.5 34.1667V19.1667H29.1667V34.1667ZM16.1833 28.8833L12.9167 24.95L8.33333 30.8333H26.6667L20.7667 22.9833L16.1833 28.8833ZM32.5 7.5V2.5H29.1667V7.5H24.1667C24.1833 7.51667 24.1667 10.8333 24.1667 10.8333H29.1667V15.8167C29.1833 15.8333 32.5 15.8167 32.5 15.8167V10.8333H37.5V7.5H32.5Z" fill="#FFE4D8"/>
</svg>
