<svg width="338" height="160" viewBox="0 0 338 160" fill="none" xmlns="http://www.w3.org/2000/svg">
<rect width="338" height="160" fill="#F5F5F5"/>
<g clip-path="url(#clip0_190_2042)">
<rect width="390" height="1670" transform="translate(-28 -1075)" fill="#FAFAFA"/>
<path d="M-28 -522C-28 -527.523 -23.5228 -532 -18 -532H352C357.523 -532 362 -527.523 362 -522V595H-28V-522Z" fill="white"/>
<rect width="338" height="160" rx="10" fill="#D9D9D9"/>
<path d="M33.2707 118.812C33.2707 120.337 33.1123 121.785 32.7956 123.155C32.4788 124.525 31.9521 125.773 31.2155 126.901C30.4788 128.02 29.5101 128.897 28.3094 129.53L26.442 127.055C27.4512 126.51 28.2799 125.792 28.9282 124.901C29.5838 124.002 30.0589 123.033 30.3536 121.994C30.6483 120.948 30.7956 119.888 30.7956 118.812V116.823H33.2707V118.812ZM34.0442 118.812C34.0368 119.836 34.14 120.864 34.3536 121.895C34.5672 122.926 34.9503 123.921 35.5028 124.878C36.0626 125.829 36.814 126.628 37.7569 127.276L36.1657 129.818C34.9945 129.103 34.07 128.138 33.3923 126.923C32.7219 125.7 32.2578 124.4 32 123.022C31.7495 121.645 31.628 120.241 31.6354 118.812V116.823H34.0442V118.812ZM40.7403 118.812C40.733 120.293 40.6004 121.722 40.3425 123.099C40.0847 124.477 39.6169 125.766 38.9392 126.967C38.2689 128.168 37.3444 129.118 36.1657 129.818L34.6188 127.276C35.5617 126.65 36.3094 125.869 36.8619 124.934C37.4144 123.998 37.7974 123.015 38.0111 121.983C38.2247 120.945 38.3352 119.888 38.3425 118.812V116.823H40.7403V118.812ZM41.6354 118.812C41.628 119.91 41.768 120.982 42.0553 122.028C42.3425 123.066 42.8066 124.031 43.4475 124.923C44.0958 125.814 44.9355 126.525 45.9669 127.055L44.0994 129.53C42.8913 128.89 41.919 128.006 41.1823 126.878C40.4457 125.751 39.919 124.506 39.6022 123.144C39.2928 121.781 39.1418 120.337 39.1492 118.812V116.823H41.6354V118.812ZM49.9558 113.541V130.436H46.4972V113.541H49.9558ZM53.105 120.503V123.42H48.1989V120.503H53.105ZM49.9558 131.608V141.762H46.4972V134.403H30.4199V131.608H49.9558ZM35.7017 115.497V118.304H27.5249V115.497H35.7017ZM44.7182 115.497V118.304H36.7182V115.497H44.7182ZM57.6958 132.215C60.0309 132.215 61.9278 132.179 63.3864 132.105C64.8523 132.024 66.344 131.858 67.8615 131.608L68.1377 134.481C66.576 134.738 65.0291 134.912 63.4969 135C61.972 135.088 60.0383 135.133 57.6958 135.133H55.7731V132.215H57.6958ZM67.1543 116.602V119.365H59.077V133.376H55.7731V116.602H67.1543ZM66.646 123.994V126.713H58.1046V123.994H66.646ZM79.1101 113.541V141.762H75.7731V113.541H79.1101ZM76.9223 124.613V127.42H71.8946V124.613H76.9223ZM72.867 114.028V140.414H69.5742V114.028H72.867ZM106.916 113.541V141.762H103.579V113.541H106.916ZM104.729 124.58V127.431H99.7009V124.58H104.729ZM100.762 114.072V140.359H97.4799V114.072H100.762ZM95.8556 116.867V119.674H82.8059V116.867H95.8556ZM82.2423 132.26C84.7764 132.26 87.2626 132.215 89.7009 132.127C92.1392 132.039 94.316 131.862 96.2313 131.597L96.4191 134.127C94.467 134.525 92.2865 134.794 89.8777 134.934C87.4762 135.066 85.0637 135.133 82.6401 135.133L82.2423 132.26ZM87.9992 118.669V133.066H84.8501V118.669H87.9992ZM93.8224 118.669V133.066H90.6843V118.669H93.8224ZM125.408 115V126.779H111.805V115H125.408ZM115.22 117.785V124.072H121.971V117.785H115.22ZM133.828 113.541V127.895H130.391V113.541H133.828ZM133.828 129.188V136.492H118.612V139.807H115.165V134.006H130.435V131.895H115.143V129.188H133.828ZM134.678 138.768V141.53H115.165V138.768H134.678ZM161.7 113.541V141.829H158.242V113.541H161.7ZM142.197 132.271C144.842 132.278 147.232 132.212 149.369 132.072C151.512 131.924 153.719 131.663 155.987 131.287L156.297 134.127C154.035 134.517 151.811 134.783 149.623 134.923C147.442 135.063 144.967 135.133 142.197 135.133H139.722V132.271H142.197ZM153.004 115.994V126.591H143.302V133.343H139.722V123.829H149.468V118.812H139.7V115.994H153.004Z" fill="white"/>
<rect opacity="0.25" x="262" y="8" width="62" height="35" rx="17.5" fill="white"/>
<path d="M287.264 33.1934C286.302 33.1934 285.438 33.0299 284.674 32.703C283.914 32.3762 283.314 31.9203 282.872 31.3356C282.434 30.7463 282.204 30.0695 282.181 29.3052H284.356C284.379 29.7104 284.52 30.0672 284.778 30.3757C285.035 30.6842 285.378 30.9236 285.807 31.0939C286.239 31.2597 286.718 31.3425 287.243 31.3425C287.809 31.3425 288.316 31.2482 288.762 31.0594C289.214 30.866 289.566 30.5944 289.819 30.2445C290.072 29.89 290.197 29.4894 290.192 29.0428C290.197 28.5732 290.072 28.1565 289.819 27.7928C289.57 27.4291 289.204 27.1459 288.721 26.9434C288.242 26.7408 287.671 26.6395 287.008 26.6395H285.807V24.8854H287.008C287.542 24.8854 288.017 24.791 288.431 24.6022C288.845 24.4134 289.168 24.151 289.398 23.8149C289.633 23.4742 289.75 23.0806 289.75 22.634C289.75 22.2058 289.649 21.8283 289.446 21.5014C289.248 21.1699 288.963 20.9144 288.59 20.7348C288.217 20.5552 287.784 20.4655 287.291 20.4655C286.813 20.4655 286.368 20.5506 285.959 20.721C285.549 20.8867 285.215 21.1262 284.957 21.4392C284.704 21.7523 284.568 22.116 284.55 22.5304H282.478C282.501 21.7799 282.727 21.11 283.155 20.5207C283.587 19.9314 284.168 19.4756 284.895 19.1533C285.627 18.8264 286.433 18.663 287.312 18.663C288.215 18.663 289.006 18.8379 289.688 19.1878C290.374 19.5331 290.903 20.0005 291.276 20.5898C291.649 21.1745 291.833 21.8191 291.829 22.5235C291.833 23.0437 291.732 23.518 291.525 23.9461C291.318 24.3743 291.025 24.7334 290.648 25.0235C290.275 25.3135 289.835 25.5207 289.329 25.645V25.7555C289.964 25.8476 290.51 26.0456 290.965 26.3494C291.421 26.6533 291.769 27.0424 292.008 27.5166C292.248 27.9908 292.365 28.5249 292.36 29.1188C292.365 29.8877 292.146 30.5829 291.704 31.2044C291.267 31.826 290.659 32.314 289.881 32.6685C289.103 33.0184 288.231 33.1934 287.264 33.1934ZM295.067 33V18.8564H303.851V20.7072H297.215V24.9959H303.216V26.8398H297.215V33H295.067Z" fill="white"/>
</g>
<defs>
<clipPath id="clip0_190_2042">
<rect width="390" height="1670" fill="white" transform="translate(-28 -1075)"/>
</clipPath>
</defs>
</svg>
