<svg width="389" height="427" viewBox="0 0 389 427" fill="none" xmlns="http://www.w3.org/2000/svg">
<mask id="mask0_963_1985" style="mask-type:alpha" maskUnits="userSpaceOnUse" x="0" y="0" width="389" height="427">
<rect width="389" height="427" fill="#D9D9D9"/>
</mask>
<g mask="url(#mask0_963_1985)">
<g clip-path="url(#clip0_963_1985)">
<path d="M-34.111 -78.4348L-43.5108 -87.818C-43.5108 -87.818 -283.878 119.954 -109.31 312.981C-109.31 312.981 -5.91154 429.601 229.084 318.343L223.713 304.938C223.713 304.938 412.018 207.701 313.454 -5.9425C296.158 -43.4353 268.228 -75.1507 232.871 -96.5713C174.619 -131.852 76.0818 -163.233 -34.111 -78.4348Z" fill="#FFFAF8" stroke="#605B53" stroke-width="0.5" stroke-miterlimit="10"/>
<path d="M90.7716 233.893L104.2 221.829C104.2 221.829 110.914 215.127 121.657 217.808C132.399 220.489 221.026 237.915 221.026 237.915C221.026 237.915 320.396 166.87 262.654 30.1427C204.912 -106.585 30.3442 -56.9875 30.3442 -56.9875L10.2017 48.9092C10.2017 48.9092 12.8874 63.6543 -16.6549 70.3566L-29.1298 86.0802C-29.1298 86.0802 -71.711 180.275 -38.1402 213.786C-4.56944 247.298 90.7716 233.893 90.7716 233.893Z" fill="#B7E589" stroke="#605B53" stroke-width="0.5" stroke-miterlimit="10"/>
<path d="M19.2256 79.0698L102.132 197.178L225.726 223.853L233.971 220.502C233.971 220.502 307.639 131.361 256.611 32.167C205.584 -67.0274 102.186 -61.6655 102.186 -61.6655C102.186 -61.6655 60.8131 -59.2795 51.279 -53.1L44.444 -46.9204L19.2256 79.0832V79.0698Z" fill="#B7E589"/>
<path d="M33.0303 -97.2012L43.3835 -65.7539C43.3835 -65.7539 188.799 -97.2012 251.912 -6.04964C315.025 85.1019 276.083 181.615 276.083 181.615C276.083 181.615 254.597 232.553 231.769 241.936L242.512 268.745C242.512 268.745 393.433 163.117 287.967 -26.4247C287.967 -26.4247 233.112 -150.82 33.0303 -97.2012Z" fill="#FFF5F1" stroke="#605B53" stroke-width="0.5" stroke-miterlimit="10"/>
<path d="M223.713 304.938L215.656 280.81L147.171 295.555H141.8L102.858 303.597L98.2117 304.938C98.2117 304.938 62.5729 317.002 -5.9115 296.895C-74.3959 276.788 -72.328 268.745 -72.328 268.745L-77.0816 271.426C-77.0816 271.426 -138.852 225.851 -111.995 134.699C-85.1386 43.5474 -55.2337 -14.1998 -12.4377 -65.754L-15.3113 -70.392L20.9451 -93.1799L33.0306 -72.1883L30.345 -61.3707C30.345 -61.3707 6.17399 -39.5614 8.85965 -31.5186L19.6023 -26.1567L12.8881 15.3977L-22.0255 67.6758H-30.0825L-35.2255 79.0697C-35.2255 79.0697 -89.1671 190.998 -36.7966 228.531C15.5738 266.064 93.458 243.277 93.458 243.277L92.8001 237.915L151.2 227.191L212.151 237.915L245.319 291.104" fill="#FFA47C"/>
<path d="M223.713 304.938L215.656 280.81L147.171 295.555H141.8L102.858 303.597L98.2117 304.938C98.2117 304.938 62.5729 317.002 -5.9115 296.895C-74.3959 276.788 -72.328 268.745 -72.328 268.745L-77.0816 271.426C-77.0816 271.426 -138.852 225.851 -111.995 134.699C-85.1386 43.5474 -55.2337 -14.1998 -12.4377 -65.754L-15.3113 -70.392L20.9451 -93.1799L33.0306 -72.1883L30.345 -61.3707C30.345 -61.3707 6.17399 -39.5614 8.85965 -31.5186L19.6023 -26.1567L12.8881 15.3977L-22.0255 67.6758H-30.0825L-35.2255 79.0697C-35.2255 79.0697 -89.1671 190.998 -36.7966 228.531C15.5738 266.064 93.458 243.277 93.458 243.277L92.8001 237.915L151.2 227.191L212.151 237.915L245.319 291.104" stroke="#605B53" stroke-width="0.5" stroke-miterlimit="10"/>
<path d="M210.284 287.512L217.924 308.53C217.924 308.53 98.8286 382.685 -32.7689 337.109C-164.366 291.533 -156.309 150.784 -156.309 150.784C-156.309 150.784 -150.938 40.8663 -43.5115 -74.4136L-27.3976 -61.0089C-27.3976 -61.0089 -188.537 157.487 -110.653 247.298C-110.653 247.298 -93.1963 266.064 -79.768 280.809L-73.0538 278.128C-73.0538 278.128 -34.4474 316.908 84.5677 316.278C84.5677 316.278 187.455 303.597 210.284 287.512Z" fill="#FFC8AF" stroke="#605B53" stroke-width="0.5" stroke-miterlimit="10"/>
<path d="M-253.664 375.647V409.829L-118.763 487.911H122.315L161.942 472.496L191.485 448.368L197.608 439.789C197.608 439.789 124.343 481.879 -19.34 472.496C-163.023 463.113 -253.664 375.647 -253.664 375.647Z" fill="#E0EECE" stroke="#605B53" stroke-width="0.5" stroke-miterlimit="10"/>
<path d="M108.229 198.291C131.299 163.586 128.063 117.782 98.4399 89.9409C77.2634 70.0484 47.7212 64.1504 20.4214 71.5498L3.21973 179.001L108.229 198.291Z" fill="#FAFAFA"/>
<path d="M6.329 175.956L77.0068 187.8L88.9234 116.943L18.2456 105.099L6.329 175.956Z" fill="#B7E589"/>
<path d="M4.93848 188.331C11.2423 188.331 16.3526 183.23 16.3526 176.937C16.3526 170.644 11.2423 165.543 4.93848 165.543C-1.36533 165.543 -6.47559 170.644 -6.47559 176.937C-6.47559 183.23 -1.36533 188.331 4.93848 188.331Z" fill="#FAFAFA"/>
<path d="M69.0987 184.605C68.669 185.127 68.293 185.69 67.9707 186.267L77.0348 187.781L78.2568 180.476C74.846 180.369 71.4352 181.776 69.0987 184.605Z" fill="#FAFAFA"/>
<path d="M85.2394 124.029C85.9511 124.619 86.73 125.088 87.5222 125.476L88.9591 116.911L81.1035 115.597C81.2109 118.747 82.6075 121.857 85.2394 124.015V124.029Z" fill="#FAFAFA"/>
<path d="M25.6578 106.308L18.2857 105.075L17.1309 111.978C19.9374 111.643 22.623 110.276 24.5567 107.93C24.9864 107.421 25.3355 106.871 25.6578 106.308Z" fill="#FAFAFA"/>
<path d="M43.222 156.562C47.6718 156.562 51.279 152.961 51.279 148.519C51.279 144.077 47.6718 140.476 43.222 140.476C38.7723 140.476 35.165 144.077 35.165 148.519C35.165 152.961 38.7723 156.562 43.222 156.562Z" fill="#FAFAFA"/>
<path d="M10.8732 191.669L68.6149 203.733V197.701L90.1002 202.393L73.9863 221.159C73.9863 221.159 72.8986 223.17 69.2863 223.17C67.9435 223.17 65.0833 222.245 62.5722 221.829L-3.22656 209.765L-0.5409 196.361C-0.5409 196.361 6.17326 196.361 10.8732 191.669Z" fill="#FFF5F1" stroke="#605B53" stroke-width="0.5" stroke-miterlimit="10"/>
<path d="M6.17339 106.549L8.85905 90.4636L-16.6547 101.187L-28.7402 170.891L-15.3119 173.572C-15.3119 173.572 -12.6263 169.551 -7.25493 168.211L3.48772 106.549H6.17339Z" fill="#FFF5F1" stroke="#605B53" stroke-width="0.5" stroke-miterlimit="10"/>
</g>
<g filter="url(#filter0_d_963_1985)">
<path fill-rule="evenodd" clip-rule="evenodd" d="M202.312 255.873C202.701 255.2 203.338 254.71 204.077 254.466C216.23 250.45 225 238.999 225 225.5C225 208.655 211.345 195 194.5 195C177.655 195 164 208.655 164 225.5C164 239.454 173.37 251.219 186.162 254.846C186.956 255.071 187.646 255.577 188.059 256.292L192.13 263.343C193.434 265.602 196.695 265.602 198 263.343L202.312 255.873Z" fill="white"/>
</g>
<path d="M173.221 272V273.602H167.072V272H173.221ZM170.856 275.171V278.685H168.873V275.171H170.856ZM174.414 272.917V273.006C174.411 273.672 174.389 274.284 174.348 274.84C174.308 275.396 174.215 276.004 174.072 276.663L172.122 276.508C172.254 275.845 172.337 275.258 172.37 274.746C172.407 274.23 172.427 273.641 172.431 272.978V272.917V272H174.414V272.917ZM177.873 271.21V279.895H175.834V271.21H177.873ZM179.613 274.724V276.376H177.05V274.724H179.613ZM166.238 277.713C167.95 277.709 169.53 277.683 170.978 277.635C172.425 277.584 173.788 277.481 175.066 277.326L175.166 278.718C173.832 278.95 172.433 279.109 170.967 279.193C169.501 279.274 167.982 279.315 166.409 279.315L166.238 277.713ZM173.033 280.055C174.042 280.055 174.917 280.162 175.657 280.376C176.401 280.589 176.974 280.897 177.376 281.298C177.777 281.696 177.978 282.166 177.978 282.707C177.978 283.274 177.777 283.759 177.376 284.16C176.978 284.565 176.407 284.875 175.663 285.088C174.923 285.302 174.046 285.409 173.033 285.409C172.02 285.409 171.142 285.302 170.398 285.088C169.654 284.875 169.081 284.565 168.68 284.16C168.278 283.759 168.077 283.274 168.077 282.707C168.077 282.166 168.278 281.696 168.68 281.298C169.081 280.897 169.654 280.589 170.398 280.376C171.145 280.162 172.024 280.055 173.033 280.055ZM173.033 281.591C172.411 281.591 171.88 281.634 171.442 281.718C171.007 281.803 170.676 281.93 170.448 282.099C170.223 282.265 170.112 282.468 170.116 282.707C170.112 282.972 170.221 283.19 170.442 283.359C170.667 283.525 170.994 283.65 171.425 283.735C171.86 283.816 172.396 283.856 173.033 283.856C173.667 283.856 174.195 283.816 174.619 283.735C175.046 283.65 175.37 283.525 175.591 283.359C175.812 283.19 175.923 282.972 175.923 282.707C175.923 282.468 175.81 282.265 175.586 282.099C175.365 281.93 175.039 281.803 174.608 281.718C174.177 281.634 173.652 281.591 173.033 281.591ZM187.47 273.227C187.47 274.07 187.243 274.842 186.79 275.541C186.337 276.238 185.682 276.821 184.823 277.293C183.965 277.761 182.949 278.076 181.774 278.238L181.039 276.674C182.03 276.552 182.881 276.315 183.591 275.961C184.306 275.608 184.842 275.193 185.199 274.718C185.56 274.239 185.742 273.742 185.746 273.227V272.796H187.47V273.227ZM188.044 273.227C188.041 273.742 188.218 274.239 188.575 274.718C188.932 275.193 189.466 275.608 190.177 275.961C190.892 276.315 191.752 276.552 192.757 276.674L192.033 278.238C190.847 278.076 189.823 277.761 188.962 277.293C188.1 276.821 187.44 276.238 186.984 275.541C186.531 274.842 186.304 274.07 186.304 273.227V272.796H188.044V273.227ZM187.834 280.204V285.442H185.862V280.204H187.834ZM193.376 279.061V280.657H180.404V279.061H193.376ZM192.21 271.967V273.525H181.575V271.967H192.21ZM200.133 278.497V281.635H198.133V278.497H200.133ZM206.426 271.232V281.978H204.426V271.232H206.426ZM206.741 283.586V285.193H196.139V283.586H206.741ZM198.133 280.945V284.011H196.139V280.945H198.133ZM194.321 277.536H194.453C196.295 277.521 197.93 277.486 199.36 277.431C200.789 277.376 202.153 277.265 203.453 277.099L203.57 278.53C202.616 278.689 201.617 278.812 200.575 278.901C199.536 278.985 198.531 279.042 197.558 279.072C196.586 279.098 195.586 279.11 194.558 279.11L194.321 277.536ZM204.879 279.481V280.84H201.708V279.481H204.879ZM198.951 271.713C199.632 271.713 200.242 271.82 200.779 272.033C201.317 272.247 201.739 272.549 202.045 272.939C202.35 273.326 202.503 273.768 202.503 274.265C202.503 274.766 202.352 275.206 202.05 275.586C201.748 275.965 201.326 276.258 200.785 276.464C200.247 276.67 199.636 276.773 198.951 276.773C198.251 276.773 197.63 276.67 197.089 276.464C196.551 276.258 196.131 275.965 195.829 275.586C195.527 275.206 195.376 274.766 195.376 274.265C195.376 273.768 195.527 273.326 195.829 272.939C196.131 272.549 196.553 272.247 197.094 272.033C197.636 271.82 198.255 271.713 198.951 271.713ZM198.951 273.171C198.612 273.171 198.315 273.214 198.061 273.298C197.807 273.383 197.61 273.508 197.47 273.674C197.334 273.836 197.266 274.033 197.266 274.265C197.266 274.49 197.334 274.683 197.47 274.845C197.61 275.004 197.807 275.125 198.061 275.21C198.315 275.291 198.612 275.331 198.951 275.331C199.275 275.331 199.56 275.291 199.807 275.21C200.054 275.125 200.249 275.004 200.393 274.845C200.536 274.683 200.608 274.49 200.608 274.265C200.608 274.033 200.536 273.836 200.393 273.674C200.253 273.508 200.058 273.383 199.807 273.298C199.56 273.214 199.275 273.171 198.951 273.171ZM221.481 273.381V275.006H219.023V273.381H221.481ZM221.481 276.597V278.227H219.023V276.597H221.481ZM213.255 273.304C213.251 274.265 213.1 275.157 212.802 275.978C212.507 276.799 212.06 277.516 211.459 278.127C210.863 278.735 210.126 279.186 209.249 279.481L208.177 277.923C208.947 277.669 209.586 277.306 210.095 276.834C210.603 276.363 210.979 275.827 211.222 275.227C211.468 274.622 211.594 273.982 211.597 273.304V272.044H213.255V273.304ZM213.603 273.508C213.599 274.098 213.713 274.657 213.945 275.188C214.181 275.718 214.544 276.19 215.034 276.602C215.527 277.011 216.141 277.326 216.874 277.547L215.807 279.077C214.971 278.808 214.268 278.4 213.697 277.851C213.13 277.302 212.704 276.657 212.421 275.917C212.137 275.177 211.995 274.374 211.995 273.508V272.044H213.603V273.508ZM219.642 271.21V280.735H217.642V271.21H219.642ZM215.807 280.414C215.807 281.258 215.592 282.024 215.161 282.713C214.734 283.398 214.111 283.971 213.293 284.431C212.476 284.895 211.498 285.21 210.36 285.376L209.581 283.851C210.557 283.715 211.384 283.475 212.061 283.133C212.743 282.786 213.249 282.379 213.581 281.912C213.916 281.444 214.085 280.945 214.089 280.414V280.028H215.807V280.414ZM216.067 280.414C216.063 280.941 216.231 281.438 216.57 281.906C216.912 282.374 217.426 282.781 218.111 283.127C218.8 283.473 219.634 283.715 220.614 283.851L219.829 285.376C218.684 285.21 217.7 284.895 216.879 284.431C216.061 283.971 215.439 283.398 215.012 282.713C214.588 282.024 214.378 281.258 214.382 280.414V280.028H216.067V280.414Z" fill="black"/>
<circle cx="193.981" cy="224.981" r="25.9815" fill="#FF4E00"/>
</g>
<path d="M198.333 217.25V226.917H201.958V236.583H204.375V212.417C201.04 212.417 198.333 215.123 198.333 217.25ZM192.292 220.875H189.875V212.417H187.458V220.875H185.042V212.417H182.625V220.875C182.625 223.545 184.788 225.708 187.458 225.708V236.583H189.875V225.708C192.545 225.708 194.708 223.545 194.708 220.875V212.417H192.292V220.875Z" fill="#FAFAFA"/>
<defs>
<filter id="filter0_d_963_1985" x="159" y="192" width="69" height="78.0371" filterUnits="userSpaceOnUse" color-interpolation-filters="sRGB">
<feFlood flood-opacity="0" result="BackgroundImageFix"/>
<feColorMatrix in="SourceAlpha" type="matrix" values="0 0 0 0 0 0 0 0 0 0 0 0 0 0 0 0 0 0 127 0" result="hardAlpha"/>
<feOffset dx="-1" dy="1"/>
<feGaussianBlur stdDeviation="2"/>
<feComposite in2="hardAlpha" operator="out"/>
<feColorMatrix type="matrix" values="0 0 0 0 0 0 0 0 0 0 0 0 0 0 0 0 0 0 0.25 0"/>
<feBlend mode="normal" in2="BackgroundImageFix" result="effect1_dropShadow_963_1985"/>
<feBlend mode="normal" in="SourceGraphic" in2="effect1_dropShadow_963_1985" result="shape"/>
</filter>
<clipPath id="clip0_963_1985">
<rect width="705" height="798.622" fill="white" transform="translate(-254 -310)"/>
</clipPath>
</defs>
</svg>
