<svg width="389" height="413" viewBox="0 0 389 413" fill="none" xmlns="http://www.w3.org/2000/svg">
<mask id="mask0_698_2184" style="mask-type:alpha" maskUnits="userSpaceOnUse" x="0" y="0" width="391" height="413">
<rect width="391" height="413" fill="#D9D9D9"/>
</mask>
<g mask="url(#mask0_698_2184)">
<g clip-path="url(#clip0_698_2184)">
<path d="M110.013 63.2451L103.387 56.6303C103.387 56.6303 -66.0633 203.102 57.001 339.179C57.001 339.179 129.893 421.392 295.556 342.959L291.77 333.509C291.77 333.509 424.518 264.96 355.034 114.35C342.842 87.9186 323.151 65.5603 298.226 50.4596C257.16 25.5877 187.695 3.46573 110.013 63.2451Z" fill="#FFFAF8" stroke="#605B53" stroke-width="0.5" stroke-miterlimit="10"/>
<path d="M198.052 283.425L207.519 274.921C207.519 274.921 212.252 270.196 219.825 272.086C227.399 273.976 289.877 286.26 289.877 286.26C289.877 286.26 359.929 236.176 319.223 139.789C278.518 43.4006 155.453 78.3649 155.453 78.3649L141.254 153.018C141.254 153.018 143.147 163.413 122.321 168.138L113.526 179.223C113.526 179.223 83.508 245.626 107.174 269.251C130.84 292.875 198.052 283.425 198.052 283.425Z" fill="#B7E589" stroke="#605B53" stroke-width="0.5" stroke-miterlimit="10"/>
<path d="M147.614 174.28L206.06 257.543L293.19 276.348L299.002 273.985C299.002 273.985 350.935 211.144 314.963 141.216C278.99 71.2871 206.098 75.067 206.098 75.067C206.098 75.067 176.932 76.749 170.211 81.1054L165.392 85.4618L147.614 174.29V174.28Z" fill="#B7E589"/>
<path d="M157.346 50.0155L164.644 72.1847C164.644 72.1847 267.157 50.0155 311.649 114.274C356.142 178.533 328.689 246.571 328.689 246.571C328.689 246.571 313.543 282.48 297.45 289.095L305.023 307.995C305.023 307.995 411.417 233.531 337.067 99.9104C337.067 99.9104 298.396 12.2163 157.346 50.0155Z" fill="#FFF5F1" stroke="#605B53" stroke-width="0.5" stroke-miterlimit="10"/>
<path d="M136.122 45.9426L155.453 78.3649" stroke="#605B53" stroke-width="0.5" stroke-miterlimit="10"/>
<path d="M291.771 333.509L286.091 316.5L237.812 326.894H234.025L206.572 332.564L203.297 333.509C203.297 333.509 178.173 342.014 129.894 327.839C81.6145 313.665 83.0723 307.995 83.0723 307.995L79.7212 309.885C79.7212 309.885 36.1754 277.756 55.1083 213.497C74.0413 149.238 95.1232 108.529 125.293 72.1846L123.267 68.915L148.827 52.8503L157.346 67.6487L155.453 75.2747C155.453 75.2747 138.413 90.6495 140.307 96.3194L147.88 100.099L143.147 129.394L118.534 166.248H112.854L109.228 174.28C109.228 174.28 71.2014 253.186 108.121 279.645C145.04 306.105 199.946 290.04 199.946 290.04L199.482 286.26L240.651 278.7L283.62 286.26L307.002 323.757" fill="#FFA47C"/>
<path d="M291.771 333.509L286.091 316.5L237.812 326.894H234.025L206.572 332.564L203.297 333.509C203.297 333.509 178.173 342.014 129.894 327.839C81.6145 313.665 83.0723 307.995 83.0723 307.995L79.7212 309.885C79.7212 309.885 36.1754 277.756 55.1083 213.497C74.0413 149.238 95.1232 108.529 125.293 72.1846L123.267 68.915L148.827 52.8503L157.346 67.6487L155.453 75.2747C155.453 75.2747 138.413 90.6495 140.307 96.3194L147.88 100.099L143.147 129.394L118.534 166.248H112.854L109.228 174.28C109.228 174.28 71.2014 253.186 108.121 279.645C145.04 306.105 199.946 290.04 199.946 290.04L199.482 286.26L240.651 278.7L283.62 286.26L307.002 323.757" stroke="#605B53" stroke-width="0.5" stroke-miterlimit="10"/>
<path d="M282.303 321.225L287.69 336.042C287.69 336.042 203.732 388.318 110.96 356.189C18.1885 324.06 23.8684 224.837 23.8684 224.837C23.8684 224.837 27.655 147.348 103.387 66.0801L114.747 75.5299C114.747 75.5299 1.14881 229.562 56.0544 292.875C56.0544 292.875 68.3609 306.105 77.8273 316.5L82.5606 314.61C82.5606 314.61 109.777 341.948 193.678 341.504C193.678 341.504 266.21 332.564 282.303 321.225Z" fill="#FFC8AF" stroke="#605B53" stroke-width="0.5" stroke-miterlimit="10"/>
<path d="M-44.7637 383.357V407.454L50.3367 462.499H220.288L248.224 451.632L269.05 434.622L273.367 428.574C273.367 428.574 221.718 458.247 120.427 451.632C19.1351 445.017 -44.7637 383.357 -44.7637 383.357Z" fill="#E0EECE" stroke="#605B53" stroke-width="0.5" stroke-miterlimit="10"/>
<path d="M451.366 383.357L437.734 389.641C437.734 389.641 417.675 395.878 413.888 398.713C410.101 401.548 388.329 414.778 388.329 414.778L307.002 462.499L357.061 462.386L451.763 396.454L451.366 383.357Z" fill="#AFD1F2" stroke="#605B53" stroke-width="0.5" stroke-miterlimit="10"/>
<path d="M210.358 258.327C226.621 233.861 224.34 201.571 203.457 181.944C188.528 167.921 167.702 163.763 148.457 168.979L136.33 244.729L210.358 258.327Z" fill="#FAFAFA"/>
<path d="M138.523 242.582L188.349 250.932L196.749 200.98L146.924 192.63L138.523 242.582Z" fill="#B7E589"/>
<path d="M137.543 251.306C141.987 251.306 145.589 247.71 145.589 243.274C145.589 238.837 141.987 235.241 137.543 235.241C133.099 235.241 129.496 238.837 129.496 243.274C129.496 247.71 133.099 251.306 137.543 251.306Z" fill="#FAFAFA"/>
<path d="M182.774 248.678C182.471 249.047 182.206 249.444 181.979 249.85L188.368 250.918L189.23 245.768C186.825 245.692 184.421 246.684 182.774 248.678Z" fill="#FAFAFA"/>
<path d="M194.152 205.975C194.654 206.39 195.203 206.721 195.761 206.995L196.774 200.957L191.236 200.031C191.312 202.251 192.297 204.444 194.152 205.965V205.975Z" fill="#FAFAFA"/>
<path d="M152.149 193.482L146.952 192.613L146.138 197.479C148.116 197.243 150.009 196.279 151.373 194.626C151.676 194.267 151.922 193.879 152.149 193.482Z" fill="#FAFAFA"/>
<path d="M164.531 228.91C167.668 228.91 170.211 226.371 170.211 223.24C170.211 220.108 167.668 217.57 164.531 217.57C161.395 217.57 158.852 220.108 158.852 223.24C158.852 226.371 161.395 228.91 164.531 228.91Z" fill="#FAFAFA"/>
<path d="M141.727 253.659L182.433 262.164V257.911L197.579 261.219L186.219 274.448C186.219 274.448 185.453 275.866 182.906 275.866C181.959 275.866 179.943 275.214 178.173 274.921L131.787 266.416L133.68 256.966C133.68 256.966 138.414 256.966 141.727 253.659Z" fill="#FFF5F1" stroke="#605B53" stroke-width="0.5" stroke-miterlimit="10"/>
<path d="M138.414 193.652L140.307 182.312L122.321 189.872L113.801 239.011L123.267 240.901C123.267 240.901 125.161 238.066 128.947 237.121L136.52 193.652H138.414Z" fill="#FFF5F1" stroke="#605B53" stroke-width="0.5" stroke-miterlimit="10"/>
</g>
<g filter="url(#filter0_d_698_2184)">
<path fill-rule="evenodd" clip-rule="evenodd" d="M287.073 309.95C287.226 309.685 287.477 309.493 287.768 309.397C292.549 307.817 296 303.311 296 298C296 291.373 290.627 286 284 286C277.373 286 272 291.373 272 298C272 303.49 275.687 308.119 280.72 309.546C281.032 309.635 281.304 309.834 281.466 310.115L283.067 312.889C283.581 313.778 284.864 313.778 285.377 312.889L287.073 309.95Z" fill="white"/>
</g>
<circle cx="283.796" cy="297.796" r="10.2222" fill="#FF4E00"/>
<path d="M285.507 294.754V298.557H286.934V302.36H287.885V292.852C286.572 292.852 285.507 293.917 285.507 294.754ZM283.13 296.18H282.18V292.852H281.229V296.18H280.278V292.852H279.327V296.18C279.327 297.231 280.178 298.082 281.229 298.082V302.36H282.18V298.082C283.23 298.082 284.081 297.231 284.081 296.18V292.852H283.13V296.18Z" fill="#FAFAFA"/>
<g filter="url(#filter1_d_698_2184)">
<path fill-rule="evenodd" clip-rule="evenodd" d="M259.073 320.95C259.226 320.685 259.477 320.493 259.768 320.397C264.549 318.817 268 314.311 268 309C268 302.373 262.627 297 256 297C249.373 297 244 302.373 244 309C244 314.49 247.687 319.119 252.72 320.546C253.032 320.635 253.304 320.834 253.466 321.115L255.067 323.889C255.581 324.778 256.864 324.778 257.377 323.889L259.073 320.95Z" fill="white"/>
</g>
<circle cx="255.796" cy="308.796" r="10.2222" fill="#FF4E00"/>
<path d="M257.507 305.754V309.557H258.934V313.36H259.885V303.852C258.572 303.852 257.507 304.917 257.507 305.754ZM255.13 307.18H254.18V303.852H253.229V307.18H252.278V303.852H251.327V307.18C251.327 308.231 252.178 309.082 253.229 309.082V313.36H254.18V309.082C255.23 309.082 256.081 308.231 256.081 307.18V303.852H255.13V307.18Z" fill="#FAFAFA"/>
<g filter="url(#filter2_d_698_2184)">
<path fill-rule="evenodd" clip-rule="evenodd" d="M144.073 320.95C144.226 320.685 144.477 320.493 144.768 320.397C149.549 318.817 153 314.311 153 309C153 302.373 147.627 297 141 297C134.373 297 129 302.373 129 309C129 314.49 132.687 319.119 137.72 320.546C138.032 320.635 138.304 320.834 138.466 321.115L140.067 323.889C140.581 324.778 141.864 324.778 142.377 323.889L144.073 320.95Z" fill="white"/>
</g>
<circle cx="140.796" cy="308.796" r="10.2222" fill="#FF4E00"/>
<path d="M142.507 305.754V309.557H143.934V313.36H144.885V303.852C143.572 303.852 142.507 304.917 142.507 305.754ZM140.13 307.18H139.18V303.852H138.229V307.18H137.278V303.852H136.327V307.18C136.327 308.231 137.178 309.082 138.229 309.082V313.36H139.18V309.082C140.23 309.082 141.081 308.231 141.081 307.18V303.852H140.13V307.18Z" fill="#FAFAFA"/>
<g filter="url(#filter3_d_698_2184)">
<path fill-rule="evenodd" clip-rule="evenodd" d="M226.073 327.95C226.226 327.685 226.477 327.493 226.768 327.397C231.549 325.817 235 321.311 235 316C235 309.373 229.627 304 223 304C216.373 304 211 309.373 211 316C211 321.49 214.687 326.119 219.72 327.546C220.032 327.635 220.304 327.834 220.466 328.115L222.067 330.889C222.581 331.778 223.864 331.778 224.377 330.889L226.073 327.95Z" fill="white"/>
</g>
<circle cx="222.796" cy="315.796" r="10.2222" fill="#FF4E00"/>
<path d="M224.507 312.754V316.557H225.934V320.36H226.885V310.852C225.572 310.852 224.507 311.917 224.507 312.754ZM222.13 314.18H221.18V310.852H220.229V314.18H219.278V310.852H218.327V314.18C218.327 315.231 219.178 316.082 220.229 316.082V320.36H221.18V316.082C222.23 316.082 223.081 315.231 223.081 314.18V310.852H222.13V314.18Z" fill="#FAFAFA"/>
<g filter="url(#filter4_d_698_2184)">
<path fill-rule="evenodd" clip-rule="evenodd" d="M172.073 323.95C172.226 323.685 172.477 323.493 172.768 323.397C177.549 321.817 181 317.311 181 312C181 305.373 175.627 300 169 300C162.373 300 157 305.373 157 312C157 317.49 160.687 322.119 165.72 323.546C166.032 323.635 166.304 323.834 166.466 324.115L168.067 326.889C168.581 327.778 169.864 327.778 170.377 326.889L172.073 323.95Z" fill="white"/>
</g>
<circle cx="168.796" cy="311.796" r="10.2222" fill="#FF4E00"/>
<path d="M170.507 308.754V312.557H171.934V316.36H172.885V306.852C171.572 306.852 170.507 307.917 170.507 308.754ZM168.13 310.18H167.18V306.852H166.229V310.18H165.278V306.852H164.327V310.18C164.327 311.231 165.178 312.082 166.229 312.082V316.36H167.18V312.082C168.23 312.082 169.081 311.231 169.081 310.18V306.852H168.13V310.18Z" fill="#FAFAFA"/>
<g filter="url(#filter5_d_698_2184)">
<path fill-rule="evenodd" clip-rule="evenodd" d="M74.0734 181.95C74.2264 181.685 74.4772 181.493 74.7677 181.397C79.5494 179.817 83 175.311 83 170C83 163.373 77.6274 158 71 158C64.3726 158 59 163.373 59 170C59 175.49 62.6867 180.119 67.7195 181.546C68.0318 181.635 68.3035 181.834 68.4658 182.115L70.0674 184.889C70.5806 185.778 71.8636 185.778 72.3768 184.889L74.0734 181.95Z" fill="white"/>
</g>
<circle cx="70.7964" cy="169.796" r="10.2222" fill="#FF4E00"/>
<path d="M72.5075 166.754V170.557H73.9337V174.36H74.8845V164.852C73.5724 164.852 72.5075 165.917 72.5075 166.754ZM70.1304 168.18H69.1796V164.852H68.2288V168.18H67.278V164.852H66.3271V168.18C66.3271 169.231 67.1781 170.082 68.2288 170.082V174.36H69.1796V170.082C70.2303 170.082 71.0812 169.231 71.0812 168.18V164.852H70.1304V168.18Z" fill="#FAFAFA"/>
<g filter="url(#filter6_d_698_2184)">
<path fill-rule="evenodd" clip-rule="evenodd" d="M109.073 108.861C109.226 108.596 109.477 108.404 109.768 108.308C114.549 106.728 118 102.222 118 96.9111C118 90.2837 112.627 84.9111 106 84.9111C99.3726 84.9111 94 90.2837 94 96.9111C94 102.401 97.6867 107.03 102.72 108.457C103.032 108.546 103.304 108.745 103.466 109.026L105.067 111.8C105.581 112.689 106.864 112.689 107.377 111.8L109.073 108.861Z" fill="white"/>
</g>
<circle cx="105.796" cy="96.7071" r="10.2222" fill="#FF4E00"/>
<path d="M107.507 93.6648V97.4681H108.934V101.271H109.885V91.7632C108.572 91.7632 107.507 92.8281 107.507 93.6648ZM105.13 95.0911H104.18V91.7632H103.229V95.0911H102.278V91.7632H101.327V95.0911C101.327 96.1417 102.178 96.9927 103.229 96.9927V101.271H104.18V96.9927C105.23 96.9927 106.081 96.1417 106.081 95.0911V91.7632H105.13V95.0911Z" fill="#FAFAFA"/>
<g filter="url(#filter7_d_698_2184)">
<path fill-rule="evenodd" clip-rule="evenodd" d="M95.0734 133.95C95.2264 133.685 95.4772 133.493 95.7677 133.397C100.549 131.817 104 127.311 104 122C104 115.373 98.6274 110 92 110C85.3726 110 80 115.373 80 122C80 127.49 83.6867 132.119 88.7195 133.546C89.0318 133.635 89.3035 133.834 89.4658 134.115L91.0674 136.889C91.5806 137.778 92.8636 137.778 93.3768 136.889L95.0734 133.95Z" fill="white"/>
</g>
<circle cx="91.7964" cy="121.796" r="10.2222" fill="#FF4E00"/>
<path d="M93.5075 118.754V122.557H94.9337V126.36H95.8845V116.852C94.5724 116.852 93.5075 117.917 93.5075 118.754ZM91.1304 120.18H90.1796V116.852H89.2288V120.18H88.278V116.852H87.3271V120.18C87.3271 121.231 88.1781 122.082 89.2288 122.082V126.36H90.1796V122.082C91.2303 122.082 92.0812 121.231 92.0812 120.18V116.852H91.1304V120.18Z" fill="#FAFAFA"/>
</g>
<defs>
<filter id="filter0_d_698_2184" x="270.033" y="284.82" width="27.1475" height="30.7032" filterUnits="userSpaceOnUse" color-interpolation-filters="sRGB">
<feFlood flood-opacity="0" result="BackgroundImageFix"/>
<feColorMatrix in="SourceAlpha" type="matrix" values="0 0 0 0 0 0 0 0 0 0 0 0 0 0 0 0 0 0 127 0" result="hardAlpha"/>
<feOffset dx="-0.393443" dy="0.393443"/>
<feGaussianBlur stdDeviation="0.786885"/>
<feComposite in2="hardAlpha" operator="out"/>
<feColorMatrix type="matrix" values="0 0 0 0 0 0 0 0 0 0 0 0 0 0 0 0 0 0 0.25 0"/>
<feBlend mode="normal" in2="BackgroundImageFix" result="effect1_dropShadow_698_2184"/>
<feBlend mode="normal" in="SourceGraphic" in2="effect1_dropShadow_698_2184" result="shape"/>
</filter>
<filter id="filter1_d_698_2184" x="242.033" y="295.82" width="27.1475" height="30.7032" filterUnits="userSpaceOnUse" color-interpolation-filters="sRGB">
<feFlood flood-opacity="0" result="BackgroundImageFix"/>
<feColorMatrix in="SourceAlpha" type="matrix" values="0 0 0 0 0 0 0 0 0 0 0 0 0 0 0 0 0 0 127 0" result="hardAlpha"/>
<feOffset dx="-0.393443" dy="0.393443"/>
<feGaussianBlur stdDeviation="0.786885"/>
<feComposite in2="hardAlpha" operator="out"/>
<feColorMatrix type="matrix" values="0 0 0 0 0 0 0 0 0 0 0 0 0 0 0 0 0 0 0.25 0"/>
<feBlend mode="normal" in2="BackgroundImageFix" result="effect1_dropShadow_698_2184"/>
<feBlend mode="normal" in="SourceGraphic" in2="effect1_dropShadow_698_2184" result="shape"/>
</filter>
<filter id="filter2_d_698_2184" x="127.033" y="295.82" width="27.1475" height="30.7032" filterUnits="userSpaceOnUse" color-interpolation-filters="sRGB">
<feFlood flood-opacity="0" result="BackgroundImageFix"/>
<feColorMatrix in="SourceAlpha" type="matrix" values="0 0 0 0 0 0 0 0 0 0 0 0 0 0 0 0 0 0 127 0" result="hardAlpha"/>
<feOffset dx="-0.393443" dy="0.393443"/>
<feGaussianBlur stdDeviation="0.786885"/>
<feComposite in2="hardAlpha" operator="out"/>
<feColorMatrix type="matrix" values="0 0 0 0 0 0 0 0 0 0 0 0 0 0 0 0 0 0 0.25 0"/>
<feBlend mode="normal" in2="BackgroundImageFix" result="effect1_dropShadow_698_2184"/>
<feBlend mode="normal" in="SourceGraphic" in2="effect1_dropShadow_698_2184" result="shape"/>
</filter>
<filter id="filter3_d_698_2184" x="209.033" y="302.82" width="27.1475" height="30.7032" filterUnits="userSpaceOnUse" color-interpolation-filters="sRGB">
<feFlood flood-opacity="0" result="BackgroundImageFix"/>
<feColorMatrix in="SourceAlpha" type="matrix" values="0 0 0 0 0 0 0 0 0 0 0 0 0 0 0 0 0 0 127 0" result="hardAlpha"/>
<feOffset dx="-0.393443" dy="0.393443"/>
<feGaussianBlur stdDeviation="0.786885"/>
<feComposite in2="hardAlpha" operator="out"/>
<feColorMatrix type="matrix" values="0 0 0 0 0 0 0 0 0 0 0 0 0 0 0 0 0 0 0.25 0"/>
<feBlend mode="normal" in2="BackgroundImageFix" result="effect1_dropShadow_698_2184"/>
<feBlend mode="normal" in="SourceGraphic" in2="effect1_dropShadow_698_2184" result="shape"/>
</filter>
<filter id="filter4_d_698_2184" x="155.033" y="298.82" width="27.1475" height="30.7032" filterUnits="userSpaceOnUse" color-interpolation-filters="sRGB">
<feFlood flood-opacity="0" result="BackgroundImageFix"/>
<feColorMatrix in="SourceAlpha" type="matrix" values="0 0 0 0 0 0 0 0 0 0 0 0 0 0 0 0 0 0 127 0" result="hardAlpha"/>
<feOffset dx="-0.393443" dy="0.393443"/>
<feGaussianBlur stdDeviation="0.786885"/>
<feComposite in2="hardAlpha" operator="out"/>
<feColorMatrix type="matrix" values="0 0 0 0 0 0 0 0 0 0 0 0 0 0 0 0 0 0 0.25 0"/>
<feBlend mode="normal" in2="BackgroundImageFix" result="effect1_dropShadow_698_2184"/>
<feBlend mode="normal" in="SourceGraphic" in2="effect1_dropShadow_698_2184" result="shape"/>
</filter>
<filter id="filter5_d_698_2184" x="57.0328" y="156.82" width="27.1475" height="30.7032" filterUnits="userSpaceOnUse" color-interpolation-filters="sRGB">
<feFlood flood-opacity="0" result="BackgroundImageFix"/>
<feColorMatrix in="SourceAlpha" type="matrix" values="0 0 0 0 0 0 0 0 0 0 0 0 0 0 0 0 0 0 127 0" result="hardAlpha"/>
<feOffset dx="-0.393443" dy="0.393443"/>
<feGaussianBlur stdDeviation="0.786885"/>
<feComposite in2="hardAlpha" operator="out"/>
<feColorMatrix type="matrix" values="0 0 0 0 0 0 0 0 0 0 0 0 0 0 0 0 0 0 0.25 0"/>
<feBlend mode="normal" in2="BackgroundImageFix" result="effect1_dropShadow_698_2184"/>
<feBlend mode="normal" in="SourceGraphic" in2="effect1_dropShadow_698_2184" result="shape"/>
</filter>
<filter id="filter6_d_698_2184" x="92.0328" y="83.7308" width="27.1475" height="30.7032" filterUnits="userSpaceOnUse" color-interpolation-filters="sRGB">
<feFlood flood-opacity="0" result="BackgroundImageFix"/>
<feColorMatrix in="SourceAlpha" type="matrix" values="0 0 0 0 0 0 0 0 0 0 0 0 0 0 0 0 0 0 127 0" result="hardAlpha"/>
<feOffset dx="-0.393443" dy="0.393443"/>
<feGaussianBlur stdDeviation="0.786885"/>
<feComposite in2="hardAlpha" operator="out"/>
<feColorMatrix type="matrix" values="0 0 0 0 0 0 0 0 0 0 0 0 0 0 0 0 0 0 0.25 0"/>
<feBlend mode="normal" in2="BackgroundImageFix" result="effect1_dropShadow_698_2184"/>
<feBlend mode="normal" in="SourceGraphic" in2="effect1_dropShadow_698_2184" result="shape"/>
</filter>
<filter id="filter7_d_698_2184" x="78.0328" y="108.82" width="27.1475" height="30.7032" filterUnits="userSpaceOnUse" color-interpolation-filters="sRGB">
<feFlood flood-opacity="0" result="BackgroundImageFix"/>
<feColorMatrix in="SourceAlpha" type="matrix" values="0 0 0 0 0 0 0 0 0 0 0 0 0 0 0 0 0 0 127 0" result="hardAlpha"/>
<feOffset dx="-0.393443" dy="0.393443"/>
<feGaussianBlur stdDeviation="0.786885"/>
<feComposite in2="hardAlpha" operator="out"/>
<feColorMatrix type="matrix" values="0 0 0 0 0 0 0 0 0 0 0 0 0 0 0 0 0 0 0.25 0"/>
<feBlend mode="normal" in2="BackgroundImageFix" result="effect1_dropShadow_698_2184"/>
<feBlend mode="normal" in="SourceGraphic" in2="effect1_dropShadow_698_2184" result="shape"/>
</filter>
<clipPath id="clip0_698_2184">
<rect width="497" height="563" fill="white" transform="translate(-45 -100)"/>
</clipPath>
</defs>
</svg>
