<svg width="705" height="799" viewBox="0 0 705 799" fill="none" xmlns="http://www.w3.org/2000/svg">
<g clip-path="url(#clip0_1064_1765)">
<path d="M576.666 0.335205L569.025 59.9859L503.227 37.198L517.635 0.335205H576.666Z" fill="#F7F7F7" stroke="#605B53" stroke-width="0.5" stroke-miterlimit="10"/>
<path d="M510.222 0.335205L496.512 34.517L405.199 3.68637L406.69 0.335205H510.222Z" fill="#F7F7F7" stroke="#605B53" stroke-width="0.5" stroke-miterlimit="10"/>
<path d="M219.889 231.565L210.489 222.182C210.489 222.182 -29.8777 429.954 144.69 622.981C144.69 622.981 248.088 739.601 483.084 628.343L477.713 614.938C477.713 614.938 666.018 517.701 567.454 304.058C550.158 266.565 522.228 234.849 486.871 213.429C428.619 178.148 330.082 146.767 219.889 231.565Z" fill="#FFFAF8" stroke="#605B53" stroke-width="0.5" stroke-miterlimit="10"/>
<path d="M344.772 543.893L358.2 531.829C358.2 531.829 364.914 525.127 375.657 527.808C386.399 530.489 475.026 547.915 475.026 547.915C475.026 547.915 574.396 476.87 516.654 340.143C458.912 203.415 284.344 253.013 284.344 253.013L264.202 358.909C264.202 358.909 266.887 373.654 237.345 380.357L224.87 396.08C224.87 396.08 182.289 490.275 215.86 523.786C249.431 557.298 344.772 543.893 344.772 543.893Z" fill="#B7E589" stroke="#605B53" stroke-width="0.5" stroke-miterlimit="10"/>
<path d="M273.226 389.07L356.132 507.178L479.726 533.853L487.971 530.502C487.971 530.502 561.639 441.361 510.611 342.167C459.584 242.973 356.186 248.334 356.186 248.334C356.186 248.334 314.813 250.721 305.279 256.9L298.444 263.08L273.226 389.083V389.07Z" fill="#B7E589"/>
<path d="M287.03 212.799L297.384 244.246C297.384 244.246 442.799 212.799 505.912 303.95C569.025 395.102 530.083 491.615 530.083 491.615C530.083 491.615 508.597 542.553 485.769 551.936L496.512 578.745C496.512 578.745 647.433 473.117 541.967 283.575C541.967 283.575 487.112 159.18 287.03 212.799Z" fill="#FFF5F1" stroke="#605B53" stroke-width="0.5" stroke-miterlimit="10"/>
<path d="M256.924 207.021L284.344 253.013" stroke="#605B53" stroke-width="0.5" stroke-miterlimit="10"/>
<path d="M477.713 614.938L469.656 590.81L401.171 605.555H395.8L356.858 613.597L352.212 614.938C352.212 614.938 316.573 627.002 248.089 606.895C179.604 586.788 181.672 578.745 181.672 578.745L176.918 581.426C176.918 581.426 115.148 535.851 142.005 444.699C168.861 353.547 198.766 295.8 241.562 244.246L238.689 239.608L274.945 216.82L287.031 237.812L284.345 248.629C284.345 248.629 260.174 270.439 262.86 278.481L273.602 283.843L266.888 325.398L231.975 377.676H223.918L218.774 389.07C218.774 389.07 164.833 500.998 217.203 538.531C269.574 576.064 347.458 553.277 347.458 553.277L346.8 547.915L405.2 537.191L466.151 547.915L499.319 601.104" fill="#FFA47C"/>
<path d="M477.713 614.938L469.656 590.81L401.171 605.555H395.8L356.858 613.597L352.212 614.938C352.212 614.938 316.573 627.002 248.089 606.895C179.604 586.788 181.672 578.745 181.672 578.745L176.918 581.426C176.918 581.426 115.148 535.851 142.005 444.699C168.861 353.547 198.766 295.8 241.562 244.246L238.689 239.608L274.945 216.82L287.031 237.812L284.345 248.629C284.345 248.629 260.174 270.439 262.86 278.481L273.602 283.843L266.888 325.398L231.975 377.676H223.918L218.774 389.07C218.774 389.07 164.833 500.998 217.203 538.531C269.574 576.064 347.458 553.277 347.458 553.277L346.8 547.915L405.2 537.191L466.151 547.915L499.319 601.104" stroke="#605B53" stroke-width="0.5" stroke-miterlimit="10"/>
<path d="M464.284 597.512L471.924 618.53C471.924 618.53 352.829 692.685 221.231 647.109C89.6336 601.533 97.6906 460.784 97.6906 460.784C97.6906 460.784 103.062 350.866 210.488 235.586L226.602 248.991C226.602 248.991 65.4627 467.487 143.347 557.298C143.347 557.298 160.804 576.064 174.232 590.809L180.946 588.128C180.946 588.128 219.553 626.908 338.568 626.278C338.568 626.278 441.455 613.597 464.284 597.512Z" fill="#FFC8AF" stroke="#605B53" stroke-width="0.5" stroke-miterlimit="10"/>
<path d="M0.335938 685.647V719.829L135.237 797.911H376.315L415.942 782.496L445.485 758.368L451.608 749.789C451.608 749.789 378.343 791.879 234.66 782.496C90.9771 773.113 0.335938 685.647 0.335938 685.647Z" fill="#E0EECE" stroke="#605B53" stroke-width="0.5" stroke-miterlimit="10"/>
<path d="M683.166 194.032L672.423 222.182L677.794 223.858L672.423 237.235L696.594 244.97L697.937 240.948L704.1 236.672V199.381L683.166 194.032Z" fill="#FCFCFC" stroke="#605B53" stroke-width="0.5" stroke-miterlimit="10"/>
<path d="M0.335938 735.178V764.226V797.911L107.44 798.287L0.335938 735.178Z" fill="#E0EECE" stroke="#605B53" stroke-width="0.5" stroke-miterlimit="10"/>
<path d="M362.229 508.291C385.299 473.586 382.063 427.782 352.44 399.941C331.263 380.048 301.721 374.15 274.421 381.55L257.22 489.001L362.229 508.291Z" fill="#FAFAFA"/>
<path d="M260.329 485.956L331.007 497.801L342.923 426.943L272.246 415.099L260.329 485.956Z" fill="#B7E589"/>
<path d="M258.938 498.331C265.242 498.331 270.353 493.23 270.353 486.937C270.353 480.644 265.242 475.543 258.938 475.543C252.635 475.543 247.524 480.644 247.524 486.937C247.524 493.23 252.635 498.331 258.938 498.331Z" fill="#FAFAFA"/>
<path d="M323.099 494.605C322.669 495.127 322.293 495.69 321.971 496.267L331.035 497.781L332.257 490.476C328.846 490.369 325.435 491.776 323.099 494.605Z" fill="#FAFAFA"/>
<path d="M339.239 434.029C339.951 434.619 340.73 435.088 341.522 435.477L342.959 426.911L335.104 425.597C335.211 428.748 336.607 431.857 339.239 434.016V434.029Z" fill="#FAFAFA"/>
<path d="M279.658 416.308L272.286 415.075L271.131 421.978C273.937 421.643 276.623 420.276 278.557 417.93C278.986 417.421 279.336 416.871 279.658 416.308Z" fill="#FAFAFA"/>
<path d="M297.222 466.562C301.672 466.562 305.279 462.961 305.279 458.519C305.279 454.077 301.672 450.476 297.222 450.476C292.772 450.476 289.165 454.077 289.165 458.519C289.165 462.961 292.772 466.562 297.222 466.562Z" fill="#FAFAFA"/>
<path d="M264.873 501.669L322.615 513.733V507.701L344.1 512.392L327.986 531.159C327.986 531.159 326.899 533.17 323.286 533.17C321.944 533.17 319.083 532.245 316.572 531.829L250.773 519.765L253.459 506.36C253.459 506.36 260.173 506.36 264.873 501.669Z" fill="#FFF5F1" stroke="#605B53" stroke-width="0.5" stroke-miterlimit="10"/>
<path d="M260.173 416.549L262.859 400.464L237.345 411.187L225.26 480.891L238.688 483.572C238.688 483.572 241.374 479.551 246.745 478.211L257.488 416.549H260.173Z" fill="#FFF5F1" stroke="#605B53" stroke-width="0.5" stroke-miterlimit="10"/>
</g>
<path d="M427.221 582V583.602H421.072V582H427.221ZM424.856 585.171V588.685H422.873V585.171H424.856ZM428.414 582.917V583.006C428.411 583.672 428.389 584.284 428.348 584.84C428.308 585.396 428.215 586.004 428.072 586.663L426.122 586.508C426.254 585.845 426.337 585.258 426.37 584.746C426.407 584.23 426.427 583.641 426.431 582.978V582.917V582H428.414V582.917ZM431.873 581.21V589.895H429.834V581.21H431.873ZM433.613 584.724V586.376H431.05V584.724H433.613ZM420.238 587.713C421.95 587.709 423.53 587.683 424.978 587.635C426.425 587.584 427.788 587.481 429.066 587.326L429.166 588.718C427.832 588.95 426.433 589.109 424.967 589.193C423.501 589.274 421.982 589.315 420.409 589.315L420.238 587.713ZM427.033 590.055C428.042 590.055 428.917 590.162 429.657 590.376C430.401 590.589 430.974 590.897 431.376 591.298C431.777 591.696 431.978 592.166 431.978 592.707C431.978 593.274 431.777 593.759 431.376 594.16C430.978 594.565 430.407 594.875 429.663 595.088C428.923 595.302 428.046 595.409 427.033 595.409C426.02 595.409 425.142 595.302 424.398 595.088C423.654 594.875 423.081 594.565 422.68 594.16C422.278 593.759 422.077 593.274 422.077 592.707C422.077 592.166 422.278 591.696 422.68 591.298C423.081 590.897 423.654 590.589 424.398 590.376C425.145 590.162 426.024 590.055 427.033 590.055ZM427.033 591.591C426.411 591.591 425.88 591.634 425.442 591.718C425.007 591.803 424.676 591.93 424.448 592.099C424.223 592.265 424.112 592.468 424.116 592.707C424.112 592.972 424.221 593.19 424.442 593.359C424.667 593.525 424.994 593.65 425.425 593.735C425.86 593.816 426.396 593.856 427.033 593.856C427.667 593.856 428.195 593.816 428.619 593.735C429.046 593.65 429.37 593.525 429.591 593.359C429.812 593.19 429.923 592.972 429.923 592.707C429.923 592.468 429.81 592.265 429.586 592.099C429.365 591.93 429.039 591.803 428.608 591.718C428.177 591.634 427.652 591.591 427.033 591.591ZM441.47 583.227C441.47 584.07 441.243 584.842 440.79 585.541C440.337 586.238 439.682 586.821 438.823 587.293C437.965 587.761 436.949 588.076 435.774 588.238L435.039 586.674C436.03 586.552 436.881 586.315 437.591 585.961C438.306 585.608 438.842 585.193 439.199 584.718C439.56 584.239 439.742 583.742 439.746 583.227V582.796H441.47V583.227ZM442.044 583.227C442.041 583.742 442.218 584.239 442.575 584.718C442.932 585.193 443.466 585.608 444.177 585.961C444.892 586.315 445.752 586.552 446.757 586.674L446.033 588.238C444.847 588.076 443.823 587.761 442.962 587.293C442.1 586.821 441.44 586.238 440.984 585.541C440.531 584.842 440.304 584.07 440.304 583.227V582.796H442.044V583.227ZM441.834 590.204V595.442H439.862V590.204H441.834ZM447.376 589.061V590.657H434.404V589.061H447.376ZM446.21 581.967V583.525H435.575V581.967H446.21ZM454.133 588.497V591.635H452.133V588.497H454.133ZM460.426 581.232V591.978H458.426V581.232H460.426ZM460.741 593.586V595.193H450.139V593.586H460.741ZM452.133 590.945V594.011H450.139V590.945H452.133ZM448.321 587.536H448.453C450.295 587.521 451.93 587.486 453.36 587.431C454.789 587.376 456.153 587.265 457.453 587.099L457.57 588.53C456.616 588.689 455.617 588.812 454.575 588.901C453.536 588.985 452.531 589.042 451.558 589.072C450.586 589.098 449.586 589.11 448.558 589.11L448.321 587.536ZM458.879 589.481V590.84H455.708V589.481H458.879ZM452.951 581.713C453.632 581.713 454.242 581.82 454.779 582.033C455.317 582.247 455.739 582.549 456.045 582.939C456.35 583.326 456.503 583.768 456.503 584.265C456.503 584.766 456.352 585.206 456.05 585.586C455.748 585.965 455.326 586.258 454.785 586.464C454.247 586.67 453.636 586.773 452.951 586.773C452.251 586.773 451.63 586.67 451.089 586.464C450.551 586.258 450.131 585.965 449.829 585.586C449.527 585.206 449.376 584.766 449.376 584.265C449.376 583.768 449.527 583.326 449.829 582.939C450.131 582.549 450.553 582.247 451.094 582.033C451.636 581.82 452.255 581.713 452.951 581.713ZM452.951 583.171C452.612 583.171 452.315 583.214 452.061 583.298C451.807 583.383 451.61 583.508 451.47 583.674C451.334 583.836 451.266 584.033 451.266 584.265C451.266 584.49 451.334 584.683 451.47 584.845C451.61 585.004 451.807 585.125 452.061 585.21C452.315 585.291 452.612 585.331 452.951 585.331C453.275 585.331 453.56 585.291 453.807 585.21C454.054 585.125 454.249 585.004 454.393 584.845C454.536 584.683 454.608 584.49 454.608 584.265C454.608 584.033 454.536 583.836 454.393 583.674C454.253 583.508 454.058 583.383 453.807 583.298C453.56 583.214 453.275 583.171 452.951 583.171ZM475.481 583.381V585.006H473.023V583.381H475.481ZM475.481 586.597V588.227H473.023V586.597H475.481ZM467.255 583.304C467.251 584.265 467.1 585.157 466.802 585.978C466.507 586.799 466.06 587.516 465.459 588.127C464.863 588.735 464.126 589.186 463.249 589.481L462.177 587.923C462.947 587.669 463.586 587.306 464.095 586.834C464.603 586.363 464.979 585.827 465.222 585.227C465.468 584.622 465.594 583.982 465.597 583.304V582.044H467.255V583.304ZM467.603 583.508C467.599 584.098 467.713 584.657 467.945 585.188C468.181 585.718 468.544 586.19 469.034 586.602C469.527 587.011 470.141 587.326 470.874 587.547L469.807 589.077C468.971 588.808 468.268 588.4 467.697 587.851C467.13 587.302 466.704 586.657 466.421 585.917C466.137 585.177 465.995 584.374 465.995 583.508V582.044H467.603V583.508ZM473.642 581.21V590.735H471.642V581.21H473.642ZM469.807 590.414C469.807 591.258 469.592 592.024 469.161 592.713C468.734 593.398 468.111 593.971 467.293 594.431C466.476 594.895 465.498 595.21 464.36 595.376L463.581 593.851C464.557 593.715 465.384 593.475 466.061 593.133C466.743 592.786 467.249 592.379 467.581 591.912C467.916 591.444 468.085 590.945 468.089 590.414V590.028H469.807V590.414ZM470.067 590.414C470.063 590.941 470.231 591.438 470.57 591.906C470.912 592.374 471.426 592.781 472.111 593.127C472.8 593.473 473.634 593.715 474.614 593.851L473.829 595.376C472.684 595.21 471.7 594.895 470.879 594.431C470.061 593.971 469.439 593.398 469.012 592.713C468.588 592.024 468.378 591.258 468.382 590.414V590.028H470.067V590.414Z" fill="black"/>
<g filter="url(#filter0_d_1064_1765)">
<path fill-rule="evenodd" clip-rule="evenodd" d="M456.312 565.873C456.701 565.2 457.338 564.71 458.077 564.466C470.23 560.45 479 548.999 479 535.5C479 518.655 465.345 505 448.5 505C431.655 505 418 518.655 418 535.5C418 549.454 427.37 561.219 440.162 564.846C440.956 565.071 441.646 565.577 442.059 566.292L446.13 573.343C447.434 575.602 450.695 575.602 452 573.343L456.312 565.873Z" fill="white"/>
</g>
<circle cx="447.981" cy="534.982" r="25.9815" fill="#FF4E00"/>
<path d="M452.333 527.25V536.917H455.958V546.583H458.375V522.417C455.04 522.417 452.333 525.123 452.333 527.25ZM446.292 530.875H443.875V522.417H441.458V530.875H439.042V522.417H436.625V530.875C436.625 533.545 438.788 535.708 441.458 535.708V546.583H443.875V535.708C446.545 535.708 448.708 533.545 448.708 530.875V522.417H446.292V530.875Z" fill="#FAFAFA"/>
<defs>
<filter id="filter0_d_1064_1765" x="413" y="502" width="69" height="78.0369" filterUnits="userSpaceOnUse" color-interpolation-filters="sRGB">
<feFlood flood-opacity="0" result="BackgroundImageFix"/>
<feColorMatrix in="SourceAlpha" type="matrix" values="0 0 0 0 0 0 0 0 0 0 0 0 0 0 0 0 0 0 127 0" result="hardAlpha"/>
<feOffset dx="-1" dy="1"/>
<feGaussianBlur stdDeviation="2"/>
<feComposite in2="hardAlpha" operator="out"/>
<feColorMatrix type="matrix" values="0 0 0 0 0 0 0 0 0 0 0 0 0 0 0 0 0 0 0.25 0"/>
<feBlend mode="normal" in2="BackgroundImageFix" result="effect1_dropShadow_1064_1765"/>
<feBlend mode="normal" in="SourceGraphic" in2="effect1_dropShadow_1064_1765" result="shape"/>
</filter>
<clipPath id="clip0_1064_1765">
<rect width="705" height="798.622" fill="white"/>
</clipPath>
</defs>
</svg>
