<svg width="705" height="799" viewBox="0 0 705 799" fill="none" xmlns="http://www.w3.org/2000/svg">
<g clip-path="url(#clip0_1064_1797)">
<path d="M576.666 0.335205L569.025 59.9859L503.227 37.198L517.635 0.335205H576.666Z" fill="#F7F7F7" stroke="#605B53" stroke-width="0.5" stroke-miterlimit="10"/>
<path d="M510.222 0.335205L496.512 34.517L405.199 3.68637L406.69 0.335205H510.222Z" fill="#F7F7F7" stroke="#605B53" stroke-width="0.5" stroke-miterlimit="10"/>
<path d="M219.889 231.565L210.489 222.182C210.489 222.182 -29.8777 429.954 144.69 622.981C144.69 622.981 248.088 739.601 483.084 628.343L477.713 614.938C477.713 614.938 666.018 517.701 567.454 304.058C550.158 266.565 522.228 234.849 486.871 213.429C428.619 178.148 330.082 146.767 219.889 231.565Z" fill="#FFFAF8" stroke="#605B53" stroke-width="0.5" stroke-miterlimit="10"/>
<path d="M344.772 543.893L358.2 531.829C358.2 531.829 364.914 525.127 375.657 527.808C386.399 530.489 475.026 547.915 475.026 547.915C475.026 547.915 574.396 476.87 516.654 340.143C458.912 203.415 284.344 253.013 284.344 253.013L264.202 358.909C264.202 358.909 266.887 373.654 237.345 380.357L224.87 396.08C224.87 396.08 182.289 490.275 215.86 523.786C249.431 557.298 344.772 543.893 344.772 543.893Z" fill="#B7E589" stroke="#605B53" stroke-width="0.5" stroke-miterlimit="10"/>
<path d="M273.226 389.07L356.132 507.178L479.726 533.853L487.971 530.502C487.971 530.502 561.639 441.361 510.611 342.167C459.584 242.973 356.186 248.334 356.186 248.334C356.186 248.334 314.813 250.721 305.279 256.9L298.444 263.08L273.226 389.083V389.07Z" fill="#B7E589"/>
<path d="M287.03 212.799L297.384 244.246C297.384 244.246 442.799 212.799 505.912 303.95C569.025 395.102 530.083 491.615 530.083 491.615C530.083 491.615 508.597 542.553 485.769 551.936L496.512 578.745C496.512 578.745 647.433 473.117 541.967 283.575C541.967 283.575 487.112 159.18 287.03 212.799Z" fill="#FFF5F1" stroke="#605B53" stroke-width="0.5" stroke-miterlimit="10"/>
<path d="M256.924 207.021L284.344 253.013" stroke="#605B53" stroke-width="0.5" stroke-miterlimit="10"/>
<path d="M477.713 614.938L469.656 590.81L401.171 605.555H395.8L356.858 613.597L352.212 614.938C352.212 614.938 316.573 627.002 248.089 606.895C179.604 586.788 181.672 578.745 181.672 578.745L176.918 581.426C176.918 581.426 115.148 535.851 142.005 444.699C168.861 353.547 198.766 295.8 241.562 244.246L238.689 239.608L274.945 216.82L287.031 237.812L284.345 248.629C284.345 248.629 260.174 270.439 262.86 278.481L273.602 283.843L266.888 325.398L231.975 377.676H223.918L218.774 389.07C218.774 389.07 164.833 500.998 217.203 538.531C269.574 576.064 347.458 553.277 347.458 553.277L346.8 547.915L405.2 537.191L466.151 547.915L499.319 601.104" fill="#FFA47C"/>
<path d="M477.713 614.938L469.656 590.81L401.171 605.555H395.8L356.858 613.597L352.212 614.938C352.212 614.938 316.573 627.002 248.089 606.895C179.604 586.788 181.672 578.745 181.672 578.745L176.918 581.426C176.918 581.426 115.148 535.851 142.005 444.699C168.861 353.547 198.766 295.8 241.562 244.246L238.689 239.608L274.945 216.82L287.031 237.812L284.345 248.629C284.345 248.629 260.174 270.439 262.86 278.481L273.602 283.843L266.888 325.398L231.975 377.676H223.918L218.774 389.07C218.774 389.07 164.833 500.998 217.203 538.531C269.574 576.064 347.458 553.277 347.458 553.277L346.8 547.915L405.2 537.191L466.151 547.915L499.319 601.104" stroke="#605B53" stroke-width="0.5" stroke-miterlimit="10"/>
<path d="M464.284 597.512L471.924 618.53C471.924 618.53 352.829 692.685 221.231 647.109C89.6336 601.533 97.6906 460.784 97.6906 460.784C97.6906 460.784 103.062 350.866 210.488 235.586L226.602 248.991C226.602 248.991 65.4627 467.487 143.347 557.298C143.347 557.298 160.804 576.064 174.232 590.809L180.946 588.128C180.946 588.128 219.553 626.908 338.568 626.278C338.568 626.278 441.455 613.597 464.284 597.512Z" fill="#FFC8AF" stroke="#605B53" stroke-width="0.5" stroke-miterlimit="10"/>
<path d="M0.335938 685.647V719.829L135.237 797.911H376.315L415.942 782.496L445.485 758.368L451.608 749.789C451.608 749.789 378.343 791.879 234.66 782.496C90.9771 773.113 0.335938 685.647 0.335938 685.647Z" fill="#E0EECE" stroke="#605B53" stroke-width="0.5" stroke-miterlimit="10"/>
<path d="M704.1 685.647L684.763 694.562C684.763 694.562 656.309 703.409 650.937 707.43C645.566 711.451 614.681 730.218 614.681 730.218L499.318 797.911L570.327 797.75L704.664 704.226L704.1 685.647Z" fill="#AFD1F2" stroke="#605B53" stroke-width="0.5" stroke-miterlimit="10"/>
<path d="M683.166 194.032L672.423 222.182L677.794 223.858L672.423 237.235L696.594 244.97L697.937 240.948L704.1 236.672V199.381L683.166 194.032Z" fill="#FCFCFC" stroke="#605B53" stroke-width="0.5" stroke-miterlimit="10"/>
<path d="M0.335938 735.177V764.225V797.911L107.44 798.287L0.335938 735.177Z" fill="#E0EECE" stroke="#605B53" stroke-width="0.5" stroke-miterlimit="10"/>
<path d="M362.229 508.291C385.299 473.586 382.063 427.782 352.44 399.941C331.263 380.048 301.721 374.15 274.421 381.55L257.22 489.001L362.229 508.291Z" fill="#FAFAFA"/>
<path d="M260.329 485.956L331.007 497.801L342.923 426.943L272.246 415.099L260.329 485.956Z" fill="#B7E589"/>
<path d="M258.938 498.331C265.242 498.331 270.353 493.23 270.353 486.937C270.353 480.644 265.242 475.543 258.938 475.543C252.635 475.543 247.524 480.644 247.524 486.937C247.524 493.23 252.635 498.331 258.938 498.331Z" fill="#FAFAFA"/>
<path d="M323.099 494.605C322.669 495.127 322.293 495.69 321.971 496.267L331.035 497.781L332.257 490.476C328.846 490.369 325.435 491.776 323.099 494.605Z" fill="#FAFAFA"/>
<path d="M339.239 434.029C339.951 434.619 340.73 435.088 341.522 435.477L342.959 426.911L335.104 425.597C335.211 428.748 336.607 431.857 339.239 434.016V434.029Z" fill="#FAFAFA"/>
<path d="M279.658 416.308L272.286 415.075L271.131 421.978C273.937 421.643 276.623 420.276 278.557 417.93C278.986 417.421 279.336 416.871 279.658 416.308Z" fill="#FAFAFA"/>
<path d="M297.222 466.562C301.672 466.562 305.279 462.961 305.279 458.519C305.279 454.077 301.672 450.476 297.222 450.476C292.772 450.476 289.165 454.077 289.165 458.519C289.165 462.961 292.772 466.562 297.222 466.562Z" fill="#FAFAFA"/>
<path d="M264.873 501.669L322.615 513.733V507.701L344.1 512.392L327.986 531.159C327.986 531.159 326.899 533.17 323.286 533.17C321.944 533.17 319.083 532.245 316.572 531.829L250.773 519.765L253.459 506.36C253.459 506.36 260.173 506.36 264.873 501.669Z" fill="#FFF5F1" stroke="#605B53" stroke-width="0.5" stroke-miterlimit="10"/>
<path d="M260.173 416.549L262.859 400.464L237.345 411.187L225.26 480.891L238.688 483.572C238.688 483.572 241.374 479.551 246.745 478.211L257.488 416.549H260.173Z" fill="#FFF5F1" stroke="#605B53" stroke-width="0.5" stroke-miterlimit="10"/>
</g>
<g filter="url(#filter0_d_1064_1797)">
<path fill-rule="evenodd" clip-rule="evenodd" d="M186.312 417.873C186.701 417.2 187.338 416.71 188.077 416.466C200.23 412.45 209 400.999 209 387.5C209 370.655 195.345 357 178.5 357C161.655 357 148 370.655 148 387.5C148 401.454 157.37 413.219 170.162 416.846C170.956 417.071 171.646 417.577 172.059 418.292L176.13 425.343C177.434 427.602 180.695 427.602 182 425.343L186.312 417.873Z" fill="white"/>
</g>
<circle cx="177.981" cy="386.981" r="25.9815" fill="#FF4E00"/>
<path d="M182.333 379.25V388.917H185.958V398.583H188.375V374.417C185.04 374.417 182.333 377.123 182.333 379.25ZM176.292 382.875H173.875V374.417H171.458V382.875H169.042V374.417H166.625V382.875C166.625 385.545 168.788 387.708 171.458 387.708V398.583H173.875V387.708C176.545 387.708 178.708 385.545 178.708 382.875V374.417H176.292V382.875Z" fill="#FAFAFA"/>
<path d="M150.707 434.564V443.967H143.873V434.564H150.707ZM145.84 436.127V442.387H148.724V436.127H145.84ZM154.641 433.21V447.442H152.646V433.21H154.641ZM156.74 438.58V440.243H154.199V438.58H156.74ZM162.398 435.243C162.394 436.223 162.243 437.129 161.945 437.961C161.647 438.794 161.192 439.517 160.58 440.133C159.973 440.748 159.221 441.208 158.326 441.514L157.265 439.923C158.054 439.669 158.707 439.304 159.227 438.829C159.75 438.354 160.135 437.81 160.381 437.199C160.632 436.587 160.759 435.936 160.763 435.243V433.956H162.398V435.243ZM162.774 435.149C162.77 435.812 162.882 436.429 163.111 437C163.343 437.571 163.702 438.077 164.188 438.519C164.678 438.958 165.293 439.291 166.033 439.519L164.973 441.077C164.114 440.783 163.404 440.35 162.84 439.779C162.276 439.204 161.858 438.529 161.586 437.751C161.313 436.971 161.177 436.103 161.177 435.149V433.956H162.774V435.149ZM169.387 433.21V441.552H167.398V433.21H169.387ZM164.525 441.917C165.534 441.917 166.407 442.028 167.144 442.249C167.881 442.466 168.444 442.783 168.834 443.199C169.229 443.611 169.426 444.107 169.426 444.685C169.426 445.263 169.229 445.761 168.834 446.177C168.444 446.593 167.881 446.908 167.144 447.122C166.407 447.335 165.534 447.44 164.525 447.436C163.516 447.44 162.645 447.333 161.912 447.116C161.179 446.899 160.615 446.584 160.221 446.171C159.831 445.759 159.637 445.263 159.641 444.685C159.637 444.107 159.833 443.611 160.227 443.199C160.621 442.783 161.184 442.466 161.917 442.249C162.65 442.028 163.52 441.917 164.525 441.917ZM164.525 443.464C163.892 443.464 163.359 443.51 162.928 443.602C162.497 443.694 162.171 443.831 161.951 444.011C161.733 444.192 161.625 444.416 161.625 444.685C161.625 444.947 161.733 445.168 161.951 445.348C162.171 445.529 162.497 445.665 162.928 445.757C163.363 445.845 163.895 445.888 164.525 445.884C165.155 445.888 165.687 445.845 166.122 445.757C166.556 445.665 166.884 445.529 167.105 445.348C167.33 445.168 167.444 444.947 167.448 444.685C167.444 444.416 167.33 444.192 167.105 444.011C166.884 443.831 166.556 443.694 166.122 443.602C165.691 443.51 165.159 443.464 164.525 443.464ZM167.669 435.823V437.453H164.73V435.823H167.669ZM183.492 442.177V447.453H181.531V443.779H173.393V442.177H183.492ZM183.492 433.21V441.586H181.531V433.21H183.492ZM183.155 436.729V438.326H179.509V436.729H183.155ZM172.304 439.448C172.975 439.451 173.535 439.44 173.984 439.414C174.433 439.389 174.912 439.322 175.42 439.215L175.592 440.807C175.109 440.91 174.656 440.976 174.232 441.006C173.813 441.031 173.29 441.044 172.663 441.044H172.304H171.614V439.448H172.304ZM175.337 434.249V435.845H173.553V440.105H171.614V434.249H175.337ZM176.796 439.448C177.452 439.451 177.973 439.448 178.36 439.436C178.746 439.425 179.096 439.403 179.409 439.37C179.722 439.333 180.035 439.276 180.349 439.199L180.525 440.79C180.19 440.867 179.857 440.924 179.525 440.961C179.198 440.998 178.835 441.022 178.437 441.033C178.043 441.041 177.496 441.044 176.796 441.044H176.023V439.448H176.796ZM180.017 434.249V435.845H177.995V440.077H176.023V434.249H180.017ZM191.492 442.536V447.442H189.537V444.122H186.631V442.536H191.492ZM196.852 442.536V447.442H194.879V444.122H192.122V442.536H196.852ZM198.332 440.083V441.663H185.36V440.083H198.332ZM192.824 438.293V440.459H190.824V438.293H192.824ZM188.979 433.497V434.818H194.691V433.497H196.664V439.017H187.017V433.497H188.979ZM188.979 437.453H194.691V436.309H188.979V437.453ZM211.238 433.21V447.475H209.222V433.21H211.238ZM203.515 434.215C204.229 434.215 204.87 434.424 205.437 434.84C206.005 435.256 206.45 435.847 206.774 436.613C207.099 437.376 207.261 438.263 207.261 439.276C207.261 440.297 207.099 441.192 206.774 441.961C206.45 442.731 206.005 443.324 205.437 443.74C204.874 444.153 204.233 444.359 203.515 444.359C202.789 444.359 202.141 444.153 201.57 443.74C200.999 443.324 200.552 442.733 200.227 441.967C199.907 441.197 199.749 440.3 199.752 439.276C199.749 438.263 199.907 437.374 200.227 436.608C200.552 435.842 200.999 435.252 201.57 434.84C202.145 434.424 202.793 434.215 203.515 434.215ZM203.515 436.017C203.146 436.017 202.824 436.144 202.548 436.398C202.272 436.648 202.056 437.018 201.901 437.508C201.75 437.998 201.677 438.587 201.68 439.276C201.677 439.972 201.75 440.565 201.901 441.055C202.056 441.545 202.272 441.917 202.548 442.171C202.824 442.425 203.146 442.552 203.515 442.552C203.879 442.552 204.196 442.425 204.465 442.171C204.738 441.917 204.949 441.545 205.1 441.055C205.255 440.565 205.332 439.972 205.332 439.276C205.332 438.587 205.255 437.998 205.1 437.508C204.949 437.018 204.738 436.648 204.465 436.398C204.192 436.144 203.876 436.017 203.515 436.017Z" fill="black"/>
<defs>
<filter id="filter0_d_1064_1797" x="143" y="354" width="69" height="78.0369" filterUnits="userSpaceOnUse" color-interpolation-filters="sRGB">
<feFlood flood-opacity="0" result="BackgroundImageFix"/>
<feColorMatrix in="SourceAlpha" type="matrix" values="0 0 0 0 0 0 0 0 0 0 0 0 0 0 0 0 0 0 127 0" result="hardAlpha"/>
<feOffset dx="-1" dy="1"/>
<feGaussianBlur stdDeviation="2"/>
<feComposite in2="hardAlpha" operator="out"/>
<feColorMatrix type="matrix" values="0 0 0 0 0 0 0 0 0 0 0 0 0 0 0 0 0 0 0.25 0"/>
<feBlend mode="normal" in2="BackgroundImageFix" result="effect1_dropShadow_1064_1797"/>
<feBlend mode="normal" in="SourceGraphic" in2="effect1_dropShadow_1064_1797" result="shape"/>
</filter>
<clipPath id="clip0_1064_1797">
<rect width="705" height="798.622" fill="white"/>
</clipPath>
</defs>
</svg>
