<svg width="69" height="79" viewBox="0 0 69 79" fill="none" xmlns="http://www.w3.org/2000/svg">
<g filter="url(#filter0_d_1043_3544)">
<path fill-rule="evenodd" clip-rule="evenodd" d="M43.3118 63.8735C43.7007 63.1999 44.3382 62.7102 45.0767 62.4662C57.23 58.4503 66 46.9993 66 33.5C66 16.6553 52.3447 3 35.5 3C18.6553 3 5 16.6553 5 33.5C5 47.4538 14.3705 59.219 27.1621 62.8463C27.9558 63.0714 28.6465 63.5771 29.059 64.2916L33.1298 71.3425C34.4342 73.6018 37.6952 73.6018 38.9996 71.3425L43.3118 63.8735Z" fill="white"/>
</g>
<circle cx="34.9815" cy="32.9815" r="25.9815" fill="#FF4E00"/>
<path d="M39.3333 25.2498V34.9165H42.9583V44.5832H45.375V20.4165C42.04 20.4165 39.3333 23.1232 39.3333 25.2498ZM33.2917 28.8748H30.875V20.4165H28.4583V28.8748H26.0417V20.4165H23.625V28.8748C23.625 31.5453 25.7879 33.7082 28.4583 33.7082V44.5832H30.875V33.7082C33.5454 33.7082 35.7083 31.5453 35.7083 28.8748V20.4165H33.2917V28.8748Z" fill="#FAFAFA"/>
<defs>
<filter id="filter0_d_1043_3544" x="0" y="0" width="69" height="78.0371" filterUnits="userSpaceOnUse" color-interpolation-filters="sRGB">
<feFlood flood-opacity="0" result="BackgroundImageFix"/>
<feColorMatrix in="SourceAlpha" type="matrix" values="0 0 0 0 0 0 0 0 0 0 0 0 0 0 0 0 0 0 127 0" result="hardAlpha"/>
<feOffset dx="-1" dy="1"/>
<feGaussianBlur stdDeviation="2"/>
<feComposite in2="hardAlpha" operator="out"/>
<feColorMatrix type="matrix" values="0 0 0 0 0 0 0 0 0 0 0 0 0 0 0 0 0 0 0.25 0"/>
<feBlend mode="normal" in2="BackgroundImageFix" result="effect1_dropShadow_1043_3544"/>
<feBlend mode="normal" in="SourceGraphic" in2="effect1_dropShadow_1043_3544" result="shape"/>
</filter>
</defs>
</svg>
