<svg width="108" height="106" viewBox="0 0 108 106" fill="none" xmlns="http://www.w3.org/2000/svg">
<circle cx="53" cy="53" r="53" fill="#D9D9D9"/>
<circle cx="54" cy="33" r="18" fill="white"/>
<path d="M64.3905 61H46.1685C41.3161 61 36.3709 61.9667 32.5447 64.9509C25.1844 70.6916 24.1308 76.7499 25.5307 81.6706C27.2378 87.6709 33.9023 90.116 40.1267 90.5351C53.2269 91.4172 75.6972 91.7895 80.3332 84.519C85.1608 76.948 78.5727 67.1652 72.3945 62.898C70.0813 61.3003 67.2018 61 64.3905 61Z" fill="white"/>
<circle cx="89.5" cy="87.5" r="17.5" fill="#D9D9D9" stroke="white" stroke-width="2"/>
<path d="M98 80H94.83L93 78H87L85.17 80H82C80.9 80 80 80.9 80 82V94C80 95.1 80.9 96 82 96H98C99.1 96 100 95.1 100 94V82C100 80.9 99.1 80 98 80ZM98 94H82V82H86.05L87.88 80H92.12L93.95 82H98V94ZM90 83C87.24 83 85 85.24 85 88C85 90.76 87.24 93 90 93C92.76 93 95 90.76 95 88C95 85.24 92.76 83 90 83ZM90 91C88.35 91 87 89.65 87 88C87 86.35 88.35 85 90 85C91.65 85 93 86.35 93 88C93 89.65 91.65 91 90 91Z" fill="white"/>
</svg>
