<svg width="21" height="23" viewBox="0 0 21 23" fill="none" xmlns="http://www.w3.org/2000/svg">
<path d="M15.1272 15.0025C14.4885 15.0025 13.917 15.2817 13.48 15.7191L7.48785 11.8568C7.52987 11.6428 7.56349 11.4287 7.56349 11.2054C7.56349 10.982 7.52987 10.768 7.48785 10.5539L13.4128 6.72886C13.8666 7.19419 14.4633 7.4827 15.1272 7.4827C16.5223 7.4827 17.6485 6.2356 17.6485 4.69069C17.6485 3.14578 16.5223 1.89868 15.1272 1.89868C13.7321 1.89868 12.606 3.14578 12.606 4.69069C12.606 4.91405 12.6396 5.1281 12.6816 5.34216L6.75669 9.16721C6.30287 8.70188 5.70617 8.41337 5.04224 8.41337C3.64715 8.41337 2.521 9.66047 2.521 11.2054C2.521 12.7503 3.64715 13.9974 5.04224 13.9974C5.70617 13.9974 6.30287 13.7089 6.75669 13.2435L12.7404 17.1151C12.6984 17.3106 12.6732 17.5153 12.6732 17.7201C12.6732 19.2184 13.7742 20.4376 15.1272 20.4376C16.4803 20.4376 17.5812 19.2184 17.5812 17.7201C17.5812 16.2217 16.4803 15.0025 15.1272 15.0025ZM15.1272 3.76002C15.5895 3.76002 15.9676 4.17882 15.9676 4.69069C15.9676 5.20256 15.5895 5.62136 15.1272 5.62136C14.665 5.62136 14.2868 5.20256 14.2868 4.69069C14.2868 4.17882 14.665 3.76002 15.1272 3.76002ZM5.04224 12.136C4.58001 12.136 4.20183 11.7172 4.20183 11.2054C4.20183 10.6935 4.58001 10.2747 5.04224 10.2747C5.50447 10.2747 5.88266 10.6935 5.88266 11.2054C5.88266 11.7172 5.50447 12.136 5.04224 12.136ZM15.1272 18.6693C14.665 18.6693 14.2868 18.2505 14.2868 17.7387C14.2868 17.2268 14.665 16.808 15.1272 16.808C15.5895 16.808 15.9676 17.2268 15.9676 17.7387C15.9676 18.2505 15.5895 18.6693 15.1272 18.6693Z" fill="#FF4E00"/>
</svg>
