<svg width="64" height="64" viewBox="0 0 64 64" fill="none" xmlns="http://www.w3.org/2000/svg">
<path d="M7.68535 17.9278C5.78269 4.62611 20.9847 -4.27483 31.6534 3.89425L33.1039 5.00483C36.3044 7.4555 40.3566 8.51484 44.347 7.94406L46.1554 7.6854C59.4571 5.78274 68.3581 20.9847 60.189 31.6535L59.0784 33.1039C56.6277 36.3044 55.5684 40.3567 56.1392 44.3471L56.3978 46.1554C58.3005 59.4572 43.0985 68.3581 32.4298 60.189L30.9793 59.0785C27.7788 56.6278 23.7266 55.5684 19.7362 56.1392L17.9278 56.3979C4.62606 58.3005 -4.27488 43.0985 3.89421 32.4298L5.00478 30.9794C7.45545 27.7788 8.5148 23.7266 7.94401 19.7362L7.68535 17.9278Z" fill="#FFA076"/>
</svg>
