<svg width="705" height="799" viewBox="0 0 705 799" fill="none" xmlns="http://www.w3.org/2000/svg">
<g clip-path="url(#clip0_1064_1703)">
<path d="M576.666 0.335205L569.025 59.9859L503.227 37.198L517.635 0.335205H576.666Z" fill="#F7F7F7" stroke="#605B53" stroke-width="0.5" stroke-miterlimit="10"/>
<path d="M510.222 0.335205L496.512 34.517L405.199 3.68637L406.69 0.335205H510.222Z" fill="#F7F7F7" stroke="#605B53" stroke-width="0.5" stroke-miterlimit="10"/>
<path d="M219.889 231.565L210.489 222.182C210.489 222.182 -29.8777 429.954 144.69 622.981C144.69 622.981 248.088 739.601 483.084 628.343L477.713 614.938C477.713 614.938 666.018 517.701 567.454 304.058C550.158 266.565 522.228 234.849 486.871 213.429C428.619 178.148 330.082 146.767 219.889 231.565Z" fill="#FFFAF8" stroke="#605B53" stroke-width="0.5" stroke-miterlimit="10"/>
<path d="M344.772 543.893L358.2 531.829C358.2 531.829 364.914 525.127 375.657 527.808C386.399 530.489 475.026 547.915 475.026 547.915C475.026 547.915 574.396 476.87 516.654 340.143C458.912 203.415 284.344 253.013 284.344 253.013L264.202 358.909C264.202 358.909 266.887 373.654 237.345 380.357L224.87 396.08C224.87 396.08 182.289 490.275 215.86 523.786C249.431 557.298 344.772 543.893 344.772 543.893Z" fill="#B7E589" stroke="#605B53" stroke-width="0.5" stroke-miterlimit="10"/>
<path d="M273.226 389.07L356.132 507.178L479.726 533.853L487.971 530.502C487.971 530.502 561.639 441.361 510.611 342.167C459.584 242.973 356.186 248.334 356.186 248.334C356.186 248.334 314.813 250.721 305.279 256.9L298.444 263.08L273.226 389.083V389.07Z" fill="#B7E589"/>
<path d="M287.03 212.799L297.384 244.246C297.384 244.246 442.799 212.799 505.912 303.95C569.025 395.102 530.083 491.615 530.083 491.615C530.083 491.615 508.597 542.553 485.769 551.936L496.512 578.745C496.512 578.745 647.433 473.117 541.967 283.575C541.967 283.575 487.112 159.18 287.03 212.799Z" fill="#FFF5F1" stroke="#605B53" stroke-width="0.5" stroke-miterlimit="10"/>
<path d="M256.924 207.021L284.344 253.013" stroke="#605B53" stroke-width="0.5" stroke-miterlimit="10"/>
<path d="M477.713 614.938L469.656 590.81L401.171 605.555H395.8L356.858 613.597L352.212 614.938C352.212 614.938 316.573 627.002 248.089 606.895C179.604 586.788 181.672 578.745 181.672 578.745L176.918 581.426C176.918 581.426 115.148 535.851 142.005 444.699C168.861 353.547 198.766 295.8 241.562 244.246L238.689 239.608L274.945 216.82L287.031 237.812L284.345 248.629C284.345 248.629 260.174 270.439 262.86 278.481L273.602 283.843L266.888 325.398L231.975 377.676H223.918L218.774 389.07C218.774 389.07 164.833 500.998 217.203 538.531C269.574 576.064 347.458 553.277 347.458 553.277L346.8 547.915L405.2 537.191L466.151 547.915L499.319 601.104" fill="#FFA47C"/>
<path d="M477.713 614.938L469.656 590.81L401.171 605.555H395.8L356.858 613.597L352.212 614.938C352.212 614.938 316.573 627.002 248.089 606.895C179.604 586.788 181.672 578.745 181.672 578.745L176.918 581.426C176.918 581.426 115.148 535.851 142.005 444.699C168.861 353.547 198.766 295.8 241.562 244.246L238.689 239.608L274.945 216.82L287.031 237.812L284.345 248.629C284.345 248.629 260.174 270.439 262.86 278.481L273.602 283.843L266.888 325.398L231.975 377.676H223.918L218.774 389.07C218.774 389.07 164.833 500.998 217.203 538.531C269.574 576.064 347.458 553.277 347.458 553.277L346.8 547.915L405.2 537.191L466.151 547.915L499.319 601.104" stroke="#605B53" stroke-width="0.5" stroke-miterlimit="10"/>
<path d="M464.284 597.512L471.924 618.53C471.924 618.53 352.829 692.685 221.231 647.109C89.6336 601.533 97.6906 460.784 97.6906 460.784C97.6906 460.784 103.062 350.866 210.488 235.586L226.602 248.991C226.602 248.991 65.4627 467.487 143.347 557.298C143.347 557.298 160.804 576.064 174.232 590.809L180.946 588.128C180.946 588.128 219.553 626.908 338.568 626.278C338.568 626.278 441.455 613.597 464.284 597.512Z" fill="#FFC8AF" stroke="#605B53" stroke-width="0.5" stroke-miterlimit="10"/>
<path d="M683.166 194.032L672.423 222.182L677.794 223.858L672.423 237.235L696.594 244.97L697.937 240.948L704.1 236.672V199.381L683.166 194.032Z" fill="#FCFCFC" stroke="#605B53" stroke-width="0.5" stroke-miterlimit="10"/>
<path d="M0.335938 735.178V764.226V797.911L107.44 798.287L0.335938 735.178Z" fill="#E0EECE" stroke="#605B53" stroke-width="0.5" stroke-miterlimit="10"/>
<path d="M362.229 508.291C385.299 473.586 382.063 427.782 352.44 399.941C331.263 380.048 301.721 374.15 274.421 381.55L257.22 489.001L362.229 508.291Z" fill="#FAFAFA"/>
<path d="M260.329 485.956L331.007 497.801L342.923 426.943L272.246 415.099L260.329 485.956Z" fill="#B7E589"/>
<path d="M258.938 498.331C265.242 498.331 270.353 493.23 270.353 486.937C270.353 480.644 265.242 475.543 258.938 475.543C252.635 475.543 247.524 480.644 247.524 486.937C247.524 493.23 252.635 498.331 258.938 498.331Z" fill="#FAFAFA"/>
<path d="M323.099 494.605C322.669 495.127 322.293 495.69 321.971 496.267L331.035 497.781L332.257 490.476C328.846 490.369 325.435 491.776 323.099 494.605Z" fill="#FAFAFA"/>
<path d="M339.239 434.029C339.951 434.619 340.73 435.088 341.522 435.477L342.959 426.911L335.104 425.597C335.211 428.748 336.607 431.857 339.239 434.016V434.029Z" fill="#FAFAFA"/>
<path d="M279.658 416.308L272.286 415.075L271.131 421.978C273.937 421.643 276.623 420.276 278.557 417.93C278.986 417.421 279.336 416.871 279.658 416.308Z" fill="#FAFAFA"/>
<path d="M297.222 466.562C301.672 466.562 305.279 462.961 305.279 458.519C305.279 454.077 301.672 450.476 297.222 450.476C292.772 450.476 289.165 454.077 289.165 458.519C289.165 462.961 292.772 466.562 297.222 466.562Z" fill="#FAFAFA"/>
<path d="M264.873 501.669L322.615 513.733V507.701L344.1 512.392L327.986 531.159C327.986 531.159 326.899 533.17 323.286 533.17C321.944 533.17 319.083 532.245 316.572 531.829L250.773 519.765L253.459 506.36C253.459 506.36 260.173 506.36 264.873 501.669Z" fill="#FFF5F1" stroke="#605B53" stroke-width="0.5" stroke-miterlimit="10"/>
<path d="M260.173 416.549L262.859 400.464L237.345 411.187L225.26 480.891L238.688 483.572C238.688 483.572 241.374 479.551 246.745 478.211L257.488 416.549H260.173Z" fill="#FFF5F1" stroke="#605B53" stroke-width="0.5" stroke-miterlimit="10"/>
</g>
<g filter="url(#filter0_d_1064_1703)">
<path fill-rule="evenodd" clip-rule="evenodd" d="M392.312 589.873C392.701 589.2 393.338 588.71 394.077 588.466C406.23 584.45 415 572.999 415 559.5C415 542.655 401.345 529 384.5 529C367.655 529 354 542.655 354 559.5C354 573.454 363.37 585.219 376.162 588.846C376.956 589.071 377.646 589.577 378.059 590.292L382.13 597.343C383.434 599.602 386.695 599.602 388 597.343L392.312 589.873Z" fill="white"/>
</g>
<circle cx="383.981" cy="558.982" r="25.9815" fill="#FF4E00"/>
<path d="M388.333 551.25V560.917H391.958V570.583H394.375V546.417C391.04 546.417 388.333 549.123 388.333 551.25ZM382.292 554.875H379.875V546.417H377.458V554.875H375.042V546.417H372.625V554.875C372.625 557.545 374.788 559.708 377.458 559.708V570.583H379.875V559.708C382.545 559.708 384.708 557.545 384.708 554.875V546.417H382.292V554.875Z" fill="#FAFAFA"/>
<path d="M363.53 607.088C363.53 608.12 363.289 609.085 362.807 609.983C362.324 610.882 361.634 611.65 360.735 612.287C359.84 612.924 358.797 613.365 357.608 613.608L356.751 611.95C357.768 611.77 358.656 611.429 359.414 610.928C360.177 610.424 360.761 609.836 361.166 609.166C361.571 608.492 361.775 607.799 361.779 607.088V606.066H363.53V607.088ZM363.906 607.088C363.902 607.807 364.101 608.503 364.503 609.177C364.908 609.851 365.494 610.438 366.26 610.939C367.029 611.436 367.932 611.773 368.967 611.95L368.088 613.608C366.891 613.372 365.847 612.939 364.956 612.309C364.064 611.676 363.379 610.91 362.901 610.011C362.425 609.109 362.19 608.134 362.193 607.088V606.066H363.906V607.088ZM369.431 616.055V617.696H356.425V616.055H369.431ZM378.807 610.409V612.006H376.254V610.409H378.807ZM371.785 614.707C372.868 614.7 373.768 614.674 374.486 614.63C375.205 614.586 375.939 614.503 376.691 614.381L376.862 615.978C376.118 616.118 375.389 616.206 374.674 616.243C373.963 616.28 373 616.3 371.785 616.304H370.834V614.707H371.785ZM376.155 606.79V608.365H372.73V615.287H370.834V606.79H376.155ZM375.597 610.619V612.138H372.183V610.619H375.597ZM382.724 605.21V619.442H380.807V605.21H382.724ZM379.713 605.464V618.79H377.857V605.464H379.713ZM396.282 605.21V619.475H394.266V605.21H396.282ZM388.558 606.215C389.273 606.215 389.914 606.424 390.481 606.84C391.048 607.256 391.494 607.847 391.818 608.613C392.142 609.376 392.304 610.263 392.304 611.276C392.304 612.297 392.142 613.192 391.818 613.961C391.494 614.731 391.048 615.324 390.481 615.74C389.918 616.153 389.277 616.359 388.558 616.359C387.833 616.359 387.185 616.153 386.614 615.74C386.043 615.324 385.595 614.733 385.271 613.967C384.951 613.197 384.792 612.3 384.796 611.276C384.792 610.263 384.951 609.374 385.271 608.608C385.595 607.842 386.043 607.252 386.614 606.84C387.188 606.424 387.837 606.215 388.558 606.215ZM388.558 608.017C388.19 608.017 387.868 608.144 387.592 608.398C387.315 608.648 387.1 609.018 386.945 609.508C386.794 609.998 386.721 610.587 386.724 611.276C386.721 611.972 386.794 612.565 386.945 613.055C387.1 613.545 387.315 613.917 387.592 614.171C387.868 614.425 388.19 614.552 388.558 614.552C388.923 614.552 389.24 614.425 389.509 614.171C389.781 613.917 389.993 613.545 390.144 613.055C390.299 612.565 390.376 611.972 390.376 611.276C390.376 610.587 390.299 609.998 390.144 609.508C389.993 609.018 389.781 608.648 389.509 608.398C389.236 608.144 388.919 608.017 388.558 608.017ZM408.813 607.077V608.685H405.923V607.077H408.813ZM408.813 609.834V611.436H405.923V609.834H408.813ZM403.271 607.674C403.271 608.68 403.128 609.61 402.84 610.464C402.553 611.319 402.117 612.064 401.531 612.702C400.949 613.335 400.227 613.816 399.365 614.144L398.288 612.58C399.043 612.315 399.673 611.932 400.177 611.431C400.686 610.926 401.06 610.355 401.299 609.718C401.542 609.077 401.665 608.396 401.669 607.674V606.028H403.271V607.674ZM403.68 607.674C403.68 608.359 403.796 609.011 404.028 609.63C404.26 610.245 404.616 610.797 405.095 611.287C405.577 611.773 406.179 612.149 406.901 612.414L405.796 613.961C404.982 613.641 404.297 613.168 403.741 612.541C403.189 611.915 402.774 611.188 402.498 610.359C402.225 609.53 402.091 608.635 402.095 607.674V606.028H403.68V607.674ZM410.343 605.232V615.773H408.354V605.232H410.343ZM410.647 617.586V619.193H400.874V617.586H410.647ZM402.89 614.768V618.575H400.874V614.768H402.89Z" fill="black"/>
<defs>
<filter id="filter0_d_1064_1703" x="349" y="526" width="69" height="78.0371" filterUnits="userSpaceOnUse" color-interpolation-filters="sRGB">
<feFlood flood-opacity="0" result="BackgroundImageFix"/>
<feColorMatrix in="SourceAlpha" type="matrix" values="0 0 0 0 0 0 0 0 0 0 0 0 0 0 0 0 0 0 127 0" result="hardAlpha"/>
<feOffset dx="-1" dy="1"/>
<feGaussianBlur stdDeviation="2"/>
<feComposite in2="hardAlpha" operator="out"/>
<feColorMatrix type="matrix" values="0 0 0 0 0 0 0 0 0 0 0 0 0 0 0 0 0 0 0.25 0"/>
<feBlend mode="normal" in2="BackgroundImageFix" result="effect1_dropShadow_1064_1703"/>
<feBlend mode="normal" in="SourceGraphic" in2="effect1_dropShadow_1064_1703" result="shape"/>
</filter>
<clipPath id="clip0_1064_1703">
<rect width="705" height="798.622" fill="white"/>
</clipPath>
</defs>
</svg>
