<svg width="705" height="799" viewBox="0 0 705 799" fill="none" xmlns="http://www.w3.org/2000/svg">
<g clip-path="url(#clip0_1064_1565)">
<path d="M576.666 0.335205L569.025 59.9859L503.227 37.198L517.635 0.335205H576.666Z" fill="#F7F7F7" stroke="#605B53" stroke-width="0.5" stroke-miterlimit="10"/>
<path d="M510.222 0.335205L496.512 34.517L405.199 3.68637L406.69 0.335205H510.222Z" fill="#F7F7F7" stroke="#605B53" stroke-width="0.5" stroke-miterlimit="10"/>
<path d="M219.889 231.565L210.489 222.182C210.489 222.182 -29.8777 429.954 144.69 622.981C144.69 622.981 248.088 739.601 483.084 628.343L477.713 614.938C477.713 614.938 666.018 517.701 567.454 304.058C550.158 266.565 522.228 234.849 486.871 213.429C428.619 178.148 330.082 146.767 219.889 231.565Z" fill="#FFFAF8" stroke="#605B53" stroke-width="0.5" stroke-miterlimit="10"/>
<path d="M344.772 543.893L358.2 531.829C358.2 531.829 364.914 525.127 375.657 527.808C386.399 530.489 475.026 547.915 475.026 547.915C475.026 547.915 574.396 476.87 516.654 340.143C458.912 203.415 284.344 253.013 284.344 253.013L264.202 358.909C264.202 358.909 266.887 373.654 237.345 380.357L224.87 396.08C224.87 396.08 182.289 490.275 215.86 523.786C249.431 557.298 344.772 543.893 344.772 543.893Z" fill="#B7E589" stroke="#605B53" stroke-width="0.5" stroke-miterlimit="10"/>
<path d="M273.226 389.07L356.132 507.178L479.726 533.853L487.971 530.502C487.971 530.502 561.639 441.361 510.611 342.167C459.584 242.973 356.186 248.334 356.186 248.334C356.186 248.334 314.813 250.721 305.279 256.9L298.444 263.08L273.226 389.083V389.07Z" fill="#B7E589"/>
<path d="M287.03 212.799L297.384 244.246C297.384 244.246 442.799 212.799 505.912 303.95C569.025 395.102 530.083 491.615 530.083 491.615C530.083 491.615 508.597 542.553 485.769 551.936L496.512 578.745C496.512 578.745 647.433 473.117 541.967 283.575C541.967 283.575 487.112 159.18 287.03 212.799Z" fill="#FFF5F1" stroke="#605B53" stroke-width="0.5" stroke-miterlimit="10"/>
<path d="M256.924 207.021L284.344 253.013" stroke="#605B53" stroke-width="0.5" stroke-miterlimit="10"/>
<path d="M477.713 614.938L469.656 590.81L401.171 605.555H395.8L356.858 613.597L352.212 614.938C352.212 614.938 316.573 627.002 248.089 606.895C179.604 586.788 181.672 578.745 181.672 578.745L176.918 581.426C176.918 581.426 115.148 535.851 142.005 444.699C168.861 353.547 198.766 295.8 241.562 244.246L238.689 239.608L274.945 216.82L287.031 237.812L284.345 248.629C284.345 248.629 260.174 270.439 262.86 278.481L273.602 283.843L266.888 325.398L231.975 377.676H223.918L218.774 389.07C218.774 389.07 164.833 500.998 217.203 538.531C269.574 576.064 347.458 553.277 347.458 553.277L346.8 547.915L405.2 537.191L466.151 547.915L499.319 601.104" fill="#FFA47C"/>
<path d="M477.713 614.938L469.656 590.81L401.171 605.555H395.8L356.858 613.597L352.212 614.938C352.212 614.938 316.573 627.002 248.089 606.895C179.604 586.788 181.672 578.745 181.672 578.745L176.918 581.426C176.918 581.426 115.148 535.851 142.005 444.699C168.861 353.547 198.766 295.8 241.562 244.246L238.689 239.608L274.945 216.82L287.031 237.812L284.345 248.629C284.345 248.629 260.174 270.439 262.86 278.481L273.602 283.843L266.888 325.398L231.975 377.676H223.918L218.774 389.07C218.774 389.07 164.833 500.998 217.203 538.531C269.574 576.064 347.458 553.277 347.458 553.277L346.8 547.915L405.2 537.191L466.151 547.915L499.319 601.104" stroke="#605B53" stroke-width="0.5" stroke-miterlimit="10"/>
<path d="M464.284 597.512L471.924 618.53C471.924 618.53 352.829 692.685 221.231 647.109C89.6336 601.533 97.6906 460.784 97.6906 460.784C97.6906 460.784 103.062 350.866 210.488 235.586L226.602 248.991C226.602 248.991 65.4627 467.487 143.347 557.298C143.347 557.298 160.804 576.064 174.232 590.809L180.946 588.128C180.946 588.128 219.553 626.908 338.568 626.278C338.568 626.278 441.455 613.597 464.284 597.512Z" fill="#FFC8AF" stroke="#605B53" stroke-width="0.5" stroke-miterlimit="10"/>
<path d="M0.335938 685.647V719.829L135.237 797.911H376.315L415.942 782.496L445.485 758.368L451.608 749.789C451.608 749.789 378.343 791.879 234.66 782.496C90.9771 773.113 0.335938 685.647 0.335938 685.647Z" fill="#E0EECE" stroke="#605B53" stroke-width="0.5" stroke-miterlimit="10"/>
<path d="M704.1 685.647L684.763 694.562C684.763 694.562 656.309 703.409 650.937 707.43C645.566 711.451 614.681 730.218 614.681 730.218L499.318 797.911L570.327 797.75L704.664 704.226L704.1 685.647Z" fill="#AFD1F2" stroke="#605B53" stroke-width="0.5" stroke-miterlimit="10"/>
<path d="M683.166 194.032L672.423 222.182L677.794 223.858L672.423 237.235L696.594 244.97L697.937 240.948L704.1 236.672V199.381L683.166 194.032Z" fill="#FCFCFC" stroke="#605B53" stroke-width="0.5" stroke-miterlimit="10"/>
<path d="M0.335938 735.177V764.225V797.911L107.44 798.287L0.335938 735.177Z" fill="#E0EECE" stroke="#605B53" stroke-width="0.5" stroke-miterlimit="10"/>
<path d="M362.229 508.291C385.299 473.586 382.063 427.782 352.44 399.941C331.263 380.048 301.721 374.15 274.421 381.55L257.22 489.001L362.229 508.291Z" fill="#FAFAFA"/>
<path d="M260.329 485.956L331.007 497.801L342.923 426.943L272.246 415.099L260.329 485.956Z" fill="#B7E589"/>
<path d="M258.938 498.331C265.242 498.331 270.353 493.23 270.353 486.937C270.353 480.644 265.242 475.543 258.938 475.543C252.635 475.543 247.524 480.644 247.524 486.937C247.524 493.23 252.635 498.331 258.938 498.331Z" fill="#FAFAFA"/>
<path d="M323.099 494.605C322.669 495.127 322.293 495.69 321.971 496.267L331.035 497.781L332.257 490.476C328.846 490.369 325.435 491.776 323.099 494.605Z" fill="#FAFAFA"/>
<path d="M339.239 434.029C339.951 434.619 340.73 435.088 341.522 435.477L342.959 426.911L335.104 425.597C335.211 428.748 336.607 431.857 339.239 434.016V434.029Z" fill="#FAFAFA"/>
<path d="M279.658 416.308L272.286 415.075L271.131 421.978C273.937 421.643 276.623 420.276 278.557 417.93C278.986 417.421 279.336 416.871 279.658 416.308Z" fill="#FAFAFA"/>
<path d="M297.222 466.562C301.672 466.562 305.279 462.961 305.279 458.519C305.279 454.077 301.672 450.476 297.222 450.476C292.772 450.476 289.165 454.077 289.165 458.519C289.165 462.961 292.772 466.562 297.222 466.562Z" fill="#FAFAFA"/>
<path d="M264.873 501.669L322.615 513.733V507.701L344.1 512.392L327.986 531.159C327.986 531.159 326.899 533.17 323.286 533.17C321.944 533.17 319.083 532.245 316.572 531.829L250.773 519.765L253.459 506.36C253.459 506.36 260.173 506.36 264.873 501.669Z" fill="#FFF5F1" stroke="#605B53" stroke-width="0.5" stroke-miterlimit="10"/>
<path d="M260.173 416.549L262.859 400.464L237.345 411.187L225.26 480.891L238.688 483.572C238.688 483.572 241.374 479.551 246.745 478.211L257.488 416.549H260.173Z" fill="#FFF5F1" stroke="#605B53" stroke-width="0.5" stroke-miterlimit="10"/>
</g>
<g filter="url(#filter0_d_1064_1565)">
<path fill-rule="evenodd" clip-rule="evenodd" d="M234.312 303.873C234.701 303.2 235.338 302.71 236.077 302.466C248.23 298.45 257 286.999 257 273.5C257 256.655 243.345 243 226.5 243C209.655 243 196 256.655 196 273.5C196 287.454 205.37 299.219 218.162 302.846C218.956 303.071 219.646 303.577 220.059 304.292L224.13 311.343C225.434 313.602 228.695 313.602 230 311.343L234.312 303.873Z" fill="white"/>
</g>
<circle cx="225.981" cy="272.981" r="25.9815" fill="#FF4E00"/>
<path d="M230.333 265.25V274.917H233.958V284.583H236.375V260.417C233.04 260.417 230.333 263.123 230.333 265.25ZM224.292 268.875H221.875V260.417H219.458V268.875H217.042V260.417H214.625V268.875C214.625 271.545 216.788 273.708 219.458 273.708V284.583H221.875V273.708C224.545 273.708 226.708 271.545 226.708 268.875V260.417H224.292V268.875Z" fill="#FAFAFA"/>
<path d="M185.133 320.685L187.431 324.575H187.519L189.84 320.685H192.497L189.039 326.343L192.575 332H189.867L187.519 328.11H187.431L185.088 332H182.392L185.939 326.343L182.453 320.685H185.133ZM203.928 326.343C203.928 327.543 203.698 328.582 203.238 329.459C202.781 330.335 202.153 331.004 201.354 331.464C200.554 331.924 199.65 332.155 198.641 332.155C197.632 332.155 196.726 331.924 195.923 331.464C195.123 331 194.495 330.33 194.039 329.453C193.586 328.576 193.359 327.54 193.359 326.343C193.359 325.142 193.586 324.103 194.039 323.227C194.495 322.35 195.123 321.681 195.923 321.221C196.726 320.761 197.632 320.53 198.641 320.53C199.65 320.53 200.554 320.761 201.354 321.221C202.153 321.681 202.781 322.35 203.238 323.227C203.698 324.103 203.928 325.142 203.928 326.343ZM201.547 326.343C201.547 325.547 201.427 324.871 201.188 324.315C200.952 323.755 200.615 323.331 200.177 323.044C199.742 322.757 199.23 322.613 198.641 322.613C198.055 322.613 197.543 322.757 197.105 323.044C196.67 323.331 196.333 323.755 196.094 324.315C195.858 324.871 195.74 325.547 195.74 326.343C195.74 327.138 195.858 327.816 196.094 328.376C196.333 328.932 196.67 329.354 197.105 329.641C197.543 329.928 198.055 330.072 198.641 330.072C199.23 330.072 199.742 329.928 200.177 329.641C200.615 329.354 200.952 328.932 201.188 328.376C201.427 327.816 201.547 327.138 201.547 326.343ZM207.448 320.685L209.747 324.575H209.835L212.155 320.685H214.813L211.354 326.343L214.89 332H212.183L209.835 328.11H209.747L207.404 332H204.708L208.255 326.343L204.769 320.685H207.448ZM226.244 326.343C226.244 327.543 226.014 328.582 225.553 329.459C225.096 330.335 224.468 331.004 223.669 331.464C222.87 331.924 221.966 332.155 220.956 332.155C219.947 332.155 219.041 331.924 218.238 331.464C217.439 331 216.811 330.33 216.354 329.453C215.901 328.576 215.675 327.54 215.675 326.343C215.675 325.142 215.901 324.103 216.354 323.227C216.811 322.35 217.439 321.681 218.238 321.221C219.041 320.761 219.947 320.53 220.956 320.53C221.966 320.53 222.87 320.761 223.669 321.221C224.468 321.681 225.096 322.35 225.553 323.227C226.014 324.103 226.244 325.142 226.244 326.343ZM223.863 326.343C223.863 325.547 223.743 324.871 223.503 324.315C223.268 323.755 222.931 323.331 222.492 323.044C222.058 322.757 221.546 322.613 220.956 322.613C220.371 322.613 219.859 322.757 219.421 323.044C218.986 323.331 218.649 323.755 218.41 324.315C218.174 324.871 218.056 325.547 218.056 326.343C218.056 327.138 218.174 327.816 218.41 328.376C218.649 328.932 218.986 329.354 219.421 329.641C219.859 329.928 220.371 330.072 220.956 330.072C221.546 330.072 222.058 329.928 222.492 329.641C222.931 329.354 223.268 328.932 223.503 328.376C223.743 327.816 223.863 327.138 223.863 326.343ZM235.993 320.58V322.149H227.551V320.58H235.993ZM231.778 322.619C232.459 322.619 233.063 322.731 233.59 322.956C234.12 323.177 234.533 323.486 234.827 323.884C235.126 324.282 235.275 324.735 235.275 325.243C235.275 325.759 235.126 326.217 234.827 326.619C234.533 327.017 234.12 327.326 233.59 327.547C233.059 327.768 232.455 327.878 231.778 327.878C231.096 327.878 230.487 327.768 229.949 327.547C229.415 327.326 228.997 327.015 228.695 326.613C228.396 326.212 228.247 325.755 228.247 325.243C228.247 324.735 228.396 324.282 228.695 323.884C228.997 323.486 229.415 323.177 229.949 322.956C230.483 322.731 231.093 322.619 231.778 322.619ZM231.778 324.138C231.457 324.134 231.175 324.177 230.932 324.265C230.693 324.35 230.509 324.475 230.38 324.641C230.251 324.807 230.186 325.007 230.186 325.243C230.186 325.486 230.251 325.691 230.38 325.856C230.509 326.022 230.693 326.145 230.932 326.227C231.172 326.308 231.454 326.348 231.778 326.348C232.102 326.348 232.384 326.308 232.623 326.227C232.862 326.145 233.048 326.022 233.181 325.856C233.317 325.691 233.385 325.486 233.385 325.243C233.385 325.007 233.317 324.807 233.181 324.641C233.045 324.475 232.857 324.35 232.617 324.265C232.378 324.177 232.098 324.134 231.778 324.138ZM232.772 319.149V321.425H230.783V319.149H232.772ZM238.838 319.21V329.171H236.838V319.21H238.838ZM240.75 323.028V324.674H238.275V323.028H240.75ZM234.977 328.608C234.977 329.429 234.761 330.171 234.33 330.834C233.903 331.497 233.279 332.048 232.457 332.486C231.636 332.928 230.654 333.225 229.512 333.376L228.794 331.878C229.763 331.753 230.584 331.527 231.258 331.199C231.932 330.871 232.437 330.484 232.772 330.039C233.111 329.589 233.282 329.112 233.286 328.608V328.398H234.977V328.608ZM235.264 328.608C235.26 329.109 235.428 329.584 235.767 330.033C236.105 330.483 236.616 330.871 237.297 331.199C237.982 331.527 238.814 331.753 239.794 331.878L239.076 333.376C237.931 333.225 236.943 332.928 236.115 332.486C235.29 332.044 234.66 331.492 234.225 330.829C233.791 330.166 233.575 329.425 233.579 328.608V328.398H235.264V328.608ZM253.12 325.586V327.16H243.065V325.586H253.12ZM254.54 330.193V331.818H241.535V330.193H254.54ZM248.993 326.293V330.724H247.021V326.293H248.993ZM253.021 320.221V321.807H245.06V326.298H243.065V320.221H253.021ZM265.955 320.525V322.127H256.855V320.525H265.955ZM268.485 329.945V331.569H255.513V329.945H268.485ZM266.883 322.227V322.293C266.879 323.147 266.868 323.878 266.85 324.486C266.835 325.09 266.791 325.777 266.717 326.547C266.644 327.317 266.529 328.155 266.375 329.061L264.353 328.901C264.515 328.061 264.634 327.267 264.712 326.519C264.793 325.768 264.843 325.09 264.861 324.486C264.883 323.882 264.894 323.166 264.894 322.337V322.227V320.525H266.883V322.227Z" fill="black"/>
<defs>
<filter id="filter0_d_1064_1565" x="191" y="240" width="69" height="78.0369" filterUnits="userSpaceOnUse" color-interpolation-filters="sRGB">
<feFlood flood-opacity="0" result="BackgroundImageFix"/>
<feColorMatrix in="SourceAlpha" type="matrix" values="0 0 0 0 0 0 0 0 0 0 0 0 0 0 0 0 0 0 127 0" result="hardAlpha"/>
<feOffset dx="-1" dy="1"/>
<feGaussianBlur stdDeviation="2"/>
<feComposite in2="hardAlpha" operator="out"/>
<feColorMatrix type="matrix" values="0 0 0 0 0 0 0 0 0 0 0 0 0 0 0 0 0 0 0.25 0"/>
<feBlend mode="normal" in2="BackgroundImageFix" result="effect1_dropShadow_1064_1565"/>
<feBlend mode="normal" in="SourceGraphic" in2="effect1_dropShadow_1064_1565" result="shape"/>
</filter>
<clipPath id="clip0_1064_1565">
<rect width="705" height="798.622" fill="white"/>
</clipPath>
</defs>
</svg>
