<svg width="705" height="799" viewBox="0 0 705 799" fill="none" xmlns="http://www.w3.org/2000/svg">
<g clip-path="url(#clip0_1064_1832)">
<path d="M576.666 0.335205L569.025 59.9859L503.227 37.198L517.635 0.335205H576.666Z" fill="#F7F7F7" stroke="#605B53" stroke-width="0.5" stroke-miterlimit="10"/>
<path d="M510.222 0.335205L496.512 34.517L405.199 3.68637L406.69 0.335205H510.222Z" fill="#F7F7F7" stroke="#605B53" stroke-width="0.5" stroke-miterlimit="10"/>
<path d="M219.889 231.565L210.489 222.182C210.489 222.182 -29.8777 429.954 144.69 622.981C144.69 622.981 248.088 739.601 483.084 628.343L477.713 614.938C477.713 614.938 666.018 517.701 567.454 304.058C550.158 266.565 522.228 234.849 486.871 213.429C428.619 178.148 330.082 146.767 219.889 231.565Z" fill="#FFFAF8" stroke="#605B53" stroke-width="0.5" stroke-miterlimit="10"/>
<path d="M344.772 543.893L358.2 531.829C358.2 531.829 364.914 525.127 375.657 527.808C386.399 530.489 475.026 547.915 475.026 547.915C475.026 547.915 574.396 476.87 516.654 340.143C458.912 203.415 284.344 253.013 284.344 253.013L264.202 358.909C264.202 358.909 266.887 373.654 237.345 380.357L224.87 396.08C224.87 396.08 182.289 490.275 215.86 523.786C249.431 557.298 344.772 543.893 344.772 543.893Z" fill="#B7E589" stroke="#605B53" stroke-width="0.5" stroke-miterlimit="10"/>
<path d="M273.226 389.07L356.132 507.178L479.726 533.853L487.971 530.502C487.971 530.502 561.639 441.361 510.611 342.167C459.584 242.973 356.186 248.334 356.186 248.334C356.186 248.334 314.813 250.721 305.279 256.9L298.444 263.08L273.226 389.083V389.07Z" fill="#B7E589"/>
<path d="M287.03 212.799L297.384 244.246C297.384 244.246 442.799 212.799 505.912 303.95C569.025 395.102 530.083 491.615 530.083 491.615C530.083 491.615 508.597 542.553 485.769 551.936L496.512 578.745C496.512 578.745 647.433 473.117 541.967 283.575C541.967 283.575 487.112 159.18 287.03 212.799Z" fill="#FFF5F1" stroke="#605B53" stroke-width="0.5" stroke-miterlimit="10"/>
<path d="M256.924 207.021L284.344 253.013" stroke="#605B53" stroke-width="0.5" stroke-miterlimit="10"/>
<path d="M477.713 614.938L469.656 590.81L401.171 605.555H395.8L356.858 613.597L352.212 614.938C352.212 614.938 316.573 627.002 248.089 606.895C179.604 586.788 181.672 578.745 181.672 578.745L176.918 581.426C176.918 581.426 115.148 535.851 142.005 444.699C168.861 353.547 198.766 295.8 241.562 244.246L238.689 239.608L274.945 216.82L287.031 237.812L284.345 248.629C284.345 248.629 260.174 270.439 262.86 278.481L273.602 283.843L266.888 325.398L231.975 377.676H223.918L218.774 389.07C218.774 389.07 164.833 500.998 217.203 538.531C269.574 576.064 347.458 553.277 347.458 553.277L346.8 547.915L405.2 537.191L466.151 547.915L499.319 601.104" fill="#FFA47C"/>
<path d="M477.713 614.938L469.656 590.81L401.171 605.555H395.8L356.858 613.597L352.212 614.938C352.212 614.938 316.573 627.002 248.089 606.895C179.604 586.788 181.672 578.745 181.672 578.745L176.918 581.426C176.918 581.426 115.148 535.851 142.005 444.699C168.861 353.547 198.766 295.8 241.562 244.246L238.689 239.608L274.945 216.82L287.031 237.812L284.345 248.629C284.345 248.629 260.174 270.439 262.86 278.481L273.602 283.843L266.888 325.398L231.975 377.676H223.918L218.774 389.07C218.774 389.07 164.833 500.998 217.203 538.531C269.574 576.064 347.458 553.277 347.458 553.277L346.8 547.915L405.2 537.191L466.151 547.915L499.319 601.104" stroke="#605B53" stroke-width="0.5" stroke-miterlimit="10"/>
<path d="M464.284 597.512L471.924 618.53C471.924 618.53 352.829 692.685 221.231 647.109C89.6336 601.533 97.6906 460.784 97.6906 460.784C97.6906 460.784 103.062 350.866 210.488 235.586L226.602 248.991C226.602 248.991 65.4627 467.487 143.347 557.298C143.347 557.298 160.804 576.064 174.232 590.809L180.946 588.128C180.946 588.128 219.553 626.908 338.568 626.278C338.568 626.278 441.455 613.597 464.284 597.512Z" fill="#FFC8AF" stroke="#605B53" stroke-width="0.5" stroke-miterlimit="10"/>
<path d="M704.1 685.647L684.763 694.562C684.763 694.562 656.309 703.409 650.937 707.43C645.566 711.451 614.681 730.218 614.681 730.218L499.318 797.911L570.327 797.75L704.664 704.226L704.1 685.647Z" fill="#AFD1F2" stroke="#605B53" stroke-width="0.5" stroke-miterlimit="10"/>
<path d="M683.166 194.032L672.423 222.182L677.794 223.858L672.423 237.235L696.594 244.97L697.937 240.948L704.1 236.672V199.381L683.166 194.032Z" fill="#FCFCFC" stroke="#605B53" stroke-width="0.5" stroke-miterlimit="10"/>
<path d="M0.335938 735.178V764.226V797.911L107.44 798.287L0.335938 735.178Z" fill="#E0EECE" stroke="#605B53" stroke-width="0.5" stroke-miterlimit="10"/>
<path d="M362.229 508.291C385.299 473.586 382.063 427.782 352.44 399.941C331.263 380.048 301.721 374.15 274.421 381.55L257.22 489.001L362.229 508.291Z" fill="#FAFAFA"/>
<path d="M260.329 485.956L331.007 497.801L342.923 426.943L272.246 415.099L260.329 485.956Z" fill="#B7E589"/>
<path d="M258.938 498.331C265.242 498.331 270.353 493.23 270.353 486.937C270.353 480.644 265.242 475.543 258.938 475.543C252.635 475.543 247.524 480.644 247.524 486.937C247.524 493.23 252.635 498.331 258.938 498.331Z" fill="#FAFAFA"/>
<path d="M323.099 494.605C322.669 495.127 322.293 495.69 321.971 496.267L331.035 497.781L332.257 490.476C328.846 490.369 325.435 491.776 323.099 494.605Z" fill="#FAFAFA"/>
<path d="M339.239 434.029C339.951 434.619 340.73 435.088 341.522 435.477L342.959 426.911L335.104 425.597C335.211 428.748 336.607 431.857 339.239 434.016V434.029Z" fill="#FAFAFA"/>
<path d="M279.658 416.308L272.286 415.075L271.131 421.978C273.937 421.643 276.623 420.276 278.557 417.93C278.986 417.421 279.336 416.871 279.658 416.308Z" fill="#FAFAFA"/>
<path d="M297.222 466.562C301.672 466.562 305.279 462.961 305.279 458.519C305.279 454.077 301.672 450.476 297.222 450.476C292.772 450.476 289.165 454.077 289.165 458.519C289.165 462.961 292.772 466.562 297.222 466.562Z" fill="#FAFAFA"/>
<path d="M264.873 501.669L322.615 513.733V507.701L344.1 512.392L327.986 531.159C327.986 531.159 326.899 533.17 323.286 533.17C321.944 533.17 319.083 532.245 316.572 531.829L250.773 519.765L253.459 506.36C253.459 506.36 260.173 506.36 264.873 501.669Z" fill="#FFF5F1" stroke="#605B53" stroke-width="0.5" stroke-miterlimit="10"/>
<path d="M260.173 416.549L262.859 400.464L237.345 411.187L225.26 480.891L238.688 483.572C238.688 483.572 241.374 479.551 246.745 478.211L257.488 416.549H260.173Z" fill="#FFF5F1" stroke="#605B53" stroke-width="0.5" stroke-miterlimit="10"/>
</g>
<g filter="url(#filter0_d_1064_1832)">
<path fill-rule="evenodd" clip-rule="evenodd" d="M265.312 565.873C265.701 565.2 266.338 564.71 267.077 564.466C279.23 560.45 288 548.999 288 535.5C288 518.655 274.345 505 257.5 505C240.655 505 227 518.655 227 535.5C227 549.454 236.37 561.219 249.162 564.846C249.956 565.071 250.646 565.577 251.059 566.292L255.13 573.343C256.434 575.602 259.695 575.602 261 573.343L265.312 565.873Z" fill="white"/>
</g>
<circle cx="256.981" cy="534.982" r="25.9815" fill="#FF4E00"/>
<path d="M261.333 527.25V536.917H264.958V546.583H267.375V522.417C264.04 522.417 261.333 525.123 261.333 527.25ZM255.292 530.875H252.875V522.417H250.458V530.875H248.042V522.417H245.625V530.875C245.625 533.545 247.788 535.708 250.458 535.708V546.583H252.875V535.708C255.545 535.708 257.708 533.545 257.708 530.875V522.417H255.292V530.875Z" fill="#FAFAFA"/>
<path d="M225.657 583.762C225.657 584.599 225.582 585.374 225.431 586.088C225.28 586.799 225.02 587.442 224.652 588.017C224.287 588.591 223.797 589.039 223.182 589.359L222.116 587.95C222.624 587.674 223.037 587.313 223.354 586.867C223.674 586.422 223.902 585.937 224.039 585.414C224.179 584.888 224.25 584.337 224.254 583.762V582.901H225.657V583.762ZM226.11 583.762C226.107 584.311 226.157 584.845 226.26 585.365C226.366 585.884 226.556 586.381 226.829 586.856C227.105 587.331 227.481 587.733 227.956 588.061L227.055 589.508C226.455 589.147 225.983 588.656 225.641 588.033C225.298 587.407 225.063 586.735 224.934 586.017C224.808 585.295 224.748 584.543 224.751 583.762V582.901H226.11V583.762ZM229.387 583.762C229.387 584.562 229.32 585.32 229.188 586.039C229.059 586.757 228.821 587.425 228.475 588.044C228.133 588.663 227.659 589.151 227.055 589.508L226.182 588.061C226.657 587.744 227.031 587.352 227.304 586.884C227.576 586.416 227.764 585.921 227.867 585.398C227.974 584.875 228.028 584.33 228.028 583.762V582.901H229.387V583.762ZM229.917 583.762C229.913 584.344 229.978 584.899 230.11 585.425C230.243 585.952 230.468 586.438 230.785 586.884C231.105 587.326 231.525 587.681 232.044 587.95L230.983 589.359C230.365 589.031 229.871 588.58 229.503 588.006C229.134 587.427 228.875 586.783 228.724 586.072C228.576 585.361 228.505 584.591 228.508 583.762V582.901H229.917V583.762ZM234.116 581.21V589.702H232.127V581.21H234.116ZM235.586 584.624V586.276H233.116V584.624H235.586ZM234.116 590.276V595.442H232.127V591.873H224.144V590.276H234.116ZM226.851 582.155V583.751H222.685V582.155H226.851ZM231.37 582.155V583.751H227.315V582.155H231.37ZM237.879 590.519C239.039 590.519 239.982 590.503 240.707 590.47C241.437 590.433 242.183 590.357 242.945 590.243L243.094 591.878C242.313 592 241.54 592.081 240.774 592.122C240.008 592.162 239.043 592.182 237.879 592.182H236.884V590.519H237.879ZM242.674 582.707V584.276H238.785V591.199H236.884V582.707H242.674ZM242.398 586.42V587.961H238.238V586.42H242.398ZM248.724 581.21V595.442H246.818V581.21H248.724ZM247.448 586.729V588.326H245.039V586.729H247.448ZM245.591 581.431V594.785H243.707V581.431H245.591ZM262.702 581.21V595.442H260.796V581.21H262.702ZM261.426 586.696V588.315H259.017V586.696H261.426ZM259.625 581.459V594.746H257.746V581.459H259.625ZM257.045 582.834V584.431H250.492V582.834H257.045ZM250.227 590.552C251.505 590.552 252.744 590.532 253.945 590.492C255.15 590.448 256.229 590.357 257.183 590.221L257.293 591.663C256.325 591.869 255.244 592.007 254.05 592.077C252.86 592.147 251.658 592.182 250.442 592.182L250.227 590.552ZM253.216 583.851V591.006H251.42V583.851H253.216ZM256.128 583.851V591.006H254.337V583.851H256.128ZM272.023 581.923V587.923H265.078V581.923H272.023ZM267.039 583.508V586.381H270.05V583.508H267.039ZM276.238 581.21V588.403H274.26V581.21H276.238ZM276.238 589.017V592.845H268.708V594.337H266.741V591.436H274.288V590.558H266.73V589.017H276.238ZM276.625 593.773V595.343H266.741V593.773H276.625ZM290.25 581.21V595.475H288.266V581.21H290.25ZM280.377 590.508C281.721 590.508 282.925 590.473 283.99 590.403C285.058 590.333 286.145 590.206 287.25 590.022L287.421 591.641C286.327 591.832 285.237 591.965 284.15 592.039C283.064 592.109 281.806 592.144 280.377 592.144H279.1V590.508H280.377ZM285.846 582.409V587.89H281.156V591.122H279.1V586.32H283.813V584.017H279.089V582.409H285.846Z" fill="black"/>
<defs>
<filter id="filter0_d_1064_1832" x="222" y="502" width="69" height="78.0371" filterUnits="userSpaceOnUse" color-interpolation-filters="sRGB">
<feFlood flood-opacity="0" result="BackgroundImageFix"/>
<feColorMatrix in="SourceAlpha" type="matrix" values="0 0 0 0 0 0 0 0 0 0 0 0 0 0 0 0 0 0 127 0" result="hardAlpha"/>
<feOffset dx="-1" dy="1"/>
<feGaussianBlur stdDeviation="2"/>
<feComposite in2="hardAlpha" operator="out"/>
<feColorMatrix type="matrix" values="0 0 0 0 0 0 0 0 0 0 0 0 0 0 0 0 0 0 0.25 0"/>
<feBlend mode="normal" in2="BackgroundImageFix" result="effect1_dropShadow_1064_1832"/>
<feBlend mode="normal" in="SourceGraphic" in2="effect1_dropShadow_1064_1832" result="shape"/>
</filter>
<clipPath id="clip0_1064_1832">
<rect width="705" height="798.622" fill="white"/>
</clipPath>
</defs>
</svg>
