<svg width="894" height="799" viewBox="0 0 894 799" fill="none" xmlns="http://www.w3.org/2000/svg">
<g clip-path="url(#clip0_1117_3159)">
<path d="M562.163 200.731L626.462 216.238L663.969 282.492L673.953 286.073L708.621 282.492L640.75 203.704L553.233 178.635L547.875 167.891L503.223 121.334L481.79 117.753L462.144 212.657L404.525 201.913L318.044 207.285C318.044 207.285 283.555 212.657 254.978 241.307C226.401 269.958 221.043 300.399 221.043 300.399V403.056L260.336 531.392L263.908 533.182L313.918 576.158L394.291 622.715C394.291 622.715 406.794 630.378 423.761 627.442L481.808 622.715C481.808 622.715 519.316 622.177 540.748 600.063L610.405 522.438C610.405 522.438 626.48 508.113 626.48 477.672L621.121 338.002C621.121 338.002 622.907 320.096 612.191 303.98L588.972 250.261L556.823 234.968L562.181 200.731H562.163Z" fill="#FCDED0" stroke="#605B53" stroke-width="0.5" stroke-miterlimit="10"/>
<path d="M290.682 312.933C290.682 312.933 296.04 286.073 321.045 282.492L397.845 277.12L465.716 289.655L474.646 298.608L551.447 293.236L556.805 456.185C556.805 456.185 556.805 463.347 549.661 470.51L494.293 527.81C494.293 527.81 488.935 533.182 476.432 534.973L331.761 543.926H324.01L321.045 465.138L313.9 456.185L290.682 389.555V312.933Z" fill="#FFFAF8" stroke="#605B53" stroke-width="0.5" stroke-miterlimit="10"/>
<path d="M394.274 293.236L458.572 305.77L469.289 316.514L537.159 311.142L540.731 456.184L478.219 518.857L340.692 526.02L337.12 457.975L328.19 449.022L308.543 388.14V319.397C308.543 319.397 308.543 305.269 320.51 299.951C322.564 299.038 324.778 298.59 327.011 298.429L394.274 293.236Z" fill="#B7E589" stroke="#605B53" stroke-width="0.5" stroke-miterlimit="10"/>
<path d="M471.074 219.82L403.204 207.285H389.737L308.542 213.552C308.542 213.552 269.249 226.982 256.746 244.889C256.746 244.889 224.597 282.492 226.383 303.98L226.312 400.12L254.96 502.741L322.831 560.042L348.693 565.271V578.969H383.753L385.343 590.501H436.674L437.139 574.385H462.144V583.338H497.865L515.726 574.385L587.168 492.015L581.81 364.88L553.858 366.742L556.805 456.203C556.805 456.203 555.019 465.156 549.661 470.528L494.293 527.828C494.293 527.828 485.363 534.991 476.432 534.991L331.761 543.944H324.01L321.045 465.156L313.9 456.203L290.682 389.573V312.951C290.682 312.951 296.04 286.091 321.045 282.51L397.845 277.138L465.716 289.673L474.646 298.626L569.308 291.463L501.437 228.791C501.437 228.791 494.293 219.838 481.79 221.628L471.074 219.838V219.82Z" fill="#FFA47C" stroke="#605B53" stroke-width="0.5" stroke-miterlimit="10"/>
<path d="M531.801 237.726L528.229 244.889L571.094 286.073L596.099 284.283L588.955 264.586C588.955 264.586 585.383 257.423 580.024 257.423C574.666 257.423 531.801 237.726 531.801 237.726Z" stroke="#605B53" stroke-width="0.5" stroke-miterlimit="10"/>
<path d="M458.571 209.076L478.022 117.753L347.836 90.8931L345.639 117.753L353.194 119.543L345.639 121.155C345.639 121.155 267.463 123.125 201.378 184.007C135.294 244.888 133.508 332.63 133.508 332.63C133.508 332.63 133.508 370.234 137.08 388.14C140.652 406.046 172.801 524.229 172.801 524.229L256.746 531.391L217.453 404.256V298.608C217.453 298.608 226.383 262.795 251.388 239.517C276.393 216.238 299.612 207.285 315.686 203.704L403.203 198.332L458.571 209.076Z" fill="#FDFEFD" stroke="#605B53" stroke-width="0.5" stroke-miterlimit="10"/>
<path d="M448.909 837.144H407.937C407.937 837.144 388.915 810.732 367.482 792.825C367.482 792.825 354.98 782.941 367.482 765.5L448.909 837.144Z" fill="#CBE6BD" stroke="#605B53" stroke-width="0.5" stroke-miterlimit="10"/>
<path d="M149.583 28.2207L188.876 37.1739C188.876 37.1739 158.513 53.2897 147.797 67.6149L151.369 46.1271C151.369 46.1271 153.155 37.1739 149.583 28.2207Z" fill="#CBE6BD" stroke="#605B53" stroke-width="0.5" stroke-miterlimit="10"/>
<path d="M662.576 0.465332H893.336V248.076C893.336 248.076 871.153 237.726 860.436 218.029L808.64 133.868L678.258 13.8952C678.258 13.8952 677.24 12.1045 662.576 0.465332Z" fill="#F0EEEB" stroke="#605B53" stroke-width="0.5" stroke-miterlimit="10"/>
<path d="M844.648 62.0456L844.362 26.4297H888.46V62.0456L893.336 64.9643V134.567L866.277 124.288L826.501 137.45L805.068 74.7771L844.648 62.0456Z" fill="#F9F7F3" stroke="#605B53" stroke-width="0.5" stroke-miterlimit="10"/>
<path d="M580.024 785.663H595.991L657.45 837.144H543.07L580.024 785.663Z" fill="#F0EEEB" stroke="#605B53" stroke-width="0.5" stroke-miterlimit="10"/>
<path d="M751.486 585.111L758.631 577.948L768.454 587.797L776.938 577.948L765.775 568.995L810.426 518.857L819.357 527.81L828.287 517.066L819.357 508.113L831.859 493.788H834.985V496.528L855.078 499.16L858.65 497.369L867.58 499.16L880.083 506.323L893.336 510.226V574.403L844.362 631.668L858.65 644.202L840.79 665.69L837.217 662.109L751.486 585.111Z" fill="#F0EEEB" stroke="#605B53" stroke-width="0.5" stroke-miterlimit="10"/>
<path d="M893.336 830.536L835.432 782.082V769.69L893.336 699.712V830.536Z" fill="#F0EEEB" stroke="#605B53" stroke-width="0.5" stroke-miterlimit="10"/>
<path d="M893.336 431.205H885.048L833.646 490.207H837.218L837.253 493.788L855.078 495.579L860.169 493.788L869.367 495.579L881.869 502.741L893.336 504.657V431.205Z" fill="#F0EEEB" stroke="#605B53" stroke-width="0.5" stroke-miterlimit="10"/>
<path d="M0.446289 68.3848L106.717 99.8464L83.4983 187.051L0.446289 163.092V90.8932V68.3848Z" fill="#E2F0DB" stroke="#605B53" stroke-width="0.5" stroke-miterlimit="10"/>
<path d="M26.3442 96.265L10.2696 151.775L0.446289 148.534V90.8931L26.3442 96.265Z" fill="#D4E4BE" stroke="#605B53" stroke-width="0.5" stroke-miterlimit="10"/>
<path d="M29.9166 98.0557L13.3955 151.775L44.2051 160.728L58.4936 107.009L29.9166 98.0557Z" fill="#D4E4BE" stroke="#605B53" stroke-width="0.5" stroke-miterlimit="10"/>
<path d="M62.0658 107.009L45.9912 162.519L76.3543 171.472L92.4289 115.962L62.0658 107.009Z" fill="#D4E4BE" stroke="#605B53" stroke-width="0.5" stroke-miterlimit="10"/>
<path d="M92.4286 26.1792L88.8564 38.9644L106.717 44.0498L110.289 30.0112L92.4286 26.1792Z" fill="#D4E4BE" stroke="#605B53" stroke-width="0.5" stroke-miterlimit="10"/>
<path d="M837.217 350.537L863.49 377.289C863.49 377.289 867.58 382.768 862.222 388.14L846.148 406.047C846.148 406.047 839.128 416.79 839.968 406.047C839.968 406.047 842.575 364.933 833.645 355.049C833.645 355.049 831.859 350.537 837.217 350.537Z" fill="#CBE6BD" stroke="#605B53" stroke-width="0.5" stroke-miterlimit="10"/>
<path d="M893.336 291.159V273.754C893.336 273.754 885.442 273.539 880.083 268.167C880.083 268.167 874.725 268.167 878.297 273.539L893.336 291.159Z" fill="#AFD1F2" stroke="#605B53" stroke-width="0.5" stroke-miterlimit="10"/>
<path d="M328.725 423.022C367.59 438.439 411.884 425.69 433.049 390.772C448.177 365.811 447.82 335.549 434.871 310.283L325.813 315.834L328.725 423.04V423.022Z" fill="#FAFAFA"/>
<path d="M329.551 318.255L332.62 390.173L404.535 387.088L401.466 315.17L329.551 318.255Z" fill="#B7E589"/>
<path d="M328.19 328.547C334.503 328.547 339.62 323.416 339.62 317.087C339.62 310.758 334.503 305.627 328.19 305.627C321.877 305.627 316.759 310.758 316.759 317.087C316.759 323.416 321.877 328.547 328.19 328.547Z" fill="#FAFAFA"/>
<path d="M334.012 381.729C333.405 381.407 332.779 381.174 332.154 380.959L332.547 390.181L339.977 389.859C339.37 386.493 337.28 383.431 334.03 381.712L334.012 381.729Z" fill="#FAFAFA"/>
<path d="M396.827 384.917C396.399 385.74 396.095 386.6 395.881 387.459L404.579 387.083L404.24 379.097C401.168 379.849 398.417 381.873 396.827 384.917Z" fill="#FAFAFA"/>
<path d="M401.828 322.692L401.507 315.189L394.487 315.493C395.398 318.179 397.291 320.525 400.006 321.94C400.596 322.244 401.203 322.495 401.828 322.692Z" fill="#FAFAFA"/>
<path d="M364.053 356.857C368.512 356.857 372.127 353.234 372.127 348.764C372.127 344.294 368.512 340.67 364.053 340.67C359.595 340.67 355.98 344.294 355.98 348.764C355.98 353.234 359.595 356.857 364.053 356.857Z" fill="#FAFAFA"/>
</g>
<g filter="url(#filter0_d_1117_3159)">
<path fill-rule="evenodd" clip-rule="evenodd" d="M391.312 185.873C391.701 185.2 392.338 184.71 393.077 184.466C405.23 180.45 414 168.999 414 155.5C414 138.655 400.345 125 383.5 125C366.655 125 353 138.655 353 155.5C353 169.454 362.37 181.219 375.162 184.846C375.956 185.071 376.646 185.577 377.059 186.292L381.13 193.343C382.434 195.602 385.695 195.602 387 193.343L391.312 185.873Z" fill="white"/>
</g>
<circle cx="382.981" cy="154.981" r="25.9815" fill="#FF4E00"/>
<path d="M387.333 147.25V156.917H390.958V166.583H393.375V142.417C390.04 142.417 387.333 145.123 387.333 147.25ZM381.292 150.875H378.875V142.417H376.458V150.875H374.042V142.417H371.625V150.875C371.625 153.545 373.788 155.708 376.458 155.708V166.583H378.875V155.708C381.545 155.708 383.708 153.545 383.708 150.875V142.417H381.292V150.875Z" fill="#FAFAFA"/>
<path d="M365.922 204.008H356.906V202.406H365.922V204.008ZM368.398 213.797H355.43V212.172H368.398V213.797ZM367.102 203.664C367.091 204.57 367.078 205.297 367.062 205.844C367.047 206.385 366.992 207.055 366.898 207.852C366.805 208.648 366.654 209.518 366.445 210.461L364.5 210.273C364.698 209.378 364.844 208.539 364.938 207.758C365.031 206.971 365.086 206.284 365.102 205.695C365.122 205.102 365.133 204.424 365.133 203.664V202.406H367.102V203.664ZM356.719 207.828L356.438 206.125L365.516 205.82V207.328L356.719 207.828ZM362.047 212.758H360.07V208.742H362.047V212.758ZM373.236 202.211C373.955 202.211 374.595 202.419 375.158 202.836C375.726 203.253 376.171 203.844 376.494 204.609C376.822 205.375 376.986 206.266 376.986 207.281C376.986 208.302 376.822 209.195 376.494 209.961C376.171 210.727 375.726 211.318 375.158 211.734C374.595 212.146 373.955 212.352 373.236 212.352C372.512 212.352 371.864 212.146 371.291 211.734C370.723 211.318 370.278 210.727 369.955 209.961C369.637 209.195 369.478 208.302 369.478 207.281C369.478 206.266 369.637 205.375 369.955 204.609C370.278 203.844 370.723 203.253 371.291 202.836C371.864 202.419 372.512 202.211 373.236 202.211ZM373.236 204.016C372.871 204.01 372.548 204.135 372.267 204.391C371.991 204.646 371.778 205.018 371.627 205.508C371.476 205.997 371.4 206.589 371.4 207.281C371.4 207.974 371.476 208.565 371.627 209.055C371.778 209.544 371.994 209.917 372.275 210.172C372.556 210.422 372.877 210.547 373.236 210.547C373.606 210.547 373.929 210.422 374.205 210.172C374.481 209.917 374.692 209.544 374.837 209.055C374.989 208.565 375.064 207.974 375.064 207.281C375.064 206.583 374.989 205.99 374.837 205.5C374.692 205.01 374.481 204.641 374.205 204.391C373.929 204.135 373.606 204.01 373.236 204.016ZM380.619 215.438H378.619V201.203H380.619V215.438ZM382.728 208.242H380.181V206.578H382.728V208.242ZM396.511 204.617H394.042V202.992H396.511V204.617ZM396.511 207.719H394.042V206.078H396.511V207.719ZM387.37 202C388.105 201.995 388.766 202.141 389.355 202.438C389.948 202.729 390.415 203.138 390.753 203.664C391.092 204.185 391.261 204.776 391.261 205.438C391.261 206.099 391.089 206.69 390.745 207.211C390.407 207.727 389.941 208.133 389.347 208.43C388.758 208.727 388.099 208.878 387.37 208.883C386.646 208.878 385.987 208.727 385.394 208.43C384.8 208.133 384.331 207.727 383.987 207.211C383.644 206.69 383.472 206.099 383.472 205.438C383.472 204.776 383.644 204.185 383.987 203.664C384.331 203.138 384.797 202.729 385.386 202.438C385.974 202.141 386.636 201.995 387.37 202ZM387.37 203.672C387.001 203.667 386.667 203.737 386.37 203.883C386.079 204.023 385.849 204.229 385.683 204.5C385.516 204.766 385.433 205.078 385.433 205.438C385.433 205.797 385.516 206.112 385.683 206.383C385.849 206.648 386.079 206.852 386.37 206.992C386.667 207.128 387.001 207.198 387.37 207.203C387.74 207.198 388.071 207.128 388.362 206.992C388.659 206.852 388.891 206.648 389.058 206.383C389.23 206.112 389.316 205.797 389.316 205.438C389.316 205.078 389.23 204.766 389.058 204.5C388.891 204.229 388.659 204.023 388.362 203.883C388.071 203.737 387.74 203.667 387.37 203.672ZM394.659 209.531H392.667V201.203H394.659V209.531ZM389.995 209.82C390.974 209.82 391.823 209.932 392.542 210.156C393.266 210.38 393.821 210.703 394.206 211.125C394.597 211.547 394.792 212.052 394.792 212.641C394.792 213.219 394.597 213.719 394.206 214.141C393.816 214.562 393.258 214.883 392.534 215.102C391.816 215.326 390.969 215.438 389.995 215.438C389.011 215.438 388.152 215.326 387.417 215.102C386.683 214.883 386.115 214.562 385.714 214.141C385.318 213.719 385.12 213.219 385.12 212.641C385.12 212.052 385.318 211.547 385.714 211.125C386.115 210.703 386.68 210.38 387.409 210.156C388.144 209.932 389.006 209.82 389.995 209.82ZM389.995 211.391C389.376 211.391 388.852 211.438 388.425 211.531C387.998 211.625 387.675 211.766 387.456 211.953C387.237 212.135 387.128 212.365 387.128 212.641C387.128 212.911 387.237 213.138 387.456 213.32C387.675 213.497 387.998 213.633 388.425 213.727C388.852 213.815 389.376 213.859 389.995 213.859C390.62 213.859 391.141 213.815 391.558 213.727C391.98 213.633 392.297 213.497 392.511 213.32C392.724 213.138 392.831 212.911 392.831 212.641C392.831 212.365 392.722 212.133 392.503 211.945C392.29 211.758 391.972 211.62 391.55 211.531C391.133 211.438 390.615 211.391 389.995 211.391ZM404.153 204.234H397.981V202.641H404.153V204.234ZM401.809 211.539H399.848V206.711H401.809V211.539ZM405.348 203.773C405.343 204.445 405.335 205.018 405.325 205.492C405.315 205.961 405.281 206.521 405.223 207.172C405.166 207.818 405.08 208.505 404.966 209.234L403.005 209.07C403.161 208.049 403.26 207.148 403.302 206.367C403.343 205.581 403.364 204.716 403.364 203.773V202.641H405.348V203.773ZM408.614 215.438H406.606V201.203H408.614V215.438ZM410.544 208.594H408.02V206.93H410.544V208.594ZM397.231 210.945C399.028 210.93 400.614 210.896 401.989 210.844C403.369 210.786 404.684 210.68 405.934 210.523L406.052 212C404.739 212.219 403.361 212.365 401.919 212.438C400.481 212.51 398.984 212.542 397.427 212.531L397.231 210.945Z" fill="black"/>
<defs>
<filter id="filter0_d_1117_3159" x="348" y="122" width="69" height="78.0371" filterUnits="userSpaceOnUse" color-interpolation-filters="sRGB">
<feFlood flood-opacity="0" result="BackgroundImageFix"/>
<feColorMatrix in="SourceAlpha" type="matrix" values="0 0 0 0 0 0 0 0 0 0 0 0 0 0 0 0 0 0 127 0" result="hardAlpha"/>
<feOffset dx="-1" dy="1"/>
<feGaussianBlur stdDeviation="2"/>
<feComposite in2="hardAlpha" operator="out"/>
<feColorMatrix type="matrix" values="0 0 0 0 0 0 0 0 0 0 0 0 0 0 0 0 0 0 0.25 0"/>
<feBlend mode="normal" in2="BackgroundImageFix" result="effect1_dropShadow_1117_3159"/>
<feBlend mode="normal" in="SourceGraphic" in2="effect1_dropShadow_1117_3159" result="shape"/>
</filter>
<clipPath id="clip0_1117_3159">
<rect width="893.782" height="837.592" fill="white"/>
</clipPath>
</defs>
</svg>
