<svg width="390" height="453" viewBox="0 0 390 453" fill="none" xmlns="http://www.w3.org/2000/svg">
<mask id="mask0_698_4328" style="mask-type:alpha" maskUnits="userSpaceOnUse" x="0" y="0" width="391" height="453">
<rect width="391" height="452.322" fill="#D9D9D9"/>
</mask>
<g mask="url(#mask0_698_4328)">
<g clip-path="url(#clip0_698_4328)">
<path d="M158.25 65.4446L185.25 62.4446L224.25 109.445L226.75 118.945L316.75 211.945C316.75 211.945 338.75 290.945 200.75 318.945C200.75 318.945 62.75 326.945 64.75 240.945L126.75 131.945L124.75 118.945L158.25 65.4446Z" fill="#B7E589" stroke="#605B53" stroke-width="0.5" stroke-miterlimit="10"/>
<path d="M48.75 260.945C50.75 273.945 64.73 292.695 64.73 292.695C64.73 292.695 107.75 343.945 199.75 334.945C291.75 325.945 329.75 261.945 329.75 261.945C346.75 233.945 335.75 210.945 335.75 210.945L239.75 111.735V98.9446L222.75 81.9446L212.75 82.9446L187.75 58.9446L154.75 63.9446L136.75 92.9446L125.75 93.9446L113.75 115.945L116.75 125.945L48.75 243.945V260.945Z" stroke="#605B53" stroke-width="0.5" stroke-miterlimit="10"/>
<path d="M202.75 14.9446L129.75 24.9446L96.75 84.9446L87.75 79.9446L34.06 190.795L29.75 187.945C29.75 187.945 4.75002 222.945 9.75002 256.945L48.75 252.075V243.945L116.75 125.945L113.75 115.945L125.75 93.9446L136.75 92.9446L154.75 63.9446L187.75 58.9446L212.75 82.9446L222.75 81.9446L239.75 98.9446V111.735L335.75 210.945L337.59 216.355L376.75 209.945C376.75 209.945 369.75 168.845 339.25 147.895L334.75 151.945L255.87 58.9446L248.75 65.9446L202.75 14.9446Z" fill="#FFC8AF" stroke="#605B53" stroke-width="0.5" stroke-miterlimit="10"/>
<path d="M123.75 17.9446L206.75 7.94458L229.75 33.9446L243.75 22.9446L349.75 138.945L334.75 151.945L255.87 58.9446L248.75 65.9446L202.75 14.9446L129.75 24.9446L96.75 84.9446L87.75 79.9446L34.06 190.795L18.75 180.945L93.75 41.9446L107.75 49.9446L123.75 17.9446Z" fill="#FFFAF8" stroke="#605B53" stroke-width="0.5" stroke-miterlimit="10"/>
<path d="M15.9502 256.175C15.9502 256.175 23.7502 380.945 202.75 367.945C381.75 354.945 370.48 210.975 370.48 210.975L337.59 216.365C337.59 216.365 343.75 239.955 329.75 261.955C315.75 283.955 275.25 326.925 194 335.445C112.75 343.955 64.7302 292.705 64.7302 292.705C64.7302 292.705 53.7502 279.955 48.7502 260.955V252.085L15.9502 256.185V256.175Z" fill="#FFF5F1" stroke="#605B53" stroke-width="0.5" stroke-miterlimit="10"/>
<path d="M9.08984 268.795L21.7498 265.945C21.7498 265.945 36.7498 370.945 202.75 367.945C202.75 367.945 369.75 337.945 366.75 222.945L378.75 220.945C378.75 220.945 381.75 239.945 368.75 271.945C355.75 303.945 305.75 342.945 305.75 342.945C305.75 342.945 258.75 374.945 202.75 379.945C146.75 384.945 100.75 362.945 100.75 362.945C100.75 362.945 26.4298 336.655 9.08984 268.795Z" fill="#FAFDF9" stroke="#605B53" stroke-width="0.5" stroke-miterlimit="10"/>
<path d="M178.69 336.355V361.985C178.69 361.985 116.71 367.525 64.73 324.235C64.73 324.235 40.75 309.945 27.75 272.945L50.09 265.475C50.09 265.475 55.75 301.855 116.25 325.405C116.25 325.405 148.63 337.775 178.69 336.365V336.355Z" fill="#FCDED0" stroke="#605B53" stroke-width="0.5" stroke-miterlimit="10"/>
<path d="M231.39 328.525L235.75 344.945C235.75 344.945 242.91 343.155 252.94 339.835C269.94 334.205 295.17 324.155 307.75 310.945L296.91 296.745C296.91 296.745 268.02 321.105 231.39 328.525Z" fill="#FCDED0" stroke="#605B53" stroke-width="0.5" stroke-miterlimit="10"/>
<path d="M339.25 228.655L362.75 228.945C362.75 228.945 366.32 272.745 318.04 313.845C318.04 313.845 310.75 320.945 303.75 324.945L297.9 319.145C297.9 319.145 305.75 313.945 307.75 310.945L296.91 296.745C296.91 296.745 341.75 264.365 339.25 228.655Z" stroke="#605B53" stroke-width="0.5" stroke-miterlimit="10"/>
<path d="M124.61 163.815C139.41 191.135 170.71 205.055 199.39 195.335C219.9 188.385 234.12 171.025 238.78 150.485L174.02 101.535L124.6 163.825L124.61 163.815Z" fill="#FAFAFA"/>
<path d="M174.953 104.677L142.434 146.995L184.935 179.655L217.454 137.336L174.953 104.677Z" fill="#B7E589"/>
<path d="M174.8 111.885C179.494 111.885 183.3 108.079 183.3 103.385C183.3 98.6901 179.494 94.8845 174.8 94.8845C170.105 94.8845 166.3 98.6901 166.3 103.385C166.3 108.079 170.105 111.885 174.8 111.885Z" fill="#FAFAFA"/>
<path d="M147.3 142.885C147.11 142.415 146.87 141.975 146.6 141.565L142.43 146.995L146.81 150.355C148.07 148.155 148.34 145.415 147.3 142.885Z" fill="#FAFAFA"/>
<path d="M181.56 174.705C180.92 174.965 180.34 175.305 179.8 175.695L184.93 179.645L188.54 174.945C186.43 173.905 183.9 173.735 181.55 174.715L181.56 174.705Z" fill="#FAFAFA"/>
<path d="M214.06 141.745L217.45 137.335L213.31 134.155C212.55 136.115 212.51 138.365 213.38 140.455C213.57 140.915 213.8 141.345 214.06 141.745Z" fill="#FAFAFA"/>
<path d="M180 146C183.314 146 186 143.314 186 140C186 136.686 183.314 134 180 134C176.686 134 174 136.686 174 140C174 143.314 176.686 146 180 146Z" fill="#FAFAFA"/>
</g>
<g filter="url(#filter0_d_698_4328)">
<path fill-rule="evenodd" clip-rule="evenodd" d="M309.073 182.95C309.226 182.685 309.477 182.493 309.768 182.397C314.549 180.817 318 176.311 318 171C318 164.373 312.627 159 306 159C299.373 159 294 164.373 294 171C294 176.49 297.687 181.119 302.72 182.546C303.032 182.635 303.304 182.834 303.466 183.115L305.067 185.889C305.581 186.778 306.864 186.778 307.377 185.889L309.073 182.95Z" fill="white"/>
</g>
<circle cx="305.796" cy="170.796" r="10.2222" fill="#FF4E00"/>
<path d="M307.507 167.754V171.557H308.934V175.361H309.885V165.852C308.572 165.852 307.507 166.917 307.507 167.754ZM305.13 169.18H304.18V165.852H303.229V169.18H302.278V165.852H301.327V169.18C301.327 170.231 302.178 171.082 303.229 171.082V175.361H304.18V171.082C305.23 171.082 306.081 170.231 306.081 169.18V165.852H305.13V169.18Z" fill="#FAFAFA"/>
<g filter="url(#filter1_d_698_4328)">
<path fill-rule="evenodd" clip-rule="evenodd" d="M272.073 120.95C272.226 120.685 272.477 120.493 272.768 120.397C277.549 118.817 281 114.311 281 109C281 102.373 275.627 97 269 97C262.373 97 257 102.373 257 109C257 114.49 260.687 119.119 265.72 120.546C266.032 120.635 266.304 120.834 266.466 121.115L268.067 123.889C268.581 124.778 269.864 124.778 270.377 123.889L272.073 120.95Z" fill="white"/>
</g>
<circle cx="268.796" cy="108.796" r="10.2222" fill="#FF4E00"/>
<path d="M270.507 105.754V109.557H271.934V113.361H272.885V103.852C271.572 103.852 270.507 104.917 270.507 105.754ZM268.13 107.18H267.18V103.852H266.229V107.18H265.278V103.852H264.327V107.18C264.327 108.231 265.178 109.082 266.229 109.082V113.361H267.18V109.082C268.23 109.082 269.081 108.231 269.081 107.18V103.852H268.13V107.18Z" fill="#FAFAFA"/>
<g filter="url(#filter2_d_698_4328)">
<path fill-rule="evenodd" clip-rule="evenodd" d="M252.073 103.95C252.226 103.685 252.477 103.493 252.768 103.397C257.549 101.817 261 97.3113 261 92C261 85.3726 255.627 80 249 80C242.373 80 237 85.3726 237 92C237 97.49 240.687 102.119 245.72 103.546C246.032 103.635 246.304 103.834 246.466 104.115L248.067 106.889C248.581 107.778 249.864 107.778 250.377 106.889L252.073 103.95Z" fill="white"/>
</g>
<circle cx="248.796" cy="91.796" r="10.2222" fill="#FF4E00"/>
<path d="M250.507 88.7541V92.5573H251.934V96.3606H252.885V86.8524C251.572 86.8524 250.507 87.9173 250.507 88.7541ZM248.13 90.1803H247.18V86.8524H246.229V90.1803H245.278V86.8524H244.327V90.1803C244.327 91.2309 245.178 92.0819 246.229 92.0819V96.3606H247.18V92.0819C248.23 92.0819 249.081 91.2309 249.081 90.1803V86.8524H248.13V90.1803Z" fill="#FAFAFA"/>
<g filter="url(#filter3_d_698_4328)">
<path fill-rule="evenodd" clip-rule="evenodd" d="M235.073 76.9503C235.226 76.6853 235.477 76.4926 235.768 76.3966C240.549 74.8166 244 70.3113 244 65C244 58.3726 238.627 53 232 53C225.373 53 220 58.3726 220 65C220 70.49 223.687 75.119 228.72 76.5461C229.032 76.6346 229.304 76.8336 229.466 77.1147L231.067 79.8888C231.581 80.7776 232.864 80.7776 233.377 79.8888L235.073 76.9503Z" fill="white"/>
</g>
<circle cx="231.796" cy="64.796" r="10.2222" fill="#FF4E00"/>
<path d="M233.507 61.7541V65.5573H234.934V69.3606H235.885V59.8524C234.572 59.8524 233.507 60.9173 233.507 61.7541ZM231.13 63.1803H230.18V59.8524H229.229V63.1803H228.278V59.8524H227.327V63.1803C227.327 64.2309 228.178 65.0819 229.229 65.0819V69.3606H230.18V65.0819C231.23 65.0819 232.081 64.2309 232.081 63.1803V59.8524H231.13V63.1803Z" fill="#FAFAFA"/>
<g filter="url(#filter4_d_698_4328)">
<path fill-rule="evenodd" clip-rule="evenodd" d="M90.0734 129.95C90.2264 129.685 90.4772 129.493 90.7677 129.397C95.5494 127.817 99 123.311 99 118C99 111.373 93.6274 106 87 106C80.3726 106 75 111.373 75 118C75 123.49 78.6867 128.119 83.7195 129.546C84.0318 129.635 84.3035 129.834 84.4658 130.115L86.0674 132.889C86.5806 133.778 87.8636 133.778 88.3768 132.889L90.0734 129.95Z" fill="white"/>
</g>
<circle cx="86.7964" cy="117.796" r="10.2222" fill="#FF4E00"/>
<path d="M88.5075 114.754V118.557H89.9337V122.361H90.8845V112.852C89.5724 112.852 88.5075 113.917 88.5075 114.754ZM86.1304 116.18H85.1796V112.852H84.2288V116.18H83.278V112.852H82.3271V116.18C82.3271 117.231 83.1781 118.082 84.2288 118.082V122.361H85.1796V118.082C86.2303 118.082 87.0812 117.231 87.0812 116.18V112.852H86.1304V116.18Z" fill="#FAFAFA"/>
<g filter="url(#filter5_d_698_4328)">
<path fill-rule="evenodd" clip-rule="evenodd" d="M80.0734 165.95C80.2264 165.685 80.4772 165.493 80.7677 165.397C85.5494 163.817 89 159.311 89 154C89 147.373 83.6274 142 77 142C70.3726 142 65 147.373 65 154C65 159.49 68.6867 164.119 73.7195 165.546C74.0318 165.635 74.3035 165.834 74.4658 166.115L76.0674 168.889C76.5806 169.778 77.8636 169.778 78.3768 168.889L80.0734 165.95Z" fill="white"/>
</g>
<circle cx="76.7964" cy="153.796" r="10.2222" fill="#FF4E00"/>
<path d="M78.5075 150.754V154.557H79.9337V158.361H80.8845V148.852C79.5724 148.852 78.5075 149.917 78.5075 150.754ZM76.1304 152.18H75.1796V148.852H74.2288V152.18H73.278V148.852H72.3271V152.18C72.3271 153.231 73.1781 154.082 74.2288 154.082V158.361H75.1796V154.082C76.2303 154.082 77.0812 153.231 77.0812 152.18V148.852H76.1304V152.18Z" fill="#FAFAFA"/>
<g filter="url(#filter6_d_698_4328)">
<path fill-rule="evenodd" clip-rule="evenodd" d="M55.0734 244.95C55.2264 244.685 55.4772 244.493 55.7677 244.397C60.5494 242.817 64 238.311 64 233C64 226.373 58.6274 221 52 221C45.3726 221 40 226.373 40 233C40 238.49 43.6867 243.119 48.7195 244.546C49.0318 244.635 49.3035 244.834 49.4658 245.115L51.0674 247.889C51.5806 248.778 52.8636 248.778 53.3768 247.889L55.0734 244.95Z" fill="white"/>
</g>
<circle cx="51.7964" cy="232.796" r="10.2222" fill="#FF4E00"/>
<path d="M53.5075 229.754V233.557H54.9337V237.361H55.8845V227.852C54.5724 227.852 53.5075 228.917 53.5075 229.754ZM51.1304 231.18H50.1796V227.852H49.2288V231.18H48.278V227.852H47.3271V231.18C47.3271 232.231 48.1781 233.082 49.2288 233.082V237.361H50.1796V233.082C51.2303 233.082 52.0812 232.231 52.0812 231.18V227.852H51.1304V231.18Z" fill="#FAFAFA"/>
</g>
<defs>
<filter id="filter0_d_698_4328" x="292.033" y="157.82" width="27.1475" height="30.703" filterUnits="userSpaceOnUse" color-interpolation-filters="sRGB">
<feFlood flood-opacity="0" result="BackgroundImageFix"/>
<feColorMatrix in="SourceAlpha" type="matrix" values="0 0 0 0 0 0 0 0 0 0 0 0 0 0 0 0 0 0 127 0" result="hardAlpha"/>
<feOffset dx="-0.393443" dy="0.393443"/>
<feGaussianBlur stdDeviation="0.786885"/>
<feComposite in2="hardAlpha" operator="out"/>
<feColorMatrix type="matrix" values="0 0 0 0 0 0 0 0 0 0 0 0 0 0 0 0 0 0 0.25 0"/>
<feBlend mode="normal" in2="BackgroundImageFix" result="effect1_dropShadow_698_4328"/>
<feBlend mode="normal" in="SourceGraphic" in2="effect1_dropShadow_698_4328" result="shape"/>
</filter>
<filter id="filter1_d_698_4328" x="255.033" y="95.8197" width="27.1475" height="30.703" filterUnits="userSpaceOnUse" color-interpolation-filters="sRGB">
<feFlood flood-opacity="0" result="BackgroundImageFix"/>
<feColorMatrix in="SourceAlpha" type="matrix" values="0 0 0 0 0 0 0 0 0 0 0 0 0 0 0 0 0 0 127 0" result="hardAlpha"/>
<feOffset dx="-0.393443" dy="0.393443"/>
<feGaussianBlur stdDeviation="0.786885"/>
<feComposite in2="hardAlpha" operator="out"/>
<feColorMatrix type="matrix" values="0 0 0 0 0 0 0 0 0 0 0 0 0 0 0 0 0 0 0.25 0"/>
<feBlend mode="normal" in2="BackgroundImageFix" result="effect1_dropShadow_698_4328"/>
<feBlend mode="normal" in="SourceGraphic" in2="effect1_dropShadow_698_4328" result="shape"/>
</filter>
<filter id="filter2_d_698_4328" x="235.033" y="78.8197" width="27.1475" height="30.703" filterUnits="userSpaceOnUse" color-interpolation-filters="sRGB">
<feFlood flood-opacity="0" result="BackgroundImageFix"/>
<feColorMatrix in="SourceAlpha" type="matrix" values="0 0 0 0 0 0 0 0 0 0 0 0 0 0 0 0 0 0 127 0" result="hardAlpha"/>
<feOffset dx="-0.393443" dy="0.393443"/>
<feGaussianBlur stdDeviation="0.786885"/>
<feComposite in2="hardAlpha" operator="out"/>
<feColorMatrix type="matrix" values="0 0 0 0 0 0 0 0 0 0 0 0 0 0 0 0 0 0 0.25 0"/>
<feBlend mode="normal" in2="BackgroundImageFix" result="effect1_dropShadow_698_4328"/>
<feBlend mode="normal" in="SourceGraphic" in2="effect1_dropShadow_698_4328" result="shape"/>
</filter>
<filter id="filter3_d_698_4328" x="218.033" y="51.8197" width="27.1475" height="30.703" filterUnits="userSpaceOnUse" color-interpolation-filters="sRGB">
<feFlood flood-opacity="0" result="BackgroundImageFix"/>
<feColorMatrix in="SourceAlpha" type="matrix" values="0 0 0 0 0 0 0 0 0 0 0 0 0 0 0 0 0 0 127 0" result="hardAlpha"/>
<feOffset dx="-0.393443" dy="0.393443"/>
<feGaussianBlur stdDeviation="0.786885"/>
<feComposite in2="hardAlpha" operator="out"/>
<feColorMatrix type="matrix" values="0 0 0 0 0 0 0 0 0 0 0 0 0 0 0 0 0 0 0.25 0"/>
<feBlend mode="normal" in2="BackgroundImageFix" result="effect1_dropShadow_698_4328"/>
<feBlend mode="normal" in="SourceGraphic" in2="effect1_dropShadow_698_4328" result="shape"/>
</filter>
<filter id="filter4_d_698_4328" x="73.0328" y="104.82" width="27.1475" height="30.703" filterUnits="userSpaceOnUse" color-interpolation-filters="sRGB">
<feFlood flood-opacity="0" result="BackgroundImageFix"/>
<feColorMatrix in="SourceAlpha" type="matrix" values="0 0 0 0 0 0 0 0 0 0 0 0 0 0 0 0 0 0 127 0" result="hardAlpha"/>
<feOffset dx="-0.393443" dy="0.393443"/>
<feGaussianBlur stdDeviation="0.786885"/>
<feComposite in2="hardAlpha" operator="out"/>
<feColorMatrix type="matrix" values="0 0 0 0 0 0 0 0 0 0 0 0 0 0 0 0 0 0 0.25 0"/>
<feBlend mode="normal" in2="BackgroundImageFix" result="effect1_dropShadow_698_4328"/>
<feBlend mode="normal" in="SourceGraphic" in2="effect1_dropShadow_698_4328" result="shape"/>
</filter>
<filter id="filter5_d_698_4328" x="63.0328" y="140.82" width="27.1475" height="30.703" filterUnits="userSpaceOnUse" color-interpolation-filters="sRGB">
<feFlood flood-opacity="0" result="BackgroundImageFix"/>
<feColorMatrix in="SourceAlpha" type="matrix" values="0 0 0 0 0 0 0 0 0 0 0 0 0 0 0 0 0 0 127 0" result="hardAlpha"/>
<feOffset dx="-0.393443" dy="0.393443"/>
<feGaussianBlur stdDeviation="0.786885"/>
<feComposite in2="hardAlpha" operator="out"/>
<feColorMatrix type="matrix" values="0 0 0 0 0 0 0 0 0 0 0 0 0 0 0 0 0 0 0.25 0"/>
<feBlend mode="normal" in2="BackgroundImageFix" result="effect1_dropShadow_698_4328"/>
<feBlend mode="normal" in="SourceGraphic" in2="effect1_dropShadow_698_4328" result="shape"/>
</filter>
<filter id="filter6_d_698_4328" x="38.0328" y="219.82" width="27.1475" height="30.703" filterUnits="userSpaceOnUse" color-interpolation-filters="sRGB">
<feFlood flood-opacity="0" result="BackgroundImageFix"/>
<feColorMatrix in="SourceAlpha" type="matrix" values="0 0 0 0 0 0 0 0 0 0 0 0 0 0 0 0 0 0 127 0" result="hardAlpha"/>
<feOffset dx="-0.393443" dy="0.393443"/>
<feGaussianBlur stdDeviation="0.786885"/>
<feComposite in2="hardAlpha" operator="out"/>
<feColorMatrix type="matrix" values="0 0 0 0 0 0 0 0 0 0 0 0 0 0 0 0 0 0 0.25 0"/>
<feBlend mode="normal" in2="BackgroundImageFix" result="effect1_dropShadow_698_4328"/>
<feBlend mode="normal" in="SourceGraphic" in2="effect1_dropShadow_698_4328" result="shape"/>
</filter>
<clipPath id="clip0_698_4328">
<rect width="670.07" height="419.73" fill="white" transform="translate(-267 -2.80542)"/>
</clipPath>
</defs>
</svg>
